<svg xmlns="http://www.w3.org/2000/svg" width="2170" height="2170" viewBox="0 0 2170 2170">
    <g style="mix-blend-mode:screen" fill="none" fill-rule="evenodd" opacity=".3">
        <path stroke="#7AD1F0" stroke-dasharray="1.36" stroke-width=".34" d="M924.743 1442.63c133.372.35 261.84-50.276 359.132-141.527" transform="translate(156 159)"/>
        <path stroke="#7AD1F0" stroke-width="2.73" d="M1014.553 1435.013c3.713-.65 7.398-1.329 11.084-2.033 27.026-5.247 53.595-12.626 79.458-22.066 12.448-4.536 24.688-9.532 36.72-14.99" transform="translate(156 159)"/>
        <path stroke="#7AD1F0" stroke-width=".59" d="M757.67 640.253L498.21 201.495c33.248-19.49 67.78-36.698 103.36-51.504L798.51 619.977c-14.049 5.842-27.693 12.616-40.84 20.276z" transform="translate(156 159)"/>
        <path stroke="#7AD1F0" stroke-width=".34" d="M811.328 928.35c-.996-59.39 42.639-110.112 101.5-117.981 58.86-7.87 114.28 29.608 128.913 87.175 14.633 57.568-16.162 116.971-71.633 138.178M1041.599 653.21l26.26-63.268c35.439 14.696 68.316 34.936 97.398 59.962l-44.444 52.073c-23.646-20.362-50.387-36.824-79.214-48.766h0zM1120.813 701.977l44.553-52.073c6.323 5.421 12.43 11.06 18.32 16.915l-48.022 48.793c-4.878-4.636-9.837-9.244-14.851-13.635z" transform="translate(156 159)"/>
        <path stroke="#7AD1F0" stroke-width=".59" d="M1160.46 970.448c14.219-74.258-7.943-150.838-59.62-206.016l149.62-140.795c153.813 164.053 159.994 417.463 14.364 588.825l-156.83-132.826c26.71-31.197 44.797-68.838 52.467-109.188zM704.01 850.877c-5.312 15.84-8.945 32.194-10.84 48.793l-204.037-24.125c3.57-30.646 10.327-60.835 20.162-90.078 6.99-20.79 15.496-41.039 25.448-60.584l182.655 94.089c-5.227 10.297-9.701 20.96-13.387 31.905zM1006.26 702.6l67.75-194.007c67.276 23.442 127.849 62.885 176.505 114.935l-149.62 140.796c-26.066-27.956-58.547-49.141-94.635-61.724h0zM717.398 818.918l-182.655-94.09c51.7-101.107 140.348-178.41 247.533-215.855l67.534 194.061c-57.398 20.15-104.822 61.655-132.412 115.884h0z" transform="translate(156 159)"/>
        <path stroke="#7AD1F0" stroke-width=".59" d="M972.493 693.655c-33.215-6.372-67.413-5.522-100.27 2.494l-48.266-199.781c61.354-14.929 125.201-16.482 187.208-4.554 21.369 4.085 42.41 9.73 62.954 16.888l-67.75 194.007c-11.058-3.835-22.38-6.86-33.876-9.054h0z" transform="translate(156 159)"/>
        <path stroke="#7AD1F0" stroke-width="2.9" d="M534.743 724.828c51.7-101.107 140.348-178.41 247.533-215.855" transform="translate(156 159)"/>
        <path stroke="#7AD1F0" stroke-width=".59" d="M1047.046 1132.929l104.038 177.2c-61.402 36.127-130.661 56.788-201.816 60.206l-10.488-205.203c38.166-1.794 75.322-12.846 108.266-32.203h0zM1145.42 837.46l189.919-78.395c43.591 104.86 45.144 222.484 4.336 328.46l-191.626-74.112c21.796-56.804 20.854-119.827-2.629-175.954h0z" transform="translate(156 159)"/>
        <path fill="#7AD1F0" fill-rule="nonzero" d="M1075.8 1113.032c26.396-21.216 47.914-47.87 63.089-78.15l183.496 92.49c-28.3 56.43-68.392 106.119-117.561 145.702-16.941 13.642-34.857 26.027-53.604 37.055l-104.038-177.2c10.014-5.92 19.58-12.57 28.617-19.897z" opacity=".2" transform="translate(156 159)"/>
        <path fill="#7AD1F0" fill-rule="nonzero" d="M1176.585 1086.033c14.335-22.067 25.654-45.952 33.659-71.021l65.366 20.52c-9.85 30.954-23.785 60.454-41.437 87.72-5.42 8.403-11.165 16.48-17.127 24.26l-54.499-41.61c4.915-6.396 9.594-13.02 14.038-19.869z" opacity=".4" transform="translate(156 159)"/>
        <path fill="#7AD1F0" fill-rule="nonzero" d="M1159.892 743.261l53.685-42.585c30.252 38.28 52.483 82.265 65.366 129.329l-65.99 18.324c-10.442-38.236-28.49-73.971-53.061-105.068z" opacity=".2" transform="translate(156 159)"/>
        <path fill="#FFF" fill-rule="nonzero" d="M1072.304 1113.9l125.663 162.643c-23.542 18.1-48.846 33.783-75.528 46.815l-90.542-184.33c14.28-6.993 27.818-15.412 40.407-25.129z" opacity=".2" transform="translate(156 159)"/>
        <path stroke="#7AD1F0" stroke-width=".34" d="M1176.585 1086.033c14.335-22.067 25.654-45.952 33.659-71.021l65.366 20.52c-9.85 30.954-23.785 60.454-41.437 87.72-5.42 8.403-11.165 16.48-17.127 24.26l-54.499-41.61c4.915-6.396 9.594-13.02 14.038-19.869zM1159.892 743.261l53.685-42.585c30.252 38.28 52.483 82.265 65.366 129.329l-65.99 18.324c-10.442-38.236-28.49-73.971-53.061-105.068h0zM915.637 632.121l-2.71-68.446c38.002-1.422 75.993 3.096 112.601 13.391l-18.536 66.034c-29.699-8.374-60.519-12.078-91.355-10.979h0zM1072.304 1113.9l125.663 162.643c-23.542 18.1-48.846 33.783-75.528 46.815l-90.542-184.33c14.28-6.993 27.818-15.412 40.407-25.129z" transform="translate(156 159)"/>
        <path stroke="#7AD1F0" stroke-dasharray="1.36" stroke-linecap="round" stroke-width=".51" d="M740.976 298.756L869.051 727.783M1071.247 1077.711L1380.379 1402.267M1135.745 926.886c.003 13.19-1.24 26.35-3.712 39.306-8.09 42.622-29.351 81.629-60.786 111.52M869.051 727.783c-61.152 18.116-110.628 63.27-134.254 122.525M1135.745 926.886c-.13-65.492-31.092-127.097-83.563-166.27-52.472-39.173-120.324-51.338-183.13-32.833" transform="translate(156 159)"/>
        <path stroke="#7AD1F0" stroke-width=".17" d="M1380.38 1402.267c75.601-71.925 132.865-160.929 166.991-259.552 118.943-342.068-61.843-715.823-403.794-834.906-129.887-45.4-270.795-48.589-402.601-9.108" transform="translate(156 159)"/>
        <path stroke="#7AD1F0" stroke-dasharray="1.02" stroke-width=".34" d="M1449.268 1107.936c66.657-195.764 18.938-412.362-123.807-561.969-142.744-149.606-356.824-207.39-555.434-149.923" transform="translate(156 159)"/>
        <path stroke="#7AD1F0" stroke-dasharray="1.36" stroke-linecap="round" stroke-width=".51" d="M1345.23 1072.398L1449.268 1107.936" transform="translate(156 159)"/>
        <path stroke="#7AD1F0" stroke-dasharray="1.02" stroke-width=".17" d="M922.791 1529.075L923.144 1485.324" transform="translate(156 159)"/>
        <path stroke="#7AD1F0" stroke-width="2.73" d="M1380.38 1402.267c17.544-16.682 34.146-34.33 49.728-52.86" transform="translate(156 159)"/>
        <path stroke="#7AD1F0" stroke-width="2.05" d="M1449.268 1107.936c20.805-61.284 30.8-125.72 29.54-190.429-2.17-111.56-38.073-219.847-102.981-310.596-16.69-23.42-35.163-45.515-55.258-66.087" transform="translate(156 159)"/>
        <path stroke="#7AD1F0" stroke-dasharray="1.36" stroke-width="6.82" d="M733.875 928.946c-.978-97.813 71.17-180.977 168.121-193.788 96.95-12.811 188.215 48.759 212.664 143.47 24.448 94.713-25.606 192.782-116.638 228.522" transform="translate(156 159)"/>
        <path stroke="#7AD1F0" stroke-width=".34" d="M811.328 928.269L724.607 929.787M970.108 1035.722L1001.436 1116.204M922.981 1504.136l-.163 24.939c-36.688-.238-73.275-3.868-109.295-10.843l4.715-24.396c34.524 6.649 69.586 10.097 104.743 10.3zM737.778 1472.041c12.647 4.356 25.293 8.259 37.94 11.71l-6.558 24.072c-13.198-3.605-26.369-7.644-39.512-12.225-25.405-8.852-50.193-19.384-74.2-31.526l11.273-22.255c22.985 11.65 46.723 21.747 71.057 30.224h0zM605.908 1406.279l-13.93 20.737c-31.498-21.153-60.916-45.252-87.859-71.97l17.561-17.728c25.812 25.622 54.017 48.714 84.228 68.96h0z" transform="translate(156 159)"/>
        <path stroke="#7AD1F0" stroke-dasharray="1.36" stroke-width=".34" d="M1162.737 773.594L1560.19 511.63c50.914 77.557 87.237 163.763 107.181 254.375l-464.932 102.14c-7.371-33.67-20.826-65.712-39.702-94.55z" transform="translate(156 159)"/>
        <path fill="#7AD1F0" fill-rule="nonzero" d="M575.014 1012.112L580.623 1010.187 577.696 1022.656 587.669 1030.68 582.06 1032.605 572.087 1024.581z" transform="translate(156 159)"/>
        <path fill="#7AD1F0" fill-rule="nonzero" d="M583.415 1009.238L589.024 1007.286 586.098 1019.783 596.043 1027.807 590.434 1029.731 580.461 1021.68zM1557.453 783.976L1551.707 785.494 1555.501 773.269 1546.125 764.568 1551.843 763.022 1561.247 771.724z" transform="translate(156 159)"/>
        <path fill="#7AD1F0" fill-rule="nonzero" d="M1548.862 786.253L1543.144 787.799 1546.938 775.573 1537.534 766.845 1543.279 765.327 1552.656 774.028zM1515.718 795.118L1510 796.663 1513.794 784.437 1504.39 775.709 1510.136 774.191 1519.512 782.892z" transform="translate(156 159)"/>
        <path fill="#7AD1F0" fill-rule="nonzero" d="M1507.154 797.422L1501.436 798.967 1505.23 786.714 1495.827 778.013 1501.572 776.468 1510.949 785.196z" transform="translate(156 159)"/>
        <path fill="#7AD1F0" fill-rule="nonzero" d="M1498.591 799.699L1492.873 801.244 1496.667 789.018 1487.263 780.29 1493.008 778.772 1502.385 787.473z" transform="translate(156 159)"/>
        <path fill="#7AD1F0" fill-rule="nonzero" d="M1490.027 802.003L1484.309 803.548 1488.076 791.295 1478.699 782.594 1484.417 781.049 1493.821 789.777z" transform="translate(156 159)"/>
        <path stroke="#7AD1F0" stroke-dasharray=".92" stroke-width=".23" d="M835.285 1269.604c93.301 24.582 192.601 9.776 274.679-40.956 82.078-50.732 139.737-132.942 159.494-227.406M1109.593 629.41c-76.736-47.144-168.584-63.174-256.747-44.808" transform="translate(156 159)"/>
        <path stroke="#7AD1F0" stroke-width="1.84" d="M1055.203 602.032l-7.1-2.71c-17.423-6.477-35.328-11.57-53.55-15.235-8.763-1.807-17.57-3.235-26.423-4.283M1215.935 1127.372c14.971-21.965 27.391-45.565 37.019-70.344" transform="translate(156 159)"/>
        <path stroke="#7AD1F0" stroke-width=".4" d="M923.767 1150.549l-4.797 344.046c-26.019-.463-51.976-2.682-77.696-6.642l51.897-340.17c10.123 1.62 20.346 2.544 30.596 2.766h0z" transform="translate(156 159)"/>
        <path stroke="#7AD1F0" stroke-width=".23" d="M994.146 965.541c-20.308 34.574-63.286 48.451-99.97 32.28-36.685-16.173-55.443-57.266-43.633-95.586 11.81-38.32 50.443-61.716 89.864-54.42M764.688 1043.068l-37.398 27.107c-15.25-20.941-27.077-44.172-35.04-68.825l43.983-14.123c6.464 20.005 16.07 38.855 28.455 55.841z" transform="translate(156 159)"/>
        <path stroke="#7AD1F0" stroke-width=".23" d="M736.233 987.227l-43.984 14.313c-1.707-5.422-3.252-10.843-4.607-16.265L732.493 974c1.111 4.418 2.358 8.782 3.74 13.228z" transform="translate(156 159)"/>
        <path stroke="#7AD1F0" stroke-width=".4" d="M807.75 818.43c-34.326 37.774-48.492 89.706-38.102 139.684l-135.746 28.49C603.045 837.983 688.585 689.859 832.71 642.34l43.659 131.714c-26.346 8.562-50 23.859-68.618 44.375h0zM1028.672 1047.92c8.64-7.236 16.49-15.368 23.415-24.26l109.105 85.685c-12.85 16.418-27.382 31.445-43.36 44.836-11.336 9.516-23.356 18.187-35.962 25.942l-72.168-118.486c6.654-4.096 12.995-8.68 18.97-13.717h0z" transform="translate(156 159)"/>
        <path stroke="#7AD1F0" stroke-width=".4" d="M1009.702 1061.637l72.195 118.486c-65.34 40.082-143.602 53.45-218.537 37.326l29.323-135.536c40.162 8.553 82.074 1.291 117.019-20.276zM818.726 1044.152c16.912 15.388 36.943 26.946 58.727 33.885l-42.44 132.12c-40.608-12.98-77.948-34.548-109.485-63.24-10.825-9.906-20.915-20.588-30.19-31.96l107.264-87.99c4.947 6.115 10.337 11.859 16.124 17.185h0z" transform="translate(156 159)"/>
        <path stroke="#7AD1F0" stroke-width="1.84" d="M1081.978 1180.123c-65.36 40.103-143.658 53.47-218.618 37.326" transform="translate(156 159)"/>
        <path fill="#7AD1F0" fill-rule="nonzero" d="M1086.287 927.239c.112-11.268-.96-22.516-3.198-33.56l136.044-27.107c7.01 35.012 7.745 70.992 2.168 106.261l-136.938-22.255c1.208-7.723 1.852-15.523 1.924-23.34z" opacity=".2" transform="translate(156 159)"/>
        <path stroke="#7AD1F0" stroke-width=".4" d="M930.244 764.703l2.358-138.735c48.099.774 95.289 13.23 137.506 36.297l-66.151 121.983c-22.62-12.405-47.92-19.113-73.713-19.545h0zM769.648 900.484l-137.02-21.686c11.743-75.77 52.214-144.105 113.009-190.809L830 798.126c-32.533 25.083-54.148 61.743-60.352 102.358z" transform="translate(156 159)"/>
        <path fill="#7AD1F0" fill-rule="nonzero" d="M906.72 766.031c-22.677 2.936-44.455 10.73-63.847 22.852L769.702 671.02c36.178-22.572 76.791-37.088 119.078-42.558 14.554-1.903 29.228-2.736 43.903-2.494l-2.358 138.735c-7.89-.137-15.78.307-23.604 1.328z" opacity=".2" transform="translate(156 159)"/>
        <path stroke="#7AD1F0" stroke-width=".23" d="M1086.287 927.239c.112-11.268-.96-22.516-3.198-33.56l136.044-27.107c7.01 35.012 7.745 70.992 2.168 106.261l-136.938-22.255c1.208-7.723 1.852-15.523 1.924-23.34h0z" transform="translate(156 159)"/>
        <path fill="#FFF" fill-rule="nonzero" d="M839.106 746.135c-16.009 7.686-30.92 17.477-44.336 29.113l-30.461-34.697c16.571-14.367 34.98-26.464 54.742-35.972 6.071-2.927 12.223-5.557 18.402-7.942l16.72 43.127c-5.067 1.817-10.108 3.985-15.067 6.37z" opacity=".4" transform="translate(156 159)"/>
        <path fill="#7AD1F0" fill-rule="nonzero" d="M908.997 766.763l-15.23-137.922c19.928-2.131 40.02-2.259 59.973-.38L941.057 766.71c-10.661-1.066-21.402-1.048-32.06.054z" opacity=".2" transform="translate(156 159)"/>
        <path stroke="#7AD1F0" stroke-width=".23" d="M839.106 746.135c-16.009 7.686-30.92 17.477-44.336 29.113l-30.461-34.697c16.571-14.367 34.98-26.464 54.742-35.972 6.071-2.927 12.223-5.557 18.402-7.942l16.72 43.127c-5.067 1.817-10.108 3.985-15.067 6.37zM829.864 1099.506l-22.493 40.417c-22.403-12.559-42.71-28.536-60.19-47.357l33.822-31.526c14.197 15.276 30.68 28.253 48.861 38.466zM908.997 766.763l-15.23-137.922c19.928-2.131 40.02-2.259 59.973-.38L941.057 766.71c-10.661-1.066-21.402-1.048-32.06.054h0z" transform="translate(156 159)"/>
        <path stroke="#7AD1F0" stroke-dasharray=".92" stroke-linecap="round" stroke-width=".35" d="M813.279 1353.122L890.352 1060.796M896.883 787.988L832.873 492.166M806.667 852.233c20.004-32.872 52.616-56.095 90.216-64.245M890.46 1060.796c41.604 11.085 85.992 2.473 120.434-23.366" transform="translate(156 159)"/>
        <path stroke="#7AD1F0" stroke-dasharray=".92" stroke-linecap="round" stroke-width=".35" d="M806.667 852.233c-22.967 37.8-26.78 84.216-10.29 125.26 16.49 41.042 51.354 71.912 94.084 83.303" transform="translate(156 159)"/>
        <path stroke="#7AD1F0" stroke-width=".12" d="M832.873 492.166c-200.084 43.256-344.434 218.076-349.092 422.78-4.658 204.704 131.589 385.912 329.498 438.23" transform="translate(156 159)"/>
        <path stroke="#7AD1F0" stroke-dasharray=".92" stroke-linecap="round" stroke-width=".35" d="M737.1 694.658L689.675 637.57" transform="translate(156 159)"/>
        <path stroke="#7AD1F0" stroke-dasharray=".69" stroke-width="1.38" d="M1294.905 993.679c29.163-152.041-38.105-306.375-169.322-388.475" transform="translate(156 159)"/>
        <path stroke="#7AD1F0" stroke-dasharray=".69" stroke-width=".12" d="M1141.165 580.102L1125.583 605.204" transform="translate(156 159)"/>
        <path stroke="#7AD1F0" stroke-width="1.84" d="M832.873 492.166c-15.974 3.448-31.744 7.783-47.236 12.985" transform="translate(156 159)"/>
        <path stroke="#7AD1F0" stroke-width="1.38" d="M689.675 637.543c-108.502 90.526-156.931 234.364-125.285 372.102" transform="translate(156 159)"/>
        <path stroke="#7AD1F0" stroke-width=".23" d="M994.119 965.568L1044.634 995.197M940.407 847.787L950.65 790.374M1132.304 594.442l8.861-14.34c21.057 13.063 40.861 28.044 59.16 44.755l-11.328 12.442c-17.536-16.004-36.515-30.351-56.693-42.857h0zM1227.75 678.204c-5.717-6.967-11.652-13.554-17.723-20.087l12.25-11.575c6.34 6.723 12.502 13.708 18.482 20.954 11.563 14.005 22.191 28.756 31.816 44.158l-14.337 8.864c-9.215-14.764-19.4-28.9-30.487-42.314h0z" transform="translate(156 159)"/>
        <path fill="#7AD1F0" fill-rule="nonzero" d="M1315.637 944.777c1.138-22.079.404-44.214-2.195-66.169l16.72-2.006c2.73 22.898 3.5 45.987 2.304 69.015l-16.83-.84z" opacity=".3" transform="translate(156 159)"/>
        <path stroke="#7AD1F0" stroke-width=".23" d="M1280.705 762.372l15.311-7.02c10.72 23.257 19.205 47.483 25.339 72.349l-16.26 4.039c-5.902-23.848-14.069-47.076-24.39-69.368zM1315.637 944.777c1.138-22.079.404-44.214-2.195-66.169l16.72-2.006c2.73 22.898 3.5 45.987 2.304 69.015l-16.83-.84z" transform="translate(156 159)"/>
        <path stroke="#7AD1F0" stroke-dasharray=".92" stroke-width=".23" d="M1115.393 894.303l317.398-50.745c9.322 58.26 8.542 117.689-2.303 175.683l-315.8-59.474c3.988-21.62 4.226-43.764.705-65.464zM737.209 931.06l-321.193 11.115c-2.064-62.618 7.323-125.086 27.697-184.33L747.56 862.533c-7.587 22.023-11.095 45.246-10.352 68.528h0z" transform="translate(156 159)"/>
        <path stroke="#7AD1F0" stroke-width="1.84" d="M1432.791 843.558c9.322 58.26 8.542 117.689-2.303 175.683" transform="translate(156 159)"/>
        <path stroke="#7AD1F0" stroke-width=".3" d="M1138.943 751.041c-19.211-23.503-42.188-43.656-67.994-59.636l77.29-124.341c107.765 66.854 179.791 178.61 196.178 304.388l-145.203 18.433c-6.636-51.03-27.526-99.153-60.27-138.844h0z" transform="translate(156 159)"/>
        <path stroke="#7AD1F0" stroke-dasharray=".69" stroke-width="2.3" d="M1113.659 967.168L1425.908 1035.559" transform="translate(156 159)"/>
        <path stroke="#7AD1F0" stroke-width="1.84" d="M1199.214 889.966c-10.836-82.038-57.92-154.876-128.265-198.425" transform="translate(156 159)"/>
        <path fill="#7AD1F0" fill-rule="nonzero" d="M1159.783 1000.401L1155.881 999.534 1161.951 993.38 1159.024 985.248 1162.954 986.116 1165.854 994.248z" transform="translate(156 159)"/>
        <path fill="#7AD1F0" fill-rule="nonzero" d="M1153.93 999.1L1150.027 998.26 1156.098 992.106 1153.171 983.947 1157.1 984.814 1160.027 992.974zM1131.301 994.112L1127.398 993.245 1133.469 987.092 1130.569 978.959 1134.472 979.827 1137.398 987.959z" transform="translate(156 159)"/>
        <path fill="#7AD1F0" fill-rule="nonzero" d="M1125.474 992.811L1121.545 991.944 1127.642 985.79 1124.715 977.658 1128.618 978.526 1131.545 986.658z" transform="translate(156 159)"/>
        <path fill="#7AD1F0" fill-rule="nonzero" d="M1119.621 991.51L1115.718 990.643 1121.789 984.516 1118.889 976.357 1122.791 977.224 1125.691 985.384z" transform="translate(156 159)"/>
        <path fill="#7AD1F0" fill-rule="nonzero" d="M1113.767 990.236L1109.864 989.369 1115.935 983.215 1113.035 975.056 1116.938 975.923 1119.864 984.083zM513.388 786.199L517.236 787.338 510.732 793.057 513.089 801.379 509.241 800.241 506.883 791.919z" transform="translate(156 159)"/>
        <path fill="#7AD1F0" fill-rule="nonzero" d="M519.133 787.907L522.981 789.018 516.477 794.738 518.835 803.06 514.986 801.949 512.629 793.627zM541.355 794.44L545.203 795.578 538.699 801.298 541.057 809.62 537.209 808.481 534.851 800.16z" transform="translate(156 159)"/>
        <path fill="#7AD1F0" fill-rule="nonzero" d="M547.1 796.148L550.921 797.286 544.444 803.006 546.802 811.328 542.954 810.189 540.596 801.867z" transform="translate(156 159)"/>
        <path fill="#FFF" fill-rule="nonzero" d="M552.846 797.828L556.667 798.967 550.19 804.686 552.52 813.008 548.699 811.87 546.341 803.548z" transform="translate(156 159)"/>
        <path fill="#FFF" fill-rule="nonzero" d="M558.591 799.536L562.412 800.675 555.935 806.394 558.293 814.716 554.444 813.578 552.087 805.256z" transform="translate(156 159)"/>
        <path fill="#7AD1F0" fill-rule="nonzero" d="M1091.328 627.269L1087.805 625.344 1095.366 621.143 1094.851 612.523 1098.374 614.447 1098.889 623.095z" transform="translate(156 159)"/>
        <path fill="#7AD1F0" fill-rule="nonzero" d="M1086.07 624.396L1082.547 622.444 1090.136 618.269 1089.621 609.622 1093.117 611.574 1093.631 620.194z" transform="translate(156 159)"/>
        <path stroke="#7AD1F0" stroke-dasharray=".69" stroke-width="2.3" d="M872.71 1092.756c86.309 27.867 179.645-14.513 215.49-97.844 35.844-83.332 2.43-180.26-77.143-223.784" transform="translate(156 159)"/>
        <path stroke="#7AD1F0" stroke-dasharray="1.93" stroke-width=".48" d="M566.694 1582.151c177.018 97.687 386.361 118.422 579.095 57.356 192.734-61.065 351.964-198.578 440.471-380.394M1451.626 421.39c-131.84-135.058-310.283-214.63-498.835-222.444" transform="translate(156 159)"/>
        <path stroke="#7AD1F0" stroke-width="3.86" d="M1412.981 1487.953c41.624-36.985 78.902-78.591 111.111-124.016" transform="translate(156 159)"/>
        <path stroke="#7AD1F0" stroke-width=".48" d="M1044.932 1045.508c-59 59.872-153.485 66.033-219.758 14.33-66.273-51.702-83.31-144.867-39.624-216.687 43.685-71.82 134.233-99.512 210.602-64.406M509.864 957.409l-96.693 6.587c-.777-11.728-1.138-23.475-1.084-35.24h96.91c-.027 9.678.244 19.165.867 28.653z" transform="translate(156 159)"/>
        <path stroke="#7AD1F0" stroke-width=".84" d="M1073.17 1230.705c21.257-10.337 41.36-22.894 59.974-37.462l177.913 229.978c-59.106 45.933-125.923 80.962-197.317 103.441l-86.07-277.822c15.582-4.945 30.788-11.006 45.5-18.135h0z" transform="translate(156 159)"/>
        <path stroke="#7AD1F0" stroke-width=".84" d="M1027.67 1248.84l86.07 277.822c-153.305 48.01-319.208 35.109-463.252-36.025L779.35 1230c77.257 38.037 166.21 44.786 248.32 18.84h0z" transform="translate(156 159)"/>
        <path stroke="#7AD1F0" stroke-width="3.86" d="M1113.74 1526.662c-153.305 48.01-319.208 35.109-463.252-36.025" transform="translate(156 159)"/>
        <path fill="#7AD1F0" fill-rule="nonzero" d="M1251.87 1014.876c5.99-22.847 9.56-46.26 10.65-69.855l290.353 14.448c-3.647 74.74-20.56 148.235-49.946 217.048l-266.884-115.287c6.39-15.048 11.68-30.54 15.827-46.354z" opacity=".2" transform="translate(156 159)"/>
        <path stroke="#7AD1F0" stroke-width=".84" d="M1017.832 604.689l75.88-280.696c97.343 26.181 186.86 75.645 260.84 144.13l-196.801 214.011c-39.648-36.814-87.676-63.398-139.919-77.445h0zM622.168 798.208L354.797 684.086c62.613-147.968 179.806-266.124 327.236-329.923l115.121 266.953c-78.936 34.31-141.61 97.738-174.986 177.092h0z" transform="translate(156 159)"/>
        <path stroke="#7AD1F0" stroke-width=".48" d="M1251.87 1014.876c5.99-22.847 9.56-46.26 10.65-69.855l290.353 14.448c-3.647 74.74-20.56 148.235-49.946 217.048l-266.884-115.287c6.39-15.048 11.68-30.54 15.827-46.354h0z" transform="translate(156 159)"/>
        <path fill="#7AD1F0" fill-rule="nonzero" d="M842.14 520.33c-36.45 7.446-71.747 19.716-104.958 36.487l-44.065-86.364c40.996-20.736 84.58-35.897 129.593-45.08 13.848-2.71 27.697-5.068 41.49-6.749l11.898 96.204c-11.274 1.373-22.593 3.208-33.957 5.503z" opacity=".1" transform="translate(156 159)"/>
        <path stroke="#7AD1F0" stroke-width=".48" d="M842.14 520.33c-36.45 7.446-71.747 19.716-104.958 36.487l-44.065-86.364c40.996-20.736 84.58-35.897 129.593-45.08 13.848-2.71 27.697-5.068 41.49-6.749l11.898 96.204c-11.274 1.373-22.593 3.208-33.957 5.503zM512.629 877.036l-96.18-12.009c8.648-68.551 31.047-134.65 65.855-194.332l84.01 48.576c-28.342 48.432-46.603 102.095-53.685 157.765h0zM973.659 598.02l39.593-288.07c41.59 5.83 82.491 15.82 122.087 29.819l-96.45 274.38c-21.148-7.548-43.002-12.952-65.23-16.129z" transform="translate(156 159)"/>
        <path stroke="#7AD1F0" stroke-dasharray="1.93" stroke-linecap="round" stroke-width=".72" d="M479.214 1740.62L785.366 1186.005M938.184 634.995L959.431 1.063M722.005 719.353c13.313-13.085 27.831-24.884 43.36-35.24 51.031-34.1 111.487-51.292 172.82-49.145M785.366 1186.005c78.918 43.865 173.592 49.09 256.856 14.177" transform="translate(156 159)"/>
        <path stroke="#7AD1F0" stroke-width=".24" d="M959.43 1.063C811.88-3.999 665.264 26.388 531.87 89.677 68.672 308.568-129.404 861.639 89.458 1324.957c82.873 176.182 219.286 321.662 389.756 415.663" transform="translate(156 159)"/>
        <path stroke="#7AD1F0" stroke-dasharray="1.93" stroke-linecap="round" stroke-width=".72" d="M661.247 363.515L594.011 223.235" transform="translate(156 159)"/>
        <path stroke="#7AD1F0" stroke-dasharray="1.45" stroke-width="2.9" d="M1641.843 1256.647c137.054-294.04 79.29-642.107-145.393-876.082" transform="translate(156 159)"/>
        <path stroke="#7AD1F0" stroke-dasharray="1.45" stroke-width=".24" d="M1540.976 337.519L1496.45 380.565" transform="translate(156 159)"/>
        <path stroke="#7AD1F0" stroke-width="3.86" d="M959.43 1.063C925.199-.109 890.928.615 856.776 3.232" transform="translate(156 159)"/>
        <path stroke="#7AD1F0" stroke-width=".48" d="M1044.959 1045.616L1132.439 1131.682M996.043 778.745L1046.233 667.334M1515.61 362.105l25.257-24.586c36.12 37.29 68.724 77.834 97.399 121.116l-29.404 19.517c-27.446-41.472-58.662-80.32-93.252-116.047zM1666.748 580.943c-8.058-17.06-16.63-33.686-25.718-49.878l30.813-17.24c9.43 16.942 18.428 34.237 26.83 52.019 16.254 34.435 30.196 69.916 41.734 106.206l-33.632 10.654c-11.056-34.777-24.428-68.773-40.027-101.761h0z" transform="translate(156 159)"/>
        <path fill="#7AD1F0" fill-rule="nonzero" d="M1708.889 1167.897c13.602-44.266 23.42-89.608 29.35-135.536l35.013 4.5c-6.17 47.933-16.414 95.253-30.623 141.445l-33.74-10.409z" opacity=".3" transform="translate(156 159)"/>
        <path stroke="#7AD1F0" stroke-width=".48" d="M1731.138 779.314l34.689-6.479c9.9 52.729 14.737 106.284 14.444 159.933l-35.23-.162c.245-51.423-4.41-102.753-13.903-153.292h0zM1708.889 1167.897c13.602-44.266 23.42-89.608 29.35-135.536l35.013 4.5c-6.17 47.933-16.414 95.253-30.623 141.445l-33.74-10.409z" transform="translate(156 159)"/>
        <path stroke="#7AD1F0" stroke-dasharray="1.93" stroke-width=".48" d="M1327.94 962.83l670.922 59.122c-10.861 123.176-42.837 243.564-94.526 355.891l-611.41-282.35c19.213-41.877 31.058-86.756 35.014-132.663h0z" transform="translate(156 159)"/>
        <path stroke="#7AD1F0" stroke-width="3.86" d="M1998.862 1021.952c-10.861 123.176-42.837 243.564-94.526 355.891" transform="translate(156 159)"/>
        <path stroke="#7AD1F0" stroke-width=".62" d="M1449.024 683.625c-27.087-57.488-63.506-110.092-107.777-155.677l220.677-212.982c184.831 190.984 274.063 454.947 243.035 718.94l-304.553-36.947c12.669-107.2-5.14-215.8-51.382-313.334h0z" transform="translate(156 159)"/>
        <path stroke="#7AD1F0" stroke-dasharray="1.45" stroke-width="4.83" d="M1287.046 1110.05L1886.667 1408.8" transform="translate(156 159)"/>
        <path stroke="#7AD1F0" stroke-width="3.86" d="M1500.407 996.959c20.037-172.294-38.4-344.474-159.16-468.957" transform="translate(156 159)"/>
        <path fill="#7AD1F0" fill-rule="nonzero" d="M1363.794 1201.185L1356.287 1197.417 1371.789 1188.038 1370.027 1169.985 1377.534 1173.752 1379.295 1191.779z" transform="translate(156 159)"/>
        <path fill="#7AD1F0" fill-rule="nonzero" d="M1352.575 1195.547L1345.068 1191.806 1360.569 1182.4 1358.808 1164.373 1366.314 1168.141 1368.076 1186.168zM1309.16 1173.807L1301.653 1170.066 1317.154 1160.66 1315.393 1142.633 1322.9 1146.374 1324.661 1164.428z" transform="translate(156 159)"/>
        <path fill="#7AD1F0" fill-rule="nonzero" d="M1297.94 1168.195L1290.434 1164.428 1305.935 1155.048 1304.173 1136.995 1311.68 1140.763 1313.442 1158.789z" transform="translate(156 159)"/>
        <path fill="#7AD1F0" fill-rule="nonzero" d="M1286.748 1162.584L1279.241 1158.816 1294.715 1149.437 1292.954 1131.384 1300.461 1135.152 1302.222 1153.178z" transform="translate(156 159)"/>
        <path fill="#7AD1F0" fill-rule="nonzero" d="M1275.501 1156.946L1267.995 1153.178 1283.496 1143.799 1281.734 1125.773 1289.241 1129.513 1291.003 1147.567zM981.653 685.902L989.621 688.532 975.664 700.079 980.054 717.672 972.06 715.043 967.669 697.477z" transform="translate(156 159)"/>
        <path fill="#7AD1F0" fill-rule="nonzero" d="M993.577 689.833L1001.545 692.462 987.588 704.01 991.978 721.603 983.984 718.973 979.621 701.38z" transform="translate(156 159)"/>
        <path fill="#7AD1F0" fill-rule="nonzero" d="M1005.474 693.736L1013.469 696.366 999.485 707.913 1003.875 725.506 995.908 722.877 991.518 705.311z" transform="translate(156 159)"/>
        <path fill="#7AD1F0" fill-rule="nonzero" d="M1017.398 697.667L1025.393 700.269 1011.436 711.844 1015.799 729.409 1007.832 726.807 1003.442 709.214zM1415.528 407.863L1409.377 402.143 1426.883 397.508 1430.271 379.698 1436.423 385.418 1433.035 403.227z" transform="translate(156 159)"/>
        <path fill="#7AD1F0" fill-rule="nonzero" d="M1406.341 399.324L1400.19 393.604 1417.696 388.942 1421.084 371.159 1427.236 376.879 1423.848 394.688z" transform="translate(156 159)"/>
        <path stroke="#7AD1F0" stroke-dasharray="1.45" stroke-width="4.83" d="M733.28 1242.036c161.133 100.484 372.226 62.013 487.574-88.86 115.35-150.872 97.169-364.723-41.992-493.947" transform="translate(156 159)"/>
        <path fill="#FFF" fill-rule="nonzero" d="M1024.038 1074.431L1018.78 1077.142 1019.865 1064.374 1008.808 1057.896 1014.092 1055.158 1025.122 1061.664z" transform="translate(156 159)"/>
        <path fill="#FFF" fill-rule="nonzero" d="M1016.152 1078.497L1010.894 1081.235 1011.978 1068.468 1000.949 1061.962 1006.206 1059.251 1017.263 1065.73z" transform="translate(156 159)"/>
        <path fill="#FFF" fill-rule="nonzero" d="M1008.293 1082.563L1003.035 1085.301 1004.119 1072.534 993.062 1066.028 998.347 1063.317 1009.377 1069.796z" transform="translate(156 159)"/>
        <path fill="#FFF" fill-rule="nonzero" d="M1000.407 1086.657L995.149 1089.367 996.233 1076.6 985.176 1070.121 990.461 1067.383 1001.491 1073.889z" transform="translate(156 159)"/>
    </g>
</svg>
