<?xml version="1.0" standalone="no"?>
<!DOCTYPE svg PUBLIC "-//W3C//DTD SVG 1.1//EN" "http://www.w3.org/Graphics/SVG/1.1/DTD/svg11.dtd" >
<svg xmlns="http://www.w3.org/2000/svg" xmlns:xlink="http://www.w3.org/1999/xlink" version="1.1">
<metadata>
Created by FontForge 20170731 at Thu Aug 13 18:28:08 2020
 By Aleksey,,,
Copyright (c) 2015 by Mariya Pigoulevskaya. All rights reserved.
</metadata>
<defs>
<font id="Webnar-ThinItalic" horiz-adv-x="1110" >
  <font-face 
    font-family="Webnar Thin"
    font-weight="250"
    font-style="italic"
    font-stretch="normal"
    units-per-em="2048"
    panose-1="0 0 3 0 0 0 0 0 0 0"
    ascent="1536"
    descent="-512"
    x-height="1024"
    cap-height="1434"
    bbox="-204.8 -512 2779.51 2220"
    underline-thickness="102"
    underline-position="-307"
    unicode-range="U+0020-FE6B"
  />
<missing-glyph horiz-adv-x="1024" 
d="M0 0v1434h1024v-1434h-1024zM512 809l348 522h-696zM573 717l349 -522v1044zM164 102h696l-348 523zM102 1239v-1044l349 522z" />
    <glyph glyph-name=".notdef" horiz-adv-x="1024" 
d="M0 0v1434h1024v-1434h-1024zM512 809l348 522h-696zM573 717l349 -522v1044zM164 102h696l-348 523zM102 1239v-1044l349 522z" />
    <glyph glyph-name=".null" horiz-adv-x="0" 
 />
    <glyph glyph-name="nonmarkingreturn" horiz-adv-x="682" 
 />
    <glyph glyph-name="space" unicode=" " horiz-adv-x="389" 
 />
    <glyph glyph-name="exclam" unicode="!" horiz-adv-x="256" 
d="M364 1434h33q13 0 11 -13l-186 -1021q-2 -13 -15 -13h-21q-13 0 -11 13l174 1020q2 14 15 14zM114 104h65q13 0 11 -13l-14 -78q-2 -13 -15 -13h-66q-13 0 -11 13l14 78q2 13 16 13z" />
    <glyph glyph-name="quotedbl" unicode="&#x22;" horiz-adv-x="452" 
d="M348 1434h33q5 0 8.5 -4.5t2.5 -9.5l-74 -383q-2 -13 -15 -13h-21q-13 0 -11 13l61 383q2 14 16 14zM578 1434h32q5 0 8.5 -4.5t2.5 -9.5l-74 -383q-2 -13 -15 -13h-21q-13 0 -11 13l62 383q2 14 16 14z" />
    <glyph glyph-name="numbersign" unicode="#" horiz-adv-x="1107" 
d="M1153 1434h27q7 0 10.5 -5t0.5 -12l-224 -510h204q7 0 10.5 -5t0.5 -12l-10 -23q-3 -9 -14 -9h-212l-124 -283h203q7 0 10.5 -5t0.5 -12l-10 -23q-3 -9 -14 -9h-212l-227 -517q-3 -9 -14 -9h-27q-7 0 -10.5 5t-0.5 12l224 509h-299l-228 -517q-3 -9 -13 -9h-27
q-7 0 -10.5 5t-0.5 12l224 509h-204q-7 0 -10.5 5t-0.5 12l10 24q3 9 14 9h212l124 282h-203q-7 0 -10.5 5t-0.5 12l10 23q3 9 14 9h212l227 518q3 9 14 9h27q7 0 10.5 -5t0.5 -12l-224 -510h299l228 518q3 9 13 9zM891 858h-299l-125 -283h299z" />
    <glyph glyph-name="dollar" unicode="$" horiz-adv-x="1124" 
d="M1147 1368q11 -6 9 -19l-5 -26q-4 -17 -18 -8q-161 96 -333 96h-16q-92 0 -178 -33t-153 -104t-84 -168l-2 -11q-20 -113 48.5 -182t234.5 -128l98 -35q33 -12 57 -21.5t54 -22.5t51 -25t45.5 -27.5t40.5 -32.5t32 -37.5t24.5 -44t14.5 -51t5 -60t-7 -68.5l-4 -20
q-28 -160 -168 -261.5t-326 -105.5l-44 -247q-2 -13 -15 -13h-25q-13 0 -11 13l44 248q-181 5 -338 102q-10 6 -8 19l4 25q2 7 7 10t11 -1q82 -49 165.5 -77.5t190.5 -28.5h17q171 0 296 88.5t151 236.5l1 9q6 32 6.5 60t-5 52t-13 44t-22.5 38t-29 32.5t-37 29t-42.5 25
t-49 22.5t-52.5 21t-57 21l-99 35q-169 60 -245 141t-53 214l4 22q18 103 91 182.5t169.5 120t198.5 43.5l43 247q2 13 16 13h25q12 0 10 -13l-43 -247q172 -4 318 -92z" />
    <glyph glyph-name="percent" unicode="%" horiz-adv-x="1945" 
d="M669 1460h23q156 0 226.5 -106t39.5 -279l-11 -59q-31 -173 -136 -277t-261 -104h-23q-156 0 -226 106t-39 279l10 59q31 173 136 277t261 104zM1551 1434h30q5 0 7 -4t-1 -9l-918 -1409q-7 -12 -22 -12h-29q-5 0 -7.5 4t0.5 8l918 1409q8 13 22 13zM685 1411h-19
q-135 0 -226 -92.5t-117 -241.5l-11 -63q-26 -149 31 -239.5t192 -90.5h18q135 0 226 92.5t117 241.5l11 63q26 149 -31 239.5t-191 90.5zM1649 799h22q156 0 226.5 -106t39.5 -279l-11 -59q-31 -173 -136 -277.5t-261 -104.5h-23q-156 0 -226 106t-39 279l10 60
q31 173 136.5 277t261.5 104zM1664 750h-19q-135 0 -226 -92.5t-117 -241.5l-11 -63q-26 -149 31 -239.5t192 -90.5h18q135 0 226 92t117 241l11 64q26 149 -31 239.5t-191 90.5z" />
    <glyph glyph-name="ampersand" unicode="&#x26;" horiz-adv-x="1398" 
d="M829 1460h14q117 0 219 -49q14 -7 11 -21l-5 -26q-2 -8 -10 -5q-107 52 -222 52h-10q-162 0 -279 -86.5t-142 -226.5l-4 -21q-9 -53 3.5 -104.5t48.5 -98t109 -75.5t174 -29l356 -1l81 462q3 17 22 22l24 6q4 1 7 -1.5t2 -6.5l-85 -482l330 -1l-9 -49l-329 1l-92 -519
q-16 -93 12.5 -135.5t114.5 -42.5h8q62 0 156 36q5 2 8.5 -1t2.5 -8l-6 -29q-2 -10 -11 -13q-90 -35 -153 -35h-13q-186 0 -175 176q-97 -75 -213.5 -125.5t-233.5 -50.5h-21q-192 0 -287 110.5t-66 274.5l7 43q10 53 35 104.5t67 101t109.5 89t151.5 58.5
q-110 43 -157 132.5t-31 182.5l8 45q27 155 159 250.5t314 95.5zM1083 720l-391 1q-92 0 -169 -21.5t-128 -55.5t-89 -79.5t-57.5 -89.5t-27.5 -90l-3 -18q-26 -150 54.5 -247.5t253.5 -97.5h17q200 0 450 192z" />
    <glyph glyph-name="quotesingle" unicode="'" horiz-adv-x="223" 
d="M348 1434h33q5 0 8.5 -4.5t2.5 -9.5l-74 -383q-2 -13 -15 -13h-21q-13 0 -11 13l61 383q2 14 16 14z" />
    <glyph glyph-name="parenleft" unicode="(" horiz-adv-x="514" 
d="M678 1461q4 1 6.5 -2t1.5 -7l-5 -29q-2 -11 -11 -14q-46 -16 -83 -39.5t-76 -65t-68.5 -109.5t-45.5 -160l-158 -900q-11 -61 -12.5 -112t6.5 -88t21 -65.5t33 -48.5t40.5 -33t45.5 -24q15 -7 12 -22l-4 -22q-2 -7 -8 -5q-117 28 -168.5 125.5t-21.5 269.5l169 957
q30 170 115.5 267.5t210.5 126.5z" />
    <glyph glyph-name="parenright" unicode=")" horiz-adv-x="514" 
d="M336 1431l4 24q2 8 8 6q111 -27 165.5 -127.5t24.5 -270.5l-169 -956q-30 -170 -115.5 -267.5t-210.5 -126.5q-4 -1 -6.5 1.5t-1.5 6.5l5 29q2 11 11 14q46 16 83 39.5t76 65t68.5 110t45.5 160.5l158 899q11 61 12.5 112t-6.5 88t-21 65.5t-33 48.5t-40.5 33t-45.5 24
q-15 7 -12 22z" />
    <glyph glyph-name="asterisk" unicode="*" horiz-adv-x="823" 
d="M641 1434h41q13 0 11 -14l-58 -286l295 109q13 6 15 -9l6 -41q2 -8 -7 -11l-302 -95l161 -229q5 -8 -2 -14l-37 -27q-10 -8 -16 3l-148 240l-237 -243q-7 -7 -14 0l-28 25q-10 8 0 16l242 229l-264 94q-12 4 -6 15l21 43q5 8 13 5l260 -110l44 291q2 9 10 9z" />
    <glyph glyph-name="plus" unicode="+" horiz-adv-x="1116" 
d="M737 1085h25q13 0 11 -13l-68 -386h437q13 0 11 -13l-4 -23q-2 -13 -16 -13h-437l-68 -386q-2 -13 -16 -13h-24q-13 0 -11 13l68 386h-438q-12 0 -10 13l4 23q2 13 15 13h437l69 386q2 13 15 13z" />
    <glyph glyph-name="comma" unicode="," horiz-adv-x="278" 
d="M132 104h70q13 0 11 -13l-12 -67q-1 -7 -5 -21l-121 -335q-3 -10 -14 -10h-33q-4 0 -6 2.5t-1 6.5l120 333h-27q-13 0 -11 13l14 78q2 13 15 13z" />
    <glyph glyph-name="hyphen" unicode="-" horiz-adv-x="802" 
d="M216 686h613q13 0 11 -13l-4 -23q-2 -13 -16 -13h-613q-12 0 -10 13l4 23q2 13 15 13z" />
    <glyph glyph-name="period" unicode="." horiz-adv-x="256" 
d="M114 104h65q13 0 11 -13l-14 -78q-2 -13 -15 -13h-66q-13 0 -11 13l14 78q2 13 16 13z" />
    <glyph glyph-name="slash" unicode="/" horiz-adv-x="589" 
d="M718 1434h27q7 0 10.5 -5t0.5 -12l-619 -1408q-3 -9 -13 -9h-27q-7 0 -10.5 5t-0.5 12l618 1408q3 9 14 9z" />
    <glyph glyph-name="zero" unicode="0" horiz-adv-x="1345" 
d="M913 1460h31q226 0 333.5 -155t54.5 -455l-48 -270q-53 -300 -213 -453.5t-386 -153.5h-31q-226 0 -333 155t-54 455l47 271q53 300 213 453t386 153zM937 1411h-27q-205 0 -350.5 -143.5t-196.5 -429.5l-44 -246q-51 -286 43.5 -427.5t299.5 -141.5h26q205 0 351 143.5
t197 429.5l43 245q51 286 -43 428t-299 142z" />
    <glyph glyph-name="one" unicode="1" horiz-adv-x="768" 
d="M641 1434h18q13 0 11 -13l-242 -1372h254q12 0 10 -13l-4 -23q-2 -13 -15 -13h-578q-13 0 -11 13l4 23q2 13 16 13h273l234 1325l-295 -116q-4 -1 -8 1.5t-3 7.5l6 31q2 11 11 14l296 117q13 5 23 5z" />
    <glyph glyph-name="two" unicode="2" horiz-adv-x="1124" 
d="M803 1460h20q78 0 146.5 -24t119.5 -69.5t74 -119t7 -163.5l-4 -23q-11 -60 -56 -135t-86.5 -128t-131 -140.5t-119.5 -114t-122 -106.5q-24 -21 -35 -31l-414 -357h795q13 0 11 -13l-4 -23q-2 -13 -16 -13h-852q-13 0 -11 13l4 26q2 12 11 20l422 368q226 196 319 290
q210 213 234 348l2 10q13 69 1.5 123.5t-39 94.5t-69.5 66t-91 39t-103 13h-17q-174 0 -370 -98q-5 -2 -9 1t-3 8l5 31q1 7 9 12q186 95 372 95z" />
    <glyph glyph-name="three" unicode="3" horiz-adv-x="1089" 
d="M745 1460h21q185 0 286 -97.5t74 -252.5l-8 -45q-16 -94 -93.5 -181.5t-205.5 -131.5q61 -15 108.5 -44t74 -65t43 -78t17 -84t-4.5 -83l-7 -43q-28 -162 -175 -272t-352 -110h-20q-193 0 -349 96q-10 6 -8 19l5 26q2 10 10 5q160 -96 349 -96h17q185 0 316.5 99.5
t157.5 247.5l4 19q4 31 5.5 63.5t-8 65t-24.5 62.5t-43.5 55.5t-66 45t-92.5 30.5t-121 11h-189q-13 0 -11 13l4 22q2 13 16 13h146q101 0 185 29.5t137 76.5t85 99.5t41 105.5l4 21q25 140 -62.5 224.5t-252.5 84.5h-16q-177 0 -373 -98q-5 -2 -8.5 1t-2.5 8l5 31q1 8 9 13
q184 94 373 94z" />
    <glyph glyph-name="four" unicode="4" horiz-adv-x="1214" 
d="M1059 1434h47q13 0 11 -13l-172 -972h253q13 0 11 -13l-4 -24q-2 -13 -15 -13h-253l-68 -386q-2 -13 -16 -13h-25q-13 0 -11 13l69 386h-721q-13 0 -11 13l5 28q1 8 8 16l867 966q12 12 25 12zM225 449h669l165 928z" />
    <glyph glyph-name="five" unicode="5" horiz-adv-x="1089" 
d="M438 1434h688q13 0 11 -13l-4 -23q-2 -14 -15 -14h-651l-107 -600q6 1 39 8.5t47.5 10.5t47 10t53.5 10t49.5 7t53.5 6t47 2q91 0 161 -22t113 -60.5t69 -91t29 -113.5t-7 -129l-7 -39q-30 -172 -177.5 -291t-354.5 -119h-20q-199 0 -355 96q-10 6 -8 19l5 26q2 10 10 5
q160 -96 355 -96h17q187 0 319 109t160 267l3 14q9 63 8 118.5t-22.5 102.5t-58.5 81.5t-99 53.5t-144 19q-40 0 -92 -7.5t-88.5 -15t-94 -21.5t-77.5 -18q-13 -3 -20 9l-8 13q-6 10 -4 24l114 648q2 14 15 14z" />
    <glyph glyph-name="six" unicode="6" horiz-adv-x="1185" 
d="M919 1460h21q155 0 305 -95q11 -6 9 -19l-5 -26q-2 -10 -11 -5q-78 48 -146 72t-159 24h-17q-56 0 -111 -15t-123 -61t-126 -119.5t-115 -201t-97 -295.5q106 57 230 95t234 38q198 0 292.5 -110t63.5 -285l-7 -39q-16 -88 -59.5 -168t-109 -142t-157 -98.5t-195.5 -36.5
h-18q-210 0 -306.5 158.5t-49.5 423.5l7 39q27 151 66 276.5t82.5 213.5t96 156t103 108.5t106 66.5t102 35.5t94.5 9.5zM804 803q-203 0 -470 -144l-20 -96q-44 -251 38.5 -395.5t272.5 -144.5h14q94 0 176.5 34t141.5 91t98.5 130.5t53.5 155.5l2 14q28 162 -51.5 258.5
t-255.5 96.5z" />
    <glyph glyph-name="seven" unicode="7" horiz-adv-x="1083" 
d="M348 1434h893q13 0 11 -13l-3 -18q-3 -18 -17 -34l-619 -659q-17 -18 -21 -42l-117 -655q-2 -13 -15 -13h-25q-13 0 -11 13l118 674q4 23 21 41l616 656h-840q-13 0 -11 13l4 23q2 14 16 14z" />
    <glyph glyph-name="eight" unicode="8" horiz-adv-x="1202" 
d="M848 1460h18q193 0 296 -97t76 -253l-8 -45q-16 -94 -93.5 -181.5t-206.5 -131.5q62 -15 109.5 -44.5t74 -65.5t43.5 -78t17.5 -84t-4.5 -82l-8 -43q-29 -163 -179 -272.5t-370 -109.5h-30q-220 0 -333 111t-84 274l7 43q9 52 34 103t67.5 101t110 89.5t152.5 59.5
q-111 43 -158 132.5t-31 182.5l8 45q27 155 162.5 250.5t329.5 95.5zM859 1411h-15q-173 0 -293.5 -86t-145.5 -227l-4 -20q-9 -52 2.5 -103.5t45 -98.5t102 -76.5t163.5 -29.5h32q79 0 148.5 20t117.5 52t85 73.5t57.5 83t27.5 82.5l3 21q25 141 -64 225t-262 84zM766 721
h-72q-93 0 -170 -22t-128.5 -56t-89 -80t-57 -89.5t-27.5 -88.5l-4 -18q-26 -149 73 -246.5t299 -97.5h27q200 0 335.5 99t161.5 248l3 19q9 35 5 73t-13.5 75t-37 70.5t-66 58.5t-100 40t-139.5 15z" />
    <glyph glyph-name="nine" unicode="9" horiz-adv-x="1185" 
d="M803 1460h18q210 0 306.5 -158t49.5 -423l-7 -39q-27 -151 -66 -276.5t-82.5 -213.5t-96 -156t-103.5 -109t-106 -67t-102 -35.5t-95 -9.5h-20q-154 0 -306 96q-10 6 -8 19l5 26q2 9 10 4q77 -47 145.5 -71t160.5 -24h16q56 0 111 15t123 61t126 119.5t115 201t97 295.5
q-106 -57 -230 -95t-234 -38q-198 0 -292 110t-63 285l6 39q16 88 59.5 167.5t109.5 141.5t157.5 98.5t195.5 36.5zM814 1411h-15q-94 0 -176.5 -34t-141 -91t-98 -130.5t-53.5 -155.5l-3 -15q-28 -162 51.5 -258t255.5 -96q204 0 471 144l19 95q44 251 -38 396t-272 145z
" />
    <glyph glyph-name="colon" unicode=":" horiz-adv-x="256" 
d="M254 901h66q13 0 11 -13l-14 -78q-2 -13 -16 -13h-65q-13 0 -11 13l13 78q2 13 16 13zM114 104h65q13 0 11 -13l-14 -78q-2 -13 -15 -13h-66q-13 0 -11 13l14 78q2 13 16 13z" />
    <glyph glyph-name="semicolon" unicode=";" horiz-adv-x="278" 
d="M274 901h66q12 0 10 -13l-13 -78q-2 -13 -16 -13h-66q-13 0 -11 13l14 78q2 13 16 13zM132 104h70q13 0 11 -13l-12 -67q-1 -7 -5 -21l-121 -335q-3 -10 -14 -10h-33q-4 0 -6 2.5t-1 6.5l120 333h-27q-13 0 -11 13l14 78q2 13 15 13z" />
    <glyph glyph-name="less" unicode="&#x3c;" horiz-adv-x="1114" 
d="M196 598l993 355q4 1 7.5 -1.5t2.5 -7.5l-6 -31q-2 -11 -11 -14l-919 -328l797 -325q15 -7 12 -22l-6 -30q-2 -9 -9 -5l-864 354q-15 7 -12 21l4 20q2 11 11 14z" />
    <glyph glyph-name="equal" unicode="=" horiz-adv-x="1114" 
d="M235 795h924q13 0 11 -13l-4 -23q-2 -14 -16 -14h-923q-13 0 -11 13l4 24q2 13 15 13zM185 508h924q12 0 10 -13l-4 -23q-2 -13 -15 -13h-924q-13 0 -11 13l4 23q2 13 16 13z" />
    <glyph glyph-name="greater" unicode="&#x3e;" horiz-adv-x="1114" 
d="M244 918l5 31q2 9 9 5l864 -354q15 -7 12 -21l-3 -20q-1 -11 -12 -14l-992 -355q-5 -2 -8 1t-2 7l5 31q2 10 12 14l919 328l-797 326q-15 7 -12 21z" />
    <glyph glyph-name="question" unicode="?" horiz-adv-x="1028" 
d="M721 1460h20q209 0 316 -111.5t78 -275.5l-6 -38q-28 -158 -163 -270t-335 -112q-57 0 -127 11l-50 -264q-2 -13 -16 -13h-21q-13 0 -11 13l49 289q1 7 8 12l18 11q9 5 16 4q11 -2 28 -5t28 -4.5t28.5 -3t36.5 -1.5q100 0 183.5 29t140 78.5t91.5 110.5t47 130l3 15
q26 150 -66.5 248t-282.5 98h-17q-191 0 -389 -98q-5 -2 -8.5 1t-2.5 8l5 31q1 7 9 12q188 95 390 95zM345 104h66q13 0 11 -13l-14 -78q-2 -13 -16 -13h-65q-13 0 -11 13l13 78q2 13 16 13z" />
    <glyph glyph-name="at" unicode="@" horiz-adv-x="1732" 
d="M1041 1327h299q287 0 420 -153.5t79 -456.5l-98 -553q-9 -51 -30 -88.5t-44 -56.5t-52.5 -30t-47 -13.5t-36.5 -2.5h-64q-17 0 -36.5 4t-44.5 15.5t-40.5 31.5t-25.5 51.5t0 76.5q-91 -90 -195.5 -134.5t-193.5 -44.5h-8q-188 0 -266.5 119t-38.5 346l27 152
q39 223 165 342t309 119h13q84 0 184.5 -33t173.5 -78q16 -10 13 -29l-126 -720q-30 -168 96 -168h63q21 0 41 6t44.5 22t44 52.5t29.5 90.5l91 514q51 289 -67.5 429.5t-385.5 140.5h-295q-267 0 -437 -142t-221 -431l-67 -381q-51 -289 67.5 -429.5t385.5 -140.5h482
q13 0 11 -13l-4 -23q-2 -13 -16 -13h-480q-287 0 -420 153.5t-79 456.5l72 406q54 304 238 455t471 151zM1124 1001h-8q-162 0 -273.5 -107.5t-146.5 -305.5l-28 -156q-35 -202 30.5 -305.5t231.5 -103.5h4q192 0 396 200l122 675q-68 45 -155 74t-173 29z" />
    <glyph glyph-name="A" unicode="A" horiz-adv-x="1249" 
d="M857 1434h34q23 0 26 -22l250 -1399q2 -13 -11 -13h-24q-17 0 -20 16l-85 476h-631l-256 -482q-5 -10 -16 -10h-25q-8 0 -11.5 5.5t0.5 12.5l745 1401q8 15 24 15zM864 1376l-322 -612l-120 -223h596l-40 223l-107 612h-7z" />
    <glyph glyph-name="B" unicode="B" horiz-adv-x="1234" 
d="M474 1434h432q217 0 304 -87.5t59 -248.5l-6 -33q-18 -104 -91 -187.5t-198 -125.5q99 -24 156 -81.5t71.5 -128t-0.5 -155.5l-7 -39q-61 -348 -484 -348h-492q-13 0 -11 13l248 1404q3 17 19 17zM500 1384l-108 -614h375q198 0 311.5 90t136.5 221l1 8q26 147 -47 221
t-270 74h-399zM383 721l-118 -672h449q202 0 304 82t128 233l2 15q7 54 6.5 104t-23.5 93.5t-61.5 75.5t-107 50.5t-161.5 18.5h-418z" />
    <glyph glyph-name="C" unicode="C" horiz-adv-x="1218" 
d="M991 1460h20q178 0 332 -95q11 -6 9 -19l-5 -26q-2 -10 -11 -5q-158 96 -332 96h-16q-83 0 -163 -23t-155.5 -71.5t-136.5 -117t-107 -166t-66 -212.5l-38 -213q-24 -148 -2.5 -258t83 -183t147 -109t189.5 -36h17q171 0 367 98q5 2 8.5 -1t2.5 -8l-4 -26q-2 -13 -14 -19
q-186 -93 -363 -93h-21q-114 0 -209 39.5t-162 118t-92.5 196t0.5 272.5l42 238q27 150 95 271t161 196.5t201.5 115.5t222.5 40z" />
    <glyph glyph-name="D" unicode="D" horiz-adv-x="1366" 
d="M471 1434h452q114 0 202.5 -37t149 -112.5t79.5 -190.5t-7 -270l-38 -218q-53 -298 -226.5 -452t-409.5 -154h-455q-13 0 -11 13l248 1407q2 14 16 14zM1261 622l34 193q24 148 8.5 255.5t-69.5 177t-134 103t-184 33.5h-416l-235 -1335h412q104 0 196.5 34.5t170.5 103
t134.5 180t82.5 255.5z" />
    <glyph glyph-name="E" unicode="E" horiz-adv-x="1155" 
d="M391 766h743q12 0 10 -13l-4 -23q-2 -13 -15 -13h-743l-117 -668h783q13 0 11 -13l-4 -23q-2 -13 -16 -13h-821q-13 0 -11 13l248 1407q2 14 16 14h821q13 0 11 -13l-4 -23q-2 -14 -16 -14h-783z" />
    <glyph glyph-name="F" unicode="F" horiz-adv-x="1155" 
d="M471 1434h821q13 0 11 -13l-4 -23q-2 -14 -16 -14h-783l-109 -618h743q12 0 10 -13l-4 -23q-2 -13 -15 -13h-743l-124 -704q-2 -13 -15 -13h-25q-13 0 -11 13l248 1407q2 14 16 14z" />
    <glyph glyph-name="G" unicode="G" horiz-adv-x="1337" 
d="M1018 1460h20q178 0 332 -95q11 -6 9 -19l-5 -26q-2 -10 -11 -5q-158 96 -332 96h-17q-107 0 -210.5 -37.5t-194 -108.5t-157.5 -186t-92 -258l-38 -212q-25 -143 0.5 -257.5t91 -184.5t155.5 -107t197 -37h17q156 0 325 77l104 581q2 13 15 13h25q13 0 11 -13l-103 -590
q-3 -18 -18 -25q-186 -93 -363 -93h-20q-93 0 -175.5 25.5t-150.5 76t-112 126t-59 175.5t8 224l42 237q26 150 97.5 271t169 196.5t210.5 115.5t229 40z" />
    <glyph glyph-name="H" unicode="H" horiz-adv-x="1398" 
d="M1409 1434h25q12 0 10 -13l-248 -1408q-2 -13 -15 -13h-25q-13 0 -11 13l124 704h-887l-124 -704q-2 -13 -15 -13h-25q-13 0 -11 13l248 1407q2 14 16 14h25q12 0 10 -13l-115 -655h887l115 654q2 14 16 14z" />
    <glyph glyph-name="I" unicode="I" horiz-adv-x="460" 
d="M471 1434h25q12 0 10 -13l-248 -1408q-2 -13 -15 -13h-25q-13 0 -11 13l248 1407q2 14 16 14z" />
    <glyph glyph-name="J" unicode="J" horiz-adv-x="796" 
d="M807 1434h24q13 0 11 -13l-195 -1107q-61 -341 -333 -341h-10q-108 0 -200 65q-13 8 -10 24l5 26q2 12 12 4q97 -69 201 -69h6q227 0 281 306l192 1091q2 14 16 14z" />
    <glyph glyph-name="K" unicode="K" horiz-adv-x="1236" 
d="M724 725l433 -713q6 -12 -6 -12h-37q-14 0 -20 11l-422 689h-293l-121 -687q-2 -13 -15 -13h-25q-13 0 -11 13l248 1407q2 14 16 14h25q12 0 10 -13l-118 -671h292l625 676q6 8 16 8h35q6 0 8 -5t-2 -10z" />
    <glyph glyph-name="L" unicode="L" horiz-adv-x="1093" 
d="M265 49h742q13 0 11 -13l-5 -28q-2 -8 -10 -8h-785q-13 0 -11 13l248 1407q2 14 16 14h25q12 0 10 -13z" />
    <glyph glyph-name="M" unicode="M" horiz-adv-x="1699" 
d="M1698 1434h31q8 0 12.5 -6t3.5 -13l-249 -1407q-2 -8 -9 -8h-22q-9 0 -14 6t-3 15l232 1318h-3l-376 -475l-360 -444q-5 -6 -13 -6h-18q-10 0 -13 8l-201 442l-209 475h-5l-234 -1326q-2 -13 -16 -13h-24q-13 0 -11 13l248 1407q2 14 16 14h32q11 0 16 -11l419 -938h3
l753 942q5 7 14 7z" />
    <glyph glyph-name="N" unicode="N" horiz-adv-x="1396" 
d="M1412 1434h30q13 0 11 -13l-249 -1408q-2 -13 -15 -13h-39q-12 0 -16 10l-372 774l-275 570h-3l-237 -1346q-2 -8 -10 -8h-29q-13 0 -11 13l248 1407q2 14 16 14h38q12 0 17 -11l646 -1343h3l237 1345q2 9 10 9z" />
    <glyph glyph-name="O" unicode="O" horiz-adv-x="1419" 
d="M950 1460h31q114 0 202.5 -37t149 -112.5t79.5 -190.5t-7 -270l-47 -270q-53 -298 -226.5 -452.5t-409.5 -154.5h-31q-114 0 -202.5 37t-149 112.5t-79.5 190.5t7 270l47 271q53 298 226.5 452t409.5 154zM973 1411h-26q-104 0 -196.5 -34.5t-170.5 -103t-134.5 -180
t-82.5 -255.5l-44 -246q-24 -148 -8.5 -255.5t70 -177t134.5 -103t184 -33.5h26q104 0 196.5 34.5t170.5 103t134.5 180t82.5 255.5l44 245q24 148 8.5 255.5t-70 177.5t-134.5 103.5t-184 33.5z" />
    <glyph glyph-name="P" unicode="P" horiz-adv-x="1290" 
d="M471 1434h397q264 0 369 -104.5t72 -292.5l-9 -50q-16 -92 -58 -167.5t-111 -134.5t-174.5 -91.5t-239.5 -32.5h-362l-97 -548q-2 -13 -15 -13h-25q-13 0 -11 13l248 1407q2 14 16 14zM1252 1003l4 25q31 173 -60 264.5t-336 91.5h-360l-136 -774h356q124 0 220.5 30
t159 85t100 124t52.5 154z" />
    <glyph glyph-name="Q" unicode="Q" horiz-adv-x="1419" 
d="M950 1460h31q114 0 202.5 -37t149 -112.5t79.5 -190.5t-7 -270l-47 -270q-35 -199 -127 -335t-226 -205l208 -252q7 -9 -1 -15l-26 -21q-9 -7 -15 1l-217 263q-108 -43 -232 -43h-31q-114 0 -202.5 37t-149 112.5t-79.5 190.5t7 270l47 271q53 298 226.5 452t409.5 154z
M1309 596l44 245q24 148 8.5 255.5t-70 177.5t-134.5 103.5t-184 33.5h-26q-104 0 -196.5 -34.5t-170.5 -103t-134.5 -180t-82.5 -255.5l-44 -246q-24 -148 -8.5 -255.5t70 -177t134.5 -103t184 -33.5h26q104 0 196.5 34.5t170.5 103t134.5 180t82.5 255.5z" />
    <glyph glyph-name="R" unicode="R" horiz-adv-x="1257" 
d="M471 1434h407q265 0 366 -98t68 -285l-7 -39q-28 -154 -141 -263.5t-312 -137.5l112 -212l212 -388q2 -4 0 -7.5t-7 -3.5h-34q-13 0 -19 11l-321 591h-433l-104 -590q-2 -14 -16 -14h-24q-13 0 -11 13l248 1409q2 14 16 14zM500 1384l-129 -733h357q123 0 220 30.5
t159 84t98.5 119t50.5 143.5l3 14q31 172 -56.5 257t-332.5 85h-370z" />
    <glyph glyph-name="S" unicode="S" horiz-adv-x="1124" 
d="M613 737l99 -35q34 -12 57 -21t52.5 -21t49 -22.5t42.5 -25t37 -29t29 -32.5t22.5 -38t13 -44t5 -52t-6.5 -60l-1 -9q-26 -148 -151 -236.5t-296 -88.5h-17q-107 0 -190.5 28.5t-165.5 77.5q-6 4 -11 1t-7 -10l-4 -25q-2 -13 8 -19q169 -103 356 -103h21
q190 0 333.5 102.5t172.5 264.5l4 20q6 36 7 68.5t-5 60t-14.5 51t-24.5 44t-32 37.5t-40.5 32.5t-45.5 27.5t-51 25t-54 22.5t-57 21.5l-98 35q-166 59 -234.5 128t-48.5 182l2 11q17 97 84 168t153 104t178 33h16q172 0 333 -96q14 -9 18 8l5 26q2 13 -9 19
q-152 92 -333 92h-20q-104 0 -204 -39.5t-176 -120t-95 -186.5l-4 -22q-23 -133 53 -214t245 -141z" />
    <glyph glyph-name="T" unicode="T" horiz-adv-x="1226" 
d="M348 1434h1036q13 0 11 -13l-4 -23q-2 -14 -15 -14h-493l-242 -1371q-2 -13 -15 -13h-25q-13 0 -11 13l242 1371h-493q-13 0 -11 13l4 23q2 14 16 14z" />
    <glyph glyph-name="U" unicode="U" horiz-adv-x="1409" 
d="M1431 1434h23q13 0 11 -13l-161 -915q-46 -259 -199.5 -396t-382.5 -137h-31q-228 0 -335 138.5t-61 398.5l160 910q2 14 16 14h23q12 0 10 -13l-159 -903q-43 -246 50.5 -370.5t303.5 -124.5h26q210 0 349.5 126.5t182.5 372.5l159 898q2 14 15 14z" />
    <glyph glyph-name="V" unicode="V" horiz-adv-x="1232" 
d="M1364 1434h30q5 0 7 -3.5t0 -7.5l-743 -1413q-5 -10 -16 -10h-48q-14 0 -16 13l-243 1408q-2 13 11 13h27q14 0 16 -14l150 -871l85 -492h5l715 1365q7 12 20 12z" />
    <glyph glyph-name="W" unicode="W" horiz-adv-x="1966" 
d="M2099 1434h28q5 0 7 -3.5t0 -7.5l-668 -1412q-5 -11 -17 -11h-48q-14 0 -16 14l-66 555l-93 789h-6l-370 -789l-265 -558q-5 -11 -17 -11h-48q-14 0 -16 14l-170 1407q-2 13 11 13h26q14 0 16 -15l66 -557l96 -803h6l645 1366q5 9 13 9h39q14 0 16 -15l66 -557l97 -803h5
l643 1362q7 13 20 13z" />
    <glyph glyph-name="X" unicode="X" horiz-adv-x="1187" 
d="M1300 1434h34q6 0 8.5 -5t-1.5 -9l-580 -689l346 -720q2 -4 0 -7.5t-6 -3.5h-38q-12 0 -17 11l-246 515l-80 166h-6l-568 -683q-8 -9 -20 -9h-34q-6 0 -8 5t2 9l599 717l-337 692q-2 4 0 7.5t7 3.5h38q11 0 16 -11l235 -487l82 -166h7l547 654q8 10 20 10z" />
    <glyph glyph-name="Y" unicode="Y" horiz-adv-x="1255" 
d="M1380 1434h35q5 0 7.5 -4t-0.5 -9l-682 -925l-86 -483q-2 -13 -15 -13h-23q-13 0 -11 13l86 483l-354 921q-2 6 1 11.5t10 5.5h31q11 0 14 -10l235 -613l96 -248h4l635 862q6 9 17 9z" />
    <glyph glyph-name="Z" unicode="Z" horiz-adv-x="1159" 
d="M183 49h859q13 0 11 -13l-4 -23q-2 -13 -16 -13h-907q-13 0 -11 13l4 25q1 10 9 19l1090 1327h-819q-13 0 -11 13l4 23q2 14 15 14h869q13 0 11 -13l-4 -26q-1 -10 -9 -19z" />
    <glyph glyph-name="bracketleft" unicode="[" horiz-adv-x="638" 
d="M471 1434h326q13 0 11 -13l-5 -23q-2 -14 -15 -14h-288l-281 -1595h288q13 0 11 -13l-5 -23q-2 -13 -15 -13h-326q-13 0 -11 13l294 1667q2 14 16 14z" />
    <glyph glyph-name="backslash" unicode="\" horiz-adv-x="589" 
d="M344 1434h32q10 0 10 -10l123 -1412q2 -12 -11 -12h-32q-11 0 -11 9l-122 1413q-2 12 11 12z" />
    <glyph glyph-name="bracketright" unicode="]" horiz-adv-x="638" 
d="M348 1434h326q13 0 11 -13l-294 -1668q-2 -13 -16 -13h-326q-13 0 -11 13l4 23q2 13 16 13h288l281 1595h-288q-13 0 -11 13l4 23q2 14 16 14z" />
    <glyph glyph-name="asciicircum" unicode="^" horiz-adv-x="755" 
d="M628 1460h14q16 0 19 -15l146 -706q2 -8 -7 -8h-29q-16 0 -19 16l-128 633h-4l-352 -635q-8 -14 -24 -14h-26q-12 0 -7 11l394 704q8 14 23 14z" />
    <glyph glyph-name="underscore" unicode="_" horiz-adv-x="1114" 
d="M78 -96h924q13 0 11 -13l-4 -23q-2 -13 -16 -13h-924q-12 0 -10 13l4 23q2 13 15 13z" />
    <glyph glyph-name="grave" unicode="`" horiz-adv-x="368" 
d="M430 1962h35q16 0 19 -14l90 -332q2 -8 -7 -8h-21q-13 0 -18 13l-104 332q-4 9 6 9z" />
    <glyph glyph-name="a" unicode="a" 
d="M712 1051h8q88 0 177.5 -45.5t149.5 -134.5l26 140q2 13 16 13h25q12 0 10 -13l-175 -998q-2 -13 -16 -13h-25q-13 0 -11 13l26 137q-91 -88 -195.5 -132.5t-193.5 -44.5h-9q-188 0 -266 119t-38 346l26 152q40 227 158.5 344t306.5 117zM713 1001h-4
q-167 0 -271.5 -105.5t-139.5 -307.5l-27 -156q-35 -202 30.5 -305.5t231.5 -103.5h4q192 0 396 200l105 581q-131 197 -325 197z" />
    <glyph glyph-name="b" unicode="b" horiz-adv-x="1120" 
d="M443 1509h25q13 0 11 -13l-111 -622q91 88 195.5 132.5t193.5 44.5h8q189 0 271.5 -120t43.5 -345l-27 -152q-39 -222 -169.5 -341.5t-315.5 -119.5h-12q-82 0 -181.5 32.5t-171.5 75.5q-22 13 -17 38l242 1377q2 13 15 13zM758 1001h-4q-193 0 -397 -200l-121 -675
q68 -45 154.5 -74t172.5 -29h9q163 0 279.5 108t151.5 305l27 156q35 201 -34.5 305t-237.5 104z" />
    <glyph glyph-name="c" unicode="c" horiz-adv-x="1038" 
d="M767 1051h23q139 0 267 -86q9 -6 7 -19l-4 -25q-2 -11 -11 -5q-132 85 -267 85h-18q-168 0 -300 -110t-166 -303l-27 -156q-34 -193 57.5 -301t259.5 -108h18q133 0 297 87q5 3 9 -0.5t3 -8.5l-4 -26q-1 -12 -14 -19q-152 -83 -294 -83h-22q-91 0 -165 30.5t-124.5 88
t-70 146.5t-0.5 200l26 152q26 147 105 253t186 157t229 51z" />
    <glyph glyph-name="d" unicode="d" horiz-adv-x="1120" 
d="M1185 1509h24q13 0 11 -13l-261 -1483q-2 -13 -16 -13h-24q-13 0 -11 13l25 137q-91 -88 -195.5 -132.5t-193.5 -44.5h-8q-189 0 -271.5 120t-43.5 345l26 152q39 225 162.5 343t312.5 118h8q88 0 178 -45.5t150 -134.5l111 625q2 13 16 13zM723 1001h-4
q-168 0 -277 -106.5t-144 -306.5l-27 -156q-35 -201 34.5 -305t237.5 -104h4q192 0 396 200l105 581q-131 197 -325 197z" />
    <glyph glyph-name="e" unicode="e" horiz-adv-x="1093" 
d="M737 1051h22q186 0 262.5 -119t36.5 -346l-9 -47q-3 -17 -19 -17h-743l-23 -129q-30 -171 61.5 -270.5t262.5 -99.5h8q148 0 332 87q5 2 9 -1t3 -8l-5 -26q-3 -13 -14 -19q-77 -37 -167 -60t-161 -23h-12q-193 0 -297 115t-70 311l29 168q39 223 175.5 353.5t318.5 130.5
zM752 1001h-19q-160 0 -281 -117t-157 -314l709 3q39 219 -24.5 323.5t-227.5 104.5z" />
    <glyph glyph-name="f" unicode="f" horiz-adv-x="704" 
d="M892 1501q13 -7 10 -21l-4 -23q-2 -9 -9 -5q-79 35 -152 35h-8q-86 0 -156.5 -57.5t-90.5 -171.5l-41 -234h316q13 0 11 -13l-4 -23q-2 -13 -16 -13h-316l-230 -1304q-2 -13 -16 -13h-24q-13 0 -11 13l230 1304h-134q-13 0 -11 13l4 23q2 13 15 13h134l42 235
q25 139 109 208t192 69h12q71 0 148 -35z" />
    <glyph glyph-name="g" unicode="g" 
d="M722 1051h12q83 0 182.5 -32.5t171.5 -75.5q21 -13 16 -38l-156 -892q-33 -188 -144.5 -285t-295.5 -97h-12q-72 0 -154.5 23.5t-146.5 61.5q-11 6 -9 20l5 26q2 9 11 4q151 -86 301 -86h8q163 0 260 85.5t126 248.5l26 136q-91 -88 -195.5 -132.5t-193.5 -44.5h-9
q-188 0 -266 119t-38 346l26 152q39 223 165 342t310 119zM727 1001h-8q-162 0 -274 -107.5t-147 -305.5l-27 -156q-35 -202 30.5 -305.5t231.5 -103.5h4q192 0 396 200l122 675q-68 45 -155 74t-173 29z" />
    <glyph glyph-name="h" unicode="h" horiz-adv-x="1112" 
d="M447 1509h25q13 0 11 -13l-108 -608q94 72 204 117.5t198 45.5h9q182 0 249 -99t34 -288l-114 -651q-2 -13 -16 -13h-25q-13 0 -11 13l116 656q29 164 -25.5 248t-215.5 84h-4q-90 0 -197 -48.5t-212 -131.5l-144 -808q-2 -13 -15 -13h-25q-13 0 -11 13l262 1483
q2 13 15 13z" />
    <glyph glyph-name="i" unicode="i" horiz-adv-x="411" 
d="M416 1333h54q13 0 11 -13l-14 -78q-2 -13 -16 -13h-53q-13 0 -11 13l14 78q2 13 15 13zM376 1024h25q13 0 11 -13l-176 -998q-2 -13 -16 -13h-25q-12 0 -10 13l176 998q2 13 15 13z" />
    <glyph glyph-name="j" unicode="j" horiz-adv-x="550" 
d="M556 1333h53q13 0 11 -13l-14 -78q-2 -13 -15 -13h-54q-12 0 -10 13l13 78q2 13 16 13zM516 1024h24q13 0 11 -13l-211 -1201q-17 -94 -73 -136.5t-126 -42.5h-12q-47 0 -111 27q-15 7 -12 21l5 24q2 9 9 5q61 -27 116 -27h9q48 0 90 30.5t54 99.5l211 1200q2 13 16 13z
" />
    <glyph glyph-name="k" unicode="k" horiz-adv-x="944" 
d="M447 1509h25q13 0 11 -13l-166 -943h230l415 464q6 7 15 7h36q6 0 8 -5t-2 -9l-430 -482l298 -516q2 -4 0.5 -8t-6.5 -4h-38q-13 0 -19 11l-286 493h-230l-87 -491q-2 -13 -15 -13h-25q-13 0 -11 13l262 1483q2 13 15 13z" />
    <glyph glyph-name="l" unicode="l" horiz-adv-x="378" 
d="M447 1509h25q13 0 11 -13l-262 -1483q-2 -13 -15 -13h-25q-13 0 -11 13l262 1483q2 13 15 13z" />
    <glyph glyph-name="m" unicode="m" horiz-adv-x="1812" 
d="M1492 1051h8q181 0 242.5 -98t27.5 -289l-115 -651q-2 -13 -16 -13h-24q-13 0 -11 13l116 656q30 167 -19 249.5t-208 82.5h-4q-94 0 -206 -52.5t-219 -141.5q0 -66 -13 -143l-115 -651q-2 -13 -15 -13h-25q-13 0 -11 13l116 656q30 167 -19 249.5t-208 82.5h-4
q-90 0 -197 -48.5t-212 -131.5l-144 -808q-2 -13 -15 -13h-25q-13 0 -11 13l176 998q2 13 16 13h24q13 0 11 -13l-23 -123q94 72 204.5 117.5t198.5 45.5h9q245 0 275 -190q106 86 223.5 138t211.5 52z" />
    <glyph glyph-name="n" unicode="n" horiz-adv-x="1103" 
d="M773 1051h9q182 0 247 -98.5t32 -288.5l-115 -651q-2 -13 -15 -13h-25q-13 0 -11 13l116 656q29 165 -23.5 248.5t-213.5 83.5h-4q-90 0 -197 -48.5t-212 -131.5l-144 -808q-2 -13 -15 -13h-25q-13 0 -11 13l176 998q2 13 16 13h24q13 0 11 -13l-23 -123
q94 72 204.5 117.5t198.5 45.5z" />
    <glyph glyph-name="o" unicode="o" horiz-adv-x="1153" 
d="M749 1051h22q91 0 163 -30t119 -89t63 -145.5t-3 -200.5l-27 -152q-39 -221 -176 -341t-325 -120h-23q-91 0 -162.5 30t-118.5 89t-63 145.5t3 200.5l26 152q39 221 176.5 341t325.5 120zM764 1001h-18q-167 0 -290.5 -109t-157.5 -304l-27 -156q-34 -196 49.5 -302.5
t249.5 -106.5h18q166 0 289.5 108.5t157.5 304.5l28 156q34 196 -49.5 302.5t-249.5 106.5z" />
    <glyph glyph-name="p" unicode="p" horiz-adv-x="1124" 
d="M761 1051h8q189 0 271.5 -120t43.5 -345l-26 -152q-39 -225 -162.5 -343t-312.5 -118h-8q-88 0 -178 45.5t-150 134.5l-86 -482q-2 -13 -15 -13h-25q-13 0 -11 13l236 1340q2 13 16 13h24q13 0 11 -13l-25 -137q91 88 195.5 132.5t193.5 44.5zM762 1001h-4
q-192 0 -396 -200l-105 -581q131 -197 325 -197h4q168 0 277 106.5t144 306.5l27 156q35 201 -34.5 305t-237.5 104z" />
    <glyph glyph-name="q" unicode="q" 
d="M722 1051h12q83 0 182.5 -32.5t171.5 -75.5q21 -13 16 -38l-216 -1234q-2 -13 -15 -13h-25q-13 0 -11 13l86 479q-91 -88 -195.5 -132.5t-193.5 -44.5h-9q-188 0 -266 119t-38 346l26 152q39 223 165 342t310 119zM727 1001h-8q-162 0 -274 -107.5t-147 -305.5l-27 -156
q-35 -202 30.5 -305.5t231.5 -103.5h4q192 0 396 200l122 675q-68 45 -155 74t-173 29z" />
    <glyph glyph-name="r" unicode="r" horiz-adv-x="712" 
d="M751 1051h8q22 0 57 -5q18 -2 15 -19l-4 -20q-2 -12 -14 -10q-31 4 -61 4h-4q-173 0 -394 -222l-137 -766q-2 -13 -15 -13h-25q-13 0 -11 13l176 998q2 13 16 13h24q13 0 11 -13l-28 -155q198 195 386 195z" />
    <glyph glyph-name="s" unicode="s" horiz-adv-x="866" 
d="M601 1051h23q64 0 140 -24.5t133 -61.5q10 -7 8 -19l-5 -25q-2 -11 -11 -5q-133 85 -272 85h-19q-115 0 -206.5 -56.5t-108.5 -153.5l-3 -15q-8 -45 4.5 -78.5t50.5 -58t65.5 -36.5t84.5 -31q17 -6 26 -9l47 -17q29 -10 49.5 -17.5t45.5 -18t42.5 -19.5t37 -21t32 -24
t25.5 -27.5t19.5 -32t11 -36.5t4.5 -43t-5 -49l-2 -10q-24 -131 -131.5 -203t-245.5 -72h-22q-69 0 -152 24.5t-140 61.5q-9 6 -7 19l4 25q2 11 11 5q135 -85 291 -85h19q117 0 210 60t112 167l2 14q20 113 -81 173q-37 23 -128 55l-47 16q-130 46 -170 67q-122 64 -117 172
q0 15 3 31l3 14q22 122 127.5 190.5t241.5 68.5z" />
    <glyph glyph-name="t" unicode="t" horiz-adv-x="651" 
d="M447 1254l21 4q5 1 9 -2.5t3 -8.5l-39 -223h316q13 0 11 -13l-4 -23q-2 -13 -16 -13h-316l-136 -774q-16 -93 12 -135.5t114 -42.5h8q62 0 156 36q5 2 8.5 -0.5t2.5 -7.5l-5 -29q-2 -11 -11 -14q-90 -35 -154 -35h-12q-211 0 -170 234l136 768h-134q-13 0 -11 13l4 23
q2 13 15 13h134l37 207q3 18 21 23z" />
    <glyph glyph-name="u" unicode="u" horiz-adv-x="1083" 
d="M1066 1024h25q13 0 11 -13l-176 -998q-2 -13 -16 -13h-24q-13 0 -11 13l23 123q-94 -72 -204.5 -117.5t-198.5 -45.5h-9q-177 0 -237 98t-26 289l115 651q2 13 16 13h24q13 0 11 -13l-116 -656q-30 -167 18 -249.5t203 -82.5h4q90 0 197 48.5t212 131.5l144 808
q2 13 15 13z" />
    <glyph glyph-name="v" unicode="v" horiz-adv-x="989" 
d="M1068 1024h30q12 0 7 -11l-566 -1004q-5 -9 -16 -9h-52q-12 0 -15 12l-214 998q-2 5 1.5 9.5t9.5 4.5h27q13 0 16 -12l109 -514l97 -449h3l252 449l292 515q6 11 19 11z" />
    <glyph glyph-name="w" unicode="w" horiz-adv-x="1492" 
d="M1574 1024h29q4 0 6 -3.5t0 -7.5l-483 -1003q-4 -10 -17 -10h-52q-14 0 -16 14l-39 305l-83 646h-6l-308 -646l-149 -309q-4 -10 -17 -10h-52q-14 0 -16 14l-129 998q-2 12 10 12h26q14 0 16 -14l58 -443l68 -514h3l248 514l214 447q4 10 17 10h46q14 0 16 -14l57 -443
l68 -514h4l246 514l215 445q6 12 20 12z" />
    <glyph glyph-name="x" unicode="x" horiz-adv-x="890" 
d="M950 1024h33q6 0 8 -5t-2 -9l-416 -482l260 -517q2 -4 0 -7.5t-7 -3.5h-38q-11 0 -16 10l-191 379l-47 92h-6l-78 -92l-328 -380q-7 -9 -19 -9h-34q-6 0 -8 5t2 9l441 514l-249 485q-2 4 0 7.5t6 3.5h38q11 0 16 -10l228 -441h5l79 93l303 349q8 9 20 9z" />
    <glyph glyph-name="y" unicode="y" horiz-adv-x="997" 
d="M1076 1024h31q11 0 6 -11l-638 -1125q-80 -140 -145.5 -198.5t-160.5 -58.5h-12q-49 0 -114 29q-14 7 -11 21l4 24q2 9 10 5q64 -29 118 -29h8q69 0 125 46t121 162l64 111h-6q-16 0 -19 15l-215 995q-2 5 1.5 9.5t9.5 4.5h27q13 0 16 -12l131 -611l77 -352h5l548 964
q6 11 19 11z" />
    <glyph glyph-name="z" unicode="z" horiz-adv-x="899" 
d="M307 1024h667q13 0 11 -13l-4 -28q-1 -5 -6 -12l-820 -922h658q13 0 11 -13l-5 -23q-2 -13 -15 -13h-709q-13 0 -11 13l5 28q1 7 5 12l821 922h-617q-13 0 -11 13l4 23q2 13 16 13z" />
    <glyph glyph-name="braceleft" unicode="{" horiz-adv-x="696" 
d="M618 1434h236q13 0 11 -13l-4 -23q-2 -14 -16 -14h-228q-27 0 -46.5 -17.5t-24.5 -45.5l-116 -657q-9 -51 -48 -81q29 -29 20 -79l-115 -655q-10 -60 45 -60h232q13 0 11 -13l-4 -23q-2 -13 -16 -13h-233q-46 0 -70.5 30t-16.5 76l116 655q10 60 -46 60h-111
q-13 0 -11 13l4 23q2 13 16 13h108q27 0 46 18t24 46l116 657q8 46 41.5 74.5t79.5 28.5z" />
    <glyph glyph-name="bar" unicode="|" horiz-adv-x="460" 
d="M471 1434h25q12 0 10 -13l-274 -1559q-2 -14 -16 -14h-25q-13 0 -11 13l275 1559q2 14 16 14z" />
    <glyph glyph-name="braceright" unicode="}" horiz-adv-x="696" 
d="M348 1434h233q46 0 70.5 -30.5t16.5 -76.5l-116 -657q-10 -60 45 -60h112q13 0 11 -13l-4 -23q-2 -13 -16 -13h-108q-27 0 -46 -17.5t-24 -45.5l-116 -655q-8 -46 -41 -74.5t-79 -28.5h-237q-13 0 -11 13l4 23q2 13 16 13h229q27 0 46 17.5t24 45.5l115 656q9 49 49 80
q-29 29 -20 79l116 658q10 59 -46 59h-232q-13 0 -11 13l4 23q2 14 16 14z" />
    <glyph glyph-name="asciitilde" unicode="~" horiz-adv-x="946" 
d="M437 707q47 0 88.5 -16t68 -34.5t64.5 -34.5t78 -16q36 0 82 14t72 25.5t82 38.5q5 2 8.5 -0.5t2.5 -7.5l-3 -25q-1 -8 -9 -13q-52 -28 -77.5 -40t-73 -26.5t-88.5 -14.5q-47 0 -88.5 15.5t-68 34.5t-64.5 34.5t-78 15.5q-36 0 -82 -14t-72 -25.5t-82 -38.5
q-5 -2 -8.5 0.5t-2.5 7.5l3 28q1 8 10 13q5 2 24.5 12t26 13t24.5 11.5t27 12t25 9.5t27.5 9t26.5 6t29 4.5t28 1.5z" />
    <glyph glyph-name="exclamdown" unicode="&#xa1;" horiz-adv-x="256" 
d="M288 1092h65q13 0 11 -13l-14 -79q-2 -13 -15 -13h-66q-13 0 -11 13l14 78q2 14 16 14zM242 705l21 -1q13 0 11 -12l-174 -1021q-2 -13 -16 -13h-33q-13 0 -11 13l186 1021q2 13 16 13z" />
    <glyph glyph-name="cent" unicode="&#xa2;" horiz-adv-x="1038" 
d="M1057 965q9 -6 7 -19l-4 -25q-2 -11 -11 -5q-132 85 -267 85h-18q-168 0 -300 -110t-166 -303l-27 -156q-34 -193 57.5 -301t259.5 -108h18q133 0 297 87q5 3 9 -0.5t3 -8.5l-4 -26q-1 -12 -14 -19q-142 -78 -281 -82l-44 -248q-2 -13 -15 -13h-25q-13 0 -11 13l44 248
q-182 6 -281.5 128.5t-62.5 335.5l26 152q19 109 68 196.5t117.5 144t151 87t171.5 32.5l43 248q2 13 16 13h24q13 0 11 -13l-43 -248q135 -6 251 -85z" />
    <glyph glyph-name="sterling" unicode="&#xa3;" 
d="M1202 1365q11 -6 9 -19l-5 -26q-2 -10 -11 -5q-79 48 -147 72t-167 24h-16q-159 0 -280 -104t-151 -275l-2 -10q-7 -38 -11 -72.5t-5.5 -73.5t-2 -58.5t0 -66.5t0.5 -57h488q13 0 11 -13l-4 -23q-2 -13 -16 -13h-480q-2 -74 -16 -157q-24 -134 -70 -232.5t-125 -207.5
l801 1q13 0 11 -13l-4 -23q-2 -13 -16 -13h-844q-13 0 -11 13l3 19q1 9 8 19q42 62 61.5 92.5t51 88.5t50.5 118.5t32 132.5q13 73 16 162h-152q-13 0 -11 13l4 23q2 13 16 13h144v50.5t0.5 54.5l1.5 51t3 57.5t6 55.5t9 63l4 22q33 185 168 298.5t314 113.5h21
q163 0 313 -95z" />
    <glyph glyph-name="currency" unicode="&#xa4;" horiz-adv-x="1234" 
d="M1322 1105l18 -21q7 -9 -1 -15l-204 -175q101 -138 68 -326q-33 -185 -181 -322l141 -168q6 -7 -1 -14l-26 -23q-9 -7 -16 1l-138 170q-158 -123 -344 -124q-93 1 -171 33.5t-133 91.5l-204 -173q-8 -7 -15 2l-18 21q-6 8 1 14l204 176q-96 138 -62 322q35 188 179 321
l-145 172q-6 8 1 15l27 23q9 7 15 -1l142 -174q156 122 343 122q183 0 300 -120l205 173q9 7 15 -1zM1153 575q21 116 -19 214.5t-129 155.5t-206 56q-180 1 -327.5 -125t-181.5 -308q-22 -117 17.5 -216t128 -156t205.5 -57q180 0 330 128t182 308z" />
    <glyph glyph-name="yen" unicode="&#xa5;" horiz-adv-x="1255" 
d="M1380 1434h35q5 0 7.5 -4t-0.5 -9l-650 -882h341q13 0 11 -13l-4 -23q-2 -14 -16 -14h-365l-42 -237h365q13 0 11 -13l-4 -23q-2 -13 -16 -13h-365l-34 -190q-2 -13 -15 -13h-23q-13 0 -11 13l34 190h-366q-13 0 -11 13l4 23q2 13 16 13h366l42 237h-366q-13 0 -11 13
l4 23q2 14 15 14h343l-338 878q-2 6 1 11.5t10 5.5h31q11 0 14 -10l235 -613l96 -248h4l635 862q6 9 17 9z" />
    <glyph glyph-name="brokenbar" unicode="&#xa6;" horiz-adv-x="460" 
d="M471 1434h25q12 0 10 -13l-107 -611q-2 -13 -16 -13h-25q-12 0 -10 13l107 610q2 14 16 14zM304 485h24q13 0 11 -13l-107 -610q-2 -14 -16 -14h-25q-13 0 -11 13l108 611q2 13 16 13z" />
    <glyph glyph-name="section" unicode="&#xa7;" horiz-adv-x="886" 
d="M665 1329h22q64 0 140 -24.5t133 -61.5q10 -6 8 -18l-4 -26q-2 -11 -11 -5q-135 86 -273 86h-18q-112 0 -197 -57.5t-102 -153.5l-3 -14q-6 -37 3 -67t27 -49.5t50 -37t59 -28t68 -24.5q16 -5 24 -8l46 -16q29 -10 49.5 -17.5t46 -18t42.5 -19.5t36.5 -21t32.5 -24
t25.5 -27.5t19.5 -32t11.5 -36.5t4.5 -43t-5 -49l-2 -10q-16 -91 -75.5 -154.5t-147.5 -95.5q125 -71 103 -197l-2 -14q-21 -121 -120.5 -190t-233.5 -69h-22q-64 0 -140 24.5t-133 61.5q-10 7 -8 19l5 25q2 11 11 5q133 -85 272 -85h19q112 0 197 57t102 153l2 15
q8 45 -4.5 78.5t-50.5 58t-65.5 36.5t-84.5 31q-17 6 -26 9l-46 17q-29 10 -49.5 17.5t-45.5 18t-42.5 19.5t-37 21t-32 24t-25.5 27.5t-19.5 32t-11 36.5t-4.5 43t5 49l1 10q17 92 75.5 155t147.5 95q-125 71 -103 197l3 14q21 121 120 189.5t233 68.5zM639 771l-159 56
q-92 -18 -158.5 -75t-81.5 -144l-2 -14q-8 -42 2 -76t26 -54.5t52.5 -41.5t59.5 -30t70 -26l159 -56q92 18 158.5 74.5t81.5 143.5l2 14q9 52 -3.5 90t-51 65t-68 40t-87.5 34z" />
    <glyph glyph-name="dieresis" unicode="&#xa8;" horiz-adv-x="530" 
d="M403 1743h65q13 0 11 -13l-14 -78q-2 -14 -15 -14h-66q-13 0 -11 13l14 79q2 13 16 13zM677 1743h66q13 0 11 -13l-14 -78q-2 -14 -16 -14h-66q-12 0 -10 13l13 79q2 13 16 13z" />
    <glyph glyph-name="copyright" unicode="&#xa9;" horiz-adv-x="1290" 
d="M913 1536q163 0 280.5 -77t165.5 -204t22 -276q-26 -147 -118 -272t-234.5 -201t-304.5 -76q-163 0 -280.5 77t-165.5 204t-22 276q26 147 118 272t234.5 201t304.5 76zM911 1487q-150 0 -281.5 -69.5t-215 -185t-108.5 -253.5q-24 -137 18.5 -250.5t147.5 -181.5
t254 -68q150 0 281.5 69.5t215 185t108.5 253.5q24 137 -18.5 250.5t-147.5 181.5t-254 68zM866 1264h10q32 0 72 -12t66 -28q10 -7 8 -19l-5 -26q-2 -9 -10 -4q-67 39 -136 39h-10q-80 0 -145 -54.5t-80 -143.5l-15 -84q-15 -89 28.5 -142t123.5 -53h11q62 0 150 42
q4 2 8 -1t3 -8l-5 -31q-2 -7 -9 -12q-31 -16 -75.5 -27.5t-77.5 -11.5h-10q-103 0 -161 65.5t-37 182.5l15 84q21 117 99.5 180.5t181.5 63.5z" />
    <glyph glyph-name="guillemotleft" unicode="&#xab;" horiz-adv-x="763" 
d="M788 838h30q7 0 9.5 -6t-2.5 -10l-312 -304l205 -307q3 -5 1 -8.5t-7 -3.5h-33q-11 0 -15 7l-200 291q-6 7 -4 17l1 9q2 10 7 15l308 295q5 5 12 5zM501 838h31q7 0 9 -6t-3 -10l-312 -304l205 -307q3 -5 1 -8.5t-7 -3.5h-33q-10 0 -14 7l-201 291q-6 7 -4 17l1 9
q2 10 7 15l308 295q5 5 12 5z" />
    <glyph glyph-name="logicalnot" unicode="&#xac;" horiz-adv-x="1114" 
d="M216 686h924q13 0 11 -13l-49 -277q-2 -13 -16 -13h-24q-13 0 -11 13l42 241h-886q-12 0 -10 13l4 23q2 13 15 13z" />
    <glyph glyph-name="registered" unicode="&#xae;" horiz-adv-x="1290" 
d="M913 1536q163 0 280.5 -77t165.5 -204t22 -276q-26 -147 -118 -272t-234.5 -201t-304.5 -76q-163 0 -280.5 77t-165.5 204t-22 276q26 147 118 272t234.5 201t304.5 76zM911 1487q-150 0 -281.5 -69.5t-215 -185t-108.5 -253.5q-24 -137 18.5 -250.5t147.5 -181.5
t254 -68q150 0 281.5 69.5t215 185t108.5 253.5q24 137 -18.5 250.5t-147.5 181.5t-254 68zM677 1266h206q101 0 142.5 -46t28.5 -123l-2 -12q-11 -65 -57.5 -110t-126.5 -55l22 -44l114 -198q2 -4 0 -7.5t-7 -3.5h-32q-16 0 -24 14l-133 236h-154l-41 -234q-3 -16 -19 -16
h-23q-13 0 -11 13l101 573q2 13 16 13zM707 1215l-44 -247h167q75 0 118 35t52 86l2 12q9 53 -19.5 83.5t-105.5 30.5h-170z" />
    <glyph glyph-name="macron" unicode="&#xaf;" horiz-adv-x="694" 
d="M393 1688h504q13 0 11 -13l-4 -23q-2 -14 -16 -14h-504q-13 0 -11 13l4 23q2 14 16 14z" />
    <glyph glyph-name="degree" unicode="&#xb0;" horiz-adv-x="661" 
d="M597 1536q107 0 167.5 -71.5t42.5 -173.5q-18 -100 -101 -169.5t-188 -70.5q-105 0 -165 72t-42 175q17 99 100 168.5t186 69.5zM595 1487q-85 0 -152.5 -56.5t-81.5 -139.5q-14 -81 31 -136t128 -55q86 0 154.5 57.5t82.5 140.5q14 81 -32 135.5t-130 53.5z" />
    <glyph glyph-name="plusminus" unicode="&#xb1;" horiz-adv-x="1116" 
d="M726 1024h25q13 0 11 -13l-57 -325h437q13 0 11 -13l-4 -23q-2 -13 -16 -13h-437l-57 -325q-2 -13 -16 -13h-25q-13 0 -11 13l58 325h-438q-12 0 -10 13l4 23q2 13 15 13h437l58 325q2 13 15 13zM128 188h926q13 0 11 -13l-4 -23q-2 -13 -16 -13h-925q-13 0 -11 13l4 23
q2 13 15 13z" />
    <glyph glyph-name="acute" unicode="&#xb4;" horiz-adv-x="368" 
d="M591 1962h36q5 0 7.5 -4t-0.5 -8l-223 -334q-5 -8 -15 -8h-23q-5 0 -7 4t1 8l208 334q5 8 16 8z" />
    <glyph glyph-name="paragraph" unicode="&#xb6;" horiz-adv-x="1064" 
d="M698 1434h402q13 0 11 -13l-309 -1750q-2 -13 -15 -13h-25q-13 0 -11 13l302 1713h-311l-302 -1713q-2 -13 -16 -13h-25q-13 0 -11 13l171 960q-172 0 -252 94.5t-44 302.5q37 208 151 307t284 99z" />
    <glyph glyph-name="periodcentered" unicode="&#xb7;" horiz-adv-x="256" 
d="M209 643h65q13 0 11 -13l-14 -78q-2 -13 -15 -13h-66q-13 0 -11 13l14 78q2 13 16 13z" />
    <glyph glyph-name="cedilla" unicode="&#xb8;" horiz-adv-x="495" 
d="M191 0l-49 -137q44 12 82 12q76 0 114.5 -42t25.5 -113q-14 -77 -73.5 -118.5t-143.5 -41.5q-60 0 -121 19q-15 5 -10 21l7 21q3 8 12 6q66 -16 110 -16q69 0 115 28t56 86q9 50 -17.5 74.5t-80.5 24.5q-44 0 -100 -16q-8 -2 -13 2l-14 11q-4 4 -3 10l57 169h46z" />
    <glyph glyph-name="guillemotright" unicode="&#xbb;" horiz-adv-x="763" 
d="M236 838h32q10 0 15 -8l201 -290q6 -7 4 -18l-1 -8q-1 -8 -8 -15l-308 -296q-4 -4 -11 -4h-31q-7 0 -9 5.5t3 9.5l311 304l-205 307q-3 5 -0.5 9t7.5 4zM523 838h32q10 0 15 -8l200 -290q7 -8 5 -18l-1 -8q-1 -8 -8 -15l-308 -296q-4 -4 -12 -4h-30q-7 0 -9 5.5t3 9.5
l311 304l-205 307q-3 5 -0.5 9t7.5 4z" />
    <glyph glyph-name="onequarter" unicode="&#xbc;" horiz-adv-x="1658" 
d="M550 1434h21q13 0 11 -13l-125 -710h165q13 0 11 -13l-4 -23q-2 -13 -16 -13h-401q-13 0 -11 13l4 23q2 13 16 13h185l117 665l-200 -79q-4 -1 -8 1.5t-3 7.5l5 29q2 11 11 14l204 81q12 4 18 4zM1329 1434h30q5 0 7 -4t-1 -9l-918 -1409q-7 -12 -22 -12h-30q-5 0 -7 4
t1 8l918 1409q8 13 22 13zM1480 772h42q13 0 11 -13l-88 -501h165q13 0 11 -13l-4 -23q-2 -13 -16 -13h-165l-34 -196q-2 -13 -16 -13h-25q-13 0 -11 13l35 196h-399q-13 0 -11 13l3 16q2 10 8 17l469 506q11 11 25 11zM1052 258h342l81 459z" />
    <glyph glyph-name="onehalf" unicode="&#xbd;" horiz-adv-x="1548" 
d="M550 1434h21q13 0 11 -13l-125 -710h165q13 0 11 -13l-4 -23q-2 -13 -16 -13h-401q-13 0 -11 13l4 23q2 13 16 13h185l117 665l-200 -79q-4 -1 -8 1.5t-3 7.5l5 29q2 11 11 14l204 81q12 4 18 4zM1329 1434h30q5 0 7 -4t-1 -9l-918 -1409q-7 -12 -22 -12h-30q-5 0 -7 4
t1 8l918 1409q8 13 22 13zM1319 799h21q91 0 151.5 -59.5t43.5 -155.5l-4 -23q-4 -23 -12.5 -45.5t-25 -47t-30.5 -43.5t-43 -47t-47.5 -45t-58 -49.5t-60.5 -49.5t-70 -56t-73 -58l-91 -71h442q13 0 11 -13l-4 -23q-2 -13 -15 -13h-504q-13 0 -11 13l4 26q2 14 12 21
l106 85q27 21 74 57.5t70.5 55.5t61.5 49.5t58 48.5t47.5 43.5t42.5 44t30.5 40t24 41.5t11.5 40l1 10q15 82 -31.5 128.5t-117.5 46.5h-17q-92 0 -217 -61q-5 -2 -9 0.5t-3 7.5l6 31q1 8 9 13q116 58 217 58z" />
    <glyph glyph-name="threequarters" unicode="&#xbe;" horiz-adv-x="1746" 
d="M573 1460h10q104 0 169 -58t48 -151l-3 -17q-20 -116 -146 -173q56 -24 84.5 -73t16.5 -116l-4 -23q-16 -93 -104.5 -154t-204.5 -61h-16q-97 0 -202 57q-14 8 -11 24l4 23q2 10 10 5q109 -60 206 -60h12q96 0 170 51.5t88 130.5l1 11q5 27 -0.5 53.5t-22.5 50.5t-53 39
t-87 15h-133q-13 0 -11 13l4 23q2 13 15 13h114q93 0 151.5 50t68.5 105l1 4q14 79 -37 123.5t-135 44.5h-6q-90 0 -223 -61q-5 -2 -9 1t-3 8l5 29q2 11 12 16q122 57 221 57zM1417 1434h30q5 0 7 -4t-1 -9l-918 -1409q-7 -12 -22 -12h-30q-5 0 -7 4t1 8l918 1409
q8 13 22 13zM1568 772h42q13 0 11 -13l-88 -501h165q13 0 11 -13l-4 -23q-2 -13 -16 -13h-165l-34 -196q-2 -13 -16 -13h-24q-13 0 -11 13l34 196h-399q-12 0 -10 13l2 16q2 10 8 17l469 506q11 11 25 11zM1140 258h342l81 459z" />
    <glyph glyph-name="questiondown" unicode="&#xbf;" horiz-adv-x="1028" 
d="M828 1092h66q13 0 11 -13l-14 -79q-2 -13 -16 -13h-65q-13 0 -11 13l14 78q2 14 15 14zM778 705l25 -1q13 0 11 -12l-48 -286q-2 -12 -12 -18l-14 -9q-8 -5 -17 -3q-89 13 -121 13q-100 0 -183.5 -29t-140 -78.5t-91.5 -110.5t-47 -130l-2 -14q-26 -150 66.5 -248
t282.5 -98h16q193 0 389 97q5 2 9 -1t3 -8l-6 -30q-1 -8 -9 -13q-188 -95 -389 -95h-21q-209 0 -316 111.5t-78 275.5l7 39q28 158 163 269.5t335 111.5q64 0 127 -10l51 268q2 9 10 9z" />
    <glyph glyph-name="Agrave" unicode="&#xc0;" horiz-adv-x="1249" 
d="M796 1962h35q15 0 18 -14l91 -332q2 -8 -7 -8h-21q-13 0 -18 13l-104 332q-4 9 6 9zM857 1434h34q23 0 26 -22l250 -1399q2 -13 -11 -13h-24q-17 0 -20 16l-85 476h-631l-256 -482q-5 -10 -16 -10h-25q-8 0 -11.5 5.5t0.5 12.5l745 1401q8 15 24 15zM864 1376l-322 -612
l-120 -223h596l-40 223l-107 612h-7z" />
    <glyph glyph-name="Aacute" unicode="&#xc1;" horiz-adv-x="1249" 
d="M1108 1962h36q5 0 7.5 -4t-0.5 -8l-223 -334q-5 -8 -15 -8h-23q-5 0 -7 4t1 8l209 334q5 8 15 8zM857 1434h34q23 0 26 -22l250 -1399q2 -13 -11 -13h-24q-17 0 -20 16l-85 476h-631l-256 -482q-5 -10 -16 -10h-25q-8 0 -11.5 5.5t0.5 12.5l745 1401q8 15 24 15z
M864 1376l-322 -612l-120 -223h596l-40 223l-107 612h-7z" />
    <glyph glyph-name="Acircumflex" unicode="&#xc2;" horiz-adv-x="1249" 
d="M958 1962h20q12 0 17 -12l126 -333q1 -4 -1 -6.5t-6 -2.5h-35q-13 0 -18 13l-98 293l-206 -299q-4 -7 -14 -7h-37q-5 0 -7 4t1 9l244 334q4 7 14 7zM857 1434h34q23 0 26 -22l250 -1399q2 -13 -11 -13h-24q-17 0 -20 16l-85 476h-631l-256 -482q-5 -10 -16 -10h-25
q-8 0 -11.5 5.5t0.5 12.5l745 1401q8 15 24 15zM864 1376l-322 -612l-120 -223h596l-40 223l-107 612h-7z" />
    <glyph glyph-name="Atilde" unicode="&#xc3;" horiz-adv-x="1249" 
d="M1173 1739h27q5 0 7.5 -3.5t-0.5 -8.5q-38 -61 -92 -100.5t-108 -39.5h-8q-33 0 -57.5 15t-37 33.5t-33.5 33.5t-49 15q-70 0 -146 -95q-4 -6 -14 -6h-27q-5 0 -7.5 3.5t0.5 8.5q38 61 91.5 100.5t107.5 39.5h9q28 0 49 -10t33.5 -24.5t25 -28.5t29.5 -24t40 -10
q71 0 146 94q7 7 14 7zM857 1434h34q23 0 26 -22l250 -1399q2 -13 -11 -13h-24q-17 0 -20 16l-85 476h-631l-256 -482q-5 -10 -16 -10h-25q-8 0 -11.5 5.5t0.5 12.5l745 1401q8 15 24 15zM864 1376l-322 -612l-120 -223h596l-40 223l-107 612h-7z" />
    <glyph glyph-name="Adieresis" unicode="&#xc4;" horiz-adv-x="1249" 
d="M763 1743h66q13 0 11 -13l-14 -78q-2 -14 -16 -14h-65q-13 0 -11 13l13 79q2 13 16 13zM1037 1743h66q13 0 11 -13l-14 -78q-2 -14 -15 -14h-66q-13 0 -11 13l14 79q2 13 15 13zM857 1434h34q23 0 26 -22l250 -1399q2 -13 -11 -13h-24q-17 0 -20 16l-85 476h-631
l-256 -482q-5 -10 -16 -10h-25q-8 0 -11.5 5.5t0.5 12.5l745 1401q8 15 24 15zM864 1376l-322 -612l-120 -223h596l-40 223l-107 612h-7z" />
    <glyph glyph-name="Aring" unicode="&#xc5;" horiz-adv-x="1249" 
d="M953 1880q64 0 100.5 -43.5t25.5 -105.5q-10 -60 -60.5 -102t-110.5 -42q-65 0 -101 44.5t-25 106.5q10 58 59.5 100t111.5 42zM952 1835q-46 0 -79 -29.5t-41 -72.5q-7 -42 13.5 -71.5t63.5 -29.5q46 0 79.5 32t41.5 76q7 40 -14 67.5t-64 27.5zM857 1434h34
q23 0 26 -22l250 -1399q2 -13 -11 -13h-24q-17 0 -20 16l-85 476h-631l-256 -482q-5 -10 -16 -10h-25q-8 0 -11.5 5.5t0.5 12.5l745 1401q8 15 24 15zM864 1376l-322 -612l-120 -223h596l-40 223l-107 612h-7z" />
    <glyph glyph-name="AE" unicode="&#xc6;" horiz-adv-x="1574" 
d="M857 1434h855q13 0 11 -13l-4 -23q-2 -14 -16 -14h-783l-109 -618h743q12 0 10 -13l-4 -23q-2 -13 -15 -13h-743l-117 -668h783q13 0 11 -13l-4 -23q-2 -13 -16 -13h-821q-13 0 -11 13l84 479h-315l-256 -482q-5 -10 -16 -10h-25q-8 0 -11.5 5.5t0.5 12.5l745 1401
q8 15 24 15zM867 1376h-3l-322 -612l-120 -223h298z" />
    <glyph glyph-name="Ccedilla" unicode="&#xc7;" horiz-adv-x="1218" 
d="M1343 1365q11 -6 9 -19l-5 -26q-2 -10 -11 -5q-158 96 -332 96h-16q-83 0 -163 -23t-155.5 -71.5t-136.5 -117t-107 -166t-66 -212.5l-38 -213q-24 -148 -2.5 -258t83 -183t147 -109t189.5 -36h17q171 0 367 98q5 2 8.5 -1t2.5 -8l-4 -26q-2 -13 -14 -19
q-186 -93 -363 -93h-21h-4l-39 -110q44 12 82 12q76 0 114.5 -42t25.5 -113q-14 -77 -73.5 -118.5t-143.5 -41.5q-60 0 -121 19q-15 5 -10 21l7 21q3 8 12 6q66 -16 110 -16q69 0 115 28t56 86q9 50 -17.5 74.5t-80.5 24.5q-44 0 -100 -16q-8 -2 -13 2l-14 11q-4 4 -3 10
l49 144q-105 8 -190.5 51.5t-146 122t-81.5 191t3 259.5l42 238q27 150 95 271t161 196.5t201.5 115.5t222.5 40h20q178 0 332 -95z" />
    <glyph glyph-name="Egrave" unicode="&#xc8;" horiz-adv-x="1155" 
d="M797 1962h35q15 0 18 -14l91 -332q2 -8 -7 -8h-21q-13 0 -18 13l-104 332q-4 9 6 9zM391 766h743q12 0 10 -13l-4 -23q-2 -13 -15 -13h-743l-117 -668h783q13 0 11 -13l-4 -23q-2 -13 -16 -13h-821q-13 0 -11 13l248 1407q2 14 16 14h821q13 0 11 -13l-4 -23
q-2 -14 -16 -14h-783z" />
    <glyph glyph-name="Eacute" unicode="&#xc9;" horiz-adv-x="1155" 
d="M1089 1962h36q5 0 7.5 -4t-0.5 -8l-223 -334q-5 -8 -15 -8h-23q-5 0 -7 4t1 8l209 334q5 8 15 8zM471 1434h821q13 0 11 -13l-4 -23q-2 -14 -16 -14h-783l-109 -618h743q12 0 10 -13l-4 -23q-2 -13 -15 -13h-743l-117 -668h783q13 0 11 -13l-4 -23q-2 -13 -16 -13h-821
q-13 0 -11 13l248 1407q2 14 16 14z" />
    <glyph glyph-name="Ecircumflex" unicode="&#xca;" horiz-adv-x="1155" 
d="M963 1962h20q13 0 17 -12l126 -333q1 -4 -1 -6.5t-6 -2.5h-35q-13 0 -18 13l-98 293l-206 -299q-4 -7 -14 -7h-36q-5 0 -7.5 4t0.5 9l244 334q4 7 14 7zM391 766h743q12 0 10 -13l-4 -23q-2 -13 -15 -13h-743l-117 -668h783q13 0 11 -13l-4 -23q-2 -13 -16 -13h-821
q-13 0 -11 13l248 1407q2 14 16 14h821q13 0 11 -13l-4 -23q-2 -14 -16 -14h-783z" />
    <glyph glyph-name="Edieresis" unicode="&#xcb;" horiz-adv-x="1155" 
d="M760 1743h65q13 0 11 -13l-14 -78q-2 -14 -15 -14h-66q-13 0 -11 13l14 79q2 13 16 13zM1034 1743h66q13 0 11 -13l-14 -78q-2 -14 -16 -14h-65q-13 0 -11 13l13 79q2 13 16 13zM391 766h743q12 0 10 -13l-4 -23q-2 -13 -15 -13h-743l-117 -668h783q13 0 11 -13l-4 -23
q-2 -13 -16 -13h-821q-13 0 -11 13l248 1407q2 14 16 14h821q13 0 11 -13l-4 -23q-2 -14 -16 -14h-783z" />
    <glyph glyph-name="Igrave" unicode="&#xcc;" horiz-adv-x="460" 
d="M400 1962h35q15 0 18 -14l91 -332q2 -8 -7 -8h-21q-13 0 -18 13l-105 332q-1 4 1 6.5t6 2.5zM471 1434h25q12 0 10 -13l-248 -1408q-2 -13 -15 -13h-25q-13 0 -11 13l248 1407q2 14 16 14z" />
    <glyph glyph-name="Iacute" unicode="&#xcd;" horiz-adv-x="460" 
d="M713 1962h37q5 0 7 -4t-1 -8l-223 -334q-5 -8 -14 -8h-23q-5 0 -7.5 4t0.5 8l209 334q5 8 15 8zM471 1434h25q12 0 10 -13l-248 -1408q-2 -13 -15 -13h-25q-13 0 -11 13l248 1407q2 14 16 14z" />
    <glyph glyph-name="Icircumflex" unicode="&#xce;" horiz-adv-x="460" 
d="M565 1962h19q14 0 18 -12l126 -333q1 -4 -1 -6.5t-6 -2.5h-35q-13 0 -18 13l-98 293l-206 -299q-4 -7 -15 -7h-36q-5 0 -7 4t1 9l244 334q4 7 14 7zM471 1434h25q12 0 10 -13l-248 -1408q-2 -13 -15 -13h-25q-13 0 -11 13l248 1407q2 14 16 14z" />
    <glyph glyph-name="Idieresis" unicode="&#xcf;" horiz-adv-x="460" 
d="M369 1743h65q13 0 11 -13l-14 -78q-2 -14 -15 -14h-66q-13 0 -11 13l14 79q2 13 16 13zM643 1743h66q13 0 11 -13l-14 -78q-2 -14 -16 -14h-65q-13 0 -11 13l14 79q2 13 15 13zM471 1434h25q12 0 10 -13l-248 -1408q-2 -13 -15 -13h-25q-13 0 -11 13l248 1407q2 14 16 14
z" />
    <glyph glyph-name="Eth" unicode="&#xd0;" horiz-adv-x="1366" 
d="M471 1434h452q114 0 202.5 -37t149 -112.5t79.5 -190.5t-7 -270l-38 -218q-53 -298 -226.5 -452t-409.5 -154h-455q-13 0 -11 13l110 624h-110q-12 0 -10 13l4 23q2 13 15 13h110l129 734q2 14 16 14zM1261 622l34 193q24 148 8.5 255.5t-69.5 177t-134 103t-184 33.5
h-416l-123 -698h452q13 0 11 -13l-4 -23q-2 -13 -16 -13h-452l-103 -588h412q104 0 196.5 34.5t170.5 103t134.5 180t82.5 255.5z" />
    <glyph glyph-name="Ntilde" unicode="&#xd1;" horiz-adv-x="1396" 
d="M1247 1739h27q5 0 7.5 -3.5t-0.5 -8.5q-38 -61 -92 -100.5t-108 -39.5h-8q-33 0 -57.5 15t-37 33.5t-33.5 33.5t-49 15q-71 0 -147 -95q-5 -6 -13 -6h-28q-5 0 -7 3.5t1 8.5q38 61 91.5 100.5t107.5 39.5h8q28 0 49 -10t34 -24.5t25 -28.5t29.5 -24t40.5 -10q71 0 146 94
q7 7 14 7zM1412 1434h30q13 0 11 -13l-249 -1408q-2 -13 -15 -13h-39q-12 0 -16 10l-372 774l-275 570h-3l-237 -1346q-2 -8 -10 -8h-29q-13 0 -11 13l248 1407q2 14 16 14h38q12 0 17 -11l646 -1343h3l237 1345q2 9 10 9z" />
    <glyph glyph-name="Ograve" unicode="&#xd2;" horiz-adv-x="1419" 
d="M874 1962h34q16 0 19 -14l91 -332q2 -8 -7 -8h-21q-13 0 -18 13l-105 332q-1 4 1 6.5t6 2.5zM950 1460h31q114 0 202.5 -37t149 -112.5t79.5 -190.5t-7 -270l-47 -270q-53 -298 -226.5 -452.5t-409.5 -154.5h-31q-114 0 -202.5 37t-149 112.5t-79.5 190.5t7 270l47 271
q53 298 226.5 452t409.5 154zM973 1411h-26q-104 0 -196.5 -34.5t-170.5 -103t-134.5 -180t-82.5 -255.5l-44 -246q-24 -148 -8.5 -255.5t70 -177t134.5 -103t184 -33.5h26q104 0 196.5 34.5t170.5 103t134.5 180t82.5 255.5l44 245q24 148 8.5 255.5t-70 177.5
t-134.5 103.5t-184 33.5z" />
    <glyph glyph-name="Oacute" unicode="&#xd3;" horiz-adv-x="1419" 
d="M1202 1962h37q5 0 7 -4t-1 -8l-222 -334q-5 -8 -15 -8h-23q-5 0 -7.5 4t0.5 8l209 334q5 8 15 8zM950 1460h31q114 0 202.5 -37t149 -112.5t79.5 -190.5t-7 -270l-47 -270q-53 -298 -226.5 -452.5t-409.5 -154.5h-31q-114 0 -202.5 37t-149 112.5t-79.5 190.5t7 270
l47 271q53 298 226.5 452t409.5 154zM973 1411h-26q-104 0 -196.5 -34.5t-170.5 -103t-134.5 -180t-82.5 -255.5l-44 -246q-24 -148 -8.5 -255.5t70 -177t134.5 -103t184 -33.5h26q104 0 196.5 34.5t170.5 103t134.5 180t82.5 255.5l44 245q24 148 8.5 255.5t-70 177.5
t-134.5 103.5t-184 33.5z" />
    <glyph glyph-name="Ocircumflex" unicode="&#xd4;" horiz-adv-x="1419" 
d="M1047 1962h16q14 0 18 -16l122 -321q3 -7 -1 -12t-12 -5h-22q-16 0 -20 16l-99 290l-201 -294q-9 -12 -24 -12h-23q-8 0 -12.5 6t0.5 14l236 321q9 13 22 13zM950 1460h31q114 0 202.5 -37t149 -112.5t79.5 -190.5t-7 -270l-47 -270q-53 -298 -226.5 -452.5
t-409.5 -154.5h-31q-114 0 -202.5 37t-149 112.5t-79.5 190.5t7 270l47 271q53 298 226.5 452t409.5 154zM973 1411h-26q-104 0 -196.5 -34.5t-170.5 -103t-134.5 -180t-82.5 -255.5l-44 -246q-24 -148 -8.5 -255.5t70 -177t134.5 -103t184 -33.5h26q104 0 196.5 34.5
t170.5 103t134.5 180t82.5 255.5l44 245q24 148 8.5 255.5t-70 177.5t-134.5 103.5t-184 33.5z" />
    <glyph glyph-name="Otilde" unicode="&#xd5;" horiz-adv-x="1419" 
d="M1259 1739h27q5 0 7.5 -3.5t-0.5 -8.5q-38 -61 -91.5 -100.5t-107.5 -39.5h-9q-33 0 -57.5 15t-37 33.5t-33.5 33.5t-49 15q-70 0 -146 -95q-4 -6 -14 -6h-27q-5 0 -7.5 3.5t0.5 8.5q38 61 91.5 100.5t107.5 39.5h9q28 0 49 -10t33.5 -24.5t25 -28.5t29.5 -24t40 -10
q71 0 146 94q7 7 14 7zM950 1460h31q114 0 202.5 -37t149 -112.5t79.5 -190.5t-7 -270l-47 -270q-53 -298 -226.5 -452.5t-409.5 -154.5h-31q-114 0 -202.5 37t-149 112.5t-79.5 190.5t7 270l47 271q53 298 226.5 452t409.5 154zM973 1411h-26q-104 0 -196.5 -34.5
t-170.5 -103t-134.5 -180t-82.5 -255.5l-44 -246q-24 -148 -8.5 -255.5t70 -177t134.5 -103t184 -33.5h26q104 0 196.5 34.5t170.5 103t134.5 180t82.5 255.5l44 245q24 148 8.5 255.5t-70 177.5t-134.5 103.5t-184 33.5z" />
    <glyph glyph-name="Odieresis" unicode="&#xd6;" horiz-adv-x="1419" 
d="M847 1743h66q13 0 11 -13l-14 -78q-2 -14 -16 -14h-65q-13 0 -11 13l13 79q2 13 16 13zM1121 1743h66q13 0 11 -13l-14 -78q-2 -14 -15 -14h-66q-13 0 -11 13l14 79q2 13 15 13zM950 1460h31q114 0 202.5 -37t149 -112.5t79.5 -190.5t-7 -270l-47 -270
q-53 -298 -226.5 -452.5t-409.5 -154.5h-31q-114 0 -202.5 37t-149 112.5t-79.5 190.5t7 270l47 271q53 298 226.5 452t409.5 154zM973 1411h-26q-104 0 -196.5 -34.5t-170.5 -103t-134.5 -180t-82.5 -255.5l-44 -246q-24 -148 -8.5 -255.5t70 -177t134.5 -103t184 -33.5h26
q104 0 196.5 34.5t170.5 103t134.5 180t82.5 255.5l44 245q24 148 8.5 255.5t-70 177.5t-134.5 103.5t-184 33.5z" />
    <glyph glyph-name="multiply" unicode="&#xd7;" horiz-adv-x="862" 
d="M556 713l366 311q9 7 15 -1l16 -19q6 -8 -1 -14l-367 -312l256 -311q6 -7 -1 -14l-24 -21q-9 -7 -15 1l-255 310l-367 -312q-9 -7 -15 1l-16 19q-7 9 1 15l367 312l-256 311q-6 7 1 14l24 21q9 7 15 -1z" />
    <glyph glyph-name="Oslash" unicode="&#xd8;" horiz-adv-x="1419" 
d="M1467 1434h38q6 0 8 -5t-2 -10l-145 -160q84 -156 39 -409l-47 -270q-53 -298 -226.5 -452.5t-409.5 -154.5h-31q-240 0 -356 156l-110 -121q-7 -8 -19 -8h-39q-6 0 -8 5t2 9l146 160q-84 158 -40 409l47 271q53 298 226.5 452t409.5 154h31q240 0 356 -156l111 121
q8 9 19 9zM363 838l-44 -246q-41 -232 27 -375l954 1046q-101 148 -327 148h-26q-104 0 -196.5 -34.5t-170.5 -103t-134.5 -180t-82.5 -255.5zM1309 596l44 245q41 232 -27 375l-953 -1046q100 -147 326 -147h26q104 0 196.5 34.5t170.5 103t134.5 180t82.5 255.5z" />
    <glyph glyph-name="Ugrave" unicode="&#xd9;" horiz-adv-x="1409" 
d="M871 1962h34q16 0 19 -14l91 -332q2 -8 -7 -8h-21q-13 0 -18 13l-105 332q-1 4 1 6.5t6 2.5zM1431 1434h23q13 0 11 -13l-161 -915q-46 -259 -199.5 -396t-382.5 -137h-31q-228 0 -335 138.5t-61 398.5l160 910q2 14 16 14h23q12 0 10 -13l-159 -903
q-43 -246 50.5 -370.5t303.5 -124.5h26q210 0 349.5 126.5t182.5 372.5l159 898q2 14 15 14z" />
    <glyph glyph-name="Uacute" unicode="&#xda;" horiz-adv-x="1409" 
d="M1203 1962h37q5 0 7 -4t-1 -8l-222 -334q-5 -8 -15 -8h-23q-5 0 -7.5 4t0.5 8l209 334q5 8 15 8zM1431 1434h23q13 0 11 -13l-161 -915q-46 -259 -199.5 -396t-382.5 -137h-31q-228 0 -335 138.5t-61 398.5l160 910q2 14 16 14h23q12 0 10 -13l-159 -903
q-43 -246 50.5 -370.5t303.5 -124.5h26q210 0 349.5 126.5t182.5 372.5l159 898q2 14 15 14z" />
    <glyph glyph-name="Ucircumflex" unicode="&#xdb;" horiz-adv-x="1409" 
d="M1038 1962h20q12 0 17 -12l126 -333q1 -4 -1 -6.5t-6 -2.5h-35q-13 0 -18 13l-98 293l-206 -299q-4 -7 -15 -7h-36q-5 0 -7 4t1 9l244 334q4 7 14 7zM1431 1434h23q13 0 11 -13l-161 -915q-46 -259 -199.5 -396t-382.5 -137h-31q-228 0 -335 138.5t-61 398.5l160 910
q2 14 16 14h23q12 0 10 -13l-159 -903q-43 -246 50.5 -370.5t303.5 -124.5h26q210 0 349.5 126.5t182.5 372.5l159 898q2 14 15 14z" />
    <glyph glyph-name="Udieresis" unicode="&#xdc;" horiz-adv-x="1409" 
d="M842 1743h65q13 0 11 -13l-13 -78q-2 -14 -16 -14h-66q-13 0 -11 13l14 79q2 13 16 13zM1116 1743h66q13 0 11 -13l-14 -78q-2 -14 -16 -14h-65q-13 0 -11 13l14 79q2 13 15 13zM1431 1434h23q13 0 11 -13l-161 -915q-46 -259 -199.5 -396t-382.5 -137h-31
q-228 0 -335 138.5t-61 398.5l160 910q2 14 16 14h23q12 0 10 -13l-159 -903q-43 -246 50.5 -370.5t303.5 -124.5h26q210 0 349.5 126.5t182.5 372.5l159 898q2 14 15 14z" />
    <glyph glyph-name="Yacute" unicode="&#xdd;" horiz-adv-x="1255" 
d="M1126 1962h37q5 0 7 -4t-1 -8l-222 -334q-5 -8 -15 -8h-23q-5 0 -7.5 4t0.5 8l209 334q5 8 15 8zM1380 1434h35q5 0 7.5 -4t-0.5 -9l-682 -925l-86 -483q-2 -13 -15 -13h-23q-13 0 -11 13l86 483l-354 921q-2 6 1 11.5t10 5.5h31q11 0 14 -10l235 -613l96 -248h4l635 862
q6 9 17 9z" />
    <glyph glyph-name="Thorn" unicode="&#xde;" horiz-adv-x="1290" 
d="M475 1243h359q265 0 370 -104.5t72 -292.5l-9 -49q-16 -92 -58 -167.5t-111.5 -134.5t-175 -91.5t-239.5 -32.5h-362l-63 -358q-2 -13 -15 -13h-25q-13 0 -11 13l248 1407q2 14 16 14h25q12 0 10 -13zM1218 813l5 24q31 173 -60 265t-336 92h-361l-136 -774h357
q124 0 220.5 30t159 85t99.5 124t52 154z" />
    <glyph glyph-name="germandbls" unicode="&#xdf;" horiz-adv-x="1077" 
d="M691 1536h12q107 0 170 -66.5t41 -191.5l-3 -14q-9 -51 -35 -95t-61.5 -76.5t-76.5 -61.5t-81 -55.5t-74.5 -53.5t-59 -60.5t-30.5 -70.5l-2 -15q-8 -45 4.5 -78.5t50.5 -58t65.5 -36.5t84.5 -31l9 -3t8 -3t9 -3l46 -17q29 -10 49.5 -17.5t45.5 -18t42.5 -19.5t37 -21
t32 -24t25.5 -27.5t19.5 -32t11 -36.5t4.5 -43t-5 -49l-2 -10q-24 -131 -131 -203t-245 -72h-23q-69 0 -151.5 24.5t-139.5 61.5q-10 7 -8 19l5 25q2 11 11 5q135 -85 291 -85h18q117 0 210 60t112 167l3 14q8 42 -2 76t-26 54.5t-52.5 41.5t-59.5 30t-70 26l-46 16
q-130 46 -170 67q-122 64 -117 172q0 15 3 31l2 14q10 59 54 110t99.5 89.5t111.5 77.5t100 90.5t54 110.5l2 14q18 100 -32 151.5t-135 51.5h-8q-86 0 -156.5 -57.5t-90.5 -171.5l-220 -1245q-2 -13 -15 -13h-25q-13 0 -11 13l220 1246q25 139 109 208t192 69z" />
    <glyph glyph-name="agrave" unicode="&#xe0;" 
d="M635 1552h34q16 0 19 -14l91 -331q2 -9 -7 -9h-21q-13 0 -18 14l-105 331q-1 4 1 6.5t6 2.5zM712 1051h8q88 0 177.5 -45.5t149.5 -134.5l26 140q2 13 16 13h25q12 0 10 -13l-175 -998q-2 -13 -16 -13h-25q-13 0 -11 13l26 137q-91 -88 -195.5 -132.5t-193.5 -44.5h-9
q-188 0 -266 119t-38 346l26 152q40 227 158.5 344t306.5 117zM713 1001h-4q-167 0 -271.5 -105.5t-139.5 -307.5l-27 -156q-35 -202 30.5 -305.5t231.5 -103.5h4q192 0 396 200l105 581q-131 197 -325 197z" />
    <glyph glyph-name="aacute" unicode="&#xe1;" 
d="M958 1552h37q5 0 7 -4t-1 -8l-222 -334q-5 -8 -15 -8h-23q-5 0 -7.5 4t0.5 8l209 334q5 8 15 8zM712 1051h8q88 0 177.5 -45.5t149.5 -134.5l26 140q2 13 16 13h25q12 0 10 -13l-175 -998q-2 -13 -16 -13h-25q-13 0 -11 13l26 137q-91 -88 -195.5 -132.5t-193.5 -44.5h-9
q-188 0 -266 119t-38 346l26 152q40 227 158.5 344t306.5 117zM713 1001h-4q-167 0 -271.5 -105.5t-139.5 -307.5l-27 -156q-35 -202 30.5 -305.5t231.5 -103.5h4q192 0 396 200l105 581q-131 197 -325 197z" />
    <glyph glyph-name="acircumflex" unicode="&#xe2;" 
d="M816 1552h20q12 0 17 -12l126 -332q1 -4 -1 -7t-6 -3h-35q-13 0 -18 13l-98 293l-206 -298q-5 -8 -14 -8h-36q-5 0 -7.5 4t0.5 9l244 334q4 7 14 7zM712 1051h8q88 0 177.5 -45.5t149.5 -134.5l26 140q2 13 16 13h25q12 0 10 -13l-175 -998q-2 -13 -16 -13h-25
q-13 0 -11 13l26 137q-91 -88 -195.5 -132.5t-193.5 -44.5h-9q-188 0 -266 119t-38 346l26 152q40 227 158.5 344t306.5 117zM713 1001h-4q-167 0 -271.5 -105.5t-139.5 -307.5l-27 -156q-35 -202 30.5 -305.5t231.5 -103.5h4q192 0 396 200l105 581q-131 197 -325 197z" />
    <glyph glyph-name="atilde" unicode="&#xe3;" 
d="M1049 1330h27q5 0 7 -4t-1 -8q-38 -61 -91.5 -100.5t-107.5 -39.5h-8q-28 0 -48.5 10t-33.5 24t-25.5 28t-30 24t-40.5 10q-71 0 -146 -94q-5 -7 -14 -7h-27q-5 0 -7.5 3.5t0.5 8.5q38 61 92 100.5t108 39.5h8q28 0 49 -10t33.5 -24l25 -28t29.5 -24t40 -10q72 0 147 94
q7 7 14 7zM712 1051h8q88 0 177.5 -45.5t149.5 -134.5l26 140q2 13 16 13h25q12 0 10 -13l-176 -998q-2 -13 -15 -13h-25q-13 0 -11 13l26 137q-91 -88 -195.5 -132.5t-193.5 -44.5h-9q-188 0 -266 119t-38 346l26 152q40 227 158.5 344t306.5 117zM713 1001h-4
q-167 0 -271.5 -105.5t-139.5 -307.5l-27 -156q-35 -202 30.5 -305.5t231.5 -103.5h4q192 0 396 200l105 581q-131 197 -325 197z" />
    <glyph glyph-name="adieresis" unicode="&#xe4;" 
d="M635 1333h66q13 0 11 -13l-14 -78q-2 -13 -16 -13h-65q-13 0 -11 13l14 78q2 13 15 13zM910 1333h65q13 0 11 -13l-14 -78q-2 -13 -15 -13h-66q-13 0 -11 13l14 78q2 13 16 13zM712 1051h8q88 0 177.5 -45.5t149.5 -134.5l26 140q2 13 16 13h25q12 0 10 -13l-176 -998
q-2 -13 -15 -13h-25q-13 0 -11 13l26 137q-91 -88 -195.5 -132.5t-193.5 -44.5h-9q-188 0 -266 119t-38 346l26 152q40 227 158.5 344t306.5 117zM713 1001h-4q-167 0 -271.5 -105.5t-139.5 -307.5l-27 -156q-35 -202 30.5 -305.5t231.5 -103.5h4q192 0 396 200l105 581
q-131 197 -325 197z" />
    <glyph glyph-name="aring" unicode="&#xe5;" 
d="M833 1471q64 0 101 -43.5t26 -105.5q-10 -60 -61 -102t-111 -42q-65 0 -101 44.5t-25 106.5q10 58 59.5 100t111.5 42zM832 1425q-46 0 -79 -29t-41 -72q-7 -42 13.5 -71.5t63.5 -29.5q46 0 79.5 32t41.5 76q7 40 -13.5 67t-64.5 27zM712 1051h8q88 0 177.5 -45.5
t149.5 -134.5l26 140q2 13 16 13h25q12 0 10 -13l-176 -998q-2 -13 -15 -13h-25q-13 0 -11 13l26 137q-91 -88 -195.5 -132.5t-193.5 -44.5h-9q-188 0 -266 119t-38 346l26 152q40 227 158.5 344t306.5 117zM713 1001h-4q-167 0 -271.5 -105.5t-139.5 -307.5l-27 -156
q-35 -202 30.5 -305.5t231.5 -103.5h4q192 0 396 200l105 581q-131 197 -325 197z" />
    <glyph glyph-name="ae" unicode="&#xe6;" horiz-adv-x="1845" 
d="M1488 1051h23q186 0 262 -119t36 -346l-8 -47q-3 -17 -20 -17h-743l-22 -129q-30 -171 61.5 -270.5t262.5 -99.5h8q148 0 332 87q5 2 9 -1t3 -8l-5 -26q-3 -13 -15 -19q-78 -37 -167 -60t-160 -23h-13q-131 0 -223.5 54.5t-129.5 155.5l-30 -170q-2 -13 -16 -13h-25
q-13 0 -11 13l26 137q-91 -88 -195.5 -132.5t-193.5 -44.5h-9q-188 0 -266 119t-38 346l26 152q40 227 158.5 344t306.5 117h8q88 0 177.5 -45.5t149.5 -134.5l26 140q2 13 16 13h25q12 0 10 -13l-33 -188q70 109 173.5 168.5t223.5 59.5zM713 1001h-4q-167 0 -271.5 -105.5
t-139.5 -307.5l-27 -156q-35 -202 30.5 -305.5t231.5 -103.5h4q192 0 396 200l105 581q-131 197 -325 197zM1503 1001h-18q-160 0 -281 -117t-157 -314l709 3q39 219 -24.5 323.5t-228.5 104.5z" />
    <glyph glyph-name="ccedilla" unicode="&#xe7;" horiz-adv-x="1038" 
d="M1057 965q9 -6 7 -19l-4 -25q-2 -11 -11 -5q-132 85 -267 85h-18q-168 0 -300 -110t-166 -303l-27 -156q-34 -193 57.5 -301t259.5 -108h18q133 0 297 87q5 3 9 -0.5t3 -8.5l-4 -26q-1 -12 -14 -19q-152 -83 -294 -83h-22q-16 0 -44 2l-39 -112q44 12 82 12
q76 0 114.5 -42t25.5 -113q-14 -77 -74 -118.5t-144 -41.5q-59 0 -120 19q-16 5 -11 21l7 21q3 8 12 6q66 -16 111 -16q69 0 115 28t56 86q9 50 -17.5 74.5t-80.5 24.5q-45 0 -101 -16q-8 -2 -13 2l-14 11q-4 4 -3 10l51 150q-152 28 -229.5 147t-43.5 310l26 152
q26 147 105 253t186 157t229 51h23q139 0 267 -86z" />
    <glyph glyph-name="egrave" unicode="&#xe8;" horiz-adv-x="1093" 
d="M652 1552h34q16 0 19 -14l90 -331q2 -9 -6 -9h-21q-14 0 -19 14l-104 331q-1 4 1 6.5t6 2.5zM737 1051h22q186 0 262.5 -119t36.5 -346l-9 -47q-3 -17 -19 -17h-743l-23 -129q-30 -171 61.5 -270.5t262.5 -99.5h8q148 0 332 87q5 2 9 -1t3 -8l-5 -26q-3 -13 -14 -19
q-77 -37 -167 -60t-161 -23h-12q-193 0 -297 115t-70 311l29 168q39 223 175.5 353.5t318.5 130.5zM752 1001h-19q-160 0 -281 -117t-157 -314l709 3q39 219 -24.5 323.5t-227.5 104.5z" />
    <glyph glyph-name="eacute" unicode="&#xe9;" horiz-adv-x="1093" 
d="M972 1552h36q5 0 7.5 -4t-0.5 -8l-223 -334q-5 -8 -15 -8h-23q-5 0 -7 4t1 8l209 334q5 8 15 8zM736 1051h23q186 0 262.5 -119t36.5 -346l-9 -47q-3 -17 -19 -17h-743l-23 -129q-30 -171 61.5 -270.5t262.5 -99.5h8q148 0 332 87q5 2 9 -1t3 -8l-5 -26q-3 -13 -14 -19
q-77 -37 -167 -60t-161 -23h-12q-193 0 -297 115t-70 311l29 168q39 224 175 354t318 130zM752 1001h-19q-160 0 -281 -117t-157 -314l709 3q39 219 -24.5 323.5t-227.5 104.5z" />
    <glyph glyph-name="ecircumflex" unicode="&#xea;" horiz-adv-x="1093" 
d="M808 1552h20q12 0 17 -12l126 -332q1 -4 -1 -7t-6 -3h-35q-13 0 -18 13l-98 293l-206 -298q-5 -8 -14 -8h-37q-5 0 -7 4t1 9l244 334q4 7 14 7zM736 1051h23q186 0 262.5 -119t36.5 -346l-9 -47q-3 -17 -19 -17h-743l-23 -129q-30 -171 61.5 -270.5t262.5 -99.5h8
q148 0 332 87q5 2 9 -1t3 -8l-5 -26q-3 -13 -14 -19q-77 -37 -167 -60t-161 -23h-12q-193 0 -297 115t-70 311l29 168q39 224 175 354t318 130zM752 1001h-19q-160 0 -281 -117t-157 -314l709 3q39 219 -24.5 323.5t-227.5 104.5z" />
    <glyph glyph-name="edieresis" unicode="&#xeb;" horiz-adv-x="1093" 
d="M612 1333h66q12 0 10 -13l-13 -78q-2 -13 -16 -13h-66q-13 0 -11 13l14 78q2 13 16 13zM886 1333h66q13 0 11 -13l-14 -78q-2 -13 -16 -13h-65q-13 0 -11 13l14 78q2 13 15 13zM736 1051h23q186 0 262.5 -119t36.5 -346l-9 -47q-3 -17 -19 -17h-743l-23 -129
q-30 -171 61.5 -270.5t262.5 -99.5h8q148 0 332 87q5 2 9 -1t3 -8l-5 -26q-3 -13 -14 -19q-77 -37 -167 -60t-161 -23h-12q-193 0 -297 115t-70 311l29 168q39 224 175 354t318 130zM752 1001h-19q-160 0 -281 -117t-157 -314l709 3q39 219 -24.5 323.5t-227.5 104.5z" />
    <glyph glyph-name="igrave" unicode="&#xec;" horiz-adv-x="382" 
d="M282 1552h35q15 0 18 -14l91 -331q2 -9 -7 -9h-21q-13 0 -18 14l-105 331q-1 4 1 6.5t6 2.5zM363 1024h24q13 0 11 -13l-176 -998q-2 -13 -15 -13h-25q-13 0 -11 13l176 998q2 13 16 13z" />
    <glyph glyph-name="iacute" unicode="&#xed;" horiz-adv-x="382" 
d="M616 1552h36q5 0 7.5 -4t-0.5 -8l-223 -334q-5 -8 -15 -8h-23q-5 0 -7 4t1 8l209 334q5 8 15 8zM361 1024h25q13 0 11 -13l-176 -998q-2 -13 -16 -13h-25q-12 0 -10 13l176 998q2 13 15 13z" />
    <glyph glyph-name="icircumflex" unicode="&#xee;" horiz-adv-x="382" 
d="M454 1552h20q12 0 17 -12l126 -332q1 -4 -1 -7t-6 -3h-35q-13 0 -18 13l-98 293l-206 -298q-5 -8 -14 -8h-37q-5 0 -7 4t1 9l244 334q4 7 14 7zM361 1024h24q13 0 11 -13l-176 -998q-2 -13 -15 -13h-25q-13 0 -11 13l176 998q2 13 16 13z" />
    <glyph glyph-name="idieresis" unicode="&#xef;" horiz-adv-x="382" 
d="M258 1333h66q13 0 11 -13l-14 -78q-2 -13 -16 -13h-66q-12 0 -10 13l13 78q2 13 16 13zM532 1333h66q13 0 11 -13l-14 -78q-2 -13 -15 -13h-66q-13 0 -11 13l14 78q2 13 15 13zM361 1024h25q12 0 10 -13l-176 -998q-2 -13 -15 -13h-25q-13 0 -11 13l176 998q2 13 16 13z
" />
    <glyph glyph-name="eth" unicode="&#xf0;" horiz-adv-x="1099" 
d="M1290 1532l14 -28q3 -9 -4 -13l-159 -98q44 -93 18 -242l-126 -717q-39 -223 -165.5 -342t-311.5 -119h-22q-176 0 -264 122t-49 343l22 125q39 225 162 343t312 118h9q88 0 177.5 -45.5t149.5 -134.5l56 313q23 128 -13 207l-210 -130q-10 -6 -15 4l-14 28q-3 9 4 13
l207 129q-67 79 -225 79h-8q-146 0 -332 -88q-5 -2 -9 1t-3 8l6 31q1 8 10 13q78 38 168 61t163 23h13q184 0 263 -99l160 99q10 7 16 -4zM982 436l61 342q-131 197 -325 197h-4q-168 0 -276.5 -106.5t-143.5 -307.5l-23 -129q-34 -196 40.5 -302.5t229.5 -106.5h18
q164 0 276 107.5t147 305.5z" />
    <glyph glyph-name="ntilde" unicode="&#xf1;" horiz-adv-x="1103" 
d="M1029 1330h27q5 0 7.5 -4t-0.5 -8q-38 -61 -91.5 -100.5t-107.5 -39.5h-9q-33 0 -57.5 15t-37 33t-33.5 33t-49 15q-71 0 -146 -94q-5 -7 -14 -7h-27q-5 0 -7.5 3.5t0.5 8.5q38 61 91.5 100.5t107.5 39.5h9q28 0 49 -10t33.5 -24l25 -28t29.5 -24t40 -10q71 0 146 94
q7 7 14 7zM773 1051h9q182 0 247 -98.5t32 -288.5l-115 -651q-2 -13 -15 -13h-25q-13 0 -11 13l116 656q29 165 -23.5 248.5t-213.5 83.5h-4q-90 0 -197 -48.5t-212 -131.5l-144 -808q-2 -13 -15 -13h-25q-13 0 -11 13l176 998q2 13 16 13h24q13 0 11 -13l-23 -123
q94 72 204.5 117.5t198.5 45.5z" />
    <glyph glyph-name="ograve" unicode="&#xf2;" horiz-adv-x="1153" 
d="M664 1552h35q15 0 18 -14l91 -331q2 -9 -7 -9h-21q-13 0 -18 14l-104 331q-4 9 6 9zM749 1051h22q91 0 163 -30t119 -89t63 -145.5t-3 -200.5l-27 -152q-39 -221 -176 -341t-325 -120h-23q-91 0 -162.5 30t-118.5 89t-63 145.5t3 200.5l26 152q39 221 176.5 341
t325.5 120zM764 1001h-18q-167 0 -290.5 -109t-157.5 -304l-27 -156q-34 -196 49.5 -302.5t249.5 -106.5h18q166 0 289.5 108.5t157.5 304.5l28 156q34 196 -49.5 302.5t-249.5 106.5z" />
    <glyph glyph-name="oacute" unicode="&#xf3;" horiz-adv-x="1153" 
d="M996 1552h37q5 0 7 -4t-1 -8l-222 -334q-5 -8 -15 -8h-23q-5 0 -7.5 4t0.5 8l209 334q5 8 15 8zM749 1051h22q91 0 163 -30t119 -89t63 -145.5t-3 -200.5l-27 -152q-39 -221 -176 -341t-325 -120h-23q-91 0 -162.5 30t-118.5 89t-63 145.5t3 200.5l26 152
q39 221 176.5 341t325.5 120zM764 1001h-18q-167 0 -290.5 -109t-157.5 -304l-27 -156q-34 -196 49.5 -302.5t249.5 -106.5h18q166 0 289.5 108.5t157.5 304.5l28 156q34 196 -49.5 302.5t-249.5 106.5z" />
    <glyph glyph-name="ocircumflex" unicode="&#xf4;" horiz-adv-x="1153" 
d="M839 1552h19q14 0 18 -12l126 -332q1 -4 -1 -7t-6 -3h-35q-13 0 -18 13l-98 293l-206 -298q-5 -8 -15 -8h-36q-5 0 -7 4t1 9l244 334q4 7 14 7zM749 1051h22q91 0 163 -30t119 -89t63 -145.5t-3 -200.5l-27 -152q-39 -221 -176 -341t-325 -120h-23q-91 0 -162.5 30
t-118.5 89t-63 145.5t3 200.5l26 152q39 221 176.5 341t325.5 120zM764 1001h-18q-167 0 -290.5 -109t-157.5 -304l-27 -156q-34 -196 49.5 -302.5t249.5 -106.5h18q166 0 289.5 108.5t157.5 304.5l28 156q34 196 -49.5 302.5t-249.5 106.5z" />
    <glyph glyph-name="otilde" unicode="&#xf5;" horiz-adv-x="1153" 
d="M1054 1330h27q5 0 7.5 -4t-0.5 -8q-38 -61 -92 -100.5t-108 -39.5h-8q-34 0 -58 15t-36.5 33t-33.5 33t-49 15q-72 0 -147 -94q-5 -7 -13 -7h-28q-5 0 -7 3.5t1 8.5q38 61 91.5 100.5t107.5 39.5h8q28 0 49 -10t34 -24t25 -28t29.5 -24t40.5 -10q71 0 146 94q7 7 14 7z
M749 1051h22q91 0 163 -30t119 -89t63 -145.5t-3 -200.5l-27 -152q-39 -221 -176 -341t-325 -120h-23q-91 0 -162.5 30t-118.5 89t-63 145.5t3 200.5l26 152q39 221 176.5 341t325.5 120zM764 1001h-18q-167 0 -290.5 -109t-157.5 -304l-27 -156q-34 -196 49.5 -302.5
t249.5 -106.5h18q166 0 289.5 108.5t157.5 304.5l28 156q34 196 -49.5 302.5t-249.5 106.5z" />
    <glyph glyph-name="odieresis" unicode="&#xf6;" horiz-adv-x="1153" 
d="M643 1333h65q13 0 11 -13l-14 -78q-2 -13 -15 -13h-66q-13 0 -11 13l14 78q2 13 16 13zM917 1333h66q13 0 11 -13l-14 -78q-2 -13 -16 -13h-65q-13 0 -11 13l13 78q2 13 16 13zM749 1051h22q91 0 163 -30t119 -89t63 -145.5t-3 -200.5l-27 -152q-39 -221 -176 -341
t-325 -120h-23q-91 0 -162.5 30t-118.5 89t-63 145.5t3 200.5l26 152q39 221 176.5 341t325.5 120zM764 1001h-18q-167 0 -290.5 -109t-157.5 -304l-27 -156q-34 -196 49.5 -302.5t249.5 -106.5h18q166 0 289.5 108.5t157.5 304.5l28 156q34 196 -49.5 302.5t-249.5 106.5z
" />
    <glyph glyph-name="divide" unicode="&#xf7;" horiz-adv-x="1114" 
d="M719 1098h66q12 0 10 -13l-13 -79q-2 -13 -16 -13h-66q-13 0 -11 13l14 79q2 13 16 13zM216 686h924q13 0 11 -13l-4 -23q-2 -13 -16 -13h-924q-12 0 -10 13l4 23q2 13 15 13zM583 330h66q13 0 11 -13l-14 -79q-2 -13 -15 -13h-66q-13 0 -11 13l14 79q2 13 15 13z" />
    <glyph glyph-name="oslash" unicode="&#xf8;" horiz-adv-x="1153" 
d="M1147 1024h40q7 0 9 -5t-3 -10l-114 -116q67 -122 34 -307l-27 -152q-39 -221 -176 -341t-325 -120h-23q-184 0 -278 115l-79 -80q-8 -8 -18 -8h-40q-7 0 -9.5 5t2.5 10l115 116q-67 122 -34 307l26 152q39 221 176.5 341t325.5 120h22q184 0 278 -115l80 80q8 8 18 8z
M298 588l-27 -156q-28 -159 23 -261l717 727q-81 103 -247 103h-18q-167 0 -290.5 -109t-157.5 -304zM1035 436l28 156q28 158 -24 261l-717 -727q81 -103 248 -103h18q166 0 289.5 108.5t157.5 304.5z" />
    <glyph glyph-name="ugrave" unicode="&#xf9;" horiz-adv-x="1083" 
d="M638 1552h34q16 0 19 -14l90 -331q2 -9 -6 -9h-22q-13 0 -18 14l-104 331q-1 4 1 6.5t6 2.5zM1066 1024h25q13 0 11 -13l-176 -998q-2 -13 -16 -13h-24q-13 0 -11 13l23 123q-94 -72 -204.5 -117.5t-198.5 -45.5h-9q-177 0 -237 98t-26 289l115 651q2 13 16 13h24
q13 0 11 -13l-116 -656q-30 -167 18 -249.5t203 -82.5h4q90 0 197 48.5t212 131.5l144 808q2 13 15 13z" />
    <glyph glyph-name="uacute" unicode="&#xfa;" horiz-adv-x="1083" 
d="M964 1552h36q5 0 7.5 -4t-0.5 -8l-223 -334q-5 -8 -14 -8h-23q-5 0 -7.5 4t0.5 8l209 334q5 8 15 8zM1066 1024h25q13 0 11 -13l-176 -998q-2 -13 -16 -13h-24q-13 0 -11 13l23 123q-94 -72 -204.5 -117.5t-198.5 -45.5h-9q-177 0 -237 98t-26 289l115 651q2 13 16 13h24
q13 0 11 -13l-116 -656q-30 -167 18 -249.5t203 -82.5h4q90 0 197 48.5t212 131.5l144 808q2 13 15 13z" />
    <glyph glyph-name="ucircumflex" unicode="&#xfb;" horiz-adv-x="1083" 
d="M804 1552h20q12 0 17 -12l126 -332q1 -4 -1 -7t-6 -3h-35q-13 0 -18 13l-98 293l-206 -298q-5 -8 -15 -8h-36q-5 0 -7 4t1 9l244 334q4 7 14 7zM1066 1024h25q13 0 11 -13l-176 -998q-2 -13 -16 -13h-24q-13 0 -11 13l23 123q-94 -72 -204.5 -117.5t-198.5 -45.5h-9
q-177 0 -237 98t-26 289l115 651q2 13 16 13h24q13 0 11 -13l-116 -656q-30 -167 18 -249.5t203 -82.5h4q90 0 197 48.5t212 131.5l144 808q2 13 15 13z" />
    <glyph glyph-name="udieresis" unicode="&#xfc;" horiz-adv-x="1083" 
d="M608 1333h65q13 0 11 -13l-13 -78q-2 -13 -16 -13h-66q-13 0 -11 13l14 78q2 13 16 13zM882 1333h66q13 0 11 -13l-14 -78q-2 -13 -16 -13h-65q-13 0 -11 13l14 78q2 13 15 13zM1066 1024h25q13 0 11 -13l-176 -998q-2 -13 -16 -13h-24q-13 0 -11 13l23 123
q-94 -72 -204.5 -117.5t-198.5 -45.5h-9q-177 0 -237 98t-26 289l115 651q2 13 16 13h24q13 0 11 -13l-116 -656q-30 -167 18 -249.5t203 -82.5h4q90 0 197 48.5t212 131.5l144 808q2 13 15 13z" />
    <glyph glyph-name="yacute" unicode="&#xfd;" horiz-adv-x="997" 
d="M928 1552h36q5 0 7.5 -4t-0.5 -8l-223 -334q-5 -8 -15 -8h-23q-5 0 -7 4t1 8l209 334q5 8 15 8zM1076 1024h31q11 0 6 -11l-638 -1125q-80 -140 -145.5 -198.5t-160.5 -58.5h-12q-49 0 -114 29q-14 7 -11 21l4 24q2 9 10 5q64 -29 118 -29h8q69 0 125 46t121 162l64 111
h-6q-16 0 -19 15l-215 995q-2 5 1.5 9.5t9.5 4.5h27q13 0 16 -12l131 -611l77 -352h5l548 964q6 11 19 11z" />
    <glyph glyph-name="thorn" unicode="&#xfe;" horiz-adv-x="1124" 
d="M447 1509h25q13 0 11 -13l-111 -622q91 88 195.5 132.5t193.5 44.5h8q189 0 271.5 -120t43.5 -345l-26 -152q-39 -225 -162.5 -343t-312.5 -118h-8q-88 0 -178 45.5t-150 134.5l-86 -482q-2 -13 -15 -13h-25q-13 0 -11 13l322 1825q2 13 15 13zM762 1001h-4
q-192 0 -396 -200l-105 -581q131 -197 325 -197h4q168 0 277 106.5t144 306.5l27 156q35 201 -34.5 305t-237.5 104z" />
    <glyph glyph-name="ydieresis" unicode="&#xff;" horiz-adv-x="997" 
d="M563 1333h65q13 0 11 -13l-13 -78q-2 -13 -16 -13h-66q-13 0 -11 13l14 78q2 13 16 13zM837 1333h66q13 0 11 -13l-14 -78q-2 -13 -16 -13h-65q-13 0 -11 13l14 78q2 13 15 13zM1076 1024h31q11 0 6 -11l-638 -1125q-80 -140 -145.5 -198.5t-160.5 -58.5h-12
q-49 0 -114 29q-14 7 -11 21l4 24q2 9 10 5q64 -29 118 -29h8q69 0 125 46t121 162l64 111h-6q-16 0 -19 15l-215 995q-2 5 1.5 9.5t9.5 4.5h27q13 0 16 -12l131 -611l77 -352h5l548 964q6 11 19 11z" />
    <glyph glyph-name="Amacron" unicode="&#x100;" horiz-adv-x="1249" 
d="M670 1688h504q13 0 11 -13l-4 -23q-2 -14 -16 -14h-503q-13 0 -11 13l4 23q2 14 15 14zM857 1434h34q23 0 26 -22l250 -1399q2 -13 -11 -13h-24q-17 0 -20 16l-85 476h-631l-256 -482q-5 -10 -16 -10h-25q-8 0 -11.5 5.5t0.5 12.5l745 1401q8 15 24 15zM864 1376
l-322 -612l-120 -223h596l-40 223l-107 612h-7z" />
    <glyph glyph-name="amacron" unicode="&#x101;" 
d="M554 1278h504q13 0 11 -13l-4 -23q-2 -13 -16 -13h-504q-13 0 -11 13l4 23q2 13 16 13zM712 1051h8q88 0 177.5 -45.5t149.5 -134.5l26 140q2 13 16 13h25q12 0 10 -13l-175 -998q-2 -13 -16 -13h-25q-13 0 -11 13l26 137q-91 -88 -195.5 -132.5t-193.5 -44.5h-9
q-188 0 -266 119t-38 346l26 152q40 227 158.5 344t306.5 117zM713 1001h-4q-167 0 -271.5 -105.5t-139.5 -307.5l-27 -156q-35 -202 30.5 -305.5t231.5 -103.5h4q192 0 396 200l105 581q-131 197 -325 197z" />
    <glyph glyph-name="Abreve" unicode="&#x102;" horiz-adv-x="1249" 
d="M1185 1758q5 3 9.5 0t3.5 -9l-6 -31q-2 -11 -11 -17q-127 -83 -268 -83q-140 0 -240 83q-12 10 -9 25l5 25q1 5 4.5 6.5t7.5 -1.5q54 -42 107 -65.5t127 -23.5q75 0 137 24t133 67zM857 1434h34q23 0 26 -22l250 -1399q2 -13 -11 -13h-24q-17 0 -20 16l-85 476h-631
l-256 -482q-5 -10 -16 -10h-25q-8 0 -11.5 5.5t0.5 12.5l745 1401q8 15 24 15zM864 1376l-322 -612l-120 -223h596l-40 223l-107 612h-7z" />
    <glyph glyph-name="abreve" unicode="&#x103;" 
d="M1043 1348q5 3 9.5 0t3.5 -9l-6 -31q-2 -11 -11 -17q-127 -83 -267 -83q-139 0 -241 84q-12 10 -9 25l5 25q2 12 12 4q54 -42 107 -65t127 -23q75 0 137.5 24t132.5 66zM712 1051h8q88 0 177.5 -45.5t149.5 -134.5l26 140q2 13 16 13h25q12 0 10 -13l-175 -998
q-2 -13 -16 -13h-25q-13 0 -11 13l26 137q-91 -88 -195.5 -132.5t-193.5 -44.5h-9q-188 0 -266 119t-38 346l26 152q40 227 158.5 344t306.5 117zM713 1001h-4q-167 0 -271.5 -105.5t-139.5 -307.5l-27 -156q-35 -202 30.5 -305.5t231.5 -103.5h4q192 0 396 200l105 581
q-131 197 -325 197z" />
    <glyph glyph-name="Aogonek" unicode="&#x104;" horiz-adv-x="1249" 
d="M917 1412l250 -1399q2 -13 -11 -13q-61 -42 -98.5 -71t-77 -65.5t-60.5 -72t-28 -73.5q-9 -55 19.5 -81t85.5 -26q28 0 79 12q4 1 7 -1.5t2 -7.5l-6 -31q-2 -9 -10 -12q-38 -11 -79 -11q-77 0 -118 43.5t-27 123.5q12 67 69.5 127.5t198.5 158.5q0 1 -1 3l-85 476h-631
l-256 -482q-5 -10 -16 -10h-25q-8 0 -11.5 5.5t0.5 12.5l745 1401q8 15 24 15h34q23 0 26 -22zM1018 541l-40 223l-107 612h-7l-322 -612l-120 -223h596z" />
    <glyph glyph-name="aogonek" unicode="&#x105;" 
d="M1089 1024h25q12 0 10 -13l-175 -998q-2 -13 -16 -13q-61 -42 -98.5 -71t-77 -65.5t-60.5 -72t-28 -73.5q-9 -55 19.5 -81t85.5 -26q28 0 79 12q4 1 7 -2t2 -7l-6 -31q-2 -9 -10 -12q-38 -11 -79 -11q-77 0 -118.5 43.5t-27.5 123.5q12 68 71 129.5t206 162.5l25 131
q-91 -88 -195.5 -132.5t-193.5 -44.5h-9q-188 0 -266 119t-38 346l26 152q40 227 158.5 344t306.5 117h8q88 0 177.5 -45.5t149.5 -134.5l26 140q2 13 16 13zM933 223l105 581q-131 197 -325 197h-4q-167 0 -271.5 -105.5t-139.5 -307.5l-27 -156q-35 -202 30.5 -305.5
t231.5 -103.5h4q192 0 396 200z" />
    <glyph glyph-name="Cacute" unicode="&#x106;" horiz-adv-x="1218" 
d="M1211 1962h36q5 0 7.5 -4t-0.5 -8l-223 -334q-5 -8 -15 -8h-23q-5 0 -7 4t1 8l209 334q5 8 15 8zM991 1460h20q178 0 332 -95q11 -6 9 -19l-5 -26q-2 -10 -11 -5q-158 96 -332 96h-16q-83 0 -163 -23t-155.5 -71.5t-136.5 -117t-107 -166t-66 -212.5l-38 -213
q-24 -148 -2.5 -258t83 -183t147 -109t189.5 -36h17q171 0 367 98q5 2 8.5 -1t2.5 -8l-4 -26q-2 -13 -14 -19q-186 -93 -363 -93h-21q-114 0 -208.5 39.5t-162 118t-92.5 196t1 272.5l41 238q27 150 95 271t161 196.5t201.5 115.5t222.5 40z" />
    <glyph glyph-name="cacute" unicode="&#x107;" horiz-adv-x="1038" 
d="M964 1552h37q5 0 7 -4t-1 -8l-223 -334q-5 -8 -14 -8h-23q-5 0 -7.5 4t0.5 8l209 334q5 8 15 8zM767 1051h23q139 0 267 -86q9 -6 7 -19l-4 -25q-2 -11 -11 -5q-132 85 -267 85h-18q-168 0 -300 -110t-166 -303l-27 -156q-34 -193 57.5 -301t259.5 -108h18q133 0 297 87
q5 3 9 -0.5t3 -8.5l-4 -26q-2 -12 -13 -19q-152 -83 -295 -83h-22q-91 0 -165 30.5t-124.5 88t-70 146.5t-0.5 200l26 152q26 147 105 253t186 157t229 51z" />
    <glyph glyph-name="Cdotaccent" unicode="&#x10a;" horiz-adv-x="1218" 
d="M1021 1743h65q13 0 11 -13l-14 -78q-2 -14 -15 -14h-66q-13 0 -11 13l14 79q2 13 16 13zM991 1460h20q178 0 332 -95q11 -6 9 -19l-5 -26q-2 -10 -11 -5q-158 96 -332 96h-16q-83 0 -163 -23t-155.5 -71.5t-136.5 -117t-107 -166t-66 -212.5l-38 -213q-24 -148 -2.5 -258
t83 -183t147 -109t189.5 -36h17q171 0 367 98q5 2 8.5 -1t2.5 -8l-4 -26q-2 -13 -14 -19q-186 -93 -363 -93h-21q-114 0 -209 39.5t-162 118t-92.5 196t0.5 272.5l42 238q27 150 95 271t161 196.5t201.5 115.5t222.5 40z" />
    <glyph glyph-name="cdotaccent" unicode="&#x10b;" horiz-adv-x="1038" 
d="M791 1333h66q13 0 11 -13l-14 -78q-2 -13 -16 -13h-65q-13 0 -11 13l13 78q2 13 16 13zM767 1051h23q139 0 267 -86q9 -6 7 -19l-4 -25q-2 -11 -11 -5q-132 85 -267 85h-18q-168 0 -300 -110t-166 -303l-27 -156q-34 -193 57.5 -301t259.5 -108h18q133 0 297 87
q5 3 9 -0.5t3 -8.5l-4 -26q-1 -12 -14 -19q-152 -83 -294 -83h-22q-91 0 -165 30.5t-124.5 88t-70 146.5t-0.5 200l26 152q26 147 105 253t186 157t229 51z" />
    <glyph glyph-name="Ccaron" unicode="&#x10c;" horiz-adv-x="1218" 
d="M1255 1962h36q5 0 7.5 -4t-0.5 -9l-244 -334q-4 -7 -15 -7h-19q-14 0 -18 12l-125 332q-4 10 6 10h35q13 0 18 -13l98 -293l206 298q5 8 15 8zM991 1460h20q178 0 332 -95q11 -6 9 -19l-5 -26q-2 -10 -11 -5q-158 96 -332 96h-16q-83 0 -163 -23t-155.5 -71.5
t-136.5 -117t-107 -166t-66 -212.5l-38 -213q-24 -148 -2.5 -258t83 -183t147 -109t189.5 -36h17q171 0 367 98q5 2 8.5 -1t2.5 -8l-4 -27q-1 -12 -14 -18q-186 -93 -363 -93h-21q-114 0 -208.5 39.5t-162 118t-92.5 196t1 272.5l42 238q27 150 94.5 271t160.5 196.5
t201.5 115.5t222.5 40z" />
    <glyph glyph-name="ccaron" unicode="&#x10d;" horiz-adv-x="1038" 
d="M1007 1552h36q5 0 7.5 -4t-0.5 -8l-244 -335q-4 -7 -14 -7h-20q-14 0 -18 12l-125 333q-1 4 1 6.5t6 2.5h34q13 0 18 -13l98 -293l207 299q4 7 14 7zM767 1051h23q139 0 267 -86q9 -6 7 -19l-4 -25q-2 -11 -11 -5q-132 85 -267 85h-18q-168 0 -300 -110t-166 -303
l-27 -156q-34 -193 57.5 -301t259.5 -108h18q133 0 297 87q5 3 9 -0.5t3 -8.5l-4 -26q-2 -12 -13 -19q-152 -83 -295 -83h-22q-91 0 -165 30.5t-124.5 88t-70 146.5t-0.5 200l26 152q26 147 105 253t186 157t229 51z" />
    <glyph glyph-name="Dcaron" unicode="&#x10e;" horiz-adv-x="1366" 
d="M1119 1962h36q5 0 7.5 -4t-0.5 -9l-244 -334q-4 -7 -15 -7h-19q-14 0 -18 12l-125 332q-4 10 6 10h35q13 0 18 -13l98 -293l206 298q5 8 15 8zM471 1434h452q114 0 202.5 -37t149 -112.5t79.5 -190.5t-7 -270l-38 -218q-53 -298 -226.5 -452t-409.5 -154h-455
q-13 0 -11 13l248 1407q2 14 16 14zM1261 622l34 193q24 148 8.5 255.5t-69.5 177t-134 103t-184 33.5h-416l-235 -1335h412q104 0 196.5 34.5t170.5 103t134.5 180t82.5 255.5z" />
    <glyph glyph-name="dcaron" unicode="&#x10f;" horiz-adv-x="1247" 
d="M1185 1509h24q13 0 11 -13l-261 -1483q-2 -13 -16 -13h-24q-13 0 -11 13l25 137q-91 -88 -195.5 -132.5t-193.5 -44.5h-8q-189 0 -271.5 120t-43.5 345l26 152q39 225 162.5 343t312.5 118h8q88 0 178 -45.5t150 -134.5l111 625q2 13 16 13zM1370 1509h69q13 0 11 -13
l-12 -74q-1 -5 -5 -15l-100 -223q-5 -11 -17 -11h-32q-10 0 -6 10l100 222h-27q-13 0 -11 13l14 78q2 13 16 13zM723 1001h-4q-168 0 -277 -106.5t-144 -306.5l-27 -156q-35 -201 34.5 -305t237.5 -104h4q192 0 396 200l105 581q-131 197 -325 197z" />
    <glyph glyph-name="Dcroat" unicode="&#x110;" horiz-adv-x="1366" 
d="M471 1434h452q114 0 202.5 -37t149 -112.5t79.5 -190.5t-7 -270l-38 -218q-53 -298 -226.5 -452t-409.5 -154h-455q-13 0 -11 13l110 624h-110q-12 0 -10 13l4 23q2 13 15 13h110l129 734q2 14 16 14zM1261 622l34 193q24 148 8.5 255.5t-69.5 177t-134 103t-184 33.5
h-416l-123 -698h452q13 0 11 -13l-4 -23q-2 -13 -16 -13h-452l-103 -588h412q104 0 196.5 34.5t170.5 103t134.5 180t82.5 255.5z" />
    <glyph glyph-name="dcroat" unicode="&#x111;" horiz-adv-x="1120" 
d="M1192 1337h131q13 0 11 -13l-5 -23q-2 -13 -15 -13h-130l-225 -1275q-2 -13 -16 -13h-24q-13 0 -11 13l25 137q-91 -88 -195.5 -132.5t-193.5 -44.5h-8q-189 0 -271.5 120t-43.5 345l26 152q39 225 162.5 343t312.5 118h8q88 0 178 -45.5t150 -134.5l74 417h-322
q-13 0 -11 13l4 23q2 13 16 13h322l28 159q2 13 16 13h24q13 0 11 -13zM943 223l105 581q-131 197 -325 197h-4q-168 0 -277 -106.5t-144 -306.5l-27 -156q-35 -201 34.5 -305t237.5 -104h4q192 0 396 200z" />
    <glyph glyph-name="Emacron" unicode="&#x112;" horiz-adv-x="1155" 
d="M675 1688h504q13 0 11 -13l-5 -23q-2 -14 -15 -14h-504q-13 0 -11 13l4 23q2 14 16 14zM391 766h743q12 0 10 -13l-4 -23q-2 -13 -15 -13h-743l-117 -668h783q13 0 11 -13l-4 -23q-2 -13 -16 -13h-821q-13 0 -11 13l248 1407q2 14 16 14h821q13 0 11 -13l-4 -23
q-2 -14 -16 -14h-783z" />
    <glyph glyph-name="emacron" unicode="&#x113;" horiz-adv-x="1093" 
d="M520 1278h504q13 0 11 -13l-4 -23q-2 -13 -16 -13h-504q-12 0 -10 13l4 23q2 13 15 13zM737 1051h22q186 0 262.5 -119t36.5 -346l-9 -47q-3 -17 -19 -17h-743l-23 -129q-30 -171 61.5 -270.5t262.5 -99.5h8q148 0 332 87q5 2 9 -1t3 -8l-5 -26q-3 -13 -14 -19
q-77 -37 -167 -60t-161 -23h-12q-193 0 -297 115t-70 311l29 168q39 223 175.5 353.5t318.5 130.5zM752 1001h-19q-160 0 -281 -117t-157 -314l709 3q39 219 -24.5 323.5t-227.5 104.5z" />
    <glyph glyph-name="Edotaccent" unicode="&#x116;" horiz-adv-x="1155" 
d="M910 1743h66q12 0 10 -13l-13 -78q-2 -14 -16 -14h-66q-13 0 -11 13l14 79q2 13 16 13zM391 766h743q12 0 10 -13l-4 -23q-2 -13 -15 -13h-743l-117 -668h783q13 0 11 -13l-4 -23q-2 -13 -16 -13h-821q-13 0 -11 13l248 1407q2 14 16 14h821q13 0 11 -13l-4 -23
q-2 -14 -16 -14h-783z" />
    <glyph glyph-name="edotaccent" unicode="&#x117;" horiz-adv-x="1093" 
d="M749 1333h66q13 0 11 -13l-14 -78q-2 -13 -16 -13h-65q-13 0 -11 13l14 78q2 13 15 13zM736 1051h23q186 0 262.5 -119t36.5 -346l-9 -47q-3 -17 -19 -17h-743l-23 -129q-30 -171 61.5 -270.5t262.5 -99.5h8q148 0 332 87q5 2 9 -1t3 -8l-5 -26q-3 -13 -14 -19
q-77 -37 -167 -60t-161 -23h-12q-193 0 -297 115t-70 311l29 168q39 224 175 354t318 130zM752 1001h-19q-160 0 -281 -117t-157 -314l709 3q39 219 -24.5 323.5t-227.5 104.5z" />
    <glyph glyph-name="Eogonek" unicode="&#x118;" horiz-adv-x="1155" 
d="M471 1434h821q13 0 11 -13l-4 -23q-2 -14 -16 -14h-783l-109 -618h743q12 0 10 -13l-4 -23q-2 -13 -15 -13h-743l-117 -668h783q13 0 11 -13l-4 -23q-2 -13 -16 -13q-61 -42 -98.5 -71t-77 -65.5t-60.5 -72t-28 -73.5q-9 -55 19.5 -81t85.5 -26q28 0 79 12q4 1 7 -1.5
t2 -7.5l-5 -31q-1 -9 -11 -12q-38 -11 -78 -11q-77 0 -118.5 43.5t-27.5 123.5q12 67 67.5 126t182.5 147h-760q-13 0 -11 13l248 1407q2 14 16 14z" />
    <glyph glyph-name="eogonek" unicode="&#x119;" horiz-adv-x="1093" 
d="M737 1051h22q186 0 262.5 -119t36.5 -346l-9 -47q-3 -17 -19 -17h-743l-23 -128q-30 -171 61.5 -271t262.5 -100h8q148 0 332 87q5 2 9 -1t3 -8l-5 -26q-3 -13 -14 -19q-77 -37 -171 -61q-121 -84 -183 -145.5t-74 -131.5q-9 -55 19.5 -81t85.5 -26q28 0 79 12q4 1 7 -2
t2 -7l-5 -31q-1 -9 -11 -12q-38 -11 -78 -11q-77 0 -118.5 43.5t-27.5 123.5q11 63 60.5 119t158.5 133q-50 -6 -72 -6h-12q-193 0 -297 115t-70 311l29 168q39 223 175.5 353.5t318.5 130.5zM295 570l709 3q39 219 -24.5 323.5t-227.5 104.5h-19q-160 0 -281 -117
t-157 -314z" />
    <glyph glyph-name="Ecaron" unicode="&#x11a;" horiz-adv-x="1155" 
d="M1134 1962h36q5 0 7 -4t-1 -9l-244 -334q-4 -7 -14 -7h-19q-14 0 -18 12l-126 332q-1 4 1 7t6 3h35q13 0 18 -13l98 -293l206 298q5 8 15 8zM391 766h743q12 0 10 -13l-4 -23q-2 -13 -15 -13h-743l-117 -668h783q13 0 11 -13l-4 -23q-2 -13 -16 -13h-821q-13 0 -11 13
l248 1407q2 14 16 14h821q13 0 11 -13l-4 -23q-2 -14 -16 -14h-783z" />
    <glyph glyph-name="ecaron" unicode="&#x11b;" horiz-adv-x="1093" 
d="M987 1552h36q5 0 7.5 -4t-0.5 -8l-244 -335q-4 -7 -14 -7h-20q-14 0 -18 12l-125 333q-1 4 1 6.5t6 2.5h34q13 0 18 -13l98 -293l207 299q4 7 14 7zM737 1051h22q186 0 262.5 -119t36.5 -346l-9 -47q-3 -17 -19 -17h-743l-23 -129q-30 -171 61.5 -270.5t262.5 -99.5h8
q148 0 332 87q5 2 9 -1t3 -8l-5 -26q-3 -13 -14 -19q-77 -37 -167 -60t-161 -23h-12q-193 0 -297 115t-70 311l29 168q39 223 175.5 353.5t318.5 130.5zM752 1001h-19q-160 0 -281 -117t-157 -314l709 3q39 219 -24.5 323.5t-227.5 104.5z" />
    <glyph glyph-name="Gbreve" unicode="&#x11e;" horiz-adv-x="1337" 
d="M1334 1758q5 3 9.5 0t3.5 -9l-6 -31q-2 -11 -11 -17q-127 -83 -268 -83q-140 0 -240 83q-12 10 -9 25l5 25q1 5 4.5 6.5t7.5 -1.5q54 -42 107 -65.5t127 -23.5q75 0 137 24t133 67zM1018 1460h20q178 0 332 -95q11 -6 9 -19l-5 -26q-2 -10 -11 -5q-158 96 -332 96h-17
q-107 0 -210.5 -37.5t-194 -108.5t-157.5 -186t-92 -258l-38 -212q-25 -143 0.5 -257.5t91 -184.5t155.5 -107t197 -37h17q156 0 325 77l104 581q2 13 15 13h25q13 0 11 -13l-103 -590q-3 -18 -18 -25q-186 -93 -363 -93h-20q-93 0 -175.5 25.5t-150.5 76t-112 126
t-59 175.5t8 224l42 237q26 150 97.5 271t169 196.5t210.5 115.5t229 40z" />
    <glyph glyph-name="gbreve" unicode="&#x11f;" 
d="M1043 1348q5 3 9.5 0t3.5 -9l-6 -31q-2 -11 -11 -17q-127 -83 -267 -83q-139 0 -241 84q-12 10 -9 25l5 25q2 12 12 4q54 -42 107 -65t127 -23q75 0 137.5 24t132.5 66zM722 1051h12q83 0 182.5 -32.5t171.5 -75.5q21 -13 16 -38l-156 -892q-33 -188 -144.5 -285
t-295.5 -97h-12q-72 0 -154.5 23.5t-146.5 61.5q-11 6 -9 20l5 26q2 9 11 4q151 -86 301 -86h8q163 0 260 85.5t126 248.5l26 136q-91 -88 -195.5 -132.5t-193.5 -44.5h-9q-188 0 -266 119t-38 346l26 152q39 223 165 342t310 119zM727 1001h-8q-162 0 -274 -107.5
t-147 -305.5l-27 -156q-35 -202 30.5 -305.5t231.5 -103.5h4q192 0 396 200l122 675q-68 45 -155 74t-173 29z" />
    <glyph glyph-name="Gdotaccent" unicode="&#x120;" horiz-adv-x="1337" 
d="M1022 1743h65q13 0 11 -13l-14 -78q-2 -14 -15 -14h-66q-13 0 -11 13l14 79q2 13 16 13zM1018 1460h20q178 0 332 -95q11 -6 9 -19l-5 -26q-2 -10 -11 -5q-158 96 -332 96h-17q-107 0 -210.5 -37.5t-194 -108.5t-157.5 -186t-92 -258l-38 -212q-25 -143 0.5 -257.5
t91 -184.5t155.5 -107t197 -37h17q156 0 325 77l104 581q2 13 15 13h25q13 0 11 -13l-103 -590q-3 -18 -18 -25q-186 -93 -363 -93h-20q-93 0 -175.5 25.5t-150.5 76t-112 126t-59 175.5t8 224l42 237q26 150 97.5 271t169 196.5t210.5 115.5t229 40z" />
    <glyph glyph-name="gdotaccent" unicode="&#x121;" 
d="M752 1303h66q12 0 10 -13l-13 -79q-2 -13 -16 -13h-66q-12 0 -10 13l13 78q2 14 16 14zM722 1051h12q83 0 182.5 -32.5t171.5 -75.5q21 -13 16 -38l-156 -892q-33 -188 -144.5 -285t-295.5 -97h-12q-72 0 -154.5 23.5t-146.5 61.5q-11 6 -9 20l5 26q2 9 11 4
q151 -86 301 -86h8q163 0 260 85.5t126 248.5l26 136q-91 -88 -195.5 -132.5t-193.5 -44.5h-9q-188 0 -266 119t-38 346l26 152q39 223 165 342t310 119zM727 1001h-8q-162 0 -274 -107.5t-147 -305.5l-27 -156q-35 -202 30.5 -305.5t231.5 -103.5h4q192 0 396 200l122 675
q-68 45 -155 74t-173 29z" />
    <glyph glyph-name="Gcommaaccent" unicode="&#x122;" horiz-adv-x="1337" 
d="M1018 1460h20q178 0 332 -95q11 -6 9 -19l-5 -26q-2 -10 -11 -5q-158 96 -332 96h-17q-107 0 -210.5 -37.5t-194 -108.5t-157.5 -186t-92 -258l-38 -212q-25 -143 0.5 -257.5t91 -184.5t155.5 -107t197 -37h17q156 0 325 77l104 581q2 13 15 13h25q13 0 11 -13l-103 -590
q-3 -18 -18 -25q-186 -93 -363 -93h-20q-93 0 -175.5 25.5t-150.5 76t-112 126t-59 175.5t8 224l42 237q26 150 97.5 271t169 196.5t210.5 115.5t229 40zM717 -102h70q13 0 11 -13l-13 -74q-2 -10 -4 -15l-100 -224q-5 -11 -17 -11h-32q-11 0 -7 10l101 222h-27
q-13 0 -11 13l14 79q2 13 15 13z" />
    <glyph glyph-name="gcommaaccent" unicode="&#x123;" 
d="M788 1198h-70q-13 0 -11 13l13 74q2 10 4 15l101 224q5 11 17 11h31q11 0 7 -10l-101 -222h27q13 0 11 -13l-14 -79q-2 -13 -15 -13zM722 1051h12q83 0 182.5 -32.5t171.5 -75.5q21 -13 16 -38l-156 -892q-33 -188 -144.5 -285t-295.5 -97h-12q-72 0 -154.5 23.5
t-146.5 61.5q-11 6 -9 20l5 26q2 9 11 4q149 -85 301 -85h8q163 0 260 85t126 248l26 136q-91 -88 -195.5 -132.5t-193.5 -44.5h-9q-188 0 -266 119t-38 346l26 152q39 223 165 342t310 119zM727 1001h-8q-162 0 -274 -107.5t-147 -305.5l-27 -156q-35 -202 30.5 -305.5
t231.5 -103.5h4q192 0 396 200l122 675q-68 45 -155 74t-173 29z" />
    <glyph glyph-name="Hbar" unicode="&#x126;" horiz-adv-x="1398" 
d="M1385 1084h111q13 0 11 -13l-5 -23q-2 -14 -15 -14h-111l-180 -1021q-2 -13 -15 -13h-25q-13 0 -11 13l124 704h-887l-124 -704q-2 -13 -15 -13h-25q-13 0 -11 13l180 1021h-110q-12 0 -10 13l4 23q2 14 15 14h110l59 336q2 14 16 14h25q12 0 10 -13l-59 -337h887l59 336
q2 14 16 14h25q12 0 10 -13zM1325 1034h-887l-47 -268h887z" />
    <glyph glyph-name="hbar" unicode="&#x127;" horiz-adv-x="1112" 
d="M777 1051h9q182 0 249 -99t34 -288l-114 -651q-2 -13 -16 -13h-25q-13 0 -11 13l116 656q29 164 -25.5 248t-215.5 84h-4q-90 0 -197 -48.5t-212 -131.5l-144 -808q-2 -13 -15 -13h-25q-13 0 -11 13l225 1275h-130q-13 0 -11 13l4 23q2 13 16 13h130l28 159q2 13 15 13
h25q13 0 11 -13l-28 -159h323q13 0 11 -13l-4 -23q-2 -13 -16 -13h-323l-72 -400q94 72 204.5 117.5t198.5 45.5z" />
    <glyph glyph-name="Imacron" unicode="&#x12a;" horiz-adv-x="460" 
d="M277 1688h504q13 0 11 -13l-4 -23q-2 -14 -16 -14h-504q-13 0 -11 13l4 23q2 14 16 14zM471 1434h25q12 0 10 -13l-248 -1408q-2 -13 -15 -13h-25q-13 0 -11 13l248 1407q2 14 16 14z" />
    <glyph glyph-name="imacron" unicode="&#x12b;" horiz-adv-x="382" 
d="M158 1278h504q13 0 11 -13l-4 -23q-2 -13 -16 -13h-504q-13 0 -11 13l4 23q2 13 16 13zM361 1024h24q13 0 11 -13l-176 -998q-2 -13 -15 -13h-25q-13 0 -11 13l176 998q2 13 16 13z" />
    <glyph glyph-name="Iogonek" unicode="&#x12e;" horiz-adv-x="460" 
d="M471 1434h25q12 0 10 -13l-248 -1408q-2 -13 -15 -13q-61 -42 -98.5 -71t-77 -65.5t-60.5 -72t-28 -73.5q-9 -55 19 -81t85 -26q29 0 80 12q5 1 7.5 -1.5t1.5 -7.5l-6 -31q-2 -9 -10 -12q-38 -11 -79 -11q-77 0 -118.5 43.5t-27.5 123.5q12 68 71 129t206 163l247 1401
q2 14 16 14z" />
    <glyph glyph-name="iogonek" unicode="&#x12f;" horiz-adv-x="382" 
d="M395 1333h66q13 0 11 -13l-14 -78q-2 -13 -16 -13h-65q-13 0 -11 13l14 78q2 13 15 13zM360 1024h25q13 0 11 -13l-176 -998q-2 -11 -12 -13l2 -1q-125 -87 -188.5 -148.5t-75.5 -132.5q-9 -55 19.5 -81t85.5 -26q36 0 74 11q7 2 12 -3t3 -12l-3 -16q-1 -7 -2 -10
t-4.5 -6.5t-10.5 -5.5q-32 -9 -75 -9q-77 0 -118.5 43.5t-27.5 123.5q12 68 70.5 129.5t199.5 159.5l176 995q2 13 15 13z" />
    <glyph glyph-name="Idotaccent" unicode="&#x130;" horiz-adv-x="460" 
d="M506 1743h66q13 0 11 -13l-14 -78q-2 -14 -16 -14h-65q-13 0 -11 13l13 79q2 13 16 13zM471 1434h25q12 0 10 -13l-248 -1408q-2 -13 -15 -13h-25q-13 0 -11 13l248 1407q2 14 16 14z" />
    <glyph glyph-name="dotlessi" unicode="&#x131;" horiz-adv-x="382" 
d="M361 1024h25q13 0 11 -13l-176 -998q-2 -13 -16 -13h-25q-13 0 -11 13l176 998q2 13 16 13z" />
    <glyph glyph-name="IJ" unicode="&#x132;" horiz-adv-x="1257" 
d="M471 1434h25q12 0 10 -13l-248 -1408q-2 -13 -15 -13h-25q-13 0 -11 13l248 1407q2 14 16 14zM1268 1434h24q13 0 11 -13l-195 -1107q-61 -341 -333 -341h-10q-109 0 -201 65q-13 8 -9 24l5 26q2 11 11 4q97 -69 201 -69h6q228 0 282 306l192 1091q2 14 16 14z" />
    <glyph glyph-name="ij" unicode="&#x133;" horiz-adv-x="811" 
d="M416 1333h54q13 0 11 -13l-14 -78q-2 -13 -16 -13h-53q-13 0 -11 13l14 78q2 13 15 13zM815 1333h54q13 0 11 -13l-14 -78q-2 -13 -16 -13h-53q-13 0 -11 13l14 78q2 13 15 13zM376 1024h25q13 0 11 -13l-176 -998q-2 -13 -16 -13h-25q-12 0 -10 13l176 998q2 13 15 13z
M775 1024h25q13 0 11 -13l-212 -1201q-17 -94 -73 -136.5t-125 -42.5h-13q-47 0 -111 27q-14 6 -11 21l4 24q2 9 10 5q61 -27 116 -27h8q48 0 90 30.5t54 99.5l211 1200q2 13 16 13z" />
    <glyph glyph-name="Kcommaaccent" unicode="&#x136;" horiz-adv-x="1236" 
d="M724 725l433 -713q6 -12 -6 -12h-37q-14 0 -20 11l-422 689h-293l-121 -687q-2 -13 -15 -13h-25q-13 0 -11 13l248 1407q2 14 16 14h25q12 0 10 -13l-118 -671h292l625 676q6 8 16 8h35q6 0 8 -5t-2 -10zM575 -102h70q13 0 11 -13l-13 -74q-2 -10 -4 -15l-100 -224
q-5 -11 -17 -11h-32q-11 0 -7 10l101 222h-27q-13 0 -11 13l14 79q2 13 15 13z" />
    <glyph glyph-name="kcommaaccent" unicode="&#x137;" horiz-adv-x="944" 
d="M447 1509h25q13 0 11 -13l-166 -943h230l415 464q6 7 15 7h36q6 0 8 -5t-2 -9l-430 -482l298 -516q2 -4 0.5 -8t-6.5 -4h-38q-13 0 -19 11l-286 493h-230l-87 -491q-2 -13 -15 -13h-25q-13 0 -11 13l262 1483q2 13 15 13zM430 -102h70q13 0 11 -13l-13 -74q-2 -10 -4 -15
l-101 -224q-5 -11 -17 -11h-31q-11 0 -7 10l101 222h-27q-13 0 -11 13l13 79q2 13 16 13z" />
    <glyph glyph-name="Lacute" unicode="&#x139;" horiz-adv-x="1093" 
d="M713 1962h37q5 0 7 -4t-1 -8l-223 -334q-5 -8 -14 -8h-23q-5 0 -7.5 4t0.5 8l209 334q5 8 15 8zM265 49h742q13 0 11 -13l-5 -28q-2 -8 -10 -8h-785q-13 0 -11 13l248 1407q2 14 16 14h25q12 0 10 -13z" />
    <glyph glyph-name="lacute" unicode="&#x13a;" horiz-adv-x="378" 
d="M699 2038h36q5 0 7.5 -4t-0.5 -9l-223 -334q-5 -8 -15 -8h-23q-5 0 -7 3.5t1 8.5l208 334q5 9 16 9zM447 1509h25q13 0 11 -13l-262 -1483q-2 -13 -15 -13h-25q-13 0 -11 13l262 1483q2 13 15 13z" />
    <glyph glyph-name="Lcommaaccent" unicode="&#x13b;" horiz-adv-x="1093" 
d="M265 49h742q13 0 11 -13l-5 -28q-2 -8 -10 -8h-785q-13 0 -11 13l248 1407q2 14 16 14h25q12 0 10 -13zM504 -102h70q12 0 10 -13l-12 -74q-1 -5 -5 -15l-100 -224q-5 -11 -17 -11h-32q-10 0 -6 10l101 222h-28q-13 0 -11 13l14 79q2 13 16 13z" />
    <glyph glyph-name="lcommaaccent" unicode="&#x13c;" horiz-adv-x="378" 
d="M447 1509h25q13 0 11 -13l-262 -1483q-2 -13 -15 -13h-25q-13 0 -11 13l262 1483q2 13 15 13zM147 -102h70q13 0 11 -13l-13 -74q-2 -10 -4 -15l-100 -224q-5 -11 -17 -11h-32q-11 0 -7 10l101 222h-27q-13 0 -11 13l14 79q2 13 15 13z" />
    <glyph glyph-name="Lcaron" unicode="&#x13d;" horiz-adv-x="1093" 
d="M265 49h742q13 0 11 -13l-5 -28q-2 -8 -10 -8h-785q-13 0 -11 13l248 1407q2 14 16 14h25q12 0 10 -13zM1053 1434h70q13 0 11 -13l-13 -75q-2 -8 -4 -14l-101 -224q-5 -11 -17 -11h-31q-11 0 -7 10l101 222h-27q-13 0 -11 13l14 78q2 14 15 14z" />
    <glyph glyph-name="lcaron" unicode="&#x13e;" horiz-adv-x="512" 
d="M447 1509h25q13 0 11 -13l-262 -1483q-2 -13 -15 -13h-25q-13 0 -11 13l262 1483q2 13 15 13zM633 1509h70q13 0 11 -13l-13 -74q-1 -5 -5 -15l-100 -223q-5 -11 -17 -11h-31q-11 0 -7 10l101 222h-28q-12 0 -10 13l13 78q2 13 16 13z" />
    <glyph glyph-name="Ldot" unicode="&#x13f;" horiz-adv-x="1093" 
d="M265 49h742q13 0 11 -13l-5 -28q-2 -8 -10 -8h-785q-13 0 -11 13l248 1407q2 14 16 14h25q12 0 10 -13zM918 643h66q13 0 11 -13l-14 -78q-2 -13 -16 -13h-65q-13 0 -11 13l13 78q2 13 16 13z" />
    <glyph glyph-name="ldot" unicode="&#x140;" horiz-adv-x="505" 
d="M447 1509h25q13 0 11 -13l-262 -1483q-2 -13 -15 -13h-25q-13 0 -11 13l262 1483q2 13 15 13zM479 643h66q13 0 11 -13l-14 -78q-2 -13 -16 -13h-65q-13 0 -11 13l13 78q2 13 16 13z" />
    <glyph glyph-name="Lslash" unicode="&#x141;" horiz-adv-x="1093" 
d="M265 49h742q13 0 11 -13l-5 -28q-2 -8 -10 -8h-785q-13 0 -11 13l105 595l-129 -81q-10 -7 -16 5l-13 27q-4 9 3 13l167 104l131 744q2 14 16 14h25q12 0 10 -13l-125 -709l319 198q10 7 16 -5l14 -27q3 -9 -4 -13l-357 -222z" />
    <glyph glyph-name="lslash" unicode="&#x142;" horiz-adv-x="532" 
d="M622 976l14 -27q3 -9 -4 -13l-202 -126l-140 -797q-2 -13 -16 -13h-25q-12 0 -10 13l134 762l-154 -96q-11 -7 -16 4l-14 27q-4 9 4 14l192 119l115 653q2 13 16 13h24q13 0 11 -13l-109 -618l165 103q9 6 15 -5z" />
    <glyph glyph-name="Nacute" unicode="&#x143;" horiz-adv-x="1396" 
d="M1183 1962h36q5 0 7.5 -4t-0.5 -8l-223 -334q-5 -8 -15 -8h-23q-5 0 -7 4t1 8l209 334q5 8 15 8zM1412 1434h30q13 0 11 -13l-249 -1408q-2 -13 -15 -13h-39q-12 0 -16 10l-372 774l-275 570h-3l-237 -1346q-2 -8 -10 -8h-29q-13 0 -11 13l248 1407q2 14 16 14h38
q12 0 17 -11l646 -1343h3l237 1345q2 9 10 9z" />
    <glyph glyph-name="nacute" unicode="&#x144;" horiz-adv-x="1103" 
d="M1015 1552h36q5 0 7.5 -4t-0.5 -8l-223 -334q-5 -8 -15 -8h-23q-5 0 -7 4t1 8l209 334q5 8 15 8zM773 1051h9q182 0 247 -98.5t32 -288.5l-115 -651q-2 -13 -15 -13h-25q-13 0 -11 13l116 656q29 165 -23.5 248.5t-213.5 83.5h-4q-90 0 -197 -48.5t-212 -131.5l-144 -808
q-2 -13 -15 -13h-25q-13 0 -11 13l176 998q2 13 16 13h24q13 0 11 -13l-23 -123q94 72 204.5 117.5t198.5 45.5z" />
    <glyph glyph-name="Ncommaaccent" unicode="&#x145;" horiz-adv-x="1396" 
d="M1412 1434h30q13 0 11 -13l-249 -1408q-2 -13 -15 -13h-39q-12 0 -16 10l-372 774l-275 570h-3l-237 -1346q-2 -8 -10 -8h-29q-13 0 -11 13l248 1407q2 14 16 14h38q12 0 17 -11l646 -1343h3l237 1345q2 9 10 9zM655 -102h70q13 0 11 -13l-13 -74q-2 -10 -4 -15
l-101 -224q-5 -11 -16 -11h-32q-11 0 -7 10l101 222h-27q-13 0 -11 13l14 79q2 13 15 13z" />
    <glyph glyph-name="ncommaaccent" unicode="&#x146;" horiz-adv-x="1103" 
d="M773 1051h9q182 0 247 -98.5t32 -288.5l-115 -651q-2 -13 -15 -13h-25q-13 0 -11 13l116 656q29 165 -23.5 248.5t-213.5 83.5h-4q-90 0 -197 -48.5t-212 -131.5l-144 -808q-2 -13 -15 -13h-25q-13 0 -11 13l176 998q2 13 16 13h24q13 0 11 -13l-23 -123
q94 72 204.5 117.5t198.5 45.5zM510 -102h70q13 0 11 -13l-13 -74q-1 -5 -5 -15l-100 -224q-5 -11 -17 -11h-31q-11 0 -7 10l101 222h-28q-13 0 -11 13l14 79q2 13 16 13z" />
    <glyph glyph-name="Ncaron" unicode="&#x147;" horiz-adv-x="1396" 
d="M1210 1962h36q5 0 7.5 -4t-0.5 -9l-244 -334q-4 -7 -15 -7h-19q-13 0 -18 12l-125 332q-4 10 6 10h35q13 0 18 -13l98 -293l206 298q5 8 15 8zM1412 1434h30q13 0 11 -13l-249 -1408q-2 -13 -15 -13h-39q-12 0 -16 10l-372 774l-275 570h-3l-237 -1346q-2 -8 -10 -8h-29
q-13 0 -11 13l248 1407q2 14 16 14h38q12 0 17 -11l646 -1343h3l237 1345q2 9 10 9z" />
    <glyph glyph-name="ncaron" unicode="&#x148;" horiz-adv-x="1103" 
d="M993 1552h36q5 0 7.5 -4t-0.5 -8l-244 -335q-4 -7 -15 -7h-19q-14 0 -18 12l-125 333q-4 9 6 9h35q13 0 18 -13l98 -293l206 299q4 7 15 7zM773 1051h9q182 0 247 -98.5t32 -288.5l-115 -651q-2 -13 -15 -13h-25q-13 0 -11 13l116 656q29 165 -23.5 248.5t-213.5 83.5h-4
q-90 0 -197 -48.5t-212 -131.5l-144 -808q-2 -13 -15 -13h-25q-13 0 -11 13l176 998q2 13 16 13h24q13 0 11 -13l-23 -123q94 72 204.5 117.5t198.5 45.5z" />
    <glyph glyph-name="Eng" unicode="&#x14a;" horiz-adv-x="1396" 
d="M1417 1434h25q13 0 11 -13l-256 -1449q-61 -341 -333 -341h-10q-108 0 -200 65q-13 8 -10 24l5 26q2 12 12 4q98 -70 200 -70h7q223 0 280 302l-661 1372h-3l-236 -1341q-2 -13 -16 -13h-24q-13 0 -11 13l248 1407q2 14 16 14h38q12 0 17 -11l646 -1343h3l236 1340
q2 14 16 14z" />
    <glyph glyph-name="eng" unicode="&#x14b;" horiz-adv-x="1103" 
d="M773 1051h9q182 0 247 -98.5t32 -288.5l-150 -854q-17 -94 -73 -136.5t-125 -42.5h-13q-47 0 -111 27q-15 7 -12 21l5 24q2 9 9 5q61 -27 117 -27h8q48 0 90 30.5t54 99.5l151 858q29 165 -23.5 248.5t-213.5 83.5h-4q-90 0 -197 -48.5t-212 -131.5l-144 -808
q-2 -13 -15 -13h-25q-13 0 -11 13l176 998q2 13 16 13h24q13 0 11 -13l-23 -123q94 72 204.5 117.5t198.5 45.5z" />
    <glyph glyph-name="Omacron" unicode="&#x14c;" horiz-adv-x="1419" 
d="M751 1658h504q13 0 11 -13l-4 -23q-2 -13 -16 -13h-504q-13 0 -11 13l5 23q2 13 15 13zM950 1460h31q114 0 202.5 -37t149 -112.5t79.5 -190.5t-7 -270l-47 -270q-53 -298 -226.5 -452.5t-409.5 -154.5h-31q-114 0 -202.5 37t-149 112.5t-79.5 190.5t7 270l47 271
q53 298 226.5 452t409.5 154zM973 1411h-26q-104 0 -196.5 -34.5t-170.5 -103t-134.5 -180t-82.5 -255.5l-44 -246q-24 -148 -8.5 -255.5t70 -177t134.5 -103t184 -33.5h26q104 0 196.5 34.5t170.5 103t134.5 180t82.5 255.5l44 245q24 148 8.5 255.5t-70 177.5
t-134.5 103.5t-184 33.5z" />
    <glyph glyph-name="omacron" unicode="&#x14d;" horiz-adv-x="1153" 
d="M551 1278h504q13 0 11 -13l-4 -23q-2 -13 -16 -13h-504q-13 0 -11 13l4 23q2 13 16 13zM749 1051h22q91 0 163 -30t119 -89t63 -145.5t-3 -200.5l-27 -152q-39 -221 -176 -341t-325 -120h-23q-91 0 -162.5 30t-118.5 89t-63 145.5t3 200.5l26 152q39 221 176.5 341
t325.5 120zM764 1001h-18q-167 0 -290.5 -109t-157.5 -304l-27 -156q-34 -196 49.5 -302.5t249.5 -106.5h18q166 0 289.5 108.5t157.5 304.5l28 156q34 196 -49.5 302.5t-249.5 106.5z" />
    <glyph glyph-name="Ohungarumlaut" unicode="&#x150;" horiz-adv-x="1419" 
d="M1089 1962h36q5 0 7.5 -4t-0.5 -8l-223 -334q-5 -8 -15 -8h-23q-5 0 -7 4t1 8l209 334q5 8 15 8zM1308 1962h36q5 0 7.5 -4t-0.5 -8l-223 -334q-5 -8 -15 -8h-23q-5 0 -7 4t1 8l209 334q5 8 15 8zM950 1460h31q114 0 202.5 -37t149 -112.5t79.5 -190.5t-7 -270l-47 -270
q-53 -298 -226.5 -452.5t-409.5 -154.5h-31q-114 0 -202.5 37t-149 112.5t-79.5 190.5t7 270l47 271q53 298 226.5 452t409.5 154zM973 1411h-26q-104 0 -196.5 -34.5t-170.5 -103t-134.5 -180t-82.5 -255.5l-44 -246q-24 -148 -8.5 -255.5t70 -177t134.5 -103t184 -33.5h26
q104 0 196.5 34.5t170.5 103t134.5 180t82.5 255.5l44 245q24 148 8.5 255.5t-70 177.5t-134.5 103.5t-184 33.5z" />
    <glyph glyph-name="ohungarumlaut" unicode="&#x151;" horiz-adv-x="1153" 
d="M892 1552h36q5 0 7.5 -4t-0.5 -8l-223 -334q-5 -8 -15 -8h-23q-5 0 -7 4t1 8l209 334q5 8 15 8zM1111 1552h36q5 0 7.5 -4t-0.5 -8l-223 -334q-5 -8 -15 -8h-22q-5 0 -7.5 4t0.5 8l209 334q5 8 15 8zM749 1051h22q91 0 163 -30t119 -89t63 -145.5t-3 -200.5l-27 -152
q-39 -221 -176 -341t-325 -120h-23q-91 0 -162.5 30t-118.5 89t-63 145.5t3 200.5l26 152q39 221 176.5 341t325.5 120zM764 1001h-18q-167 0 -290.5 -109t-157.5 -304l-27 -156q-34 -196 49.5 -302.5t249.5 -106.5h18q166 0 289.5 108.5t157.5 304.5l28 156
q34 196 -49.5 302.5t-249.5 106.5z" />
    <glyph glyph-name="OE" unicode="&#x152;" horiz-adv-x="2154" 
d="M1470 1434h822q13 0 11 -13l-4 -23q-2 -14 -16 -14h-783l-110 -618h743q13 0 11 -13l-4 -23q-2 -13 -16 -13h-742l-118 -668h784q12 0 10 -13l-4 -23q-2 -13 -15 -13h-822q-13 0 -11 13l48 269q-89 -153 -227.5 -231t-304.5 -78h-31q-114 0 -202.5 37t-149 112.5
t-79.5 190.5t7 270l47 271q53 298 226.5 452t409.5 154h31q166 0 278.5 -79.5t146.5 -233.5l49 273q2 14 15 14zM699 23h26q104 0 196.5 34.5t170.5 103t134.5 180t82.5 255.5l44 245q24 148 8.5 255.5t-70 177.5t-134.5 103.5t-184 33.5h-26q-104 0 -196.5 -34.5
t-170.5 -103t-134.5 -180t-82.5 -255.5l-44 -246q-24 -148 -8.5 -255.5t70 -177t134.5 -103t184 -33.5z" />
    <glyph glyph-name="oe" unicode="&#x153;" horiz-adv-x="1908" 
d="M1552 1051h22q186 0 262.5 -119t36.5 -346l-9 -47q-3 -17 -19 -17h-743l-23 -129q-30 -171 61.5 -270.5t262.5 -99.5h8q149 0 333 87q5 2 8.5 -1t2.5 -8l-5 -26q-3 -14 -14 -19q-77 -37 -167 -60t-161 -23h-12q-150 0 -249.5 72.5t-120.5 201.5q-67 -133 -183.5 -203.5
t-257.5 -70.5h-23q-91 0 -162.5 30t-118.5 89t-63 145.5t3 200.5l26 152q39 221 176.5 341t325.5 120h22q145 0 238.5 -75t110.5 -215q67 137 181.5 213.5t250.5 76.5zM764 1001h-18q-167 0 -290.5 -109t-157.5 -304l-27 -156q-34 -196 49.5 -302.5t249.5 -106.5h18
q166 0 289.5 108.5t157.5 304.5l28 156q34 196 -49.5 302.5t-249.5 106.5zM1567 1001h-19q-160 0 -281 -117t-157 -314l709 3q39 219 -24.5 323.5t-227.5 104.5z" />
    <glyph glyph-name="Racute" unicode="&#x154;" horiz-adv-x="1257" 
d="M1068 1962h36q5 0 7.5 -4t-0.5 -8l-223 -334q-5 -8 -14 -8h-23q-5 0 -7.5 4t0.5 8l209 334q5 8 15 8zM471 1434h407q265 0 366 -98t68 -285l-7 -39q-28 -154 -141 -263.5t-312 -137.5l112 -212l212 -388q2 -4 0 -7.5t-7 -3.5h-34q-13 0 -19 11l-321 591h-433l-104 -590
q-2 -14 -16 -14h-24q-13 0 -11 13l248 1409q2 14 16 14zM500 1384l-129 -733h357q123 0 220 30.5t159 84t98.5 119t50.5 143.5l3 14q31 172 -56.5 257t-332.5 85h-370z" />
    <glyph glyph-name="racute" unicode="&#x155;" horiz-adv-x="712" 
d="M816 1552h37q5 0 7 -4t-1 -8l-222 -334q-5 -8 -15 -8h-23q-5 0 -7.5 4t0.5 8l209 334q5 8 15 8zM751 1051h8q22 0 57 -5q18 -2 15 -19l-4 -20q-2 -12 -14 -10q-31 4 -61 4h-4q-173 0 -394 -222l-137 -766q-2 -13 -15 -13h-25q-13 0 -11 13l176 998q2 13 16 13h24
q13 0 11 -13l-28 -155q198 195 386 195z" />
    <glyph glyph-name="Rcommaaccent" unicode="&#x156;" horiz-adv-x="1257" 
d="M471 1434h407q265 0 366 -98t68 -285l-7 -39q-28 -154 -141 -263.5t-312 -137.5l112 -212l212 -388q2 -4 0 -7.5t-7 -3.5h-34q-13 0 -19 11l-321 591h-433l-104 -590q-2 -14 -16 -14h-24q-13 0 -11 13l248 1409q2 14 16 14zM500 1384l-129 -733h357q123 0 220 30.5
t159 84t98.5 119t50.5 143.5l3 14q31 172 -56.5 257t-332.5 85h-370zM594 -102h70q13 0 11 -13l-13 -74q-1 -5 -5 -15l-100 -224q-5 -11 -17 -11h-31q-11 0 -7 10l101 222h-27q-13 0 -11 13l13 79q2 13 16 13z" />
    <glyph glyph-name="rcommaaccent" unicode="&#x157;" horiz-adv-x="712" 
d="M751 1051h8q22 0 57 -5q18 -2 15 -19l-4 -20q-2 -12 -14 -10q-31 4 -61 4h-4q-173 0 -394 -222l-137 -766q-2 -13 -15 -13h-25q-13 0 -11 13l176 998q2 13 16 13h24q13 0 11 -13l-28 -155q198 195 386 195zM159 -102h70q13 0 11 -13l-13 -74q-2 -10 -4 -15l-101 -224
q-5 -11 -17 -11h-31q-11 0 -7 10l101 222h-27q-13 0 -11 13l13 79q2 13 16 13z" />
    <glyph glyph-name="Rcaron" unicode="&#x158;" horiz-adv-x="1257" 
d="M1141 1962h37q5 0 7 -4t-1 -9l-244 -334q-4 -7 -14 -7h-20q-12 0 -17 12l-126 332q-1 4 1 7t6 3h35q13 0 18 -13l98 -293l206 298q5 8 14 8zM471 1434h407q265 0 366 -98t68 -285l-7 -39q-28 -154 -141 -263.5t-312 -137.5l112 -212l212 -388q2 -4 0 -7.5t-7 -3.5h-34
q-13 0 -19 11l-321 591h-433l-104 -590q-2 -14 -16 -14h-24q-13 0 -11 13l248 1409q2 14 16 14zM500 1384l-129 -733h357q123 0 220 30.5t159 84t98.5 119t50.5 143.5l3 14q31 172 -56.5 257t-332.5 85h-370z" />
    <glyph glyph-name="rcaron" unicode="&#x159;" horiz-adv-x="712" 
d="M797 1552h36q5 0 7.5 -4t-0.5 -8l-244 -335q-4 -7 -14 -7h-20q-12 0 -17 12l-126 333q-1 4 1 6.5t6 2.5h35q13 0 18 -13l98 -293l206 299q4 7 14 7zM751 1051h8q22 0 57 -5q18 -2 15 -19l-4 -20q-2 -12 -14 -10q-31 4 -61 4h-4q-173 0 -394 -222l-137 -766
q-2 -13 -15 -13h-25q-13 0 -11 13l176 998q2 13 16 13h24q13 0 11 -13l-28 -155q198 195 386 195z" />
    <glyph glyph-name="Sacute" unicode="&#x15a;" horiz-adv-x="1124" 
d="M1030 1962h37q5 0 7 -4t-1 -8l-222 -334q-5 -8 -15 -8h-23q-5 0 -7.5 4t0.5 8l209 334q5 8 15 8zM613 737l99 -35q34 -12 57 -21t52.5 -21t49 -22.5t42.5 -25t37 -29t29 -32.5t22.5 -38t13 -44t5 -52t-6.5 -60l-1 -9q-26 -148 -151 -236.5t-296 -88.5h-17
q-107 0 -190.5 28.5t-165.5 77.5q-6 4 -11 1t-7 -10l-4 -25q-2 -13 8 -19q169 -103 356 -103h21q190 0 333.5 102.5t172.5 264.5l4 20q6 36 7 68.5t-5 60t-14.5 51t-24.5 44t-32 37.5t-40.5 32.5t-45.5 27.5t-51 25t-54 22.5t-57 21.5l-98 35q-166 59 -234.5 128t-48.5 182
l2 11q17 97 84 168t153 104t178 33h16q172 0 333 -96q14 -9 18 8l5 26q2 13 -9 19q-152 92 -333 92h-20q-104 0 -204 -39.5t-176 -120t-95 -186.5l-4 -22q-23 -133 53 -214t245 -141z" />
    <glyph glyph-name="sacute" unicode="&#x15b;" horiz-adv-x="866" 
d="M841 1552h36q5 0 7.5 -4t-0.5 -8l-223 -334q-5 -8 -15 -8h-23q-5 0 -7.5 4t0.5 8l209 334q5 8 16 8zM601 1051h23q64 0 140 -24.5t133 -61.5q10 -7 8 -19l-5 -25q-2 -11 -11 -5q-133 85 -272 85h-19q-115 0 -206.5 -56.5t-108.5 -153.5l-3 -15q-8 -45 4.5 -78.5t50.5 -58
t65.5 -36.5t84.5 -31q17 -6 26 -9l47 -17q29 -10 49.5 -17.5t45.5 -18t42.5 -19.5t37 -21t32 -24t25.5 -27.5t19.5 -32t11 -36.5t4.5 -43t-5 -49l-2 -10q-24 -131 -131.5 -203t-245.5 -72h-22q-69 0 -152 24.5t-140 61.5q-9 6 -7 19l4 25q2 11 11 5q135 -85 291 -85h19
q117 0 210 60t112 167l2 14q20 113 -81 173q-37 23 -128 55l-47 16q-130 46 -170 67q-122 64 -117 172q0 15 3 31l3 14q22 122 127.5 190.5t241.5 68.5z" />
    <glyph glyph-name="Scedilla" unicode="&#x15e;" horiz-adv-x="1124" 
d="M1147 1368q11 -6 9 -19l-5 -26q-4 -17 -18 -8q-161 96 -333 96h-16q-92 0 -178 -33t-153 -104t-84 -168l-2 -11q-20 -113 48.5 -182t234.5 -128l98 -35q33 -12 57 -21.5t54 -22.5t51 -25t45.5 -27.5t40.5 -32.5t32 -37.5t24.5 -44t14.5 -51t5 -60t-7 -68.5l-4 -20
q-29 -162 -172.5 -264.5t-333.5 -102.5h-22l-39 -110q44 12 82 12q76 0 114.5 -42t25.5 -113q-14 -77 -74 -118.5t-144 -41.5q-59 0 -120 19q-16 5 -11 21l7 21q3 8 12 6q66 -16 111 -16q69 0 115 28t56 86q9 50 -17.5 74.5t-80.5 24.5q-45 0 -101 -16q-8 -2 -13 2l-14 11
q-4 4 -3 10l49 144q-165 11 -310 101q-10 6 -8 19l4 25q2 7 7 10t11 -1q82 -49 165.5 -77.5t190.5 -28.5h17q171 0 296 88.5t151 236.5l1 9q6 32 6.5 60t-5 52t-13 44t-22.5 38t-29 32.5t-37 29t-42.5 25t-49 22.5t-52.5 21t-57 21l-99 35q-169 60 -245 141t-53 214l4 22
q19 106 95 186.5t176 120t204 39.5h20q181 0 333 -92z" />
    <glyph glyph-name="scedilla" unicode="&#x15f;" horiz-adv-x="866" 
d="M897 965q10 -7 8 -19l-5 -25q-2 -11 -11 -5q-133 85 -272 85h-19q-115 0 -206.5 -56.5t-108.5 -153.5l-3 -15q-8 -45 4.5 -78.5t50.5 -58t65.5 -36.5t84.5 -31q17 -6 26 -9l47 -17q29 -10 49.5 -17.5t45.5 -18t42.5 -19.5t37 -21t32 -24t25.5 -27.5t19.5 -32t11 -36.5
t4.5 -43t-5 -49l-2 -10q-24 -131 -131.5 -203t-245.5 -72h-22q-25 0 -50 3l-40 -113q44 12 82 12q76 0 114.5 -42t25.5 -113q-14 -77 -74 -118.5t-144 -41.5q-60 0 -121 19q-15 5 -10 21l7 21q3 8 12 6q66 -16 110 -16q69 0 115 28t56 86q9 50 -17 74.5t-80 24.5
q-45 0 -101 -16q-8 -2 -13 2l-14 11q-4 4 -3 10l52 152q-118 23 -199 76q-9 6 -7 19l4 25q2 11 11 5q135 -85 291 -85h19q117 0 210 60t112 167l2 14q20 113 -81 173q-37 23 -128 55l-47 16q-130 46 -170 67q-122 64 -117 172q0 15 3 31l3 14q22 122 127.5 190.5t241.5 68.5
h23q64 0 140 -24.5t133 -61.5z" />
    <glyph glyph-name="Scaron" unicode="&#x160;" horiz-adv-x="1124" 
d="M1076 1962h36q5 0 7.5 -4t-0.5 -9l-245 -334q-4 -7 -14 -7h-19q-13 0 -18 12l-126 332q-1 4 1 7t6 3h35q13 0 18 -13l98 -293l206 298q5 8 15 8zM613 737l99 -35q34 -12 57 -21t52.5 -21t49 -22.5t42.5 -25t37 -29t29 -32.5t22.5 -38t13 -44t5 -52t-6.5 -60l-1 -9
q-26 -148 -151 -236.5t-296 -88.5h-17q-107 0 -190.5 28.5t-165.5 77.5q-6 4 -11 1t-7 -10l-4 -25q-2 -13 8 -19q169 -103 356 -103h21q190 0 333.5 102.5t172.5 264.5l4 20q6 36 7 68.5t-5 60t-14.5 51t-24.5 44t-32 37.5t-40.5 32.5t-45.5 27.5t-51 25t-54 22.5t-57 21.5
l-98 35q-166 59 -234.5 128t-48.5 182l2 11q17 97 84 168t153 104t178 33h16q172 0 333 -96q14 -9 18 8l5 26q2 13 -9 19q-152 92 -333 92h-20q-104 0 -204 -39.5t-176 -120t-95 -186.5l-4 -22q-23 -133 53 -214t245 -141z" />
    <glyph glyph-name="scaron" unicode="&#x161;" horiz-adv-x="866" 
d="M876 1552h36q5 0 7.5 -4t-0.5 -8l-244 -335q-4 -7 -15 -7h-19q-13 0 -18 12l-125 333q-4 9 6 9h35q13 0 18 -13l98 -293l206 299q4 7 15 7zM601 1051h23q64 0 140 -24.5t133 -61.5q10 -7 8 -19l-5 -25q-2 -11 -11 -5q-133 85 -272 85h-19q-115 0 -206.5 -56.5
t-108.5 -153.5l-3 -15q-8 -45 4.5 -78.5t50.5 -58t65.5 -36.5t84.5 -31q17 -6 26 -9l47 -17q29 -10 49.5 -17.5t45.5 -18t42.5 -19.5t37 -21t32 -24t25.5 -27.5t19.5 -32t11 -36.5t4.5 -43t-5 -49l-2 -10q-24 -131 -131.5 -203t-245.5 -72h-22q-69 0 -152 24.5t-140 61.5
q-9 6 -7 19l4 25q2 11 11 5q135 -85 291 -85h19q117 0 210 60t112 167l2 14q20 113 -81 173q-37 23 -128 55l-47 16q-130 46 -170 67q-122 64 -117 172q0 15 3 31l3 14q22 122 127.5 190.5t241.5 68.5z" />
    <glyph glyph-name="Tcedilla" unicode="&#x162;" horiz-adv-x="1226" 
d="M348 1434h1036q13 0 11 -13l-4 -23q-2 -14 -15 -14h-493l-242 -1371q-2 -13 -15 -13l-49 -137q44 12 82 12q76 0 114.5 -42t25.5 -113q-14 -77 -73.5 -118.5t-143.5 -41.5q-60 0 -121 19q-15 5 -10 21l7 21q3 8 12 6q66 -16 110 -16q69 0 115 28t56 86q9 50 -17.5 74.5
t-80.5 24.5q-44 0 -100 -16q-8 -2 -13 2l-14 11q-4 4 -3 10l67 178v4l242 1371h-493q-13 0 -11 13l4 23q2 14 16 14z" />
    <glyph glyph-name="tcedilla" unicode="&#x163;" horiz-adv-x="651" 
d="M441 1024h316q13 0 11 -13l-4 -23q-2 -13 -16 -13h-316l-136 -774q-16 -93 12 -135.5t114 -42.5h8q62 0 156 36q5 2 8.5 -0.5t2.5 -7.5l-5 -30q-2 -10 -11 -13q-90 -35 -154 -35h-12q-33 0 -71 9l-42 -119q44 12 82 12q76 0 114.5 -42t25.5 -113q-14 -77 -73.5 -118.5
t-143.5 -41.5q-60 0 -121 19q-16 5 -11 21l7 21q3 8 12 6q66 -16 111 -16q69 0 115 28t56 86q9 50 -17.5 74.5t-80.5 24.5q-45 0 -101 -16q-8 -2 -13 2l-14 11q-4 4 -3 10l57 167q-88 51 -59 209l136 768h-134q-13 0 -11 13l4 23q2 13 15 13h134l37 207q3 18 21 23l21 4
q5 1 9 -2.5t3 -8.5z" />
    <glyph glyph-name="Tcaron" unicode="&#x164;" horiz-adv-x="1226" 
d="M1127 1962h36q5 0 7.5 -4t-0.5 -9l-244 -334q-4 -7 -15 -7h-19q-14 0 -18 12l-125 332q-4 10 6 10h35q13 0 18 -13l98 -293l206 298q5 8 15 8zM348 1434h1036q13 0 11 -13l-4 -23q-2 -14 -15 -14h-493l-242 -1371q-2 -13 -15 -13h-25q-13 0 -11 13l242 1371h-493
q-13 0 -11 13l4 23q2 14 16 14z" />
    <glyph glyph-name="tcaron" unicode="&#x165;" horiz-adv-x="811" 
d="M932 1509h70q13 0 11 -13l-13 -74q-1 -5 -5 -15l-100 -223q-5 -11 -17 -11h-31q-11 0 -7 10l101 222h-28q-13 0 -11 13l14 78q2 13 16 13zM447 1254l21 4q5 1 9 -2.5t3 -8.5l-39 -223h316q13 0 11 -13l-4 -23q-2 -13 -16 -13h-316l-136 -774q-16 -93 12 -135.5t114 -42.5
h8q62 0 156 36q5 2 8.5 -0.5t2.5 -7.5l-5 -30q-2 -10 -11 -13q-90 -35 -154 -35h-12q-211 0 -170 234l136 768h-134q-13 0 -11 13l4 23q2 13 15 13h134l37 207q3 18 21 23z" />
    <glyph glyph-name="Tbar" unicode="&#x166;" horiz-adv-x="1226" 
d="M348 1434h1036q13 0 11 -13l-4 -23q-2 -14 -15 -14h-493l-86 -491h233q13 0 11 -13l-4 -23q-2 -13 -16 -13h-233l-147 -831q-2 -13 -15 -13h-25q-13 0 -11 13l147 831h-234q-13 0 -11 13l4 23q2 13 16 13h233l87 491h-493q-13 0 -11 13l4 23q2 14 16 14z" />
    <glyph glyph-name="tbar" unicode="&#x167;" horiz-adv-x="651" 
d="M441 1024h316q13 0 11 -13l-4 -23q-2 -13 -16 -13h-316l-48 -275h318q13 0 11 -13l-4 -23q-2 -13 -16 -13h-318l-79 -450q-16 -93 12 -135.5t114 -42.5h8q62 0 156 36q5 2 8.5 -0.5t2.5 -7.5l-5 -30q-2 -10 -11 -13q-90 -35 -154 -35h-12q-211 0 -170 234l79 444h-135
q-13 0 -11 13l5 23q2 13 15 13h134l49 275h-134q-13 0 -11 13l4 23q2 13 15 13h134l37 207q3 18 21 23l21 4q5 1 9 -2.5t3 -8.5z" />
    <glyph glyph-name="Umacron" unicode="&#x16a;" horiz-adv-x="1409" 
d="M750 1688h504q13 0 11 -13l-4 -23q-2 -14 -16 -14h-504q-13 0 -11 13l5 23q2 14 15 14zM1431 1434h23q13 0 11 -13l-161 -915q-46 -259 -199.5 -396t-382.5 -137h-31q-228 0 -335 138.5t-61 398.5l160 910q2 14 16 14h23q12 0 10 -13l-159 -903q-43 -246 50.5 -370.5
t303.5 -124.5h26q210 0 349.5 126.5t182.5 372.5l159 898q2 14 15 14z" />
    <glyph glyph-name="umacron" unicode="&#x16b;" horiz-adv-x="1083" 
d="M516 1278h504q13 0 11 -13l-4 -23q-2 -13 -16 -13h-504q-13 0 -11 13l5 23q2 13 15 13zM1066 1024h25q13 0 11 -13l-176 -998q-2 -13 -16 -13h-24q-13 0 -11 13l23 123q-94 -72 -204.5 -117.5t-198.5 -45.5h-9q-177 0 -237 98t-26 289l115 651q2 13 16 13h24q13 0 11 -13
l-116 -656q-30 -167 18 -249.5t203 -82.5h4q90 0 197 48.5t212 131.5l144 808q2 13 15 13z" />
    <glyph glyph-name="Uring" unicode="&#x16e;" horiz-adv-x="1409" 
d="M1033 1880q64 0 100.5 -43.5t25.5 -105.5q-10 -60 -60.5 -102t-110.5 -42q-65 0 -101 44.5t-25 106.5q10 58 59.5 100t111.5 42zM1032 1835q-46 0 -79 -29.5t-41 -72.5q-7 -42 13.5 -71.5t63.5 -29.5q46 0 79.5 32t41.5 76q7 40 -14 67.5t-64 27.5zM1431 1434h23
q13 0 11 -13l-161 -915q-46 -259 -199.5 -396t-382.5 -137h-31q-228 0 -335 138.5t-61 398.5l160 910q2 14 16 14h23q12 0 10 -13l-159 -903q-43 -246 50.5 -370.5t303.5 -124.5h26q210 0 349.5 126.5t182.5 372.5l159 898q2 14 15 14z" />
    <glyph glyph-name="uring" unicode="&#x16f;" horiz-adv-x="1083" 
d="M799 1471q64 0 100.5 -43.5t25.5 -105.5q-10 -60 -60.5 -102t-110.5 -42q-65 0 -101.5 44.5t-25.5 106.5q10 58 60 100t112 42zM797 1425q-46 0 -78.5 -29t-40.5 -72q-7 -42 13.5 -71.5t63.5 -29.5q46 0 79.5 32t41.5 76q7 40 -14 67t-65 27zM1066 1024h25q13 0 11 -13
l-176 -998q-2 -13 -16 -13h-24q-13 0 -11 13l23 123q-94 -72 -204.5 -117.5t-198.5 -45.5h-9q-177 0 -237 98t-26 289l115 651q2 13 16 13h24q13 0 11 -13l-116 -656q-30 -167 18 -249.5t203 -82.5h4q90 0 197 48.5t212 131.5l144 808q2 13 15 13z" />
    <glyph glyph-name="Uhungarumlaut" unicode="&#x170;" horiz-adv-x="1409" 
d="M1092 1962h37q5 0 7 -4t-1 -8l-222 -334q-5 -8 -15 -8h-23q-5 0 -7.5 4t0.5 8l209 334q5 8 15 8zM1311 1962h37q5 0 7 -4t-1 -8l-222 -334q-5 -8 -15 -8h-23q-5 0 -7.5 4t0.5 8l209 334q5 8 15 8zM1431 1434h23q13 0 11 -13l-161 -915q-46 -259 -199.5 -396t-382.5 -137
h-31q-228 0 -335 138.5t-61 398.5l160 910q2 14 16 14h23q12 0 10 -13l-159 -903q-43 -246 50.5 -370.5t303.5 -124.5h26q210 0 349.5 126.5t182.5 372.5l159 898q2 14 15 14z" />
    <glyph glyph-name="uhungarumlaut" unicode="&#x171;" horiz-adv-x="1083" 
d="M846 1552h36q5 0 7.5 -4t-0.5 -8l-223 -334q-5 -8 -15 -8h-23q-5 0 -7 4t1 8l209 334q5 8 15 8zM1065 1552h36q5 0 7.5 -4t-0.5 -8l-223 -334q-5 -8 -15 -8h-22q-5 0 -7.5 4t0.5 8l209 334q5 8 15 8zM1066 1024h25q13 0 11 -13l-176 -998q-2 -13 -16 -13h-24
q-13 0 -11 13l23 123q-94 -72 -204.5 -117.5t-198.5 -45.5h-8q-177 0 -237.5 98t-26.5 289l115 651q2 13 16 13h24q13 0 11 -13l-116 -656q-30 -167 18 -249.5t203 -82.5h4q90 0 197 48.5t212 131.5l144 808q2 13 15 13z" />
    <glyph glyph-name="Uogonek" unicode="&#x172;" horiz-adv-x="1409" 
d="M1431 1434h23q13 0 11 -13l-161 -915q-36 -206 -142.5 -336t-267.5 -174q-120 -84 -182.5 -146t-74.5 -132q-9 -55 19 -81t85 -26q32 0 79 11q5 1 8 -1.5t2 -6.5l-6 -31q-1 -9 -11 -12q-38 -11 -78 -11q-77 0 -118.5 43.5t-27.5 123.5q11 63 60.5 119t158.5 133
q-42 -6 -86 -6h-31q-228 0 -335 138.5t-61 398.5l160 910q2 14 16 14h23q12 0 10 -13l-159 -903q-43 -246 50.5 -370.5t303.5 -124.5h26q210 0 349.5 126.5t182.5 372.5l159 898q2 14 15 14z" />
    <glyph glyph-name="uogonek" unicode="&#x173;" horiz-adv-x="1083" 
d="M1066 1024h25q13 0 11 -13l-176 -998q-2 -13 -16 -13q-61 -42 -98.5 -71t-77 -65.5t-60.5 -72t-28 -73.5q-9 -55 19.5 -81t85.5 -26q28 0 79 12q4 1 7 -2t2 -7l-5 -31q-1 -9 -11 -12q-38 -11 -78 -11q-77 0 -118.5 43.5t-27.5 123.5q12 67 71 128.5t206 163.5l22 117
q-94 -72 -204.5 -117.5t-198.5 -45.5h-9q-177 0 -237 98t-26 289l115 651q2 13 16 13h24q13 0 11 -13l-116 -656q-30 -167 18 -249.5t203 -82.5h4q90 0 197 48.5t212 131.5l144 808q2 13 15 13z" />
    <glyph glyph-name="Wcircumflex" unicode="&#x174;" horiz-adv-x="1966" 
d="M1317 1962h19q14 0 18 -12l125 -333q4 -9 -6 -9h-35q-13 0 -18 13l-98 293l-206 -299q-4 -7 -15 -7h-36q-5 0 -7.5 4t0.5 9l244 334q4 7 15 7zM2099 1434h28q5 0 7 -3.5t0 -7.5l-668 -1412q-5 -11 -17 -11h-48q-14 0 -16 14l-66 555l-93 789h-6l-370 -789l-265 -558
q-5 -11 -17 -11h-48q-14 0 -16 14l-170 1407q-2 13 11 13h26q14 0 16 -15l66 -557l96 -803h6l645 1366q5 9 13 9h39q14 0 16 -15l66 -557l97 -803h5l643 1362q7 13 20 13z" />
    <glyph glyph-name="wcircumflex" unicode="&#x175;" horiz-adv-x="1492" 
d="M1007 1552h19q14 0 18 -12l125 -332q4 -10 -6 -10h-35q-13 0 -18 13l-98 293l-206 -298q-5 -8 -15 -8h-36q-5 0 -7.5 4t0.5 9l245 334q4 7 14 7zM1574 1024h29q4 0 6 -3.5t0 -7.5l-483 -1003q-4 -10 -17 -10h-52q-14 0 -16 14l-39 305l-83 646h-6l-308 -646l-149 -309
q-4 -10 -17 -10h-52q-14 0 -16 14l-129 998q-2 12 10 12h26q14 0 16 -14l58 -443l68 -514h3l248 514l214 447q4 10 17 10h46q14 0 16 -14l57 -443l68 -514h4l246 514l215 445q6 12 20 12z" />
    <glyph glyph-name="Ycircumflex" unicode="&#x176;" horiz-adv-x="1255" 
d="M960 1962h20q12 0 17 -12l126 -333q1 -4 -1 -6.5t-6 -2.5h-35q-13 0 -18 13l-98 293l-206 -299q-4 -7 -14 -7h-37q-5 0 -7 4t1 9l244 334q4 7 14 7zM1380 1434h35q5 0 7.5 -4t-0.5 -9l-682 -925l-86 -483q-2 -13 -15 -13h-23q-13 0 -11 13l86 483l-354 921q-2 6 1 11.5
t10 5.5h31q11 0 14 -10l235 -613l96 -248h4l635 862q6 9 17 9z" />
    <glyph glyph-name="ycircumflex" unicode="&#x177;" horiz-adv-x="997" 
d="M759 1552h19q14 0 18 -12l126 -332q1 -4 -1 -7t-6 -3h-35q-13 0 -18 13l-98 293l-206 -298q-5 -8 -15 -8h-36q-5 0 -7 4t1 9l244 334q4 7 14 7zM1076 1024h31q11 0 6 -11l-638 -1125q-80 -140 -145.5 -198.5t-160.5 -58.5h-12q-49 0 -114 29q-14 7 -11 21l4 24q2 9 10 5
q64 -29 118 -29h8q69 0 125 46t121 162l64 111h-6q-16 0 -19 15l-215 995q-2 5 1.5 9.5t9.5 4.5h27q13 0 16 -12l131 -611l77 -352h5l548 964q6 11 19 11z" />
    <glyph glyph-name="Ydieresis" unicode="&#x178;" horiz-adv-x="1255" 
d="M764 1743h66q13 0 11 -13l-14 -78q-2 -14 -16 -14h-66q-12 0 -10 13l13 79q2 13 16 13zM1038 1743h66q13 0 11 -13l-14 -78q-2 -14 -15 -14h-66q-13 0 -11 13l14 79q2 13 15 13zM1380 1434h35q5 0 7.5 -4t-0.5 -9l-682 -925l-86 -483q-2 -13 -15 -13h-23q-13 0 -11 13
l86 483l-354 921q-2 6 1 11.5t10 5.5h31q11 0 14 -10l235 -613l96 -248h4l635 862q6 9 17 9z" />
    <glyph glyph-name="Zacute" unicode="&#x179;" horiz-adv-x="1159" 
d="M1072 1962h37q5 0 7 -4t-1 -8l-223 -334q-5 -8 -14 -8h-23q-5 0 -7.5 4t0.5 8l209 334q5 8 15 8zM183 49h859q13 0 11 -13l-4 -23q-2 -13 -16 -13h-907q-13 0 -11 13l4 25q1 10 9 19l1090 1327h-819q-13 0 -11 13l4 23q2 14 15 14h869q13 0 11 -13l-4 -26q-1 -10 -9 -19z
" />
    <glyph glyph-name="zacute" unicode="&#x17a;" horiz-adv-x="899" 
d="M873 1552h37q5 0 7 -4t-1 -8l-223 -334q-5 -8 -14 -8h-23q-5 0 -7.5 4t0.5 8l209 334q5 8 15 8zM307 1024h667q13 0 11 -13l-4 -28q-1 -5 -6 -12l-820 -922h658q13 0 11 -13l-5 -23q-2 -13 -15 -13h-709q-13 0 -11 13l5 28q1 7 5 12l821 922h-617q-13 0 -11 13l4 23
q2 13 16 13z" />
    <glyph glyph-name="Zdotaccent" unicode="&#x17b;" horiz-adv-x="1159" 
d="M854 1743h66q13 0 11 -13l-14 -78q-2 -14 -16 -14h-65q-13 0 -11 13l14 79q2 13 15 13zM183 49h859q13 0 11 -13l-4 -23q-2 -13 -16 -13h-907q-13 0 -11 13l4 25q1 10 9 19l1090 1327h-819q-13 0 -11 13l4 23q2 14 15 14h869q13 0 11 -13l-4 -26q-1 -10 -9 -19z" />
    <glyph glyph-name="zdotaccent" unicode="&#x17c;" horiz-adv-x="899" 
d="M653 1333h66q12 0 10 -13l-13 -78q-2 -13 -16 -13h-66q-13 0 -11 13l14 78q2 13 16 13zM307 1024h667q13 0 11 -13l-4 -28q-1 -5 -6 -12l-820 -922h658q13 0 11 -13l-5 -23q-2 -13 -15 -13h-709q-13 0 -11 13l5 28q1 7 5 12l821 922h-617q-13 0 -11 13l4 23q2 13 16 13z
" />
    <glyph glyph-name="Zcaron" unicode="&#x17d;" horiz-adv-x="1159" 
d="M1092 1962h36q5 0 7.5 -4t-0.5 -9l-244 -334q-4 -7 -14 -7h-20q-14 0 -18 12l-125 332q-1 4 1 7t6 3h34q13 0 18 -13l98 -293l207 298q5 8 14 8zM183 49h859q13 0 11 -13l-4 -23q-2 -13 -16 -13h-907q-13 0 -11 13l4 25q1 10 9 19l1090 1327h-819q-13 0 -11 13l4 23
q2 14 15 14h869q13 0 11 -13l-4 -26q-1 -10 -9 -19z" />
    <glyph glyph-name="zcaron" unicode="&#x17e;" horiz-adv-x="899" 
d="M890 1552h36q5 0 7.5 -4t-0.5 -8l-245 -335q-4 -7 -14 -7h-19q-13 0 -18 12l-125 333q-4 9 6 9h35q13 0 18 -13l98 -293l206 299q4 7 15 7zM307 1024h667q13 0 11 -13l-4 -28q-1 -5 -6 -12l-820 -922h658q13 0 11 -13l-5 -23q-2 -13 -15 -13h-709q-13 0 -11 13l5 28
q1 7 5 12l821 922h-617q-13 0 -11 13l4 23q2 13 16 13z" />
    <glyph glyph-name="Acaron" unicode="&#x1cd;" horiz-adv-x="1249" 
d="M1136 1962h36q5 0 7.5 -4t-0.5 -9l-244 -334q-4 -7 -14 -7h-20q-13 0 -18 12l-125 332q-4 10 6 10h35q13 0 18 -13l98 -293l207 298q5 8 14 8zM857 1434h34q23 0 26 -22l250 -1399q2 -13 -11 -13h-24q-17 0 -20 16l-85 476h-631l-256 -482q-5 -10 -16 -10h-25
q-8 0 -11.5 5.5t0.5 12.5l745 1401q8 15 24 15zM864 1376l-322 -612l-120 -223h596l-40 223l-107 612h-7z" />
    <glyph glyph-name="acaron" unicode="&#x1ce;" 
d="M995 1552h37q5 0 7 -4t-1 -8l-244 -335q-4 -7 -14 -7h-20q-12 0 -17 12l-126 333q-1 4 1 6.5t6 2.5h35q13 0 18 -13l98 -293l206 299q4 7 14 7zM712 1051h8q88 0 177.5 -45.5t149.5 -134.5l26 140q2 13 16 13h25q12 0 10 -13l-175 -998q-2 -13 -16 -13h-25q-13 0 -11 13
l26 137q-91 -88 -195.5 -132.5t-193.5 -44.5h-9q-188 0 -266 119t-38 346l26 152q40 227 158.5 344t306.5 117zM713 1001h-4q-167 0 -271.5 -105.5t-139.5 -307.5l-27 -156q-35 -202 30.5 -305.5t231.5 -103.5h4q192 0 396 200l105 581q-131 197 -325 197z" />
    <glyph glyph-name="Icaron" unicode="&#x1cf;" horiz-adv-x="460" 
d="M744 1962h36q5 0 7.5 -4t-0.5 -9l-244 -334q-4 -7 -15 -7h-19q-13 0 -18 12l-125 332q-4 10 6 10h35q13 0 18 -13l98 -293l206 298q5 8 15 8zM471 1434h25q12 0 10 -13l-248 -1408q-2 -13 -15 -13h-25q-13 0 -11 13l248 1407q2 14 16 14z" />
    <glyph glyph-name="icaron" unicode="&#x1d0;" horiz-adv-x="382" 
d="M633 1552h36q5 0 7.5 -4t-0.5 -8l-244 -335q-4 -7 -15 -7h-19q-14 0 -18 12l-125 333q-4 9 6 9h35q13 0 18 -13l98 -293l206 299q4 7 15 7zM361 1024h25q13 0 11 -13l-176 -998q-2 -13 -16 -13h-25q-13 0 -11 13l176 998q2 13 16 13z" />
    <glyph glyph-name="Ocaron" unicode="&#x1d1;" horiz-adv-x="1419" 
d="M1223 1962h37q5 0 7 -4t-1 -9l-244 -334q-4 -7 -14 -7h-20q-13 0 -17 12l-126 332q-1 4 1 7t6 3h35q13 0 18 -13l98 -293l206 298q5 8 14 8zM950 1460h31q114 0 202.5 -37t149 -112.5t79.5 -190.5t-7 -270l-47 -270q-53 -298 -226.5 -452.5t-409.5 -154.5h-31
q-114 0 -202.5 37t-149 112.5t-79.5 190.5t7 270l47 271q53 298 226.5 452t409.5 154zM973 1411h-26q-104 0 -196.5 -34.5t-170.5 -103t-134.5 -180t-82.5 -255.5l-44 -246q-24 -148 -8.5 -255.5t70 -177t134.5 -103t184 -33.5h26q104 0 196.5 34.5t170.5 103t134.5 180
t82.5 255.5l44 245q24 148 8.5 255.5t-70 177.5t-134.5 103.5t-184 33.5z" />
    <glyph glyph-name="ocaron" unicode="&#x1d2;" horiz-adv-x="1153" 
d="M1018 1552h36q5 0 7.5 -4t-0.5 -8l-244 -335q-4 -7 -15 -7h-19q-13 0 -18 12l-125 333q-4 9 6 9h35q13 0 18 -13l98 -293l206 299q4 7 15 7zM749 1051h22q91 0 163 -30t119 -89t63 -145.5t-3 -200.5l-27 -152q-39 -221 -176 -341t-325 -120h-23q-91 0 -162.5 30
t-118.5 89t-63 145.5t3 200.5l26 152q39 221 176.5 341t325.5 120zM764 1001h-18q-167 0 -290.5 -109t-157.5 -304l-27 -156q-34 -196 49.5 -302.5t249.5 -106.5h18q166 0 289.5 108.5t157.5 304.5l28 156q34 196 -49.5 302.5t-249.5 106.5z" />
    <glyph glyph-name="Ucaron" unicode="&#x1d3;" horiz-adv-x="1409" 
d="M1216 1962h36q5 0 7.5 -4t-0.5 -9l-244 -334q-4 -7 -14 -7h-20q-13 0 -17 12l-126 332q-1 4 1 7t6 3h35q13 0 18 -13l97 -293l207 298q5 8 14 8zM1431 1434h23q13 0 11 -13l-161 -915q-46 -259 -199.5 -396t-382.5 -137h-31q-228 0 -335 138.5t-61 398.5l160 910
q2 14 16 14h23q12 0 10 -13l-159 -903q-43 -246 50.5 -370.5t303.5 -124.5h26q210 0 349.5 126.5t182.5 372.5l159 898q2 14 15 14z" />
    <glyph glyph-name="ucaron" unicode="&#x1d4;" horiz-adv-x="1083" 
d="M982 1552h36q5 0 7.5 -4t-0.5 -8l-244 -335q-4 -7 -15 -7h-19q-13 0 -18 12l-125 333q-4 9 6 9h35q13 0 18 -13l98 -293l206 299q4 7 15 7zM1066 1024h25q13 0 11 -13l-176 -998q-2 -13 -16 -13h-24q-13 0 -11 13l23 123q-94 -72 -204.5 -117.5t-198.5 -45.5h-9
q-177 0 -237 98t-26 289l115 651q2 13 16 13h24q13 0 11 -13l-116 -656q-30 -167 18 -249.5t203 -82.5h4q90 0 197 48.5t212 131.5l144 808q2 13 15 13z" />
    <glyph glyph-name="Udieresismacron" unicode="&#x1d5;" horiz-adv-x="1409" 
d="M796 1946h504q13 0 11 -13l-5 -23q-2 -14 -15 -14h-504q-13 0 -11 13l4 23q2 14 16 14zM842 1743h65q13 0 11 -13l-13 -78q-2 -14 -16 -14h-66q-13 0 -11 13l14 79q2 13 16 13zM1116 1743h66q13 0 11 -13l-14 -78q-2 -14 -16 -14h-65q-13 0 -11 13l14 79q2 13 15 13z
M1431 1434h23q13 0 11 -13l-161 -915q-46 -259 -199.5 -396t-382.5 -137h-31q-228 0 -335 138.5t-61 398.5l160 910q2 14 16 14h23q12 0 10 -13l-159 -903q-43 -246 50.5 -370.5t303.5 -124.5h26q210 0 349.5 126.5t182.5 372.5l159 898q2 14 15 14z" />
    <glyph glyph-name="udieresismacron" unicode="&#x1d6;" horiz-adv-x="1083" 
d="M562 1536h504q12 0 10 -13l-4 -23q-2 -13 -15 -13h-504q-13 0 -11 13l4 23q2 13 16 13zM609 1333h66q13 0 11 -13l-14 -78q-2 -13 -16 -13h-65q-13 0 -11 13l14 78q2 13 15 13zM884 1333h65q13 0 11 -13l-13 -78q-2 -13 -16 -13h-66q-13 0 -11 13l14 78q2 13 16 13z
M1066 1024h25q13 0 11 -13l-176 -998q-2 -13 -16 -13h-24q-13 0 -11 13l23 123q-94 -72 -204.5 -117.5t-198.5 -45.5h-9q-177 0 -237 98t-26 289l115 651q2 13 16 13h24q13 0 11 -13l-116 -656q-30 -167 18 -249.5t203 -82.5h4q90 0 197 48.5t212 131.5l144 808q2 13 15 13z
" />
    <glyph glyph-name="Udieresisacute" unicode="&#x1d7;" horiz-adv-x="1409" 
d="M1234 2220h37q5 0 7 -4t-1 -8l-223 -334q-5 -8 -14 -8h-23q-5 0 -7.5 4t0.5 8l209 334q5 8 15 8zM842 1743h65q13 0 11 -13l-13 -78q-2 -14 -16 -14h-66q-13 0 -11 13l14 79q2 13 16 13zM1116 1743h66q13 0 11 -13l-14 -78q-2 -14 -16 -14h-65q-13 0 -11 13l14 79
q2 13 15 13zM1431 1434h23q13 0 11 -13l-161 -915q-46 -259 -199.5 -396t-382.5 -137h-31q-228 0 -335 138.5t-61 398.5l160 910q2 14 16 14h23q12 0 10 -13l-159 -903q-43 -246 50.5 -370.5t303.5 -124.5h26q210 0 349.5 126.5t182.5 372.5l159 898q2 14 15 14z" />
    <glyph glyph-name="udieresisacute" unicode="&#x1d8;" horiz-adv-x="1083" 
d="M1010 1810h36q5 0 7 -4t-1 -8l-222 -334q-5 -8 -15 -8h-23q-5 0 -7.5 4t0.5 8l209 334q5 8 16 8zM608 1333h65q13 0 11 -13l-13 -78q-2 -13 -16 -13h-66q-13 0 -11 13l14 78q2 13 16 13zM882 1333h66q13 0 11 -13l-14 -78q-2 -13 -16 -13h-65q-13 0 -11 13l14 78
q2 13 15 13zM1066 1024h25q13 0 11 -13l-176 -998q-2 -13 -16 -13h-24q-13 0 -11 13l23 123q-94 -72 -204.5 -117.5t-198.5 -45.5h-9q-177 0 -237 98t-26 289l115 651q2 13 16 13h24q13 0 11 -13l-116 -656q-30 -167 18 -249.5t203 -82.5h4q90 0 197 48.5t212 131.5l144 808
q2 13 15 13z" />
    <glyph glyph-name="Udieresiscaron" unicode="&#x1d9;" horiz-adv-x="1409" 
d="M1263 2220h36q5 0 7 -4t-1 -9l-244 -334q-4 -7 -14 -7h-19q-14 0 -18 12l-126 332q-1 4 1 7t6 3h35q13 0 18 -13l98 -293l206 298q5 8 15 8zM842 1743h65q13 0 11 -13l-13 -78q-2 -14 -16 -14h-66q-13 0 -11 13l14 79q2 13 16 13zM1116 1743h66q13 0 11 -13l-14 -78
q-2 -14 -16 -14h-65q-13 0 -11 13l14 79q2 13 15 13zM1431 1434h23q13 0 11 -13l-161 -915q-46 -259 -199.5 -396t-382.5 -137h-31q-228 0 -335 138.5t-61 398.5l160 910q2 14 16 14h23q12 0 10 -13l-159 -903q-43 -246 50.5 -370.5t303.5 -124.5h26q210 0 349.5 126.5
t182.5 372.5l159 898q2 14 15 14z" />
    <glyph glyph-name="udieresiscaron" unicode="&#x1da;" horiz-adv-x="1083" 
d="M1027 1810h37q5 0 7 -4t-1 -8l-244 -335q-4 -7 -14 -7h-20q-12 0 -17 12l-126 333q-1 4 1 6.5t6 2.5h35q13 0 18 -13l98 -293l206 299q4 7 14 7zM608 1333h65q13 0 11 -13l-13 -78q-2 -13 -16 -13h-66q-13 0 -11 13l14 78q2 13 16 13zM882 1333h66q13 0 11 -13l-14 -78
q-2 -13 -16 -13h-65q-13 0 -11 13l14 78q2 13 15 13zM1066 1024h25q13 0 11 -13l-176 -998q-2 -13 -16 -13h-24q-13 0 -11 13l23 123q-94 -72 -204.5 -117.5t-198.5 -45.5h-9q-177 0 -237 98t-26 289l115 651q2 13 16 13h24q13 0 11 -13l-116 -656q-30 -167 18 -249.5
t203 -82.5h4q90 0 197 48.5t212 131.5l144 808q2 13 15 13z" />
    <glyph glyph-name="Udieresisgrave" unicode="&#x1db;" horiz-adv-x="1409" 
d="M908 2220h35q16 0 19 -14l90 -332q2 -8 -7 -8h-21q-13 0 -18 13l-104 332q-4 9 6 9zM842 1743h65q13 0 11 -13l-13 -78q-2 -14 -16 -14h-66q-13 0 -11 13l14 79q2 13 16 13zM1116 1743h66q13 0 11 -13l-14 -78q-2 -14 -16 -14h-65q-13 0 -11 13l14 79q2 13 15 13z
M1431 1434h23q13 0 11 -13l-161 -915q-46 -259 -199.5 -396t-382.5 -137h-31q-228 0 -335 138.5t-61 398.5l160 910q2 14 16 14h23q12 0 10 -13l-159 -903q-43 -246 50.5 -370.5t303.5 -124.5h26q210 0 349.5 126.5t182.5 372.5l159 898q2 14 15 14z" />
    <glyph glyph-name="udieresisgrave" unicode="&#x1dc;" horiz-adv-x="1083" 
d="M679 1810h34q16 0 19 -14l90 -331q2 -9 -6 -9h-21q-14 0 -19 14l-104 331q-1 4 1 6.5t6 2.5zM608 1333h65q13 0 11 -13l-13 -78q-2 -13 -16 -13h-66q-13 0 -11 13l14 78q2 13 16 13zM882 1333h66q13 0 11 -13l-14 -78q-2 -13 -16 -13h-65q-13 0 -11 13l14 78q2 13 15 13z
M1066 1024h25q13 0 11 -13l-176 -998q-2 -13 -16 -13h-24q-13 0 -11 13l23 123q-94 -72 -204.5 -117.5t-198.5 -45.5h-9q-177 0 -237 98t-26 289l115 651q2 13 16 13h24q13 0 11 -13l-116 -656q-30 -167 18 -249.5t203 -82.5h4q90 0 197 48.5t212 131.5l144 808q2 13 15 13z
" />
    <glyph glyph-name="Scommaaccent" unicode="&#x218;" horiz-adv-x="1124" 
d="M613 737l99 -35q34 -12 57 -21t52.5 -21t49 -22.5t42.5 -25t37 -29t29 -32.5t22.5 -38t13 -44t5 -52t-6.5 -60l-1 -9q-26 -148 -151 -236.5t-296 -88.5h-17q-107 0 -190.5 28.5t-165.5 77.5q-6 4 -11 1t-7 -10l-4 -25q-2 -13 8 -19q169 -103 356 -103h21
q190 0 333.5 102.5t172.5 264.5l4 20q6 36 7 68.5t-5 60t-14.5 51t-24.5 44t-32 37.5t-40.5 32.5t-45.5 27.5t-51 25t-54 22.5t-57 21.5l-98 35q-166 59 -234.5 128t-48.5 182l2 11q17 97 84 168t153 104t178 33h16q172 0 333 -96q14 -9 18 8l5 26q2 13 -9 19
q-152 92 -333 92h-20q-104 0 -204 -39.5t-176 -120t-95 -186.5l-4 -22q-23 -133 53 -214t245 -141zM515 -102h70q13 0 11 -13l-13 -74q-1 -5 -5 -15l-100 -224q-5 -11 -17 -11h-31q-11 0 -7 10l101 222h-28q-12 0 -10 13l13 79q2 13 16 13z" />
    <glyph glyph-name="scommaaccent" unicode="&#x219;" horiz-adv-x="866" 
d="M601 1051h23q64 0 140 -24.5t133 -61.5q10 -7 8 -19l-5 -25q-2 -11 -11 -5q-133 85 -272 85h-19q-115 0 -206.5 -56.5t-108.5 -153.5l-3 -15q-8 -45 4.5 -78.5t50.5 -58t65.5 -36.5t84.5 -31q17 -6 26 -9l47 -17q29 -10 49.5 -17.5t45.5 -18t42.5 -19.5t37 -21t32 -24
t25.5 -27.5t19.5 -32t11 -36.5t4.5 -43t-5 -49l-2 -10q-24 -131 -131.5 -203t-245.5 -72h-22q-69 0 -152 24.5t-140 61.5q-9 6 -7 19l4 25q2 11 11 5q135 -85 291 -85h19q117 0 210 60t112 167l2 14q20 113 -81 173q-37 23 -128 55l-47 16q-130 46 -170 67q-122 64 -117 172
q0 15 3 31l3 14q22 122 127.5 190.5t241.5 68.5zM391 -102h70q13 0 11 -13l-13 -74q-2 -10 -4 -15l-101 -224q-5 -11 -17 -11h-31q-11 0 -7 10l101 222h-27q-13 0 -11 13l14 79q2 13 15 13z" />
    <glyph glyph-name="uni021A" unicode="&#x21a;" horiz-adv-x="1226" 
d="M348 1434h1036q13 0 11 -13l-4 -23q-2 -14 -15 -14h-493l-242 -1371q-2 -13 -15 -13h-25q-13 0 -11 13l242 1371h-493q-13 0 -11 13l4 23q2 14 16 14zM561 -102h70q13 0 11 -13l-13 -74q-2 -10 -4 -15l-100 -224q-5 -11 -17 -11h-32q-11 0 -7 10l101 222h-27
q-13 0 -11 13l14 79q2 13 15 13z" />
    <glyph glyph-name="uni021B" unicode="&#x21b;" horiz-adv-x="651" 
d="M447 1254l21 4q5 1 9 -2.5t3 -8.5l-39 -223h316q13 0 11 -13l-4 -23q-2 -13 -16 -13h-316l-136 -774q-16 -93 12 -135.5t114 -42.5h8q62 0 156 36q5 2 8.5 -0.5t2.5 -7.5l-5 -29q-2 -11 -11 -14q-90 -35 -154 -35h-12q-211 0 -170 234l136 768h-134q-13 0 -11 13l4 23
q2 13 15 13h134l37 207q3 18 21 23zM374 -102h70q13 0 11 -13l-13 -74q-1 -5 -5 -15l-100 -224q-5 -11 -17 -11h-31q-11 0 -7 10l101 222h-28q-13 0 -11 13l14 79q2 13 16 13z" />
    <glyph glyph-name="uni0243" unicode="&#x243;" horiz-adv-x="1234" 
d="M474 1434h432q217 0 304 -87.5t59 -248.5l-6 -33q-18 -104 -91 -187.5t-198 -125.5q99 -24 156 -81.5t71.5 -128t-0.5 -155.5l-7 -39q-61 -348 -484 -348h-492q-13 0 -11 13l62 352h-110q-13 0 -11 13l5 23q2 13 15 13h110l177 1003q3 17 19 17zM1215 1081l1 8
q26 147 -47 221t-270 74h-399l-108 -614h375q198 0 311.5 90t136.5 221zM1146 364l2 15q7 54 6.5 104t-23.5 93.5t-61.5 75.5t-107 50.5t-161.5 18.5h-418l-54 -307h452q13 0 11 -13l-4 -23q-2 -13 -16 -13h-452l-55 -316h449q202 0 304 82t128 233z" />
    <glyph glyph-name="circumflex" unicode="&#x2c6;" horiz-adv-x="581" 
d="M624 1962h20q14 0 18 -12l125 -333q1 -4 -1 -6.5t-6 -2.5h-34q-13 0 -18 13l-98 293l-207 -299q-4 -7 -14 -7h-36q-5 0 -7.5 4t0.5 9l244 334q4 7 14 7z" />
    <glyph glyph-name="caron" unicode="&#x2c7;" horiz-adv-x="581" 
d="M802 1962h37q5 0 7 -4t-1 -9l-244 -334q-4 -7 -14 -7h-20q-13 0 -17 12l-126 332q-1 4 1 7t6 3h35q13 0 18 -13l98 -293l206 298q5 8 14 8z" />
    <glyph glyph-name="breve" unicode="&#x2d8;" horiz-adv-x="696" 
d="M908 1758q5 3 9.5 0t3.5 -9l-5 -31q-2 -11 -11 -17q-127 -83 -268 -83t-241 83q-11 10 -8 25l4 25q1 5 4.5 6.5t7.5 -1.5q54 -42 107.5 -65.5t127.5 -23.5q75 0 136.5 24t132.5 67z" />
    <glyph glyph-name="dotaccent" unicode="&#x2d9;" horiz-adv-x="256" 
d="M403 1743h65q13 0 11 -13l-14 -78q-2 -14 -15 -14h-66q-13 0 -11 13l14 79q2 13 16 13z" />
    <glyph glyph-name="ring" unicode="&#x2da;" horiz-adv-x="462" 
d="M559 1880q64 0 101 -43.5t26 -105.5q-10 -60 -60.5 -102t-110.5 -42q-65 0 -101.5 44.5t-25.5 106.5q10 58 59.5 100t111.5 42zM558 1835q-46 0 -78.5 -29.5t-40.5 -72.5q-7 -42 13.5 -71.5t63.5 -29.5q46 0 79.5 32t41.5 76q7 40 -14 67.5t-65 27.5z" />
    <glyph glyph-name="ogonek" unicode="&#x2db;" horiz-adv-x="425" 
d="M284 0h61q-61 -42 -98.5 -71t-77 -65.5t-60.5 -72t-28 -73.5q-9 -55 19.5 -81t85.5 -26q28 0 79 12q5 1 7.5 -1.5t1.5 -7.5l-5 -31q-1 -9 -11 -12q-38 -11 -78 -11q-77 0 -118.5 43.5t-27.5 123.5q12 67 67.5 126t182.5 147z" />
    <glyph glyph-name="tilde" unicode="&#x2dc;" horiz-adv-x="722" 
d="M909 1739h28q5 0 7 -3.5t-1 -8.5q-38 -61 -91.5 -100.5t-107.5 -39.5h-8q-28 0 -48.5 10t-33.5 24.5t-25.5 28.5t-30 24t-40.5 10q-70 0 -146 -95q-5 -6 -14 -6h-27q-5 0 -7.5 3.5t0.5 8.5q38 61 92 100.5t108 39.5h8q28 0 49 -10t33.5 -24.5t25 -28.5t29.5 -24t40 -10
q72 0 147 94q7 7 13 7z" />
    <glyph glyph-name="hungarumlaut" unicode="&#x2dd;" horiz-adv-x="587" 
d="M591 1962h36q5 0 7.5 -4t-0.5 -8l-223 -334q-5 -8 -15 -8h-23q-5 0 -7 4t1 8l208 334q5 8 16 8zM810 1962h36q5 0 7.5 -4t-0.5 -8l-223 -334q-5 -8 -15 -8h-23q-5 0 -7 4t1 8l209 334q5 8 15 8z" />
    <glyph glyph-name="uni0326" unicode="&#x326;" horiz-adv-x="0" 
d="M97 -102h70q12 0 10 -13l-12 -74q-1 -5 -5 -15l-100 -224q-5 -11 -17 -11h-32q-10 0 -6 10l101 222h-28q-13 0 -11 13l14 79q2 13 16 13z" />
    <glyph glyph-name="uni0401" unicode="&#x401;" horiz-adv-x="1155" 
d="M763 1743h66q13 0 11 -13l-14 -78q-2 -14 -16 -14h-66q-12 0 -10 13l13 79q2 13 16 13zM1037 1743h66q13 0 11 -13l-14 -78q-2 -14 -15 -14h-66q-13 0 -11 13l14 79q2 13 15 13zM391 766h743q12 0 10 -13l-4 -23q-2 -13 -15 -13h-743l-117 -668h783q13 0 11 -13l-4 -23
q-2 -13 -16 -13h-821q-13 0 -11 13l248 1407q2 14 16 14h821q13 0 11 -13l-4 -23q-2 -14 -16 -14h-783z" />
    <glyph glyph-name="uni0404" unicode="&#x404;" horiz-adv-x="1218" 
d="M1344 1365q10 -6 8 -19l-5 -26q-2 -10 -10 -5q-160 96 -333 96h-16q-104 0 -203.5 -37.5t-186 -108.5t-150 -185.5t-88.5 -257.5l-11 -60h747q13 0 11 -13l-4 -23q-2 -13 -16 -13h-746l-19 -104q-24 -148 -2.5 -258t83 -183t147.5 -109t190 -36h16q173 0 367 97
q5 2 8.5 -1t2.5 -8l-5 -30q-1 -8 -10 -13q-186 -95 -366 -95h-21q-114 0 -208.5 39.5t-162 118.5t-92.5 196.5t1 272.5l41 237q27 150 95 271t161 196.5t201.5 115.5t222.5 40h20q179 0 333 -95z" />
    <glyph glyph-name="uni0406" unicode="&#x406;" horiz-adv-x="460" 
d="M471 1434h25q12 0 10 -13l-248 -1408q-2 -13 -15 -13h-25q-13 0 -11 13l248 1407q2 14 16 14z" />
    <glyph glyph-name="uni0407" unicode="&#x407;" horiz-adv-x="460" 
d="M367 1743h66q13 0 11 -13l-14 -78q-2 -14 -15 -14h-66q-13 0 -11 13l14 79q2 13 15 13zM642 1743h66q12 0 10 -13l-13 -78q-2 -14 -16 -14h-66q-13 0 -11 13l14 79q2 13 16 13zM471 1434h25q12 0 10 -13l-248 -1408q-2 -13 -15 -13h-25q-13 0 -11 13l248 1407q2 14 16 14
z" />
    <glyph glyph-name="uni040E" unicode="&#x40e;" horiz-adv-x="1255" 
d="M1188 1758q5 3 9.5 0t3.5 -9l-6 -31q-2 -11 -11 -17q-127 -83 -268 -83q-140 0 -240 83q-12 10 -9 25l5 25q1 5 4.5 6.5t7.5 -1.5q54 -42 107 -65.5t127 -23.5q75 0 137 24t133 67zM1380 1434h36q5 0 7.5 -4t-0.5 -9l-727 -1120q-120 -187 -202 -253t-194 -66h-10
q-47 0 -87 14q-14 5 -11 21l5 29q2 9 9 5q48 -20 91 -20h6q92 0 162.5 58.5t179.5 227.5l13 16l-324 1092q-2 9 6 9h39q12 0 15 -11l200 -684l102 -341h2l664 1026q7 10 18 10z" />
    <glyph glyph-name="uni0410" unicode="&#x410;" horiz-adv-x="1249" 
d="M857 1434h34q23 0 26 -22l250 -1399q2 -13 -11 -13h-24q-17 0 -20 16l-85 476h-631l-256 -482q-5 -10 -16 -10h-25q-8 0 -11.5 5.5t0.5 12.5l745 1401q8 15 24 15zM864 1376l-322 -612l-120 -223h596l-40 223l-107 612h-7z" />
    <glyph glyph-name="uni0411" unicode="&#x411;" horiz-adv-x="1218" 
d="M471 1434h766q13 0 11 -13l-4 -23q-2 -14 -16 -14h-728l-98 -559h354q265 0 368 -99t71 -281l-9 -49q-70 -396 -578 -396h-390q-13 0 -11 13l248 1407q2 14 16 14zM393 776l-128 -727h346q462 0 526 362l5 25q30 168 -59 254t-334 86h-356z" />
    <glyph glyph-name="uni0412" unicode="&#x412;" horiz-adv-x="1234" 
d="M474 1434h432q217 0 304 -87.5t59 -248.5l-6 -33q-18 -104 -91 -187.5t-198 -125.5q99 -24 156 -81.5t71.5 -128t-0.5 -155.5l-7 -39q-61 -348 -484 -348h-492q-13 0 -11 13l248 1404q3 17 19 17zM500 1384l-108 -614h375q198 0 311.5 90t136.5 221l1 8q26 147 -47 221
t-270 74h-399zM383 721l-118 -672h449q202 0 304 82t128 233l2 15q7 54 6.5 104t-23.5 93.5t-61.5 75.5t-107 50.5t-161.5 18.5h-418z" />
    <glyph glyph-name="uni0413" unicode="&#x413;" horiz-adv-x="1093" 
d="M471 1434h780q13 0 11 -13l-4 -23q-2 -14 -15 -14h-743l-242 -1371q-2 -13 -15 -13h-25q-13 0 -11 13l248 1407q2 14 16 14z" />
    <glyph glyph-name="uni0414" unicode="&#x414;" horiz-adv-x="1490" 
d="M726 1434h759q13 0 11 -13l-242 -1372h150q13 0 11 -13l-53 -301q-2 -14 -15 -14h-25q-13 0 -11 13l47 266h-1204l-47 -265q-2 -14 -16 -14h-24q-13 0 -11 13l54 307q2 8 9 8l161 1q102 59 157 279l274 1093q3 12 15 12zM753 1384l-267 -1070q-48 -186 -127 -266l844 1
l235 1335h-685z" />
    <glyph glyph-name="uni0415" unicode="&#x415;" horiz-adv-x="1155" 
d="M391 766h743q12 0 10 -13l-4 -23q-2 -13 -15 -13h-743l-117 -668h783q13 0 11 -13l-4 -23q-2 -13 -16 -13h-821q-13 0 -11 13l248 1407q2 14 16 14h821q13 0 11 -13l-4 -23q-2 -14 -16 -14h-783z" />
    <glyph glyph-name="uni0416" unicode="&#x416;" horiz-adv-x="1853" 
d="M1937 1434h35q6 0 8.5 -5t-1.5 -10l-639 -694l435 -713q2 -4 0 -8t-7 -4h-38q-13 0 -19 10l-423 690h-212l-121 -687q-2 -13 -16 -13h-25q-13 0 -11 13l122 687h-212l-670 -694q-6 -6 -15 -6h-37q-7 0 -9 5t3 10l684 710l-394 697q-2 4 -0.5 8t6.5 4h36q13 0 19 -11
l384 -673h213l119 670q2 14 15 14h25q13 0 11 -13l-119 -671h213l625 677q7 7 15 7z" />
    <glyph glyph-name="uni0417" unicode="&#x417;" horiz-adv-x="1099" 
d="M745 1460h21q186 0 291.5 -98t78.5 -252l-8 -45q-16 -94 -93.5 -181.5t-205.5 -131.5q61 -15 108.5 -44t74 -65t43 -78t17 -84t-4.5 -83l-7 -43q-28 -161 -179.5 -271.5t-357.5 -110.5h-20q-193 0 -349 96q-10 6 -8 19l5 26q2 10 10 5q160 -96 349 -96h17q186 0 322 100
t162 247l4 19q9 36 5 74.5t-13.5 75.5t-37 70t-65.5 58t-99.5 40t-138.5 15h-200q-13 0 -11 13l4 22q2 13 16 13h157q101 0 185 29.5t137 76.5t84.5 99.5t40.5 105.5l4 21q24 139 -67.5 224t-257.5 85h-16q-177 0 -373 -98q-5 -2 -8.5 1t-2.5 8l5 31q1 7 9 12q186 95 373 95
z" />
    <glyph glyph-name="uni0418" unicode="&#x418;" horiz-adv-x="1396" 
d="M1400 1434h42q13 0 11 -13l-249 -1408q-2 -13 -15 -13h-25q-13 0 -11 13l237 1341h-2l-1122 -1347q-6 -7 -16 -7h-42q-13 0 -11 13l248 1407q2 14 16 14h24q13 0 11 -13l-236 -1341h1l1123 1346q6 8 16 8z" />
    <glyph glyph-name="uni0419" unicode="&#x419;" horiz-adv-x="1396" 
d="M1270 1758q5 3 9.5 0t3.5 -9l-6 -31q-2 -11 -11 -17q-127 -83 -268 -83q-140 0 -240 83q-12 10 -9 25l4 25q1 5 4.5 6.5t7.5 -1.5q54 -42 107.5 -65.5t127.5 -23.5q75 0 137 24t133 67zM1400 1434h42q13 0 11 -13l-249 -1408q-2 -13 -15 -13h-25q-13 0 -11 13l237 1341
h-2l-1122 -1346q-6 -8 -16 -8h-42q-13 0 -11 13l248 1407q2 14 16 14h24q13 0 11 -13l-236 -1341h1l1123 1346q6 8 16 8z" />
    <glyph glyph-name="uni041A" unicode="&#x41a;" horiz-adv-x="1236" 
d="M724 725l433 -713q6 -12 -6 -12h-37q-14 0 -20 11l-422 689h-293l-121 -687q-2 -13 -15 -13h-25q-13 0 -11 13l248 1407q2 14 16 14h25q12 0 10 -13l-118 -671h292l625 676q6 8 16 8h35q6 0 8 -5t-2 -10z" />
    <glyph glyph-name="uni041B" unicode="&#x41b;" horiz-adv-x="1439" 
d="M726 1434h759q13 0 11 -13l-248 -1408q-2 -13 -16 -13h-25q-13 0 -11 13l242 1371h-685l-267 -1070q-45 -179 -120 -260t-187 -81h-12q-33 0 -73 18q-11 5 -9 17l5 26q2 9 9 5q37 -16 75 -16h8q95 0 154 70t101 236l274 1093q3 12 15 12z" />
    <glyph glyph-name="uni041C" unicode="&#x41c;" horiz-adv-x="1699" 
d="M1698 1434h31q8 0 12.5 -6t3.5 -13l-249 -1407q-2 -8 -9 -8h-22q-9 0 -14 6t-3 15l232 1318h-3l-376 -475l-360 -444q-5 -6 -13 -6h-18q-10 0 -13 8l-201 442l-209 475h-5l-234 -1326q-2 -13 -16 -13h-24q-13 0 -11 13l248 1407q2 14 16 14h32q11 0 16 -11l419 -938h3
l753 942q5 7 14 7z" />
    <glyph glyph-name="uni041D" unicode="&#x41d;" horiz-adv-x="1398" 
d="M1409 1434h25q12 0 10 -13l-248 -1408q-2 -13 -15 -13h-25q-13 0 -11 13l124 704h-887l-124 -704q-2 -13 -15 -13h-25q-13 0 -11 13l248 1407q2 14 16 14h25q12 0 10 -13l-115 -655h887l115 654q2 14 16 14z" />
    <glyph glyph-name="uni041E" unicode="&#x41e;" horiz-adv-x="1419" 
d="M950 1460h31q114 0 202.5 -37t149 -112.5t79.5 -190.5t-7 -270l-47 -270q-53 -298 -226.5 -452.5t-409.5 -154.5h-31q-114 0 -202.5 37t-149 112.5t-79.5 190.5t7 270l47 271q53 298 226.5 452t409.5 154zM973 1411h-26q-104 0 -196.5 -34.5t-170.5 -103t-134.5 -180
t-82.5 -255.5l-44 -246q-24 -148 -8.5 -255.5t70 -177t134.5 -103t184 -33.5h26q104 0 196.5 34.5t170.5 103t134.5 180t82.5 255.5l44 245q24 148 8.5 255.5t-70 177.5t-134.5 103.5t-184 33.5z" />
    <glyph glyph-name="uni041F" unicode="&#x41f;" horiz-adv-x="1413" 
d="M471 1434h977q13 0 11 -13l-248 -1408q-2 -13 -16 -13h-25q-13 0 -11 13l242 1371h-901l-242 -1371q-2 -13 -15 -13h-25q-13 0 -11 13l248 1407q2 14 16 14z" />
    <glyph glyph-name="uni0420" unicode="&#x420;" horiz-adv-x="1290" 
d="M471 1434h397q264 0 369 -104.5t72 -292.5l-9 -50q-16 -92 -58 -167.5t-111 -134.5t-174.5 -91.5t-239.5 -32.5h-362l-97 -548q-2 -13 -15 -13h-25q-13 0 -11 13l248 1407q2 14 16 14zM1252 1003l4 25q31 173 -60 264.5t-336 91.5h-360l-136 -774h356q124 0 220.5 30
t159 85t100 124t52.5 154z" />
    <glyph glyph-name="uni0421" unicode="&#x421;" horiz-adv-x="1218" 
d="M991 1460h20q178 0 332 -95q11 -6 9 -19l-5 -26q-2 -10 -11 -5q-158 96 -332 96h-16q-83 0 -163 -23t-155.5 -71.5t-136.5 -117t-107 -166t-66 -212.5l-38 -213q-24 -148 -2.5 -258t83 -183t147 -109t189.5 -36h17q171 0 367 98q5 2 8.5 -1t2.5 -8l-4 -26q-2 -13 -14 -19
q-186 -93 -363 -93h-21q-114 0 -209 39.5t-162 118t-92.5 196t0.5 272.5l42 238q27 150 95 271t161 196.5t201.5 115.5t222.5 40z" />
    <glyph glyph-name="uni0422" unicode="&#x422;" horiz-adv-x="1226" 
d="M348 1434h1036q13 0 11 -13l-4 -23q-2 -14 -15 -14h-493l-242 -1371q-2 -13 -15 -13h-25q-13 0 -11 13l242 1371h-493q-13 0 -11 13l4 23q2 14 16 14z" />
    <glyph glyph-name="uni0423" unicode="&#x423;" horiz-adv-x="1255" 
d="M1380 1434h36q5 0 7.5 -4t-0.5 -9l-727 -1120q-120 -187 -202 -253t-194 -66h-10q-47 0 -87 14q-14 5 -11 21l5 29q2 9 9 5q48 -20 91 -20h6q92 0 162.5 58.5t179.5 227.5l13 16l-324 1092q-2 9 6 9h39q12 0 15 -11l200 -684l101 -341h3l664 1026q7 10 18 10z" />
    <glyph glyph-name="uni0424" unicode="&#x424;" horiz-adv-x="1812" 
d="M1147 1434h24q13 0 11 -13l-21 -121h185q112 0 203 -36.5t151 -103.5t83 -168.5t1 -225.5l-7 -39q-44 -247 -217.5 -388.5t-404.5 -141.5h-189l-32 -184q-2 -13 -15 -13h-25q-13 0 -11 13l32 184h-184q-112 0 -203 36.5t-151 103.5t-83 168.5t-1 225.5l7 39
q44 247 217.5 388.5t404.5 141.5h188l21 120q2 14 16 14zM1101 1251h-182q-211 0 -370.5 -132.5t-200.5 -364.5l-3 -14q-41 -232 70.5 -363t322.5 -131h186zM1152 1251l-177 -1005h183q211 0 370 132.5t200 364.5l3 14q41 232 -70.5 363t-322.5 131h-186z" />
    <glyph glyph-name="uni0425" unicode="&#x425;" horiz-adv-x="1187" 
d="M1300 1434h34q6 0 8.5 -5t-1.5 -9l-580 -689l346 -720q2 -4 0 -7.5t-6 -3.5h-38q-12 0 -17 11l-246 515l-80 166h-6l-568 -683q-8 -9 -20 -9h-34q-6 0 -8 5t2 9l599 717l-337 692q-2 4 0 7.5t7 3.5h38q11 0 16 -11l235 -487l82 -166h7l547 654q8 10 20 10z" />
    <glyph glyph-name="uni0426" unicode="&#x426;" horiz-adv-x="1435" 
d="M1405 1434h24q13 0 11 -13l-241 -1372h150q13 0 11 -13l-53 -301q-2 -14 -16 -14h-24q-13 0 -11 13l47 266h-1085q-13 0 -11 13l248 1407q2 14 16 14h25q12 0 10 -13l-241 -1372h882l242 1371q2 14 16 14z" />
    <glyph glyph-name="uni0427" unicode="&#x427;" horiz-adv-x="1290" 
d="M1300 1434h25q13 0 11 -13l-248 -1408q-2 -13 -16 -13h-25q-12 0 -10 13l103 578q-75 -41 -192.5 -74.5t-219.5 -33.5h-21q-213 0 -313 126t-60 353l80 458q2 14 16 14h25q13 0 11 -13l-80 -450q-38 -213 49 -326t280 -113h16q106 0 217 33t199 80l138 776q2 13 15 13z
" />
    <glyph glyph-name="uni0428" unicode="&#x428;" horiz-adv-x="2037" 
d="M2048 1434h25q12 0 10 -13l-248 -1408q-2 -13 -15 -13h-1602q-13 0 -11 13l248 1407q2 14 16 14h25q12 0 10 -13l-241 -1372h737l242 1371q2 14 15 14h25q13 0 11 -13l-242 -1372h737l242 1371q2 14 16 14z" />
    <glyph glyph-name="uni0429" unicode="&#x429;" horiz-adv-x="2078" 
d="M2048 1434h25q12 0 10 -13l-241 -1372h150q13 0 11 -13l-53 -301q-2 -14 -16 -14h-24q-13 0 -11 13l47 266h-1728q-13 0 -11 13l248 1407q2 14 16 14h25q12 0 10 -13l-241 -1372h737l242 1371q2 14 15 14h25q13 0 11 -13l-242 -1372h737l242 1371q2 14 16 14z" />
    <glyph glyph-name="uni042A" unicode="&#x42a;" horiz-adv-x="1423" 
d="M348 1434h291q13 0 11 -13l-105 -596h355q265 0 367.5 -99t70.5 -281l-9 -49q-70 -396 -578 -396h-390q-13 0 -11 13l242 1371h-253q-13 0 -11 13l4 23q2 14 16 14zM536 776l-128 -727h346q463 0 527 362l4 25q30 168 -59 254t-334 86h-356z" />
    <glyph glyph-name="uni042B" unicode="&#x42b;" horiz-adv-x="1601" 
d="M1612 1434h24q13 0 11 -13l-248 -1408q-2 -13 -16 -13h-24q-13 0 -11 13l248 1407q2 14 16 14zM471 1434h25q12 0 10 -13l-104 -596h354q265 0 368 -99t71 -281l-9 -49q-70 -396 -578 -396h-390q-13 0 -11 13l248 1407q2 14 16 14zM393 776l-128 -727h346q462 0 526 362
l5 25q30 168 -59 254t-334 86h-356z" />
    <glyph glyph-name="uni042C" unicode="&#x42c;" horiz-adv-x="1280" 
d="M471 1434h25q12 0 10 -13l-104 -596h354q265 0 368 -99t71 -281l-9 -49q-70 -396 -578 -396h-390q-13 0 -11 13l248 1407q2 14 16 14zM393 776l-128 -727h346q462 0 526 362l5 25q30 168 -59 254t-334 86h-356z" />
    <glyph glyph-name="uni042D" unicode="&#x42d;" horiz-adv-x="1218" 
d="M719 1460h20q114 0 209 -39.5t162 -118t92.5 -196t-0.5 -272.5l-42 -238q-27 -150 -95 -271t-161 -196.5t-201.5 -115.5t-222.5 -40h-20q-176 0 -332 96q-10 6 -8 19l4 26q2 9 11 4q157 -95 332 -95h17q104 0 203.5 37.5t185.5 108.5t149.5 185.5t88.5 257.5l18 101h-746
q-13 0 -11 13l4 23q2 13 15 13h747l11 63q24 148 2.5 258t-83 183t-147 109t-189.5 36h-17q-170 0 -366 -98q-5 -2 -9 1t-3 8l5 31q1 7 10 12q186 95 367 95z" />
    <glyph glyph-name="uni042E" unicode="&#x42e;" horiz-adv-x="1812" 
d="M1343 1460h31q114 0 203 -37t149 -112.5t79.5 -190.5t-6.5 -270l-48 -270q-53 -298 -226.5 -452.5t-409.5 -154.5h-30q-114 0 -203 37t-149 112.5t-79.5 190.5t6.5 270l23 130h-301l-124 -700q-2 -13 -15 -13h-25q-13 0 -11 13l248 1407q2 14 16 14h25q12 0 10 -13
l-116 -659h301l17 92q53 298 226 452t409 154zM1702 596l44 245q24 148 8.5 255.5t-69.5 177.5t-134 103.5t-184 33.5h-27q-104 0 -196.5 -34.5t-170.5 -103t-134.5 -180t-82.5 -255.5l-43 -246q-24 -148 -8.5 -255.5t69.5 -177t134 -103t184 -33.5h26q104 0 196.5 34.5
t170.5 103t134.5 180t82.5 255.5z" />
    <glyph glyph-name="uni042F" unicode="&#x42f;" horiz-adv-x="1259" 
d="M884 1434h410q13 0 11 -13l-248 -1408q-2 -13 -16 -13h-24q-13 0 -11 13l103 589h-431l-533 -595q-6 -7 -16 -7h-34q-6 0 -8 5t2 9l344 385l193 212q-128 19 -206 80.5t-102 143.5t-6 181l7 38q33 187 166.5 283.5t398.5 96.5zM1247 1384h-367q-126 0 -218 -22.5
t-152 -68t-94 -107.5t-49 -147l-2 -15q-11 -50 -7 -97t17.5 -88.5t45.5 -76t76.5 -59t111 -38.5t149.5 -14h360z" />
    <glyph glyph-name="uni0430" unicode="&#x430;" 
d="M712 1051h8q88 0 177.5 -45.5t149.5 -134.5l26 140q2 13 16 13h25q12 0 10 -13l-175 -998q-2 -13 -16 -13h-25q-13 0 -11 13l26 137q-91 -88 -195.5 -132.5t-193.5 -44.5h-9q-188 0 -266 119t-38 346l26 152q40 227 158.5 344t306.5 117zM713 1001h-4
q-167 0 -271.5 -105.5t-139.5 -307.5l-27 -156q-35 -202 30.5 -305.5t231.5 -103.5h4q192 0 396 200l105 581q-131 197 -325 197z" />
    <glyph glyph-name="uni0431" unicode="&#x431;" horiz-adv-x="1099" 
d="M1163 1532q5 4 9.5 0.5t3.5 -9.5l-3 -21q-4 -17 -14 -23q-138 -93 -350 -93h-8q-182 0 -289.5 -100.5t-137.5 -269.5l-31 -169q91 88 195.5 132.5t193.5 44.5h8q189 0 271.5 -120t43.5 -345l-22 -125q-39 -221 -168 -341t-305 -120h-22q-185 0 -270.5 120.5t-46.5 344.5
l102 580q34 194 156 306t325 112h9q107 0 188.5 22t161.5 74zM733 975h-4q-193 0 -397 -200l-61 -343q-35 -199 38 -304t236 -105h18q155 0 270 108.5t149 304.5l23 129q35 201 -34.5 305.5t-237.5 104.5z" />
    <glyph glyph-name="uni0432" unicode="&#x432;" horiz-adv-x="985" 
d="M358 1024h325q174 0 246.5 -63t52.5 -178l-4 -21q-13 -75 -63 -136t-135 -96q99 -24 138.5 -89.5t23.5 -159.5l-3 -21q-21 -118 -117 -189t-267 -71h-378q-13 0 -11 13l176 998q2 13 16 13zM387 975l-76 -430h279q148 0 234.5 65t102.5 154l5 24q16 90 -44 138.5
t-213 48.5h-288zM302 496l-78 -447h334q150 0 232 60t98 153l4 24q17 96 -42 153t-210 57h-338z" />
    <glyph glyph-name="uni0433" unicode="&#x433;" horiz-adv-x="837" 
d="M358 1024h586q12 0 10 -13l-4 -23q-2 -13 -15 -13h-548l-170 -962q-2 -13 -15 -13h-25q-13 0 -11 13l176 998q2 13 16 13z" />
    <glyph glyph-name="uni0434" unicode="&#x434;" horiz-adv-x="1196" 
d="M535 1024h597q13 0 11 -13l-170 -962h157q13 0 11 -13l-53 -301q-2 -14 -16 -14h-24q-13 0 -11 13l46 266h-970l-47 -265q-2 -14 -16 -14h-24q-13 0 -11 13l54 307q2 8 9 8l152 1q61 50 93 181l197 781q3 12 15 12zM562 975l-188 -745q-32 -123 -79 -182l627 1l163 926
h-523z" />
    <glyph glyph-name="uni0435" unicode="&#x435;" horiz-adv-x="1093" 
d="M737 1051h22q186 0 262.5 -119t36.5 -346l-9 -47q-3 -17 -19 -17h-743l-23 -129q-30 -171 61.5 -270.5t262.5 -99.5h8q148 0 332 87q5 2 9 -1t3 -8l-5 -26q-3 -13 -14 -19q-77 -37 -167 -60t-161 -23h-12q-193 0 -297 115t-70 311l29 168q39 223 175.5 353.5t318.5 130.5
zM752 1001h-19q-160 0 -281 -117t-157 -314l709 3q39 219 -24.5 323.5t-227.5 104.5z" />
    <glyph glyph-name="uni0436" unicode="&#x436;" horiz-adv-x="1421" 
d="M1453 1024h36q6 0 8.5 -5t-1.5 -9l-431 -482l298 -516q2 -4 0.5 -8t-6.5 -4h-43q-8 0 -12 7l-288 497h-189l-87 -491q-2 -13 -15 -13h-25q-13 0 -11 13l87 491h-188l-464 -497q-7 -7 -15 -7h-37q-6 0 -8.5 5t1.5 10l479 513l-261 485q-2 4 0 7.5t7 3.5h40q8 0 13 -8
l251 -463h190l81 458q2 13 16 13h24q13 0 11 -13l-80 -458h189l415 464q6 7 15 7z" />
    <glyph glyph-name="uni0437" unicode="&#x437;" horiz-adv-x="890" 
d="M581 1051h22q164 0 238 -75.5t53 -192.5l-4 -21q-13 -76 -64 -138t-137 -96q97 -25 136 -91.5t23 -159.5l-4 -21q-21 -118 -132.5 -200.5t-282.5 -82.5h-22q-69 0 -152 24.5t-140 61.5q-10 7 -8 19l5 25q2 11 11 5q135 -85 291 -85h18q150 0 247.5 71t113.5 164l4 24
q17 97 -41.5 155.5t-209.5 58.5h-173q-13 0 -11 13l4 23q2 13 16 13h120q148 0 234.5 65t102.5 154l5 24q16 92 -44 152.5t-204 60.5h-18q-136 0 -303 -87q-5 -3 -9 0.5t-3 8.5l5 30q2 9 9 13q69 38 154 61.5t150 23.5z" />
    <glyph glyph-name="uni0438" unicode="&#x438;" horiz-adv-x="1101" 
d="M1054 1024h51q13 0 11 -13l-176 -998q-2 -13 -15 -13h-25q-13 0 -11 13l167 949l-812 -955q-6 -7 -15 -7h-52q-13 0 -11 13l176 998q2 13 16 13h24q13 0 11 -13l-167 -949h2l810 955q6 7 16 7z" />
    <glyph glyph-name="uni0439" unicode="&#x439;" horiz-adv-x="1101" 
d="M1052 1348q5 3 9 0t3 -9l-5 -31q-2 -11 -11 -17q-127 -83 -268 -83q-138 0 -240 84q-12 10 -9 25l4 25q2 12 12 4q53 -41 107 -64.5t128 -23.5q76 0 138 24t132 66zM1054 1024h51q13 0 11 -13l-176 -998q-2 -13 -15 -13h-25q-13 0 -11 13l167 949l-812 -955q-6 -7 -15 -7
h-52q-13 0 -11 13l176 998q2 13 16 13h24q13 0 11 -13l-167 -949h2l810 955q6 7 16 7z" />
    <glyph glyph-name="uni043A" unicode="&#x43a;" horiz-adv-x="944" 
d="M362 1024h24q13 0 11 -13l-80 -458h230l415 464q6 7 15 7h36q6 0 8 -5t-2 -9l-430 -482l298 -516q2 -4 0.5 -8t-6.5 -4h-38q-13 0 -19 11l-286 493h-230l-87 -491q-2 -13 -15 -13h-25q-13 0 -11 13l176 998q2 13 16 13z" />
    <glyph glyph-name="uni043B" unicode="&#x43b;" horiz-adv-x="1136" 
d="M331 231l197 781q3 12 16 12h596q13 0 11 -13l-176 -998q-2 -13 -16 -13h-24q-13 0 -11 13l169 962h-523l-187 -745q-66 -257 -224 -257h-12q-32 0 -70 16q-14 6 -11 23l6 22q2 8 9 4q36 -15 73 -15h8q118 0 169 208z" />
    <glyph glyph-name="uni043C" unicode="&#x43c;" horiz-adv-x="1277" 
d="M1228 1024h53q13 0 11 -13l-176 -998q-2 -13 -15 -13h-25q-13 0 -11 13l168 951h-1l-493 -622q-9 -12 -25 -12h-33q-13 0 -20 13l-273 621h-3l-168 -951q-2 -13 -15 -13h-25q-13 0 -11 13l176 998q2 13 16 13h48q14 0 20 -13l277 -634h4l504 639q6 8 17 8z" />
    <glyph glyph-name="uni043D" unicode="&#x43d;" horiz-adv-x="1095" 
d="M1075 1024h24q13 0 11 -13l-176 -998q-2 -13 -15 -13h-25q-13 0 -11 13l86 487h-666l-86 -487q-2 -13 -15 -13h-25q-13 0 -11 13l176 998q2 13 16 13h24q13 0 11 -13l-81 -462h665l82 462q2 13 16 13z" />
    <glyph glyph-name="uni043E" unicode="&#x43e;" horiz-adv-x="1153" 
d="M749 1051h22q91 0 163 -30t119 -89t63 -145.5t-3 -200.5l-27 -152q-39 -221 -176 -341t-325 -120h-23q-91 0 -162.5 30t-118.5 89t-63 145.5t3 200.5l26 152q39 221 176.5 341t325.5 120zM764 1001h-18q-167 0 -290.5 -109t-157.5 -304l-27 -156q-34 -196 49.5 -302.5
t249.5 -106.5h18q166 0 289.5 108.5t157.5 304.5l28 156q34 196 -49.5 302.5t-249.5 106.5z" />
    <glyph glyph-name="uni043F" unicode="&#x43f;" horiz-adv-x="1103" 
d="M358 1024h749q13 0 11 -13l-176 -998q-2 -13 -15 -13h-25q-13 0 -11 13l170 962h-674l-170 -962q-2 -13 -15 -13h-25q-13 0 -11 13l176 998q2 13 16 13z" />
    <glyph glyph-name="uni0440" unicode="&#x440;" horiz-adv-x="1124" 
d="M761 1051h8q189 0 271.5 -120t43.5 -345l-26 -152q-39 -225 -162.5 -343t-312.5 -118h-8q-88 0 -178 45.5t-150 134.5l-86 -482q-2 -13 -15 -13h-25q-13 0 -11 13l236 1340q2 13 16 13h24q13 0 11 -13l-25 -137q91 88 195.5 132.5t193.5 44.5zM762 1001h-4
q-192 0 -396 -200l-105 -581q131 -197 325 -197h4q168 0 277 106.5t144 306.5l27 156q35 201 -34.5 305t-237.5 104z" />
    <glyph glyph-name="uni0441" unicode="&#x441;" horiz-adv-x="1038" 
d="M767 1051h23q139 0 267 -86q9 -6 7 -19l-4 -25q-2 -11 -11 -5q-132 85 -267 85h-18q-168 0 -300 -110t-166 -303l-27 -156q-34 -193 57.5 -301t259.5 -108h18q133 0 297 87q5 3 9 -0.5t3 -8.5l-4 -26q-1 -12 -14 -19q-152 -83 -294 -83h-22q-91 0 -165 30.5t-124.5 88
t-70 146.5t-0.5 200l26 152q26 147 105 253t186 157t229 51z" />
    <glyph glyph-name="uni0442" unicode="&#x442;" horiz-adv-x="948" 
d="M255 1024h799q13 0 11 -13l-4 -23q-2 -13 -16 -13h-373l-170 -962q-2 -13 -16 -13h-24q-13 0 -11 13l169 962h-373q-13 0 -11 13l4 23q2 13 15 13z" />
    <glyph glyph-name="uni0443" unicode="&#x443;" horiz-adv-x="997" 
d="M1076 1024h31q11 0 6 -11l-638 -1125q-80 -140 -145.5 -198.5t-160.5 -58.5h-12q-49 0 -114 29q-14 7 -11 21l4 24q2 9 10 5q64 -29 118 -29h8q69 0 125 46t121 162l64 111h-6q-16 0 -19 15l-215 995q-2 5 1.5 9.5t9.5 4.5h27q13 0 16 -12l131 -611l77 -352h5l548 964
q6 11 19 11z" />
    <glyph glyph-name="uni0444" unicode="&#x444;" horiz-adv-x="1501" 
d="M1004 1509h25q13 0 11 -13l-79 -445h138q190 0 295 -123t67 -342l-27 -152q-26 -147 -105 -253t-186.5 -157t-230.5 -51h-141l-53 -302q-2 -13 -15 -13h-25q-13 0 -11 13l53 302h-137q-190 0 -295 123t-67 342l26 152q26 147 105 253t186.5 157t230.5 51h141l79 445
q2 13 15 13zM902 1001h-136q-109 0 -206 -46.5t-168 -141.5t-94 -225l-27 -156q-17 -100 -0.5 -176.5t61.5 -128.5t111 -78t147 -26h139zM953 1001l-173 -978h136q109 0 205.5 46.5t167.5 141.5t94 225l28 156q17 100 0.5 176.5t-61.5 128.5t-111 78t-147 26h-139z" />
    <glyph glyph-name="uni0445" unicode="&#x445;" horiz-adv-x="890" 
d="M950 1024h33q6 0 8 -5t-2 -9l-416 -482l260 -517q2 -4 0 -7.5t-7 -3.5h-38q-11 0 -16 10l-191 379l-47 92h-6l-78 -92l-328 -380q-7 -9 -19 -9h-33q-6 0 -8.5 5t1.5 9l441 514l-249 485q-2 4 0 7.5t6 3.5h38q11 0 16 -10l228 -441h5l79 93l303 349q8 9 20 9z" />
    <glyph glyph-name="uni0446" unicode="&#x446;" horiz-adv-x="1171" 
d="M1083 1024h24q13 0 11 -13l-169 -962h156q13 0 11 -13l-53 -301q-2 -14 -15 -14h-25q-13 0 -11 13l47 266h-882q-13 0 -11 13l176 998q2 13 16 13h24q13 0 11 -13l-169 -962h673l170 962q2 13 16 13z" />
    <glyph glyph-name="uni0447" unicode="&#x447;" horiz-adv-x="1069" 
d="M1052 1024h25q13 0 11 -13l-176 -998q-2 -13 -16 -13h-25q-13 0 -11 13l71 394q-86 -55 -185.5 -85.5t-186.5 -30.5h-8q-178 0 -241.5 98.5t-30.5 288.5l59 333q2 13 16 13h24q13 0 11 -13l-60 -339q-29 -165 22 -248.5t207 -83.5h4q186 0 378 132l96 539q2 13 16 13z
" />
    <glyph glyph-name="uni0448" unicode="&#x448;" horiz-adv-x="1660" 
d="M1640 1024h24q13 0 11 -13l-176 -998q-2 -13 -15 -13h-1307q-13 0 -11 13l176 998q2 13 16 13h24q13 0 11 -13l-169 -962h590l169 962q2 13 16 13h24q13 0 11 -13l-169 -962h590l169 962q2 13 16 13z" />
    <glyph glyph-name="uni0449" unicode="&#x449;" horiz-adv-x="1728" 
d="M1640 1024h24q13 0 11 -13l-169 -962h157q12 0 10 -13l-53 -301q-2 -14 -15 -14h-25q-13 0 -11 13l47 266h-1439q-13 0 -11 13l176 998q2 13 16 13h24q13 0 11 -13l-169 -962h590l169 962q2 13 16 13h24q13 0 11 -13l-169 -962h590l169 962q2 13 16 13z" />
    <glyph glyph-name="uni044A" unicode="&#x44a;" horiz-adv-x="1081" 
d="M255 1024h240q13 0 11 -13l-70 -399h319q173 0 244.5 -77t47.5 -209l-4 -21q-24 -135 -122.5 -220t-269.5 -85h-361q-13 0 -11 13l169 962h-201q-13 0 -11 13l4 23q2 13 15 13zM427 563l-91 -514h318q149 0 234 74t104 184l4 25q19 107 -39 169t-209 62h-321z" />
    <glyph glyph-name="uni044B" unicode="&#x44b;" horiz-adv-x="1286" 
d="M358 1024h24q13 0 11 -13l-70 -399h320q173 0 244 -77t47 -209l-4 -21q-24 -135 -122.5 -220t-269.5 -85h-361q-13 0 -11 13l176 998q2 13 16 13zM1266 1024h24q13 0 11 -13l-176 -998q-2 -13 -15 -13h-25q-13 0 -11 13l176 998q2 13 16 13zM314 563l-90 -514h317
q149 0 234 74t104 184l5 25q19 107 -39 169t-209 62h-322z" />
    <glyph glyph-name="uni044C" unicode="&#x44c;" horiz-adv-x="968" 
d="M358 1024h24q13 0 11 -13l-70 -399h320q173 0 244 -77t47 -209l-4 -21q-24 -135 -122.5 -220t-269.5 -85h-361q-13 0 -11 13l176 998q2 13 16 13zM314 563l-90 -514h317q149 0 234 74t104 184l5 25q19 107 -39 169t-209 62h-322z" />
    <glyph glyph-name="uni044D" unicode="&#x44d;" horiz-adv-x="1038" 
d="M616 1051h22q91 0 165 -30.5t124.5 -88t70 -146.5t0.5 -200l-26 -152q-26 -147 -105 -253t-186 -157t-229 -51h-23q-139 0 -267 86q-10 7 -8 19l5 25q2 11 11 5q132 -85 266 -85h19q168 0 300 110t166 303l11 64h-546q-13 0 -11 13l4 23q2 13 16 13h546l7 43
q34 193 -57.5 301t-259.5 108h-19q-132 0 -296 -87q-5 -3 -9 0.5t-3 8.5l5 30q2 9 9 13q155 85 298 85z" />
    <glyph glyph-name="uni044E" unicode="&#x44e;" horiz-adv-x="1486" 
d="M1083 1051h22q91 0 163 -30t119 -89t63 -145.5t-3 -200.5l-27 -152q-39 -221 -176 -341t-325 -120h-23q-91 0 -163 30t-119 89t-63 145.5t3 200.5l11 62h-262l-86 -487q-2 -13 -15 -13h-25q-13 0 -11 13l176 998q2 13 16 13h24q13 0 11 -13l-81 -462h262l7 41
q39 221 176.5 341t325.5 120zM1369 436l28 156q34 196 -49.5 302.5t-249.5 106.5h-19q-166 0 -289.5 -108.5t-157.5 -304.5l-27 -156q-34 -196 49 -302.5t249 -106.5h19q166 0 289.5 108.5t157.5 304.5z" />
    <glyph glyph-name="uni044F" unicode="&#x44f;" horiz-adv-x="1017" 
d="M654 1024h367q13 0 11 -13l-176 -998q-2 -13 -16 -13h-24q-13 0 -11 13l73 415h-341l-388 -421q-7 -7 -15 -7h-36q-6 0 -8 5t2 9l316 344l71 75q-130 18 -183.5 97t-33.5 191l3 20q24 132 120 207.5t269 75.5zM974 975h-324q-152 0 -233.5 -64t-100.5 -171l-4 -25
q-11 -46 -0.5 -89t36 -76t80 -53t131.5 -20h328z" />
    <glyph glyph-name="uni0451" unicode="&#x451;" horiz-adv-x="1093" 
d="M616 1333h66q13 0 11 -13l-14 -78q-2 -13 -15 -13h-66q-13 0 -11 13l14 78q2 13 15 13zM891 1333h65q13 0 11 -13l-13 -78q-2 -13 -16 -13h-66q-13 0 -11 13l14 78q2 13 16 13zM736 1051h23q186 0 262.5 -119t36.5 -346l-9 -47q-3 -17 -19 -17h-743l-23 -129
q-30 -171 61.5 -270.5t262.5 -99.5h8q148 0 332 87q5 2 9 -1t3 -8l-5 -26q-3 -13 -14 -19q-77 -37 -167 -60t-161 -23h-12q-193 0 -297 115t-70 311l29 168q39 224 175 354t318 130zM752 1001h-19q-160 0 -281 -117t-157 -314l709 3q39 219 -24.5 323.5t-227.5 104.5z" />
    <glyph glyph-name="uni0454" unicode="&#x454;" horiz-adv-x="1038" 
d="M1057 965q9 -6 7 -19l-4 -25q-2 -11 -11 -5q-132 85 -267 85h-18q-168 0 -300 -110t-166 -303l-7 -39h546q13 0 11 -13l-4 -23q-2 -13 -16 -13h-545l-12 -68q-34 -193 57.5 -301t259.5 -108h18q133 0 297 87q5 3 9 -0.5t3 -8.5l-5 -31q-2 -8 -9 -12q-155 -85 -298 -85
h-22q-91 0 -165 30.5t-124.5 88t-70 146.5t-0.5 200l26 152q26 147 105 253t186 157t229 51h23q139 0 267 -86z" />
    <glyph glyph-name="uni0456" unicode="&#x456;" horiz-adv-x="411" 
d="M416 1333h54q13 0 11 -13l-14 -78q-2 -13 -16 -13h-53q-13 0 -11 13l14 78q2 13 15 13zM376 1024h25q13 0 11 -13l-176 -998q-2 -13 -16 -13h-25q-12 0 -10 13l176 998q2 13 15 13z" />
    <glyph glyph-name="uni0457" unicode="&#x457;" horiz-adv-x="382" 
d="M258 1333h66q13 0 11 -13l-14 -78q-2 -13 -16 -13h-66q-12 0 -10 13l13 78q2 13 16 13zM532 1333h66q13 0 11 -13l-14 -78q-2 -13 -15 -13h-66q-13 0 -11 13l14 78q2 13 15 13zM362 1024h24q13 0 11 -13l-176 -998q-2 -13 -15 -13h-25q-13 0 -11 13l176 998q2 13 16 13z
" />
    <glyph glyph-name="uni045E" unicode="&#x45e;" horiz-adv-x="997" 
d="M987 1348q5 3 9.5 0t3.5 -9l-6 -31q-2 -11 -11 -17q-127 -83 -268 -83q-138 0 -240 84q-12 10 -9 25l4 25q2 12 12 4q53 -41 107 -64.5t128 -23.5q75 0 137.5 24t132.5 66zM1076 1024h31q11 0 6 -11l-638 -1125q-80 -140 -145.5 -198.5t-160.5 -58.5h-12q-49 0 -114 29
q-14 7 -11 21l4 24q2 9 10 5q64 -29 118 -29h8q69 0 125 46t121 162l64 111h-6q-16 0 -19 15l-215 995q-2 5 1.5 9.5t9.5 4.5h27q13 0 16 -12l131 -611l77 -352h5l548 964q6 11 19 11z" />
    <glyph glyph-name="uni0490" unicode="&#x490;" horiz-adv-x="1093" 
d="M1247 1579h30q13 0 11 -13l-30 -168q-2 -14 -15 -14h-743l-242 -1371q-2 -13 -15 -13h-25q-13 0 -11 13l248 1407q2 14 16 14h742l25 137q2 8 9 8z" />
    <glyph glyph-name="uni0491" unicode="&#x491;" horiz-adv-x="837" 
d="M940 1170h29q13 0 11 -13l-30 -169q-2 -13 -15 -13h-548l-170 -962q-2 -13 -15 -13h-25q-13 0 -11 13l176 998q2 13 16 13h548l24 137q2 9 10 9z" />
    <glyph glyph-name="Wgrave" unicode="&#x1e80;" horiz-adv-x="1966" 
d="M1143 1962h34q16 0 19 -14l90 -332q2 -8 -6 -8h-22q-13 0 -18 13l-104 332q-1 4 1 6.5t6 2.5zM2099 1434h28q5 0 7 -3.5t0 -7.5l-668 -1412q-5 -11 -17 -11h-48q-14 0 -16 14l-66 555l-93 789h-6l-370 -789l-265 -558q-5 -11 -17 -11h-48q-14 0 -16 14l-170 1407
q-2 13 11 13h26q14 0 16 -15l66 -557l96 -803h6l645 1366q5 9 13 9h39q14 0 16 -15l66 -557l97 -803h5l643 1362q7 13 20 13z" />
    <glyph glyph-name="wgrave" unicode="&#x1e81;" horiz-adv-x="1492" 
d="M831 1552h34q16 0 19 -14l90 -331q2 -9 -6 -9h-21q-14 0 -19 14l-104 331q-1 4 1 6.5t6 2.5zM1574 1024h29q4 0 6 -3.5t0 -7.5l-483 -1003q-4 -10 -17 -10h-52q-14 0 -16 14l-39 305l-83 646h-6l-308 -646l-149 -309q-4 -10 -17 -10h-52q-14 0 -16 14l-129 998
q-2 12 10 12h26q14 0 16 -14l58 -443l68 -514h3l248 514l214 447q4 10 17 10h46q14 0 16 -14l57 -443l68 -514h4l246 514l215 445q6 12 20 12z" />
    <glyph glyph-name="Wacute" unicode="&#x1e82;" horiz-adv-x="1966" 
d="M1474 1962h36q5 0 7.5 -4t-0.5 -8l-223 -334q-5 -8 -15 -8h-23q-5 0 -7 4t1 8l209 334q5 8 15 8zM2099 1434h28q5 0 7 -3.5t0 -7.5l-668 -1412q-5 -11 -17 -11h-48q-14 0 -16 14l-66 555l-93 789h-6l-370 -789l-265 -558q-5 -11 -17 -11h-48q-14 0 -16 14l-170 1407
q-2 13 11 13h26q14 0 16 -15l66 -557l96 -803h6l645 1366q5 9 13 9h39q14 0 16 -15l66 -557l97 -803h5l643 1362q7 13 20 13z" />
    <glyph glyph-name="wacute" unicode="&#x1e83;" horiz-adv-x="1492" 
d="M1166 1552h36q5 0 7.5 -4t-0.5 -8l-223 -334q-5 -8 -15 -8h-23q-5 0 -7 4t1 8l209 334q5 8 15 8zM1574 1024h29q4 0 6 -3.5t0 -7.5l-483 -1003q-4 -10 -17 -10h-52q-14 0 -16 14l-39 305l-83 646h-6l-308 -646l-149 -309q-4 -10 -17 -10h-52q-14 0 -16 14l-129 998
q-2 12 10 12h26q14 0 16 -14l58 -443l68 -514h3l248 514l214 447q4 10 17 10h46q14 0 16 -14l57 -443l68 -514h4l246 514l215 445q6 12 20 12z" />
    <glyph glyph-name="Wdieresis" unicode="&#x1e84;" horiz-adv-x="1966" 
d="M1119 1743h65q13 0 11 -13l-14 -78q-2 -14 -15 -14h-66q-13 0 -11 13l14 79q2 13 16 13zM1393 1743h66q13 0 11 -13l-14 -78q-2 -14 -16 -14h-65q-13 0 -11 13l13 79q2 13 16 13zM2099 1434h28q5 0 7 -3.5t0 -7.5l-668 -1412q-5 -11 -17 -11h-48q-14 0 -16 14l-66 555
l-93 789h-6l-370 -789l-265 -558q-5 -11 -17 -11h-48q-14 0 -16 14l-170 1407q-2 13 11 13h26q14 0 16 -15l66 -557l96 -803h6l645 1366q4 9 13 9h39q14 0 16 -15l66 -557l97 -803h5l643 1362q7 13 20 13z" />
    <glyph glyph-name="wdieresis" unicode="&#x1e85;" horiz-adv-x="1492" 
d="M811 1333h65q13 0 11 -13l-14 -78q-2 -13 -15 -13h-66q-13 0 -11 13l14 78q2 13 16 13zM1085 1333h66q13 0 11 -13l-14 -78q-2 -13 -16 -13h-66q-12 0 -10 13l13 78q2 13 16 13zM1574 1024h29q4 0 6 -3.5t0 -7.5l-483 -1003q-4 -10 -17 -10h-52q-14 0 -16 14l-39 305
l-83 646h-6l-308 -646l-149 -309q-4 -10 -17 -10h-52q-14 0 -16 14l-129 998q-2 12 10 12h26q14 0 16 -14l58 -443l68 -514h3l248 514l214 447q4 10 17 10h46q14 0 16 -14l57 -443l68 -514h4l246 514l215 445q6 12 20 12z" />
    <glyph glyph-name="Ygrave" unicode="&#x1ef2;" horiz-adv-x="1255" 
d="M792 1962h35q15 0 18 -14l91 -332q2 -8 -7 -8h-21q-13 0 -18 13l-105 332q-1 4 1 6.5t6 2.5zM1380 1434h35q5 0 7.5 -4t-0.5 -9l-682 -925l-86 -483q-2 -13 -15 -13h-23q-13 0 -11 13l86 483l-354 921q-2 6 1 11.5t10 5.5h31q11 0 14 -10l235 -613l96 -248h4l635 862
q6 9 17 9z" />
    <glyph glyph-name="ygrave" unicode="&#x1ef3;" horiz-adv-x="997" 
d="M597 1552h34q16 0 19 -14l90 -331q2 -9 -6 -9h-22q-13 0 -18 14l-104 331q-1 4 1 6.5t6 2.5zM1076 1024h31q11 0 6 -11l-638 -1125q-80 -140 -145.5 -198.5t-160.5 -58.5h-12q-49 0 -114 29q-14 7 -11 21l4 24q2 9 10 5q64 -29 118 -29h8q69 0 125 46t121 162l64 111h-6
q-16 0 -19 15l-215 995q-2 5 1.5 9.5t9.5 4.5h27q13 0 16 -12l131 -611l77 -352h5l548 964q6 11 19 11z" />
    <glyph glyph-name="uni2009" unicode="&#x2009;" horiz-adv-x="1228" 
 />
    <glyph glyph-name="endash" unicode="&#x2013;" horiz-adv-x="1114" 
d="M216 686h924q13 0 11 -13l-4 -23q-2 -13 -16 -13h-924q-12 0 -10 13l4 23q2 13 15 13z" />
    <glyph glyph-name="emdash" unicode="&#x2014;" horiz-adv-x="1265" 
d="M216 686h1076q12 0 10 -13l-4 -23q-2 -13 -15 -13h-1076q-12 0 -10 13l4 23q2 13 15 13z" />
    <glyph glyph-name="quoteleft" unicode="&#x2018;" horiz-adv-x="278" 
d="M410 1434h26q7 0 10 -5t1 -11l-117 -326h27q13 0 11 -13l-13 -79q-2 -13 -16 -13h-70q-13 0 -11 13l12 71q2 10 4 15l122 338q3 10 14 10z" />
    <glyph glyph-name="quoteright" unicode="&#x2019;" horiz-adv-x="278" 
d="M367 1434h69q13 0 11 -13l-11 -68l-6 -21l-120 -335q-3 -10 -15 -10h-32q-4 0 -6 3t-1 7l120 332h-28q-13 0 -11 13l14 78q2 14 16 14z" />
    <glyph glyph-name="quotesinglbase" unicode="&#x201a;" horiz-adv-x="278" 
d="M132 104h70q13 0 11 -13l-12 -67q-1 -7 -5 -21l-121 -335q-3 -10 -14 -10h-33q-4 0 -6 2.5t-1 6.5l120 333h-27q-13 0 -11 13l14 78q2 13 15 13z" />
    <glyph glyph-name="quotedblleft" unicode="&#x201c;" horiz-adv-x="548" 
d="M410 1434h26q7 0 10 -5t1 -11l-117 -326h27q13 0 11 -13l-13 -79q-2 -13 -16 -13h-70q-13 0 -11 13l12 71q2 10 4 15l122 338q3 10 14 10zM680 1434h27q7 0 10 -5t1 -11l-118 -326h28q13 0 11 -13l-14 -79q-2 -13 -16 -13h-70q-12 0 -10 13l12 71q2 10 4 15l121 338
q3 10 14 10z" />
    <glyph glyph-name="quotedblright" unicode="&#x201d;" horiz-adv-x="548" 
d="M637 1434h70q13 0 11 -13l-12 -68q0 -3 -1 -6.5t-2.5 -8t-2.5 -6.5l-120 -335q-3 -10 -14 -10h-33q-4 0 -6 3t-1 7l120 332h-28q-13 0 -11 13l14 78q2 14 16 14zM367 1434h69q13 0 11 -13l-11 -68l-6 -21l-120 -335q-3 -10 -15 -10h-32q-4 0 -6 3t-1 7l120 332h-28
q-13 0 -11 13l14 78q2 14 16 14z" />
    <glyph glyph-name="quotedblbase" unicode="&#x201e;" horiz-adv-x="548" 
d="M403 104h69q13 0 11 -13l-12 -67q-1 -7 -5 -21l-120 -335q-3 -10 -15 -10h-33q-10 0 -6 9l119 333h-27q-13 0 -11 13l14 78q2 13 16 13zM132 104h70q13 0 11 -13l-12 -67q-1 -7 -5 -21l-121 -335q-3 -10 -14 -10h-33q-4 0 -6 2.5t-1 6.5l120 333h-27q-13 0 -11 13l14 78
q2 13 15 13z" />
    <glyph glyph-name="dagger" unicode="&#x2020;" horiz-adv-x="952" 
d="M717 1434h24q13 0 11 -13l-70 -397h356q13 0 11 -13l-4 -23q-2 -13 -16 -13h-355l-197 -1113q-2 -14 -15 -14h-25q-13 0 -11 13l196 1114h-355q-13 0 -11 13l4 23q2 13 16 13h355l70 396q2 14 16 14z" />
    <glyph glyph-name="daggerdbl" unicode="&#x2021;" horiz-adv-x="952" 
d="M717 1434h24q13 0 11 -13l-70 -397h356q13 0 11 -13l-4 -23q-2 -13 -16 -13h-355l-111 -627h356q13 0 11 -13l-5 -23q-2 -13 -15 -13h-356l-77 -437q-2 -14 -15 -14h-25q-13 0 -11 13l77 438h-355q-13 0 -11 13l4 23q2 13 16 13h355l110 627h-355q-13 0 -11 13l4 23
q2 13 16 13h355l70 396q2 14 16 14z" />
    <glyph glyph-name="bullet" unicode="&#x2022;" horiz-adv-x="348" 
d="M290 678q40 0 63 -28t16 -68q-7 -37 -37 -62.5t-67 -25.5q-40 0 -63 27.5t-16 67.5q7 37 37 63t67 26z" />
    <glyph glyph-name="ellipsis" unicode="&#x2026;" horiz-adv-x="1222" 
d="M114 104h65q13 0 11 -13l-14 -78q-2 -13 -15 -13h-66q-13 0 -11 13l14 78q2 13 16 13zM597 104h66q13 0 11 -13l-14 -78q-2 -13 -16 -13h-66q-12 0 -10 13l13 78q2 13 16 13zM1080 104h66q13 0 11 -13l-14 -78q-2 -13 -16 -13h-65q-13 0 -11 13l14 78q2 13 15 13z" />
    <glyph glyph-name="perthousand" unicode="&#x2030;" horiz-adv-x="2779" 
d="M669 1460h23q156 0 226.5 -106t39.5 -279l-11 -59q-31 -173 -136 -277t-261 -104h-23q-156 0 -226 106t-39 279l10 59q31 173 136 277t261 104zM1551 1434h30q5 0 7 -4t-1 -9l-918 -1409q-7 -12 -22 -12h-29q-5 0 -7.5 4t0.5 8l918 1409q8 13 22 13zM685 1411h-19
q-135 0 -226 -92.5t-117 -241.5l-11 -63q-26 -149 31 -239.5t192 -90.5h18q135 0 226 92.5t117 241.5l11 63q26 149 -31 239.5t-191 90.5zM1649 799h22q156 0 226.5 -106t39.5 -279l-11 -59q-31 -173 -136 -277.5t-261 -104.5h-23q-156 0 -226 106t-39 279l10 60
q31 173 136.5 277t261.5 104zM2482 799h23q156 0 226 -106t39 -279l-10 -59q-31 -173 -136.5 -277.5t-261.5 -104.5h-22q-156 0 -226.5 106t-39.5 279l11 60q31 173 136 277t261 104zM1664 750h-19q-135 0 -226 -92.5t-117 -241.5l-11 -63q-26 -149 31 -239.5t192 -90.5h18
q135 0 226 92t117 241l11 64q26 149 -31 239.5t-191 90.5zM2497 750h-18q-135 0 -226 -92.5t-117 -241.5l-12 -63q-26 -149 31 -239.5t192 -90.5h19q135 0 226 92t117 241l11 64q26 149 -31 239.5t-192 90.5z" />
    <glyph glyph-name="guilsinglleft" unicode="&#x2039;" horiz-adv-x="477" 
d="M501 838h31q7 0 9 -6t-3 -10l-311 -304l204 -307q3 -5 1 -8.5t-7 -3.5h-33q-10 0 -14 7l-201 291q-6 7 -4 17l1 9q2 10 7 15l308 295q5 5 12 5z" />
    <glyph glyph-name="guilsinglright" unicode="&#x203a;" horiz-adv-x="477" 
d="M236 838h32q10 0 15 -8l201 -290q6 -7 4 -18l-1 -8q-1 -8 -8 -15l-308 -296q-4 -4 -11 -4h-31q-7 0 -9 5.5t3 9.5l311 304l-205 307q-3 5 -0.5 9t7.5 4z" />
    <glyph glyph-name="fraction" unicode="&#x2044;" horiz-adv-x="262" 
d="M737 1434h30q5 0 7 -4t-1 -9l-918 -1409q-7 -12 -22 -12h-30q-5 0 -7 4t1 8l918 1409q8 13 22 13z" />
    <glyph glyph-name="Euro" unicode="&#x20ac;" horiz-adv-x="1372" 
d="M1497 1365q10 -6 8 -19l-4 -26q-2 -10 -11 -5q-158 96 -332 96h-17q-132 0 -253.5 -56.5t-220 -178t-140.5 -291.5h609q13 0 11 -13l-4 -23q-2 -13 -16 -13h-611q0 -2 -1 -7t-1 -7l-38 -214q0 -2 -1 -5t-1 -5h612q12 0 10 -13l-4 -23q-2 -13 -15 -13h-610
q-11 -104 5 -191t54 -148.5t94.5 -104t125.5 -63t147 -20.5h16q171 0 367 98q5 2 9 -1t3 -8l-5 -26q-2 -13 -14 -19q-186 -93 -363 -93h-20q-109 0 -201 37t-158.5 107.5t-97 181.5t-13.5 250h-224q-13 0 -11 13l4 23q2 13 16 13l222 1l42 237h-223q-12 0 -10 13l4 23
q2 13 15 13h224q32 139 101 250.5t159.5 181t195.5 106.5t214 37h20q178 0 332 -95z" />
    <glyph glyph-name="uni2116" unicode="&#x2116;" horiz-adv-x="2125" 
d="M1945 1460h23q156 0 226.5 -106t39.5 -279l-11 -59q-31 -173 -136 -277t-261 -104h-23q-156 0 -226 106t-39 279l10 59q31 173 136 277t261 104zM1412 1434h30q13 0 11 -13l-249 -1408q-2 -13 -15 -13h-39q-12 0 -16 10l-372 774l-275 570h-3l-237 -1346q-2 -8 -10 -8
h-29q-13 0 -11 13l248 1407q2 14 16 14h38q12 0 17 -11l646 -1343h3l237 1345q2 9 10 9zM1961 1411h-19q-135 0 -226 -92.5t-117 -241.5l-11 -63q-26 -149 31 -239.5t192 -90.5h18q135 0 226 92.5t117 241.5l11 63q26 149 -31 239.5t-191 90.5zM1480 500h618q13 0 11 -13
l-4 -23q-2 -13 -15 -13h-619q-13 0 -11 13l4 23q2 13 16 13z" />
    <glyph glyph-name="trademark" unicode="&#x2122;" horiz-adv-x="1626" 
d="M362 1516h588q13 0 11 -13l-4 -24q-2 -13 -15 -13h-268l-130 -736q-2 -13 -15 -13h-25q-13 0 -11 13l130 736h-269q-13 0 -11 13l4 23q2 14 15 14zM1741 1516h57q13 0 11 -13l-136 -773q-2 -13 -16 -13h-24q-13 0 -11 13l129 732h-2l-368 -462q-5 -7 -14 -7h-14
q-12 0 -17 11l-102 233l-101 225h-3l-129 -732q-2 -13 -15 -13h-25q-13 0 -11 13l136 772q2 14 16 14h50q17 0 25 -17l189 -438h6l349 444q8 11 20 11z" />
    <glyph glyph-name="estimated" unicode="&#x212e;" horiz-adv-x="1548" 
d="M774 1366q199 0 358.5 -94t246.5 -252.5t87 -349.5h-1185v-424q90 -105 216.5 -164t276.5 -59q128 0 244 35.5t201 99.5q6 5 12 2t6 -10v-25q0 -14 -12 -23q-88 -62 -206 -95.5t-245 -33.5q-199 0 -358.5 94.5t-246.5 253t-87 349.5t87 349.5t246.5 252.5t358.5 94z
M774 1317q-150 0 -276.5 -57.5t-216.5 -161.5v-379h987v379q-90 104 -216.5 161.5t-277.5 57.5z" />
    <glyph glyph-name="oneeighth" unicode="&#x215b;" horiz-adv-x="1576" 
d="M550 1434h21q13 0 11 -13l-125 -710h165q13 0 11 -13l-4 -23q-2 -13 -16 -13h-401q-13 0 -11 13l4 23q2 13 16 13h185l117 665l-200 -79q-4 -1 -8 1.5t-3 7.5l5 29q2 11 11 14l204 81q12 4 18 4zM1329 1434h30q5 0 7 -4t-1 -9l-918 -1409q-7 -12 -22 -12h-30q-5 0 -7 4
t1 8l918 1409q8 13 22 13zM1350 799h10q105 0 171.5 -58t49.5 -151l-3 -16q-10 -58 -50.5 -102.5t-100.5 -71.5q57 -25 87 -77.5t18 -117.5l-4 -22q-16 -92 -102.5 -151t-199.5 -59h-26q-113 0 -180 60.5t-51 152.5l4 23q12 65 59.5 116t115.5 77q-49 25 -75 71t-16 104
l3 17q17 93 101 149t189 56zM1353 750h-6q-85 0 -155 -46.5t-84 -125.5l-1 -4q-6 -33 7 -66.5t55 -59.5t106 -26h27q94 0 155 50t71 105l1 4q14 79 -38.5 124t-137.5 45zM1313 373h-59q-97 0 -158.5 -55t-71.5 -113l-2 -10q-14 -78 40 -125t151 -47h11q97 0 169 48.5
t86 126.5l2 11q4 25 -2 52.5t-23.5 53t-54.5 42t-88 16.5z" />
    <glyph glyph-name="threeeighths" unicode="&#x215c;" horiz-adv-x="1665" 
d="M573 1460h10q104 0 169 -58t48 -151l-3 -17q-20 -116 -146 -173q56 -24 84.5 -73t16.5 -116l-4 -23q-16 -93 -104.5 -154t-204.5 -61h-16q-97 0 -202 57q-14 8 -11 24l4 23q2 10 10 5q109 -60 206 -60h12q96 0 170 51.5t88 130.5l1 11q5 27 -0.5 53.5t-22.5 50.5t-53 39
t-87 15h-133q-13 0 -11 13l4 23q2 13 15 13h114q93 0 151.5 50t68.5 105l1 4q14 79 -37 123.5t-135 44.5h-6q-90 0 -223 -61q-5 -2 -9 1t-3 8l5 29q2 11 12 16q122 57 221 57zM1417 1434h30q5 0 7 -4t-1 -9l-918 -1409q-7 -12 -22 -12h-30q-5 0 -7 4t1 8l918 1409
q8 13 22 13zM1438 799h10q105 0 171.5 -58t49.5 -151l-3 -16q-10 -58 -50.5 -102.5t-100.5 -71.5q57 -25 87 -77t18 -118l-4 -23q-16 -92 -102 -150.5t-199 -58.5h-27q-113 0 -180 60.5t-51 152.5l4 23q12 65 59.5 116t115.5 77q-49 25 -75 71t-16 104l3 17q17 93 101 149
t189 56zM1441 750h-6q-85 0 -155 -46.5t-84 -125.5l-1 -4q-10 -54 32.5 -103t136.5 -49h26q94 0 155 50t71 105l1 4q14 79 -38.5 124t-137.5 45zM1401 373h-59q-97 0 -158.5 -55t-71.5 -113l-2 -10q-14 -78 40 -125.5t151 -47.5h11q97 0 169.5 49t86.5 127l1 11
q4 25 -2 52.5t-23.5 53t-54.5 42t-88 16.5z" />
    <glyph glyph-name="fiveeighths" unicode="&#x215d;" horiz-adv-x="1673" 
d="M381 1434h409q13 0 11 -13l-4 -23q-2 -14 -15 -14h-372l-55 -302q138 38 202 38q105 0 165.5 -58.5t40.5 -172.5l-4 -22q-17 -98 -103.5 -165t-205.5 -67h-17q-109 0 -215 58q-11 6 -9 20l5 26q2 10 10 5q111 -60 216 -60h13q100 0 171 55.5t86 138.5l2 11
q14 80 -22.5 131t-134.5 51q-67 0 -210 -41q-9 -3 -21 4l-14 8q-10 6 -8 19l63 359q2 14 16 14zM1425 1434h30q5 0 7 -4t-1 -9l-918 -1409q-7 -12 -22 -12h-30q-5 0 -7 4t1 8l918 1409q8 13 22 13zM1446 799h11q105 0 171.5 -58t49.5 -151l-3 -16q-10 -58 -51 -102.5
t-101 -71.5q57 -25 87 -77t18 -118l-4 -22q-16 -92 -102 -151t-199 -59h-27q-113 0 -179.5 60.5t-50.5 152.5l4 23q12 66 59 116.5t115 76.5q-49 25 -75 71t-16 104l3 17q17 93 101 149t189 56zM1449 750h-6q-85 0 -155 -46.5t-84 -125.5v-4q-6 -33 7 -66.5t55 -59.5
t106 -26h26q94 0 155 50t71 105l1 4q14 79 -38.5 124t-137.5 45zM1410 373h-60q-97 0 -158.5 -55t-71.5 -113l-2 -10q-14 -78 40.5 -125t151.5 -47h10q97 0 169.5 48.5t86.5 126.5l2 11q4 25 -2 52.5t-23.5 53t-54.5 42t-88 16.5z" />
    <glyph glyph-name="seveneighths" unicode="&#x215e;" horiz-adv-x="1474" 
d="M1226 1434h29q5 0 7.5 -4t-0.5 -9l-918 -1409q-8 -12 -23 -12h-29q-5 0 -7.5 4t0.5 8l918 1409q8 13 23 13zM348 1434h498q13 0 11 -13l-3 -16q-2 -12 -8 -18l-351 -363q-10 -10 -13 -26l-58 -323q-2 -13 -15 -13h-25q-13 0 -11 12l59 339q3 15 13 25l335 346h-441
q-13 0 -11 13l4 23q2 14 16 14zM1247 799h10q105 0 171.5 -58t49.5 -151l-3 -16q-10 -58 -51 -102.5t-101 -71.5q57 -25 87 -77t18 -118l-4 -22q-16 -92 -102 -151t-199 -59h-27q-113 0 -179.5 60.5t-50.5 152.5l4 23q12 66 59 116.5t115 76.5q-49 25 -75 71t-16 104l3 17
q17 93 101.5 149t189.5 56zM1250 750h-6q-85 0 -155 -46.5t-84 -125.5l-1 -4q-6 -33 7 -66.5t55 -59.5t106 -26h27q93 0 154 50t71 105l1 4q14 79 -38 124t-137 45zM1210 373h-60q-97 0 -158 -55t-71 -113l-2 -10q-14 -78 40 -125t151 -47h10q97 0 169.5 48.5t86.5 126.5
l2 11q4 25 -2 52.5t-23.5 53t-54.5 42t-88 16.5z" />
    <glyph glyph-name="arrowleft" unicode="&#x2190;" horiz-adv-x="1331" 
d="M211 689l316 142q5 2 8.5 -0.5t2.5 -7.5l-2 -16q-1 -13 -15 -20l-194 -99h1030q13 0 11 -13l-4 -23q-2 -13 -15 -13h-1031l153 -95q16 -10 13 -29l-3 -16q-2 -8 -10 -5l-264 142q-11 6 -9 19l3 21q1 9 10 13z" />
    <glyph glyph-name="arrowup" unicode="&#x2191;" horiz-adv-x="499" 
d="M448 1167h15q13 0 18 -13l90 -289q2 -9 -6 -9h-21q-12 0 -17 12l-68 176l-182 -1031q-2 -13 -16 -13h-22q-13 0 -11 13l182 1031l-133 -181q-4 -7 -14 -7h-22q-5 0 -7 4t1 8l191 287q8 12 22 12z" />
    <glyph glyph-name="arrowright" unicode="&#x2192;" horiz-adv-x="1331" 
d="M1080 804l3 22q2 9 11 5l263 -142q12 -7 10 -19l-3 -21q-1 -9 -10 -13l-316 -142q-5 -2 -8.5 0.5t-2.5 7.5l3 21q1 8 9 13l199 101h-1031q-12 0 -10 13l4 23q2 13 15 13h1031l-159 99q-10 6 -8 19z" />
    <glyph glyph-name="arrowdown" unicode="&#x2193;" horiz-adv-x="499" 
d="M440 1141h22q13 0 11 -13l-182 -1031l130 177q8 11 22 11h17q5 0 7 -4.5t-1 -8.5l-191 -287q-7 -12 -22 -12h-15q-13 0 -18 14l-90 289q-4 9 6 9h14q20 0 27 -18l65 -170l182 1031q2 13 16 13z" />
    <glyph glyph-name="uni2194" unicode="&#x2194;" horiz-adv-x="1519" 
d="M1282 833l264 -142q12 -7 10 -19l-4 -21q-1 -9 -10 -13l-316 -143q-4 -2 -8 1t-3 8l3 21q1 8 10 13l198 101h-1108l153 -95q16 -10 13 -29l-3 -16q-2 -8 -10 -5l-264 142q-11 6 -9 19l3 21q1 9 10 13l316 142q5 2 8.5 -0.5t2.5 -7.5l-2 -16q-1 -13 -15 -20l-194 -99h1108
l-158 99q-11 6 -9 18l4 22q2 9 10 6z" />
    <glyph glyph-name="arrowupdn" unicode="&#x2195;" horiz-adv-x="497" 
d="M509 1315l90 -289q1 -4 -1 -6.5t-6 -2.5h-20q-13 0 -18 12l-67 175l-197 -1108l130 177q8 11 22 11h17q5 0 7.5 -4t-0.5 -8l-192 -288q-7 -11 -22 -11h-15q-13 0 -18 13l-90 289q-4 9 6 9h14q20 0 27 -18l65 -170l197 1108l-133 -180q-4 -7 -15 -7h-21q-5 0 -7.5 3.5
t0.5 8.5l191 287q7 12 22 12h15q14 0 19 -13z" />
    <glyph glyph-name="uni2196" unicode="&#x2196;" horiz-adv-x="1015" 
d="M232 827l19 17q8 6 18 3l287 -104q5 -2 6 -6t-3 -7l-16 -13q-11 -10 -25 -5l-184 54l602 -730q6 -8 -1 -15l-24 -21q-9 -7 -15 1l-602 730l20 -193q2 -14 -9 -23l-15 -13q-10 -8 -12 4l-52 305q-2 10 6 16z" />
    <glyph glyph-name="uni2197" unicode="&#x2197;" horiz-adv-x="1015" 
d="M720 742l324 105q13 4 20 -5l10 -12q8 -10 2 -21l-158 -307q-5 -8 -12 -1l-8 9q-12 14 -4 30l87 191l-859 -731q-9 -7 -15 1l-16 19q-7 9 1 15l860 731l-199 -54q-17 -5 -28 9l-8 9q-8 8 3 12z" />
    <glyph glyph-name="uni2198" unicode="&#x2198;" horiz-adv-x="1015" 
d="M227 800l24 21q9 7 15 -1l602 -730l-20 194q-1 13 9 22l15 13q10 8 12 -4l51 -299q3 -15 -9 -25l-11 -10q-11 -10 -27 -5l-282 102q-5 2 -6 6t3 7l16 13q12 10 25 6l184 -54l-602 730q-6 7 1 14z" />
    <glyph glyph-name="uni2199" unicode="&#x2199;" horiz-adv-x="1015" 
d="M181 90l859 732q8 6 14 -2l17 -19q6 -8 -1 -14l-860 -731l199 53q17 5 28 -9l8 -9q8 -8 -3 -12l-325 -105q-12 -3 -20 6l-9 11q-9 11 -3 21l159 307q5 8 12 1l8 -9q12 -14 4 -30z" />
    <glyph glyph-name="partialdiff" unicode="&#x2202;" horiz-adv-x="1046" 
d="M877 1536h13q183 0 254 -98.5t21 -286.5l-190 -717q-59 -225 -195.5 -343t-321.5 -118h-22q-175 0 -254 123.5t-20 341.5l35 125q62 226 192.5 343.5t322.5 117.5h8q88 0 173.5 -45.5t138.5 -134.5l82 313q86 330 -236 330h-8q-87 0 -164 -22t-175 -65q-5 -2 -9 1t-2 8
l8 31q2 9 10 12q81 37 173.5 60.5t165.5 23.5zM708 975h-4q-171 0 -286.5 -107t-169.5 -307l-35 -129q-52 -193 14 -301t220 -108h19q167 0 287 108.5t171 304.5l92 342q-115 197 -308 197z" />
    <glyph glyph-name="emptyset" unicode="&#x2205;" horiz-adv-x="1243" 
d="M1293 1023l16 -21q5 -8 -2 -14l-132 -113q114 -154 76 -367q-26 -147 -117.5 -269t-228 -193.5t-286.5 -72.5q-213 2 -341 139l-132 -112q-9 -7 -15 1l-16 21q-5 7 2 14l131 112q-114 154 -75 368q27 148 118.5 270t226.5 193t284 72q214 -1 343 -140l132 113q9 7 16 -1z
M223 508q-34 -190 64 -327l819 697q-115 122 -305 123q-137 -1 -261 -66t-208 -178t-109 -249zM1201 516q33 190 -65 326l-819 -697q114 -121 304 -122q138 1 263 66.5t209 178.5t108 248z" />
    <glyph glyph-name="product" unicode="&#x220f;" horiz-adv-x="1226" 
d="M348 1434h1036q13 0 11 -13l-4 -23q-2 -14 -15 -14h-171l-242 -1371q-2 -13 -16 -13h-24q-13 0 -11 13l241 1371h-591l-242 -1371q-2 -13 -16 -13h-25q-12 0 -10 13l241 1371h-171q-13 0 -11 13l4 23q2 14 16 14z" />
    <glyph glyph-name="summation" unicode="&#x2211;" horiz-adv-x="1042" 
d="M348 1434h852q13 0 11 -13l-4 -23q-2 -14 -16 -14h-796l507 -632q7 -8 5 -20l-5 -32q-2 -11 -8 -16l-733 -635h795q13 0 11 -13l-4 -23q-2 -13 -16 -13h-852q-13 0 -11 13l4 26q2 12 11 20l759 658l-522 654q-10 13 -7 27l4 22q2 14 15 14z" />
    <glyph glyph-name="minus" unicode="&#x2212;" horiz-adv-x="1114" 
d="M216 686h924q13 0 11 -13l-4 -23q-2 -13 -16 -13h-924q-12 0 -10 13l4 23q2 13 15 13z" />
    <glyph glyph-name="radical" unicode="&#x221a;" horiz-adv-x="1404" 
d="M1537 1434h30q5 0 7 -4t0 -8l-798 -1413q-4 -9 -16 -9h-49q-15 0 -19 16l-205 959h-220q-13 0 -11 13l4 23q2 13 16 13h238q15 0 19 -16l101 -473l105 -486h3l273 486l503 888q6 11 19 11z" />
    <glyph glyph-name="infinity" unicode="&#x221e;" horiz-adv-x="1357" 
d="M1185 1051h14q82 0 134.5 -46.5t68.5 -120t1 -161.5l-6 -35q-24 -137 -108.5 -230t-206.5 -93h-15q-47 0 -84 14.5t-63 36.5t-49.5 62.5t-39 79.5t-35.5 100q-43 -62 -72 -101t-66.5 -79.5t-71 -62.5t-75.5 -36t-89 -14h-14q-82 0 -134.5 46.5t-68.5 119.5t-1 161l6 35
q24 136 109 230t207 94h14q58 0 100.5 -19.5t73.5 -63t51 -89t46 -122.5q43 62 72 101t66.5 80t71 63t75.5 36t89 14zM532 999h-14q-97 0 -168 -81.5t-92 -196.5l-5 -31q-21 -115 20.5 -194.5t138.5 -79.5h14q40 0 77 14t67 35t67.5 63t66 79.5t75.5 103.5q-23 65 -38.5 102
t-37.5 77.5t-44.5 61t-54.5 34t-72 13.5zM1196 999h-15q-40 0 -77 -14t-66.5 -34.5t-67 -63t-66 -80t-75.5 -103.5q23 -65 38 -102t37.5 -78t44.5 -61t54 -33.5t72 -13.5h14q97 0 168 81.5t92 196.5l6 31q21 115 -20.5 194.5t-138.5 79.5z" />
    <glyph glyph-name="integral" unicode="&#x222b;" horiz-adv-x="874" 
d="M890 1536h12q62 0 139 -35q14 -7 11 -21l-4 -23q-2 -9 -10 -5q-79 35 -143 35h-9q-86 0 -131.5 -44.5t-61.5 -137.5l-280 -1587q-20 -117 -80.5 -173.5t-167.5 -56.5h-12q-62 0 -139 35q-14 7 -11 21l4 23q2 9 10 5q79 -35 143 -35h9q86 0 131.5 44.5t61.5 137.5
l280 1587q20 117 80.5 173.5t167.5 56.5z" />
    <glyph glyph-name="approxequal" unicode="&#x2248;" horiz-adv-x="946" 
d="M456 815q47 0 88.5 -15.5t68 -34.5t64.5 -34.5t78 -15.5q36 0 82 14t72 25.5t82 38.5q5 2 8.5 -0.5t2.5 -7.5l-3 -25q-2 -10 -9 -14q-51 -27 -77 -39.5t-73 -26.5t-88 -14q-47 0 -88.5 15.5t-68 34.5t-65 34.5t-78.5 15.5q-36 0 -82 -14t-72 -25.5t-82 -38.5
q-5 -2 -8.5 0.5t-2.5 7.5l4 27q2 10 9 14l22 11t23.5 11.5t22 10.5t24 11t22.5 8.5t25 9t23 6.5t25.5 5.5t24 3t26.5 1.5zM405 528q47 0 88.5 -15.5t68 -34.5t65 -34.5t78.5 -15.5q36 0 82 14t71 25t82 39q5 2 8.5 -0.5t2.5 -7.5l-2 -25q-1 -9 -10 -14q-51 -27 -77 -39.5
t-73 -26.5t-88 -14q-47 0 -88.5 15.5t-68 34.5t-65 34.5t-78.5 15.5q-36 0 -82 -14t-71 -25t-82 -39q-5 -2 -8.5 0.5t-2.5 7.5l3 27q1 9 10 14l24 12t26.5 13t24 11.5t27 12t25 9t28 9t25.5 6t29 4.5t28 1z" />
    <glyph glyph-name="notequal" unicode="&#x2260;" horiz-adv-x="1116" 
d="M826 795h335q13 0 11 -13l-4 -23q-2 -14 -16 -14h-363l-179 -237h501q13 0 11 -13l-5 -23q-2 -13 -15 -13h-529l-188 -250q-5 -8 -14 -2l-23 16q-9 7 -3 15l166 221h-335q-13 0 -11 13l4 23q2 13 16 13h363l179 237h-500q-13 0 -11 13l4 24q2 13 15 13h529l188 249
q5 8 14 3l24 -16q9 -7 2 -15z" />
    <glyph glyph-name="lessequal" unicode="&#x2264;" horiz-adv-x="1114" 
d="M222 727l968 225q4 1 7 -1.5t2 -6.5l-6 -31q-1 -12 -14 -15l-879 -198l802 -195q18 -5 15 -23l-5 -29q-2 -7 -8 -5l-884 224q-18 5 -15 23l2 17q1 12 15 15zM138 242h924q13 0 11 -13l-5 -23q-2 -13 -15 -13h-924q-13 0 -11 13l4 23q2 13 16 13z" />
    <glyph glyph-name="greaterequal" unicode="&#x2265;" horiz-adv-x="1114" 
d="M244 919l5 29q2 7 8 5l884 -224q19 -5 16 -24l-3 -16q-1 -12 -14 -15l-969 -225q-4 -1 -6.5 1.5t-1.5 6.5l5 31q1 12 14 15l880 197l-803 196q-18 5 -15 23zM138 242h924q12 0 10 -13l-4 -23q-2 -14 -15 -14h-924q-13 0 -11 13l4 24q2 13 16 13z" />
    <glyph glyph-name="lozenge" unicode="&#x25ca;" horiz-adv-x="782" 
d="M622 1434h40q12 0 20 -10l214 -260q8 -9 6 -20l-7 -41q-2 -10 -8 -15l-314 -267q-7 -6 -16 -6h-40q-12 0 -20 10l-214 260q-7 9 -6 20l7 41q2 10 8 15l314 267q7 6 16 6zM325 1124l216 -268l313 268l-216 269z" />
    <glyph glyph-name="atsmall" unicode="&#xfe6b;" horiz-adv-x="1335" 
d="M752 1050h199q193 0 281.5 -102t53.5 -303l-62 -351q-8 -43 -29 -74t-47.5 -44t-46.5 -18.5t-37 -5.5h-32q-15 0 -33.5 5t-39 16t-31 34.5t-4.5 54.5q-59 -53 -124.5 -81.5t-119.5 -28.5h-5q-127 0 -180 79t-27 230l18 100q26 148 110 227t208 79h8q52 0 117 -20t114 -48
q22 -12 17 -38l-80 -465q-10 -56 7.5 -75t54.5 -19h23q37 0 68 23.5t41 79.5l59 335q63 359 -289 359h-196q-168 0 -277.5 -88.5t-142.5 -273.5l-41 -235q-35 -198 41 -287.5t245 -89.5h316q13 0 11 -13l-5 -25q-2 -13 -15 -13h-314q-193 0 -281.5 102t-53.5 303l47 269
q35 201 158 301.5t316 100.5zM805 817h-5q-101 0 -171 -67.5t-92 -191.5l-18 -97q-46 -256 164 -256h2q119 0 248 126l77 422q-97 64 -205 64z" />
    <glyph glyph-name="i.loclTRK" horiz-adv-x="382" 
d="M396 1333h65q13 0 11 -13l-13 -78q-2 -13 -16 -13h-66q-13 0 -11 13l14 78q2 13 16 13zM361 1024h25q13 0 11 -13l-176 -998q-2 -13 -16 -13h-25q-13 0 -11 13l176 998q2 13 16 13z" />
    <glyph glyph-name="a.ss01" 
d="M722 1051h12q83 0 182.5 -32.5t171.5 -75.5q21 -13 16 -38l-156 -892q-2 -13 -15 -13h-25q-13 0 -11 13l26 137q-91 -88 -195.5 -132.5t-193.5 -44.5h-9q-188 0 -266 119t-38 346l26 152q39 223 165 342t310 119zM727 1001h-8q-162 0 -274 -107.5t-147 -305.5l-27 -156
q-35 -202 30.5 -305.5t231.5 -103.5h4q192 0 396 200l122 675q-68 45 -155 74t-173 29z" />
    <glyph glyph-name="aacute.ss01" 
d="M960 1552h36q5 0 7.5 -4t-0.5 -8l-223 -334q-5 -8 -15 -8h-23q-5 0 -7.5 4t0.5 8l209 334q5 8 16 8zM722 1051h12q83 0 182.5 -32.5t171.5 -75.5q21 -13 16 -38l-156 -892q-2 -13 -15 -13h-25q-13 0 -11 13l26 137q-91 -88 -195.5 -132.5t-193.5 -44.5h-9
q-188 0 -266 119t-38 346l26 152q39 223 165 342t310 119zM727 1001h-8q-162 0 -274 -107.5t-147 -305.5l-27 -156q-35 -202 30.5 -305.5t231.5 -103.5h4q192 0 396 200l122 675q-68 45 -155 74t-173 29z" />
    <glyph glyph-name="abreve.ss01" 
d="M1043 1348q5 3 9.5 0t3.5 -9l-6 -31q-2 -11 -11 -17q-127 -83 -267 -83q-139 0 -241 84q-12 10 -9 25l5 25q2 12 12 4q54 -42 107 -65t127 -23q75 0 137.5 24t132.5 66zM722 1051h12q83 0 182.5 -32.5t171.5 -75.5q21 -13 16 -38l-156 -892q-2 -13 -15 -13h-25
q-13 0 -11 13l26 137q-91 -88 -195.5 -132.5t-193.5 -44.5h-9q-188 0 -266 119t-38 346l26 152q39 223 165 342t310 119zM727 1001h-8q-162 0 -274 -107.5t-147 -305.5l-27 -156q-35 -202 30.5 -305.5t231.5 -103.5h4q192 0 396 200l122 675q-68 45 -155 74t-173 29z" />
    <glyph glyph-name="acaron.ss01" 
d="M995 1552h37q5 0 7 -4t-1 -8l-244 -335q-4 -7 -14 -7h-20q-12 0 -17 12l-126 333q-1 4 1 6.5t6 2.5h35q13 0 18 -13l98 -293l206 299q4 7 14 7zM722 1051h12q83 0 182.5 -32.5t171.5 -75.5q21 -13 16 -38l-156 -892q-2 -13 -15 -13h-25q-13 0 -11 13l26 137
q-91 -88 -195.5 -132.5t-193.5 -44.5h-9q-188 0 -266 119t-38 346l26 152q39 223 165 342t310 119zM727 1001h-8q-162 0 -274 -107.5t-147 -305.5l-27 -156q-35 -202 30.5 -305.5t231.5 -103.5h4q192 0 396 200l122 675q-68 45 -155 74t-173 29z" />
    <glyph glyph-name="acircumflex.ss01" 
d="M816 1552h20q12 0 17 -12l126 -332q1 -4 -1 -7t-6 -3h-35q-13 0 -18 13l-98 293l-206 -298q-5 -8 -14 -8h-36q-5 0 -7.5 4t0.5 9l244 334q4 7 14 7zM722 1051h12q83 0 182.5 -32.5t171.5 -75.5q21 -13 16 -38l-156 -892q-2 -13 -15 -13h-25q-13 0 -11 13l26 137
q-91 -88 -195.5 -132.5t-193.5 -44.5h-9q-188 0 -266 119t-38 346l26 152q39 223 165 342t310 119zM727 1001h-8q-162 0 -274 -107.5t-147 -305.5l-27 -156q-35 -202 30.5 -305.5t231.5 -103.5h4q192 0 396 200l122 675q-68 45 -155 74t-173 29z" />
    <glyph glyph-name="adieresis.ss01" 
d="M635 1333h66q13 0 11 -13l-14 -78q-2 -13 -16 -13h-65q-13 0 -11 13l14 78q2 13 15 13zM910 1333h65q13 0 11 -13l-14 -78q-2 -13 -15 -13h-66q-13 0 -11 13l14 78q2 13 16 13zM722 1051h12q83 0 182.5 -32.5t171.5 -75.5q21 -13 16 -38l-156 -892q-2 -13 -15 -13h-25
q-13 0 -11 13l26 137q-91 -88 -195.5 -132.5t-193.5 -44.5h-9q-188 0 -266 119t-38 346l26 152q39 223 165 342t310 119zM727 1001h-8q-162 0 -274 -107.5t-147 -305.5l-27 -156q-35 -202 30.5 -305.5t231.5 -103.5h4q192 0 396 200l122 675q-68 45 -155 74t-173 29z" />
    <glyph glyph-name="agrave.ss01" 
d="M635 1552h34q16 0 19 -14l91 -331q2 -9 -7 -9h-21q-13 0 -18 14l-105 331q-1 4 1 6.5t6 2.5zM722 1051h12q83 0 182.5 -32.5t171.5 -75.5q21 -13 16 -38l-156 -892q-2 -13 -15 -13h-25q-13 0 -11 13l26 137q-91 -88 -195.5 -132.5t-193.5 -44.5h-9q-188 0 -266 119
t-38 346l26 152q39 223 165 342t310 119zM727 1001h-8q-162 0 -274 -107.5t-147 -305.5l-27 -156q-35 -202 30.5 -305.5t231.5 -103.5h4q192 0 396 200l122 675q-68 45 -155 74t-173 29z" />
    <glyph glyph-name="amacron.ss01" 
d="M556 1278h504q13 0 11 -13l-5 -23q-2 -13 -15 -13h-504q-13 0 -11 13l4 23q2 13 16 13zM722 1051h12q83 0 182.5 -32.5t171.5 -75.5q21 -13 16 -38l-156 -892q-2 -13 -15 -13h-25q-13 0 -11 13l26 137q-91 -88 -195.5 -132.5t-193.5 -44.5h-9q-188 0 -266 119t-38 346
l26 152q39 223 165 342t310 119zM727 1001h-8q-162 0 -274 -107.5t-147 -305.5l-27 -156q-35 -202 30.5 -305.5t231.5 -103.5h4q192 0 396 200l122 675q-68 45 -155 74t-173 29z" />
    <glyph glyph-name="aogonek.ss01" 
d="M1088 943q21 -13 16 -38l-156 -892q-2 -13 -15 -13q-61 -42 -98.5 -71t-77 -65.5t-60.5 -72t-28 -73.5q-9 -55 19.5 -81t85.5 -26q28 0 79 12q4 1 7 -2t2 -7l-6 -31q-2 -9 -10 -12q-38 -11 -79 -11q-77 0 -118.5 43.5t-27.5 123.5q13 69 70 128.5t207 163.5l25 131
q-91 -88 -195.5 -132.5t-193.5 -44.5h-9q-188 0 -266 119t-38 346l26 152q39 223 165 342t310 119h12q83 0 182.5 -32.5t171.5 -75.5zM933 223l122 675q-68 45 -155 74t-173 29h-8q-162 0 -274 -107.5t-147 -305.5l-27 -156q-35 -202 30.5 -305.5t231.5 -103.5h4
q192 0 396 200z" />
    <glyph glyph-name="aring.ss01" 
d="M833 1471q64 0 101 -43.5t26 -105.5q-10 -60 -61 -102t-111 -42q-65 0 -101 44.5t-25 106.5q10 58 59.5 100t111.5 42zM832 1425q-46 0 -79 -29t-41 -72q-7 -42 13.5 -71.5t63.5 -29.5q46 0 79.5 32t41.5 76q7 40 -13.5 67t-64.5 27zM722 1051h12q83 0 182.5 -32.5
t171.5 -75.5q21 -13 16 -38l-156 -892q-2 -13 -15 -13h-25q-13 0 -11 13l26 137q-91 -88 -195.5 -132.5t-193.5 -44.5h-9q-188 0 -266 119t-38 346l26 152q39 223 165 342t310 119zM727 1001h-8q-162 0 -274 -107.5t-147 -305.5l-27 -156q-35 -202 30.5 -305.5t231.5 -103.5
h4q192 0 396 200l122 675q-68 45 -155 74t-173 29z" />
    <glyph glyph-name="atilde.ss01" 
d="M1049 1330h27q5 0 7 -4t-1 -8q-38 -61 -91.5 -100.5t-107.5 -39.5h-8q-28 0 -48.5 10t-33.5 24t-25.5 28t-30 24t-40.5 10q-71 0 -146 -94q-5 -7 -14 -7h-27q-5 0 -7.5 3.5t0.5 8.5q38 61 92 100.5t108 39.5h8q28 0 49 -10t33.5 -24l25 -28t29.5 -24t40 -10q72 0 147 94
q7 7 14 7zM722 1051h12q83 0 182.5 -32.5t171.5 -75.5q21 -13 16 -38l-156 -892q-2 -13 -15 -13h-25q-13 0 -11 13l26 137q-91 -88 -195.5 -132.5t-193.5 -44.5h-9q-188 0 -266 119t-38 346l26 152q39 223 165 342t310 119zM727 1001h-8q-162 0 -274 -107.5t-147 -305.5
l-27 -156q-35 -202 30.5 -305.5t231.5 -103.5h4q192 0 396 200l122 675q-68 45 -155 74t-173 29z" />
    <glyph glyph-name="ae.ss01" horiz-adv-x="1845" 
d="M1488 1051h23q186 0 262 -119t36 -346l-8 -47q-3 -17 -20 -17h-743l-22 -129q-30 -171 61.5 -270.5t262.5 -99.5h8q148 0 332 87q5 2 9 -1t3 -8l-5 -26q-3 -13 -15 -19q-78 -37 -167 -60t-160 -23h-13q-131 0 -224 55t-130 156l-30 -171q-2 -13 -15 -13h-25q-13 0 -11 13
l26 137q-91 -88 -195.5 -132.5t-193.5 -44.5h-9q-188 0 -266 119t-38 346l26 152q39 223 165 342t310 119h12q83 0 182.5 -32.5t171.5 -75.5q21 -13 16 -38l-14 -84q70 110 173.5 170t224.5 60zM727 1001h-8q-162 0 -274 -107.5t-147 -305.5l-27 -156q-35 -202 30.5 -305.5
t231.5 -103.5h4q192 0 396 200l122 675q-68 45 -155 74t-173 29zM1503 1001h-18q-160 0 -281 -117t-157 -314l709 3q39 219 -24.5 323.5t-228.5 104.5z" />
    <glyph glyph-name="y.ss01" horiz-adv-x="1083" 
d="M1066 1024h25q13 0 11 -13l-177 -1003q-33 -185 -144.5 -281t-294.5 -96h-13q-72 0 -153.5 23.5t-146.5 61.5q-11 6 -9 20l5 26q2 9 10 4q151 -86 302 -86h8q163 0 260 85.5t126 248.5l23 122q-94 -72 -204.5 -117.5t-198.5 -45.5h-9q-177 0 -237 98t-26 289l115 651
q2 13 16 13h24q13 0 11 -13l-116 -656q-30 -167 18 -249.5t203 -82.5h4q90 0 197 48.5t212 131.5l144 808q2 13 15 13z" />
    <glyph glyph-name="yacute.ss01" horiz-adv-x="1083" 
d="M967 1552h36q5 0 7.5 -4t-0.5 -8l-223 -334q-5 -8 -15 -8h-23q-5 0 -7.5 4t0.5 8l209 334q5 8 16 8zM1066 1024h25q13 0 11 -13l-177 -1003q-33 -185 -144.5 -281t-294.5 -96h-13q-72 0 -153.5 23.5t-146.5 61.5q-11 6 -9 20l5 26q2 9 10 4q151 -86 302 -86h8
q163 0 260 85.5t126 248.5l23 122q-94 -72 -204.5 -117.5t-198.5 -45.5h-9q-177 0 -237 98t-26 289l115 651q2 13 16 13h24q13 0 11 -13l-116 -656q-30 -167 18 -249.5t203 -82.5h4q90 0 197 48.5t212 131.5l144 808q2 13 15 13z" />
    <glyph glyph-name="ycircumflex.ss01" horiz-adv-x="1083" 
d="M804 1552h20q12 0 17 -12l126 -332q1 -4 -1 -7t-6 -3h-35q-13 0 -18 13l-98 293l-206 -298q-5 -8 -15 -8h-36q-5 0 -7 4t1 9l244 334q4 7 14 7zM1066 1024h25q13 0 11 -13l-177 -1003q-33 -185 -144.5 -281t-294.5 -96h-13q-72 0 -153.5 23.5t-146.5 61.5q-11 6 -9 20
l5 26q2 9 10 4q151 -86 302 -86h8q163 0 260 85.5t126 248.5l23 122q-94 -72 -204.5 -117.5t-198.5 -45.5h-9q-177 0 -237 98t-26 289l115 651q2 13 16 13h24q13 0 11 -13l-116 -656q-30 -167 18 -249.5t203 -82.5h4q90 0 197 48.5t212 131.5l144 808q2 13 15 13z" />
    <glyph glyph-name="ydieresis.ss01" horiz-adv-x="1083" 
d="M608 1333h65q13 0 11 -13l-13 -78q-2 -13 -16 -13h-66q-13 0 -11 13l14 78q2 13 16 13zM882 1333h66q13 0 11 -13l-14 -78q-2 -13 -16 -13h-65q-13 0 -11 13l14 78q2 13 15 13zM1066 1024h25q13 0 11 -13l-177 -1003q-33 -185 -144.5 -281t-294.5 -96h-13
q-72 0 -153.5 23.5t-146.5 61.5q-11 6 -9 20l5 26q2 9 10 4q151 -86 302 -86h8q163 0 260 85.5t126 248.5l23 122q-94 -72 -204.5 -117.5t-198.5 -45.5h-9q-177 0 -237 98t-26 289l115 651q2 13 16 13h24q13 0 11 -13l-116 -656q-30 -167 18 -249.5t203 -82.5h4
q90 0 197 48.5t212 131.5l144 808q2 13 15 13z" />
    <glyph glyph-name="ygrave.ss01" horiz-adv-x="1083" 
d="M640 1552h34q16 0 19 -14l90 -331q2 -9 -6 -9h-21q-14 0 -19 14l-104 331q-1 4 1 6.5t6 2.5zM1066 1024h25q13 0 11 -13l-177 -1003q-33 -185 -144.5 -281t-294.5 -96h-13q-72 0 -153.5 23.5t-146.5 61.5q-11 6 -9 20l5 26q2 9 10 4q151 -86 302 -86h8q163 0 260 85.5
t126 248.5l23 122q-94 -72 -204.5 -117.5t-198.5 -45.5h-9q-177 0 -237 98t-26 289l115 651q2 13 16 13h24q13 0 11 -13l-116 -656q-30 -167 18 -249.5t203 -82.5h4q90 0 197 48.5t212 131.5l144 808q2 13 15 13z" />
    <glyph glyph-name="a.ss02" horiz-adv-x="999" 
d="M350 1024h657q13 0 11 -13l-176 -998q-2 -13 -16 -13h-24q-13 0 -11 13l25 137q-91 -88 -195.5 -132.5t-193.5 -44.5h-12q-153 0 -231.5 79.5t-54.5 215.5l2 8q30 166 160 244t375 86l231 7l63 362h-619q-13 0 -11 13l4 23q2 13 16 13zM888 562l-258 -9
q-205 -7 -315.5 -76.5t-133.5 -203.5l-2 -11q-20 -110 45.5 -174.5t197.5 -64.5h8q193 0 397 200z" />
    <glyph glyph-name="aacute.ss02" horiz-adv-x="999" 
d="M922 1552h36q5 0 7.5 -4t-0.5 -8l-223 -334q-5 -8 -15 -8h-23q-5 0 -7 4t1 8l209 334q5 8 15 8zM350 1024h657q13 0 11 -13l-176 -998q-2 -13 -16 -13h-24q-13 0 -11 13l25 137q-91 -88 -195.5 -132.5t-193.5 -44.5h-12q-153 0 -231.5 79.5t-54.5 215.5l2 8
q30 166 160 244t375 86l231 7l63 362h-619q-13 0 -11 13l4 23q2 13 16 13zM888 562l-258 -9q-205 -7 -315.5 -76.5t-133.5 -203.5l-2 -11q-20 -110 45.5 -174.5t197.5 -64.5h8q193 0 397 200z" />
    <glyph glyph-name="abreve.ss02" horiz-adv-x="999" 
d="M988 1348q5 3 9.5 0t3.5 -9l-6 -31q-2 -11 -11 -17q-127 -83 -268 -83q-138 0 -240 84q-12 10 -9 25l4 25q2 12 12 4q53 -41 107 -64.5t128 -23.5q76 0 138 24t132 66zM350 1024h657q13 0 11 -13l-176 -998q-2 -13 -16 -13h-24q-13 0 -11 13l25 137
q-91 -88 -195.5 -132.5t-193.5 -44.5h-12q-153 0 -231.5 79.5t-54.5 215.5l2 8q30 166 160 244t375 86l231 7l63 362h-619q-13 0 -11 13l4 23q2 13 16 13zM888 562l-258 -9q-205 -7 -315.5 -76.5t-133.5 -203.5l-2 -11q-20 -110 45.5 -174.5t197.5 -64.5h8q193 0 397 200z
" />
    <glyph glyph-name="acaron.ss02" horiz-adv-x="999" 
d="M939 1552h36q5 0 7.5 -4t-0.5 -8l-244 -335q-4 -7 -15 -7h-19q-14 0 -18 12l-125 333q-4 9 6 9h35q13 0 18 -13l98 -293l206 299q4 7 15 7zM350 1024h657q13 0 11 -13l-176 -998q-2 -13 -16 -13h-24q-13 0 -11 13l25 137q-91 -88 -195.5 -132.5t-193.5 -44.5h-12
q-153 0 -231.5 79.5t-54.5 215.5l2 8q30 166 160 244t375 86l231 7l63 362h-619q-13 0 -11 13l4 23q2 13 16 13zM888 562l-258 -9q-205 -7 -315.5 -76.5t-133.5 -203.5l-2 -11q-20 -110 45.5 -174.5t197.5 -64.5h8q193 0 397 200z" />
    <glyph glyph-name="acircumflex.ss02" horiz-adv-x="999" 
d="M761 1552h20q13 0 17 -12l126 -332q1 -4 -1 -7t-6 -3h-35q-13 0 -18 13l-98 293l-206 -298q-5 -8 -15 -8h-36q-5 0 -7 4t1 9l244 334q4 7 14 7zM350 1024h657q13 0 11 -13l-176 -998q-2 -13 -16 -13h-24q-13 0 -11 13l25 137q-91 -88 -195.5 -132.5t-193.5 -44.5h-12
q-153 0 -231.5 79.5t-54.5 215.5l2 8q30 166 160 244t375 86l231 7l63 362h-619q-13 0 -11 13l4 23q2 13 16 13zM888 562l-258 -9q-205 -7 -315.5 -76.5t-133.5 -203.5l-2 -11q-20 -110 45.5 -174.5t197.5 -64.5h8q193 0 397 200z" />
    <glyph glyph-name="adieresis.ss02" horiz-adv-x="999" 
d="M565 1333h65q13 0 11 -13l-13 -78q-2 -13 -16 -13h-66q-13 0 -11 13l14 78q2 13 16 13zM839 1333h66q13 0 11 -13l-14 -78q-2 -13 -16 -13h-65q-13 0 -11 13l14 78q2 13 15 13zM350 1024h657q13 0 11 -13l-176 -998q-2 -13 -16 -13h-24q-13 0 -11 13l25 137
q-91 -88 -195.5 -132.5t-193.5 -44.5h-12q-153 0 -231.5 79.5t-54.5 215.5l2 8q30 166 160 244t375 86l231 7l63 362h-619q-13 0 -11 13l4 23q2 13 16 13zM888 562l-258 -9q-205 -7 -315.5 -76.5t-133.5 -203.5l-2 -11q-20 -110 45.5 -174.5t197.5 -64.5h8q193 0 397 200z
" />
    <glyph glyph-name="agrave.ss02" horiz-adv-x="999" 
d="M591 1552h35q15 0 18 -14l91 -331q2 -9 -7 -9h-21q-13 0 -18 14l-104 331q-4 9 6 9zM349 1024h658q13 0 11 -13l-176 -998q-2 -13 -16 -13h-24q-13 0 -11 13l25 137q-91 -88 -195.5 -132.5t-193.5 -44.5h-12q-153 0 -231.5 79.5t-54.5 215.5l2 8q30 166 160 244t375 86
l231 7l63 362h-619q-13 0 -11 13l4 23q2 13 15 13zM888 562l-258 -9q-205 -7 -315.5 -76.5t-133.5 -203.5l-2 -11q-20 -110 45.5 -174.5t197.5 -64.5h8q193 0 397 200z" />
    <glyph glyph-name="amacron.ss02" horiz-adv-x="999" 
d="M473 1278h504q13 0 11 -13l-4 -23q-2 -13 -16 -13h-504q-13 0 -11 13l5 23q2 13 15 13zM350 1024h657q13 0 11 -13l-176 -998q-2 -13 -16 -13h-24q-13 0 -11 13l25 137q-91 -88 -195.5 -132.5t-193.5 -44.5h-12q-153 0 -231.5 79.5t-54.5 215.5l2 8q30 166 160 244
t375 86l231 7l63 362h-619q-13 0 -11 13l4 23q2 13 16 13zM888 562l-258 -9q-205 -7 -315.5 -76.5t-133.5 -203.5l-2 -11q-20 -110 45.5 -174.5t197.5 -64.5h8q193 0 397 200z" />
    </font>
</defs>
</svg>
