<?xml version="1.0" standalone="no"?>
<!DOCTYPE svg PUBLIC "-//W3C//DTD SVG 1.1//EN" "http://www.w3.org/Graphics/SVG/1.1/DTD/svg11.dtd" >
<svg xmlns="http://www.w3.org/2000/svg" xmlns:xlink="http://www.w3.org/1999/xlink" version="1.1">
<metadata>
Created by FontForge 20170731 at Thu Aug 13 18:28:09 2020
 By Aleksey,,,
Copyright (c) 2015 by Mariya Pigoulevskaya. All rights reserved.
</metadata>
<defs>
<font id="Webnar-Light" horiz-adv-x="1079" >
  <font-face 
    font-family="Webnar Light"
    font-weight="300"
    font-stretch="normal"
    units-per-em="2048"
    panose-1="0 0 4 0 0 0 0 0 0 0"
    ascent="1536"
    descent="-512"
    x-height="1024"
    cap-height="1434"
    bbox="-205 -512 2726 2239"
    underline-thickness="102"
    underline-position="-307"
    unicode-range="U+0020-FE6B"
  />
<missing-glyph horiz-adv-x="1024" 
d="M0 0v1434h1024v-1434h-1024zM512 809l348 522h-696zM573 717l349 -522v1044zM164 102h696l-348 523zM102 1239v-1044l349 522z" />
    <glyph glyph-name=".notdef" horiz-adv-x="1024" 
d="M0 0v1434h1024v-1434h-1024zM512 809l348 522h-696zM573 717l349 -522v1044zM164 102h696l-348 523zM102 1239v-1044l349 522z" />
    <glyph glyph-name=".null" horiz-adv-x="0" 
 />
    <glyph glyph-name="nonmarkingreturn" horiz-adv-x="682" 
 />
    <glyph glyph-name="space" unicode=" " horiz-adv-x="399" 
 />
    <glyph glyph-name="exclam" unicode="!" horiz-adv-x="288" 
d="M103 1434h84q13 0 13 -14l-14 -1002q0 -14 -13 -14h-56q-14 0 -14 14l-14 1002q0 14 14 14zM92 145h105q16 0 16 -15v-115q0 -15 -16 -15h-105q-15 0 -15 15v115q0 15 15 15z" />
    <glyph glyph-name="quotedbl" unicode="&#x22;" horiz-adv-x="532" 
d="M89 1434h84q14 0 14 -14l-15 -405q0 -13 -13 -13h-56q-14 0 -14 13l-14 405q0 14 14 14zM360 1434h85q13 0 13 -14l-14 -405q0 -13 -14 -13h-55q-14 0 -14 13l-14 405q0 14 13 14z" />
    <glyph glyph-name="numbersign" unicode="#" horiz-adv-x="1140" 
d="M853 926h196q21 0 16 -19l-12 -41q-5 -19 -25 -19h-196l-68 -260h197q20 0 15 -19l-11 -42q-5 -19 -25 -19h-197l-129 -489q-5 -18 -25 -18h-47q-20 0 -15 22l127 485h-279l-129 -489q-5 -18 -25 -18h-47q-20 0 -15 22l127 485h-196q-19 0 -14 19l10 42q5 19 25 19h196
l69 260h-198q-17 0 -14 19l10 41q5 19 27 19h195l129 490q3 18 25 18h47q21 0 15 -23l-127 -485h280l128 490q3 18 25 18h47q21 0 15 -23zM744 847h-280l-68 -260h279z" />
    <glyph glyph-name="dollar" unicode="$" horiz-adv-x="1130" 
d="M525 806l99 -33q74 -25 124.5 -46.5t105 -55.5t86.5 -73.5t53 -97t21 -129.5v-20q0 -164 -118.5 -266t-301.5 -111v-247q0 -14 -14 -14h-58q-14 0 -14 14v247q-99 5 -192.5 34t-155.5 64q-15 8 -15 25v67q0 6 4.5 8.5t9.5 0.5q70 -34 116.5 -53t118.5 -35.5t145 -16.5h15
q155 0 254.5 79.5t99.5 211.5v8q0 40 -9 73.5t-22 59t-38.5 48t-48.5 38t-62 33t-68.5 28.5t-78.5 27l-98 33q-182 61 -274.5 146.5t-92.5 223.5v23q0 80 33 147t88.5 111t125 70t145.5 31v248q0 13 14 13h58q14 0 14 -13v-248q92 -4 178.5 -29t141.5 -57q15 -7 15 -25v-66
q0 -6 -5 -8.5t-10 -0.5q-89 45 -170.5 69t-179.5 24h-15q-62 0 -119.5 -18t-104 -51t-75 -86.5t-28.5 -118.5v-10q0 -101 72 -162t231 -114z" />
    <glyph glyph-name="percent" unicode="%" horiz-adv-x="1959" 
d="M437 635h-25q-155 0 -246 103.5t-91 274.5v68q0 172 91 275.5t246 103.5h25q155 0 246 -103.5t91 -275.5v-68q0 -171 -91 -274.5t-246 -103.5zM667 0h-49q-10 0 -14 6.5t0 14.5l663 1395q9 18 26 18h49q10 0 14 -7t0 -15l-662 -1394q-9 -18 -27 -18zM416 716h17
q119 0 185 81.5t66 215.5v69q0 134 -66 215.5t-185 81.5h-17q-119 0 -185 -81.5t-66 -215.5v-69q0 -134 66 -215.5t185 -81.5zM1523 799h26q155 0 245.5 -103.5t90.5 -275.5v-68q0 -172 -90.5 -275.5t-245.5 -103.5h-26q-155 0 -246 103.5t-91 275.5v68q0 172 91 275.5
t246 103.5zM1544 717h-17q-120 0 -185.5 -81t-65.5 -215v-70q0 -134 65.5 -215t185.5 -81h17q120 0 185.5 81t65.5 215v70q0 134 -65.5 215t-185.5 81z" />
    <glyph glyph-name="ampersand" unicode="&#x26;" horiz-adv-x="1411" 
d="M572 1460h14q125 0 222 -45q15 -7 15 -25v-67q0 -12 -14 -8q-113 50 -221 50h-10q-147 0 -237 -77.5t-90 -203.5v-20q0 -49 20.5 -97t61 -89.5t111.5 -67.5t161 -26l335 -1v446q0 19 13 21l68 16q21 6 21 -14v-469l301 -1q13 0 13 -14v-58q0 -14 -13 -14l-301 1v-470
q0 -85 34 -125.5t111 -40.5h8q57 0 144 35q7 3 12 -1t5 -12v-50q0 -16 -13 -21q-87 -39 -160 -39h-14q-181 0 -214 162q-80 -68 -186 -115t-222 -47h-19q-194 0 -314 110t-120 281v38q0 54 15.5 105.5t48 99.5t88.5 86t131 58q-112 45 -171 131.5t-59 179.5v40
q0 163 119 260.5t306 97.5zM940 697l-371 1q-81 0 -145.5 -18.5t-105.5 -48.5t-68 -70.5t-38 -81t-11 -82.5v-16q0 -136 91 -224.5t248 -88.5h15q107 0 199.5 45.5t185.5 120.5v463z" />
    <glyph glyph-name="quotesingle" unicode="'" horiz-adv-x="262" 
d="M89 1434h84q14 0 14 -14l-15 -405q0 -13 -13 -13h-56q-14 0 -14 13l-14 405q0 14 14 14z" />
    <glyph glyph-name="parenleft" unicode="(" horiz-adv-x="544" 
d="M257 1008v-842q0 -76 12.5 -135.5t31 -97.5t46.5 -66t53 -42t57 -25q13 -5 13 -14v-59q0 -6 -3.5 -10.5t-9.5 -3.5q-138 27 -221.5 134.5t-83.5 302.5v874q0 195 83.5 302t221.5 134q6 1 9.5 -3t3.5 -10v-60q0 -8 -13 -13q-32 -11 -57 -25t-53 -42t-46.5 -66t-31 -97.5
t-12.5 -135.5z" />
    <glyph glyph-name="parenright" unicode=")" horiz-adv-x="544" 
d="M289 166v842q0 76 -12.5 135.5t-31 97.5t-46.5 66t-53 42t-57 25q-14 5 -14 13v60q0 6 4 10t10 3q138 -27 221 -134t83 -302v-874q0 -195 -83 -302.5t-221 -134.5q-6 -1 -10 3.5t-4 10.5v59q0 9 14 14q32 11 57 25t53 42t46.5 66t31 97.5t12.5 135.5z" />
    <glyph glyph-name="asterisk" unicode="*" horiz-adv-x="858" 
d="M755 1242l27 -79q5 -15 -8 -18l-272 -87l194 -216q8 -10 -1 -19l-66 -52q-11 -8 -19 1l-181 236l-180 -236q-8 -9 -19 -1l-67 52q-9 9 0 19l194 216l-273 87q-13 3 -8 18l27 79q6 16 20 10l261 -108l-11 276q0 14 14 14h85q13 0 13 -14l-11 -276l261 108q14 6 20 -10z
" />
    <glyph glyph-name="plus" unicode="+" horiz-adv-x="1101" 
d="M596 699h418q13 0 13 -14v-59q0 -14 -13 -14h-418l-1 -373q0 -13 -13 -13h-62q-13 0 -13 13v373h-418q-14 0 -14 14v59q0 14 14 14h418v373q0 13 14 13h61q14 0 14 -13v-373z" />
    <glyph glyph-name="comma" unicode="," horiz-adv-x="307" 
d="M107 145h110q15 0 15 -15v-101q0 -17 -3 -27l-74 -332q-1 -12 -15 -12h-53q-13 0 -11 20l71 322h-40q-15 0 -15 15v115q0 15 15 15z" />
    <glyph glyph-name="hyphen" unicode="-" horiz-adv-x="788" 
d="M89 699h612q13 0 13 -14v-59q0 -14 -13 -14h-612q-14 0 -14 14v59q0 14 14 14z" />
    <glyph glyph-name="period" unicode="." horiz-adv-x="286" 
d="M91 145h105q15 0 15 -15v-115q0 -15 -15 -15h-105q-16 0 -16 15v115q0 15 16 15z" />
    <glyph glyph-name="slash" unicode="/" horiz-adv-x="606" 
d="M468 1434h47q21 0 15 -23l-366 -1393q-5 -18 -25 -18h-47q-20 0 -15 22l366 1394q3 18 25 18z" />
    <glyph glyph-name="zero" unicode="0" horiz-adv-x="1345" 
d="M657 1460h31q110 0 201 -37.5t159.5 -111t106.5 -191t38 -268.5v-270q0 -151 -38 -268.5t-106.5 -191t-159.5 -111.5t-201 -38h-31q-110 0 -201 38t-159.5 111.5t-106.5 191t-38 268.5v270q0 151 38 268.5t106.5 191t159.5 111t201 37.5zM685 1365h-25
q-187 0 -294 -129.5t-107 -387.5v-262q0 -258 107 -388t294 -130h25q187 0 294 130t107 388v262q0 258 -107 387.5t-294 129.5z" />
    <glyph glyph-name="one" unicode="1" horiz-adv-x="794" 
d="M460 95h246q14 0 14 -14v-67q0 -14 -14 -14h-617q-14 0 -14 14v67q0 14 14 14h266v1222l-266 -108q-14 -3 -14 10v74q0 16 14 21l283 115q12 5 27 5h47q14 0 14 -14v-1325z" />
    <glyph glyph-name="two" unicode="2" horiz-adv-x="1122" 
d="M257 95h736q14 0 14 -14v-67q0 -14 -14 -14h-863q-14 0 -14 14v65q0 12 6 18l370 387q55 57 74.5 77t72.5 77.5t76.5 87.5t62 82t56 87.5t32 79t14.5 79.5v9q0 74 -28 133.5t-75 95.5t-104 55t-119 19h-15q-98 0 -179.5 -24.5t-170.5 -68.5q-5 -2 -10 0.5t-5 8.5v66
q0 18 15 25q60 34 156 60.5t196 26.5h19q84 0 160 -24.5t135.5 -70.5t95 -120t35.5 -166v-21q0 -49 -16.5 -103t-52.5 -113.5t-66 -103.5t-86.5 -108.5t-81.5 -91.5t-81 -86q-4 -5 -6.5 -7t-5.5 -5.5t-6 -6.5z" />
    <glyph glyph-name="three" unicode="3" horiz-adv-x="1083" 
d="M706 751q75 -20 131 -58t88.5 -86t48 -99.5t15.5 -105.5v-38q0 -170 -132.5 -280.5t-341.5 -110.5h-19q-106 0 -201.5 26.5t-157.5 61.5q-15 7 -15 24v67q0 6 4.5 8.5t9.5 0.5q90 -45 172 -69t186 -24h16q167 0 270 89.5t103 223.5v16q0 54 -19 104t-59 96t-115 74
t-175 28h-190q-13 0 -13 13v58q0 14 13 14h153q90 0 161 26t111.5 67.5t61 89.5t20.5 97v20q0 126 -92.5 204t-242.5 78h-16q-98 0 -179.5 -24t-170.5 -69q-5 -3 -10 -0.5t-5 8.5v67q0 18 15 25q60 35 156 61t196 26h19q191 0 313 -97.5t122 -260.5v-40q0 -93 -59.5 -179.5
t-171.5 -131.5z" />
    <glyph glyph-name="four" unicode="4" horiz-adv-x="1226" 
d="M767 1434h112q13 0 13 -14v-937h246q14 0 14 -14v-67q0 -14 -14 -14h-246v-374q0 -14 -13 -14h-78q-13 0 -13 14v374h-699q-14 0 -14 14v59q0 18 9 31l655 927q10 15 28 15zM191 483h597v839z" />
    <glyph glyph-name="five" unicode="5" horiz-adv-x="1087" 
d="M560 849q215 0 324 -116.5t109 -302.5v-35q0 -180 -132 -301t-346 -121h-19q-106 0 -205 26.5t-160 61.5q-15 7 -15 24v67q0 6 5 8.5t10 0.5q88 -44 173 -68.5t190 -24.5h15q172 0 274.5 97.5t102.5 242.5v13q0 155 -88 248.5t-270 93.5q-50 0 -106 -9.5t-128 -27
t-83 -19.5q-16 -3 -26 9l-14 15q-8 8 -8 20v669q0 14 14 14h704q14 0 14 -14v-68q0 -13 -14 -13h-614v-538q209 48 293 48z" />
    <glyph glyph-name="six" unicode="6" horiz-adv-x="1189" 
d="M674 861q197 0 309.5 -110t112.5 -292v-35q0 -121 -52.5 -222t-158 -165t-245.5 -64h-17q-214 0 -342.5 158t-128.5 436v36q0 189 29 338t78 245t116.5 159t140 89t153.5 26h19q167 0 319 -87q15 -7 15 -25v-67q0 -6 -5 -8.5t-10 0.5q-62 32 -99.5 48.5t-95.5 30
t-120 13.5h-14q-56 0 -106 -15t-104 -57t-94.5 -109t-71 -181t-39.5 -263q89 51 198.5 86t212.5 35zM989 439v13q0 149 -88 236.5t-247 87.5q-181 0 -394 -126l-1 -96q0 -227 97.5 -356.5t266.5 -129.5h13q85 0 153 30t111 82t66 118t23 141z" />
    <glyph glyph-name="seven" unicode="7" 
d="M89 1434h901q13 0 13 -14v-65q0 -11 -5 -18l-490 -656q-8 -11 -8 -23v-644q0 -14 -13 -14h-78q-14 0 -14 14v668q0 20 11 36l469 621h-786q-14 0 -14 13v68q0 14 14 14z" />
    <glyph glyph-name="eight" unicode="8" horiz-adv-x="1202" 
d="M591 1460h20q196 0 320 -98.5t124 -261.5v-39q0 -93 -60 -179.5t-173 -130.5q145 -39 215.5 -138t70.5 -212v-38q0 -170 -135.5 -280t-356.5 -110h-30q-221 0 -356.5 110t-135.5 280v38q0 113 70.5 211.5t215.5 137.5q-113 44 -172.5 131t-59.5 180v39q0 163 123.5 261.5
t319.5 98.5zM610 1366h-17q-154 0 -247.5 -77t-93.5 -204v-20q0 -38 11.5 -76t37 -75t63 -65.5t93.5 -46t124 -17.5h32q87 0 154.5 26t106 68.5t57.5 90t19 95.5v20q0 127 -93 204t-247 77zM635 698h-67q-82 0 -147 -19t-105.5 -49.5t-67.5 -71t-37.5 -80.5t-10.5 -82v-16
q0 -135 104 -223.5t282 -88.5h30q178 0 282 88.5t104 223.5v16q0 42 -10.5 82t-37.5 80.5t-67.5 71t-105 49.5t-146.5 19z" />
    <glyph glyph-name="nine" unicode="9" horiz-adv-x="1189" 
d="M549 1460h18q214 0 342.5 -157.5t128.5 -435.5v-36q0 -189 -29 -338.5t-78 -245t-116.5 -159t-140 -89.5t-153.5 -26h-20q-164 0 -318 88q-15 7 -15 24v67q0 6 5 8.5t10 0.5q64 -33 100 -49t94 -30t120 -14h15q56 0 106 15t104 57t94.5 109t71 181t39.5 263
q-89 -51 -198.5 -86t-212.5 -35q-197 0 -309.5 110.5t-112.5 292.5v35q0 90 31 170.5t87.5 143t143.5 99.5t193 37zM567 1365h-13q-112 0 -194 -52.5t-120.5 -134.5t-38.5 -183v-13q0 -149 88 -236.5t247 -87.5q181 0 394 126l1 95q0 227 -97.5 356.5t-266.5 129.5z" />
    <glyph glyph-name="colon" unicode=":" horiz-adv-x="286" 
d="M91 913h105q15 0 15 -16v-115q0 -15 -15 -15h-105q-16 0 -16 15v115q0 16 16 16zM91 145h105q15 0 15 -15v-115q0 -15 -15 -15h-105q-16 0 -16 15v115q0 15 16 15z" />
    <glyph glyph-name="semicolon" unicode=";" horiz-adv-x="307" 
d="M111 913h106q15 0 15 -16v-115q0 -15 -15 -15h-106q-15 0 -15 15v115q0 16 15 16zM107 145h110q15 0 15 -15v-101q0 -17 -3 -27l-74 -332q-1 -12 -15 -12h-53q-13 0 -11 20l71 322h-40q-15 0 -15 15v115q0 15 15 15z" />
    <glyph glyph-name="less" unicode="&#x3c;" horiz-adv-x="1099" 
d="M89 623l914 339q10 4 16 -0.5t6 -14.5v-55q0 -18 -15 -23l-798 -293l798 -293q15 -4 15 -23v-55q0 -10 -6 -15t-16 -1l-914 339q-14 5 -14 21v53q0 16 14 21z" />
    <glyph glyph-name="equal" unicode="=" horiz-adv-x="1099" 
d="M89 806h923q13 0 13 -13v-48q0 -14 -13 -14h-923q-14 0 -14 14v48q0 13 14 13zM89 518h923q13 0 13 -14v-48q0 -14 -13 -14h-923q-14 0 -14 14v48q0 14 14 14z" />
    <glyph glyph-name="greater" unicode="&#x3e;" horiz-adv-x="1099" 
d="M98 962l914 -339q13 -5 13 -21v-53q0 -16 -13 -21l-914 -339q-10 -4 -16.5 1t-6.5 15v55q0 18 16 23l797 293l-797 293q-16 5 -16 23v55q0 10 6.5 14.5t16.5 0.5z" />
    <glyph glyph-name="question" unicode="?" horiz-adv-x="1028" 
d="M455 1460h19q215 0 346.5 -111t131.5 -281v-35q0 -161 -115 -273t-312 -112q-53 0 -123 11l-3 -241q0 -14 -13 -14h-56q-14 0 -14 14l-4 282q0 14 11 23l13 10q12 9 33 7q8 -1 29 -4.5t40.5 -5.5t44.5 -2q177 0 269.5 89.5t92.5 220.5v13q0 137 -101.5 226t-275.5 89h-15
q-105 0 -190 -24.5t-173 -68.5q-4 -3 -9.5 -0.5t-5.5 8.5v67q0 18 15 25q60 35 159.5 61t205.5 26zM305 145h106q15 0 15 -15v-115q0 -15 -15 -15h-106q-15 0 -15 15v115q0 15 15 15z" />
    <glyph glyph-name="at" unicode="@" horiz-adv-x="1812" 
d="M789 1353h388q279 0 440 -153.5t161 -454.5v-543q0 -57 -15.5 -100.5t-38 -67t-53.5 -38t-57 -19t-53 -4.5h-75q-26 0 -55.5 7.5t-62.5 25t-55.5 54t-26.5 86.5q-73 -84 -166 -128.5t-180 -44.5h-8q-185 0 -283 119.5t-98 339.5v156q0 223 108.5 343t296.5 120h14
q96 0 211.5 -36.5t186.5 -78.5q14 -9 14 -25v-695q0 -48 11.5 -81t30.5 -48t36.5 -20.5t37.5 -5.5h57q20 0 37.5 5.5t37 20.5t31 48t11.5 81v524q0 261 -129 389.5t-369 128.5h-382q-239 0 -368 -128.5t-129 -389.5v-449q0 -261 128.5 -389t368.5 -128h550q13 0 13 -14v-67
q0 -14 -13 -14h-553q-279 0 -440 153.5t-161 454.5v458q0 301 161 454.5t440 153.5zM970 964h-9q-144 0 -225.5 -96t-81.5 -275v-161q0 -182 75.5 -276.5t223.5 -94.5h5q171 0 322 172v637q-164 94 -310 94z" />
    <glyph glyph-name="A" unicode="A" horiz-adv-x="1267" 
d="M576 1434h115q18 0 24 -19l476 -1401q3 -14 -10 -14h-77q-18 0 -24 19l-152 441h-589l-152 -441q-6 -19 -24 -19h-77q-14 0 -10 14l476 1401q6 18 24 19zM630 1336l-191 -572l-72 -209h534l-73 209l-192 572h-6z" />
    <glyph glyph-name="B" unicode="B" horiz-adv-x="1234" 
d="M866 751q142 -38 208.5 -133.5t66.5 -224.5v-34q0 -172 -106.5 -265.5t-327.5 -93.5h-505q-14 0 -14 14v1406q0 14 14 14h455q432 0 432 -344v-30q0 -101 -56.5 -183.5t-166.5 -125.5zM984 1063v7q0 133 -78 201t-254 68h-359v-555h342q91 0 160 23t109.5 62.5t60 88.5
t19.5 105zM1035 377v13q0 51 -10.5 94.5t-37 83.5t-67 68.5t-104 45t-145.5 16.5h-378v-603h408q178 0 256 73t78 209z" />
    <glyph glyph-name="C" unicode="C" horiz-adv-x="1206" 
d="M733 1460h22q96 0 188 -26t154 -62q15 -8 15 -25v-65q0 -6 -4.5 -8.5t-9.5 -0.5q-173 92 -338 92h-15q-98 0 -185 -35t-154.5 -101t-107 -171.5t-39.5 -237.5v-207q0 -132 39.5 -237.5t107 -171.5t154.5 -101t185 -35h15q167 0 338 92q4 2 9 0t5 -8v-66q0 -16 -15 -24
q-63 -36 -155 -62.5t-187 -26.5h-22q-92 0 -177 25t-158.5 77t-128 126t-86 177.5t-31.5 224.5v227q0 121 31.5 224.5t86 177.5t128 126t158.5 77t177 25z" />
    <glyph glyph-name="D" unicode="D" horiz-adv-x="1357" 
d="M202 1434h464q115 0 212.5 -37.5t171 -111t115 -192t41.5 -270.5v-212q0 -152 -41.5 -270.5t-115 -192t-171 -111t-212.5 -37.5h-464q-14 0 -14 14v1406q0 14 14 14zM1101 621v192q0 262 -120.5 394t-323.5 132h-364v-1244h364q203 0 323.5 132t120.5 394z" />
    <glyph glyph-name="E" unicode="E" horiz-adv-x="1144" 
d="M293 786h700q14 0 14 -13v-68q0 -13 -14 -13h-700v-597h744q14 0 14 -14v-67q0 -14 -14 -14h-835q-14 0 -14 14v1406q0 14 14 14h835q14 0 14 -14v-68q0 -13 -14 -13h-744v-553z" />
    <glyph glyph-name="F" unicode="F" horiz-adv-x="1144" 
d="M202 1434h835q14 0 14 -14v-68q0 -13 -14 -13h-744v-556h700q14 0 14 -14v-67q0 -14 -14 -14h-700v-674q0 -14 -14 -14h-77q-14 0 -14 14v1406q0 14 14 14z" />
    <glyph glyph-name="G" unicode="G" horiz-adv-x="1329" 
d="M759 1460h22q96 0 188 -26.5t154 -62.5q15 -7 15 -24v-65q0 -6 -4.5 -8.5t-9.5 -0.5q-88 45 -165 69t-173 24h-15q-101 0 -192 -35t-163 -101t-114.5 -172t-42.5 -238v-207q0 -132 41 -237.5t111.5 -171.5t160 -101t190.5 -35h15q137 0 269 65v556q0 13 14 13h76
q14 0 14 -13v-591q0 -18 -15 -27q-64 -39 -161 -68.5t-196 -29.5h-22q-94 0 -182 25t-165.5 77.5t-134.5 126t-90 177t-32 224.5v227q0 151 51 273t136.5 198.5t193.5 117.5t226 41z" />
    <glyph glyph-name="H" unicode="H" horiz-adv-x="1396" 
d="M1116 1434h78q14 0 14 -14v-1406q0 -14 -14 -14h-78q-13 0 -13 14v678h-810v-678q0 -14 -14 -14h-77q-14 0 -14 14v1406q0 14 14 14h77q14 0 14 -14v-634h810v634q0 14 13 14z" />
    <glyph glyph-name="I" unicode="I" horiz-adv-x="481" 
d="M202 1434h77q14 0 14 -14v-1406q0 -14 -14 -14h-77q-14 0 -14 14v1406q0 14 14 14z" />
    <glyph glyph-name="J" unicode="J" horiz-adv-x="798" 
d="M517 1434h80q13 0 13 -14v-1080q0 -188 -81 -277.5t-221 -89.5h-11q-51 0 -109.5 17t-100.5 44q-12 7 -12 19v70q0 6 5 9.5t11 -0.5q99 -64 196 -64h7q210 0 210 279v1073q0 14 13 14z" />
    <glyph glyph-name="K" unicode="K" horiz-adv-x="1251" 
d="M645 726l528 -706q4 -6 1 -13t-10 -7h-90q-10 0 -18 9l-505 667h-258v-662q0 -14 -14 -14h-77q-14 0 -14 14v1406q0 14 14 14h77q14 0 14 -14v-649h258l469 653q8 10 18 10h87q7 0 9.5 -7t-1.5 -13z" />
    <glyph glyph-name="L" unicode="L" horiz-adv-x="1081" 
d="M293 95h700q14 0 14 -14v-67q0 -14 -14 -14h-791q-14 0 -14 14v1406q0 14 14 14h77q14 0 14 -14v-1325z" />
    <glyph glyph-name="M" unicode="M" horiz-adv-x="1693" 
d="M1395 1434h96q14 0 14 -14v-1406q0 -14 -14 -14h-79q-13 0 -13 14l1 816l7 441h-8l-262 -441l-252 -411q-7 -14 -24 -14h-38q-17 0 -24 14l-253 411l-261 441h-8l7 -441l1 -816q0 -14 -13 -14h-80q-13 0 -13 14v1406q0 14 13 14h97q17 0 23 -15l527 -875h5l528 875
q6 15 23 15z" />
    <glyph glyph-name="N" unicode="N" horiz-adv-x="1394" 
d="M1125 1434h77q14 0 14 -14v-1406q0 -14 -14 -14h-94q-12 0 -20 11l-804 1261h-6l6 -520v-738q0 -14 -14 -14h-78q-13 0 -13 14v1406q0 14 13 14h95q12 0 20 -11l804 -1261h6l-6 633v625q0 14 14 14z" />
    <glyph glyph-name="O" unicode="O" horiz-adv-x="1413" 
d="M692 1460h30q114 0 211 -38t171 -111t116 -191t42 -268v-270q0 -150 -42 -268t-116 -191.5t-171 -111.5t-211 -38h-30q-114 0 -211 38t-171 111.5t-116 191.5t-42 268v270q0 150 42 268t116 191t171 111t211 38zM719 1365h-24q-197 0 -316.5 -130.5t-119.5 -386.5v-262
q0 -256 119.5 -387t316.5 -131h24q197 0 316.5 131t119.5 387v262q0 256 -119.5 386.5t-316.5 130.5z" />
    <glyph glyph-name="P" unicode="P" horiz-adv-x="1286" 
d="M202 1434h422q257 0 383 -106.5t126 -301.5v-43q0 -200 -128.5 -319t-383.5 -119h-328v-531q0 -14 -14 -14h-77q-14 0 -14 14v1406q0 14 14 14zM1027 990v23q0 158 -97.5 242t-316.5 84h-320v-702h319q216 0 315.5 95.5t99.5 257.5z" />
    <glyph glyph-name="Q" unicode="Q" horiz-adv-x="1413" 
d="M1262 852v-270q0 -188 -64 -321t-177 -206l236 -235q9 -9 0 -19l-50 -48q-9 -9 -19 0l-257 257q-99 -37 -209 -37h-30q-114 0 -211 38t-171 111.5t-116 191.5t-42 268v270q0 150 42 268t116 191t171 111t211 38h30q114 0 211 -38t171 -111t116 -191t42 -268zM695 68h24
q197 0 316.5 131t119.5 387v262q0 256 -119.5 386.5t-316.5 130.5h-24q-197 0 -316.5 -130.5t-119.5 -386.5v-262q0 -256 119.5 -387t316.5 -131z" />
    <glyph glyph-name="R" unicode="R" horiz-adv-x="1267" 
d="M202 1434h435q257 0 377.5 -99t120.5 -291v-35q0 -99 -36 -180t-118.5 -141.5t-203.5 -82.5l149 -210l263 -379q5 -6 2 -11t-11 -5h-88q-13 0 -21 13l-400 575h-378v-574q0 -14 -14 -14h-77q-14 0 -14 14v1406q0 14 14 14zM293 1339v-661h324q110 0 191.5 26.5t128.5 74
t69.5 106t22.5 129.5v14q0 156 -92 233.5t-311 77.5h-333z" />
    <glyph glyph-name="S" unicode="S" horiz-adv-x="1124" 
d="M480 707l98 -33q49 -16 78.5 -27t68.5 -28.5t62 -33t48 -38t38.5 -48t22 -59t8.5 -73.5v-8q0 -132 -99 -211.5t-254 -79.5h-15q-73 0 -145 16.5t-118.5 35.5t-116.5 53q-5 2 -10 -0.5t-5 -8.5v-67q0 -17 15 -25q67 -38 171.5 -68.5t210.5 -30.5h19q195 0 324.5 103.5
t129.5 274.5v20q0 72 -21 129.5t-53 97t-86.5 73.5t-105 55.5t-124.5 46.5l-99 33q-159 53 -231 114t-72 162v10q0 86 48.5 150t121.5 94t156 30h15q99 0 180.5 -24.5t170.5 -68.5q5 -2 9.5 0.5t4.5 8.5v66q0 18 -15 25q-60 35 -156 61t-196 26h-19q-109 0 -204 -40
t-158.5 -124t-63.5 -196v-23q0 -138 92.5 -223.5t274.5 -146.5z" />
    <glyph glyph-name="T" unicode="T" horiz-adv-x="1224" 
d="M89 1434h1046q14 0 14 -14v-68q0 -13 -14 -13h-471v-1325q0 -14 -13 -14h-78q-13 0 -13 14v1325h-471q-14 0 -14 13v68q0 14 14 14z" />
    <glyph glyph-name="U" unicode="U" horiz-adv-x="1398" 
d="M1129 1434h77q14 0 14 -14v-907q0 -264 -135.5 -402t-365.5 -138h-30q-230 0 -365.5 138t-135.5 402v907q0 14 14 14h77q14 0 14 -14v-899q0 -224 104.5 -338.5t294.5 -114.5h24q190 0 294.5 114.5t104.5 338.5v899q0 14 14 14z" />
    <glyph glyph-name="V" unicode="V" horiz-adv-x="1239" 
d="M1077 1434h76q16 0 11 -16l-462 -1401q-6 -17 -24 -17h-116q-18 1 -24 17l-462 1401q-5 16 11 16h76q16 0 23 -18l280 -840l151 -479h6l153 479l277 840q7 18 24 18z" />
    <glyph glyph-name="W" unicode="W" horiz-adv-x="1990" 
d="M1829 1434h75q16 0 11 -16l-403 -1401q-6 -17 -25 -17h-103q-20 0 -26 17l-155 540l-203 734h-8l-204 -734l-156 -540q-6 -17 -25 -17h-103q-20 0 -26 17l-402 1401q-5 16 11 16h75q16 0 23 -18l164 -578l205 -734h8l205 734l164 578q7 18 23 18h82q17 0 24 -18l164 -578
l205 -734h8l205 734l164 578q7 18 23 18z" />
    <glyph glyph-name="X" unicode="X" horiz-adv-x="1216" 
d="M1028 1434h87q6 0 10 -5.5t0 -11.5l-441 -686l456 -715q4 -6 -0.5 -11t-10.5 -5h-87q-14 0 -22 13l-307 478l-100 171h-8l-101 -171l-308 -478q-8 -13 -21 -13h-88q-6 0 -10 5t0 11l455 715l-440 686q-4 6 0 11.5t10 5.5h86q14 0 22 -13l292 -451l103 -171h8l102 171
l292 451q8 13 21 13z" />
    <glyph glyph-name="Y" unicode="Y" horiz-adv-x="1261" 
d="M1093 1434h82q16 0 10 -17l-502 -926v-477q0 -14 -14 -14h-76q-14 0 -14 14v477l-503 926q-2 6 1 11.5t10 5.5h81q16 0 24 -15l313 -568l123 -248h5l124 248l312 568q7 15 24 15z" />
    <glyph glyph-name="Z" unicode="Z" horiz-adv-x="1153" 
d="M232 95h803q13 0 13 -14v-67q0 -14 -13 -14h-917q-14 0 -14 14v65q0 7 6 17l800 1243h-764q-14 0 -14 13v68q0 14 14 14h878q14 0 14 -14v-66q0 -7 -6 -17z" />
    <glyph glyph-name="bracketleft" unicode="[" horiz-adv-x="651" 
d="M293 -174h270q13 0 13 -13v-60q0 -13 -13 -13h-361q-14 0 -14 13v1667q0 14 14 14h361q13 0 13 -14v-59q0 -14 -13 -14h-270v-1521z" />
    <glyph glyph-name="backslash" unicode="\" horiz-adv-x="606" 
d="M92 1434h47q22 0 25 -18l366 -1394q6 -22 -15 -22h-47q-20 0 -25 18l-366 1393q-6 23 15 23z" />
    <glyph glyph-name="bracketright" unicode="]" horiz-adv-x="651" 
d="M89 1434h361q14 0 14 -14v-1666q0 -14 -14 -14h-361q-14 0 -14 14v59q0 13 14 13h270v1521h-270q-14 0 -14 14v59q0 14 14 14z" />
    <glyph glyph-name="asciicircum" unicode="^" horiz-adv-x="759" 
d="M427 1442l257 -688q4 -10 -1 -16.5t-15 -6.5h-55q-20 0 -23 16l-207 586h-5l-208 -586q-3 -16 -23 -16h-55q-10 0 -14.5 6.5t-0.5 16.5l256 688q5 14 21 14h53q15 0 20 -14z" />
    <glyph glyph-name="underscore" unicode="_" horiz-adv-x="1099" 
d="M89 -87h923q13 0 13 -13v-60q0 -13 -13 -13h-923q-14 0 -14 13v60q0 13 14 13z" />
    <glyph glyph-name="grave" unicode="`" horiz-adv-x="399" 
d="M176 1938l147 -322q3 -7 1 -12t-9 -5h-48q-15 0 -23 16l-167 320q-3 7 0.5 13t11.5 6h61q18 0 26 -16z" />
    <glyph glyph-name="a" unicode="a" horiz-adv-x="1001" 
d="M503 1051h11q179 0 261 -94t83 -291v-652q0 -14 -13 -14h-69q-11 0 -13 12l-4 131q-70 -81 -164 -125.5t-181 -44.5h-12q-150 0 -238.5 80t-88.5 213v11q0 164 115 243t355 89l211 7v50q0 154 -57 226t-200 72h-8q-147 0 -322 -83q-5 -2 -9.5 0t-4.5 8v58q0 18 14 24
q66 33 160.5 56.5t173.5 23.5zM756 540l-227 -8q-181 -7 -266.5 -68t-85.5 -180v-9q0 -98 68.5 -157t184.5 -59h9q168 0 317 172v309z" />
    <glyph glyph-name="b" unicode="b" horiz-adv-x="1116" 
d="M587 1051h10q187 0 289 -120.5t102 -338.5v-156q0 -221 -113.5 -342t-302.5 -121h-14q-96 0 -211 36t-186 79q-14 9 -14 25v1383q0 13 14 13h74q14 0 14 -13v-608q70 80 161.5 121.5t176.5 41.5zM884 431v161q0 181 -79.5 276t-228.5 95h-5q-171 0 -322 -172v-637
q162 -94 310 -94h9q145 0 230.5 96.5t85.5 274.5z" />
    <glyph glyph-name="c" unicode="c" horiz-adv-x="1017" 
d="M576 1051h22q71 0 147 -23.5t133 -57.5q15 -6 15 -24v-59q0 -6 -4.5 -8.5t-9.5 0.5q-148 84 -273 84h-17q-154 0 -256 -100t-102 -279v-144q0 -179 102 -279t256 -100h17q125 0 273 84q5 3 9.5 0.5t4.5 -8.5v-59q0 -18 -15 -24q-57 -34 -133 -57.5t-147 -23.5h-22
q-92 0 -172.5 30.5t-142 87.5t-97.5 147.5t-36 202.5v142q0 112 36 202.5t97.5 147.5t142 87.5t172.5 30.5z" />
    <glyph glyph-name="d" unicode="d" horiz-adv-x="1116" 
d="M881 1509h74q14 0 14 -13v-1482q0 -14 -14 -14h-68q-12 0 -14 12l-2 128q-70 -82 -162.5 -124.5t-179.5 -42.5h-10q-187 0 -289 120t-102 339v156q0 224 105 343.5t292 119.5h11q83 0 172 -40t159 -119v604q0 13 14 13zM545 963h-5q-150 0 -229.5 -95t-79.5 -276v-160
q0 -181 79.5 -276t229.5 -95h5q171 0 322 172v557q-152 173 -322 173z" />
    <glyph glyph-name="e" unicode="e" horiz-adv-x="1085" 
d="M550 1051h22q186 0 287.5 -118t101.5 -342v-66q0 -17 -17 -17h-712v-108q0 -158 100 -249t257 -91h9q143 0 315 85q5 3 9.5 0.5t4.5 -8.5v-59q0 -18 -15 -24q-61 -33 -153 -57t-169 -24h-14q-196 0 -322 116t-126 319v157q0 224 118.5 355t303.5 131zM568 967h-16
q-142 0 -230.5 -104t-89.5 -281h631q1 196 -73 290.5t-222 94.5z" />
    <glyph glyph-name="f" unicode="f" horiz-adv-x="724" 
d="M656 1499q14 -5 14 -21v-51q0 -8 -5 -11.5t-12 -0.5q-82 34 -152 34h-9q-80 0 -134 -52.5t-54 -159.5v-213h296q13 0 13 -14v-59q0 -13 -13 -13h-296v-924q0 -14 -13 -14h-75q-13 0 -13 14v924h-135q-13 0 -13 13v59q0 14 13 14h135v223q0 142 78 215.5t196 73.5h14
q87 0 165 -37z" />
    <glyph glyph-name="g" unicode="g" horiz-adv-x="1105" 
d="M945 936q14 -9 14 -25v-885q0 -193 -105 -294t-289 -101h-12q-164 0 -324 79q-14 6 -14 24v59q0 6 4.5 8.5t9.5 0.5q170 -85 312 -85h8q308 0 308 307v124q-72 -81 -163 -122t-175 -41h-10q-185 0 -283 119t-98 339v145q0 223 109 343t297 120h14q96 0 211 -36t186 -79z
M530 73h5q171 0 322 172v625q-162 94 -310 94h-9q-145 0 -226 -95.5t-81 -274.5v-151q0 -182 75.5 -276t223.5 -94z" />
    <glyph glyph-name="h" unicode="h" horiz-adv-x="1110" 
d="M610 1051h12q344 0 344 -375v-662q0 -14 -13 -14h-75q-13 0 -13 14v651q0 147 -63.5 222.5t-206.5 75.5h-5q-80 0 -168 -42.5t-169 -114.5v-792q0 -14 -14 -14h-74q-14 0 -14 14v1482q0 13 14 13h74q14 0 14 -13v-601q81 71 176.5 113.5t180.5 42.5z" />
    <glyph glyph-name="i" unicode="i" horiz-adv-x="423" 
d="M166 1356h96q15 0 15 -15v-110q0 -16 -15 -16h-96q-15 0 -15 16v110q0 15 15 15zM177 1024h74q14 0 14 -14v-996q0 -14 -14 -14h-74q-14 0 -14 14v996q0 14 14 14z" />
    <glyph glyph-name="j" unicode="j" horiz-adv-x="563" 
d="M306 1356h95q15 0 15 -15v-110q0 -16 -15 -16h-95q-15 0 -15 16v110q0 15 15 15zM316 1024h75q13 0 13 -14v-1168q0 -106 -56 -158.5t-139 -52.5h-14q-66 0 -126 27q-14 6 -14 23v48q0 19 17 12q56 -24 109 -24h9q47 0 80 29t33 95v1169q0 14 13 14z" />
    <glyph glyph-name="k" unicode="k" horiz-adv-x="972" 
d="M547 530l367 -508q5 -8 2 -15t-12 -7h-83q-13 0 -19 10l-347 474h-202v-470q0 -14 -14 -14h-74q-14 0 -14 14v1482q0 13 14 13h74q14 0 14 -13v-925h203l307 442q7 11 20 11h77q9 0 12.5 -7t-1.5 -15z" />
    <glyph glyph-name="l" unicode="l" horiz-adv-x="395" 
d="M165 1509h74q14 0 14 -13v-1482q0 -14 -14 -14h-74q-14 0 -14 14v1482q0 13 14 13z" />
    <glyph glyph-name="m" unicode="m" horiz-adv-x="1785" 
d="M1302 1051h11q173 0 251.5 -95.5t78.5 -279.5v-662q0 -14 -14 -14h-74q-14 0 -14 14v651q0 150 -56.5 224t-197.5 74h-5q-82 0 -173.5 -45.5t-174.5 -121.5q12 -58 12 -133v-649q0 -14 -14 -14h-74q-14 0 -14 14v651q0 150 -56.5 224t-197.5 74h-5q-79 0 -167.5 -42
t-168.5 -114v-793q0 -14 -14 -14h-74q-14 0 -14 14v996q0 14 14 14h68q12 0 14 -12l3 -119q81 71 177.5 114.5t181.5 43.5h11q234 0 301 -182q89 84 191.5 133t193.5 49z" />
    <glyph glyph-name="n" unicode="n" horiz-adv-x="1099" 
d="M605 1051h11q341 0 341 -375v-662q0 -14 -14 -14h-74q-14 0 -14 14v651q0 148 -61 223t-204 75h-5q-79 0 -167.5 -42t-168.5 -114v-793q0 -14 -14 -14h-74q-14 0 -14 14v996q0 14 14 14h68q12 0 14 -12l3 -119q81 71 177.5 114.5t181.5 43.5z" />
    <glyph glyph-name="o" unicode="o" horiz-adv-x="1144" 
d="M561 1051h23q190 0 311.5 -122t121.5 -341v-152q0 -219 -121.5 -341t-311.5 -122h-23q-190 0 -311.5 122t-121.5 341v152q0 219 121.5 341t311.5 122zM581 963h-17q-149 0 -241 -97t-92 -274v-160q0 -177 92 -274t241 -97h17q149 0 241 97t92 274v160q0 177 -92 274
t-241 97z" />
    <glyph glyph-name="p" unicode="p" horiz-adv-x="1120" 
d="M591 1051h10q187 0 289 -120.5t102 -338.5v-156q0 -224 -105.5 -343.5t-291.5 -119.5h-11q-83 0 -172 40t-159 119v-460q0 -14 -14 -14h-74q-14 0 -14 14v1338q0 14 14 14h68q12 0 14 -12l2 -128q70 82 162.5 124.5t179.5 42.5zM580 963h-5q-171 0 -322 -172v-557
q152 -173 322 -173h5q149 0 229 95t80 276v160q0 181 -80 276t-229 95z" />
    <glyph glyph-name="q" unicode="q" horiz-adv-x="1105" 
d="M534 1051h14q96 0 211.5 -36.5t186.5 -78.5q13 -9 13 -25v-1239q0 -14 -13 -14h-75q-14 0 -14 14v464q-70 -80 -161 -121.5t-176 -41.5h-11q-185 0 -283 119.5t-98 339.5v156q0 223 109 343t297 120zM547 964h-8q-145 0 -226.5 -96t-81.5 -275v-161q0 -182 75.5 -276.5
t223.5 -94.5h5q171 0 322 172v637q-162 94 -310 94z" />
    <glyph glyph-name="r" unicode="r" horiz-adv-x="720" 
d="M584 1051h9q34 0 58 -4q15 -3 15 -20v-64q0 -16 -21 -13q-32 5 -63 5h-6q-162 0 -327 -191v-750q0 -14 -14 -14h-74q-14 0 -14 14v996q0 14 14 14h68q12 0 14 -12l4 -150q75 92 162.5 140.5t174.5 48.5z" />
    <glyph glyph-name="s" unicode="s" horiz-adv-x="870" 
d="M423 1051h22q68 0 151 -23t134 -54q15 -6 15 -24v-57q0 -6 -4.5 -8.5t-9.5 -0.5q-150 84 -282 84h-15q-104 0 -175.5 -48.5t-71.5 -134.5v-13q0 -18 4 -34t9 -28.5t17.5 -25l20.5 -20.5t26.5 -18t27.5 -15t32.5 -14t31.5 -11.5t35 -11.5l33 -11l54 -18q62 -20 102 -36
t83 -41t67 -53.5t40 -70.5t16 -95v-10q0 -135 -101 -210.5t-246 -75.5h-21q-71 0 -162.5 23.5t-142.5 54.5q-14 6 -14 24v57q0 6 4.5 8t9.5 0q151 -84 302 -84h17q107 0 179.5 52t72.5 146v12q0 37 -14 67t-31.5 48.5t-53 37t-57.5 26.5t-67 23l-53 17q-141 47 -192 76
q-131 72 -131 203v14q0 128 99 200.5t239 72.5z" />
    <glyph glyph-name="t" unicode="t" horiz-adv-x="671" 
d="M213 1250l68 16q21 6 21 -14v-228h301q13 0 13 -14v-59q0 -13 -13 -13h-301v-711q0 -85 34 -125.5t111 -40.5h8q57 0 144 35q7 3 12 -1t5 -12v-50q0 -16 -13 -21q-87 -39 -160 -39h-14q-229 0 -229 244v721h-132q-13 0 -13 13v54q0 11 13 13l132 6v205q0 19 13 21z" />
    <glyph glyph-name="u" unicode="u" 
d="M849 1024h74q14 0 14 -14v-996q0 -14 -14 -14h-68q-12 0 -14 12l-3 119q-81 -71 -177.5 -114.5t-181.5 -43.5h-11q-170 0 -247.5 95.5t-77.5 279.5v662q0 14 14 14h74q14 0 14 -14v-651q0 -149 55.5 -223.5t193.5 -74.5h5q79 0 167.5 42t168.5 114v793q0 14 14 14z" />
    <glyph glyph-name="v" unicode="v" horiz-adv-x="1005" 
d="M866 1024h74q15 0 10 -16l-373 -991q-6 -17 -23 -17h-100q-21 0 -24 17l-374 991q-5 16 12 16h72q17 0 23 -17l182 -481l157 -436h4l155 436l182 481q6 17 23 17z" />
    <glyph glyph-name="w" unicode="w" horiz-adv-x="1529" 
d="M1391 1024h71q17 0 12 -16l-301 -991q-6 -17 -23 -17h-94q-17 0 -23 17l-90 299l-175 598h-8l-173 -598l-91 -299q-6 -17 -23 -17h-93q-20 0 -23 17l-301 991q-5 16 12 16h71q17 0 23 -17l130 -434l137 -476h5l137 476l128 434q3 17 23 17h86q17 0 23 -17l130 -434
l136 -476h6l135 476l129 434q6 17 24 17z" />
    <glyph glyph-name="x" unicode="x" horiz-adv-x="923" 
d="M762 1024h77q9 0 12 -7t-2 -15l-317 -475l335 -505q5 -8 1.5 -15t-12.5 -7h-78q-13 0 -20 10l-234 349l-58 99h-7l-59 -99l-234 -349q-7 -10 -19 -10h-79q-9 0 -12 7t2 15l335 505l-320 475q-4 8 -1 15t12 7h77q15 0 20 -11l219 -322l59 -99h6l59 99l218 322q9 11 20 11z
" />
    <glyph glyph-name="y" unicode="y" horiz-adv-x="1011" 
d="M873 1024h73q16 0 11 -16l-420 -1105q-54 -143 -116 -207.5t-168 -64.5h-13q-67 0 -136 30q-14 5 -14 21v53q0 8 5 11.5t12 0.5q71 -29 127 -29h7q64 0 107.5 40.5t82.5 142.5l37 99h-13q-17 0 -23 17l-376 991q-5 16 12 16h72q17 0 23 -17l215 -561l126 -356h5l126 356
l215 561q6 17 23 17z" />
    <glyph glyph-name="z" unicode="z" horiz-adv-x="897" 
d="M200 88h609q13 0 13 -14v-60q0 -14 -13 -14h-720q-14 0 -14 14v53q0 13 9 26l603 843h-569q-14 0 -14 14v60q0 14 14 14h680q14 0 14 -14v-53q0 -13 -9 -26z" />
    <glyph glyph-name="braceleft" unicode="{" horiz-adv-x="720" 
d="M363 1285v-599q0 -68 -55 -100q55 -32 55 -100v-598q0 -28 15.5 -45t42.5 -17h212q13 0 13 -13v-59q0 -14 -13 -14h-254q-53 0 -87 34t-34 87v620q0 28 -16 45t-43 17h-110q-14 0 -14 13v59q0 14 14 14h110q27 0 43 17t16 45v621q0 53 34 87.5t87 34.5h254q13 0 13 -14
v-59q0 -14 -13 -14h-212q-27 0 -42.5 -17t-15.5 -45z" />
    <glyph glyph-name="bar" unicode="|" horiz-adv-x="481" 
d="M202 1434h77q14 0 14 -14v-1558q0 -14 -14 -14h-77q-14 0 -14 14v1558q0 14 14 14z" />
    <glyph glyph-name="braceright" unicode="}" horiz-adv-x="720" 
d="M522 629h111q13 0 13 -14v-59q0 -13 -13 -13h-111q-27 0 -42.5 -17t-15.5 -45v-620q0 -53 -34.5 -87t-87.5 -34h-253q-14 0 -14 14v59q0 13 14 13h212q27 0 42.5 17t15.5 45v598q0 68 55 100q-55 32 -55 100v599q0 28 -15.5 45t-42.5 17h-212q-14 0 -14 14v59q0 14 14 14
h253q53 0 87.5 -34.5t34.5 -87.5v-621q0 -28 15.5 -45t42.5 -17z" />
    <glyph glyph-name="asciitilde" unicode="~" horiz-adv-x="931" 
d="M309 719q46 0 90 -15.5t73.5 -34.5t71 -34.5t82.5 -15.5q36 0 81 14.5t64 24t65 33.5q10 5 16 1t6 -13v-48q0 -14 -14 -21q-87 -50 -135 -64q-43 -13 -85 -13q-57 0 -110.5 25t-104.5 50t-102 25q-36 0 -81 -14.5t-64 -24t-65 -33.5q-10 -5 -16 -1t-6 13v48q0 15 9 20
q5 3 27 15t30.5 16t28.5 13.5t33 13.5t32 10t37 8t37 2z" />
    <glyph glyph-name="exclamdown" unicode="&#xa1;" horiz-adv-x="288" 
d="M92 1092h105q16 0 16 -16v-114q0 -16 -16 -16h-105q-15 0 -15 16v114q0 16 15 16zM117 687h56q13 0 13 -14l14 -1001q0 -14 -13 -14h-84q-14 0 -14 14l14 1001q0 14 14 14z" />
    <glyph glyph-name="cent" unicode="&#xa2;" horiz-adv-x="1017" 
d="M606 963h-17q-154 0 -256 -100t-102 -279v-144q0 -179 102 -279t256 -100h17q125 0 273 84q5 3 9.5 0.5t4.5 -8.5v-59q0 -18 -15 -24q-114 -69 -248 -79v-248q0 -14 -14 -14h-58q-13 0 -13 14v247q-87 5 -161.5 37.5t-132 90t-90.5 145t-33 194.5v142q0 107 33 194.5
t90.5 145t132 90t161.5 37.5v247q0 14 13 14h58q14 0 14 -14v-248q134 -10 248 -79q15 -6 15 -24v-59q0 -6 -4.5 -8.5t-9.5 0.5q-148 84 -273 84z" />
    <glyph glyph-name="sterling" unicode="&#xa3;" horiz-adv-x="1101" 
d="M233 95h756q13 0 13 -14v-67q0 -14 -13 -14h-848q-13 0 -13 14v56q0 11 5 22q3 6 20 39.5t22 43.5t19 41t19 47.5t14.5 48t13 56.5t7 58.5t3.5 68.5q0 65 -12 144h-150q-14 0 -14 14v48q0 13 14 13h137q-2 11 -8.5 46t-9 50t-7.5 46.5t-7 53.5t-4 51.5t-2 57.5v21
q0 188 120.5 304t309.5 116h19q169 0 321 -87q15 -7 15 -25v-66q0 -6 -4.5 -8.5t-9.5 -0.5q-63 33 -97 48t-95 30t-128 15h-15q-145 0 -237.5 -93.5t-92.5 -248.5v-10q0 -28 2 -57.5t4 -50.5t6.5 -52.5t7 -45.5t8.5 -49.5t8 -44.5h453q14 0 14 -13v-48q0 -14 -14 -14h-441
q11 -81 11 -137q0 -124 -29.5 -215.5t-90.5 -191.5z" />
    <glyph glyph-name="currency" unicode="&#xa4;" horiz-adv-x="1245" 
d="M995 261l170 -170q9 -9 0 -19l-42 -42q-9 -10 -19 0l-170 170q-133 -111 -310 -112q-181 2 -313 113l-171 -171q-10 -10 -19 0l-42 42q-9 10 0 19l172 171q-110 133 -109 309q1 178 111 310l-173 173q-10 10 0 20l41 41q10 10 20 0l173 -173q132 110 310 110
q175 0 308 -109l172 172q10 9 19 0l42 -41q10 -10 0 -20l-172 -171q114 -135 114 -312q0 -176 -112 -310zM624 176q165 0 279.5 115.5t114.5 279.5t-115 279t-279 114q-164 1 -277.5 -113t-115.5 -280q-1 -165 113.5 -280t279.5 -115z" />
    <glyph glyph-name="yen" unicode="&#xa5;" horiz-adv-x="1261" 
d="M1093 1434h82q16 0 10 -17l-463 -853h312q14 0 14 -14v-48q0 -14 -14 -14h-351v-213h351q14 0 14 -14v-48q0 -13 -14 -13h-351v-186q0 -14 -14 -14h-76q-14 0 -14 14v186h-351q-14 0 -14 13v48q0 14 14 14h351v213h-351q-14 0 -14 14v48q0 14 14 14h311l-463 853
q-2 6 1 11.5t10 5.5h81q16 0 24 -15l313 -568l123 -248h5l124 248l312 568q7 15 24 15z" />
    <glyph glyph-name="brokenbar" unicode="&#xa6;" horiz-adv-x="481" 
d="M202 1434h77q14 0 14 -14v-624q0 -13 -14 -13h-77q-14 0 -14 13v624q0 14 14 14zM202 499h77q14 0 14 -13v-624q0 -14 -14 -14h-77q-14 0 -14 14v624q0 13 14 13z" />
    <glyph glyph-name="section" unicode="&#xa7;" horiz-adv-x="888" 
d="M438 1329h22q68 0 151 -23t134 -54q15 -6 15 -24v-56q0 -6 -4.5 -8.5t-9.5 -0.5q-150 84 -282 84h-15q-101 0 -167 -50t-66 -134v-12q0 -40 16 -70t54 -51.5t63.5 -32t79.5 -28.5q16 -5 24 -8l53 -18q63 -21 102.5 -36.5t83 -40.5t67 -53t39.5 -70t16 -95v-11
q0 -87 -44.5 -149.5t-120.5 -95.5q126 -72 126 -198v-14q0 -127 -93.5 -200t-230.5 -73h-22q-68 0 -151 23t-134 54q-14 6 -14 24v57q0 6 4 8.5t9 0.5q150 -84 282 -84h16q101 0 167 49.5t66 133.5v13q0 18 -4 34t-9.5 28.5t-17.5 25t-20 20.5t-27 18t-28 15t-32 14t-32 12
t-35 11.5t-33 10.5l-53 18q-62 20 -102 36t-83 41t-67 53.5t-40 70.5t-16 95v11q0 88 44.5 150t120.5 95q-126 72 -126 198v14q0 127 93 199.5t231 72.5zM502 742l-165 56q-77 -17 -124.5 -65.5t-47.5 -123.5v-13q0 -37 14 -67t31.5 -48.5t53 -37t57.5 -26.5t67 -23l164 -55
q77 17 124.5 65.5t47.5 123.5v13q0 37 -14 67t-31 48t-53 36.5t-57 26.5t-67 23z" />
    <glyph glyph-name="dieresis" unicode="&#xa8;" horiz-adv-x="573" 
d="M91 1770h96q16 0 16 -15v-115q0 -15 -16 -15h-96q-16 0 -16 15v115q0 15 16 15zM385 1770h97q15 0 15 -15v-115q0 -15 -15 -15h-97q-15 0 -15 15v115q0 15 15 15z" />
    <glyph glyph-name="copyright" unicode="&#xa9;" horiz-adv-x="1273" 
d="M637 1536q120 0 225.5 -44.5t178.5 -120t115 -176.5t42 -212t-42 -212t-115 -176.5t-178.5 -120t-225.5 -44.5q-160 0 -290 76t-201 202.5t-71 274.5t71 274.5t201 202.5t290 76zM637 1474q-144 0 -259 -67t-177 -178.5t-62 -245.5t62 -245.5t177 -178.5t259 -67
t258.5 67t176.5 178.5t62 245.5t-62 245.5t-176.5 178.5t-258.5 67zM652 1197l-9 -1q-74 0 -123.5 -49t-49.5 -132v-77q0 -83 49.5 -132.5t123.5 -49.5h9q58 0 138 40q13 4 13 -7v-43q0 -10 -11 -17q-21 -13 -65.5 -25.5t-78.5 -12.5h-10q-103 0 -172 65t-69 182v78
q0 117 68.5 181.5t172.5 64.5h10q34 0 78.5 -12.5t65.5 -25.5q11 -7 11 -17v-43q0 -11 -13 -7q-80 40 -138 40z" />
    <glyph glyph-name="guillemotleft" unicode="&#xab;" horiz-adv-x="798" 
d="M478 525l243 -305q4 -6 2 -10.5t-9 -4.5h-63q-10 0 -18 8l-239 280q-8 10 -8 21v21q0 11 8 21l239 280q8 8 18 8h63q7 0 9 -4.5t-2 -10.5zM167 524l243 -304q4 -6 2 -10.5t-9 -4.5h-63q-9 0 -17 8l-240 280q-8 10 -8 21v21q0 11 8 21l240 280q8 8 17 8h63q7 0 9 -4.5
t-2 -10.5z" />
    <glyph glyph-name="logicalnot" unicode="&#xac;" horiz-adv-x="1099" 
d="M89 699h923q13 0 13 -14v-304q0 -13 -13 -13h-63q-13 0 -13 13v231h-847q-14 0 -14 14v59q0 14 14 14z" />
    <glyph glyph-name="registered" unicode="&#xae;" horiz-adv-x="1273" 
d="M637 1536q120 0 225.5 -44.5t178.5 -120t115 -176.5t42 -212t-42 -212t-115 -176.5t-178.5 -120t-225.5 -44.5q-160 0 -290 76t-201 202.5t-71 274.5t71 274.5t201 202.5t290 76zM637 1474q-144 0 -259 -67t-177 -178.5t-62 -245.5t62 -245.5t177 -178.5t259 -67
t258.5 67t176.5 178.5t62 245.5t-62 245.5t-176.5 178.5t-258.5 67zM436 1262h222q100 0 149 -45t49 -123v-11q0 -62 -36 -106.5t-108 -55.5l35 -46l132 -185q4 -4 1.5 -8.5t-8.5 -4.5h-60q-9 1 -14 8l-163 228h-133v-229q0 -7 -7 -7h-59q-7 0 -7 7v571q0 7 7 7zM502 975
h149q67 0 99 30.5t32 76.5v11q0 47 -31.5 75.5t-99.5 28.5h-149v-222z" />
    <glyph glyph-name="macron" unicode="&#xaf;" horiz-adv-x="679" 
d="M89 1707h503q14 0 14 -13v-55q0 -14 -14 -14h-503q-14 0 -14 14v55q0 13 14 13z" />
    <glyph glyph-name="degree" unicode="&#xb0;" horiz-adv-x="653" 
d="M325 1536q106 0 179 -71.5t73 -173.5q0 -103 -73 -174.5t-179 -72.5q-105 0 -177.5 72.5t-72.5 174.5t72.5 173.5t177.5 71.5zM325 1465q-76 0 -126.5 -50t-50.5 -124t51 -124.5t126 -50.5q77 0 128 50.5t51 124.5t-51 124.5t-128 49.5z" />
    <glyph glyph-name="plusminus" unicode="&#xb1;" horiz-adv-x="1101" 
d="M596 708h418q13 0 13 -14v-59q0 -13 -13 -13h-419v-303q0 -14 -13 -14h-62q-13 0 -13 14v303h-418q-14 0 -14 13v59q0 14 14 14h418v302q0 14 14 14h61q14 0 14 -14v-302zM89 201h925q13 0 13 -14v-48q0 -13 -13 -13h-925q-14 0 -14 13v48q0 14 14 14z" />
    <glyph glyph-name="acute" unicode="&#xb4;" horiz-adv-x="399" 
d="M77 1616l147 322q8 16 26 16h62q8 0 11.5 -6t0.5 -13l-168 -320q-8 -16 -23 -16h-48q-7 0 -9 5t1 12z" />
    <glyph glyph-name="paragraph" unicode="&#xb6;" 
d="M440 1434h438q13 0 13 -14v-1748q0 -14 -13 -14h-59q-13 0 -13 14v1690h-281v-1690q0 -14 -13 -14h-59q-13 0 -13 14v959q-365 0 -365 393q0 209 97.5 309.5t267.5 100.5z" />
    <glyph glyph-name="periodcentered" unicode="&#xb7;" horiz-adv-x="286" 
d="M91 668h105q15 0 15 -16v-115q0 -15 -15 -15h-105q-16 0 -16 15v115q0 16 16 16z" />
    <glyph glyph-name="cedilla" unicode="&#xb8;" horiz-adv-x="495" 
d="M208 0l-22 -129q36 10 71 10q74 0 119 -41t45 -112q0 -80 -55.5 -124t-144.5 -44q-73 0 -127 20q-19 6 -19 26v25q0 16 15 12q4 -1 21 -5t29.5 -7t32.5 -5.5t38 -2.5q63 0 99 25t36 75q0 45 -29 68.5t-77 23.5q-17 0 -84 -14q-18 -4 -25 3l-7 6q-13 11 -11 21l30 169h65z
" />
    <glyph glyph-name="guillemotright" unicode="&#xbb;" horiz-adv-x="798" 
d="M321 525l-243 304q-4 6 -2 10.5t9 4.5h63q9 0 17 -8l240 -280q8 -10 8 -21v-21q0 -11 -8 -21l-240 -280q-8 -8 -17 -8h-63q-7 0 -9 4.5t2 10.5zM631 525l-242 304q-4 6 -2 10.5t9 4.5h63q9 0 17 -8l240 -280q8 -10 8 -21v-21q0 -11 -8 -21l-240 -280q-8 -8 -17 -8h-63
q-7 0 -9 4.5t2 10.5z" />
    <glyph glyph-name="onequarter" unicode="&#xbc;" horiz-adv-x="1761" 
d="M356 743h161q13 0 13 -14v-54q0 -13 -13 -13h-428q-14 0 -14 13v54q0 14 14 14h180v596l-180 -73q-14 -4 -14 10v52q0 16 14 21l196 80q13 5 27 5h31q13 0 13 -14v-677zM1092 1434h48q10 0 14 -7t0 -15l-662 -1394q-9 -18 -27 -18h-48q-10 0 -14 6.5t0 14.5l662 1395
q9 18 27 18zM1512 278h161q14 0 14 -13v-50q0 -14 -14 -14h-161v-187q0 -14 -13 -14h-60q-14 0 -14 14v187h-385q-14 0 -14 14v39q0 11 8 22l347 476q14 20 37 20h81q13 0 13 -14v-480zM1425 692l-303 -414h303v414z" />
    <glyph glyph-name="onehalf" unicode="&#xbd;" horiz-adv-x="1644" 
d="M356 743h161q13 0 13 -14v-54q0 -13 -13 -13h-428q-14 0 -14 13v54q0 14 14 14h180v596l-180 -73q-14 -4 -14 10v52q0 16 14 21l196 80q13 5 27 5h31q13 0 13 -14v-677zM1092 1434h48q10 0 14 -7t0 -15l-662 -1394q-9 -18 -27 -18h-48q-10 0 -14 6.5t0 14.5l662 1395
q9 18 27 18zM1274 799h18q100 0 173 -60.5t73 -161.5v-20q0 -23 -4.5 -45t-16 -45.5t-22 -42.5t-33 -44.5t-37 -42.5t-45.5 -46.5t-48 -45t-55.5 -50t-56.5 -51.5l-70 -63h406q13 0 13 -13v-54q0 -14 -13 -14h-516q-14 0 -14 14v50q0 11 7 18l116 100q160 146 198 185
q101 108 102 185v9q0 74 -50 116.5t-116 42.5h-14q-53 0 -98 -14t-105 -44q-5 -2 -9.5 0t-4.5 8v52q0 17 15 23q102 54 207 54z" />
    <glyph glyph-name="threequarters" unicode="&#xbe;" horiz-adv-x="1832" 
d="M312 1460h10q111 0 186.5 -58t75.5 -154v-15q0 -56 -31 -100t-82 -71q59 -24 95 -72t36 -114v-20q0 -96 -80.5 -158.5t-202.5 -62.5h-14q-109 0 -215 53q-15 6 -15 23v50q0 6 4.5 8.5t9.5 0.5q125 -58 212 -58h12q87 0 143.5 44t56.5 115v10q0 54 -42 97.5t-129 43.5
h-127q-13 0 -13 13v44q0 13 13 13h111q83 0 126.5 43t43.5 94v5q0 70 -52.5 110t-128.5 40h-6q-83 0 -208 -58q-5 -2 -9.5 0.5t-4.5 8.5v49q0 17 15 23q106 53 210 53zM1163 1434h49q10 0 14 -7t0 -15l-663 -1394q-9 -18 -27 -18h-48q-10 0 -14 6.5t0 14.5l662 1395
q9 18 27 18zM1584 279h160q14 0 14 -14v-50q0 -14 -14 -14h-160v-187q0 -14 -14 -14h-60q-13 0 -13 14v187h-386q-13 0 -13 14v39q0 12 7 22l347 476q14 20 37 20h81q14 0 14 -13v-480zM1497 692l-304 -413h304v413z" />
    <glyph glyph-name="questiondown" unicode="&#xbf;" horiz-adv-x="1028" 
d="M616 1092h106q15 0 15 -16v-114q0 -16 -15 -16h-106q-15 0 -15 16v114q0 16 15 16zM641 687h56q14 0 14 -14l4 -282q0 -13 -10 -22l-14 -10q-12 -9 -33 -7q-8 1 -29 4.5t-40.5 5.5t-44.5 2q-91 0 -161.5 -25.5t-113.5 -69.5t-65 -99t-22 -117v-13q0 -137 101.5 -225.5
t275.5 -88.5h15q105 0 190 24.5t173 68.5q5 2 10 -0.5t5 -8.5v-67q0 -17 -15 -24q-61 -35 -160 -61.5t-205 -26.5h-19q-215 0 -346.5 111.5t-131.5 281.5v35q0 161 115 272.5t312 111.5q60 0 123 -10l3 240q0 14 13 14z" />
    <glyph glyph-name="Agrave" unicode="&#xc0;" horiz-adv-x="1267" 
d="M527 1938l148 -322q3 -7 0.5 -12t-9.5 -5h-47q-15 0 -23 16l-168 320q-3 7 0.5 13t11.5 6h62q17 0 25 -16zM576 1434h115q18 0 24 -19l476 -1401q3 -14 -10 -14h-77q-18 0 -24 19l-152 441h-589l-152 -441q-6 -19 -24 -19h-77q-14 0 -10 14l476 1401q6 18 24 19z
M630 1336l-191 -572l-72 -209h534l-73 209l-192 572h-6z" />
    <glyph glyph-name="Aacute" unicode="&#xc1;" horiz-adv-x="1267" 
d="M591 1616l147 322q8 16 26 16h62q8 0 11.5 -6t0.5 -13l-168 -320q-8 -16 -23 -16h-48q-7 0 -9 5t1 12zM576 1434h115q18 0 24 -19l476 -1401q3 -14 -10 -14h-77q-18 0 -24 19l-152 441h-589l-152 -441q-6 -19 -24 -19h-77q-14 0 -10 14l476 1401q6 18 24 19zM630 1336
l-191 -572l-72 -209h534l-73 209l-192 572h-6z" />
    <glyph glyph-name="Acircumflex" unicode="&#xc2;" horiz-adv-x="1267" 
d="M678 1938l184 -320q4 -7 0 -13t-12 -6h-56q-17 0 -25 16l-135 264l-135 -264q-8 -16 -26 -16h-56q-8 0 -12 6t0 13l184 320q8 16 24 16h42q15 0 23 -16zM576 1434h115q18 0 24 -19l476 -1401q3 -14 -10 -14h-77q-18 0 -24 19l-152 441h-589l-152 -441q-6 -19 -24 -19h-77
q-14 0 -10 14l476 1401q6 18 24 19zM630 1336l-191 -572l-73 -209h535l-73 209l-192 572h-6z" />
    <glyph glyph-name="Atilde" unicode="&#xc3;" horiz-adv-x="1267" 
d="M870 1757h37q17 0 11 -17q-21 -66 -72.5 -113.5t-113.5 -47.5h-8q-33 0 -60 14.5t-42.5 32t-39.5 32t-52 14.5q-63 0 -112 -81q-7 -13 -21 -13h-36q-17 0 -11 17q21 66 72 113.5t113 47.5h8q33 0 60.5 -14.5t43 -32t39.5 -32t51 -14.5q62 0 112 81q7 13 21 13zM576 1434
h115q18 0 24 -19l476 -1401q3 -14 -10 -14h-77q-18 0 -24 19l-152 441h-589l-152 -441q-6 -19 -24 -19h-77q-14 0 -10 14l476 1401q6 18 24 19zM630 1336l-191 -572l-72 -209h534l-73 209l-192 572h-6z" />
    <glyph glyph-name="Adieresis" unicode="&#xc4;" horiz-adv-x="1267" 
d="M438 1770h97q15 0 15 -15v-115q0 -15 -15 -15h-97q-15 0 -15 15v115q0 15 15 15zM733 1770h96q16 0 16 -15v-115q0 -15 -16 -15h-96q-16 0 -16 15v115q0 15 16 15zM576 1434h115q18 0 24 -19l476 -1401q3 -14 -10 -14h-77q-18 0 -24 19l-152 441h-589l-152 -441
q-6 -19 -24 -19h-77q-14 0 -10 14l476 1401q6 18 24 19zM630 1336l-191 -572l-72 -209h534l-73 209l-192 572h-6z" />
    <glyph glyph-name="Aring" unicode="&#xc5;" horiz-adv-x="1267" 
d="M634 1889q67 0 113 -45.5t46 -110.5q0 -66 -46.5 -111.5t-112.5 -45.5q-68 0 -114 46t-46 111q0 64 46.5 110t113.5 46zM634 1826q-41 0 -66 -26.5t-25 -64.5q0 -40 25 -68t66 -28t65.5 28t24.5 68q0 38 -24.5 64.5t-65.5 26.5zM576 1434h115q18 0 24 -19l476 -1401
q3 -14 -10 -14h-77q-18 0 -24 19l-152 441h-589l-152 -441q-6 -19 -24 -19h-77q-14 0 -10 14l476 1401q6 18 24 19zM630 1336l-191 -572l-72 -209h534l-73 209l-192 572h-6z" />
    <glyph glyph-name="AE" unicode="&#xc6;" horiz-adv-x="1591" 
d="M740 786h700q14 0 14 -13v-68q0 -13 -14 -13h-700v-597h745q13 0 13 -14v-67q0 -14 -13 -14h-836q-14 0 -14 14v446h-296l-152 -441q-6 -19 -24 -19h-77q-14 0 -10 14l476 1401q6 18 24 19h909q13 0 13 -14v-68q0 -13 -13 -13h-745v-553zM635 1336h-5l-191 -572l-72 -209
h268v781z" />
    <glyph glyph-name="Ccedilla" unicode="&#xc7;" horiz-adv-x="1206" 
d="M760 1365l-15 1q-98 0 -185 -35t-154.5 -101t-107 -172t-39.5 -238v-207q0 -132 39.5 -237.5t107 -171.5t154.5 -101t185 -35h15q167 0 338 92q4 2 9 0t5 -8v-66q0 -16 -15 -24q-63 -36 -155 -62.5t-187 -26.5h-17l-18 -102q36 10 71 10q74 0 119 -41t45 -112
q0 -80 -55 -124t-144 -44q-74 0 -128 20q-18 6 -18 26v25q0 15 14 12q4 -1 21 -5t29.5 -7t32.5 -5.5t38 -2.5q63 0 99 25t36 75q0 45 -28.5 68.5t-76.5 23.5q-18 0 -85 -14q-18 -4 -25 3l-7 6q-13 11 -11 21l26 145q-106 10 -199 55t-165.5 121.5t-114.5 192.5t-42 258v227
q0 121 31.5 224.5t86 177.5t128 126t158.5 77t177 25h22q96 0 188 -26t154 -62q15 -8 15 -25v-65q0 -6 -4.5 -8.5t-9.5 -0.5q-173 92 -338 92z" />
    <glyph glyph-name="Egrave" unicode="&#xc8;" horiz-adv-x="1144" 
d="M512 1938l148 -322q3 -7 0.5 -12t-9.5 -5h-47q-15 0 -23 16l-168 320q-3 7 0.5 13t11.5 6h62q17 0 25 -16zM293 786h700q14 0 14 -13v-68q0 -13 -14 -13h-700v-597h744q14 0 14 -14v-67q0 -14 -14 -14h-835q-14 0 -14 14v1406q0 14 14 14h835q14 0 14 -14v-68
q0 -13 -14 -13h-744v-553z" />
    <glyph glyph-name="Eacute" unicode="&#xc9;" horiz-adv-x="1144" 
d="M558 1616l147 322q8 16 26 16h61q8 0 11.5 -6t0.5 -13l-167 -320q-8 -16 -23 -16h-48q-7 0 -9 5t1 12zM293 786h700q14 0 14 -13v-68q0 -13 -14 -13h-700v-597h744q14 0 14 -14v-67q0 -14 -14 -14h-835q-14 0 -14 14v1406q0 14 14 14h835q14 0 14 -14v-68q0 -13 -14 -13
h-744v-553z" />
    <glyph glyph-name="Ecircumflex" unicode="&#xca;" horiz-adv-x="1144" 
d="M663 1938l185 -320q4 -7 0 -13t-12 -6h-57q-17 0 -25 16l-135 264l-135 -264q-8 -16 -26 -16h-56q-8 0 -12 6t0 13l185 320q8 16 23 16h42q15 0 23 -16zM293 786h700q14 0 14 -13v-68q0 -13 -14 -13h-700v-597h744q14 0 14 -14v-67q0 -14 -14 -14h-835q-14 0 -14 14v1406
q0 14 14 14h835q14 0 14 -14v-68q0 -13 -14 -13h-744v-553z" />
    <glyph glyph-name="Edieresis" unicode="&#xcb;" horiz-adv-x="1144" 
d="M414 1770h97q15 0 15 -15v-115q0 -15 -15 -15h-97q-15 0 -15 15v115q0 15 15 15zM709 1770h97q15 0 15 -15v-115q0 -15 -15 -15h-97q-15 0 -15 15v115q0 15 15 15zM293 786h700q14 0 14 -13v-68q0 -13 -14 -13h-700v-597h744q14 0 14 -14v-67q0 -14 -14 -14h-835
q-14 0 -14 14v1406q0 14 14 14h835q14 0 14 -14v-68q0 -13 -14 -13h-744v-553z" />
    <glyph glyph-name="Igrave" unicode="&#xcc;" horiz-adv-x="481" 
d="M131 1938l148 -322q3 -7 0.5 -12t-9.5 -5h-47q-15 0 -23 16l-168 320q-3 7 0.5 13t11.5 6h62q17 0 25 -16zM202 1434h77q14 0 14 -14v-1406q0 -14 -14 -14h-77q-14 0 -14 14v1406q0 14 14 14z" />
    <glyph glyph-name="Iacute" unicode="&#xcd;" horiz-adv-x="481" 
d="M201 1616l148 322q8 16 25 16h62q8 0 11.5 -6t0.5 -13l-167 -320q-8 -16 -24 -16h-47q-7 0 -9.5 5t0.5 12zM202 1434h77q14 0 14 -14v-1406q0 -14 -14 -14h-77q-14 0 -14 14v1406q0 14 14 14z" />
    <glyph glyph-name="Icircumflex" unicode="&#xce;" horiz-adv-x="481" 
d="M286 1938l184 -320q4 -7 0 -13t-12 -6h-56q-18 0 -26 16l-135 264l-134 -264q-8 -16 -26 -16h-56q-8 0 -12 6t0 13l184 320q8 16 23 16h43q15 0 23 -16zM202 1434h77q14 0 14 -14v-1406q0 -14 -14 -14h-77q-14 0 -14 14v1406q0 14 14 14z" />
    <glyph glyph-name="Idieresis" unicode="&#xcf;" horiz-adv-x="481" 
d="M46 1770h96q16 0 16 -15v-115q0 -15 -16 -15h-96q-16 0 -16 15v115q0 15 16 15zM341 1770h96q16 0 16 -15v-115q0 -15 -16 -15h-96q-16 0 -16 15v115q0 15 16 15zM202 1434h77q14 0 14 -14v-1406q0 -14 -14 -14h-77q-14 0 -14 14v1406q0 14 14 14z" />
    <glyph glyph-name="Eth" unicode="&#xd0;" horiz-adv-x="1357" 
d="M202 1434h464q115 0 212.5 -37.5t171 -111t115 -192t41.5 -270.5v-212q0 -152 -41.5 -270.5t-115 -192t-171 -111t-212.5 -37.5h-464q-14 0 -14 14v605h-99q-14 0 -14 14v59q0 14 14 14h99v714q0 14 14 14zM1101 621v192q0 262 -120.5 394t-323.5 132h-364v-633h408
q13 0 13 -14v-59q0 -14 -13 -14h-408v-524h364q203 0 323.5 132t120.5 394z" />
    <glyph glyph-name="Ntilde" unicode="&#xd1;" horiz-adv-x="1394" 
d="M934 1757h36q17 0 11 -17q-21 -66 -72 -113.5t-113 -47.5h-8q-33 0 -60 14.5t-42.5 32t-39.5 32t-52 14.5q-63 0 -112 -81q-7 -13 -21 -13h-37q-17 0 -11 17q21 66 72.5 113.5t113.5 47.5h8q33 0 60.5 -14.5t43 -32t39.5 -32t51 -14.5q62 0 112 81q7 13 21 13zM1125 1434
h77q14 0 14 -14v-1406q0 -14 -14 -14h-94q-12 0 -20 11l-804 1261h-6l6 -520v-738q0 -14 -14 -14h-78q-13 0 -13 14v1406q0 14 13 14h95q12 0 20 -11l804 -1261h6l-6 633v625q0 14 14 14z" />
    <glyph glyph-name="Ograve" unicode="&#xd2;" horiz-adv-x="1413" 
d="M595 1938l147 -322q3 -7 1 -12t-9 -5h-48q-15 0 -23 16l-168 320q-3 7 0.5 13t11.5 6h62q18 0 26 -16zM692 1460h30q114 0 211 -38t171 -111t116 -191t42 -268v-270q0 -150 -42 -268t-116 -191.5t-171 -111.5t-211 -38h-30q-114 0 -211 38t-171 111.5t-116 191.5t-42 268
v270q0 150 42 268t116 191t171 111t211 38zM719 1365h-24q-197 0 -316.5 -130.5t-119.5 -386.5v-262q0 -256 119.5 -387t316.5 -131h24q197 0 316.5 131t119.5 387v262q0 256 -119.5 386.5t-316.5 130.5z" />
    <glyph glyph-name="Oacute" unicode="&#xd3;" horiz-adv-x="1413" 
d="M678 1616l147 322q8 16 26 16h62q8 0 11.5 -6t0.5 -13l-168 -320q-8 -16 -23 -16h-48q-7 0 -9 5t1 12zM692 1460h30q114 0 211 -38t171 -111t116 -191t42 -268v-270q0 -150 -42 -268t-116 -191.5t-171 -111.5t-211 -38h-30q-114 0 -211 38t-171 111.5t-116 191.5t-42 268
v270q0 150 42 268t116 191t171 111t211 38zM719 1365h-24q-197 0 -316.5 -130.5t-119.5 -386.5v-262q0 -256 119.5 -387t316.5 -131h24q197 0 316.5 131t119.5 387v262q0 256 -119.5 386.5t-316.5 130.5z" />
    <glyph glyph-name="Ocircumflex" unicode="&#xd4;" horiz-adv-x="1413" 
d="M752 1938l185 -320q4 -7 0 -13t-12 -6h-57q-17 0 -25 16l-135 264l-135 -264q-8 -16 -26 -16h-56q-8 0 -12 6t0 13l185 320q8 16 23 16h42q15 0 23 -16zM692 1460h30q114 0 211 -38t171 -111t116 -191t42 -268v-270q0 -150 -42 -268t-116 -191.5t-171 -111.5t-211 -38
h-30q-114 0 -211 38t-171 111.5t-116 191.5t-42 268v270q0 150 42 268t116 191t171 111t211 38zM719 1365h-24q-197 0 -316.5 -130.5t-119.5 -386.5v-262q0 -256 119.5 -387t316.5 -131h24q197 0 316.5 131t119.5 387v262q0 256 -119.5 386.5t-316.5 130.5z" />
    <glyph glyph-name="Otilde" unicode="&#xd5;" horiz-adv-x="1413" 
d="M944 1757h37q17 0 11 -17q-21 -66 -72 -113.5t-113 -47.5h-9q-33 0 -60 14.5t-42 32t-39 32t-52 14.5q-64 0 -113 -81q-7 -13 -21 -13h-36q-17 0 -11 17q21 66 72 113.5t113 47.5h9q33 0 60 -14.5t42.5 -32t39.5 -32t51 -14.5q63 0 113 81q7 13 20 13zM692 1460h30
q114 0 211 -38t171 -111t116 -191t42 -268v-270q0 -150 -42 -268t-116 -191.5t-171 -111.5t-211 -38h-30q-114 0 -211 38t-171 111.5t-116 191.5t-42 268v270q0 150 42 268t116 191t171 111t211 38zM719 1366h-24q-197 0 -316.5 -131t-119.5 -387v-262q0 -256 119.5 -387
t316.5 -131h24q197 0 316.5 131t119.5 387v262q0 256 -119.5 387t-316.5 131z" />
    <glyph glyph-name="Odieresis" unicode="&#xd6;" horiz-adv-x="1413" 
d="M512 1770h97q15 0 15 -15v-115q0 -15 -15 -15h-97q-15 0 -15 15v115q0 15 15 15zM807 1770h97q15 0 15 -15v-115q0 -15 -15 -15h-97q-15 0 -15 15v115q0 15 15 15zM692 1460h30q114 0 211 -38t171 -111t116 -191t42 -268v-270q0 -150 -42 -268t-116 -191.5t-171 -111.5
t-211 -38h-30q-114 0 -211 38t-171 111.5t-116 191.5t-42 268v270q0 150 42 268t116 191t171 111t211 38zM719 1365h-24q-197 0 -316.5 -130.5t-119.5 -386.5v-262q0 -256 119.5 -387t316.5 -131h24q197 0 316.5 131t119.5 387v262q0 256 -119.5 386.5t-316.5 130.5z" />
    <glyph glyph-name="multiply" unicode="&#xd7;" horiz-adv-x="872" 
d="M498 667l295 -296q10 -9 0 -19l-42 -42q-9 -10 -19 0l-295 296l-297 -296q-10 -10 -19 0l-41 42q-10 9 0 19l295 296l-295 296q-10 10 0 19l42 42q10 10 19 0l295 -296l296 296q10 10 19 0l42 -42q10 -9 0 -19z" />
    <glyph glyph-name="Oslash" unicode="&#xd8;" horiz-adv-x="1413" 
d="M1190 1434h62q11 0 14 -6.5t-4 -16.5l-112 -155q112 -157 112 -404v-270q0 -150 -42 -268t-116 -191.5t-171 -111.5t-211 -38h-30q-228 0 -371 139l-68 -94q-12 -18 -29 -18h-61q-11 0 -14.5 6t3.5 16l112 155q-112 157 -112 405v270q0 150 42 268t116 191t171 111
t211 38h30q229 0 371 -138l68 94q12 18 29 18zM259 848v-262q0 -193 71 -319l703 971q-115 127 -314 127h-24q-197 0 -316.5 -130.5t-119.5 -386.5zM1155 586v262q0 192 -71 318l-702 -971q115 -127 313 -127h24q197 0 316.5 131t119.5 387z" />
    <glyph glyph-name="Ugrave" unicode="&#xd9;" horiz-adv-x="1398" 
d="M588 1938l147 -322q3 -7 1 -12t-9 -5h-48q-15 0 -23 16l-167 320q-3 7 0.5 13t11.5 6h61q18 0 26 -16zM1129 1434h77q14 0 14 -14v-907q0 -264 -135.5 -402t-365.5 -138h-30q-230 0 -365.5 138t-135.5 402v907q0 14 14 14h77q14 0 14 -14v-899q0 -224 104.5 -338.5
t294.5 -114.5h24q190 0 294.5 114.5t104.5 338.5v899q0 14 14 14z" />
    <glyph glyph-name="Uacute" unicode="&#xda;" horiz-adv-x="1398" 
d="M676 1616l147 322q8 16 26 16h61q8 0 11.5 -6t0.5 -13l-167 -320q-8 -16 -23 -16h-48q-7 0 -9 5t1 12zM1129 1434h77q14 0 14 -14v-907q0 -264 -135.5 -402t-365.5 -138h-30q-230 0 -365.5 138t-135.5 402v907q0 14 14 14h77q14 0 14 -14v-899q0 -224 104.5 -338.5
t294.5 -114.5h24q190 0 294.5 114.5t104.5 338.5v899q0 14 14 14z" />
    <glyph glyph-name="Ucircumflex" unicode="&#xdb;" horiz-adv-x="1398" 
d="M744 1938l184 -320q4 -7 0 -13t-12 -6h-56q-18 0 -26 16l-135 264l-134 -264q-8 -16 -26 -16h-56q-8 0 -12 6t0 13l184 320q8 16 23 16h43q15 0 23 -16zM1129 1434h77q14 0 14 -14v-907q0 -264 -135.5 -402t-365.5 -138h-30q-230 0 -365.5 138t-135.5 402v907q0 14 14 14
h77q14 0 14 -14v-899q0 -224 104.5 -338.5t294.5 -114.5h24q190 0 294.5 114.5t104.5 338.5v899q0 14 14 14z" />
    <glyph glyph-name="Udieresis" unicode="&#xdc;" horiz-adv-x="1398" 
d="M504 1770h96q16 0 16 -15v-115q0 -15 -16 -15h-96q-16 0 -16 15v115q0 15 16 15zM799 1770h96q16 0 16 -15v-115q0 -15 -16 -15h-96q-16 0 -16 15v115q0 15 16 15zM1129 1434h77q14 0 14 -14v-907q0 -264 -135.5 -402t-365.5 -138h-30q-230 0 -365.5 138t-135.5 402v907
q0 14 14 14h77q14 0 14 -14v-899q0 -224 104.5 -338.5t294.5 -114.5h24q190 0 294.5 114.5t104.5 338.5v899q0 14 14 14z" />
    <glyph glyph-name="Yacute" unicode="&#xdd;" horiz-adv-x="1261" 
d="M606 1616l148 322q8 16 25 16h62q8 0 11.5 -6t0.5 -13l-167 -320q-8 -16 -24 -16h-47q-7 0 -9.5 5t0.5 12zM1093 1434h82q16 0 10 -17l-502 -926v-477q0 -14 -14 -14h-76q-14 0 -14 14v477l-503 926q-2 6 1 11.5t10 5.5h81q16 0 24 -15l313 -568l123 -248h5l124 248
l312 568q7 15 24 15z" />
    <glyph glyph-name="Thorn" unicode="&#xde;" horiz-adv-x="1286" 
d="M293 1244h331q257 0 383 -106.5t126 -301.5v-43q0 -200 -128.5 -319t-383.5 -119h-328v-341q0 -14 -14 -14h-77q-14 0 -14 14v1406q0 14 14 14h77q14 0 14 -14v-176zM1027 800v23q0 158 -97.5 242t-316.5 84h-320v-702h319q216 0 315.5 95.5t99.5 257.5z" />
    <glyph glyph-name="germandbls" unicode="&#xdf;" horiz-adv-x="1118" 
d="M425 1536h14q116 0 196.5 -69.5t80.5 -201.5v-13q0 -65 -30.5 -119.5t-73.5 -92t-86 -72.5t-73.5 -76.5t-30.5 -88.5v-12q0 -37 15 -67t35.5 -49.5t55.5 -37t61.5 -27t66.5 -22.5q5 -2 8.5 -3t7.5 -2l53 -18q63 -21 102.5 -36.5t83 -41t67.5 -53.5t39.5 -70t15.5 -95v-10
q0 -135 -101 -210.5t-246 -75.5h-20q-72 0 -162 23t-143 55q-15 7 -15 24v57q0 6 5 8t9 0q153 -84 302 -84h17q107 0 179.5 52t72.5 146v12q0 27 -7 50t-17 39.5t-29.5 32.5t-34 25.5t-43 21t-44 17t-47.5 16.5l-53 17q-140 47 -189 74q-133 75 -134 205v14q0 58 31 109
t75.5 89.5t89 76.5t75.5 87t31 105v13q0 94 -54 142.5t-132 48.5h-9q-80 0 -134 -52.5t-54 -159.5v-1223q0 -14 -13 -14h-75q-13 0 -13 14v1233q0 142 78 215.5t196 73.5z" />
    <glyph glyph-name="agrave" unicode="&#xe0;" horiz-adv-x="1001" 
d="M397 1528l148 -322q7 -16 -9 -16h-48q-16 0 -23 15l-167 320q-3 7 0.5 13t11.5 6h62q17 0 25 -16zM503 1051h11q179 0 261 -94t83 -291v-652q0 -14 -13 -14h-69q-11 0 -13 12l-4 131q-70 -81 -164 -125.5t-181 -44.5h-12q-150 0 -238.5 80t-88.5 213v11q0 164 115 243
t355 89l211 7v50q0 154 -57 226t-200 72h-8q-147 0 -322 -83q-5 -2 -9.5 0t-4.5 8v58q0 18 14 24q66 33 160.5 56.5t173.5 23.5zM756 540l-227 -8q-181 -7 -266.5 -68t-85.5 -180v-9q0 -98 68.5 -157t184.5 -59h9q168 0 317 172v309z" />
    <glyph glyph-name="aacute" unicode="&#xe1;" horiz-adv-x="1001" 
d="M482 1206l147 322q8 16 26 16h61q8 0 11.5 -6t0.5 -13l-167 -320q-7 -15 -23 -15h-48q-15 0 -8 16zM503 1051h11q179 0 261 -94t83 -291v-652q0 -14 -13 -14h-69q-11 0 -13 12l-4 131q-70 -81 -164 -125.5t-181 -44.5h-12q-150 0 -238.5 80t-88.5 213v11q0 164 115 243
t355 89l211 7v50q0 154 -57 226t-200 72h-8q-147 0 -322 -83q-5 -2 -9.5 0t-4.5 8v58q0 18 14 24q66 33 160.5 56.5t173.5 23.5zM756 540l-227 -8q-181 -7 -266.5 -68t-85.5 -180v-9q0 -98 68.5 -157t184.5 -59h9q168 0 317 172v309z" />
    <glyph glyph-name="acircumflex" unicode="&#xe2;" horiz-adv-x="1001" 
d="M545 1529l184 -320q4 -7 0.5 -13t-11.5 -6h-57q-17 0 -25 16l-135 263l-135 -263q-8 -16 -26 -16h-56q-8 0 -12 6t0 13l184 320q8 15 24 15h42q16 0 23 -15zM503 1051h11q179 0 261 -94t83 -291v-652q0 -14 -14 -14h-68q-11 0 -13 12l-4 131q-70 -81 -164 -125.5
t-181 -44.5h-12q-150 0 -238.5 80t-88.5 213v11q0 164 115 243t355 89l211 7v50q0 154 -57 226t-200 72h-8q-147 0 -322 -83q-5 -2 -9.5 0t-4.5 8v58q0 18 14 24q66 33 160.5 56.5t173.5 23.5zM756 540l-227 -8q-181 -7 -266.5 -68t-85.5 -180v-9q0 -98 68.5 -157t184.5 -59
h9q168 0 317 172v309z" />
    <glyph glyph-name="atilde" unicode="&#xe3;" horiz-adv-x="1001" 
d="M737 1347h37q17 0 11 -17q-21 -66 -72.5 -113.5t-113.5 -47.5h-8q-33 0 -60 14.5t-42.5 32.5t-39.5 32.5t-52 14.5q-62 0 -112 -82q-7 -13 -21 -13h-36q-17 0 -11 18q21 66 72 113.5t113 47.5h8q33 0 60.5 -14.5t43 -32.5t39.5 -32.5t51 -14.5q62 0 112 81q7 13 21 13z
M503 1051h11q179 0 261 -94t83 -291v-652q0 -14 -13 -14h-69q-11 0 -13 12l-4 131q-70 -81 -164 -125.5t-181 -44.5h-12q-150 0 -238.5 80t-88.5 213v11q0 164 115 243t355 89l211 7v50q0 154 -57 226t-200 72h-8q-147 0 -322 -83q-5 -2 -9.5 0t-4.5 8v58q0 18 14 24
q66 33 160.5 56.5t173.5 23.5zM756 540l-227 -8q-181 -7 -266.5 -67.5t-85.5 -179.5v-10q0 -98 68.5 -157t184.5 -59h9q168 0 317 172v309z" />
    <glyph glyph-name="adieresis" unicode="&#xe4;" horiz-adv-x="1001" 
d="M305 1361h97q15 0 15 -16v-114q0 -16 -15 -16h-97q-15 0 -15 16v114q0 16 15 16zM600 1361h97q15 0 15 -16v-114q0 -16 -15 -16h-97q-16 0 -16 16v114q0 16 16 16zM503 1051h11q179 0 261 -94t83 -291v-652q0 -14 -13 -14h-69q-11 0 -13 12l-4 131q-70 -81 -164 -125.5
t-181 -44.5h-12q-150 0 -238.5 80t-88.5 213v11q0 164 115 243t355 89l211 7v50q0 154 -57 226t-200 72h-8q-147 0 -322 -83q-5 -2 -9.5 0t-4.5 8v58q0 18 14 24q66 33 160.5 56.5t173.5 23.5zM756 540l-227 -8q-181 -7 -266.5 -68t-85.5 -180v-9q0 -98 68.5 -157t184.5 -59
h9q168 0 317 172v309z" />
    <glyph glyph-name="aring" unicode="&#xe5;" horiz-adv-x="1001" 
d="M501 1480q67 0 113 -45.5t46 -110.5q0 -66 -46.5 -112t-112.5 -46q-68 0 -114 46.5t-46 111.5q0 64 46.5 110t113.5 46zM501 1416q-41 0 -66 -26.5t-25 -64.5q0 -40 25 -68t66 -28t65.5 28t24.5 68q0 38 -24.5 64.5t-65.5 26.5zM503 1051h11q179 0 261 -94t83 -291v-652
q0 -14 -13 -14h-69q-11 0 -13 12l-4 131q-70 -81 -164 -125.5t-181 -44.5h-12q-150 0 -238.5 80t-88.5 213v11q0 164 115 243t355 89l211 7v50q0 154 -57 226t-200 72h-8q-147 0 -322 -83q-5 -2 -9.5 0t-4.5 8v58q0 18 14 24q66 33 160.5 56.5t173.5 23.5zM756 540l-227 -8
q-181 -7 -266.5 -68t-85.5 -180v-9q0 -98 68.5 -157t184.5 -59h9q168 0 317 172v309z" />
    <glyph glyph-name="ae" unicode="&#xe6;" horiz-adv-x="1714" 
d="M1178 1051h22q186 0 287.5 -118t101.5 -342v-66q0 -17 -17 -17h-712v-108q0 -158 100 -249t257 -91h9q143 0 315 85q5 3 9.5 0.5t4.5 -8.5v-59q0 -18 -15 -24q-61 -33 -153 -57t-169 -24h-14q-122 0 -220.5 49t-153.5 139v-147q0 -14 -13 -14h-41q-11 0 -13 12l-4 131
q-70 -81 -164 -125.5t-181 -44.5h-12q-150 0 -238.5 80t-88.5 213v11q0 164 115 243t355 89l211 7v50q0 154 -57 226t-200 72h-8q-147 0 -322 -83q-5 -2 -9.5 0t-4.5 8v58q0 18 14 24q66 33 160.5 56.5t173.5 23.5h11q135 0 210 -55.5t103 -167.5q50 106 142 164.5t209 58.5
zM860 582h631q1 196 -73 290.5t-222 94.5h-16q-142 0 -230.5 -104t-89.5 -281zM756 540l-227 -8q-181 -7 -266.5 -67.5t-85.5 -179.5v-10q0 -98 68.5 -157t184.5 -59h9q168 0 317 172v309z" />
    <glyph glyph-name="ccedilla" unicode="&#xe7;" horiz-adv-x="1017" 
d="M606 963h-17q-154 0 -256 -100t-102 -279v-144q0 -179 102 -279t256 -100h17q125 0 273 84q5 3 9.5 0.5t4.5 -8.5v-59q0 -18 -15 -24q-57 -34 -133 -57.5t-147 -23.5h-22q-22 0 -32 1l-17 -103q36 10 71 10q74 0 119 -41t45 -112q0 -80 -55.5 -124t-144.5 -44
q-73 0 -127 20q-19 6 -19 26v25q0 16 15 12q4 -1 21 -5t29.5 -7t32.5 -5.5t38 -2.5q63 0 99 25t36 75q0 45 -29 68.5t-77 23.5q-17 0 -84 -14q-18 -4 -25 3l-7 6q-13 11 -11 21l27 151q-156 29 -254.5 148t-98.5 311v142q0 112 36 202.5t97.5 147.5t142 87.5t172.5 30.5h22
q71 0 147 -23.5t133 -57.5q15 -6 15 -24v-59q0 -6 -4.5 -8.5t-9.5 0.5q-148 84 -273 84z" />
    <glyph glyph-name="egrave" unicode="&#xe8;" horiz-adv-x="1085" 
d="M447 1528l147 -322q7 -16 -8 -16h-48q-16 0 -23 15l-167 320q-3 7 0.5 13t11.5 6h61q18 0 26 -16zM550 1051h22q186 0 287.5 -118t101.5 -342v-66q0 -17 -17 -17h-712v-108q0 -158 100 -249t257 -91h9q143 0 315 85q5 3 9.5 0.5t4.5 -8.5v-59q0 -18 -15 -24
q-61 -33 -153 -57t-169 -24h-14q-196 0 -322 116t-126 319v157q0 224 118.5 355t303.5 131zM568 967h-16q-142 0 -230.5 -104t-89.5 -281h631q1 196 -73 290.5t-222 94.5z" />
    <glyph glyph-name="eacute" unicode="&#xe9;" horiz-adv-x="1085" 
d="M514 1206l148 322q8 16 25 16h62q8 0 11.5 -6t0.5 -13l-168 -320q-7 -15 -23 -15h-47q-16 0 -9 16zM550 1051h22q186 0 287.5 -118t101.5 -342v-66q0 -17 -17 -17h-712v-108q0 -158 100 -249t257 -91h9q143 0 315 85q5 3 9.5 0.5t4.5 -8.5v-59q0 -18 -15 -24
q-61 -33 -153 -57t-169 -24h-14q-196 0 -322 116t-126 319v157q0 224 118.5 355t303.5 131zM568 967h-16q-142 0 -230.5 -104t-89.5 -281h631q1 196 -73 290.5t-222 94.5z" />
    <glyph glyph-name="ecircumflex" unicode="&#xea;" horiz-adv-x="1085" 
d="M587 1529l185 -320q4 -7 0 -13t-12 -6h-57q-17 0 -25 16l-135 263l-135 -263q-8 -16 -26 -16h-56q-8 0 -12 6t0 13l185 320q7 15 23 15h42q16 0 23 -15zM550 1051h22q186 0 287.5 -118t101.5 -342v-66q0 -17 -17 -17h-712v-108q0 -158 100 -249t257 -91h9q143 0 315 85
q5 3 9.5 0.5t4.5 -8.5v-59q0 -18 -15 -24q-61 -33 -153 -57t-169 -24h-14q-196 0 -322 116t-126 319v157q0 224 118.5 355t303.5 131zM568 967h-16q-142 0 -230.5 -104t-89.5 -281h631q1 196 -73 290.5t-222 94.5z" />
    <glyph glyph-name="edieresis" unicode="&#xeb;" horiz-adv-x="1085" 
d="M347 1361h97q15 0 15 -16v-114q0 -16 -15 -16h-97q-15 0 -15 16v114q0 16 15 16zM642 1361h97q15 0 15 -16v-114q0 -16 -15 -16h-97q-15 0 -15 16v114q0 16 15 16zM550 1051h22q186 0 287.5 -118t101.5 -342v-66q0 -17 -17 -17h-712v-108q0 -158 100 -249t257 -91h9
q143 0 315 85q5 3 9.5 0.5t4.5 -8.5v-59q0 -18 -15 -24q-61 -33 -153 -57t-169 -24h-14q-196 0 -322 116t-126 319v157q0 224 118.5 355t303.5 131zM568 967h-16q-142 0 -230.5 -104t-89.5 -281h631q1 196 -73 290.5t-222 94.5z" />
    <glyph glyph-name="igrave" unicode="&#xec;" horiz-adv-x="399" 
d="M83 1528l147 -322q7 -16 -8 -16h-48q-16 0 -23 15l-167 320q-3 7 0.5 13t11.5 6h62q17 0 25 -16zM165 1024h74q14 0 14 -14v-996q0 -14 -14 -14h-74q-14 0 -14 14v996q0 14 14 14z" />
    <glyph glyph-name="iacute" unicode="&#xed;" horiz-adv-x="399" 
d="M174 1206l147 322q8 16 26 16h62q7 0 10.5 -5.5t0.5 -13.5l-167 -320q-7 -15 -23 -15h-48q-15 0 -8 16zM165 1024h74q14 0 14 -14v-996q0 -14 -14 -14h-74q-14 0 -14 14v996q0 14 14 14z" />
    <glyph glyph-name="icircumflex" unicode="&#xee;" horiz-adv-x="399" 
d="M247 1529l184 -320q4 -7 0 -13t-12 -6h-56q-18 0 -26 16l-135 263l-134 -263q-8 -16 -26 -16h-56q-8 0 -12 6t0 13l184 320q8 15 23 15h43q16 0 23 -15zM165 1024h74q14 0 14 -14v-996q0 -14 -14 -14h-74q-14 0 -14 14v996q0 14 14 14z" />
    <glyph glyph-name="idieresis" unicode="&#xef;" horiz-adv-x="399" 
d="M6 1361h97q15 0 15 -16v-114q0 -16 -15 -16h-97q-16 0 -16 16v114q0 16 16 16zM301 1361h96q16 0 16 -16v-114q0 -16 -16 -16h-96q-16 0 -16 16v114q0 16 16 16zM165 1024h74q14 0 14 -14v-996q0 -14 -14 -14h-74q-14 0 -14 14v996q0 14 14 14z" />
    <glyph glyph-name="eth" unicode="&#xf0;" horiz-adv-x="1097" 
d="M1009 1533l30 -43q9 -9 -4 -19l-126 -88q61 -95 61 -241v-706q0 -222 -111.5 -342.5t-298.5 -120.5h-23q-180 0 -294.5 121.5t-114.5 341.5v128q0 218 102 338t289 120h10q85 0 176.5 -41.5t161.5 -121.5v284q0 111 -40 182l-177 -123q-10 -8 -19 3l-29 43q-10 10 3 19
l171 119q-76 64 -215 64h-9q-144 0 -312 -84q-4 -2 -9 0t-5 8v59q0 18 15 24q160 79 324 79h11q179 0 281 -93l133 93q10 8 19 -3zM867 432v330q-151 172 -322 172h-5q-149 0 -229 -94.5t-80 -275.5v-132q0 -177 84.5 -274t224.5 -97h17q146 0 228 96t82 275z" />
    <glyph glyph-name="ntilde" unicode="&#xf1;" horiz-adv-x="1099" 
d="M787 1347h37q17 0 11 -17q-21 -66 -72.5 -113.5t-113.5 -47.5h-8q-27 0 -49.5 9.5t-37.5 23.5t-29.5 28t-34 23.5t-42.5 9.5q-63 0 -113 -82q-7 -13 -21 -13h-36q-17 0 -11 18q21 66 72 113.5t113 47.5h9q27 0 49.5 -9.5t38 -23.5t30 -28t34 -23.5t41.5 -9.5q63 0 113 81
q7 13 20 13zM605 1051h11q341 0 341 -375v-662q0 -14 -14 -14h-74q-14 0 -14 14v651q0 148 -61 223t-204 75h-5q-79 0 -167.5 -42t-168.5 -114v-793q0 -14 -14 -14h-74q-14 0 -14 14v996q0 14 14 14h68q12 0 14 -12l3 -119q81 71 177.5 114.5t181.5 43.5z" />
    <glyph glyph-name="ograve" unicode="&#xf2;" horiz-adv-x="1144" 
d="M458 1528l147 -322q7 -16 -8 -16h-48q-15 0 -23 15l-167 320q-3 8 0.5 13.5t10.5 5.5h62q18 0 26 -16zM561 1051h23q190 0 311.5 -122t121.5 -341v-152q0 -219 -121.5 -341t-311.5 -122h-23q-190 0 -311.5 122t-121.5 341v152q0 219 121.5 341t311.5 122zM581 963h-17
q-149 0 -241 -97t-92 -274v-160q0 -177 92 -274t241 -97h17q149 0 241 97t92 274v160q0 177 -92 274t-241 97z" />
    <glyph glyph-name="oacute" unicode="&#xf3;" horiz-adv-x="1144" 
d="M543 1206l147 322q8 16 26 16h62q8 0 11.5 -6t0.5 -13l-168 -320q-8 -15 -23 -15h-47q-16 0 -9 16zM561 1051h23q190 0 311.5 -122t121.5 -341v-152q0 -219 -121.5 -341t-311.5 -122h-23q-190 0 -311.5 122t-121.5 341v152q0 219 121.5 341t311.5 122zM581 963h-17
q-149 0 -241 -97t-92 -274v-160q0 -177 92 -274t241 -97h17q149 0 241 97t92 274v160q0 177 -92 274t-241 97z" />
    <glyph glyph-name="ocircumflex" unicode="&#xf4;" horiz-adv-x="1144" 
d="M618 1529l184 -320q4 -7 0 -13t-12 -6h-56q-18 0 -26 16l-135 263l-134 -263q-8 -16 -26 -16h-56q-8 0 -12 6t0 13l184 320q7 15 23 15h43q15 0 23 -15zM561 1051h23q190 0 311.5 -122t121.5 -341v-152q0 -219 -121.5 -341t-311.5 -122h-23q-190 0 -311.5 122t-121.5 341
v152q0 219 121.5 341t311.5 122zM581 963h-17q-149 0 -241 -97t-92 -274v-160q0 -177 92 -274t241 -97h17q149 0 241 97t92 274v160q0 177 -92 274t-241 97z" />
    <glyph glyph-name="otilde" unicode="&#xf5;" horiz-adv-x="1144" 
d="M810 1347h37q17 0 11 -17q-21 -66 -72.5 -113.5t-113.5 -47.5h-8q-33 0 -60 14.5t-42.5 32.5t-39.5 32.5t-52 14.5q-62 0 -112 -82q-7 -13 -21 -13h-37q-17 0 -11 18q21 66 72.5 113.5t113.5 47.5h8q33 0 60.5 -14.5t43 -32.5t39.5 -32.5t51 -14.5q62 0 112 81
q7 13 21 13zM561 1051h23q190 0 311.5 -122t121.5 -341v-152q0 -219 -121.5 -341t-311.5 -122h-23q-190 0 -311.5 122t-121.5 341v152q0 219 121.5 341t311.5 122zM581 963h-17q-149 0 -241 -97t-92 -274v-160q0 -177 92 -274t241 -97h17q149 0 241 97t92 274v160
q0 177 -92 274t-241 97z" />
    <glyph glyph-name="odieresis" unicode="&#xf6;" horiz-adv-x="1144" 
d="M378 1361h96q16 0 16 -16v-114q0 -16 -16 -16h-96q-16 0 -16 16v114q0 16 16 16zM673 1361h96q16 0 16 -16v-114q0 -16 -16 -16h-96q-16 0 -16 16v114q0 16 16 16zM561 1051h23q190 0 311.5 -122t121.5 -341v-152q0 -219 -121.5 -341t-311.5 -122h-23q-190 0 -311.5 122
t-121.5 341v152q0 219 121.5 341t311.5 122zM581 963h-17q-149 0 -241 -97t-92 -274v-160q0 -177 92 -274t241 -97h17q149 0 241 97t92 274v160q0 177 -92 274t-241 97z" />
    <glyph glyph-name="divide" unicode="&#xf7;" horiz-adv-x="1099" 
d="M498 1123h106q15 0 15 -15v-115q0 -15 -15 -15h-106q-15 0 -15 15v115q0 15 15 15zM89 699h923q13 0 13 -14v-59q0 -14 -13 -14h-923q-14 0 -14 14v59q0 14 14 14zM498 334h106q15 0 15 -16v-114q0 -16 -15 -16h-106q-15 0 -15 16v114q0 16 15 16z" />
    <glyph glyph-name="oslash" unicode="&#xf8;" horiz-adv-x="1144" 
d="M944 1024h63q11 0 14 -6t-4 -16l-89 -112q89 -119 89 -302v-152q0 -219 -121.5 -341t-311.5 -122h-23q-171 0 -286 98l-42 -53q-14 -18 -30 -18h-65q-11 0 -14 6t4 16l89 111q-89 119 -89 303v152q0 219 121.5 341t311.5 122h23q171 0 287 -99l43 54q16 18 30 18z
M231 592v-160q0 -126 51 -217l529 662q-88 86 -230 86h-17q-149 0 -241 -97t-92 -274zM914 432v160q0 126 -51 217l-528 -663q88 -85 229 -85h17q149 0 241 97t92 274z" />
    <glyph glyph-name="ugrave" unicode="&#xf9;" 
d="M427 1528l147 -322q7 -16 -8 -16h-48q-16 0 -23 15l-167 320q-3 7 0.5 13t11.5 6h61q18 0 26 -16zM849 1024h74q14 0 14 -14v-996q0 -14 -14 -14h-68q-12 0 -14 12l-3 119q-81 -71 -177.5 -114.5t-181.5 -43.5h-11q-170 0 -247.5 95.5t-77.5 279.5v662q0 14 14 14h74
q14 0 14 -14v-651q0 -149 55.5 -223.5t193.5 -74.5h5q79 0 167.5 42t168.5 114v793q0 14 14 14z" />
    <glyph glyph-name="uacute" unicode="&#xfa;" 
d="M511 1206l148 322q8 16 25 16h62q8 0 11.5 -6t0.5 -13l-167 -320q-7 -15 -24 -15h-47q-16 0 -9 16zM849 1024h74q14 0 14 -14v-996q0 -14 -14 -14h-68q-12 0 -14 12l-3 119q-81 -71 -177.5 -114.5t-181.5 -43.5h-11q-170 0 -247.5 95.5t-77.5 279.5v662q0 14 14 14h74
q14 0 14 -14v-651q0 -149 55.5 -223.5t193.5 -74.5h5q79 0 167.5 42t168.5 114v793q0 14 14 14z" />
    <glyph glyph-name="ucircumflex" unicode="&#xfb;" 
d="M585 1529l184 -320q4 -7 0.5 -13t-11.5 -6h-57q-17 0 -25 16l-135 263l-135 -263q-8 -16 -26 -16h-56q-8 0 -12 6t0 13l184 320q8 15 24 15h42q16 0 23 -15zM848 1024h75q14 0 14 -14v-996q0 -14 -14 -14h-69q-11 0 -13 12l-3 119q-81 -71 -177.5 -114.5t-181.5 -43.5
h-11q-170 0 -247.5 95.5t-77.5 279.5v662q0 14 14 14h74q14 0 14 -14v-651q0 -149 55.5 -223.5t193.5 -74.5h5q79 0 167.5 42t168.5 114v793q0 14 13 14z" />
    <glyph glyph-name="udieresis" unicode="&#xfc;" 
d="M345 1361h97q15 0 15 -16v-114q0 -16 -15 -16h-97q-15 0 -15 16v114q0 16 15 16zM640 1361h97q15 0 15 -16v-114q0 -16 -15 -16h-97q-16 0 -16 16v114q0 16 16 16zM848 1024h75q14 0 14 -14v-996q0 -14 -14 -14h-68q-12 0 -14 12l-3 119q-81 -71 -177.5 -114.5
t-181.5 -43.5h-11q-170 0 -247.5 95.5t-77.5 279.5v662q0 14 14 14h74q14 0 14 -14v-651q0 -149 55.5 -223.5t193.5 -74.5h5q79 0 167.5 42t168.5 114v793q0 14 13 14z" />
    <glyph glyph-name="yacute" unicode="&#xfd;" horiz-adv-x="1011" 
d="M485 1206l147 322q8 16 26 16h61q8 0 11.5 -6t0.5 -13l-167 -320q-8 -15 -23 -15h-48q-15 0 -8 16zM873 1024h73q16 0 11 -16l-420 -1105q-54 -143 -116 -207.5t-168 -64.5h-13q-67 0 -136 30q-14 5 -14 21v53q0 8 5 11.5t12 0.5q71 -29 127 -29h7q64 0 107.5 40.5
t82.5 142.5l37 99h-13q-17 0 -23 17l-376 991q-5 16 12 16h72q17 0 23 -17l215 -561l126 -356h5l126 356l215 561q6 17 23 17z" />
    <glyph glyph-name="thorn" unicode="&#xfe;" horiz-adv-x="1120" 
d="M591 1051h10q187 0 289 -120.5t102 -338.5v-156q0 -224 -105.5 -343.5t-291.5 -119.5h-11q-83 0 -172 40t-159 119v-460q0 -14 -14 -14h-74q-14 0 -14 14v1824q0 13 14 13h74q14 0 14 -13v-608q70 80 161.5 121.5t176.5 41.5zM889 432v160q0 181 -80 276t-229 95h-5
q-171 0 -322 -172v-557q152 -173 322 -173h5q149 0 229 95t80 276z" />
    <glyph glyph-name="ydieresis" unicode="&#xff;" horiz-adv-x="1011" 
d="M310 1361h97q15 0 15 -16v-114q0 -16 -15 -16h-97q-15 0 -15 16v114q0 16 15 16zM605 1361h97q15 0 15 -16v-114q0 -16 -15 -16h-97q-16 0 -16 16v114q0 16 16 16zM873 1024h73q16 0 11 -16l-420 -1105q-54 -143 -116 -207.5t-168 -64.5h-13q-67 0 -136 30q-14 5 -14 21
v53q0 8 5 11.5t12 0.5q71 -29 127 -29h7q64 0 107.5 40.5t82.5 142.5l37 99h-13q-17 0 -23 17l-376 991q-5 16 12 16h72q17 0 23 -17l215 -561l126 -356h5l126 356l215 561q6 17 23 17z" />
    <glyph glyph-name="Amacron" unicode="&#x100;" horiz-adv-x="1267" 
d="M382 1707h503q14 0 14 -13v-55q0 -14 -14 -14h-503q-14 0 -14 14v55q0 13 14 13zM576 1434h115q18 0 24 -19l476 -1401q3 -14 -10 -14h-77q-18 0 -24 19l-152 441h-589l-152 -441q-6 -19 -24 -19h-77q-14 0 -10 14l476 1401q6 18 24 19zM630 1336l-191 -572l-72 -209h534
l-73 209l-192 572h-6z" />
    <glyph glyph-name="amacron" unicode="&#x101;" horiz-adv-x="1001" 
d="M249 1298h503q14 0 14 -14v-55q0 -14 -14 -14l-503 1q-14 0 -14 13v55q0 14 14 14zM503 1051h11q179 0 261 -94t83 -291v-652q0 -14 -13 -14h-69q-11 0 -13 12l-4 131q-70 -81 -164 -125.5t-181 -44.5h-12q-150 0 -238.5 80t-88.5 213v11q0 164 115 243t355 89l211 7v50
q0 154 -57 226t-200 72h-8q-147 0 -322 -83q-5 -2 -9.5 0t-4.5 8v58q0 18 14 24q66 33 160.5 56.5t173.5 23.5zM756 540l-227 -8q-181 -7 -266.5 -68t-85.5 -180v-9q0 -98 68.5 -157t184.5 -59h9q168 0 317 172v309z" />
    <glyph glyph-name="Abreve" unicode="&#x102;" horiz-adv-x="1267" 
d="M885 1770q7 4 13 0.5t6 -11.5v-49q0 -15 -11 -23q-38 -30 -107.5 -56t-151.5 -26t-151.5 26t-107.5 56q-12 9 -12 23v49q0 8 6.5 11.5t13.5 -0.5q40 -25 67 -39t78.5 -29t105.5 -15t105.5 15t78.5 29t67 39zM576 1434h115q18 0 24 -19l476 -1401q3 -14 -10 -14h-77
q-18 0 -24 19l-152 441h-589l-152 -441q-6 -19 -24 -19h-77q-14 0 -10 14l476 1401q6 18 24 19zM630 1336l-191 -572l-72 -209h534l-73 209l-192 572h-6z" />
    <glyph glyph-name="abreve" unicode="&#x103;" horiz-adv-x="1001" 
d="M752 1360q8 4 13.5 1t5.5 -11v-50q0 -15 -11 -23q-38 -30 -107.5 -56t-151.5 -26t-151.5 26t-107.5 56q-12 9 -12 23v50q0 8 6 11t14 -1q40 -25 67 -39t78.5 -29t105.5 -15t105.5 15t78.5 29t67 39zM503 1051h11q179 0 261 -94t83 -291v-652q0 -14 -14 -14h-68
q-11 0 -13 12l-4 131q-70 -81 -164 -125.5t-181 -44.5h-12q-150 0 -238.5 80t-88.5 213v11q0 164 115 243t355 89l211 7v50q0 154 -57 226t-200 72h-8q-147 0 -322 -83q-5 -2 -9.5 0t-4.5 8v58q0 18 14 24q66 33 160.5 56.5t173.5 23.5zM756 540l-227 -8q-181 -7 -266.5 -68
t-85.5 -180v-9q0 -98 68.5 -157t184.5 -59h9q168 0 317 172v309z" />
    <glyph glyph-name="Aogonek" unicode="&#x104;" horiz-adv-x="1267" 
d="M715 1415l476 -1401q3 -14 -10 -14q-52 -43 -78.5 -67t-59.5 -59.5t-47 -68.5t-14 -68q0 -52 32.5 -78.5t86.5 -26.5q25 0 65 9q15 4 15 -12v-32q0 -19 -18 -25q-33 -12 -80 -12q-77 0 -127 43t-50 123q0 65 43.5 126.5t150.5 147.5q-13 1 -20 19l-152 441h-589
l-152 -441q-6 -19 -24 -19h-77q-14 0 -10 14l476 1401q6 18 24 19h115q18 0 24 -19zM901 555l-73 209l-192 572h-6l-191 -572l-72 -209h534z" />
    <glyph glyph-name="aogonek" unicode="&#x105;" horiz-adv-x="1001" 
d="M503 1051h11q179 0 261 -94t83 -291v-652q0 -14 -13 -14q-52 -43 -78.5 -67t-59.5 -59.5t-47 -68.5t-14 -68q0 -52 32 -78.5t86 -26.5q26 0 66 9q15 4 15 -12v-32q0 -19 -19 -25q-33 -12 -80 -12q-77 0 -126.5 43t-49.5 123q0 65 44 127t153 150q-4 3 -4 9l-4 131
q-70 -81 -164 -125.5t-181 -44.5h-12q-150 0 -238.5 80t-88.5 213v11q0 164 115 243t355 89l211 7v50q0 154 -57 226t-200 72h-8q-147 0 -322 -83q-5 -2 -9.5 0t-4.5 8v58q0 18 14 24q66 33 160.5 56.5t173.5 23.5zM756 540l-227 -8q-181 -7 -266.5 -68t-85.5 -180v-9
q0 -98 68.5 -157t184.5 -59h9q168 0 317 172v309z" />
    <glyph glyph-name="Cacute" unicode="&#x106;" horiz-adv-x="1206" 
d="M683 1616l147 322q8 16 26 16h62q8 0 11.5 -6t0.5 -13l-168 -320q-8 -16 -23 -16h-47q-7 0 -9.5 5t0.5 12zM733 1460h22q96 0 188 -26t154 -62q15 -8 15 -25v-65q0 -6 -4.5 -8.5t-9.5 -0.5q-171 92 -338 92h-15q-98 0 -185 -35t-154.5 -101t-107 -171.5t-39.5 -237.5
v-207q0 -132 39.5 -237.5t107 -171.5t154.5 -101t185 -35h15q167 0 338 92q4 2 9 0t5 -8v-66q0 -16 -15 -24q-63 -36 -155 -62.5t-187 -26.5h-22q-92 0 -177 25t-158.5 77t-128 126t-86 177.5t-31.5 224.5v227q0 121 31.5 224.5t86 177.5t128 126t158.5 77t177 25z" />
    <glyph glyph-name="cacute" unicode="&#x107;" horiz-adv-x="1017" 
d="M502 1206l147 322q8 16 26 16h61q8 0 11.5 -6t0.5 -13l-167 -320q-7 -15 -23 -15h-48q-15 0 -8 16zM576 1051h23q71 0 146.5 -23.5t132.5 -57.5q15 -6 15 -24v-59q0 -6 -4.5 -8.5t-9.5 0.5q-148 84 -273 84h-17q-154 0 -256 -100t-102 -279v-144q0 -179 102 -279
t256 -100h17q125 0 273 84q5 3 9.5 0.5t4.5 -8.5v-59q0 -18 -15 -24q-57 -34 -132.5 -57.5t-146.5 -23.5h-23q-92 0 -172.5 30.5t-142 87.5t-97.5 147.5t-36 202.5v142q0 112 36 202.5t97.5 147.5t142 87.5t172.5 30.5z" />
    <glyph glyph-name="Cdotaccent" unicode="&#x10a;" horiz-adv-x="1206" 
d="M691 1770h106q15 0 15 -15v-115q0 -15 -15 -15h-106q-15 0 -15 15v115q0 15 15 15zM733 1460h22q96 0 188 -26t154 -62q15 -8 15 -25v-65q0 -6 -4.5 -8.5t-9.5 -0.5q-173 92 -338 92h-15q-98 0 -185 -35t-154.5 -101t-107 -171.5t-39.5 -237.5v-207q0 -132 39.5 -237.5
t107 -171.5t154.5 -101t185 -35h15q167 0 338 92q4 2 9 0t5 -8v-66q0 -16 -15 -24q-63 -36 -155 -62.5t-187 -26.5h-22q-92 0 -177 25t-158.5 77t-128 126t-86 177.5t-31.5 224.5v227q0 121 31.5 224.5t86 177.5t128 126t158.5 77t177 25z" />
    <glyph glyph-name="cdotaccent" unicode="&#x10b;" horiz-adv-x="1017" 
d="M525 1361h105q15 0 15 -16v-114q0 -16 -15 -16h-105q-16 0 -16 16v114q0 16 16 16zM576 1051h22q71 0 147 -23.5t133 -57.5q15 -6 15 -24v-59q0 -6 -4.5 -8.5t-9.5 0.5q-148 84 -273 84h-17q-154 0 -256 -100t-102 -279v-144q0 -179 102 -279t256 -100h17q125 0 273 84
q5 3 9.5 0.5t4.5 -8.5v-59q0 -18 -15 -24q-57 -34 -133 -57.5t-147 -23.5h-22q-92 0 -172.5 30.5t-142 87.5t-97.5 147.5t-36 202.5v142q0 112 36 202.5t97.5 147.5t142 87.5t172.5 30.5z" />
    <glyph glyph-name="Ccaron" unicode="&#x10c;" horiz-adv-x="1206" 
d="M903 1954h56q8 0 12 -6t0 -13l-184 -320q-8 -16 -23 -16h-42q-16 0 -24 16l-184 320q-4 7 0 13t12 6h56q18 0 26 -16l135 -264l135 264q8 16 25 16zM733 1460h22q96 0 188 -26t154 -62q15 -8 15 -25v-65q0 -6 -4.5 -8.5t-9.5 -0.5q-173 92 -338 92h-15q-98 0 -185 -35
t-154.5 -101t-107 -171.5t-39.5 -237.5v-207q0 -132 39.5 -237.5t107 -171.5t154.5 -101t185 -35h15q167 0 338 92q4 2 9 0t5 -8v-66q0 -16 -15 -24q-63 -36 -155 -62.5t-187 -26.5h-22q-92 0 -177 25t-158.5 77t-128 126t-86 177.5t-31.5 224.5v227q0 121 31.5 224.5
t86 177.5t128 126t158.5 77t177 25z" />
    <glyph glyph-name="ccaron" unicode="&#x10d;" horiz-adv-x="1017" 
d="M715 1544h56q8 0 12 -6t0 -13l-184 -320q-7 -15 -24 -15h-42q-15 0 -23 15l-185 320q-4 7 0 13t12 6h57q17 0 25 -16l135 -263l135 263q8 16 26 16zM576 1051h23q71 0 146.5 -23.5t132.5 -57.5q15 -6 15 -24v-59q0 -6 -4.5 -8.5t-9.5 0.5q-148 84 -273 84h-17
q-154 0 -256 -100t-102 -279v-144q0 -179 102 -279t256 -100h17q125 0 273 84q5 3 9.5 0.5t4.5 -8.5v-59q0 -18 -15 -24q-57 -34 -132.5 -57.5t-146.5 -23.5h-23q-92 0 -172.5 30.5t-142 87.5t-97.5 147.5t-36 202.5v142q0 112 36 202.5t97.5 147.5t142 87.5t172.5 30.5z
" />
    <glyph glyph-name="Dcaron" unicode="&#x10e;" horiz-adv-x="1357" 
d="M751 1954h56q8 0 12 -6t0 -13l-185 -320q-8 -16 -23 -16h-42q-15 0 -23 16l-185 320q-4 7 0 13t12 6h57q17 0 25 -16l135 -264l135 264q8 16 26 16zM202 1434h464q115 0 212.5 -37.5t171 -111t115 -192t41.5 -270.5v-212q0 -152 -41.5 -270.5t-115 -192t-171 -111
t-212.5 -37.5h-464q-14 0 -14 14v1406q0 14 14 14zM1101 621v192q0 262 -120.5 394t-323.5 132h-364v-1244h364q203 0 323.5 132t120.5 394z" />
    <glyph glyph-name="dcaron" unicode="&#x10f;" horiz-adv-x="1290" 
d="M1111 1509h109q16 0 16 -15v-89q0 -17 -4 -27l-73 -225q-5 -12 -16 -12h-53q-18 0 -11 20l72 215h-40q-16 0 -16 15v103q0 15 16 15zM881 1509h74q14 0 14 -13v-1482q0 -14 -14 -14h-68q-12 0 -14 12l-2 128q-70 -82 -162.5 -124.5t-179.5 -42.5h-10q-187 0 -289 120
t-102 339v156q0 224 105 343.5t292 119.5h11q83 0 172 -40t159 -119v604q0 13 14 13zM545 963h-5q-150 0 -229.5 -95t-79.5 -276v-160q0 -181 79.5 -276t229.5 -95h5q171 0 322 172v557q-152 173 -322 173z" />
    <glyph glyph-name="Dcroat" unicode="&#x110;" horiz-adv-x="1357" 
d="M202 1434h464q115 0 212.5 -37.5t171 -111t115 -192t41.5 -270.5v-212q0 -152 -41.5 -270.5t-115 -192t-171 -111t-212.5 -37.5h-464q-14 0 -14 14v605h-99q-14 0 -14 14v59q0 14 14 14h99v714q0 14 14 14zM1101 621v192q0 262 -120.5 394t-323.5 132h-364v-633h408
q13 0 13 -14v-59q0 -14 -13 -14h-408v-524h364q203 0 323.5 132t120.5 394z" />
    <glyph glyph-name="dcroat" unicode="&#x111;" horiz-adv-x="1116" 
d="M969 1345h121q14 0 14 -13v-55q0 -14 -14 -14h-121v-1249q0 -14 -14 -14h-68q-12 0 -14 12l-2 128q-70 -82 -162.5 -124.5t-179.5 -42.5h-10q-187 0 -289 120t-102 339v156q0 224 105 343.5t292 119.5h11q83 0 172 -40t159 -119v371h-284q-13 0 -13 14v55q0 13 13 13h284
v151q0 13 14 13h74q14 0 14 -13v-151zM867 233v557q-152 173 -322 173h-5q-150 0 -229.5 -95t-79.5 -276v-160q0 -181 79.5 -276t229.5 -95h5q171 0 322 172z" />
    <glyph glyph-name="Emacron" unicode="&#x112;" horiz-adv-x="1144" 
d="M364 1707h503q14 0 14 -13v-55q0 -14 -14 -14h-503q-14 0 -14 14v55q0 13 14 13zM293 786h700q14 0 14 -13v-68q0 -13 -14 -13h-700v-597h744q14 0 14 -14v-67q0 -14 -14 -14h-835q-14 0 -14 14v1406q0 14 14 14h835q14 0 14 -14v-68q0 -13 -14 -13h-744v-553z" />
    <glyph glyph-name="emacron" unicode="&#x113;" horiz-adv-x="1085" 
d="M291 1298h503q14 0 14 -14v-55q0 -14 -14 -14h-503q-13 0 -13 14v55q0 14 13 14zM550 1051h22q186 0 287.5 -118t101.5 -342v-66q0 -17 -17 -17h-712v-108q0 -158 100 -249t257 -91h9q143 0 315 85q5 3 9.5 0.5t4.5 -8.5v-59q0 -18 -15 -24q-61 -33 -153 -57t-169 -24
h-14q-196 0 -322 116t-126 319v157q0 224 118.5 355t303.5 131zM568 967h-16q-142 0 -230.5 -104t-89.5 -281h631q1 196 -73 290.5t-222 94.5z" />
    <glyph glyph-name="Edotaccent" unicode="&#x116;" horiz-adv-x="1144" 
d="M568 1770h105q16 0 16 -15v-115q0 -15 -16 -15h-105q-15 0 -15 15v115q0 15 15 15zM293 786h700q14 0 14 -13v-68q0 -13 -14 -13h-700v-597h744q14 0 14 -14v-67q0 -14 -14 -14h-835q-14 0 -14 14v1406q0 14 14 14h835q14 0 14 -14v-68q0 -13 -14 -13h-744v-553z" />
    <glyph glyph-name="edotaccent" unicode="&#x117;" horiz-adv-x="1085" 
d="M490 1361h106q15 0 15 -16v-114q0 -16 -15 -16h-106q-15 0 -15 16v114q0 16 15 16zM550 1051h22q186 0 287.5 -118t101.5 -342v-66q0 -17 -17 -17h-712v-108q0 -158 100 -249t257 -91h9q143 0 315 85q5 3 9.5 0.5t4.5 -8.5v-59q0 -18 -15 -24q-61 -33 -153 -57t-169 -24
h-14q-196 0 -322 116t-126 319v157q0 224 118.5 355t303.5 131zM568 967h-16q-142 0 -230.5 -104t-89.5 -281h631q1 196 -73 290.5t-222 94.5z" />
    <glyph glyph-name="Eogonek" unicode="&#x118;" horiz-adv-x="1144" 
d="M293 1339v-553h700q14 0 14 -13v-68q0 -13 -14 -13h-700v-597h744q14 0 14 -14v-67q0 -14 -14 -14h-1q-52 -43 -78.5 -67t-59.5 -59.5t-47 -68.5t-14 -68q0 -52 32 -78.5t86 -26.5q26 0 66 9q15 4 15 -12v-32q0 -19 -19 -25q-33 -12 -79 -12q-77 0 -127 43t-50 123
q0 67 44 129t149 145h-752q-14 0 -14 14v1406q0 14 14 14h835q14 0 14 -14v-68q0 -13 -14 -13h-744z" />
    <glyph glyph-name="eogonek" unicode="&#x119;" horiz-adv-x="1085" 
d="M550 1051h22q186 0 287.5 -118t101.5 -342v-66q0 -17 -17 -17h-712v-108q0 -158 100 -249t257 -91h9q143 0 315 85q5 3 9.5 0.5t4.5 -8.5v-59q0 -18 -15 -24q-72 -38 -170 -61q-49 -40 -75.5 -64.5t-57 -58.5t-44 -66t-13.5 -67q0 -52 32 -78.5t86 -26.5q26 0 66 9
q15 4 15 -12v-32q0 -19 -19 -25q-33 -12 -79 -12q-77 0 -127 43t-50 123q0 62 38 119.5t126 130.5q-26 -3 -50 -3h-14q-196 0 -322 116t-126 319v157q0 224 118.5 355t303.5 131zM232 582h631q1 196 -73 290.5t-222 94.5h-16q-142 0 -230.5 -104t-89.5 -281z" />
    <glyph glyph-name="Ecaron" unicode="&#x11a;" horiz-adv-x="1144" 
d="M769 1954h57q8 0 12 -6t0 -13l-185 -320q-8 -16 -23 -16h-42q-15 0 -23 16l-185 320q-4 7 0 13t12 6h56q18 0 26 -16l135 -264l135 264q8 16 25 16zM293 786h700q14 0 14 -13v-68q0 -13 -14 -13h-700v-597h744q14 0 14 -14v-67q0 -14 -14 -14h-835q-14 0 -14 14v1406
q0 14 14 14h835q14 0 14 -14v-68q0 -13 -14 -13h-744v-553z" />
    <glyph glyph-name="ecaron" unicode="&#x11b;" horiz-adv-x="1085" 
d="M703 1544h57q8 0 12 -6t0 -13l-185 -320q-7 -15 -23 -15h-42q-16 0 -23 15l-185 320q-4 7 0 13t12 6h56q18 0 26 -16l135 -263l135 263q8 16 25 16zM550 1051h22q186 0 287.5 -118t101.5 -342v-66q0 -17 -17 -17h-712v-108q0 -158 100 -249t257 -91h9q143 0 315 85
q5 3 9.5 0.5t4.5 -8.5v-59q0 -18 -15 -24q-61 -33 -153 -57t-169 -24h-14q-196 0 -322 116t-126 319v157q0 224 118.5 355t303.5 131zM568 967h-16q-142 0 -230.5 -104t-89.5 -281h631q1 196 -73 290.5t-222 94.5z" />
    <glyph glyph-name="Gbreve" unicode="&#x11e;" horiz-adv-x="1329" 
d="M1017 1770q7 4 13.5 0.5t6.5 -11.5v-49q0 -14 -12 -23q-38 -30 -107.5 -56t-151.5 -26t-151.5 26t-107.5 56q-11 8 -11 23v49q0 8 6 11.5t13 -0.5q40 -25 67 -39t78.5 -29t105.5 -15t105.5 15t78.5 29t67 39zM759 1460h22q96 0 188 -26.5t154 -62.5q15 -7 15 -24v-65
q0 -6 -4.5 -8.5t-9.5 -0.5q-88 45 -165 69t-173 24h-15q-101 0 -192 -35t-163 -101t-114.5 -172t-42.5 -238v-207q0 -132 41 -237.5t111.5 -171.5t160 -101t190.5 -35h15q137 0 269 65v556q0 13 14 13h76q14 0 14 -13v-591q0 -18 -15 -27q-64 -39 -161 -68.5t-196 -29.5h-22
q-94 0 -182 25t-165.5 77.5t-134.5 126t-90 177t-32 224.5v227q0 151 51 273t136.5 198.5t193.5 117.5t226 41z" />
    <glyph glyph-name="gbreve" unicode="&#x11f;" horiz-adv-x="1105" 
d="M804 1360q8 4 14 1t6 -11v-50q0 -14 -12 -23q-38 -30 -107.5 -56t-151.5 -26t-151.5 26t-107.5 56q-12 9 -12 23v50q0 8 6 11t14 -1q40 -25 67 -39t78.5 -29t105.5 -15t105.5 15t78.5 29t67 39zM945 936q14 -9 14 -25v-885q0 -193 -105 -294t-289 -101h-12
q-164 0 -324 79q-14 6 -14 24v59q0 6 4.5 8.5t9.5 0.5q170 -85 312 -85h8q308 0 308 307v124q-72 -81 -163 -122t-175 -41h-10q-185 0 -283 119t-98 339v145q0 223 109 343t297 120h14q96 0 211 -36t186 -79zM530 73h5q171 0 322 172v625q-162 94 -310 94h-9
q-145 0 -226 -95.5t-81 -274.5v-151q0 -182 75.5 -276t223.5 -94z" />
    <glyph glyph-name="Gdotaccent" unicode="&#x120;" horiz-adv-x="1329" 
d="M688 1770h106q15 0 15 -15v-115q0 -15 -15 -15h-106q-15 0 -15 15v115q0 15 15 15zM759 1460h22q96 0 188 -26.5t154 -62.5q15 -7 15 -24v-65q0 -6 -4.5 -8.5t-9.5 -0.5q-88 45 -165 69t-173 24h-15q-101 0 -192 -35t-163 -101t-114.5 -172t-42.5 -238v-207
q0 -132 41 -237.5t111.5 -171.5t160 -101t190.5 -35h15q137 0 269 65v556q0 13 14 13h76q14 0 14 -13v-591q0 -18 -15 -27q-64 -39 -161 -68.5t-196 -29.5h-22q-94 0 -182 25t-165.5 77.5t-134.5 126t-90 177t-32 224.5v227q0 151 51 273t136.5 198.5t193.5 117.5t226 41z
" />
    <glyph glyph-name="gdotaccent" unicode="&#x121;" horiz-adv-x="1105" 
d="M500 1335h106q15 0 15 -15v-115q0 -15 -15 -15h-106q-15 0 -15 15v115q0 15 15 15zM945 936q14 -9 14 -25v-885q0 -193 -105 -294t-289 -101h-12q-164 0 -324 79q-14 6 -14 24v59q0 6 4.5 8.5t9.5 0.5q170 -85 312 -85h8q308 0 308 307v124q-72 -81 -163 -122t-175 -41
h-10q-185 0 -283 119t-98 339v145q0 223 109 343t297 120h14q96 0 211 -36t186 -79zM530 73h5q171 0 322 172v625q-164 94 -310 94h-9q-145 0 -226 -95.5t-81 -274.5v-151q0 -182 75.5 -276t223.5 -94z" />
    <glyph glyph-name="Gcommaaccent" unicode="&#x122;" horiz-adv-x="1329" 
d="M759 1460h22q96 0 188 -26.5t154 -62.5q15 -7 15 -24v-65q0 -6 -4.5 -8.5t-9.5 -0.5q-88 45 -165 69t-173 24h-15q-101 0 -192 -35t-163 -101t-114.5 -172t-42.5 -238v-207q0 -132 41 -237.5t111.5 -171.5t160 -101t190.5 -35h15q137 0 269 65v556q0 13 14 13h76
q14 0 14 -13v-591q0 -18 -15 -27q-64 -39 -161 -68.5t-196 -29.5h-22q-94 0 -182 25t-165.5 77.5t-134.5 126t-90 177t-32 224.5v227q0 151 51 273t136.5 198.5t193.5 117.5t226 41zM706 -102h110q15 0 15 -16v-89q0 -17 -4 -27l-73 -225q-4 -11 -15 -11h-53q-18 0 -12 19
l72 215h-40q-15 0 -15 15v103q0 16 15 16z" />
    <glyph glyph-name="gcommaaccent" unicode="&#x123;" horiz-adv-x="1105" 
d="M597 1190h-110q-15 0 -15 15v89q0 17 4 27l73 225q5 12 16 12h52q19 0 12 -20l-72 -215h40q16 0 16 -15v-103q0 -15 -16 -15zM945 936q14 -9 14 -25v-885q0 -193 -105 -294t-289 -101h-12q-164 0 -324 79q-14 6 -14 24v59q0 6 4.5 8.5t9.5 0.5q170 -85 312 -85h8
q308 0 308 307v124q-72 -81 -163 -122t-175 -41h-10q-185 0 -283 119t-98 339v145q0 223 109 343t297 120h14q96 0 211 -36t186 -79zM530 73h5q171 0 322 172v625q-162 94 -310 94h-9q-145 0 -226 -95.5t-81 -274.5v-151q0 -182 75.5 -276t223.5 -94z" />
    <glyph glyph-name="Hbar" unicode="&#x126;" horiz-adv-x="1417" 
d="M1219 1112h109q14 0 14 -13v-59q0 -14 -14 -14h-109v-1012q0 -14 -14 -14h-78q-13 0 -13 14v678h-810v-678q0 -14 -14 -14h-77q-14 0 -14 14v1012h-110q-14 0 -14 14v59q0 13 14 13h110v308q0 14 14 14h77q14 0 14 -14v-308h810v308q0 14 13 14h78q14 0 14 -14v-308z
M1114 1026h-810v-240h810v240z" />
    <glyph glyph-name="hbar" unicode="&#x127;" horiz-adv-x="1110" 
d="M610 1051h12q344 0 344 -375v-662q0 -14 -13 -14h-75q-13 0 -13 14v651q0 147 -63.5 222.5t-206.5 75.5h-5q-80 0 -168 -42.5t-169 -114.5v-792q0 -14 -14 -14h-74q-14 0 -14 14v1249h-123q-13 0 -13 14v55q0 13 13 13h123v151q0 13 14 13h74q14 0 14 -13v-151h282
q14 0 14 -13v-55q0 -14 -14 -14h-282v-368q81 71 176.5 113.5t180.5 42.5z" />
    <glyph glyph-name="Imacron" unicode="&#x12a;" horiz-adv-x="481" 
d="M-10 1707h503q14 0 14 -13v-55q0 -14 -14 -14h-503q-14 0 -14 14v55q0 13 14 13zM202 1434h77q14 0 14 -14v-1406q0 -14 -14 -14h-77q-14 0 -14 14v1406q0 14 14 14z" />
    <glyph glyph-name="imacron" unicode="&#x12b;" horiz-adv-x="399" 
d="M-59 1298h503q14 0 14 -14v-55q0 -14 -14 -14h-503q-13 0 -13 14v55q0 14 13 14zM165 1024h74q14 0 14 -14v-996q0 -14 -14 -14h-74q-14 0 -14 14v996q0 14 14 14z" />
    <glyph glyph-name="Iogonek" unicode="&#x12e;" horiz-adv-x="481" 
d="M202 1434h77q14 0 14 -14v-1406q0 -14 -14 -14q-52 -43 -78.5 -67t-59.5 -59.5t-47 -68.5t-14 -68q0 -52 32.5 -78.5t86.5 -26.5q26 0 66 9q14 3 14 -12v-32q0 -19 -18 -25q-33 -12 -80 -12q-77 0 -126.5 43t-49.5 123q0 65 43 126t151 148q-11 2 -11 14v1406q0 14 14 14
z" />
    <glyph glyph-name="iogonek" unicode="&#x12f;" horiz-adv-x="399" 
d="M149 1361h105q16 0 16 -16v-114q0 -16 -16 -16h-105q-16 0 -16 16v114q0 16 16 16zM165 1024h74q14 0 14 -14v-996q0 -14 -14 -14q-52 -43 -78.5 -67t-59.5 -59.5t-47 -68.5t-14 -68q0 -52 32.5 -78.5t86.5 -26.5q26 0 66 9q14 3 14 -12v-32q0 -19 -18 -25
q-33 -12 -80 -12q-77 0 -126.5 43t-49.5 123q0 65 43.5 126.5t150.5 148.5q-8 3 -8 13v996q0 14 14 14z" />
    <glyph glyph-name="Idotaccent" unicode="&#x130;" horiz-adv-x="481" 
d="M189 1770h105q16 0 16 -15v-115q0 -15 -16 -15h-105q-16 0 -16 15v115q0 15 16 15zM202 1434h77q14 0 14 -14v-1406q0 -14 -14 -14h-77q-14 0 -14 14v1406q0 14 14 14z" />
    <glyph glyph-name="dotlessi" unicode="&#x131;" horiz-adv-x="399" 
d="M165 1024h74q14 0 14 -14v-996q0 -14 -14 -14h-74q-14 0 -14 14v996q0 14 14 14z" />
    <glyph glyph-name="IJ" unicode="&#x132;" horiz-adv-x="1280" 
d="M202 1434h77q14 0 14 -14v-1406q0 -14 -14 -14h-77q-14 0 -14 14v1406q0 14 14 14zM998 1434h80q13 0 13 -14v-1080q0 -188 -81 -277.5t-221 -89.5h-11q-51 0 -109.5 17t-100.5 44q-12 7 -12 19v70q0 6 5 9.5t11 -0.5q99 -64 196 -64h7q210 0 210 279v1073q0 14 13 14z
" />
    <glyph glyph-name="ij" unicode="&#x133;" horiz-adv-x="843" 
d="M166 1356h96q15 0 15 -15v-110q0 -16 -15 -16h-96q-15 0 -15 16v110q0 15 15 15zM587 1356h95q16 0 16 -15v-110q0 -16 -16 -16h-95q-15 0 -15 16v110q0 15 15 15zM597 1024h75q14 0 14 -14v-1168q0 -106 -56 -158.5t-139 -52.5h-14q-66 0 -126 27q-15 6 -15 23v48
q0 19 17 12q56 -24 110 -24h8q47 0 80 29t33 95v1169q0 14 13 14zM177 1024h74q14 0 14 -14v-996q0 -14 -14 -14h-74q-14 0 -14 14v996q0 14 14 14z" />
    <glyph glyph-name="Kcommaaccent" unicode="&#x136;" horiz-adv-x="1251" 
d="M645 726l528 -706q4 -6 1 -13t-10 -7h-90q-10 0 -18 9l-505 667h-258v-662q0 -14 -14 -14h-77q-14 0 -14 14v1406q0 14 14 14h77q14 0 14 -14v-649h258l469 653q8 10 18 10h87q7 0 9.5 -7t-1.5 -13zM579 -102h110q15 0 15 -16v-89q0 -17 -4 -27l-73 -225q-4 -11 -15 -11
h-53q-17 0 -11 19l71 215h-40q-15 0 -15 15v103q0 16 15 16z" />
    <glyph glyph-name="kcommaaccent" unicode="&#x137;" horiz-adv-x="972" 
d="M547 530l367 -508q5 -8 2 -15t-12 -7h-83q-13 0 -19 10l-347 474h-202v-470q0 -14 -14 -14h-74q-14 0 -14 14v1482q0 13 14 13h74q14 0 14 -13v-925h203l307 442q7 11 20 11h77q9 0 12.5 -7t-1.5 -15zM440 -102h110q15 0 15 -15v-90q0 -19 -3 -27l-73 -225
q-4 -11 -16 -11h-53q-18 0 -11 20l71 214h-40q-15 0 -15 15v103q0 16 15 16z" />
    <glyph glyph-name="Lacute" unicode="&#x139;" horiz-adv-x="1081" 
d="M204 1616l147 322q8 16 26 16h62q8 0 11.5 -6t0.5 -13l-168 -320q-8 -16 -23 -16h-48q-7 0 -9 5t1 12zM293 95h700q14 0 14 -14v-67q0 -14 -14 -14h-791q-14 0 -14 14v1406q0 14 14 14h77q14 0 14 -14v-1325z" />
    <glyph glyph-name="lacute" unicode="&#x13a;" horiz-adv-x="395" 
d="M171 1692l147 321q8 16 26 16h62q8 0 11 -5.5t0 -12.5l-167 -321q-8 -15 -23 -15h-48q-7 0 -9 5t1 12zM165 1509h74q14 0 14 -13v-1482q0 -14 -14 -14h-74q-14 0 -14 14v1482q0 13 14 13z" />
    <glyph glyph-name="Lcommaaccent" unicode="&#x13b;" horiz-adv-x="1081" 
d="M293 95h700q14 0 14 -14v-67q0 -14 -14 -14h-791q-14 0 -14 14v1406q0 14 14 14h77q14 0 14 -14v-1325zM495 -102h110q15 0 15 -16v-89q0 -17 -4 -27l-73 -225q-4 -11 -15 -11h-53q-17 0 -11 19l71 215h-40q-15 0 -15 15v103q0 16 15 16z" />
    <glyph glyph-name="lcommaaccent" unicode="&#x13c;" horiz-adv-x="395" 
d="M165 1509h74q14 0 14 -13v-1482q0 -14 -14 -14h-74q-14 0 -14 14v1482q0 13 14 13zM153 -102h109q16 0 16 -16v-89q0 -17 -4 -27l-73 -225q-4 -11 -16 -11h-53q-17 0 -11 19l72 215h-40q-16 0 -16 15v103q0 16 16 16z" />
    <glyph glyph-name="Lcaron" unicode="&#x13d;" horiz-adv-x="1081" 
d="M774 1434h110q15 0 15 -16v-89q0 -19 -3 -27l-74 -225q-4 -11 -15 -11h-53q-17 0 -11 19l71 215h-40q-15 0 -15 15v103q0 16 15 16zM293 95h700q14 0 14 -14v-67q0 -14 -14 -14h-791q-14 0 -14 14v1406q0 14 14 14h77q14 0 14 -14v-1325z" />
    <glyph glyph-name="lcaron" unicode="&#x13e;" horiz-adv-x="575" 
d="M395 1509h110q16 0 16 -15v-89q0 -17 -4 -27l-73 -225q-4 -12 -16 -12h-53q-18 0 -11 20l71 215h-40q-15 0 -15 15v103q0 15 15 15zM165 1509h74q14 0 14 -13v-1482q0 -14 -14 -14h-74q-14 0 -14 14v1482q0 13 14 13z" />
    <glyph glyph-name="Ldot" unicode="&#x13f;" horiz-adv-x="1081" 
d="M293 95h700q14 0 14 -14v-67q0 -14 -14 -14h-791q-14 0 -14 14v1406q0 14 14 14h77q14 0 14 -14v-1325zM779 668h105q16 0 16 -16v-114q0 -16 -16 -16h-105q-16 0 -16 16v114q0 16 16 16z" />
    <glyph glyph-name="ldot" unicode="&#x140;" horiz-adv-x="569" 
d="M165 1509h74q14 0 14 -13v-1482q0 -14 -14 -14h-74q-14 0 -14 14v1482q0 13 14 13zM394 668h106q15 0 15 -16v-115q0 -15 -15 -15h-106q-15 0 -15 15v115q0 16 15 16z" />
    <glyph glyph-name="Lslash" unicode="&#x141;" horiz-adv-x="1107" 
d="M319 95h700q13 0 13 -14v-67q0 -14 -13 -14h-792q-13 0 -13 14v566l-107 -75q-10 -6 -19 3l-34 49q-10 10 3 20l157 109v734q0 14 13 14h78q14 0 14 -14v-661l258 180q10 8 19 -3l34 -49q9 -9 -4 -19l-307 -215v-558z" />
    <glyph glyph-name="lslash" unicode="&#x142;" horiz-adv-x="595" 
d="M504 1005l34 -49q9 -9 -4 -19l-188 -132v-791q0 -14 -14 -14h-74q-14 0 -14 14v720l-133 -93q-10 -6 -19 3l-34 49q-10 10 3 20l183 127v656q0 13 14 13h74q14 0 14 -13v-585l139 97q10 6 19 -3z" />
    <glyph glyph-name="Nacute" unicode="&#x143;" horiz-adv-x="1394" 
d="M659 1616l148 322q8 16 25 16h62q8 0 11.5 -6t0.5 -13l-167 -320q-8 -16 -24 -16h-47q-7 0 -9.5 5t0.5 12zM1125 1434h77q14 0 14 -14v-1406q0 -14 -14 -14h-94q-12 0 -20 11l-804 1261h-6l6 -520v-738q0 -14 -14 -14h-78q-13 0 -13 14v1406q0 14 13 14h95q12 0 20 -11
l804 -1261h6l-6 633v625q0 14 14 14z" />
    <glyph glyph-name="nacute" unicode="&#x144;" horiz-adv-x="1099" 
d="M554 1206l148 322q8 16 25 16h62q8 0 11.5 -6t0.5 -13l-167 -320q-8 -15 -23 -15h-48q-16 0 -9 16zM605 1051h11q341 0 341 -375v-662q0 -14 -14 -14h-74q-14 0 -14 14v651q0 148 -61 223t-204 75h-5q-79 0 -167.5 -42t-168.5 -114v-793q0 -14 -14 -14h-74q-14 0 -14 14
v996q0 14 14 14h68q12 0 14 -12l3 -119q81 71 177.5 114.5t181.5 43.5z" />
    <glyph glyph-name="Ncommaaccent" unicode="&#x145;" horiz-adv-x="1394" 
d="M1125 1434h77q14 0 14 -14v-1406q0 -14 -14 -14h-94q-12 0 -20 11l-804 1261h-6l6 -520v-738q0 -14 -14 -14h-78q-13 0 -13 14v1406q0 14 13 14h95q12 0 20 -11l804 -1261h6l-6 633v625q0 14 14 14zM651 -102h110q15 0 15 -16v-89q0 -19 -3 -27l-74 -225q-4 -11 -15 -11
h-53q-17 0 -11 19l71 215h-40q-15 0 -15 15v103q0 16 15 16z" />
    <glyph glyph-name="ncommaaccent" unicode="&#x146;" horiz-adv-x="1099" 
d="M605 1051h11q341 0 341 -375v-662q0 -14 -14 -14h-74q-14 0 -14 14v651q0 148 -61 223t-204 75h-5q-79 0 -167.5 -42t-168.5 -114v-793q0 -14 -14 -14h-74q-14 0 -14 14v996q0 14 14 14h68q12 0 14 -12l3 -119q81 71 177.5 114.5t181.5 43.5zM505 -102h110q15 0 15 -16
v-89q0 -17 -4 -27l-73 -225q-4 -11 -16 -11h-52q-18 0 -12 19l72 215h-40q-16 0 -16 15v103q0 16 16 16z" />
    <glyph glyph-name="Ncaron" unicode="&#x147;" horiz-adv-x="1394" 
d="M858 1954h56q8 0 12 -6t0 -13l-184 -320q-8 -16 -24 -16h-42q-15 0 -23 16l-184 320q-4 7 0 13t12 6h56q17 0 25 -16l135 -264l135 264q8 16 26 16zM1125 1434h77q14 0 14 -14v-1406q0 -14 -14 -14h-94q-12 0 -20 11l-804 1261h-6l6 -520v-738q0 -14 -14 -14h-78
q-13 0 -13 14v1406q0 14 13 14h95q12 0 20 -11l804 -1261h6l-6 633v625q0 14 14 14z" />
    <glyph glyph-name="ncaron" unicode="&#x148;" horiz-adv-x="1099" 
d="M711 1544h57q8 0 12 -6t0 -13l-185 -320q-7 -15 -23 -15h-42q-16 0 -23 15l-185 320q-4 7 0 13t12 6h56q18 0 26 -16l135 -263l135 263q8 16 25 16zM605 1051h11q341 0 341 -375v-662q0 -14 -14 -14h-74q-14 0 -14 14v651q0 148 -61 223t-204 75h-5q-79 0 -167.5 -42
t-168.5 -114v-793q0 -14 -14 -14h-74q-14 0 -14 14v996q0 14 14 14h68q12 0 14 -12l3 -119q81 71 177.5 114.5t181.5 43.5z" />
    <glyph glyph-name="Eng" unicode="&#x14a;" horiz-adv-x="1394" 
d="M1125 1434h77q14 0 14 -14v-1422q0 -189 -77.5 -278t-216.5 -89h-10q-51 0 -110 17t-101 44q-11 6 -11 19v68q0 6 5 9.5t11 -0.5q99 -64 196 -64h6q196 0 197 260l-821 1288h-6l6 -520v-738q0 -14 -14 -14h-78q-13 0 -13 14v1406q0 14 13 14h95q12 0 20 -11l804 -1261h6
l-6 633v625q0 14 14 14z" />
    <glyph glyph-name="eng" unicode="&#x14b;" horiz-adv-x="1099" 
d="M605 1051h11q341 0 341 -375v-834q0 -106 -56 -158.5t-139 -52.5h-14q-66 0 -126 27q-15 6 -15 23v48q0 19 17 12q56 -24 110 -24h8q47 0 80 29t33 95v824q0 148 -61 223t-204 75h-5q-79 0 -167.5 -42t-168.5 -114v-793q0 -14 -14 -14h-74q-14 0 -14 14v996q0 14 14 14
h68q12 0 14 -12l3 -119q81 71 177.5 114.5t181.5 43.5z" />
    <glyph glyph-name="Omacron" unicode="&#x14c;" horiz-adv-x="1413" 
d="M456 1707h504q13 0 13 -13v-55q0 -14 -13 -14h-504q-13 0 -13 14v55q0 13 13 13zM692 1460h30q114 0 211 -38t171 -111t116 -191t42 -268v-270q0 -150 -42 -268t-116 -191.5t-171 -111.5t-211 -38h-30q-114 0 -211 38t-171 111.5t-116 191.5t-42 268v270q0 150 42 268
t116 191t171 111t211 38zM719 1365h-24q-197 0 -316.5 -130.5t-119.5 -386.5v-262q0 -256 119.5 -387t316.5 -131h24q197 0 316.5 131t119.5 387v262q0 256 -119.5 386.5t-316.5 130.5z" />
    <glyph glyph-name="omacron" unicode="&#x14d;" horiz-adv-x="1144" 
d="M322 1298h503q14 0 14 -14v-55q0 -14 -14 -14l-503 1q-14 0 -14 13v55q0 14 14 14zM561 1051h23q190 0 311.5 -122t121.5 -341v-152q0 -219 -121.5 -341t-311.5 -122h-23q-190 0 -311.5 122t-121.5 341v152q0 219 121.5 341t311.5 122zM581 963h-17q-149 0 -241 -97
t-92 -274v-160q0 -177 92 -274t241 -97h17q149 0 241 97t92 274v160q0 177 -92 274t-241 97z" />
    <glyph glyph-name="Ohungarumlaut" unicode="&#x150;" horiz-adv-x="1413" 
d="M557 1616l147 322q8 16 26 16h56q8 0 11.5 -6t0.5 -13l-167 -320q-8 -16 -23 -16h-43q-7 0 -9 5t1 12zM797 1616l148 322q8 16 25 16h57q8 0 11.5 -6t0.5 -13l-168 -320q-8 -16 -23 -16h-42q-7 0 -9.5 5t0.5 12zM692 1460h30q114 0 211 -38t171 -111t116 -191t42 -268
v-270q0 -150 -42 -268t-116 -191.5t-171 -111.5t-211 -38h-30q-114 0 -211 38t-171 111.5t-116 191.5t-42 268v270q0 150 42 268t116 191t171 111t211 38zM719 1365h-24q-197 0 -316.5 -130.5t-119.5 -386.5v-262q0 -256 119.5 -387t316.5 -131h24q197 0 316.5 131
t119.5 387v262q0 256 -119.5 386.5t-316.5 130.5z" />
    <glyph glyph-name="ohungarumlaut" unicode="&#x151;" horiz-adv-x="1144" 
d="M429 1206l148 322q8 16 25 16h57q8 0 11.5 -6t0.5 -13l-168 -320q-7 -15 -23 -15h-42q-16 0 -9 16zM670 1206l147 322q8 16 26 16h56q8 0 11.5 -6t0.5 -13l-167 -320q-8 -15 -23 -15h-43q-15 0 -8 16zM561 1051h23q190 0 311.5 -122t121.5 -341v-152q0 -219 -121.5 -341
t-311.5 -122h-23q-190 0 -311.5 122t-121.5 341v152q0 219 121.5 341t311.5 122zM581 963h-17q-149 0 -241 -97t-92 -274v-160q0 -177 92 -274t241 -97h17q149 0 241 97t92 274v160q0 177 -92 274t-241 97z" />
    <glyph glyph-name="OE" unicode="&#x152;" horiz-adv-x="2111" 
d="M692 1460h30q154 0 272.5 -69t181.5 -205v234q0 14 14 14h815q13 0 13 -14v-68q0 -13 -13 -13h-745v-553h700q14 0 14 -13v-68q0 -13 -14 -13h-700v-597h745q13 0 13 -14v-67q0 -14 -13 -14h-815q-14 0 -14 14v234q-63 -136 -182 -205.5t-272 -69.5h-30q-114 0 -211 38
t-171 111.5t-116 191.5t-42 268v270q0 150 42 268t116 191t171 111t211 38zM719 1365h-24q-197 0 -316.5 -130.5t-119.5 -386.5v-262q0 -256 119.5 -387t316.5 -131h24q197 0 316.5 131t119.5 387v262q0 256 -119.5 386.5t-316.5 130.5z" />
    <glyph glyph-name="oe" unicode="&#x153;" horiz-adv-x="1869" 
d="M1335 1051h22q186 0 287.5 -118t101.5 -342v-66q0 -17 -17 -17h-712v-108q0 -158 100 -249t257 -91h9q143 0 315 85q4 3 9 0.5t5 -8.5v-59q0 -18 -14 -24q-61 -33 -153 -57t-169 -24h-14q-140 0 -247 64t-153 180q-47 -118 -146.5 -181t-231.5 -63h-23q-190 0 -311.5 122
t-121.5 341v152q0 219 121.5 341t311.5 122h23q136 0 237 -66.5t146 -191.5q46 122 143.5 190t224.5 68zM1354 967h-17q-142 0 -230.5 -104t-89.5 -281h632q1 196 -73 290.5t-222 94.5zM581 963h-17q-149 0 -241 -97t-92 -274v-160q0 -177 92 -274t241 -97h17q149 0 241 97
t92 274v160q0 177 -92 274t-241 97z" />
    <glyph glyph-name="Racute" unicode="&#x154;" horiz-adv-x="1267" 
d="M539 1616l147 322q8 16 26 16h61q8 0 11.5 -6t0.5 -13l-167 -320q-8 -16 -23 -16h-48q-7 0 -9 5t1 12zM202 1434h435q257 0 377.5 -99t120.5 -291v-35q0 -99 -36 -180t-118.5 -141.5t-203.5 -82.5l149 -210l263 -379q5 -6 2 -11t-11 -5h-88q-13 0 -21 13l-400 575h-378
v-574q0 -14 -14 -14h-77q-14 0 -14 14v1406q0 14 14 14zM293 1339v-661h324q110 0 191.5 26.5t128.5 74t69.5 106t22.5 129.5v14q0 156 -92 233.5t-311 77.5h-333z" />
    <glyph glyph-name="racute" unicode="&#x155;" horiz-adv-x="720" 
d="M359 1206l148 322q8 16 25 16h62q8 0 11.5 -6t0.5 -13l-167 -320q-7 -15 -24 -15h-47q-16 0 -9 16zM584 1051h9q34 0 58 -4q15 -3 15 -20v-64q0 -16 -21 -13q-32 5 -63 5h-6q-162 0 -327 -191v-750q0 -14 -14 -14h-74q-14 0 -14 14v996q0 14 14 14h68q12 0 14 -12l4 -150
q75 92 162.5 140.5t174.5 48.5z" />
    <glyph glyph-name="Rcommaaccent" unicode="&#x156;" horiz-adv-x="1267" 
d="M202 1434h435q257 0 377.5 -99t120.5 -291v-35q0 -99 -36 -180t-118.5 -141.5t-203.5 -82.5l149 -210l263 -379q5 -6 2 -11t-11 -5h-88q-13 0 -21 13l-400 575h-378v-574q0 -14 -14 -14h-77q-14 0 -14 14v1406q0 14 14 14zM293 1339v-661h324q110 0 191.5 26.5t128.5 74
t69.5 106t22.5 129.5v14q0 156 -92 233.5t-311 77.5h-333zM593 -102h110q15 0 15 -16v-89q0 -19 -3 -27l-74 -225q-4 -11 -15 -11h-53q-17 0 -11 19l71 215h-40q-15 0 -15 15v103q0 16 15 16z" />
    <glyph glyph-name="rcommaaccent" unicode="&#x157;" horiz-adv-x="720" 
d="M584 1051h9q34 0 58 -4q15 -3 15 -20v-64q0 -16 -21 -13q-32 5 -63 5h-6q-162 0 -327 -191v-750q0 -14 -14 -14h-74q-14 0 -14 14v996q0 14 14 14h68q12 0 14 -12l4 -150q75 92 162.5 140.5t174.5 48.5zM162 -102h110q16 0 16 -16v-89q0 -17 -4 -27l-73 -225
q-4 -11 -16 -11h-53q-17 0 -11 19l71 215h-40q-15 0 -15 15v103q0 16 15 16z" />
    <glyph glyph-name="Rcaron" unicode="&#x158;" horiz-adv-x="1267" 
d="M786 1954h56q8 0 12 -6t0 -13l-184 -320q-8 -16 -24 -16h-42q-15 0 -23 16l-184 320q-4 7 -0.5 13t11.5 6h57q17 0 25 -16l135 -264l135 264q8 16 26 16zM202 1434h435q257 0 377.5 -99t120.5 -291v-35q0 -99 -36 -180t-118.5 -141.5t-203.5 -82.5l149 -210l263 -379
q5 -6 2 -11t-11 -5h-88q-13 0 -21 13l-400 575h-378v-574q0 -14 -14 -14h-77q-14 0 -14 14v1406q0 14 14 14zM293 1339v-661h324q110 0 191.5 26.5t128.5 74t69.5 106t22.5 129.5v14q0 156 -92 233.5t-311 77.5h-333z" />
    <glyph glyph-name="rcaron" unicode="&#x159;" horiz-adv-x="720" 
d="M521 1544h57q8 0 12 -6t0 -13l-185 -320q-7 -15 -23 -15h-42q-16 0 -24 15l-184 320q-4 7 0 13t12 6h56q18 0 26 -16l135 -263l135 263q8 16 25 16zM584 1051h9q34 0 58 -4q15 -3 15 -20v-64q0 -16 -21 -13q-32 5 -63 5h-6q-162 0 -327 -191v-750q0 -14 -14 -14h-74
q-14 0 -14 14v996q0 14 14 14h68q12 0 14 -12l4 -150q75 92 162.5 140.5t174.5 48.5z" />
    <glyph glyph-name="Sacute" unicode="&#x15a;" horiz-adv-x="1124" 
d="M514 1616l147 322q8 16 26 16h62q8 0 11.5 -6t0.5 -13l-168 -320q-8 -16 -23 -16h-48q-7 0 -9 5t1 12zM480 707l98 -33q49 -16 78.5 -27t68.5 -28.5t62 -33t48 -38t38.5 -48t22 -59t8.5 -73.5v-8q0 -132 -99 -211.5t-254 -79.5h-15q-73 0 -145 16.5t-118.5 35.5
t-116.5 53q-5 2 -10 -0.5t-5 -8.5v-67q0 -17 15 -25q67 -38 171.5 -68.5t210.5 -30.5h19q195 0 324.5 103.5t129.5 274.5v20q0 72 -21 129.5t-53 97t-86.5 73.5t-105 55.5t-124.5 46.5l-99 33q-159 53 -231 114t-72 162v10q0 86 48.5 150t121.5 94t156 30h15
q99 0 180.5 -24.5t170.5 -68.5q5 -2 9.5 0.5t4.5 8.5v66q0 18 -15 25q-60 35 -156 61t-196 26h-19q-109 0 -204 -40t-158.5 -124t-63.5 -196v-23q0 -138 92.5 -223.5t274.5 -146.5z" />
    <glyph glyph-name="sacute" unicode="&#x15b;" horiz-adv-x="870" 
d="M395 1206l147 322q8 16 26 16h61q8 0 11.5 -6t0.5 -13l-167 -320q-8 -15 -23 -15h-48q-15 0 -8 16zM423 1051h22q68 0 151 -23t134 -54q15 -6 15 -24v-57q0 -6 -4.5 -8.5t-9.5 -0.5q-150 84 -282 84h-15q-104 0 -175.5 -48.5t-71.5 -134.5v-13q0 -18 4 -34t9 -28.5
t17.5 -25l20.5 -20.5t26.5 -18t27.5 -15t32.5 -14t31.5 -11.5t35 -11.5l33 -11l54 -18q62 -20 102 -36t83 -41t67 -53.5t40 -70.5t16 -95v-10q0 -135 -101 -210.5t-246 -75.5h-21q-71 0 -162.5 23.5t-142.5 54.5q-14 6 -14 24v57q0 6 4.5 8t9.5 0q151 -84 302 -84h17
q107 0 179.5 52t72.5 146v12q0 37 -14 67t-31.5 48.5t-53 37t-57.5 26.5t-67 23l-53 17q-141 47 -192 76q-131 72 -131 203v14q0 128 99 200.5t239 72.5z" />
    <glyph glyph-name="Scedilla" unicode="&#x15e;" horiz-adv-x="1124" 
d="M522 806l99 -33q74 -25 124.5 -46.5t105 -55.5t86.5 -73.5t53 -97t21 -129.5v-20q0 -171 -129.5 -274.5t-324.5 -103.5h-9l-17 -102q34 10 71 10q74 0 119 -41t45 -112q0 -80 -55.5 -124t-144.5 -44q-73 0 -127 20q-19 6 -19 26v25q0 16 15 12q4 -1 21 -5t29.5 -7
t32.5 -5.5t38 -2.5q63 0 99 25t36 75q0 45 -28.5 68.5t-76.5 23.5q-18 0 -85 -14q-18 -4 -25 3l-7 6q-13 11 -11 21l26 145q-94 8 -182.5 36t-145.5 60q-14 7 -14 25v67q0 6 4.5 8.5t9.5 0.5q70 -34 116.5 -53t118.5 -35.5t145 -16.5h15q155 0 254 79.5t99 211.5v8
q0 40 -8.5 73.5t-22 59t-38.5 48t-48 38t-62 33t-68.5 28.5t-78.5 27l-98 33q-182 61 -274.5 146.5t-92.5 223.5v23q0 112 63.5 196t158.5 124t204 40h19q100 0 196 -26t156 -61q15 -7 15 -25v-66q0 -6 -4.5 -8.5t-9.5 -0.5q-89 44 -170.5 68.5t-180.5 24.5h-15
q-83 0 -156 -30t-121.5 -94t-48.5 -150v-10q0 -101 72 -162t231 -114z" />
    <glyph glyph-name="scedilla" unicode="&#x15f;" horiz-adv-x="870" 
d="M424 583l54 -18q62 -20 102 -36t83 -41t67 -53.5t40 -70.5t16 -95v-10q0 -135 -101 -210.5t-246 -75.5h-21q-17 0 -26 1l-17 -103q36 10 70 10q74 0 119 -41t45 -112q0 -80 -55 -124t-144 -44q-74 0 -128 20q-18 6 -18 26v25q0 15 14 12q4 -1 21 -5t29.5 -7t33 -5.5
t38.5 -2.5q62 0 98 25t36 75q0 45 -28.5 68.5t-76.5 23.5q-18 0 -85 -14q-18 -4 -25 3l-6 6q-13 11 -11 21l26 150q-137 22 -215 70q-14 6 -14 24v57q0 6 4.5 8t9.5 0q151 -84 302 -84h17q107 0 179.5 51.5t72.5 145.5v13q0 37 -14 67t-31.5 48.5t-53 37t-57.5 26.5t-67 23
l-53 17q-141 47 -192 76q-131 72 -131 203v14q0 128 99 200.5t239 72.5h22q68 0 151 -23t134 -54q15 -6 15 -24v-57q0 -6 -4.5 -8.5t-9.5 -0.5q-150 84 -282 84h-15q-104 0 -175.5 -48.5t-71.5 -134.5v-13q0 -18 4 -34t9 -28.5t17.5 -25l20.5 -20.5t26.5 -18t27.5 -15
t32.5 -14t31.5 -11.5t35 -11.5z" />
    <glyph glyph-name="Scaron" unicode="&#x160;" horiz-adv-x="1124" 
d="M723 1954h57q8 0 12 -6t0 -13l-185 -320q-8 -16 -23 -16h-42q-15 0 -23 16l-185 320q-4 7 0 13t12 6h56q18 0 26 -16l135 -264l135 264q8 16 25 16zM480 707l98 -33q49 -16 78.5 -27t68.5 -28.5t62 -33t48 -38t38.5 -48t22 -59t8.5 -73.5v-8q0 -132 -99 -211.5
t-254 -79.5h-15q-105 0 -189.5 26.5t-190.5 78.5q-5 2 -9.5 -0.5t-4.5 -8.5v-67q0 -18 14 -25q67 -38 171.5 -68.5t210.5 -30.5h19q195 0 324.5 103.5t129.5 274.5v20q0 72 -21 129.5t-53 97t-86.5 73.5t-105 55.5t-124.5 46.5l-99 33q-159 53 -231 114t-72 162v10
q0 86 48.5 150t121.5 94t156 30h15q99 0 180.5 -24.5t170.5 -68.5q5 -2 9.5 0.5t4.5 8.5v66q0 18 -15 25q-60 35 -156 61t-196 26h-19q-109 0 -204 -40t-158.5 -124t-63.5 -196v-23q0 -138 92.5 -223.5t274.5 -146.5z" />
    <glyph glyph-name="scaron" unicode="&#x161;" horiz-adv-x="870" 
d="M597 1544h56q8 0 12 -6t0 -13l-184 -320q-7 -15 -23 -15h-43q-15 0 -23 15l-184 320q-4 7 0 13t12 6h56q18 0 26 -16l135 -263l134 263q8 16 26 16zM423 1051h22q68 0 151 -23t134 -54q15 -6 15 -24v-57q0 -6 -4.5 -8.5t-9.5 -0.5q-150 84 -282 84h-15
q-104 0 -175.5 -48.5t-71.5 -134.5v-13q0 -18 4 -34t9 -28.5t17.5 -25l20.5 -20.5t26.5 -18t27.5 -15t32.5 -14t31.5 -11.5t35 -11.5l33 -11l54 -18q62 -20 102 -36t83 -41t67 -53.5t40 -70.5t16 -95v-10q0 -135 -101 -210.5t-246 -75.5h-21q-71 0 -162.5 23.5t-142.5 54.5
q-14 6 -14 24v57q0 6 4.5 8t9.5 0q151 -84 302 -84h17q107 0 179.5 52t72.5 146v12q0 37 -14 67t-31.5 48.5t-53 37t-57.5 26.5t-67 23l-53 17q-141 47 -192 76q-131 72 -131 203v14q0 128 99 200.5t239 72.5z" />
    <glyph glyph-name="Tcedilla" unicode="&#x162;" horiz-adv-x="1224" 
d="M89 1434h1046q14 0 14 -14v-68q0 -13 -14 -13h-471v-1325q0 -14 -13 -14h-18l-22 -129q36 10 71 10q74 0 119 -41t45 -112q0 -80 -55.5 -124t-144.5 -44q-73 0 -127 20q-19 6 -19 26v25q0 16 15 12q4 -1 21 -5t29.5 -7t32.5 -5.5t38 -2.5q63 0 99 25t36 75q0 45 -29 68.5
t-77 23.5q-17 0 -84 -14q-18 -4 -25 3l-7 6q-13 11 -11 21l30 170q-8 3 -8 13v1325h-471q-14 0 -14 13v68q0 14 14 14z" />
    <glyph glyph-name="tcedilla" unicode="&#x163;" horiz-adv-x="671" 
d="M599 96q7 3 12 -1t5 -12v-50q0 -16 -13 -21q-87 -39 -160 -39h-14q-29 0 -57 5l-18 -107q36 10 71 10q74 0 119 -41t45 -112q0 -80 -55 -124t-144 -44q-74 0 -128 20q-18 6 -18 26v25q0 15 14 12q4 -1 21 -5t29.5 -7t32.5 -5.5t38 -2.5q63 0 99 25t36 75q0 45 -28.5 68.5
t-76.5 23.5q-18 0 -85 -14q-18 -4 -25 3l-7 6q-13 11 -11 21l29 165q-110 52 -110 221v721h-132q-13 0 -13 13v54q0 11 13 13l132 6v205q0 19 13 21l68 16q21 6 21 -14v-228h301q13 0 13 -14v-59q0 -13 -13 -13h-301v-711q0 -85 34 -125.5t111 -40.5h8q57 0 144 35z" />
    <glyph glyph-name="Tcaron" unicode="&#x164;" horiz-adv-x="1224" 
d="M774 1954h56q8 0 12 -6t0 -13l-185 -320q-8 -16 -23 -16h-42q-15 0 -23 16l-185 320q-4 7 0 13t12 6h57q17 0 25 -16l135 -264l135 264q8 16 26 16zM89 1434h1046q14 0 14 -14v-68q0 -13 -14 -13h-471v-1325q0 -14 -13 -14h-78q-13 0 -13 14v1325h-471q-14 0 -14 13v68
q0 14 14 14z" />
    <glyph glyph-name="tcaron" unicode="&#x165;" horiz-adv-x="878" 
d="M699 1509h110q15 0 15 -15v-89q0 -17 -4 -27l-73 -225q-5 -12 -15 -12h-53q-19 0 -12 20l72 215h-40q-15 0 -15 15v103q0 15 15 15zM213 1250l68 16q21 6 21 -14v-228h301q13 0 13 -14v-59q0 -13 -13 -13h-301v-711q0 -85 34 -125.5t111 -40.5h8q57 0 144 35q7 3 12 -1
t5 -12v-50q0 -16 -13 -21q-87 -39 -160 -39h-14q-229 0 -229 244v721h-132q-13 0 -13 13v54q0 11 13 13l132 6v205q0 19 13 21z" />
    <glyph glyph-name="Tbar" unicode="&#x166;" horiz-adv-x="1224" 
d="M89 1434h1046q14 0 14 -14v-68q0 -13 -14 -13h-471v-443h223q14 0 14 -13v-55q0 -14 -14 -14h-223v-800q0 -14 -13 -14h-78q-13 0 -13 14v800h-223q-14 0 -14 14v55q0 13 14 13h223v443h-471q-14 0 -14 13v68q0 14 14 14z" />
    <glyph glyph-name="tbar" unicode="&#x167;" horiz-adv-x="671" 
d="M302 609v-382q0 -85 34 -125.5t111 -40.5h8q57 0 144 35q7 3 12 -1t5 -12v-50q0 -16 -13 -21q-87 -39 -160 -39h-14q-229 0 -229 244v392h-132q-13 0 -13 13v55q0 14 13 14h132v247h-132q-13 0 -13 13v54q0 11 13 13l132 6v205q0 19 13 21l68 16q21 6 21 -14v-228h301
q13 0 13 -14v-59q0 -13 -13 -13h-301v-247h301q13 0 13 -14v-55q0 -14 -13 -14z" />
    <glyph glyph-name="Umacron" unicode="&#x16a;" horiz-adv-x="1398" 
d="M448 1707h503q14 0 14 -13v-55q0 -14 -14 -14h-503q-14 0 -14 14v55q0 13 14 13zM1129 1434h77q14 0 14 -14v-907q0 -264 -135.5 -402t-365.5 -138h-30q-230 0 -365.5 138t-135.5 402v907q0 14 14 14h77q14 0 14 -14v-899q0 -224 104.5 -338.5t294.5 -114.5h24
q190 0 294.5 114.5t104.5 338.5v899q0 14 14 14z" />
    <glyph glyph-name="umacron" unicode="&#x16b;" 
d="M289 1298h503q14 0 14 -14v-55q0 -14 -14 -14l-503 1q-14 0 -14 13v55q0 14 14 14zM848 1024h75q14 0 14 -14v-996q0 -14 -14 -14h-68q-12 0 -14 12l-3 119q-81 -71 -177.5 -114.5t-181.5 -43.5h-11q-170 0 -247.5 95.5t-77.5 279.5v662q0 14 14 14h74q14 0 14 -14v-651
q0 -149 55.5 -223.5t193.5 -74.5h5q79 0 167.5 42t168.5 114v793q0 14 13 14z" />
    <glyph glyph-name="Uring" unicode="&#x16e;" horiz-adv-x="1398" 
d="M700 1889q67 0 113 -45.5t46 -110.5q0 -66 -46.5 -111.5t-112.5 -45.5q-68 0 -114 46t-46 111q0 64 46.5 110t113.5 46zM700 1826q-41 0 -66 -26.5t-25 -64.5q0 -40 25 -68t66 -28t65.5 28t24.5 68q0 38 -24.5 64.5t-65.5 26.5zM1129 1434h77q14 0 14 -14v-907
q0 -264 -135.5 -402t-365.5 -138h-30q-230 0 -365.5 138t-135.5 402v907q0 14 14 14h77q14 0 14 -14v-899q0 -224 104.5 -338.5t294.5 -114.5h24q190 0 294.5 114.5t104.5 338.5v899q0 14 14 14z" />
    <glyph glyph-name="uring" unicode="&#x16f;" 
d="M541 1480q67 0 113 -45.5t46 -110.5q0 -66 -46.5 -112t-112.5 -46q-68 0 -114 46.5t-46 111.5q0 64 46.5 110t113.5 46zM541 1416q-41 0 -66 -26.5t-25 -64.5q0 -40 25 -68t66 -28t65.5 28t24.5 68q0 38 -24.5 64.5t-65.5 26.5zM849 1024h74q14 0 14 -14v-996
q0 -14 -14 -14h-68q-12 0 -14 12l-3 119q-81 -71 -177.5 -114.5t-181.5 -43.5h-11q-170 0 -247.5 95.5t-77.5 279.5v662q0 14 14 14h74q14 0 14 -14v-651q0 -149 55.5 -223.5t193.5 -74.5h5q79 0 167.5 42t168.5 114v793q0 14 14 14z" />
    <glyph glyph-name="Uhungarumlaut" unicode="&#x170;" horiz-adv-x="1398" 
d="M557 1616l147 322q8 16 26 16h56q8 0 11.5 -6t0.5 -13l-167 -320q-8 -16 -24 -16h-42q-7 0 -9 5t1 12zM797 1616l148 322q8 16 25 16h57q8 0 11.5 -6t0.5 -13l-168 -320q-8 -16 -23 -16h-42q-7 0 -9.5 5t0.5 12zM1129 1434h77q14 0 14 -14v-907q0 -264 -135.5 -402
t-365.5 -138h-30q-230 0 -365.5 138t-135.5 402v907q0 14 14 14h77q14 0 14 -14v-899q0 -224 104.5 -338.5t294.5 -114.5h24q190 0 294.5 114.5t104.5 338.5v899q0 14 14 14z" />
    <glyph glyph-name="uhungarumlaut" unicode="&#x171;" 
d="M388 1206l147 322q8 16 26 16h56q8 0 11.5 -6t0.5 -13l-167 -320q-8 -15 -24 -15h-42q-15 0 -8 16zM628 1206l148 322q8 16 25 16h57q8 0 11.5 -6t0.5 -13l-168 -320q-8 -15 -23 -15h-42q-16 0 -9 16zM849 1024h74q14 0 14 -14v-996q0 -14 -14 -14h-68q-12 0 -14 12
l-3 119q-81 -71 -177.5 -114.5t-181.5 -43.5h-11q-170 0 -247.5 95.5t-77.5 279.5v662q0 14 14 14h74q14 0 14 -14v-651q0 -149 55.5 -223.5t193.5 -74.5h5q79 0 167.5 42t168.5 114v793q0 14 14 14z" />
    <glyph glyph-name="Uogonek" unicode="&#x172;" horiz-adv-x="1398" 
d="M1129 1434h77q14 0 14 -14v-907q0 -214 -91 -346t-252 -174q-96 -78 -143 -135t-47 -121q0 -52 32.5 -78.5t86.5 -26.5q26 0 66 9q14 3 14 -12v-32q0 -19 -18 -25q-33 -12 -80 -12q-77 0 -126.5 43t-49.5 123q0 63 37.5 120.5t125.5 129.5q-54 -3 -56 -3h-30
q-230 0 -365.5 138t-135.5 402v907q0 14 14 14h77q14 0 14 -14v-899q0 -224 104.5 -338.5t294.5 -114.5h24q190 0 294.5 114.5t104.5 338.5v899q0 14 14 14z" />
    <glyph glyph-name="uogonek" unicode="&#x173;" 
d="M849 1024h74q14 0 14 -14v-996q0 -14 -14 -14q-52 -43 -78.5 -67t-59.5 -59.5t-47 -68.5t-14 -68q0 -52 32.5 -78.5t86.5 -26.5q25 0 65 9q15 4 15 -12v-32q0 -19 -18 -25q-33 -12 -80 -12q-77 0 -126.5 43t-49.5 123q0 65 44 127t153 150q-5 3 -5 9l-3 119
q-81 -71 -177.5 -114.5t-181.5 -43.5h-11q-170 0 -247.5 95.5t-77.5 279.5v662q0 14 14 14h74q14 0 14 -14v-651q0 -149 55.5 -223.5t193.5 -74.5h5q79 0 167.5 42t168.5 114v793q0 14 14 14z" />
    <glyph glyph-name="Wcircumflex" unicode="&#x174;" horiz-adv-x="1990" 
d="M1040 1938l185 -320q4 -7 0 -13t-12 -6h-57q-17 0 -25 16l-135 264l-135 -264q-8 -16 -26 -16h-56q-8 0 -12 6t0 13l185 320q8 16 23 16h42q15 0 23 -16zM1829 1434h75q16 0 11 -16l-403 -1401q-6 -17 -25 -17h-103q-20 0 -26 17l-155 540l-203 734h-8l-204 -734
l-156 -540q-6 -17 -25 -17h-103q-20 0 -26 17l-402 1401q-5 16 11 16h75q16 0 23 -18l164 -578l205 -734h8l205 734l164 578q7 18 23 18h82q17 0 24 -18l164 -578l205 -734h8l205 734l164 578q7 18 23 18z" />
    <glyph glyph-name="wcircumflex" unicode="&#x175;" horiz-adv-x="1529" 
d="M808 1529l185 -320q4 -7 0 -13t-12 -6h-56q-18 0 -26 16l-135 263l-135 -263q-8 -16 -25 -16h-57q-8 0 -12 6t0 13l185 320q8 15 23 15h42q15 0 23 -15zM1391 1024h71q17 0 12 -16l-301 -991q-6 -17 -23 -17h-94q-17 0 -23 17l-90 299l-175 598h-8l-173 -598l-91 -299
q-6 -17 -23 -17h-93q-20 0 -23 17l-301 991q-5 16 12 16h71q17 0 23 -17l130 -434l137 -476h5l137 476l128 434q3 17 23 17h86q17 0 23 -17l130 -434l136 -476h6l135 476l129 434q6 17 24 17z" />
    <glyph glyph-name="Ycircumflex" unicode="&#x176;" horiz-adv-x="1261" 
d="M674 1938l185 -320q4 -7 0 -13t-12 -6h-57q-17 0 -25 16l-135 264l-135 -264q-8 -16 -25 -16h-57q-8 0 -12 6t0 13l185 320q8 16 23 16h42q15 0 23 -16zM1093 1434h81q7 0 10 -5.5t1 -11.5l-502 -926v-477q0 -14 -14 -14h-76q-14 0 -14 14v477l-503 926q-2 6 1 11.5
t10 5.5h81q16 0 24 -15l313 -568l123 -248h5l124 248l312 568q7 15 24 15z" />
    <glyph glyph-name="ycircumflex" unicode="&#x177;" horiz-adv-x="1011" 
d="M550 1529l184 -320q4 -7 0.5 -13t-11.5 -6h-57q-17 0 -25 16l-135 263l-135 -263q-8 -16 -26 -16h-56q-8 0 -12 6t0 13l184 320q7 15 24 15h42q15 0 23 -15zM873 1024h73q16 0 11 -16l-420 -1105q-54 -143 -116 -207.5t-168 -64.5h-13q-67 0 -136 30q-14 5 -14 21v53
q0 8 5 11.5t12 0.5q71 -29 127 -29h7q64 0 107.5 40.5t82.5 142.5l37 99h-13q-17 0 -23 17l-376 991q-5 16 12 16h72q17 0 23 -17l215 -561l126 -356h5l126 356l215 561q6 17 23 17z" />
    <glyph glyph-name="Ydieresis" unicode="&#x178;" horiz-adv-x="1261" 
d="M434 1770h97q15 0 15 -15v-115q0 -15 -15 -15h-97q-15 0 -15 15v115q0 15 15 15zM729 1770h97q15 0 15 -15v-115q0 -15 -15 -15h-97q-15 0 -15 15v115q0 15 15 15zM1093 1434h82q16 0 10 -17l-502 -926v-477q0 -14 -14 -14h-76q-14 0 -14 14v477l-503 926q-2 6 1 11.5
t10 5.5h81q16 0 24 -15l313 -568l123 -248h5l124 248l312 568q7 15 24 15z" />
    <glyph glyph-name="Zacute" unicode="&#x179;" horiz-adv-x="1153" 
d="M547 1616l148 322q8 16 25 16h62q8 0 11.5 -6t0.5 -13l-168 -320q-8 -16 -23 -16h-47q-7 0 -9.5 5t0.5 12zM232 95h803q13 0 13 -14v-67q0 -14 -13 -14h-917q-14 0 -14 14v65q0 7 6 17l800 1243h-764q-14 0 -14 13v68q0 14 14 14h878q14 0 14 -14v-66q0 -7 -6 -17z" />
    <glyph glyph-name="zacute" unicode="&#x17a;" horiz-adv-x="897" 
d="M419 1206l148 322q8 16 25 16h62q8 0 11.5 -6t0.5 -13l-167 -320q-7 -15 -23 -15h-48q-16 0 -9 16zM200 88h609q13 0 13 -14v-60q0 -14 -13 -14h-720q-14 0 -14 14v53q0 13 9 26l603 843h-569q-14 0 -14 14v60q0 14 14 14h680q14 0 14 -14v-53q0 -13 -9 -26z" />
    <glyph glyph-name="Zdotaccent" unicode="&#x17b;" horiz-adv-x="1153" 
d="M523 1770h106q15 0 15 -15v-115q0 -15 -15 -15h-106q-15 0 -15 15v115q0 15 15 15zM232 95h803q13 0 13 -14v-67q0 -14 -13 -14h-917q-14 0 -14 14v65q0 7 6 17l800 1243h-764q-14 0 -14 13v68q0 14 14 14h878q14 0 14 -14v-66q0 -7 -6 -17z" />
    <glyph glyph-name="zdotaccent" unicode="&#x17c;" horiz-adv-x="897" 
d="M397 1361h105q16 0 16 -16v-114q0 -16 -16 -16h-105q-15 0 -15 16v114q0 16 15 16zM200 88h609q13 0 13 -14v-60q0 -14 -13 -14h-720q-14 0 -14 14v53q0 13 9 26l603 843h-569q-14 0 -14 14v60q0 14 14 14h680q14 0 14 -14v-53q0 -13 -9 -26z" />
    <glyph glyph-name="Zcaron" unicode="&#x17d;" horiz-adv-x="1153" 
d="M737 1954h56q8 0 12 -6t0 -13l-184 -320q-8 -16 -24 -16h-42q-15 0 -23 16l-185 320q-4 7 0 13t12 6h57q17 0 25 -16l135 -264l135 264q8 16 26 16zM232 95h803q13 0 13 -14v-67q0 -14 -13 -14h-917q-14 0 -14 14v65q0 7 6 17l800 1243h-764q-14 0 -14 13v68q0 14 14 14
h878q14 0 14 -14v-66q0 -7 -6 -17z" />
    <glyph glyph-name="zcaron" unicode="&#x17e;" horiz-adv-x="897" 
d="M610 1544h56q8 0 12 -6t0 -13l-184 -320q-8 -15 -23 -15h-43q-16 0 -23 15l-184 320q-4 7 0 13t12 6h56q18 0 26 -16l135 -263l134 263q8 16 26 16zM200 88h609q13 0 13 -14v-60q0 -14 -13 -14h-720q-14 0 -14 14v53q0 13 9 26l603 843h-569q-14 0 -14 14v60q0 14 14 14
h680q14 0 14 -14v-53q0 -13 -9 -26z" />
    <glyph glyph-name="Acaron" unicode="&#x1cd;" horiz-adv-x="1267" 
d="M794 1954h57q8 0 12 -6t0 -13l-185 -320q-8 -16 -23 -16h-42q-16 0 -24 16l-184 320q-4 7 0 13t12 6h56q18 0 26 -16l135 -264l135 264q8 16 25 16zM576 1434h115q18 0 24 -19l476 -1401q3 -14 -10 -14h-77q-18 0 -24 19l-152 441h-589l-152 -441q-6 -19 -24 -19h-77
q-14 0 -10 14l476 1401q6 18 24 19zM630 1336l-191 -572l-72 -209h534l-73 209l-192 572h-6z" />
    <glyph glyph-name="acaron" unicode="&#x1ce;" horiz-adv-x="1001" 
d="M661 1544h57q8 0 12 -6t0 -13l-185 -320q-7 -15 -23 -15h-42q-16 0 -24 15l-184 320q-4 7 0 13t12 6h56q18 0 26 -16l135 -263l135 263q8 16 25 16zM503 1051h11q179 0 261 -94t83 -291v-652q0 -14 -13 -14h-69q-11 0 -13 12l-4 131q-70 -81 -164 -125.5t-181 -44.5h-12
q-150 0 -238.5 80t-88.5 213v11q0 164 115 243t355 89l211 7v50q0 154 -57 226t-200 72h-8q-147 0 -322 -83q-5 -2 -9.5 0t-4.5 8v58q0 18 14 24q66 33 160.5 56.5t173.5 23.5zM756 540l-227 -8q-181 -7 -266.5 -68t-85.5 -180v-9q0 -98 68.5 -157t184.5 -59h9
q168 0 317 172v309z" />
    <glyph glyph-name="Icaron" unicode="&#x1cf;" horiz-adv-x="481" 
d="M402 1954h56q8 0 12 -6t0 -13l-184 -320q-8 -16 -23 -16h-43q-15 0 -23 16l-184 320q-4 7 0 13t12 6h56q18 0 26 -16l134 -264l135 264q8 16 26 16zM202 1434h77q14 0 14 -14v-1406q0 -14 -14 -14h-77q-14 0 -14 14v1406q0 14 14 14z" />
    <glyph glyph-name="icaron" unicode="&#x1d0;" horiz-adv-x="399" 
d="M362 1544h56q8 0 12 -6t0 -13l-184 -320q-8 -15 -23 -15h-43q-16 0 -23 15l-184 320q-4 7 0 13t12 6h56q18 0 26 -16l135 -263l134 263q8 16 26 16zM165 1024h74q14 0 14 -14v-996q0 -14 -14 -14h-74q-14 0 -14 14v996q0 14 14 14z" />
    <glyph glyph-name="Ocaron" unicode="&#x1d1;" horiz-adv-x="1413" 
d="M868 1954h57q8 0 12 -6t0 -13l-185 -320q-8 -16 -23 -16h-42q-15 0 -23 16l-185 320q-4 7 0 13t12 6h57q17 0 25 -16l135 -264l135 264q8 16 25 16zM692 1460h30q114 0 211 -38t171 -111t116 -191t42 -268v-270q0 -150 -42 -268t-116 -191.5t-171 -111.5t-211 -38h-30
q-114 0 -211 38t-171 111.5t-116 191.5t-42 268v270q0 150 42 268t116 191t171 111t211 38zM719 1365h-24q-197 0 -316.5 -130.5t-119.5 -386.5v-262q0 -256 119.5 -387t316.5 -131h24q197 0 316.5 131t119.5 387v262q0 256 -119.5 386.5t-316.5 130.5z" />
    <glyph glyph-name="ocaron" unicode="&#x1d2;" horiz-adv-x="1144" 
d="M734 1544h56q8 0 12 -6t0 -13l-184 -320q-8 -15 -23 -15h-43q-16 0 -23 15l-184 320q-4 7 0 13t12 6h56q18 0 26 -16l135 -263l134 263q8 16 26 16zM561 1051h23q190 0 311.5 -122t121.5 -341v-152q0 -219 -121.5 -341t-311.5 -122h-23q-190 0 -311.5 122t-121.5 341v152
q0 219 121.5 341t311.5 122zM581 963h-17q-149 0 -241 -97t-92 -274v-160q0 -177 92 -274t241 -97h17q149 0 241 97t92 274v160q0 177 -92 274t-241 97z" />
    <glyph glyph-name="Ucaron" unicode="&#x1d3;" horiz-adv-x="1398" 
d="M860 1954h56q8 0 12 -6t0 -13l-184 -320q-8 -16 -23 -16h-43q-15 0 -23 16l-184 320q-4 7 0 13t12 6h56q18 0 26 -16l134 -264l135 264q8 16 26 16zM1129 1434h77q14 0 14 -14v-907q0 -264 -135.5 -402t-365.5 -138h-30q-230 0 -365.5 138t-135.5 402v907q0 14 14 14h77
q14 0 14 -14v-899q0 -224 104.5 -338.5t294.5 -114.5h24q190 0 294.5 114.5t104.5 338.5v899q0 14 14 14z" />
    <glyph glyph-name="ucaron" unicode="&#x1d4;" 
d="M701 1544h57q8 0 12 -6t0 -13l-185 -320q-7 -15 -23 -15h-42q-16 0 -24 15l-184 320q-4 7 0 13t12 6h56q18 0 26 -16l135 -263l135 263q8 16 25 16zM849 1024h74q14 0 14 -14v-996q0 -14 -14 -14h-68q-12 0 -14 12l-3 119q-81 -71 -177.5 -114.5t-181.5 -43.5h-11
q-170 0 -247.5 95.5t-77.5 279.5v662q0 14 14 14h74q14 0 14 -14v-651q0 -149 55.5 -223.5t193.5 -74.5h5q79 0 167.5 42t168.5 114v793q0 14 14 14z" />
    <glyph glyph-name="Udieresismacron" unicode="&#x1d5;" horiz-adv-x="1398" 
d="M448 1993h503q14 0 14 -14v-55q0 -14 -14 -14h-503q-14 0 -14 14v55q0 14 14 14zM504 1770h96q16 0 16 -15v-115q0 -15 -16 -15h-96q-16 0 -16 15v115q0 15 16 15zM799 1770h96q16 0 16 -15v-115q0 -15 -16 -15h-96q-16 0 -16 15v115q0 15 16 15zM1129 1434h77
q14 0 14 -14v-907q0 -264 -135.5 -402t-365.5 -138h-30q-230 0 -365.5 138t-135.5 402v907q0 14 14 14h77q14 0 14 -14v-899q0 -224 104.5 -338.5t294.5 -114.5h24q190 0 294.5 114.5t104.5 338.5v899q0 14 14 14z" />
    <glyph glyph-name="udieresismacron" unicode="&#x1d6;" 
d="M289 1584h503q14 0 14 -14v-55q0 -14 -14 -14h-503q-14 0 -14 14v55q0 14 14 14zM345 1361h97q15 0 15 -16v-114q0 -16 -15 -16h-97q-15 0 -15 16v114q0 16 15 16zM640 1361h97q15 0 15 -16v-114q0 -16 -15 -16h-97q-16 0 -16 16v114q0 16 16 16zM848 1024h75
q14 0 14 -14v-996q0 -14 -14 -14h-68q-12 0 -14 12l-3 119q-81 -71 -177.5 -114.5t-181.5 -43.5h-11q-170 0 -247.5 95.5t-77.5 279.5v662q0 14 14 14h74q14 0 14 -14v-651q0 -149 55.5 -223.5t193.5 -74.5h5q79 0 167.5 42t168.5 114v793q0 14 13 14z" />
    <glyph glyph-name="Udieresisacute" unicode="&#x1d7;" horiz-adv-x="1398" 
d="M662 1901l147 322q8 16 26 16h62q8 0 11.5 -6t0.5 -13l-168 -320q-7 -15 -23 -15h-48q-15 0 -8 16zM504 1770h96q16 0 16 -15v-115q0 -15 -16 -15h-96q-16 0 -16 15v115q0 15 16 15zM799 1770h96q16 0 16 -15v-115q0 -15 -16 -15h-96q-16 0 -16 15v115q0 15 16 15z
M1129 1434h77q14 0 14 -14v-907q0 -264 -135.5 -402t-365.5 -138h-30q-230 0 -365.5 138t-135.5 402v907q0 14 14 14h77q14 0 14 -14v-899q0 -224 104.5 -338.5t294.5 -114.5h24q190 0 294.5 114.5t104.5 338.5v899q0 14 14 14z" />
    <glyph glyph-name="udieresisacute" unicode="&#x1d8;" 
d="M512 1492l147 322q8 16 26 16h61q8 0 11.5 -6t0.5 -13l-167 -320q-7 -15 -23 -15h-48q-15 0 -8 16zM345 1361h97q15 0 15 -16v-114q0 -16 -15 -16h-97q-15 0 -15 16v114q0 16 15 16zM640 1361h97q15 0 15 -16v-114q0 -16 -15 -16h-97q-16 0 -16 16v114q0 16 16 16z
M849 1024h74q14 0 14 -14v-996q0 -14 -14 -14h-68q-12 0 -14 12l-3 119q-81 -71 -177.5 -114.5t-181.5 -43.5h-11q-170 0 -247.5 95.5t-77.5 279.5v662q0 14 14 14h74q14 0 14 -14v-651q0 -149 55.5 -223.5t193.5 -74.5h5q79 0 167.5 42t168.5 114v793q0 14 14 14z" />
    <glyph glyph-name="Udieresiscaron" unicode="&#x1d9;" horiz-adv-x="1398" 
d="M860 2239h56q8 0 12 -6t0 -13l-184 -320q-8 -15 -23 -15h-43q-16 0 -23 15l-184 320q-4 7 0 13t12 6h56q18 0 26 -16l134 -263l135 263q8 16 26 16zM504 1770h96q16 0 16 -15v-115q0 -15 -16 -15h-96q-16 0 -16 15v115q0 15 16 15zM799 1770h96q16 0 16 -15v-115
q0 -15 -16 -15h-96q-16 0 -16 15v115q0 15 16 15zM1129 1434h77q14 0 14 -14v-907q0 -264 -135.5 -402t-365.5 -138h-30q-230 0 -365.5 138t-135.5 402v907q0 14 14 14h77q14 0 14 -14v-899q0 -224 104.5 -338.5t294.5 -114.5h24q190 0 294.5 114.5t104.5 338.5v899
q0 14 14 14z" />
    <glyph glyph-name="udieresiscaron" unicode="&#x1da;" 
d="M701 1830h57q8 0 12 -6t0 -13l-185 -320q-7 -15 -23 -15h-42q-16 0 -24 15l-184 320q-4 7 0 13t12 6h56q18 0 26 -16l135 -263l135 263q8 16 25 16zM345 1361h97q15 0 15 -16v-114q0 -16 -15 -16h-97q-15 0 -15 16v114q0 16 15 16zM640 1361h97q15 0 15 -16v-114
q0 -16 -15 -16h-97q-16 0 -16 16v114q0 16 16 16zM849 1024h74q14 0 14 -14v-996q0 -14 -14 -14h-68q-12 0 -14 12l-3 119q-81 -71 -177.5 -114.5t-181.5 -43.5h-11q-170 0 -247.5 95.5t-77.5 279.5v662q0 14 14 14h74q14 0 14 -14v-651q0 -149 55.5 -223.5t193.5 -74.5h5
q79 0 167.5 42t168.5 114v793q0 14 14 14z" />
    <glyph glyph-name="Udieresisgrave" unicode="&#x1db;" horiz-adv-x="1398" 
d="M581 2223l148 -322q7 -16 -9 -16h-48q-16 0 -23 15l-167 320q-3 7 0.5 13t11.5 6h62q17 0 25 -16zM504 1770h96q16 0 16 -15v-115q0 -15 -16 -15h-96q-16 0 -16 15v115q0 15 16 15zM799 1770h96q16 0 16 -15v-115q0 -15 -16 -15h-96q-16 0 -16 15v115q0 15 16 15z
M1129 1434h77q14 0 14 -14v-907q0 -264 -135.5 -402t-365.5 -138h-30q-230 0 -365.5 138t-135.5 402v907q0 14 14 14h77q14 0 14 -14v-899q0 -224 104.5 -338.5t294.5 -114.5h24q190 0 294.5 114.5t104.5 338.5v899q0 14 14 14z" />
    <glyph glyph-name="udieresisgrave" unicode="&#x1dc;" 
d="M426 1814l148 -322q7 -16 -9 -16h-47q-16 0 -23 15l-168 320q-3 7 0.5 13t11.5 6h62q17 0 25 -16zM345 1361h97q15 0 15 -16v-114q0 -16 -15 -16h-97q-15 0 -15 16v114q0 16 15 16zM640 1361h97q15 0 15 -16v-114q0 -16 -15 -16h-97q-16 0 -16 16v114q0 16 16 16z
M849 1024h74q14 0 14 -14v-996q0 -14 -14 -14h-68q-12 0 -14 12l-3 119q-81 -71 -177.5 -114.5t-181.5 -43.5h-11q-170 0 -247.5 95.5t-77.5 279.5v662q0 14 14 14h74q14 0 14 -14v-651q0 -149 55.5 -223.5t193.5 -74.5h5q79 0 167.5 42t168.5 114v793q0 14 14 14z" />
    <glyph glyph-name="Scommaaccent" unicode="&#x218;" horiz-adv-x="1124" 
d="M480 707l98 -33q49 -16 78.5 -27t68.5 -28.5t62 -33t48 -38t38.5 -48t22 -59t8.5 -73.5v-8q0 -132 -99 -211.5t-254 -79.5h-15q-73 0 -145 16.5t-118.5 35.5t-116.5 53q-5 2 -10 -0.5t-5 -8.5v-67q0 -17 15 -25q67 -38 171.5 -68.5t210.5 -30.5h19q195 0 324.5 103.5
t129.5 274.5v20q0 72 -21 129.5t-53 97t-86.5 73.5t-105 55.5t-124.5 46.5l-99 33q-159 53 -231 114t-72 162v10q0 86 48.5 150t121.5 94t156 30h15q99 0 180.5 -24.5t170.5 -68.5q5 -2 9.5 0.5t4.5 8.5v66q0 18 -15 25q-60 35 -156 61t-196 26h-19q-109 0 -204 -40
t-158.5 -124t-63.5 -196v-23q0 -138 92.5 -223.5t274.5 -146.5zM513 -102h110q15 0 15 -16v-89q0 -17 -4 -27l-73 -225q-4 -11 -15 -11h-53q-17 0 -11 19l71 215h-40q-15 0 -15 15v103q0 16 15 16z" />
    <glyph glyph-name="scommaaccent" unicode="&#x219;" horiz-adv-x="870" 
d="M423 1051h22q68 0 151 -23t134 -54q15 -6 15 -24v-57q0 -6 -4.5 -8.5t-9.5 -0.5q-150 84 -282 84h-15q-104 0 -175.5 -48.5t-71.5 -134.5v-13q0 -18 4 -34t9 -28.5t17.5 -25l20.5 -20.5t26.5 -18t27.5 -15t32.5 -14t31.5 -11.5t35 -11.5l33 -11l54 -18q62 -20 102 -36
t83 -41t67 -53.5t40 -70.5t16 -95v-10q0 -135 -101 -210.5t-246 -75.5h-21q-71 0 -162.5 23.5t-142.5 54.5q-14 6 -14 24v57q0 6 4.5 8t9.5 0q151 -84 302 -84h17q107 0 179.5 52t72.5 146v12q0 37 -14 67t-31.5 48.5t-53 37t-57.5 26.5t-67 23l-53 17q-141 47 -192 76
q-131 72 -131 203v14q0 128 99 200.5t239 72.5zM390 -102h110q15 0 15 -16v-89q0 -19 -3 -27l-73 -225q-4 -11 -16 -11h-53q-17 0 -11 19l71 215h-40q-15 0 -15 15v103q0 16 15 16z" />
    <glyph glyph-name="uni021A" unicode="&#x21a;" horiz-adv-x="1224" 
d="M89 1434h1046q14 0 14 -14v-68q0 -13 -14 -13h-471v-1325q0 -14 -13 -14h-78q-13 0 -13 14v1325h-471q-14 0 -14 13v68q0 14 14 14zM558 -102h110q15 0 15 -16v-89q0 -19 -3 -27l-74 -225q-4 -11 -15 -11h-53q-17 0 -11 19l71 215h-40q-15 0 -15 15v103q0 16 15 16z" />
    <glyph glyph-name="uni021B" unicode="&#x21b;" horiz-adv-x="671" 
d="M213 1250l68 16q21 6 21 -14v-228h301q13 0 13 -14v-59q0 -13 -13 -13h-301v-711q0 -85 34 -125.5t111 -40.5h8q57 0 144 35q7 3 12 -1t5 -12v-50q0 -16 -13 -21q-87 -39 -160 -39h-14q-229 0 -229 244v721h-132q-13 0 -13 13v54q0 11 13 13l132 6v205q0 19 13 21z
M383 -102h110q15 0 15 -16v-89q0 -19 -3 -27l-73 -225q-4 -11 -16 -11h-53q-17 0 -11 19l71 215h-40q-15 0 -15 15v103q0 16 15 16z" />
    <glyph glyph-name="uni0243" unicode="&#x243;" horiz-adv-x="1249" 
d="M880 751q142 -38 208 -133.5t66 -224.5v-34q0 -172 -106.5 -265.5t-327.5 -93.5h-505q-14 0 -14 14v354h-112q-14 0 -14 13v38q0 13 14 13h112v988q0 14 14 14h455q432 0 432 -344v-30q0 -101 -56 -183.5t-166 -125.5zM306 784h342q91 0 160 23t109.5 62.5t60 88.5
t19.5 105v7q0 133 -78 201t-254 68h-359v-555zM1048 377v13q0 51 -10.5 94.5t-37 83.5t-67 68.5t-104 45t-145.5 16.5h-378v-266h405q14 0 14 -13v-38q0 -13 -14 -13h-405v-273h408q178 0 256 73t78 209z" />
    <glyph glyph-name="circumflex" unicode="&#x2c6;" horiz-adv-x="612" 
d="M350 1938l185 -320q4 -7 0 -13t-12 -6h-56q-18 0 -26 16l-135 264l-135 -264q-8 -16 -25 -16h-57q-8 0 -12 6t0 13l185 320q8 16 23 16h42q15 0 23 -16z" />
    <glyph glyph-name="caron" unicode="&#x2c7;" horiz-adv-x="612" 
d="M467 1954h56q8 0 12 -6t0 -13l-185 -320q-8 -16 -23 -16h-42q-15 0 -23 16l-185 320q-4 7 0 13t12 6h57q17 0 25 -16l135 -264l135 264q8 16 26 16z" />
    <glyph glyph-name="breve" unicode="&#x2d8;" horiz-adv-x="692" 
d="M597 1770q7 4 13 0.5t6 -11.5v-49q0 -15 -11 -23q-38 -30 -107.5 -56t-151.5 -26t-151.5 26t-107.5 56q-12 9 -12 23v49q0 8 6.5 11.5t13.5 -0.5q40 -25 67 -39t78.5 -29t105.5 -15t105.5 15t78.5 29t67 39z" />
    <glyph glyph-name="dotaccent" unicode="&#x2d9;" horiz-adv-x="286" 
d="M91 1770h105q15 0 15 -15v-115q0 -15 -15 -15h-105q-16 0 -16 15v115q0 15 16 15z" />
    <glyph glyph-name="ring" unicode="&#x2da;" horiz-adv-x="468" 
d="M235 1889q67 0 113 -45.5t46 -110.5q0 -66 -46.5 -111.5t-112.5 -45.5q-68 0 -114 46t-46 111q0 64 46.5 110t113.5 46zM235 1826q-41 0 -66 -26.5t-25 -64.5q0 -40 25 -68t66 -28t65.5 28t24.5 68q0 38 -24.5 64.5t-65.5 26.5z" />
    <glyph glyph-name="ogonek" unicode="&#x2db;" horiz-adv-x="425" 
d="M268 0h82q-52 -43 -78.5 -67t-59.5 -59.5t-47 -68.5t-14 -68q0 -52 32 -78.5t86 -26.5q26 0 66 9q15 4 15 -12v-32q0 -19 -19 -25q-33 -12 -79 -12q-77 0 -127 43t-50 123q0 67 44 129t149 145z" />
    <glyph glyph-name="tilde" unicode="&#x2dc;" horiz-adv-x="720" 
d="M597 1757h37q17 0 11 -17q-21 -66 -72.5 -113.5t-113.5 -47.5h-8q-33 0 -60 14.5t-42 32t-39 32t-52 14.5q-64 0 -113 -81q-7 -13 -21 -13h-36q-17 0 -11 17q21 66 72 113.5t113 47.5h8q33 0 60.5 -14.5t43 -32t39.5 -32t51 -14.5q63 0 113 81q7 13 20 13z" />
    <glyph glyph-name="hungarumlaut" unicode="&#x2dd;" horiz-adv-x="634" 
d="M77 1616l147 322q8 16 26 16h56q8 0 11.5 -6t0.5 -13l-167 -320q-8 -16 -23 -16h-43q-7 0 -9 5t1 12zM318 1616l147 322q8 16 26 16h56q8 0 11.5 -6t0.5 -13l-168 -320q-8 -16 -23 -16h-42q-7 0 -9 5t1 12z" />
    <glyph glyph-name="uni0326" unicode="&#x326;" horiz-adv-x="0" 
d="M108 -102h110q15 0 15 -16v-89q0 -17 -4 -27l-73 -225q-4 -11 -15 -11h-53q-17 0 -11 19l71 215h-40q-15 0 -15 15v103q0 16 15 16z" />
    <glyph glyph-name="uni0401" unicode="&#x401;" horiz-adv-x="1144" 
d="M419 1770h97q15 0 15 -15v-115q0 -15 -15 -15h-97q-15 0 -15 15v115q0 15 15 15zM714 1770h97q15 0 15 -15v-115q0 -15 -15 -15h-97q-15 0 -15 15v115q0 15 15 15zM202 1434h835q14 0 14 -14v-68q0 -13 -14 -13h-744v-553h700q14 0 14 -13v-68q0 -13 -14 -13h-700v-597
h744q14 0 14 -14v-67q0 -14 -14 -14h-835q-14 0 -14 14v1406q0 14 14 14z" />
    <glyph glyph-name="uni0404" unicode="&#x404;" horiz-adv-x="1206" 
d="M760 1366l-15 -1q-98 0 -185 -35t-154.5 -101t-107 -171.5t-39.5 -237.5v-37h692q14 0 14 -14v-68q0 -13 -14 -13h-692v-75q0 -132 39.5 -237.5t107 -171.5t154.5 -101t185 -35h15q167 0 338 92q4 2 9 0t5 -8v-66q0 -16 -15 -24q-63 -36 -155 -62.5t-187 -26.5h-22
q-92 0 -177 25t-158.5 77t-128 126t-86 177.5t-31.5 224.5v227q0 121 31.5 224.5t86 177.5t128 126t158.5 77t177 25h22q96 0 188 -26t154 -62q15 -8 15 -25v-65q0 -6 -4.5 -8.5t-9.5 -0.5q-175 93 -338 93z" />
    <glyph glyph-name="uni0406" unicode="&#x406;" horiz-adv-x="481" 
d="M202 1434h77q14 0 14 -14v-1406q0 -14 -14 -14h-77q-14 0 -14 14v1406q0 14 14 14z" />
    <glyph glyph-name="uni0407" unicode="&#x407;" horiz-adv-x="481" 
d="M45 1770h96q16 0 16 -15v-115q0 -15 -16 -15h-96q-16 0 -16 15v115q0 15 16 15zM339 1770h97q15 0 15 -15v-115q0 -15 -15 -15h-97q-15 0 -15 15v115q0 15 15 15zM202 1434h77q14 0 14 -14v-1406q0 -14 -14 -14h-77q-14 0 -14 14v1406q0 14 14 14z" />
    <glyph glyph-name="uni040E" unicode="&#x40e;" horiz-adv-x="1273" 
d="M888 1770q8 4 13.5 0.5t5.5 -11.5v-49q0 -15 -11 -23q-38 -30 -107.5 -56t-151.5 -26t-151.5 26t-107.5 56q-12 9 -12 23v49q0 8 6 11.5t14 -0.5q40 -25 67 -39t78.5 -29t105.5 -15t105.5 15t78.5 29t67 39zM1105 1434h81q7 0 10.5 -5.5t0.5 -11.5l-517 -1100
q-90 -191 -166.5 -264t-195.5 -73h-10q-21 0 -56 5.5t-49 11.5q-12 3 -12 19v70q0 14 16 9q52 -20 90 -20h7q86 0 141 52.5t127 203.5l8 15l-504 1071q-3 6 0.5 11.5t10.5 5.5h81q18 0 25 -15l300 -641l142 -326h4l141 326l301 641q7 15 24 15z" />
    <glyph glyph-name="uni0410" unicode="&#x410;" horiz-adv-x="1267" 
d="M576 1434h115q18 0 24 -19l476 -1401q3 -14 -10 -14h-77q-18 0 -24 19l-152 441h-589l-152 -441q-6 -19 -24 -19h-77q-14 0 -10 14l476 1401q6 18 24 19zM630 1336l-191 -572l-72 -209h534l-73 209l-192 572h-6z" />
    <glyph glyph-name="uni0411" unicode="&#x411;" horiz-adv-x="1216" 
d="M293 839h323q507 0 507 -392v-43q0 -192 -126.5 -298t-382.5 -106h-412q-14 0 -14 14v1406q0 14 14 14h789q13 0 13 -14v-68q0 -13 -13 -13h-698v-500zM1016 417v24q0 151 -94.5 228.5t-313.5 77.5h-315v-652h310q219 0 316 83.5t97 238.5z" />
    <glyph glyph-name="uni0412" unicode="&#x412;" horiz-adv-x="1234" 
d="M866 751q142 -38 208.5 -133.5t66.5 -224.5v-34q0 -172 -106.5 -265.5t-327.5 -93.5h-505q-14 0 -14 14v1406q0 14 14 14h455q432 0 432 -344v-30q0 -101 -56.5 -183.5t-166.5 -125.5zM984 1063v7q0 133 -78 201t-254 68h-359v-555h342q91 0 160 23t109.5 62.5t60 88.5
t19.5 105zM1035 377v13q0 51 -10.5 94.5t-37 83.5t-67 68.5t-104 45t-145.5 16.5h-378v-603h408q178 0 256 73t78 209z" />
    <glyph glyph-name="uni0413" unicode="&#x413;" horiz-adv-x="1081" 
d="M202 1434h791q14 0 14 -14v-68q0 -13 -14 -13h-700v-1325q0 -14 -14 -14h-77q-14 0 -14 14v1406q0 14 14 14z" />
    <glyph glyph-name="uni0414" unicode="&#x414;" horiz-adv-x="1507" 
d="M1261 95h157q14 0 14 -14v-343q0 -13 -14 -13h-77q-14 0 -14 13v262h-1130v-262q0 -13 -13 -13h-78q-14 0 -14 13v343q0 14 14 14h164q81 53 95 252l81 1073q0 14 13 14h788q14 0 14 -14v-1325zM545 1339l-75 -999q-14 -168 -70 -245h756v1244h-611z" />
    <glyph glyph-name="uni0415" unicode="&#x415;" horiz-adv-x="1144" 
d="M293 786h700q14 0 14 -13v-68q0 -13 -14 -13h-700v-597h744q14 0 14 -14v-67q0 -14 -14 -14h-835q-14 0 -14 14v1406q0 14 14 14h835q14 0 14 -14v-68q0 -13 -14 -13h-744v-553z" />
    <glyph glyph-name="uni0416" unicode="&#x416;" horiz-adv-x="1886" 
d="M1281 726l528 -706q4 -6 1 -13t-10 -7h-90q-10 0 -18 9l-505 667h-192v-662q0 -14 -13 -14h-78q-13 0 -13 14v662h-192l-505 -667q-8 -9 -18 -9h-90q-7 0 -9.5 7t1.5 13l527 706l-488 688q-4 6 -1 13t10 7h86q10 0 18 -10l469 -653h192v649q0 14 13 14h78q13 0 13 -14
v-649h192l469 653q8 10 18 10h86q7 0 10 -7t-1 -13z" />
    <glyph glyph-name="uni0417" unicode="&#x417;" horiz-adv-x="1093" 
d="M716 751q98 -26 164.5 -84.5t93 -124.5t26.5 -140v-38q0 -170 -137 -280.5t-348 -110.5h-19q-106 0 -201.5 26.5t-157.5 61.5q-15 7 -15 24v67q0 6 4.5 8.5t9.5 0.5q90 -45 172 -69t186 -24h16q169 0 276 89.5t107 223.5v16q0 54 -19 104t-59 96t-115 74t-175 28h-198
q-14 0 -14 13v58q0 14 14 14h161q90 0 161 26t111.5 67.5t61 89.5t20.5 97v20q0 126 -97 203.5t-248 77.5h-16q-99 0 -180.5 -24t-169.5 -68q-5 -3 -10 -0.5t-5 8.5v67q0 18 15 25q60 35 156 61t196 26h19q193 0 319 -97.5t126 -260.5v-40q0 -93 -59.5 -179.5t-171.5 -131.5
z" />
    <glyph glyph-name="uni0418" unicode="&#x418;" horiz-adv-x="1394" 
d="M1108 1434h94q14 0 14 -14v-1406q0 -14 -14 -14h-77q-14 0 -14 14v709l6 549h-6l-804 -1261q-8 -11 -20 -11h-95q-13 0 -13 14v1406q0 14 13 14h78q14 0 14 -14v-654l-6 -604h6l804 1261q8 11 20 11z" />
    <glyph glyph-name="uni0419" unicode="&#x419;" horiz-adv-x="1394" 
d="M958 1770q8 4 13.5 0.5t5.5 -11.5v-49q0 -15 -11 -23q-38 -30 -107.5 -56t-151.5 -26t-151.5 26t-107.5 56q-12 9 -12 23v49q0 8 6 11.5t14 -0.5q40 -25 67 -39t78.5 -29t105.5 -15t105.5 15t78.5 29t67 39zM1108 1434h94q14 0 14 -14v-1406q0 -14 -14 -14h-77
q-14 0 -14 14v709l6 549h-6l-804 -1261q-8 -11 -20 -11h-95q-13 0 -13 14v1406q0 14 13 14h78q14 0 14 -14v-654l-6 -604h6l804 1261q8 11 20 11z" />
    <glyph glyph-name="uni041A" unicode="&#x41a;" horiz-adv-x="1251" 
d="M645 726l528 -706q4 -6 1 -13t-10 -7h-90q-10 0 -18 9l-505 667h-258v-662q0 -14 -14 -14h-77q-14 0 -14 14v1406q0 14 14 14h77q14 0 14 -14v-649h258l469 653q8 10 18 10h87q7 0 9.5 -7t-1.5 -13z" />
    <glyph glyph-name="uni041B" unicode="&#x41b;" horiz-adv-x="1433" 
d="M454 1434h788q14 0 14 -14v-1406q0 -14 -14 -14h-78q-13 0 -13 14v1325h-612l-74 -999q-15 -193 -83.5 -280t-195.5 -87h-12q-44 0 -85 18q-14 5 -14 20v61q0 20 18 12q40 -16 74 -16h9q86 0 129.5 63.5t54.5 215.5l80 1073q0 14 14 14z" />
    <glyph glyph-name="uni041C" unicode="&#x41c;" horiz-adv-x="1693" 
d="M1395 1434h96q14 0 14 -14v-1406q0 -14 -14 -14h-79q-13 0 -13 14l1 816l7 441h-8l-262 -441l-252 -411q-7 -14 -24 -14h-38q-17 0 -24 14l-253 411l-261 441h-8l7 -441l1 -816q0 -14 -13 -14h-80q-13 0 -13 14v1406q0 14 13 14h97q17 0 23 -15l527 -875h5l528 875
q6 15 23 15z" />
    <glyph glyph-name="uni041D" unicode="&#x41d;" horiz-adv-x="1396" 
d="M1116 1434h78q14 0 14 -14v-1406q0 -14 -14 -14h-78q-13 0 -13 14v678h-810v-678q0 -14 -14 -14h-77q-14 0 -14 14v1406q0 14 14 14h77q14 0 14 -14v-634h810v634q0 14 13 14z" />
    <glyph glyph-name="uni041E" unicode="&#x41e;" horiz-adv-x="1413" 
d="M692 1460h30q114 0 211 -38t171 -111t116 -191t42 -268v-270q0 -150 -42 -268t-116 -191.5t-171 -111.5t-211 -38h-30q-114 0 -211 38t-171 111.5t-116 191.5t-42 268v270q0 150 42 268t116 191t171 111t211 38zM719 1365h-24q-197 0 -316.5 -130.5t-119.5 -386.5v-262
q0 -256 119.5 -387t316.5 -131h24q197 0 316.5 131t119.5 387v262q0 256 -119.5 386.5t-316.5 130.5z" />
    <glyph glyph-name="uni041F" unicode="&#x41f;" horiz-adv-x="1406" 
d="M202 1434h1002q14 0 14 -14v-1406q0 -14 -14 -14h-77q-14 0 -14 14v1325h-820v-1325q0 -14 -14 -14h-77q-14 0 -14 14v1406q0 14 14 14z" />
    <glyph glyph-name="uni0420" unicode="&#x420;" horiz-adv-x="1286" 
d="M202 1434h422q257 0 383 -106.5t126 -301.5v-43q0 -200 -128.5 -319t-383.5 -119h-328v-531q0 -14 -14 -14h-77q-14 0 -14 14v1406q0 14 14 14zM1027 990v23q0 158 -97.5 242t-316.5 84h-320v-702h319q216 0 315.5 95.5t99.5 257.5z" />
    <glyph glyph-name="uni0421" unicode="&#x421;" horiz-adv-x="1206" 
d="M733 1460h22q96 0 188 -26t154 -62q15 -8 15 -25v-65q0 -6 -4.5 -8.5t-9.5 -0.5q-173 92 -338 92h-15q-98 0 -185 -35t-154.5 -101t-107 -171.5t-39.5 -237.5v-207q0 -132 39.5 -237.5t107 -171.5t154.5 -101t185 -35h15q167 0 338 92q4 2 9 0t5 -8v-66q0 -16 -15 -24
q-63 -36 -155 -62.5t-187 -26.5h-22q-92 0 -177 25t-158.5 77t-128 126t-86 177.5t-31.5 224.5v227q0 121 31.5 224.5t86 177.5t128 126t158.5 77t177 25z" />
    <glyph glyph-name="uni0422" unicode="&#x422;" horiz-adv-x="1224" 
d="M89 1434h1046q14 0 14 -14v-68q0 -13 -14 -13h-471v-1325q0 -14 -13 -14h-78q-13 0 -13 14v1325h-471q-14 0 -14 13v68q0 14 14 14z" />
    <glyph glyph-name="uni0423" unicode="&#x423;" horiz-adv-x="1273" 
d="M1105 1434h81q7 0 10.5 -5.5t0.5 -11.5l-517 -1100q-90 -191 -166.5 -264t-195.5 -73h-10q-21 0 -56 5.5t-49 11.5q-12 3 -12 19v70q0 14 16 9q52 -20 90 -20h7q86 0 141 52.5t127 203.5l8 15l-503 1071q-3 6 0 11.5t10 5.5h81q18 0 25 -15l300 -641l142 -326h4l141 326
l301 641q7 15 24 15z" />
    <glyph glyph-name="uni0424" unicode="&#x424;" horiz-adv-x="1822" 
d="M964 1302h167q151 0 272 -62t194 -186t73 -291v-35q0 -167 -73 -291t-194 -186t-272 -62h-167v-175q0 -14 -14 -14h-78q-13 0 -13 14v175h-167q-113 0 -211 36.5t-171 104t-115.5 170t-42.5 228.5v35q0 126 42.5 228.5t115.5 170t171 104t211 36.5h167v118q0 14 13 14h78
q14 0 14 -14v-118zM859 1207h-164q-193 0 -314.5 -120t-121.5 -331v-20q0 -212 121.5 -332t314.5 -120h164v923zM1564 736v20q0 211 -121.5 331t-314.5 120h-164v-923h164q193 0 314.5 120t121.5 332z" />
    <glyph glyph-name="uni0425" unicode="&#x425;" horiz-adv-x="1216" 
d="M1028 1434h87q6 0 10 -5.5t0 -11.5l-441 -686l456 -715q4 -6 -0.5 -11t-10.5 -5h-87q-14 0 -22 13l-307 478l-100 171h-8l-101 -171l-308 -478q-8 -13 -21 -13h-88q-6 0 -10 5t0 11l455 715l-440 686q-4 6 0 11.5t10 5.5h86q14 0 22 -13l292 -451l103 -171h8l102 171
l292 451q8 13 21 13z" />
    <glyph glyph-name="uni0426" unicode="&#x426;" horiz-adv-x="1445" 
d="M1200 95h157q13 0 13 -14v-343q0 -13 -13 -13h-78q-13 0 -13 13v262h-1064q-14 0 -14 14v1406q0 14 14 14h77q14 0 14 -14v-1325h802v1325q0 14 13 14h78q14 0 14 -14v-1325z" />
    <glyph glyph-name="uni0427" unicode="&#x427;" horiz-adv-x="1290" 
d="M1012 1434h77q14 0 14 -14v-1406q0 -14 -14 -14h-77q-14 0 -14 14v557q-66 -38 -171 -69t-199 -31h-22q-209 0 -331.5 124.5t-122.5 351.5v473q0 14 14 14h79q14 0 14 -14v-460q0 -192 95 -293t268 -101h16q183 0 360 100v754q0 14 14 14z" />
    <glyph glyph-name="uni0428" unicode="&#x428;" horiz-adv-x="2019" 
d="M1740 1434h77q14 0 14 -14v-1406q0 -14 -14 -14h-1615q-14 0 -14 14v1406q0 14 14 14h77q14 0 14 -14v-1325h664v1325q0 14 14 14h77q14 0 14 -14v-1325h664v1325q0 14 14 14z" />
    <glyph glyph-name="uni0429" unicode="&#x429;" horiz-adv-x="2076" 
d="M1831 95h157q14 0 14 -14v-343q0 -13 -14 -13h-77q-14 0 -14 13v262h-1695q-14 0 -14 14v1406q0 14 14 14h77q14 0 14 -14v-1325h664v1325q0 14 14 14h77q14 0 14 -14v-1325h664v1325q0 14 14 14h77q14 0 14 -14v-1325z" />
    <glyph glyph-name="uni042A" unicode="&#x42a;" horiz-adv-x="1419" 
d="M438 839h322q507 0 507 -392v-43q0 -192 -126.5 -298t-382.5 -106h-412q-13 0 -13 14v1325h-244q-14 0 -14 13v68q0 14 14 14h335q14 0 14 -14v-581zM1161 417v24q0 151 -94.5 228.5t-313.5 77.5h-315v-652h310q219 0 316 83.5t97 238.5z" />
    <glyph glyph-name="uni042B" unicode="&#x42b;" horiz-adv-x="1624" 
d="M293 839h323q507 0 507 -392v-43q0 -192 -126.5 -298t-382.5 -106h-412q-14 0 -14 14v1406q0 14 14 14h77q14 0 14 -14v-581zM1345 1434h78q14 0 14 -14v-1406q0 -14 -14 -14h-78q-13 0 -13 14v1406q0 14 13 14zM1016 417v24q0 151 -94.5 228.5t-313.5 77.5h-315v-652
h310q219 0 316 83.5t97 238.5z" />
    <glyph glyph-name="uni042C" unicode="&#x42c;" horiz-adv-x="1273" 
d="M293 839h323q507 0 507 -392v-43q0 -192 -126.5 -298t-382.5 -106h-412q-14 0 -14 14v1406q0 14 14 14h77q14 0 14 -14v-581zM1016 417v24q0 151 -94.5 228.5t-313.5 77.5h-315v-652h310q219 0 316 83.5t97 238.5z" />
    <glyph glyph-name="uni042D" unicode="&#x42d;" horiz-adv-x="1208" 
d="M451 1460h23q116 0 219.5 -41t185 -117.5t129.5 -198.5t48 -273v-227q0 -151 -48 -273t-129.5 -198.5t-185 -117.5t-219.5 -41h-23q-95 0 -187 26.5t-155 62.5q-15 8 -15 24v66q0 6 5 8.5t10 -0.5q171 -92 337 -92h15q99 0 186 35t155.5 101t108 171.5t39.5 237.5v75
h-695q-14 0 -14 13v68q0 14 14 14h695v37q0 106 -26 196t-71.5 153.5t-107.5 108.5t-134 66.5t-150 21.5h-15q-164 0 -337 -93q-5 -2 -10 0.5t-5 8.5v65q0 17 15 25q62 36 154 62t188 26z" />
    <glyph glyph-name="uni042E" unicode="&#x42e;" horiz-adv-x="1828" 
d="M1106 1460h31q114 0 210.5 -38t170.5 -111t116 -191t42 -268v-270q0 -150 -42 -268t-116 -191.5t-170.5 -111.5t-210.5 -38h-31q-114 0 -211 38t-171 111.5t-116 191.5t-42 268v106h-273v-674q0 -14 -14 -14h-77q-14 0 -14 14v1406q0 14 14 14h77q14 0 14 -14v-638h273
v70q0 150 42 268t116 191t171 111t211 38zM1570 586v262q0 256 -119.5 386.5t-316.5 130.5h-25q-197 0 -316.5 -130.5t-119.5 -386.5v-262q0 -256 119.5 -387t316.5 -131h25q197 0 316.5 131t119.5 387z" />
    <glyph glyph-name="uni042F" unicode="&#x42f;" horiz-adv-x="1267" 
d="M631 1434h435q14 0 14 -14v-1406q0 -14 -14 -14h-77q-14 0 -14 14v574h-378l-400 -575q-8 -13 -21 -13h-88q-8 0 -11 5t2 11l263 379l149 210q-121 22 -203.5 82.5t-118.5 141.5t-36 180v35q0 192 120.5 291t377.5 99zM975 1339h-333q-219 0 -311 -77.5t-92 -233.5v-14
q0 -71 22.5 -129.5t69.5 -106t128.5 -74t191.5 -26.5h324v661z" />
    <glyph glyph-name="uni0430" unicode="&#x430;" horiz-adv-x="1001" 
d="M503 1051h11q179 0 261 -94t83 -291v-652q0 -14 -13 -14h-69q-11 0 -13 12l-4 131q-70 -81 -164 -125.5t-181 -44.5h-12q-150 0 -238.5 80t-88.5 213v11q0 164 115 243t355 89l211 7v50q0 154 -57 226t-200 72h-8q-147 0 -322 -83q-5 -2 -9.5 0t-4.5 8v58q0 18 14 24
q66 33 160.5 56.5t173.5 23.5zM756 540l-227 -8q-181 -7 -266.5 -68t-85.5 -180v-9q0 -98 68.5 -157t184.5 -59h9q168 0 317 172v309z" />
    <glyph glyph-name="uni0431" unicode="&#x431;" horiz-adv-x="1097" 
d="M569 1022h11q187 0 288.5 -119.5t101.5 -338.5v-128q0 -220 -114.5 -341.5t-294.5 -121.5h-22q-187 0 -299 120.5t-112 342.5v557q0 211 110 329t328 118h9q112 0 189.5 22t145.5 72q5 2 9 -0.5t4 -8.5v-60q0 -15 -15 -25q-114 -88 -336 -88h-9q-166 0 -249 -90.5
t-83 -247.5v-155q70 80 161.5 121.5t176.5 41.5zM867 432v132q0 181 -79.5 275.5t-228.5 94.5h-5q-172 0 -323 -172v-330q0 -179 82 -275t228 -96h17q140 0 224.5 97t84.5 274z" />
    <glyph glyph-name="uni0432" unicode="&#x432;" horiz-adv-x="993" 
d="M161 1024h353q177 0 263 -64.5t86 -183.5v-19q0 -73 -38 -134t-112 -94q98 -25 146.5 -88t48.5 -153v-19q0 -122 -88 -195.5t-262 -73.5h-397q-14 0 -14 14v996q0 14 14 14zM249 941v-385h251q131 0 196 56.5t65 136.5v23q0 169 -256 169h-256zM249 483v-400h299
q133 0 195 52t62 136v23q0 86 -61.5 137.5t-195.5 51.5h-299z" />
    <glyph glyph-name="uni0433" unicode="&#x433;" horiz-adv-x="835" 
d="M161 1024h606q13 0 13 -14v-59q0 -13 -13 -13h-518v-924q0 -14 -14 -14h-74q-14 0 -14 14v996q0 14 14 14z" />
    <glyph glyph-name="uni0434" unicode="&#x434;" horiz-adv-x="1222" 
d="M994 86h160q14 0 14 -13v-335q0 -13 -14 -13h-74q-14 0 -14 13v262h-909v-262q0 -13 -14 -13h-75q-13 0 -13 13v335q0 13 13 13h147q51 44 59 165l58 759q0 14 14 14h635q13 0 13 -14v-924zM427 938l-51 -665q-9 -123 -46 -187h563v852h-466z" />
    <glyph glyph-name="uni0435" unicode="&#x435;" horiz-adv-x="1085" 
d="M550 1051h22q186 0 287.5 -118t101.5 -342v-66q0 -17 -17 -17h-712v-108q0 -158 100 -249t257 -91h9q143 0 315 85q5 3 9.5 0.5t4.5 -8.5v-59q0 -18 -15 -24q-61 -33 -153 -57t-169 -24h-14q-196 0 -322 116t-126 319v157q0 224 118.5 355t303.5 131zM568 967h-16
q-142 0 -230.5 -104t-89.5 -281h631q1 196 -73 290.5t-222 94.5z" />
    <glyph glyph-name="uni0436" unicode="&#x436;" horiz-adv-x="1466" 
d="M1041 530l368 -508q5 -8 1.5 -15t-12.5 -7h-82q-14 0 -20 10l-346 474h-166v-470q0 -14 -13 -14h-75q-14 0 -14 14v470h-166l-346 -474q-6 -10 -19 -10h-83q-9 0 -12 7t2 15l367 508l-324 472q-5 8 -1.5 15t12.5 7h77q13 0 20 -11l307 -442h166v439q0 14 14 14h75
q13 0 13 -14v-439h167l306 442q7 11 20 11h78q9 0 12 -7t-2 -15z" />
    <glyph glyph-name="uni0437" unicode="&#x437;" horiz-adv-x="886" 
d="M391 1051h21q169 0 259 -75t90 -196v-19q0 -75 -39 -136.5t-115 -95.5q97 -26 145.5 -90.5t48.5 -155.5v-20q0 -125 -101 -207.5t-277 -82.5h-24q-73 0 -160.5 23t-138.5 54q-15 6 -15 24v59q0 6 4.5 8.5t9.5 0.5q150 -84 296 -84h18q133 0 209 62.5t76 146.5v22
q0 86 -62 139t-195 53h-168q-13 0 -13 13v52q0 13 13 13h124q131 0 196.5 56.5t65.5 136.5v22q0 83 -64 137.5t-191 54.5h-17q-131 0 -281 -84q-5 -2 -9 0.5t-4 8.5v59q0 18 14 24q51 31 133 54t151 23z" />
    <glyph glyph-name="uni0438" unicode="&#x438;" horiz-adv-x="1103" 
d="M844 1024h99q13 0 13 -14v-996q0 -14 -13 -14h-75q-13 0 -13 14v494l2 381h-8l-565 -874q-9 -15 -24 -15h-99q-14 0 -14 14v996q0 14 14 14h74q14 0 14 -14v-446l-2 -429h7l566 874q9 15 24 15z" />
    <glyph glyph-name="uni0439" unicode="&#x439;" horiz-adv-x="1103" 
d="M814 1360q8 4 13.5 1t5.5 -11v-50q0 -15 -11 -23q-38 -30 -107.5 -56t-151.5 -26t-151.5 26t-107.5 56q-12 9 -12 23v50q0 8 6 11t14 -1q40 -25 67 -39t78.5 -29t105.5 -15t105.5 15t78.5 29t67 39zM844 1024h99q13 0 13 -14v-996q0 -14 -13 -14h-75q-13 0 -13 14v493
l2 382h-8l-565 -874q-9 -15 -24 -15h-99q-14 0 -14 14v996q0 14 14 14h74q14 0 14 -14v-446l-2 -429h7l566 874q9 15 24 15z" />
    <glyph glyph-name="uni043A" unicode="&#x43a;" horiz-adv-x="972" 
d="M547 530l367 -508q5 -8 2 -15t-12 -7h-83q-13 0 -19 10l-347 474h-202v-470q0 -14 -14 -14h-74q-14 0 -14 14v996q0 14 14 14h74q14 0 14 -14v-439h203l307 442q7 11 20 11h77q9 0 12.5 -7t-1.5 -15z" />
    <glyph glyph-name="uni043B" unicode="&#x43b;" horiz-adv-x="1140" 
d="M345 1024h635q14 0 14 -14v-996q0 -14 -14 -14h-74q-14 0 -14 14v924h-466l-53 -695q-22 -270 -203 -270h-12q-50 0 -90 20q-13 6 -13 21v51q0 18 17 12q39 -16 72 -16h8q107 0 121 188l58 761q0 14 14 14z" />
    <glyph glyph-name="uni043C" unicode="&#x43c;" horiz-adv-x="1280" 
d="M1014 1024h105q13 0 13 -14v-996q0 -14 -13 -14h-75q-14 0 -14 14v384l10 509h-9l-343 -572q-9 -15 -26 -15h-45q-17 0 -26 15l-343 572h-9l10 -509v-384q0 -14 -14 -14h-74q-14 0 -14 14v996q0 14 14 14h104q15 0 24 -15l348 -585h5l348 585q9 15 24 15z" />
    <glyph glyph-name="uni043D" unicode="&#x43d;" horiz-adv-x="1097" 
d="M862 1024h74q14 0 14 -14v-996q0 -14 -14 -14h-74q-14 0 -14 14v466h-599v-466q0 -14 -14 -14h-74q-14 0 -14 14v996q0 14 14 14h74q14 0 14 -14v-444h599v444q0 14 14 14z" />
    <glyph glyph-name="uni043E" unicode="&#x43e;" horiz-adv-x="1144" 
d="M561 1051h23q190 0 311.5 -122t121.5 -341v-152q0 -219 -121.5 -341t-311.5 -122h-23q-190 0 -311.5 122t-121.5 341v152q0 219 121.5 341t311.5 122zM581 963h-17q-149 0 -241 -97t-92 -274v-160q0 -177 92 -274t241 -97h17q149 0 241 97t92 274v160q0 177 -92 274
t-241 97z" />
    <glyph glyph-name="uni043F" unicode="&#x43f;" horiz-adv-x="1103" 
d="M161 1024h781q14 0 14 -14v-996q0 -14 -14 -14h-74q-14 0 -14 14v924h-605v-924q0 -14 -14 -14h-74q-14 0 -14 14v996q0 14 14 14z" />
    <glyph glyph-name="uni0440" unicode="&#x440;" horiz-adv-x="1120" 
d="M591 1051h10q187 0 289 -120.5t102 -338.5v-156q0 -224 -105.5 -343.5t-291.5 -119.5h-11q-83 0 -172 40t-159 119v-460q0 -14 -14 -14h-74q-14 0 -14 14v1338q0 14 14 14h68q12 0 14 -12l2 -128q70 82 162.5 124.5t179.5 42.5zM580 963h-5q-171 0 -322 -172v-557
q152 -173 322 -173h5q149 0 229 95t80 276v160q0 181 -80 276t-229 95z" />
    <glyph glyph-name="uni0441" unicode="&#x441;" horiz-adv-x="1017" 
d="M576 1051h22q71 0 147 -23.5t133 -57.5q15 -6 15 -24v-59q0 -6 -4.5 -8.5t-9.5 0.5q-148 84 -273 84h-17q-154 0 -256 -100t-102 -279v-144q0 -179 102 -279t256 -100h17q125 0 273 84q5 3 9.5 0.5t4.5 -8.5v-59q0 -18 -15 -24q-57 -34 -133 -57.5t-147 -23.5h-22
q-92 0 -172.5 30.5t-142 87.5t-97.5 147.5t-36 202.5v142q0 112 36 202.5t97.5 147.5t142 87.5t172.5 30.5z" />
    <glyph glyph-name="uni0442" unicode="&#x442;" horiz-adv-x="950" 
d="M68 1024h814q14 0 14 -14v-59q0 -13 -14 -13h-356v-924q0 -14 -13 -14h-75q-14 0 -14 14v924h-356q-13 0 -13 13v59q0 14 13 14z" />
    <glyph glyph-name="uni0443" unicode="&#x443;" horiz-adv-x="1011" 
d="M873 1024h73q16 0 11 -16l-420 -1105q-54 -143 -116 -207.5t-168 -64.5h-13q-67 0 -136 30q-14 5 -14 21v53q0 8 5 11.5t12 0.5q71 -29 127 -29h7q64 0 107.5 40.5t82.5 142.5l37 99h-13q-17 0 -23 17l-376 991q-5 16 12 16h72q17 0 23 -17l215 -561l126 -356h5l126 356
l215 561q6 17 23 17z" />
    <glyph glyph-name="uni0444" unicode="&#x444;" horiz-adv-x="1519" 
d="M810 1051h128q92 0 173.5 -30.5t144 -87.5t99 -146t36.5 -199v-152q0 -110 -36.5 -199t-99 -146t-144 -87.5t-173.5 -30.5h-128v-301q0 -14 -13 -14h-75q-13 0 -13 14v301h-128q-92 0 -173.5 30.5t-144 87.5t-99 146t-36.5 199v152q0 110 36.5 199t99 146t144 87.5
t173.5 30.5h128v445q0 13 13 13h75q13 0 13 -13v-445zM709 963h-125q-152 0 -252.5 -98t-100.5 -273v-160q0 -175 100.5 -273t252.5 -98h125v902zM1288 432v160q0 175 -100.5 273t-252.5 98h-125v-902h125q152 0 252.5 98t100.5 273z" />
    <glyph glyph-name="uni0445" unicode="&#x445;" horiz-adv-x="923" 
d="M762 1024h77q9 0 12 -7t-2 -15l-317 -475l335 -505q5 -8 1.5 -15t-12.5 -7h-78q-13 0 -20 10l-234 349l-58 99h-7l-59 -99l-234 -349q-7 -10 -19 -10h-79q-9 0 -12 7t2 15l335 505l-320 475q-4 8 -1 15t12 7h77q15 0 20 -11l219 -322l59 -99h6l59 99l218 322q9 11 20 11z
" />
    <glyph glyph-name="uni0446" unicode="&#x446;" horiz-adv-x="1181" 
d="M954 86h160q13 0 13 -13v-335q0 -13 -13 -13h-75q-14 0 -14 13v262h-864q-14 0 -14 14v996q0 14 14 14h74q14 0 14 -14v-924h603v924q0 14 14 14h74q14 0 14 -14v-924z" />
    <glyph glyph-name="uni0447" unicode="&#x447;" horiz-adv-x="1067" 
d="M837 1024h74q14 0 14 -14v-996q0 -14 -14 -14h-74q-14 0 -14 14v376q-73 -50 -161 -77.5t-169 -27.5h-11q-339 0 -339 381v344q0 14 14 14h74q14 0 14 -14v-338q0 -148 59.5 -223.5t197.5 -75.5h5q165 0 316 113v524q0 14 14 14z" />
    <glyph glyph-name="uni0448" unicode="&#x448;" horiz-adv-x="1646" 
d="M1412 1024h75q13 0 13 -14v-996q0 -14 -13 -14h-1326q-14 0 -14 14v996q0 14 14 14h74q14 0 14 -14v-924h524v924q0 14 13 14h75q13 0 13 -14v-924h524v924q0 14 14 14z" />
    <glyph glyph-name="uni0449" unicode="&#x449;" horiz-adv-x="1728" 
d="M1500 86h160q13 0 13 -13v-335q0 -13 -13 -13h-75q-13 0 -13 13v262h-1411q-14 0 -14 14v996q0 14 14 14h74q14 0 14 -14v-924h524v924q0 14 13 14h75q13 0 13 -14v-924h524v924q0 14 14 14h75q13 0 13 -14v-924z" />
    <glyph glyph-name="uni044A" unicode="&#x44a;" horiz-adv-x="1097" 
d="M368 629h297q175 0 261.5 -78t86.5 -215v-21q0 -140 -87.5 -227.5t-260.5 -87.5h-386q-13 0 -13 14v924h-198q-13 0 -13 13v59q0 14 13 14h286q14 0 14 -14v-381zM368 86h282q133 0 196.5 64.5t63.5 163.5v23q0 96 -62.5 152t-197.5 56h-282v-459z" />
    <glyph glyph-name="uni044B" unicode="&#x44b;" horiz-adv-x="1323" 
d="M249 629h297q175 0 261.5 -78t86.5 -215v-21q0 -140 -87.5 -227.5t-260.5 -87.5h-385q-14 0 -14 14v996q0 14 14 14h74q14 0 14 -14v-381zM1087 1024h74q14 0 14 -14v-996q0 -14 -14 -14h-74q-14 0 -14 14v996q0 14 14 14zM791 314v23q0 96 -62.5 152t-197.5 56h-282
v-459h282q133 0 196.5 64.5t63.5 163.5z" />
    <glyph glyph-name="uni044C" unicode="&#x44c;" horiz-adv-x="980" 
d="M249 629h298q175 0 261.5 -78t86.5 -215v-21q0 -140 -87.5 -227.5t-260.5 -87.5h-386q-14 0 -14 14v996q0 14 14 14h74q14 0 14 -14v-381zM249 86h283q133 0 196 64.5t63 163.5v23q0 96 -62 152t-197 56h-283v-459z" />
    <glyph glyph-name="uni044D" unicode="&#x44d;" horiz-adv-x="1017" 
d="M418 1051h23q92 0 172.5 -30.5t142.5 -87.5t97.5 -147.5t35.5 -202.5v-142q0 -112 -35.5 -202.5t-97.5 -147.5t-142.5 -87.5t-172.5 -30.5h-23q-71 0 -147 23.5t-133 57.5q-14 6 -14 24v59q0 6 5 8.5t9 -0.5q148 -84 273 -84h17q154 0 256 100t102 279v44h-502
q-13 0 -13 14v50q0 13 13 13h502v23q0 179 -102 279t-256 100h-17q-125 0 -273 -84q-4 -3 -9 -0.5t-5 8.5v59q0 18 14 24q57 34 133 57.5t147 23.5z" />
    <glyph glyph-name="uni044E" unicode="&#x44e;" horiz-adv-x="1507" 
d="M924 1051h22q190 0 311.5 -122t121.5 -341v-152q0 -219 -121.5 -341t-311.5 -122h-22q-190 0 -311.5 122t-121.5 341v44h-242v-466q0 -14 -14 -14h-74q-14 0 -14 14v996q0 14 14 14h74q14 0 14 -14v-444h242v22q0 219 121.5 341t311.5 122zM1276 432v160q0 177 -91.5 274
t-240.5 97h-17q-149 0 -241 -97t-92 -274v-160q0 -177 92 -274t241 -97h17q149 0 240.5 97t91.5 274z" />
    <glyph glyph-name="uni044F" unicode="&#x44f;" horiz-adv-x="1028" 
d="M477 1024h390q14 0 14 -14v-996q0 -14 -14 -14h-74q-14 0 -14 14v398h-295l-284 -397q-10 -15 -26 -15h-73q-10 0 -14 8t2 16l229 322l61 80q-124 20 -187 97t-63 186v19q0 137 86.5 216.5t261.5 79.5zM779 938h-287q-135 0 -197.5 -56.5t-62.5 -152.5v-23
q0 -92 63.5 -153t196.5 -61h287v446z" />
    <glyph glyph-name="uni0451" unicode="&#x451;" horiz-adv-x="1085" 
d="M353 1361h96q16 0 16 -16v-114q0 -16 -16 -16h-96q-16 0 -16 16v114q0 16 16 16zM647 1361h97q16 0 16 -16v-114q0 -16 -16 -16h-97q-15 0 -15 16v114q0 16 15 16zM550 1051h22q186 0 287.5 -118t101.5 -342v-66q0 -17 -17 -17h-712v-108q0 -158 100 -249t257 -91h9
q143 0 315 85q5 3 9.5 0.5t4.5 -8.5v-59q0 -18 -15 -24q-61 -33 -153 -57t-169 -24h-14q-196 0 -322 116t-126 319v157q0 224 118.5 355t303.5 131zM568 967h-16q-142 0 -230.5 -104t-89.5 -281h631q1 196 -73 290.5t-222 94.5z" />
    <glyph glyph-name="uni0454" unicode="&#x454;" horiz-adv-x="1017" 
d="M606 963h-17q-154 0 -256 -100t-102 -279v-23h502q13 0 13 -13v-50q0 -14 -13 -14h-502v-44q0 -179 102 -279t256 -100h17q125 0 273 84q5 3 9.5 0.5t4.5 -8.5v-59q0 -18 -15 -24q-57 -34 -133 -57.5t-147 -23.5h-22q-92 0 -172.5 30.5t-142 87.5t-97.5 147.5t-36 202.5
v142q0 112 36 202.5t97.5 147.5t142 87.5t172.5 30.5h22q71 0 147 -23.5t133 -57.5q15 -6 15 -24v-59q0 -6 -4.5 -8.5t-9.5 0.5q-148 84 -273 84z" />
    <glyph glyph-name="uni0456" unicode="&#x456;" horiz-adv-x="423" 
d="M166 1356h96q15 0 15 -15v-110q0 -16 -15 -16h-96q-15 0 -15 16v110q0 15 15 15zM177 1024h74q14 0 14 -14v-996q0 -14 -14 -14h-74q-14 0 -14 14v996q0 14 14 14z" />
    <glyph glyph-name="uni0457" unicode="&#x457;" horiz-adv-x="399" 
d="M7 1361h97q15 0 15 -16v-114q0 -16 -15 -16h-97q-15 0 -15 16v114q0 16 15 16zM302 1361h97q15 0 15 -16v-114q0 -16 -15 -16h-97q-15 0 -15 16v114q0 16 15 16zM165 1024h74q14 0 14 -14v-996q0 -14 -14 -14h-74q-14 0 -14 14v996q0 14 14 14z" />
    <glyph glyph-name="uni045E" unicode="&#x45e;" horiz-adv-x="1011" 
d="M757 1360q7 4 13.5 1t6.5 -11v-50q0 -15 -11 -23q-38 -30 -108 -56t-152 -26t-151.5 26t-107.5 56q-11 8 -11 23v50q0 8 6 11t14 -1q40 -25 67 -39t78.5 -29t105.5 -15t105.5 15t78 29t66.5 39zM873 1024h73q16 0 11 -16l-420 -1105q-54 -143 -116 -207.5t-168 -64.5h-13
q-67 0 -136 30q-14 5 -14 21v53q0 8 5 11.5t12 0.5q71 -29 127 -29h7q64 0 107.5 40.5t82.5 142.5l37 99h-13q-17 0 -23 17l-376 991q-5 16 12 16h72q17 0 23 -17l215 -561l126 -356h5l126 356l215 561q6 17 23 17z" />
    <glyph glyph-name="uni0490" unicode="&#x490;" horiz-adv-x="1081" 
d="M928 1579h65q14 0 14 -13v-214q0 -13 -14 -13h-700v-1325q0 -14 -14 -14h-77q-14 0 -14 14v1406q0 14 14 14h712v132q0 13 14 13z" />
    <glyph glyph-name="uni0491" unicode="&#x491;" horiz-adv-x="835" 
d="M708 1170h59q13 0 13 -14v-205q0 -13 -13 -13h-518v-924q0 -14 -14 -14h-74q-14 0 -14 14v996q0 14 14 14h533v132q0 14 14 14z" />
    <glyph glyph-name="Wgrave" unicode="&#x1e80;" horiz-adv-x="1990" 
d="M878 1938l148 -322q3 -7 0.5 -12t-9.5 -5h-47q-16 0 -24 16l-167 320q-3 7 0.5 13t11.5 6h62q17 0 25 -16zM1829 1434h75q16 0 11 -16l-403 -1401q-6 -17 -25 -17h-103q-20 0 -26 17l-155 540l-203 734h-8l-204 -734l-156 -540q-6 -17 -25 -17h-103q-20 0 -26 17
l-402 1401q-5 16 11 16h75q16 0 23 -18l164 -578l205 -734h8l205 734l164 578q7 18 23 18h82q17 0 24 -18l164 -578l206 -734h7l205 734l164 578q7 18 23 18z" />
    <glyph glyph-name="wgrave" unicode="&#x1e81;" horiz-adv-x="1529" 
d="M642 1528l147 -322q7 -16 -8 -16h-48q-15 0 -23 15l-168 320q-3 7 0.5 13t11.5 6h62q18 0 26 -16zM1391 1024h71q17 0 12 -16l-301 -991q-6 -17 -23 -17h-94q-17 0 -23 17l-90 299l-175 598h-8l-173 -598l-90 -299q-6 -17 -24 -17h-93q-20 0 -23 17l-301 991q-5 16 12 16
h71q17 0 23 -17l130 -434l137 -476h5l137 476l128 434q3 17 23 17h86q17 0 23 -17l130 -434l136 -476h6l135 476l129 434q6 17 24 17z" />
    <glyph glyph-name="Wacute" unicode="&#x1e82;" horiz-adv-x="1990" 
d="M964 1616l147 322q8 16 26 16h61q8 0 11.5 -6t0.5 -13l-167 -320q-8 -16 -23 -16h-48q-7 0 -9 5t1 12zM1829 1434h75q16 0 11 -16l-403 -1401q-6 -17 -25 -17h-103q-20 0 -26 17l-155 540l-203 734h-8l-204 -734l-156 -540q-6 -17 -25 -17h-103q-20 0 -26 17l-402 1401
q-5 16 11 16h75q16 0 23 -18l164 -578l205 -734h8l205 734l164 578q7 18 23 18h82q17 0 24 -18l164 -578l206 -734h7l205 734l164 578q7 18 23 18z" />
    <glyph glyph-name="wacute" unicode="&#x1e83;" horiz-adv-x="1529" 
d="M734 1206l147 322q8 16 26 16h62q8 0 11.5 -6t0.5 -13l-168 -320q-7 -15 -23 -15h-48q-15 0 -8 16zM1391 1024h71q17 0 12 -16l-301 -991q-6 -17 -23 -17h-94q-17 0 -23 17l-90 299l-175 598h-8l-173 -598l-90 -299q-6 -17 -24 -17h-93q-20 0 -23 17l-301 991
q-5 16 12 16h71q17 0 23 -17l130 -434l137 -476h5l137 476l128 434q3 17 23 17h86q17 0 23 -17l130 -434l136 -476h6l135 476l129 434q6 17 24 17z" />
    <glyph glyph-name="Wdieresis" unicode="&#x1e84;" horiz-adv-x="1990" 
d="M800 1770h97q15 0 15 -15v-115q0 -15 -15 -15h-97q-15 0 -15 15v115q0 15 15 15zM1095 1770h97q15 0 15 -15v-115q0 -15 -15 -15h-97q-15 0 -15 15v115q0 15 15 15zM1829 1434h75q16 0 11 -16l-403 -1401q-6 -17 -25 -17h-103q-20 0 -26 17l-155 540l-203 734h-8
l-204 -734l-156 -540q-6 -17 -25 -17h-103q-20 0 -26 17l-402 1401q-5 16 11 16h75q16 0 23 -18l164 -578l205 -734h8l205 734l164 578q7 18 23 18h82q17 0 24 -18l164 -578l205 -734h8l205 734l164 578q7 18 23 18z" />
    <glyph glyph-name="wdieresis" unicode="&#x1e85;" horiz-adv-x="1529" 
d="M568 1361h97q15 0 15 -16v-114q0 -16 -15 -16h-97q-15 0 -15 16v114q0 16 15 16zM863 1361h97q15 0 15 -16v-114q0 -16 -15 -16h-97q-15 0 -15 16v114q0 16 15 16zM1391 1024h71q17 0 12 -16l-301 -991q-6 -17 -23 -17h-94q-17 0 -23 17l-90 299l-175 598h-8l-173 -598
l-91 -299q-6 -17 -23 -17h-93q-20 0 -23 17l-301 991q-5 16 12 16h71q17 0 23 -17l130 -434l137 -476h5l137 476l128 434q3 17 23 17h86q17 0 23 -17l130 -434l136 -476h6l135 476l129 434q6 17 24 17z" />
    <glyph glyph-name="Ygrave" unicode="&#x1ef2;" horiz-adv-x="1261" 
d="M518 1938l148 -322q3 -7 0.5 -12t-9.5 -5h-47q-15 0 -23 16l-168 320q-3 7 0.5 13t11.5 6h62q17 0 25 -16zM1093 1434h82q16 0 10 -17l-502 -926v-477q0 -14 -14 -14h-76q-14 0 -14 14v477l-503 926q-2 6 1 11.5t10 5.5h81q16 0 24 -15l313 -568l123 -248h5l124 248
l312 568q7 15 24 15z" />
    <glyph glyph-name="ygrave" unicode="&#x1ef3;" horiz-adv-x="1011" 
d="M398 1528l148 -322q7 -16 -9 -16h-47q-16 0 -23 15l-168 320q-3 7 0.5 13t11.5 6h62q17 0 25 -16zM873 1024h73q16 0 11 -16l-420 -1105q-54 -143 -116 -207.5t-168 -64.5h-13q-67 0 -136 30q-14 5 -14 21v53q0 8 5 11.5t12 0.5q71 -29 127 -29h7q64 0 107.5 40.5
t82.5 142.5l37 99h-13q-17 0 -23 17l-376 991q-5 16 12 16h72q17 0 23 -17l215 -561l126 -356h5l126 356l215 561q6 17 23 17z" />
    <glyph glyph-name="uni2009" unicode="&#x2009;" horiz-adv-x="1060" 
 />
    <glyph glyph-name="endash" unicode="&#x2013;" horiz-adv-x="1099" 
d="M89 699h923q13 0 13 -14v-59q0 -14 -13 -14h-923q-14 0 -14 14v59q0 14 14 14z" />
    <glyph glyph-name="emdash" unicode="&#x2014;" horiz-adv-x="1251" 
d="M89 699h1074q14 0 14 -14v-59q0 -14 -14 -14h-1074q-14 0 -14 14v59q0 14 14 14z" />
    <glyph glyph-name="quoteleft" unicode="&#x2018;" horiz-adv-x="307" 
d="M200 946h-110q-15 0 -15 16v100q0 15 4 28l73 332q2 12 16 12h53q13 0 11 -20l-71 -322h39q16 0 16 -16v-114q0 -16 -16 -16z" />
    <glyph glyph-name="quoteright" unicode="&#x2019;" horiz-adv-x="307" 
d="M107 1434h110q15 0 15 -16v-101q0 -17 -3 -27l-74 -332q-1 -12 -15 -12h-53q-13 0 -11 20l71 322h-40q-15 0 -15 16v114q0 16 15 16z" />
    <glyph glyph-name="quotesinglbase" unicode="&#x201a;" horiz-adv-x="307" 
d="M107 145h110q15 0 15 -15v-101q0 -17 -3 -27l-74 -332q-1 -12 -15 -12h-53q-13 0 -11 20l71 322h-40q-15 0 -15 15v115q0 15 15 15z" />
    <glyph glyph-name="quotedblleft" unicode="&#x201c;" horiz-adv-x="612" 
d="M200 946h-110q-15 0 -15 16v100q0 15 4 28l73 332q2 12 16 12h53q13 0 11 -20l-71 -322h39q16 0 16 -16v-114q0 -16 -16 -16zM505 946h-110q-15 0 -15 16v100q0 18 3 28l74 332q1 12 15 12h53q13 0 11 -20l-71 -322h40q15 0 15 -16v-114q0 -16 -15 -16z" />
    <glyph glyph-name="quotedblright" unicode="&#x201d;" horiz-adv-x="612" 
d="M107 1434h110q15 0 15 -16v-101q0 -17 -3 -27l-74 -332q-1 -12 -15 -12h-53q-13 0 -11 20l71 322h-40q-15 0 -15 16v114q0 16 15 16zM412 1434h109q16 0 16 -16v-101q0 -14 -4 -27l-73 -332q-2 -12 -16 -12h-53q-13 0 -11 20l71 322h-39q-16 0 -16 16v114q0 16 16 16z
" />
    <glyph glyph-name="quotedblbase" unicode="&#x201e;" horiz-adv-x="612" 
d="M107 145h110q15 0 15 -15v-101q0 -17 -3 -27l-74 -332q-1 -12 -15 -12h-53q-13 0 -11 20l71 322h-40q-15 0 -15 15v115q0 15 15 15zM412 145h109q16 0 16 -15v-101q0 -14 -4 -27l-73 -332q-2 -12 -16 -12h-53q-13 0 -11 20l71 322h-39q-16 0 -16 15v115q0 15 16 15z" />
    <glyph glyph-name="dagger" unicode="&#x2020;" horiz-adv-x="956" 
d="M530 1024h337q13 0 13 -14v-67q0 -14 -13 -14h-337v-1067q0 -14 -13 -14h-78q-14 0 -14 14v1067h-336q-14 0 -14 14v67q0 14 14 14h336v396q0 14 14 14h78q13 0 13 -14v-396z" />
    <glyph glyph-name="daggerdbl" unicode="&#x2021;" horiz-adv-x="956" 
d="M530 387h337q13 0 13 -14v-67q0 -14 -13 -14h-337v-430q0 -14 -13 -14h-78q-14 0 -14 14v430h-336q-14 0 -14 14v67q0 14 14 14h336v542h-336q-14 0 -14 14v67q0 14 14 14h336v396q0 14 14 14h78q13 0 13 -14v-396h337q13 0 13 -14v-67q0 -14 -13 -14h-337v-542z" />
    <glyph glyph-name="bullet" unicode="&#x2022;" horiz-adv-x="419" 
d="M210 720q56 0 95.5 -39t39.5 -95t-39.5 -95.5t-95.5 -39.5t-95.5 39.5t-39.5 95.5t39.5 95t95.5 39z" />
    <glyph glyph-name="ellipsis" unicode="&#x2026;" horiz-adv-x="1280" 
d="M91 145h105q15 0 15 -15v-115q0 -15 -15 -15h-105q-16 0 -16 15v115q0 15 16 15zM587 145h106q15 0 15 -15v-115q0 -15 -15 -15h-106q-15 0 -15 15v115q0 15 15 15zM1084 145h105q16 0 16 -15v-115q0 -15 -16 -15h-105q-15 0 -15 15v115q0 15 15 15z" />
    <glyph glyph-name="perthousand" unicode="&#x2030;" horiz-adv-x="2801" 
d="M437 635h-25q-155 0 -246 103.5t-91 274.5v68q0 172 91 275.5t246 103.5h25q155 0 246 -103.5t91 -275.5v-68q0 -171 -91 -274.5t-246 -103.5zM667 0h-49q-10 0 -14 6.5t0 14.5l663 1395q9 18 26 18h49q10 0 14 -7t0 -15l-662 -1394q-9 -18 -27 -18zM416 716h17
q119 0 185 81.5t66 215.5v69q0 134 -66 215.5t-185 81.5h-17q-119 0 -185 -81.5t-66 -215.5v-69q0 -134 66 -215.5t185 -81.5zM1523 799h26q155 0 245.5 -103.5t90.5 -275.5v-68q0 -172 -90.5 -275.5t-245.5 -103.5h-26q-155 0 -246 103.5t-91 275.5v68q0 172 91 275.5
t246 103.5zM2364 799h25q155 0 246 -103.5t91 -275.5v-68q0 -172 -91 -275.5t-246 -103.5h-25q-155 0 -246 103.5t-91 275.5v68q0 172 91 275.5t246 103.5zM1544 717h-17q-120 0 -185.5 -81t-65.5 -215v-70q0 -134 65.5 -215t185.5 -81h17q120 0 185.5 81t65.5 215v70
q0 134 -65.5 215t-185.5 81zM2385 717h-17q-120 0 -185.5 -81t-65.5 -215v-70q0 -134 65.5 -215t185.5 -81h17q120 0 185.5 81t65.5 215v70q0 134 -65.5 215t-185.5 81z" />
    <glyph glyph-name="guilsinglleft" unicode="&#x2039;" horiz-adv-x="487" 
d="M167 525l243 -305q4 -6 2 -10.5t-9 -4.5h-63q-9 0 -17 8l-240 280q-8 10 -8 21v21q0 11 8 21l240 280q8 8 17 8h63q7 0 9 -4.5t-2 -10.5z" />
    <glyph glyph-name="guilsinglright" unicode="&#x203a;" horiz-adv-x="487" 
d="M321 525l-243 304q-4 6 -2 10.5t9 4.5h63q9 0 17 -8l240 -280q8 -10 8 -21v-21q0 -11 -8 -21l-240 -280q-8 -8 -17 -8h-63q-7 0 -9 4.5t2 10.5z" />
    <glyph glyph-name="fraction" unicode="&#x2044;" horiz-adv-x="346" 
d="M486 1434h49q10 0 14 -7t0 -15l-663 -1394q-9 -18 -26 -18h-49q-10 0 -14 6.5t0 14.5l662 1395q9 18 27 18z" />
    <glyph glyph-name="Euro" unicode="&#x20ac;" horiz-adv-x="1361" 
d="M916 1365h-15q-91 0 -172.5 -29.5t-147 -86t-109 -147t-54.5 -203.5h565q13 0 13 -13v-49q0 -13 -13 -13h-568v-4v-207v-3h568q13 0 13 -13v-48q0 -14 -13 -14h-565q22 -224 158 -345.5t325 -121.5h15q166 0 337 92q5 3 10 0.5t5 -8.5v-66q0 -16 -15 -24
q-63 -36 -155 -62.5t-187 -26.5h-23q-109 0 -207 36.5t-177.5 105t-130.5 177t-62 243.5h-222q-14 0 -14 14v48q0 13 14 13h219v214h-219q-14 0 -14 13v49q0 13 14 13h222q11 135 62 243.5t130.5 177t177.5 104.5t207 36h23q96 0 188 -26t154 -62q15 -8 15 -25v-65
q0 -6 -5 -8.5t-10 -0.5q-171 92 -337 92z" />
    <glyph glyph-name="uni2116" unicode="&#x2116;" horiz-adv-x="2136" 
d="M1699 1460h26q155 0 245.5 -103t90.5 -275v-68q0 -172 -90.5 -275.5t-245.5 -103.5h-26q-155 0 -245.5 103.5t-90.5 275.5v68q0 172 90.5 275t245.5 103zM1125 1434h77q14 0 14 -14v-1406q0 -14 -14 -14h-94q-12 0 -20 11l-804 1261h-6l6 -520v-738q0 -14 -14 -14h-78
q-13 0 -13 14v1406q0 14 13 14h95q12 0 20 -11l804 -1261h6l-6 633v625q0 14 14 14zM1720 1379h-17q-119 0 -185 -81.5t-66 -215.5v-69q0 -134 66 -215.5t185 -81.5h17q120 0 186 81.5t66 215.5v69q0 134 -66 215.5t-186 81.5zM1397 511h630q14 0 14 -14v-67q0 -14 -14 -14
h-630q-14 0 -14 14v67q0 14 14 14z" />
    <glyph glyph-name="trademark" unicode="&#x2122;" horiz-adv-x="1619" 
d="M83 1516h603q6 0 6 -8v-57q0 -6 -6 -6h-263v-720q0 -8 -8 -8h-61q-9 0 -9 8v720h-262q-8 0 -8 6v57q0 8 8 8zM1442 1516h94q8 0 8 -8v-783q0 -8 -8 -8h-62q-8 0 -8 8v486l6 213h-6l-126 -213l-133 -219q-6 -11 -17 -11h-29q-11 0 -17 11l-133 219l-126 213h-6l5 -213
l1 -486q0 -8 -8 -8h-63q-7 0 -7 8v783q0 8 7 8h94q11 0 14 -8l250 -426h6l250 426q3 8 14 8z" />
    <glyph glyph-name="estimated" unicode="&#x212e;" horiz-adv-x="1540" 
d="M770 1366q200 0 360 -94t247 -252.5t87 -349.5h-1178v-426q88 -101 212.5 -157.5t271.5 -56.5q134 0 253.5 40t205.5 110q7 5 13.5 2.5t6.5 -11.5v-30q0 -16 -14 -27q-90 -68 -211 -104.5t-254 -36.5q-150 0 -281 55.5t-221 149.5t-141.5 222t-51.5 270t51.5 270
t141.5 222t221 149t281 55zM770 1309q-147 0 -271.5 -55.5t-212.5 -155.5v-374h968v374q-88 100 -212.5 155.5t-271.5 55.5z" />
    <glyph glyph-name="oneeighth" unicode="&#x215b;" horiz-adv-x="1679" 
d="M356 743h161q13 0 13 -14v-54q0 -13 -13 -13h-428q-14 0 -14 13v54q0 14 14 14h180v596l-180 -73q-14 -4 -14 10v52q0 16 14 21l196 80q13 5 27 5h31q13 0 13 -14v-677zM1092 1434h48q10 0 14 -7t0 -15l-662 -1394q-9 -18 -27 -18h-48q-10 0 -14 6.5t0 14.5l662 1395
q9 18 27 18zM1466 401q62 -25 100 -75.5t38 -117.5v-20q0 -94 -78.5 -154.5t-197.5 -60.5h-25q-119 0 -198 60.5t-79 154.5v20q0 66 39 117t101 76q-54 26 -87 70.5t-33 101.5v15q0 94 77.5 152.5t186.5 58.5h11q109 0 186.5 -58.5t77.5 -152.5v-15q0 -57 -32.5 -101.5
t-86.5 -70.5zM1130 574v-5q0 -50 45.5 -93t127.5 -43h24q83 0 128.5 43t45.5 93v5q0 70 -53 110t-129 40h-7q-75 0 -128.5 -40t-53.5 -110zM1518 202v10q0 53 -45 100t-131 47h-53q-86 0 -131 -47t-45 -100v-10q0 -70 55 -112t142 -42h11q87 0 142 42t55 112z" />
    <glyph glyph-name="threeeighths" unicode="&#x215c;" horiz-adv-x="1751" 
d="M312 1460h10q111 0 186.5 -58t75.5 -154v-15q0 -56 -31 -100t-82 -71q59 -24 95 -72t36 -114v-20q0 -96 -80.5 -158.5t-202.5 -62.5h-14q-109 0 -215 53q-15 6 -15 23v50q0 6 4.5 8.5t9.5 0.5q125 -58 212 -58h12q87 0 143.5 44t56.5 115v10q0 54 -42 97.5t-129 43.5
h-127q-13 0 -13 13v44q0 13 13 13h111q83 0 126.5 43t43.5 94v5q0 70 -52.5 110t-128.5 40h-6q-83 0 -208 -58q-5 -2 -9.5 0.5t-4.5 8.5v49q0 17 15 23q106 53 210 53zM1163 1434h49q10 0 14 -7t0 -15l-663 -1394q-9 -18 -27 -18h-48q-10 0 -14 6.5t0 14.5l662 1395
q9 18 27 18zM1537 401q62 -25 100.5 -75.5t38.5 -117.5v-20q0 -94 -79 -154.5t-198 -60.5h-25q-119 0 -197.5 60.5t-78.5 154.5v20q0 66 38.5 117t100.5 76q-54 26 -87 70.5t-33 101.5v15q0 94 77.5 152.5t186.5 58.5h11q109 0 186.5 -58.5t77.5 -152.5v-15
q0 -57 -32.5 -101.5t-86.5 -70.5zM1201 574v-5q0 -50 45.5 -93t127.5 -43h25q82 0 127.5 43t45.5 93v5q0 70 -53 110t-129 40h-7q-75 0 -128.5 -40t-53.5 -110zM1589 202v10q0 53 -45 100t-131 47h-53q-86 0 -131 -47t-45 -100v-10q0 -70 55 -112t142 -42h11q87 0 142 42
t55 112z" />
    <glyph glyph-name="fiveeighths" unicode="&#x215d;" horiz-adv-x="1757" 
d="M119 1434h420q14 0 14 -14v-50q0 -14 -14 -14h-351v-265q121 34 177 34q103 0 173.5 -57.5t70.5 -172.5v-21q0 -101 -78.5 -170t-202.5 -69h-15q-117 0 -223 53q-15 6 -15 23v48q0 6 4.5 8.5t9.5 0.5q125 -58 221 -58h11q89 0 143.5 49t54.5 123v10q0 72 -43 118t-132 46
q-63 0 -181 -34q-17 -3 -29 3l-13 9q-16 10 -16 24v362q0 14 14 14zM1170 1434h48q10 0 14 -7t0 -15l-662 -1394q-9 -18 -27 -18h-48q-10 0 -14 6.5t0 14.5l662 1395q9 18 27 18zM1544 401q62 -25 100 -75.5t38 -117.5v-20q0 -94 -78.5 -154.5t-197.5 -60.5h-25
q-119 0 -197.5 60.5t-78.5 154.5v20q0 66 38.5 117t100.5 76q-54 26 -87 70.5t-33 101.5v15q0 94 77.5 152.5t186.5 58.5h11q109 0 186.5 -58.5t77.5 -152.5v-15q0 -57 -32.5 -101.5t-86.5 -70.5zM1208 574v-5q0 -50 45.5 -93t127.5 -43h24q83 0 128.5 43t45.5 93v5
q0 70 -53 110t-129 40h-7q-75 0 -128.5 -40t-53.5 -110zM1596 202v10q0 53 -45 100t-131 47h-53q-86 0 -131 -47t-45 -100v-10q0 -70 55 -112t142 -42h11q87 0 142 42t55 112z" />
    <glyph glyph-name="seveneighths" unicode="&#x215e;" horiz-adv-x="1605" 
d="M89 1434h508q14 0 14 -14v-34q0 -16 -14 -35l-263 -341q-9 -14 -9 -29v-306q0 -13 -14 -13h-61q-13 0 -13 13v322q0 15 10 30l255 325h-413q-14 0 -14 14v54q0 14 14 14zM1018 1434h49q10 0 14 -6.5t0 -14.5l-662 -1395q-9 -18 -27 -18h-49q-10 0 -14 6.5t0 14.5
l663 1395q9 18 26 18zM1393 401q62 -25 100 -75.5t38 -117.5v-20q0 -94 -78.5 -154.5t-197.5 -60.5h-26q-119 0 -197.5 60.5t-78.5 154.5v20q0 66 38.5 117t100.5 76q-54 26 -86.5 70.5t-32.5 101.5v15q0 94 77.5 152.5t185.5 58.5h12q109 0 186 -58.5t77 -152.5v-15
q0 -57 -32 -101.5t-86 -70.5zM1056 574v-5q0 -50 45.5 -93t128.5 -43h24q83 0 128.5 43t45.5 93v5q0 70 -53.5 110t-129.5 40h-7q-75 0 -128.5 -40t-53.5 -110zM1445 202v10q0 53 -45.5 100t-131.5 47h-52q-86 0 -131.5 -47t-45.5 -100v-10q0 -70 55 -112t142 -42h12
q87 0 142 42t55 112z" />
    <glyph glyph-name="arrowleft" unicode="&#x2190;" horiz-adv-x="1306" 
d="M88 691l315 165q7 4 11.5 0.5t4.5 -10.5v-16q0 -13 -10 -21l-168 -108h978q13 0 13 -13v-61q0 -14 -13 -14h-978l168 -107q10 -8 10 -22v-16q0 -7 -4.5 -10.5t-11.5 0.5l-315 166q-13 9 -13 21v24q0 13 13 22z" />
    <glyph glyph-name="arrowup" unicode="&#x2191;" horiz-adv-x="555" 
d="M266 1157h22q16 0 22 -13l167 -313q4 -9 0.5 -13.5t-10.5 -4.5h-18q-13 0 -21 12l-107 165v-976q0 -14 -14 -14h-59q-14 0 -14 14v976l-107 -165q-7 -12 -22 -12h-17q-8 0 -11.5 4.5t0.5 13.5l168 313q7 13 21 13z" />
    <glyph glyph-name="arrowright" unicode="&#x2192;" horiz-adv-x="1306" 
d="M906 856l313 -167q13 -7 13 -22v-22q0 -15 -13 -21l-313 -168q-17 -8 -17 11v17q0 15 11 22l166 107h-977q-14 0 -14 14v59q0 13 14 13h977l-166 108q-11 7 -11 21v18q0 18 17 10z" />
    <glyph glyph-name="arrowdown" unicode="&#x2193;" horiz-adv-x="555" 
d="M248 1130h59q14 0 14 -13v-977l107 165q8 12 21 12h18q19 0 10 -17l-167 -313q-7 -14 -22 -14h-22q-14 0 -21 14l-168 313q-4 9 -0.5 13t11.5 4h17q15 0 22 -12l107 -165v977q0 13 14 13z" />
    <glyph glyph-name="uni2194" unicode="&#x2194;" horiz-adv-x="1544" 
d="M1142 856l315 -165q13 -9 13 -22v-24q0 -12 -13 -21l-315 -166q-8 -4 -12 -0.5t-4 10.5v16q0 14 10 22l168 107h-1063l168 -107q10 -8 10 -22v-16q0 -7 -4.5 -10.5t-11.5 0.5l-315 166q-13 9 -13 21v24q0 13 13 22l315 165q7 4 11.5 0.5t4.5 -10.5v-16q0 -13 -10 -21
l-168 -108h1063l-168 108q-10 8 -10 21v16q0 7 4 10.5t12 -0.5z" />
    <glyph glyph-name="arrowupdn" unicode="&#x2195;" horiz-adv-x="552" 
d="M265 1367h23q13 0 22 -13l166 -315q4 -7 0.5 -11t-11.5 -4h-16q-13 0 -21 10l-107 168v-1064l107 168q8 10 21 10h16q8 0 11.5 -4t-0.5 -11l-166 -315q-9 -13 -22 -13h-23q-13 0 -22 13l-166 315q-4 7 -0.5 11t11.5 4h16q13 0 21 -10l107 -168v1064l-107 -168
q-8 -10 -21 -10h-16q-8 0 -11.5 4t0.5 11l166 315q9 13 22 13z" />
    <glyph glyph-name="uni2196" unicode="&#x2196;" horiz-adv-x="1009" 
d="M124 853l339 -104q17 -6 4 -19l-12 -12q-11 -8 -23 -7l-193 41l691 -691q10 -9 0 -19l-42 -42q-10 -10 -19 0l-692 691l42 -194q1 -11 -7 -22l-12 -13q-13 -13 -19 5l-105 339q-4 14 6 24l17 18q9 9 25 5z" />
    <glyph glyph-name="uni2197" unicode="&#x2197;" horiz-adv-x="1009" 
d="M546 750l340 103q14 5 25 -6l15 -16q11 -11 6 -24l-103 -340q-6 -18 -19 -5l-13 13q-10 10 -7 23l41 193l-690 -691q-10 -10 -20 0l-41 42q-10 10 0 19l690 691l-193 -41q-13 -3 -23 7l-12 12q-14 14 4 20z" />
    <glyph glyph-name="uni2198" unicode="&#x2198;" horiz-adv-x="1009" 
d="M831 136l-41 193q-3 13 7 23l13 13q13 13 19 -5l103 -340q5 -13 -6 -24l-15 -16q-11 -11 -25 -6l-340 103q-18 6 -4 20l12 12q10 10 23 7l193 -41l-690 691q-10 10 0 19l41 42q10 10 20 0z" />
    <glyph glyph-name="uni2199" unicode="&#x2199;" horiz-adv-x="1009" 
d="M888 827l42 -42q10 -9 0 -19l-691 -691l193 41q13 3 23 -7l12 -12q14 -14 -4 -20l-340 -103q-14 -5 -25 6l-15 16q-11 11 -6 24l103 340q6 18 19 5l13 -13q10 -10 7 -23l-41 -193l691 691q9 9 19 0z" />
    <glyph glyph-name="partialdiff" unicode="&#x2202;" horiz-adv-x="1060" 
d="M612 1536h11q184 0 281 -100t79 -294l-63 -706q-20 -223 -141 -343t-309 -120h-22q-179 0 -284.5 123.5t-85.5 339.5l13 128q20 220 130.5 339t299.5 119h11q85 0 172.5 -41.5t150.5 -121.5l25 284q26 307 -280 307h-8q-60 0 -121.5 -14t-99 -28.5t-98.5 -41.5
q-13 -6 -13 8l5 59q0 19 16 24q171 79 331 79zM817 432l30 330q-135 172 -308 172h-5q-152 0 -237.5 -95t-102.5 -275l-13 -132q-16 -175 61.5 -273t215.5 -98h17q149 0 237.5 96.5t104.5 274.5z" />
    <glyph glyph-name="emptyset" unicode="&#x2205;" horiz-adv-x="1232" 
d="M1132 972l-106 -106q129 -148 129 -354q0 -226 -155 -382t-385 -157q-203 1 -354 128l-106 -105q-10 -9 -19 0l-35 37q-10 10 0 19l104 104q-130 150 -129 356q1 149 71.5 272t193.5 194.5t274 72.5q204 -1 355 -130l107 107q11 9 20 0l35 -37q10 -10 0 -19zM167 512
q-1 -168 102 -292l638 638q-123 104 -292 105q-126 -1 -228 -60t-160.5 -162t-59.5 -229zM615 61q126 1 229 60.5t161.5 162.5t58.5 228q0 167 -102 291l-638 -638q123 -103 291 -104z" />
    <glyph glyph-name="product" unicode="&#x220f;" horiz-adv-x="1251" 
d="M89 1434h1074q14 0 14 -14v-68q0 -13 -14 -13h-164v-1325q0 -14 -13 -14h-78q-13 0 -13 14v1325h-537v-1325q0 -14 -14 -14h-78q-13 0 -13 14v1325h-164q-14 0 -14 13v68q0 14 14 14z" />
    <glyph glyph-name="summation" unicode="&#x2211;" horiz-adv-x="1040" 
d="M966 1420v-68q0 -13 -14 -13h-736l560 -578q8 -8 8 -19v-51q0 -11 -8 -19l-560 -577h736q14 0 14 -14v-67q0 -14 -14 -14h-863q-14 0 -14 14v65q0 12 6 18l599 620l-599 620q-6 6 -6 17v66q0 14 14 14h863q14 0 14 -14z" />
    <glyph glyph-name="minus" unicode="&#x2212;" horiz-adv-x="1099" 
d="M89 699h923q13 0 13 -14v-59q0 -14 -13 -14h-923q-14 0 -14 14v59q0 14 14 14z" />
    <glyph glyph-name="radical" unicode="&#x221a;" horiz-adv-x="1413" 
d="M1253 1434h74q15 0 10 -16l-528 -1401q-6 -17 -23 -17h-100q-20 0 -23 17l-350 921h-224q-14 0 -14 13v59q0 14 14 14h283q17 0 23 -17l170 -450l169 -467h4l167 467l325 860q6 17 23 17z" />
    <glyph glyph-name="infinity" unicode="&#x221e;" horiz-adv-x="1370" 
d="M1012 1051h13q125 0 197 -96t72 -235v-33q0 -144 -73 -242t-204 -98h-14q-57 0 -102.5 18t-84.5 59t-67.5 84t-68.5 115q-78 -145 -147.5 -210.5t-174.5 -65.5h-14q-125 0 -197 96t-72 235v33q0 144 73.5 242t204.5 98h13q56 0 102 -18.5t85.5 -58.5t69.5 -84t68 -114
q38 71 69 116.5t69.5 84.5t83 56.5t99.5 17.5zM1021 975h-13q-44 0 -78.5 -15.5t-68 -54t-59.5 -79t-68 -115.5q33 -59 53.5 -92t48.5 -70.5t51.5 -56t54.5 -31t66 -12.5h12q88 0 139 72.5t51 177.5v26q0 105 -50.5 177.5t-138.5 72.5zM362 949h-13q-88 0 -139 -73t-51 -178
v-26q0 -105 51 -177.5t139 -72.5h13q44 0 78.5 15.5t68.5 54.5t60 80t68 117q-42 74 -68 113t-60 77.5t-68.5 54t-78.5 15.5z" />
    <glyph glyph-name="integral" unicode="&#x222b;" horiz-adv-x="880" 
d="M793 1497q13 -5 13 -20v-51q0 -8 -5 -11.5t-12 -0.5q-84 34 -144 34h-8q-77 0 -111 -40t-34 -125v-1552q0 -243 -229 -243h-14q-75 0 -160 38q-14 5 -14 21v51q0 8 5 11.5t12 0.5q84 -34 144 -34h9q77 0 111 40t34 125v1552q0 243 229 243h14q73 0 160 -39z" />
    <glyph glyph-name="approxequal" unicode="&#x2248;" horiz-adv-x="931" 
d="M309 827q46 0 90 -16t73.5 -34.5t71 -34.5t82.5 -16q13 0 26 1.5t26.5 5t24 6t26 9t23 9t24 11t20.5 10.5t21.5 11t18.5 10q10 5 16 0.5t6 -13.5v-36q0 -14 -14 -21q-2 -1 -17.5 -10.5t-20.5 -12t-20.5 -11t-24 -11.5t-24 -10t-27 -10t-26.5 -6.5t-30 -5t-30 -1.5
q-45 0 -89.5 16t-74 34.5t-71 34.5t-82.5 16q-13 0 -26 -1.5t-26.5 -5t-24 -6t-26 -9t-23 -9t-24 -11t-20.5 -10.5t-21.5 -11t-18.5 -10q-10 -5 -16 -0.5t-6 13.5v36q0 16 9 20q4 2 31.5 17t36 19.5t33.5 15.5t40.5 15t38.5 8t45 4zM309 538q46 0 90 -15.5t73.5 -34.5
t71 -34.5t82.5 -15.5q36 0 81 14.5t64 24t65 33.5q10 5 16 1t6 -13v-37q0 -14 -14 -21q-2 -1 -17.5 -10.5t-20.5 -12t-20.5 -11t-24 -11.5t-24 -10t-27 -10t-26.5 -6.5t-30 -5t-30 -1.5q-45 0 -89.5 16t-74 34.5t-71 34.5t-82.5 16q-36 0 -81 -14.5t-64 -24t-65 -33.5
q-10 -5 -16 -1t-6 13v37q0 16 9 20q5 3 27 15t30.5 16t28.5 13.5t33 13.5t32 10t37 8t37 2z" />
    <glyph glyph-name="notequal" unicode="&#x2260;" horiz-adv-x="1101" 
d="M655 731l-123 -213h482q13 0 13 -14v-48q0 -14 -13 -14h-526l-136 -235q-9 -10 -19 -6l-39 24q-10 4 -5 19l115 198h-315q-14 0 -14 14v48q0 14 14 14h358l124 213h-482q-14 0 -14 14v48q0 13 14 13h525l136 236q9 10 19 6l39 -24q10 -4 5 -19l-114 -199h315q13 0 13 -13
v-48q0 -14 -13 -14h-359z" />
    <glyph glyph-name="lessequal" unicode="&#x2264;" horiz-adv-x="1099" 
d="M91 739l912 223q22 6 22 -15v-41q0 -19 -19 -24l-791 -185l791 -185q19 -5 19 -25v-40q0 -10 -6.5 -14t-15.5 -2l-912 224q-16 5 -16 23v38q0 18 16 23zM89 248h923q13 0 13 -13v-48q0 -14 -13 -14h-923q-14 0 -14 14v48q0 13 14 13z" />
    <glyph glyph-name="greaterequal" unicode="&#x2265;" horiz-adv-x="1099" 
d="M98 962l912 -223q15 -5 15 -23v-38q0 -18 -15 -23l-912 -224q-9 -2 -16 2t-7 14v40q0 20 20 25l790 185l-790 185q-20 5 -20 24v41q0 10 7 13.5t16 1.5zM89 248h923q13 0 13 -13v-48q0 -14 -13 -14h-923q-14 0 -14 14v48q0 13 14 13z" />
    <glyph glyph-name="lozenge" unicode="&#x25ca;" horiz-adv-x="806" 
d="M379 1434h50q12 0 21 -9l274 -274q9 -9 9 -21v-50q0 -12 -9 -21l-274 -274q-9 -9 -21 -9h-50q-12 0 -21 9l-274 274q-9 9 -9 21v50q0 12 9 21l274 274q9 9 21 9zM153 1105l251 -254l250 254l-250 254z" />
    <glyph glyph-name="atsmall" unicode="&#xfe6b;" horiz-adv-x="1331" 
d="M544 1050h243q184 0 288 -99t104 -294v-337q0 -46 -16 -79.5t-41.5 -49.5t-49.5 -23t-46 -7h-38q-24 0 -51 7.5t-54 33t-30 64.5q-47 -50 -104.5 -77.5t-109.5 -27.5h-5q-122 0 -186 77t-64 220v100q0 144 70.5 221.5t194.5 77.5h8q62 0 139 -23t121 -50q8 -5 8 -16v-452
q0 -50 20 -68.5t53 -18.5h22q33 0 56.5 21t23.5 71v333q0 166 -82.5 245t-232.5 79h-239q-150 0 -232.5 -79t-82.5 -245v-268q0 -340 315 -340h349q9 0 9 -8v-56q0 -8 -9 -8h-351q-184 0 -288 99t-104 294v290q0 195 104 294t288 99zM657 790h-5q-90 0 -140.5 -59
t-50.5 -170v-99q0 -230 185 -230h3q107 0 200 107v393q-101 58 -192 58z" />
    <glyph glyph-name="i.loclTRK" horiz-adv-x="399" 
d="M149 1361h106q15 0 15 -16v-114q0 -16 -15 -16h-106q-15 0 -15 16v114q0 16 15 16zM165 1024h74q14 0 14 -14v-996q0 -14 -14 -14h-74q-14 0 -14 14v996q0 14 14 14z" />
    <glyph glyph-name="a.ss01" horiz-adv-x="1105" 
d="M946 936q13 -9 13 -25v-897q0 -14 -13 -14h-69q-11 0 -13 12l-3 131q-72 -83 -165 -126.5t-179 -43.5h-8q-185 0 -283 119.5t-98 339.5v156q0 223 109 343t297 120h14q96 0 211.5 -36.5t186.5 -78.5zM857 233v637q-162 94 -310 94h-8q-145 0 -226.5 -96t-81.5 -275v-161
q0 -182 75.5 -276.5t223.5 -94.5h5q171 0 322 172z" />
    <glyph glyph-name="aacute.ss01" horiz-adv-x="1105" 
d="M503 1206l148 322q8 16 25 16h62q8 0 11.5 -6t0.5 -13l-167 -320q-7 -15 -24 -15h-47q-16 0 -9 16zM946 936q13 -9 13 -25v-897q0 -14 -13 -14h-69q-11 0 -13 12l-3 131q-72 -83 -165 -126.5t-179 -43.5h-8q-185 0 -283 119.5t-98 339.5v156q0 223 109 343t297 120h14
q96 0 211.5 -36.5t186.5 -78.5zM857 233v637q-164 94 -310 94h-8q-145 0 -226.5 -96t-81.5 -275v-161q0 -182 75.5 -276.5t223.5 -94.5h5q171 0 322 172z" />
    <glyph glyph-name="abreve.ss01" horiz-adv-x="1105" 
d="M804 1360q8 4 14 1t6 -11v-50q0 -14 -12 -23q-38 -30 -107.5 -56t-151.5 -26t-151.5 26t-107.5 56q-11 8 -11 23v50q0 8 5.5 11t13.5 -1q40 -25 67 -39t78.5 -29t105.5 -15t105.5 15t78.5 29t67 39zM946 936q13 -9 13 -25v-897q0 -14 -13 -14h-69q-11 0 -13 12l-3 131
q-72 -83 -165 -126.5t-179 -43.5h-8q-185 0 -283 119.5t-98 339.5v156q0 223 109 343t297 120h14q96 0 211.5 -36.5t186.5 -78.5zM857 233v637q-162 94 -310 94h-8q-145 0 -226.5 -96t-81.5 -275v-161q0 -182 75.5 -276.5t223.5 -94.5h5q171 0 322 172z" />
    <glyph glyph-name="acaron.ss01" horiz-adv-x="1105" 
d="M714 1544h56q8 0 12 -6t0 -13l-184 -320q-8 -15 -24 -15h-42q-16 0 -23 15l-184 320q-4 7 0 13t12 6h56q17 0 25 -16l135 -263l135 263q8 16 26 16zM946 936q13 -9 13 -25v-897q0 -14 -13 -14h-69q-11 0 -13 12l-3 131q-72 -83 -165 -126.5t-179 -43.5h-8
q-185 0 -283 119.5t-98 339.5v156q0 223 109 343t297 120h14q96 0 211.5 -36.5t186.5 -78.5zM857 233v637q-162 94 -310 94h-8q-145 0 -226.5 -96t-81.5 -275v-161q0 -182 75.5 -276.5t223.5 -94.5h5q171 0 322 172z" />
    <glyph glyph-name="acircumflex.ss01" horiz-adv-x="1105" 
d="M598 1529l184 -320q4 -7 0 -13t-12 -6h-56q-18 0 -26 16l-135 263l-135 -263q-8 -16 -25 -16h-57q-8 0 -11.5 6t0.5 13l184 320q7 15 23 15h42q16 0 24 -15zM946 936q13 -9 13 -25v-897q0 -14 -13 -14h-69q-11 0 -13 12l-3 131q-72 -83 -165 -126.5t-179 -43.5h-8
q-185 0 -283 119.5t-98 339.5v156q0 223 109 343t297 120h14q96 0 211.5 -36.5t186.5 -78.5zM857 233v637q-164 94 -310 94h-8q-145 0 -226.5 -96t-81.5 -275v-161q0 -182 75.5 -276.5t223.5 -94.5h5q171 0 322 172z" />
    <glyph glyph-name="adieresis.ss01" horiz-adv-x="1105" 
d="M370 1361h97q15 0 15 -16v-114q0 -16 -15 -16h-97q-15 0 -15 16v114q0 16 15 16zM665 1361h97q15 0 15 -16v-114q0 -16 -15 -16h-97q-15 0 -15 16v114q0 16 15 16zM946 936q13 -9 13 -25v-897q0 -14 -13 -14h-69q-11 0 -13 12l-3 131q-72 -83 -165 -126.5t-179 -43.5h-8
q-185 0 -283 119.5t-98 339.5v156q0 223 109 343t297 120h14q96 0 211.5 -36.5t186.5 -78.5zM857 233v637q-162 94 -310 94h-8q-145 0 -226.5 -96t-81.5 -275v-161q0 -182 75.5 -276.5t223.5 -94.5h5q171 0 322 172z" />
    <glyph glyph-name="agrave.ss01" horiz-adv-x="1105" 
d="M425 1528l148 -322q7 -16 -9 -16h-48q-16 0 -23 15l-167 320q-3 7 0.5 13t11.5 6h62q17 0 25 -16zM946 936q13 -9 13 -25v-897q0 -14 -13 -14h-69q-11 0 -13 12l-3 131q-72 -83 -165 -126.5t-179 -43.5h-8q-185 0 -283 119.5t-98 339.5v156q0 223 109 343t297 120h14
q96 0 211.5 -36.5t186.5 -78.5zM857 233v637q-162 94 -310 94h-8q-145 0 -226.5 -96t-81.5 -275v-161q0 -182 75.5 -276.5t223.5 -94.5h5q171 0 322 172z" />
    <glyph glyph-name="amacron.ss01" horiz-adv-x="1105" 
d="M330 1298h503q14 0 14 -14v-55q0 -14 -14 -14h-503q-13 0 -13 14v55q0 14 13 14zM946 936q13 -9 13 -25v-897q0 -14 -13 -14h-69q-11 0 -13 12l-3 131q-72 -83 -165 -126.5t-179 -43.5h-8q-185 0 -283 119.5t-98 339.5v156q0 223 109 343t297 120h14q96 0 211.5 -36.5
t186.5 -78.5zM857 233v637q-162 94 -310 94h-8q-145 0 -226.5 -96t-81.5 -275v-161q0 -182 75.5 -276.5t223.5 -94.5h5q171 0 322 172z" />
    <glyph glyph-name="aogonek.ss01" horiz-adv-x="1105" 
d="M946 936q13 -9 13 -25v-897q0 -14 -13 -14q-52 -43 -78.5 -67t-59.5 -59.5t-47 -68.5t-14 -68q0 -52 32 -78.5t86 -26.5q26 0 66 9q15 4 15 -12v-32q0 -19 -19 -25q-33 -12 -80 -12q-77 0 -126.5 43t-49.5 123q0 67 42.5 126.5t154.5 150.5q-4 3 -4 9l-3 131
q-72 -83 -165 -126.5t-179 -43.5h-8q-185 0 -283 119.5t-98 339.5v156q0 223 109 343t297 120h14q96 0 211.5 -36.5t186.5 -78.5zM857 233v637q-164 94 -310 94h-8q-145 0 -226.5 -96t-81.5 -275v-161q0 -182 75.5 -276.5t223.5 -94.5h5q171 0 322 172z" />
    <glyph glyph-name="aring.ss01" horiz-adv-x="1105" 
d="M572 1480q67 0 113 -45.5t46 -110.5q0 -66 -46.5 -112t-112.5 -46q-67 0 -113 46.5t-46 111.5q0 64 46 110t113 46zM572 1416q-41 0 -66 -26.5t-25 -64.5q0 -40 25 -68t66 -28t66 28t25 68q0 38 -25 64.5t-66 26.5zM946 936q13 -9 13 -25v-897q0 -14 -13 -14h-69
q-11 0 -13 12l-3 131q-72 -83 -165 -126.5t-179 -43.5h-8q-185 0 -283 119.5t-98 339.5v156q0 223 109 343t297 120h14q96 0 211.5 -36.5t186.5 -78.5zM857 233v637q-164 94 -310 94h-8q-145 0 -226.5 -96t-81.5 -275v-161q0 -182 75.5 -276.5t223.5 -94.5h5q171 0 322 172z
" />
    <glyph glyph-name="atilde.ss01" horiz-adv-x="1105" 
d="M809 1347h37q16 0 10 -17q-21 -66 -72 -113.5t-113 -47.5h-8q-33 0 -60 14.5t-42.5 32.5t-39.5 32.5t-52 14.5q-62 0 -112 -82q-7 -13 -21 -13h-37q-17 0 -11 18q21 66 72.5 113.5t113.5 47.5h8q33 0 60.5 -14.5t43 -32.5t39.5 -32.5t51 -14.5q62 0 112 81q7 13 21 13z
M946 936q13 -9 13 -25v-897q0 -14 -13 -14h-69q-11 0 -13 12l-3 131q-72 -83 -165 -126.5t-179 -43.5h-8q-185 0 -283 119.5t-98 339.5v156q0 223 109 343t297 120h14q96 0 211.5 -36.5t186.5 -78.5zM857 233v637q-162 94 -310 94h-8q-145 0 -226.5 -96t-81.5 -275v-161
q0 -182 75.5 -276.5t223.5 -94.5h5q171 0 322 172z" />
    <glyph glyph-name="ae.ss01" horiz-adv-x="1814" 
d="M1279 1051h22q186 0 287.5 -118t101.5 -342v-66q0 -17 -17 -17h-712v-108q0 -158 100 -249t257 -91h9q143 0 315 85q4 3 9 0.5t5 -8.5v-59q0 -18 -14 -24q-61 -33 -153.5 -57t-169.5 -24h-14q-122 0 -220 49t-153 139v-147q0 -14 -14 -14h-41q-11 0 -13 12l-3 131
q-72 -83 -165 -126.5t-179 -43.5h-8q-185 0 -283 119.5t-98 339.5v156q0 223 109 343t297 120h14q86 0 191.5 -32.5t171.5 -72.5q14 -9 14 -25v-82q53 102 145.5 157t208.5 55zM1298 967h-17q-142 0 -230.5 -104t-89.5 -281h632q1 196 -73 290.5t-222 94.5zM547 964h-8
q-145 0 -226.5 -96t-81.5 -275v-161q0 -182 75.5 -276.5t223.5 -94.5h5q171 0 322 172v637q-164 94 -310 94z" />
    <glyph glyph-name="y.ss01" 
d="M849 1024h74q14 0 14 -14v-988q-1 -192 -105.5 -291.5t-288.5 -99.5h-12q-164 0 -324 79q-14 6 -14 24v59q0 6 4 8.5t9 0.5q170 -85 313 -85h8q308 0 308 307v115q-81 -70 -176 -112t-180 -42h-11q-170 0 -247.5 95t-77.5 279v651q0 14 14 14h74q14 0 14 -14v-639
q0 -149 55.5 -223.5t193.5 -74.5h5q80 0 168 42t168 113v782q0 14 14 14z" />
    <glyph glyph-name="yacute.ss01" 
d="M514 1206l147 322q8 16 26 16h62q8 0 11.5 -6t0.5 -13l-168 -320q-7 -15 -23 -15h-48q-15 0 -8 16zM849 1024h74q14 0 14 -14v-988q-1 -192 -105.5 -291.5t-288.5 -99.5h-12q-164 0 -324 79q-14 6 -14 24v59q0 6 4 8.5t9 0.5q170 -85 313 -85h8q308 0 308 307v115
q-81 -70 -176 -112t-180 -42h-11q-170 0 -247.5 95t-77.5 279v651q0 14 14 14h74q14 0 14 -14v-639q0 -149 55.5 -223.5t193.5 -74.5h5q80 0 168 42t168 113v782q0 14 14 14z" />
    <glyph glyph-name="ycircumflex.ss01" 
d="M585 1529l184 -320q4 -7 0.5 -13t-11.5 -6h-57q-17 0 -25 16l-135 263l-135 -263q-8 -16 -26 -16h-56q-8 0 -12 6t0 13l184 320q8 15 24 15h42q16 0 23 -15zM848 1024h75q14 0 14 -14v-988q-1 -192 -105.5 -291.5t-288.5 -99.5h-12q-164 0 -324 79q-14 6 -14 24v59
q0 6 4 8.5t9 0.5q170 -85 312 -85h9q308 0 308 307v115q-81 -70 -176 -112t-180 -42h-11q-170 0 -247.5 95t-77.5 279v651q0 14 14 14h74q14 0 14 -14v-639q0 -149 55.5 -223.5t193.5 -74.5h5q80 0 168 42t168 113v782q0 14 13 14z" />
    <glyph glyph-name="ydieresis.ss01" 
d="M345 1361h97q15 0 15 -16v-114q0 -16 -15 -16h-97q-15 0 -15 16v114q0 16 15 16zM640 1361h97q15 0 15 -16v-114q0 -16 -15 -16h-97q-16 0 -16 16v114q0 16 16 16zM848 1024h75q14 0 14 -14v-988q-1 -192 -105.5 -291.5t-288.5 -99.5h-12q-164 0 -324 79q-14 6 -14 24v59
q0 6 4 8.5t9 0.5q170 -85 313 -85h8q308 0 308 307v115q-81 -70 -176 -112t-180 -42h-11q-170 0 -247.5 95t-77.5 279v651q0 14 14 14h74q14 0 14 -14v-639q0 -149 55.5 -223.5t193.5 -74.5h5q80 0 168 42t168 113v782q0 14 13 14z" />
    <glyph glyph-name="ygrave.ss01" 
d="M431 1528l147 -322q7 -16 -8 -16h-48q-16 0 -23 15l-167 320q-3 7 0.5 13t11.5 6h61q18 0 26 -16zM849 1024h74q14 0 14 -14v-988q-1 -192 -105.5 -291.5t-288.5 -99.5h-12q-164 0 -324 79q-14 6 -14 24v59q0 6 4 8.5t9 0.5q170 -85 313 -85h8q308 0 308 307v116
q-81 -70 -176.5 -112.5t-179.5 -42.5h-11q-170 0 -247.5 95t-77.5 279v651q0 14 14 14h74q14 0 14 -14v-639q0 -149 55.5 -223.5t193.5 -74.5h5q80 0 168 42t168 113v782q0 14 14 14z" />
    <glyph glyph-name="a.ss02" horiz-adv-x="1001" 
d="M164 1024h681q13 0 13 -14v-996q0 -14 -13 -14h-69q-11 0 -13 12l-4 131q-70 -81 -164 -125.5t-181 -44.5h-12q-150 0 -238.5 80t-88.5 213v11q0 164 115 243t355 89l211 7v322h-592q-14 0 -14 13v59q0 14 14 14zM756 540l-227 -8q-181 -7 -266.5 -68t-85.5 -180v-9
q0 -98 68.5 -157t184.5 -59h9q168 0 317 172v309z" />
    <glyph glyph-name="aacute.ss02" horiz-adv-x="1001" 
d="M472 1206l147 322q8 16 26 16h62q8 0 11.5 -6t0.5 -13l-168 -320q-7 -15 -23 -15h-48q-15 0 -8 16zM164 1024h681q13 0 13 -14v-996q0 -14 -13 -14h-69q-11 0 -13 12l-4 131q-70 -81 -164 -125.5t-181 -44.5h-12q-150 0 -238.5 80t-88.5 213v11q0 164 115 243t355 89
l211 7v322h-592q-14 0 -14 13v59q0 14 14 14zM756 540l-227 -8q-181 -7 -266.5 -68t-85.5 -180v-9q0 -98 68.5 -157t184.5 -59h9q168 0 317 172v309z" />
    <glyph glyph-name="abreve.ss02" horiz-adv-x="1001" 
d="M757 1360q7 4 13 1t6 -11v-50q0 -15 -11 -23q-38 -30 -107.5 -56t-151.5 -26t-151.5 26t-107.5 56q-12 9 -12 23v50q0 8 6.5 11t13.5 -1q40 -25 67 -39t78.5 -29t105.5 -15t105.5 15t78.5 29t67 39zM164 1024h680q14 0 14 -14v-996q0 -14 -14 -14h-68q-11 0 -13 12
l-4 131q-70 -81 -164 -125.5t-181 -44.5h-12q-150 0 -238.5 80t-88.5 213v11q0 164 115 243t355 89l211 7v322h-592q-14 0 -14 13v59q0 14 14 14zM756 540l-227 -8q-181 -7 -266.5 -68t-85.5 -180v-9q0 -98 68.5 -157t184.5 -59h9q168 0 317 172v309z" />
    <glyph glyph-name="acaron.ss02" horiz-adv-x="1001" 
d="M665 1544h56q8 0 12 -6t0 -13l-184 -320q-7 -15 -24 -15h-42q-15 0 -23 15l-184 320q-4 7 0 13t12 6h56q17 0 25 -16l135 -263l135 263q8 16 26 16zM164 1024h681q13 0 13 -14v-996q0 -14 -13 -14h-69q-11 0 -13 12l-4 131q-70 -81 -164 -125.5t-181 -44.5h-12
q-150 0 -238.5 80t-88.5 213v11q0 164 115 243t355 89l211 7v322h-592q-14 0 -14 13v59q0 14 14 14zM756 540l-227 -8q-181 -7 -266.5 -68t-85.5 -180v-9q0 -98 68.5 -157t184.5 -59h9q168 0 317 172v309z" />
    <glyph glyph-name="acircumflex.ss02" horiz-adv-x="1001" 
d="M548 1529l184 -320q4 -7 0 -13t-12 -6h-56q-18 0 -26 16l-135 263l-134 -263q-8 -16 -26 -16h-56q-8 0 -12 6t0 13l184 320q7 15 23 15h43q15 0 23 -15zM164 1024h680q14 0 14 -14v-996q0 -14 -14 -14h-68q-11 0 -13 12l-4 131q-70 -81 -164 -125.5t-181 -44.5h-12
q-150 0 -238.5 80t-88.5 213v11q0 164 115 243t355 89l211 7v322h-592q-14 0 -14 13v59q0 14 14 14zM756 540l-227 -8q-181 -7 -266.5 -68t-85.5 -180v-9q0 -98 68.5 -157t184.5 -59h9q168 0 317 172v309z" />
    <glyph glyph-name="adieresis.ss02" horiz-adv-x="1001" 
d="M305 1361h97q15 0 15 -16v-114q0 -16 -15 -16h-97q-15 0 -15 16v114q0 16 15 16zM600 1361h97q15 0 15 -16v-114q0 -16 -15 -16h-97q-16 0 -16 16v114q0 16 16 16zM164 1024h680q14 0 14 -14v-996q0 -14 -14 -14h-68q-11 0 -13 12l-4 131q-70 -81 -164 -125.5t-181 -44.5
h-12q-150 0 -238.5 80t-88.5 213v11q0 164 115 243t355 89l211 7v322h-592q-14 0 -14 13v59q0 14 14 14zM756 540l-227 -8q-181 -7 -266.5 -68t-85.5 -180v-9q0 -98 68.5 -157t184.5 -59h9q168 0 317 172v309z" />
    <glyph glyph-name="agrave.ss02" horiz-adv-x="1001" 
d="M389 1528l147 -322q7 -16 -9 -16h-47q-16 0 -23 15l-168 320q-3 7 0.5 13t11.5 6h62q18 0 26 -16zM164 1024h681q13 0 13 -14v-996q0 -14 -13 -14h-69q-11 0 -13 12l-4 131q-70 -81 -164 -125.5t-181 -44.5h-12q-150 0 -238.5 80t-88.5 213v11q0 164 115 243t355 89
l211 7v322h-592q-14 0 -14 13v59q0 14 14 14zM756 540l-227 -8q-181 -7 -266.5 -68t-85.5 -180v-9q0 -98 68.5 -157t184.5 -59h9q168 0 317 172v309z" />
    <glyph glyph-name="amacron.ss02" horiz-adv-x="1001" 
d="M256 1298h503q13 0 13 -14v-55q0 -14 -13 -14h-503q-14 0 -14 14v55q0 14 14 14zM164 1024h680q14 0 14 -14v-996q0 -14 -14 -14h-68q-11 0 -13 12l-4 131q-70 -81 -164 -125.5t-181 -44.5h-12q-150 0 -238.5 80t-88.5 213v11q0 164 115 243t355 89l211 7v322h-592
q-14 0 -14 13v59q0 14 14 14zM756 540l-227 -8q-181 -7 -266.5 -68t-85.5 -180v-9q0 -98 68.5 -157t184.5 -59h9q168 0 317 172v309z" />
    <glyph glyph-name="aogonek.ss02" horiz-adv-x="1001" 
d="M164 1024h680q14 0 14 -14v-996q0 -14 -14 -14q-51 -42 -78 -66.5t-59.5 -60t-46.5 -68.5t-14 -68q0 -52 32 -78.5t86 -26.5q26 0 66 9q14 3 14 -12v-32q0 -19 -18 -25q-33 -12 -80 -12q-77 0 -126.5 43t-49.5 123q0 67 42.5 126.5t154.5 150.5q-4 3 -4 9l-4 131
q-70 -81 -164 -125.5t-181 -44.5h-12q-150 0 -238.5 80t-88.5 213v11q0 164 115 243t355 89l211 7v322h-592q-14 0 -14 13v59q0 14 14 14zM756 540l-227 -8q-181 -7 -266.5 -68t-85.5 -180v-9q0 -98 68.5 -157t184.5 -59h9q168 0 317 172v309z" />
    <glyph glyph-name="aring.ss02" horiz-adv-x="1001" 
d="M506 1480q67 0 113.5 -45.5t46.5 -110.5q0 -66 -47 -112t-113 -46q-67 0 -113 46.5t-46 111.5q0 64 46 110t113 46zM506 1416q-41 0 -65.5 -26.5t-24.5 -64.5q0 -40 24.5 -68t65.5 -28t66 28t25 68q0 38 -25 64.5t-66 26.5zM164 1024h681q13 0 13 -14v-996q0 -14 -13 -14
h-69q-11 0 -13 12l-4 131q-70 -81 -164 -125.5t-181 -44.5h-12q-150 0 -238.5 80t-88.5 213v11q0 164 115 243t355 89l211 7v322h-592q-14 0 -14 13v59q0 14 14 14zM756 540l-227 -8q-181 -7 -266.5 -68t-85.5 -180v-9q0 -98 68.5 -157t184.5 -59h9q168 0 317 172v309z" />
    <glyph glyph-name="atilde.ss02" horiz-adv-x="1001" 
d="M745 1347h36q17 0 11 -17q-21 -66 -72 -113.5t-113 -47.5h-9q-27 0 -49.5 9.5t-37.5 23.5t-29.5 28t-34 23.5t-42.5 9.5q-63 0 -113 -82q-7 -13 -20 -13h-37q-17 0 -11 18q21 66 72.5 113.5t113.5 47.5h8q27 0 49.5 -9.5t38 -23.5t30 -28t34 -23.5t41.5 -9.5q63 0 113 81
q7 13 21 13zM164 1024h681q13 0 13 -14v-996q0 -14 -13 -14h-69q-11 0 -13 12l-4 131q-70 -81 -164 -125.5t-181 -44.5h-12q-150 0 -238.5 80t-88.5 213v11q0 164 115 243t355 89l211 7v322h-592q-14 0 -14 13v59q0 14 14 14zM756 540l-227 -8q-181 -7 -266.5 -67.5
t-85.5 -179.5v-10q0 -98 68.5 -157t184.5 -59h9q168 0 317 172v309z" />
    <glyph glyph-name="ae.ss02" horiz-adv-x="1714" 
d="M1178 1051h22q186 0 287.5 -118t101.5 -342v-66q0 -17 -17 -17h-712v-108q0 -158 100 -249t257 -91h9q143 0 315 85q5 3 9.5 0.5t4.5 -8.5v-59q0 -18 -15 -24q-61 -33 -153 -57t-169 -24h-14q-122 0 -219.5 48.5t-152.5 138.5v-146q0 -14 -14 -14h-42q-11 0 -13 12
l-4 131q-70 -81 -164 -125.5t-181 -44.5h-12q-150 0 -238.5 80t-88.5 213v11q0 164 115 243t355 89l211 7v322h-592q-14 0 -14 13v59q0 14 14 14h654q14 0 14 -14v-165q53 98 143 152t203 54zM860 582h631q1 196 -73 290.5t-222 94.5h-16q-142 0 -230.5 -104t-89.5 -281z
M756 540l-227 -8q-181 -7 -266.5 -68t-85.5 -180v-9q0 -98 68.5 -157t184.5 -59h9q168 0 317 172v309z" />
    <glyph glyph-name="f.ss02" horiz-adv-x="724" 
d="M216 1509h440q14 0 14 -13v-59q0 -14 -14 -14h-352v-399h296q13 0 13 -14v-59q0 -13 -13 -13h-296v-924q0 -14 -13 -14h-75q-13 0 -13 14v924h-135q-13 0 -13 13v59q0 14 13 14h135v472q0 13 13 13z" />
    <glyph glyph-name="g.ss02" horiz-adv-x="1105" 
d="M945 936q14 -9 14 -25v-1239q0 -14 -14 -14h-727q-13 0 -13 14v59q0 13 13 13h639v404q-72 -81 -163 -122t-175 -41h-10q-185 0 -283 119t-98 339v145q0 223 109 343t297 120h14q96 0 211 -36t186 -79zM530 73h5q171 0 322 172v625q-162 94 -310 94h-9q-145 0 -226 -95.5
t-81 -274.5v-151q0 -182 75.5 -276t223.5 -94z" />
    <glyph glyph-name="gbreve.ss02" horiz-adv-x="1105" 
d="M804 1360q8 4 14 1t6 -11v-50q0 -14 -12 -23q-38 -30 -107.5 -56t-151.5 -26t-151.5 26t-107.5 56q-12 9 -12 23v50q0 8 6 11t14 -1q40 -25 67 -39t78.5 -29t105.5 -15t105.5 15t78.5 29t67 39zM945 936q14 -9 14 -25v-1239q0 -14 -14 -14h-727q-13 0 -13 14v59
q0 13 13 13h639v404q-72 -81 -163 -122t-175 -41h-10q-185 0 -283 119t-98 339v145q0 223 109 343t297 120h14q96 0 211 -36t186 -79zM530 73h5q171 0 322 172v625q-162 94 -310 94h-9q-145 0 -226 -95.5t-81 -274.5v-151q0 -182 75.5 -276t223.5 -94z" />
    <glyph glyph-name="gcommaaccent.ss02" horiz-adv-x="1105" 
d="M597 1190h-110q-15 0 -15 15v89q0 17 4 27l73 225q5 12 16 12h52q19 0 12 -20l-72 -215h40q16 0 16 -15v-103q0 -15 -16 -15zM945 936q14 -9 14 -25v-1239q0 -14 -14 -14h-727q-13 0 -13 14v59q0 13 13 13h639v404q-72 -81 -163 -122t-175 -41h-10q-185 0 -283 119
t-98 339v145q0 223 109 343t297 120h14q96 0 211 -36t186 -79zM530 73h5q171 0 322 172v625q-162 94 -310 94h-9q-145 0 -226 -95.5t-81 -274.5v-151q0 -182 75.5 -276t223.5 -94z" />
    <glyph glyph-name="gdotaccent.ss02" horiz-adv-x="1105" 
d="M533 1361h105q16 0 16 -16v-114q0 -16 -16 -16h-105q-15 0 -15 16v114q0 16 15 16zM945 936q14 -9 14 -25v-1239q0 -14 -14 -14h-727q-13 0 -13 14v59q0 13 13 13h639v404q-72 -81 -163 -122t-175 -41h-10q-185 0 -283 119t-98 339v145q0 223 109 343t297 120h14
q96 0 211 -36t186 -79zM530 73h5q171 0 322 172v625q-162 94 -310 94h-9q-145 0 -226 -95.5t-81 -274.5v-151q0 -182 75.5 -276t223.5 -94z" />
    <glyph glyph-name="r.ss02" horiz-adv-x="706" 
d="M161 1024h478q14 0 14 -14v-59q0 -13 -14 -13h-390v-924q0 -14 -14 -14h-74q-14 0 -14 14v996q0 14 14 14z" />
    <glyph glyph-name="racute.ss02" horiz-adv-x="706" 
d="M359 1206l148 322q8 16 25 16h62q8 0 11.5 -6t0.5 -13l-167 -320q-7 -15 -24 -15h-47q-16 0 -9 16zM161 1024h478q14 0 14 -14v-59q0 -13 -14 -13h-390v-924q0 -14 -14 -14h-74q-14 0 -14 14v996q0 14 14 14z" />
    <glyph glyph-name="rcaron.ss02" horiz-adv-x="706" 
d="M514 1544h57q8 0 12 -6t0 -13l-185 -320q-8 -15 -23 -15h-42q-15 0 -23 15l-185 320q-4 7 0 13t12 6h56q18 0 26 -16l135 -263l135 263q8 16 25 16zM161 1024h478q14 0 14 -14v-59q0 -13 -14 -13h-390v-924q0 -14 -14 -14h-74q-14 0 -14 14v996q0 14 14 14z" />
    <glyph glyph-name="rcommaaccent.ss02" horiz-adv-x="706" 
d="M161 1024h478q14 0 14 -14v-59q0 -13 -14 -13h-390v-924q0 -14 -14 -14h-74q-14 0 -14 14v996q0 14 14 14zM162 -102h110q16 0 16 -16v-89q0 -17 -4 -27l-73 -225q-4 -11 -16 -11h-53q-17 0 -11 19l71 215h-40q-15 0 -15 15v103q0 16 15 16z" />
    <glyph glyph-name="t.ss02" horiz-adv-x="671" 
d="M213 1250l68 16q21 6 21 -14v-228h301q13 0 13 -14v-59q0 -13 -13 -13h-301v-852h301q13 0 13 -13v-59q0 -14 -13 -14h-390q-13 0 -13 14v924h-132q-13 0 -13 13v59q0 14 13 14h132v205q0 19 13 21z" />
    <glyph glyph-name="tbar.ss02" horiz-adv-x="671" 
d="M302 609v-523h301q13 0 13 -13v-59q0 -14 -13 -14h-390q-13 0 -13 14v595h-132q-13 0 -13 13v55q0 14 13 14h132v247h-132q-13 0 -13 13v59q0 14 13 14h132v205q0 19 13 21l68 16q21 6 21 -14v-228h301q13 0 13 -14v-59q0 -13 -13 -13h-301v-247h301q13 0 13 -14v-55
q0 -14 -13 -14z" />
    <glyph glyph-name="tcaron.ss02" horiz-adv-x="878" 
d="M699 1509h110q15 0 15 -15v-89q0 -17 -4 -27l-73 -225q-5 -12 -15 -12h-53q-19 0 -12 20l72 215h-40q-15 0 -15 15v103q0 15 15 15zM213 1250l68 16q21 6 21 -14v-228h301q13 0 13 -14v-59q0 -13 -13 -13h-301v-852h301q13 0 13 -13v-59q0 -14 -13 -14h-390q-13 0 -13 14
v924h-132q-13 0 -13 13v59q0 14 13 14h132v205q0 19 13 21z" />
    <glyph glyph-name="tcedilla.ss02" horiz-adv-x="671" 
d="M302 938v-852h301q13 0 13 -13v-59q0 -14 -13 -14h-230l-22 -129q34 10 71 10q74 0 119 -41t45 -112q0 -80 -55.5 -124t-144.5 -44q-73 0 -127 20q-19 6 -19 26v25q0 16 15 12q4 -1 21 -5t29.5 -7t32.5 -5.5t38 -2.5q63 0 99 25t36 75q0 45 -28.5 68.5t-76.5 23.5
q-18 0 -85 -14q-18 -4 -25 3l-7 6q-13 11 -11 21l30 169h-95q-13 0 -13 14v924h-132q-13 0 -13 13v59q0 14 13 14h132v205q0 19 13 21l68 16q21 6 21 -14v-228h301q13 0 13 -14v-59q0 -13 -13 -13h-301z" />
    <glyph glyph-name="uni021B.ss02" horiz-adv-x="671" 
d="M213 1250l68 16q21 6 21 -14v-228h301q13 0 13 -14v-59q0 -13 -13 -13h-301v-852h301q13 0 13 -13v-59q0 -14 -13 -14h-390q-13 0 -13 14v924h-132q-13 0 -13 13v59q0 14 13 14h132v205q0 19 13 21zM355 -102h110q16 0 16 -16v-89q0 -17 -4 -27l-73 -225q-4 -11 -16 -11
h-53q-17 0 -11 19l71 215h-40q-15 0 -15 15v103q0 16 15 16z" />
    <glyph glyph-name="y.ss02" 
d="M849 1024h74q14 0 14 -14v-1338q0 -14 -14 -14h-727q-13 0 -13 14v59q0 13 13 13h639v395q-81 -70 -176 -112t-180 -42h-11q-170 0 -247.5 95t-77.5 279v651q0 14 14 14h74q14 0 14 -14v-639q0 -149 55.5 -223.5t193.5 -74.5h5q80 0 168 42t168 113v782q0 14 14 14z" />
    <glyph glyph-name="yacute.ss02" 
d="M516 1206l148 322q8 16 25 16h62q8 0 11.5 -6t0.5 -13l-168 -320q-7 -15 -23 -15h-47q-16 0 -9 16zM849 1024h74q14 0 14 -14v-1338q0 -14 -14 -14h-727q-13 0 -13 14v59q0 13 13 13h639v395q-81 -70 -176 -112t-180 -42h-11q-170 0 -247.5 95t-77.5 279v651q0 14 14 14
h74q14 0 14 -14v-639q0 -149 55.5 -223.5t193.5 -74.5h5q80 0 168 42t168 113v782q0 14 14 14z" />
    <glyph glyph-name="ycircumflex.ss02" 
d="M585 1529l184 -320q4 -7 0.5 -13t-11.5 -6h-57q-17 0 -25 16l-135 263l-135 -263q-8 -16 -26 -16h-56q-8 0 -12 6t0 13l184 320q8 15 24 15h42q16 0 23 -15zM848 1024h75q14 0 14 -14v-1338q0 -14 -14 -14h-727q-14 0 -14 14v59q0 13 14 13h639v395q-81 -70 -176 -112
t-180 -42h-11q-170 0 -247.5 95t-77.5 279v651q0 14 14 14h74q14 0 14 -14v-639q0 -149 55.5 -223.5t193.5 -74.5h5q80 0 168 42t168 113v782q0 14 13 14z" />
    </font>
</defs>
</svg>
