<?xml version="1.0" standalone="no"?>
<!DOCTYPE svg PUBLIC "-//W3C//DTD SVG 1.1//EN" "http://www.w3.org/Graphics/SVG/1.1/DTD/svg11.dtd" >
<svg xmlns="http://www.w3.org/2000/svg" xmlns:xlink="http://www.w3.org/1999/xlink" version="1.1">
<metadata>
Created by FontForge 20170731 at Thu Aug 13 18:28:15 2020
 By Aleksey,,,
Copyright (c) 2015 by Mariya Pigoulevskaya. All rights reserved.
</metadata>
<defs>
<font id="Webnar-MediumItalic" horiz-adv-x="1073" >
  <font-face 
    font-family="Webnar Medium"
    font-weight="500"
    font-style="italic"
    font-stretch="normal"
    units-per-em="2048"
    panose-1="0 0 6 0 0 0 0 0 0 0"
    ascent="1536"
    descent="-512"
    x-height="1024"
    cap-height="1434"
    bbox="-205.273 -533 2865.07 2277"
    underline-thickness="102"
    underline-position="-307"
    unicode-range="U+0020-FE6B"
  />
<missing-glyph horiz-adv-x="1024" 
d="M0 0v1434h1024v-1434h-1024zM512 809l348 522h-696zM573 717l349 -522v1044zM164 102h696l-348 523zM102 1239v-1044l349 522z" />
    <glyph glyph-name=".notdef" horiz-adv-x="1024" 
d="M0 0v1434h1024v-1434h-1024zM512 809l348 522h-696zM573 717l349 -522v1044zM164 102h696l-348 523zM102 1239v-1044l349 522z" />
    <glyph glyph-name=".null" horiz-adv-x="0" 
 />
    <glyph glyph-name="nonmarkingreturn" horiz-adv-x="682" 
 />
    <glyph glyph-name="space" unicode=" " horiz-adv-x="419" 
 />
    <glyph glyph-name="exclam" unicode="!" horiz-adv-x="356" 
d="M351 1434h161q11 0 17 -8.5t4 -19.5l-197 -949q-3 -18 -22 -18h-110q-11 0 -17 7.5t-5 17.5l137 941q2 13 10.5 21t21.5 8zM133 227h171q11 0 17 -7.5t4 -18.5l-32 -182q-3 -19 -22 -19h-179q-11 0 -17.5 7.5t-4.5 18.5l31 174q5 27 32 27z" />
    <glyph glyph-name="quotedbl" unicode="&#x22;" horiz-adv-x="694" 
d="M344 1434h159q12 0 18.5 -9t3.5 -20l-106 -432q-5 -16 -22 -16h-111q-10 0 -16 6.5t-5 16.5l46 423q2 14 11 22.5t22 8.5zM700 1434h159q12 0 18.5 -9t3.5 -20l-106 -432q-5 -16 -22 -16h-110q-10 0 -16.5 6.5t-5.5 16.5l46 423q2 14 11 22.5t22 8.5z" />
    <glyph glyph-name="numbersign" unicode="#" horiz-adv-x="1208" 
d="M936 965h351q14 0 21 -10.5t1 -23.5l-39 -89q-8 -18 -27 -18h-369l-94 -214h352q14 0 21 -10.5t1 -23.5l-39 -89q-8 -18 -28 -18h-369l-197 -451q-8 -18 -28 -18h-138q-14 0 -21.5 10.5t-1.5 23.5l192 435h-351q-14 0 -21 10.5t-1 23.5l39 88q9 19 27 19h369l94 214h-352
q-14 0 -21 10.5t-1 23.5l39 88q9 19 28 19h368l199 450q9 19 27 19h35h103q14 0 21 -10.5t1 -23.5z" />
    <glyph glyph-name="dollar" unicode="$" horiz-adv-x="1142" 
d="M1167 1389q29 -10 24 -43l-25 -137q-2 -11 -11 -15.5t-19 -0.5q-97 42 -167 61t-153 19h-12q-106 0 -190 -55t-101 -152l-1 -8q-14 -77 34 -123t167 -88l84 -30q44 -16 79 -31t70 -34t60.5 -38.5t49.5 -45t36.5 -53t23 -62t8.5 -73.5t-8 -86l-3 -18
q-30 -171 -163.5 -276.5t-315.5 -124.5l-43 -243q-3 -19 -22 -19h-108q-11 0 -17.5 8t-4.5 18l41 235q-163 14 -302 82q-26 11 -21 41l24 138q2 11 11 16t20 1q127 -55 197 -75.5t158 -20.5h13q125 0 211.5 58.5t104.5 158.5l1 7q4 21 4.5 39t-3.5 34t-9 29.5t-15.5 25.5
t-20.5 22t-26.5 20t-30.5 17.5t-35.5 16.5t-39 15.5t-42.5 15.5l-81 28q-174 62 -252 155t-52 243l4 23q19 109 87.5 194.5t159.5 132.5t196 61l43 242q5 26 32 26h100q11 0 17.5 -7.5t4.5 -17.5l-43 -239q150 -11 272 -67z" />
    <glyph glyph-name="percent" unicode="%" horiz-adv-x="1990" 
d="M660 1460h31q153 0 234.5 -105t51.5 -272l-15 -85q-30 -167 -140 -265t-263 -98h-32q-154 0 -235.5 105.5t-51.5 272.5l15 85q30 167 140.5 264.5t264.5 97.5zM1538 1434h100q11 0 15.5 -9t-1.5 -18l-899 -1381q-17 -26 -48 -26h-100q-11 0 -15.5 8.5t1.5 17.5l899 1381
q17 27 48 27zM664 1315h-15q-89 0 -150 -61.5t-79 -166.5l-14 -81q-18 -105 20 -165t127 -60h15q89 0 150 61t79 166l14 81q18 105 -20 165.5t-127 60.5zM1685 799h31q153 0 234.5 -105.5t51.5 -272.5l-15 -84q-30 -167 -140 -265.5t-263 -98.5h-32q-153 0 -234.5 106
t-51.5 273l15 84q30 167 140 265t264 98zM1689 653h-14q-89 0 -150 -61t-79 -166l-15 -82q-18 -105 20.5 -165t127.5 -60h14q89 0 150 61t79 166l15 82q18 105 -20.5 165t-127.5 60z" />
    <glyph glyph-name="ampersand" unicode="&#x26;" horiz-adv-x="1435" 
d="M820 1460h14q109 0 195 -34q30 -10 25 -44l-23 -134q-2 -10 -10 -14.5t-18 -0.5q-93 41 -185 41h-10q-115 0 -194 -61.5t-96 -161.5l-3 -19q-7 -42 3 -80.5t37.5 -70.5t78.5 -51t120 -19h296l71 405q5 27 32 33l162 36q9 2 14.5 -3.5t3.5 -14.5l-80 -456l285 -1l-28 -158
h-285l-67 -379q-12 -70 9.5 -102t81.5 -32h10q37 0 140 33q10 3 16.5 -2.5t5.5 -15.5l-19 -109q-3 -19 -22 -27q-112 -45 -185 -45h-17q-87 0 -139.5 36.5t-63.5 101.5q-85 -59 -194 -98.5t-223 -39.5h-17q-128 0 -225.5 49.5t-145 145t-25.5 218.5l5 29q20 116 97 206.5
t213 134.5q-87 45 -127.5 129.5t-24.5 175.5l5 28q32 179 170.5 275t336.5 96zM1022 652l-327 1q-141 0 -225.5 -69.5t-101.5 -166.5l-2 -12q-19 -108 44 -177t188 -69h13q60 0 124.5 19t109.5 40.5t111 58.5z" />
    <glyph glyph-name="quotesingle" unicode="'" horiz-adv-x="339" 
d="M344 1434h159q12 0 18.5 -9t3.5 -20l-106 -432q-5 -16 -22 -16h-111q-10 0 -16 6.5t-5 16.5l46 423q2 14 11 22.5t22 8.5z" />
    <glyph glyph-name="parenleft" unicode="(" horiz-adv-x="608" 
d="M778 1461q10 1 16.5 -5.5t4.5 -17.5l-21 -119q-2 -12 -14 -17q-49 -18 -83 -38.5t-70 -59t-61.5 -101.5t-41.5 -153l-128 -728q-13 -71 -13 -125.5t9.5 -90.5t30 -62.5t43 -41.5t54.5 -28q18 -8 15 -27l-21 -118q-3 -18 -21 -15q-73 14 -128.5 39.5t-98.5 67.5t-65 100
t-28 138t14 181l125 709q43 245 166.5 366.5t315.5 145.5z" />
    <glyph glyph-name="parenright" unicode=")" horiz-adv-x="608" 
d="M297 1327l20 118q3 18 22 15q71 -13 125 -38t98.5 -66.5t66.5 -99.5t29 -138.5t-13 -183.5l-125 -709q-83 -474 -483 -514q-10 -1 -16.5 6t-4.5 18l21 120q1 12 15 17q48 17 82.5 38t70 59t61 101.5t41.5 153.5l129 728q13 71 12.5 125.5t-9.5 90t-30 62.5t-43.5 42
t-54.5 28q-17 8 -14 27z" />
    <glyph glyph-name="asterisk" unicode="*" horiz-adv-x="929" 
d="M631 1434h163q12 0 19 -9t3 -21l-60 -241l242 102q10 5 20 0.5t12 -16.5l29 -155q3 -18 -16 -23l-264 -71l145 -186q7 -8 5.5 -17t-9.5 -15l-146 -102q-9 -7 -19 -4t-14 13l-112 214l-195 -222q-14 -17 -30 -3l-114 101q-8 7 -7.5 16.5t8.5 16.5l209 188l-229 68
q-11 3 -15 12.5t1 19.5l83 159q10 19 29 9l215 -105l26 252q2 19 21 19z" />
    <glyph glyph-name="plus" unicode="+" horiz-adv-x="1075" 
d="M675 1086h110q11 0 17.5 -7.5t4.5 -18.5l-60 -336h368q11 0 17 -7.5t4 -17.5l-19 -109q-5 -26 -32 -26h-366l-60 -335q-5 -27 -32 -27h-110q-11 0 -17.5 7.5t-4.5 18.5l60 336h-368q-11 0 -17 7.5t-4 17.5l19 109q5 26 32 26h366l60 335q5 27 32 27z" />
    <glyph glyph-name="comma" unicode="," horiz-adv-x="364" 
d="M141 227h176q11 0 17 -7.5t5 -17.5l-27 -165q-3 -14 -10 -29l-158 -332q-10 -18 -30 -18h-93q-10 0 -14.5 7.5t0.5 16.5l149 318h-56q-11 0 -17 7.5t-4 18.5l31 174q5 27 31 27z" />
    <glyph glyph-name="hyphen" unicode="-" horiz-adv-x="761" 
d="M217 724h585q11 0 17.5 -7.5t4.5 -17.5l-21 -117q-3 -18 -22 -18h-594q-11 0 -17 7.5t-4 17.5l19 109q5 26 32 26z" />
    <glyph glyph-name="period" unicode="." horiz-adv-x="348" 
d="M129 227h171q11 0 17 -7.5t4 -18.5l-32 -182q-3 -19 -22 -19h-179q-11 0 -17.5 7.5t-4.5 18.5l31 174q5 27 32 27z" />
    <glyph glyph-name="slash" unicode="/" horiz-adv-x="643" 
d="M704 1434h102q14 0 21 -10.5t1 -23.5l-606 -1382q-8 -18 -28 -18h-103q-14 0 -21 10.5t-1 23.5l607 1381q9 19 28 19z" />
    <glyph glyph-name="zero" unicode="0" horiz-adv-x="1343" 
d="M907 1460h31q110 0 199 -38.5t150 -116t82 -193t-5 -268.5l-48 -270q-26 -149 -87 -265.5t-145 -189t-184 -109.5t-211 -37h-31q-110 0 -199 38.5t-149.5 116t-81.5 193t5 268.5l47 271q26 149 87 265.5t145 188.5t184 109t211 37zM908 1274h-21q-149 0 -251.5 -104.5
t-137.5 -306.5l-52 -294q-36 -203 28.5 -306.5t214.5 -103.5h20q149 0 251 104.5t138 307.5l52 294q35 203 -29 306t-213 103z" />
    <glyph glyph-name="one" unicode="1" horiz-adv-x="847" 
d="M670 1434h97q11 0 17.5 -8t4.5 -18l-216 -1222h220q11 0 17.5 -8t4.5 -18l-25 -141q-3 -19 -22 -19h-680q-11 0 -17.5 8t-4.5 18l25 141q3 19 23 19h247l180 1017l-249 -87q-13 -4 -22 3.5t-7 20.5l23 136q6 34 37 43l317 110q17 5 30 5z" />
    <glyph glyph-name="two" unicode="2" horiz-adv-x="1120" 
d="M780 1460h16q130 0 225.5 -45.5t142 -138t24.5 -217.5l-3 -18q-12 -67 -53 -141t-108.5 -151.5t-126 -136.5t-140.5 -135l-335 -291h602q11 0 17.5 -7.5t4.5 -18.5l-25 -141q-3 -19 -22 -19h-870q-10 0 -17 7.5t-5 18.5l21 115q5 28 25 47l454 413q80 71 124.5 112.5
t104.5 105t92 117t41 101.5l1 8q19 110 -44 170t-169 60h-12q-83 0 -160 -19t-190 -62q-10 -3 -16.5 2.5t-5.5 15.5l26 147q3 21 22 27q177 74 359 74z" />
    <glyph glyph-name="three" unicode="3" horiz-adv-x="1071" 
d="M721 1460h17q132 0 229.5 -43.5t145.5 -132.5t27 -210l-5 -29q-17 -93 -83 -173.5t-177 -130.5q114 -39 162 -132.5t28 -208.5l-5 -29q-33 -185 -190 -291.5t-375 -106.5h-17q-177 0 -331 71q-29 10 -24 43l25 144q4 18 20 11q103 -44 171.5 -63.5t154.5 -19.5h13
q132 0 227.5 70.5t114.5 177.5l2 12q17 97 -42.5 165.5t-200.5 68.5h-183q-11 0 -17.5 7.5t-4.5 18.5l20 114q3 18 22 18h156q134 0 219 66.5t101 156.5l3 18q17 99 -45 160.5t-180 61.5h-13q-81 0 -157.5 -19.5t-189.5 -61.5q-10 -4 -17 2t-5 16l26 148q3 21 23 28
q175 73 355 73z" />
    <glyph glyph-name="four" unicode="4" horiz-adv-x="1253" 
d="M937 1434h234q11 0 17.5 -8t4.5 -18l-151 -857h220q11 0 17 -7.5t4 -18.5l-24 -141q-3 -19 -23 -19h-227l-61 -346q-3 -19 -22 -19h-167q-11 0 -17.5 7.5t-4.5 18.5l60 339h-645q-10 0 -17 7.5t-5 18.5l21 124q3 21 16 37l729 862q17 20 41 20zM383 551h447l119 661z" />
    <glyph glyph-name="five" unicode="5" horiz-adv-x="1081" 
d="M426 1434h712q11 0 17 -8t4 -18l-25 -142q-3 -18 -22 -18h-536l-78 -408q143 31 218 31q142 0 233 -57t123 -154.5t9 -226.5l-5 -26q-34 -196 -194.5 -315t-387.5 -119h-16q-182 0 -336 71q-28 9 -23 43l25 144q4 18 20 11q103 -44 173 -63.5t156 -19.5h13
q141 0 238.5 76.5t118.5 195.5l2 11q22 127 -43 198.5t-211 71.5q-27 0 -55.5 -2.5t-62.5 -9t-55 -10.5t-61 -13t-53 -12q-16 -3 -28 8l-13 12q-14 13 -11 31l122 691q5 27 32 27z" />
    <glyph glyph-name="six" unicode="6" horiz-adv-x="1198" 
d="M932 1460h16q149 0 293 -71q28 -11 23 -42l-25 -138q-1 -10 -10 -14.5t-19 0.5q-92 45 -146 62t-128 17h-10q-67 0 -128 -24.5t-120.5 -79t-109 -153.5t-83.5 -236q73 43 169.5 71t185.5 28q201 0 298 -116t62 -313l-5 -27q-34 -191 -183 -321t-367 -130h-16
q-107 0 -191 38.5t-140 116.5t-73 196.5t10 277.5l5 31q68 383 246.5 605t445.5 222zM772 721q-134 0 -314 -92l-19 -98q-32 -179 25.5 -275.5t185.5 -96.5h11q130 0 215 84t107 210l2 10q22 124 -34.5 191t-178.5 67z" />
    <glyph glyph-name="seven" unicode="7" horiz-adv-x="1069" 
d="M342 1434h893q10 0 16.5 -7.5t4.5 -18.5l-18 -113q-4 -26 -22 -47l-530 -598q-18 -21 -23 -50l-105 -581q-3 -19 -22 -19h-168q-10 0 -16.5 7.5t-4.5 18.5l109 630q4 28 25 52l489 540h-662q-11 0 -17.5 7.5t-4.5 17.5l24 134q5 27 32 27z" />
    <glyph glyph-name="eight" unicode="8" horiz-adv-x="1202" 
d="M841 1460h23q203 0 319 -106.5t85 -284.5l-5 -29q-17 -92 -83.5 -172t-178.5 -128q79 -27 128 -82t64.5 -121t2.5 -139l-5 -29q-32 -184 -191 -290t-382 -106h-29q-223 0 -349.5 113t-94.5 298l5 29q20 114 98.5 205t217.5 135q-89 43 -130.5 127t-25.5 175l5 29
q21 119 97 205t186 128.5t243 42.5zM839 1276h-23q-116 0 -197.5 -62t-98.5 -160l-3 -19q-15 -88 36.5 -154t172.5 -66h32q124 0 201 67t92 155l4 18q17 98 -41.5 159.5t-174.5 61.5zM747 653h-59q-143 0 -223.5 -70.5t-97.5 -168.5l-2 -12q-19 -107 46.5 -175t199.5 -68h36
q134 0 224 69t109 176l2 12q4 35 3 68.5t-17.5 64t-42.5 54t-72 37t-106 13.5z" />
    <glyph glyph-name="nine" unicode="9" horiz-adv-x="1198" 
d="M806 1460h15q107 0 191 -38.5t140.5 -116.5t73 -196t-9.5 -277l-6 -31q-45 -252 -136.5 -435.5t-233.5 -288t-321 -104.5h-16q-149 0 -293 71q-28 11 -23 42l24 138q1 10 10.5 15t19.5 0q93 -46 146.5 -63t127.5 -17h10q67 0 128 24.5t120.5 79t109 153.5t83.5 236
q-73 -43 -169.5 -71t-185.5 -28q-201 0 -298.5 116t-62.5 313l5 27q34 191 183.5 321t367.5 130zM801 1274h-12q-130 0 -215 -84t-107 -210l-2 -10q-22 -124 34.5 -191t178.5 -67q135 0 315 92l18 98q32 179 -25 275.5t-185 96.5z" />
    <glyph glyph-name="colon" unicode=":" horiz-adv-x="348" 
d="M254 935h170q11 0 17.5 -7.5t4.5 -17.5l-32 -183q-3 -19 -22 -19h-179q-11 0 -17.5 8t-4.5 18l31 175q5 26 32 26zM129 227h171q11 0 17 -7.5t4 -18.5l-32 -182q-3 -19 -22 -19h-179q-11 0 -17.5 7.5t-4.5 18.5l31 174q5 27 32 27z" />
    <glyph glyph-name="semicolon" unicode=";" horiz-adv-x="364" 
d="M270 935h171q11 0 17 -7t4 -18l-32 -183q-3 -19 -22 -19h-179q-11 0 -17 7.5t-4 18.5l30 175q5 26 32 26zM141 227h176q11 0 17 -7.5t5 -17.5l-27 -165q-3 -14 -10 -29l-158 -332q-10 -18 -30 -18h-93q-10 0 -14.5 7.5t0.5 16.5l149 318h-56q-11 0 -17 7.5t-4 18.5
l31 174q5 27 31 27z" />
    <glyph glyph-name="less" unicode="&#x3c;" 
d="M205 675l957 314q9 3 15.5 -2.5t5.5 -15.5l-24 -138q-3 -17 -20 -22l-722 -227l632 -223q25 -8 20 -34l-23 -138q-4 -16 -19 -11l-845 314q-30 11 -25 43l17 104q5 28 31 36z" />
    <glyph glyph-name="equal" unicode="=" 
d="M210 684h896q11 0 17.5 -7.5t4.5 -18.5l-13 -75v-1q-5 -27 -32 -27h-897q-11 0 -17.5 8t-4.5 18l14 76q5 27 32 27z" />
    <glyph glyph-name="greater" unicode="&#x3e;" 
d="M211 847l22 127q1 10 9 14t17 1l843 -313q27 -10 22 -38l-18 -108q-5 -28 -31 -36l-957 -314q-9 -3 -15.5 2.5t-5.5 15.5l23 135q3 20 23 25l720 226l-627 223q-13 4 -20 15t-5 25z" />
    <glyph glyph-name="question" unicode="?" horiz-adv-x="1026" 
d="M686 1460h16q229 0 353.5 -115.5t92.5 -298.5l-5 -27q-29 -166 -155 -273.5t-311 -107.5q-51 0 -119 12l-45 -194q-5 -17 -21 -17h-111q-10 0 -16.5 7t-4.5 18l38 270q2 14 12 23l33 26q11 9 28 7q93 -11 119 -11q144 0 231 68.5t105 170.5l2 11q20 112 -50.5 178.5
t-213.5 66.5h-13q-84 0 -159.5 -19t-183.5 -60q-13 -4 -22.5 3.5t-7.5 21.5l25 139q3 22 22 28q174 73 361 73zM310 227h171q11 0 17 -7.5t4 -18.5l-32 -182q-3 -19 -22 -19h-179q-11 0 -17 7.5t-4 18.5l30 174q5 27 32 27z" />
    <glyph glyph-name="at" unicode="@" horiz-adv-x="1972" 
d="M991 1405l566 -1q128 0 229.5 -38.5t170.5 -115.5t94 -192.5t-1 -268.5l-92 -522q-51 -294 -342 -294h-98q-45 0 -90 14t-83 53t-40 95q-170 -162 -352 -162h-7q-181 0 -258 125.5t-41 332.5l29 164q39 221 171 338.5t329 117.5h17q102 0 208.5 -33.5t185.5 -80.5
q27 -16 22 -51l-105 -624q-12 -68 11.5 -95.5t62.5 -27.5h44q39 0 73 28.5t46 96.5l96 545q36 204 -44.5 307t-265.5 103h-557q-185 0 -302.5 -104t-153.5 -308l-103 -585q-36 -204 44.5 -306.5t265.5 -102.5h676q11 0 17.5 -8t4.5 -18l-25 -142q-3 -18 -22 -18h-682
q-128 0 -229.5 38.5t-170.5 116t-94 193t1 268.5l99 561q26 150 91 266t157.5 188.5t205 109.5t241.5 37zM1169 888h-9q-109 0 -183 -74.5t-98 -214.5l-31 -173q-50 -287 173 -287h7q128 0 267 119l100 558q-115 72 -226 72z" />
    <glyph glyph-name="A" unicode="A" horiz-adv-x="1304" 
d="M772 1434h261q25 0 28 -25l181 -1385q2 -12 -4.5 -18t-15.5 -6h-168q-10 0 -17 7t-8 15l-53 376h-505l-187 -379q-9 -19 -29 -19h-171q-11 0 -16 7.5t-1 17.5l672 1387q11 22 33 22zM869 1257l-228 -492l-90 -181h410l-23 181l-58 492h-11z" />
    <glyph glyph-name="B" unicode="B" horiz-adv-x="1234" 
d="M436 1434h472q220 0 324 -92.5t71 -278.5l-4 -24q-17 -97 -80.5 -174.5t-171.5 -125.5q112 -39 157.5 -130.5t23.5 -213.5l-4 -27q-65 -368 -515 -368h-528q-11 0 -17.5 7.5t-4.5 18.5l243 1379q2 13 11.5 21t22.5 8zM587 1248l-77 -437h270q135 0 211.5 61.5t93.5 157.5
l1 7q19 104 -31.5 157.5t-185.5 53.5h-282zM482 653l-83 -467h321q253 0 293 221l2 10q19 106 -33.5 171t-194.5 65h-305z" />
    <glyph glyph-name="C" unicode="C" horiz-adv-x="1181" 
d="M978 1460h26q174 0 317 -76q24 -11 19 -39l-23 -134q-1 -10 -10 -14.5t-19 0.5q-79 40 -144 58.5t-147 18.5h-12q-117 0 -218.5 -51.5t-176.5 -157.5t-101 -252l-34 -195q-38 -217 57 -338t275 -121h12q83 0 154.5 19t165.5 60q10 4 17.5 -1.5t5.5 -16.5l-23 -133
q-5 -28 -30 -39q-164 -75 -335 -75h-25q-94 0 -177.5 27t-150.5 79.5t-110.5 131t-58.5 181.5t7 230l35 205q26 151 95.5 273t165.5 199.5t210 119t233 41.5z" />
    <glyph glyph-name="D" unicode="D" horiz-adv-x="1343" 
d="M434 1434h467q118 0 212.5 -38.5t159.5 -116t87.5 -194.5t-3.5 -275l-35 -201q-27 -154 -90.5 -272t-152 -191t-194 -109.5t-224.5 -36.5h-480q-11 0 -17.5 8t-4.5 18l244 1381q5 27 31 27zM1110 622l34 191q39 219 -38.5 327t-254.5 108h-264l-188 -1062h263
q177 0 293 108.5t155 327.5z" />
    <glyph glyph-name="E" unicode="E" horiz-adv-x="1124" 
d="M512 827h604q11 0 17.5 -8t4.5 -18l-25 -141q-3 -19 -22 -19h-611l-81 -455h655q11 0 17.5 -8t4.5 -18l-25 -141q-3 -19 -22 -19h-848q-11 0 -17.5 7.5t-4.5 18.5l244 1381q5 27 31 27h840q11 0 17.5 -7.5t4.5 -18.5l-25 -142q-3 -18 -22 -18h-662z" />
    <glyph glyph-name="F" unicode="F" horiz-adv-x="1124" 
d="M434 1434h840q11 0 17.5 -8t4.5 -18l-25 -142q-3 -18 -22 -18h-662l-76 -432h603q11 0 17.5 -8t4.5 -18l-25 -141q-3 -19 -22 -19h-611l-108 -611q-3 -19 -22 -19h-167q-11 0 -17.5 8t-4.5 18l244 1381q5 27 31 27z" />
    <glyph glyph-name="G" unicode="G" horiz-adv-x="1310" 
d="M1003 1460h25q175 0 318 -77q24 -11 19 -39l-24 -133q-2 -11 -10 -15t-18 0q-89 43 -149 60.5t-142 17.5h-12q-121 0 -228.5 -51.5t-187 -158t-105.5 -251.5l-34 -195q-39 -219 53 -339t277 -120h12q93 0 194 43l87 490q5 26 32 26h159q10 0 16.5 -7t4.5 -18l-100 -574
q-5 -29 -32 -46q-73 -43 -178 -71.5t-208 -28.5h-27q-97 0 -184 27.5t-156 81t-114 132.5t-60 181t7 226l36 206q21 122 73 225.5t123 177.5t158.5 126.5t182.5 78t192 25.5z" />
    <glyph glyph-name="H" unicode="H" horiz-adv-x="1390" 
d="M1303 1434h159q11 0 17 -7.5t4 -18.5l-244 -1389q-3 -19 -23 -19h-167q-11 0 -17 8t-4 18l108 615h-656l-110 -622q-3 -19 -22 -19h-167q-11 0 -17.5 7.5t-4.5 18.5l244 1381q5 27 32 27h158q11 0 17.5 -7.5t4.5 -18.5l-103 -581h657l102 580q5 27 32 27z" />
    <glyph glyph-name="I" unicode="I" horiz-adv-x="520" 
d="M434 1434h159q11 0 17.5 -7.5t4.5 -18.5l-245 -1389q-3 -19 -22 -19h-167q-11 0 -17.5 8t-4.5 18l244 1381q5 27 31 27z" />
    <glyph glyph-name="J" unicode="J" horiz-adv-x="800" 
d="M711 1434h163q11 0 17.5 -7.5t4.5 -18.5l-181 -1027q-38 -213 -151 -310.5t-274 -97.5h-10q-96 0 -194 49q-18 8 -15 28l25 140q1 10 10 15t19 0q79 -46 144 -46h8q85 0 143 55.5t79 173.5l180 1019q5 27 32 27z" />
    <glyph glyph-name="K" unicode="K" horiz-adv-x="1277" 
d="M872 727l345 -705q4 -8 -1 -15t-14 -7h-184q-30 0 -41 27l-305 601h-195l-107 -609q-3 -19 -22 -19h-167q-11 0 -17.5 8t-4.5 18l244 1381q5 27 31 27h159q11 0 17.5 -8t4.5 -18l-105 -594h187l500 603q12 17 33 17h185q12 0 16.5 -9.5t-2.5 -19.5z" />
    <glyph glyph-name="L" unicode="L" horiz-adv-x="1058" 
d="M399 186h604q11 0 17.5 -8t4.5 -18l-25 -144q-3 -16 -20 -16h-799q-11 0 -17.5 8t-4.5 18l244 1381q5 27 31 27h159q11 0 17.5 -8t4.5 -18z" />
    <glyph glyph-name="M" unicode="M" horiz-adv-x="1679" 
d="M1532 1434h217q12 0 19 -8.5t5 -20.5l-245 -1389q-3 -16 -19 -16h-170q-13 0 -20 8.5t-5 21.5l133 732l96 372h-24l-262 -372l-273 -362q-9 -12 -26 -12h-96q-24 0 -30 21l-140 353l-134 372h-20l-45 -373l-126 -742q-3 -19 -22 -19h-172q-11 0 -17 7.5t-4 18.5l243 1381
q5 27 32 27l207 -1q26 0 32 -23l280 -749h9l551 759q9 14 26 14z" />
    <glyph glyph-name="N" unicode="N" horiz-adv-x="1390" 
d="M1301 1434h169q11 0 17.5 -7.5t4.5 -18.5l-245 -1389q-3 -19 -23 -19h-192q-23 0 -31 21l-277 666l-170 420h-18l-56 -420l-118 -671q-3 -16 -19 -16h-170q-11 0 -17 8t-4 18l243 1381q5 27 32 27h185q22 0 30 -22l245 -596l203 -490h18l68 489l105 602q3 17 20 17z" />
    <glyph glyph-name="O" unicode="O" horiz-adv-x="1402" 
d="M937 1460h31q114 0 207.5 -38.5t159.5 -116t89.5 -193t-1.5 -268.5l-47 -270q-26 -149 -90.5 -265.5t-153 -189t-193.5 -109.5t-220 -37h-31q-114 0 -207.5 38.5t-159.5 116t-89.5 193t1.5 268.5l47 271q26 149 90 265.5t153 188.5t194 109t220 37zM937 1274h-20
q-159 0 -271.5 -105t-147.5 -306l-52 -294q-36 -201 38.5 -305.5t233.5 -104.5h21q159 0 271 105.5t148 306.5l52 294q35 201 -39.5 305t-233.5 104z" />
    <glyph glyph-name="P" unicode="P" horiz-adv-x="1275" 
d="M434 1434h453q242 0 357.5 -113.5t78.5 -325.5l-6 -33q-38 -216 -192.5 -333t-398.5 -117h-269l-87 -493q-3 -19 -22 -19h-167q-11 0 -17.5 8t-4.5 18l244 1381q5 27 31 27zM1097 967l4 22q22 128 -42.5 193.5t-232.5 65.5h-243l-99 -558h240q167 0 258.5 73.5
t114.5 203.5z" />
    <glyph glyph-name="Q" unicode="Q" horiz-adv-x="1402" 
d="M937 1460h31q114 0 207.5 -38.5t159.5 -116t89.5 -193t-1.5 -268.5l-47 -270q-58 -332 -294 -492l164 -195q14 -15 -2 -29l-120 -104q-16 -14 -30 2l-201 240q-87 -23 -174 -23h-31q-114 0 -207.5 38.5t-159.5 116t-89.5 193t1.5 268.5l47 271q26 149 90 265.5t153 188.5
t194 109t220 37zM1158 571l52 294q35 201 -39.5 305t-233.5 104h-20q-159 0 -271.5 -105t-147.5 -306l-52 -294q-36 -201 38.5 -305.5t233.5 -104.5h21q159 0 271 105.5t148 306.5z" />
    <glyph glyph-name="R" unicode="R" horiz-adv-x="1284" 
d="M434 1434h471q242 0 352.5 -105.5t74.5 -308.5l-4 -27q-27 -152 -122 -257t-255 -146l101 -204l171 -364q4 -8 -1 -15t-14 -7h-183q-29 0 -40 27l-247 532h-273l-95 -541q-3 -19 -23 -19h-166q-11 0 -17.5 7.5t-4.5 18.5l244 1382q5 27 31 27zM587 1248l-92 -517h255
q162 0 251 72t109 189l2 12q21 122 -38.5 183t-224.5 61h-262z" />
    <glyph glyph-name="S" unicode="S" horiz-adv-x="1122" 
d="M581 643l82 -28q25 -9 42.5 -15.5t38.5 -15.5t35.5 -16.5t30.5 -17.5t26 -20t20.5 -22t15.5 -25.5t9 -29.5t3.5 -34t-4.5 -39l-1 -7q-18 -100 -104.5 -158.5t-211.5 -58.5h-13q-87 0 -156.5 20.5t-197.5 75.5q-11 4 -20.5 -1t-11.5 -16l-24 -138q-5 -30 21 -41
q174 -85 366 -85h18q133 0 248.5 46t198 139.5t104.5 219.5l4 18q6 47 8 86t-8.5 73.5t-23 62t-37 53t-49.5 45t-60.5 38.5t-70.5 34t-79 31l-84 30q-119 42 -167 88t-34 123l1 8q17 97 101 152t190 55h12q83 0 153 -19t167 -61q10 -4 19 0.5t11 15.5l25 137q5 33 -24 43
q-151 69 -327 69h-16q-87 0 -172.5 -25.5t-159 -73.5t-125.5 -124.5t-69 -170.5l-4 -23q-26 -150 52 -243t252 -155z" />
    <glyph glyph-name="T" unicode="T" horiz-adv-x="1218" 
d="M342 1434h1042q11 0 17 -7.5t4 -18.5l-25 -142q-3 -18 -22 -18h-423l-216 -1229q-3 -19 -23 -19h-166q-11 0 -17.5 7.5t-4.5 18.5l215 1222h-415q-11 0 -17.5 7.5t-4.5 17.5l24 134q5 27 32 27z" />
    <glyph glyph-name="U" unicode="U" horiz-adv-x="1378" 
d="M1294 1434h163q11 0 17.5 -8t4.5 -18l-157 -892q-32 -183 -122.5 -307t-214 -180t-275.5 -56h-31q-113 0 -202 34.5t-150 104t-81.5 174.5t2.5 246l155 875q5 27 31 27h163q11 0 17.5 -8t4.5 -18l-157 -887q-32 -179 32.5 -270.5t214.5 -91.5h21q150 0 247.5 92.5
t129.5 271.5l156 884q5 27 31 27z" />
    <glyph glyph-name="V" unicode="V" horiz-adv-x="1253" 
d="M1260 1434h168q9 0 13.5 -7t0.5 -15l-649 -1393q-8 -19 -30 -19h-269q-21 0 -23 21l-158 1384q-1 12 6.5 20.5t19.5 8.5h155q14 0 23 -9t10 -22l93 -772l33 -454h9l191 454l368 777q11 26 39 26z" />
    <glyph glyph-name="W" unicode="W" horiz-adv-x="2041" 
d="M2047 1434h169q9 0 13.5 -7t0.5 -15l-618 -1392q-8 -20 -30 -20h-240q-22 0 -24 22l-46 510l-39 626h-13l-258 -626l-229 -512q-8 -20 -29 -20h-242q-21 0 -23 21l-126 1384q-1 12 6.5 20.5t19.5 8.5h156q14 0 23.5 -9t10.5 -22l52 -612l36 -598h11l244 598l275 624
q8 19 28 19h183q14 0 23 -9t10 -22l53 -612l36 -598h11l244 598l272 616q12 27 40 27z" />
    <glyph glyph-name="X" unicode="X" horiz-adv-x="1273" 
d="M1248 1434h180q12 0 16.5 -9t-2.5 -19l-524 -676l294 -709q3 -8 -1 -14.5t-13 -6.5h-183q-29 0 -39 27l-171 394l-54 181h-12l-115 -182l-316 -399q-15 -21 -42 -21h-183q-12 0 -16.5 9t2.5 19l544 702l-284 683q-3 8 1 14.5t13 6.5h180q30 0 40 -28l161 -369l57 -180h11
l115 180l299 376q15 21 42 21z" />
    <glyph glyph-name="Y" unicode="Y" horiz-adv-x="1275" 
d="M1269 1434h181q11 0 15.5 -9t-1.5 -18l-633 -926l-84 -462q-3 -19 -22 -19h-167q-11 0 -17.5 7.5t-4.5 18.5l83 455l-305 923q-4 12 2 21t19 9h172q23 0 30 -23l165 -481l52 -246h6l134 246l340 485q13 19 35 19z" />
    <glyph glyph-name="Z" unicode="Z" horiz-adv-x="1138" 
d="M383 186h675q11 0 17.5 -8t4.5 -18l-25 -141q-3 -19 -22 -19h-920q-10 0 -16.5 7t-4.5 18l19 118q3 23 17 40l869 1065h-638q-11 0 -17 7.5t-4 17.5l23 134q5 27 32 27h874q10 0 17 -7.5t5 -18.5l-19 -117q-3 -22 -18 -40z" />
    <glyph glyph-name="bracketleft" unicode="[" horiz-adv-x="677" 
d="M434 1434h408q11 0 17.5 -7.5t4.5 -18.5l-21 -116q-3 -19 -22 -19h-230l-242 -1372h223q11 0 17 -8t4 -18l-20 -116q-3 -19 -23 -19h-415q-11 0 -17.5 7.5t-4.5 18.5l290 1641q5 27 31 27z" />
    <glyph glyph-name="backslash" unicode="\" horiz-adv-x="643" 
d="M333 1434h111q18 0 20 -19l121 -1392q1 -10 -5 -16.5t-16 -6.5h-112q-19 0 -21 18l-119 1392q-1 10 5 17t16 7z" />
    <glyph glyph-name="bracketright" unicode="]" horiz-adv-x="677" 
d="M342 1434h407q11 0 17.5 -8t4.5 -18l-291 -1649q-3 -19 -22 -19h-416q-11 0 -17 7.5t-4 18.5l20 116q3 19 22 19h230l242 1372h-223q-11 0 -17 8t-4 18l19 108q5 27 32 27z" />
    <glyph glyph-name="asciicircum" unicode="^" horiz-adv-x="768" 
d="M581 1447h113q11 0 19.5 -7t9.5 -18l116 -668q2 -9 -3.5 -16t-15.5 -7h-123q-16 0 -26 10.5t-10 26.5l-53 471h-8l-224 -483q-8 -25 -35 -25h-125q-14 0 -20 10t0 22l349 662q11 22 36 22z" />
    <glyph glyph-name="underscore" unicode="_" 
d="M77 -68h897q11 0 17.5 -8t4.5 -18l-21 -116q-3 -19 -22 -19h-905q-11 0 -17.5 7.5t-4.5 18.5l19 108q5 27 32 27z" />
    <glyph glyph-name="grave" unicode="`" horiz-adv-x="462" 
d="M418 1937h131q28 0 36 -27l93 -311q2 -7 -1.5 -11.5t-10.5 -4.5h-99q-24 0 -34 21l-128 314q-3 8 1 13.5t12 5.5z" />
    <glyph glyph-name="a" unicode="a" horiz-adv-x="1099" 
d="M650 1051h7q82 0 158 -42t129 -115l32 111q8 19 28 19h136q11 0 17 -8t4 -18l-172 -979q-3 -19 -23 -19h-139q-9 0 -15 6t-6 15l12 98q-78 -71 -166 -108.5t-172 -37.5h-7q-181 0 -258 125.5t-41 332.5l31 177q36 207 150 325t295 118zM689 885h-7q-111 0 -181 -73.5
t-95 -215.5l-30 -170q-50 -287 172 -287h8q128 0 267 119l91 509q-97 118 -225 118z" />
    <glyph glyph-name="b" unicode="b" horiz-adv-x="1107" 
d="M407 1509h150q11 0 17 -7t4 -18l-100 -566q72 64 155.5 98.5t163.5 34.5h15q182 0 260.5 -122.5t42.5 -328.5l-30 -171q-39 -220 -175 -338t-334 -118h-17q-103 0 -210 34t-186 82q-25 16 -20 46l232 1347q5 27 32 27zM731 885h-7q-129 0 -268 -119l-99 -558
q115 -72 225 -72h10q110 0 187.5 75t101.5 214l31 173q25 141 -22 214t-159 73z" />
    <glyph glyph-name="c" unicode="c" horiz-adv-x="974" 
d="M739 1051h23q125 0 262 -72q26 -11 21 -40l-20 -112q-2 -10 -11 -14.5t-19 0.5q-71 38 -122.5 55t-106.5 17h-14q-127 0 -223.5 -82.5t-122.5 -231.5l-21 -120q-26 -149 39.5 -230.5t193.5 -81.5h15q55 0 112.5 17.5t144.5 56.5q10 4 17.5 -2t5.5 -17l-20 -113
q-5 -27 -28 -36q-157 -72 -280 -72h-23q-203 0 -312 131t-71 352l21 127q25 145 103 252t190.5 161.5t245.5 54.5z" />
    <glyph glyph-name="d" unicode="d" horiz-adv-x="1107" 
d="M1083 1509h151q11 0 17 -7t4 -18l-258 -1465q-3 -19 -22 -19h-140q-9 0 -15 6t-6 15l12 91q-72 -67 -158.5 -103t-171.5 -36h-15q-183 0 -263 126t-44 332l29 164q39 221 165.5 338.5t308.5 117.5h15q72 0 141 -32.5t116 -92.5l103 557q5 26 31 26zM702 885h-7
q-114 0 -187 -74t-98 -215l-30 -170q-25 -141 21.5 -214t159.5 -73h7q129 0 268 119l90 507q-99 120 -224 120z" />
    <glyph glyph-name="e" unicode="e" horiz-adv-x="1069" 
d="M722 1051h22q188 0 280.5 -121t53.5 -341l-15 -89q-3 -21 -24 -21h-648l-12 -71q-23 -129 45 -200.5t196 -71.5h9q114 0 316 78q10 4 16.5 -2t5.5 -16l-20 -114q-5 -28 -30 -37q-79 -32 -170.5 -52t-165.5 -20h-18q-208 0 -316.5 126.5t-71.5 337.5l24 134
q26 150 104 260t186 165t233 55zM717 898h-12q-107 0 -186.5 -79t-106.5 -216l478 1q28 149 -15 221.5t-158 72.5z" />
    <glyph glyph-name="f" unicode="f" horiz-adv-x="763" 
d="M960 1499q25 -12 20 -40l-18 -103q-1 -10 -9 -14t-18 -1q-83 32 -135 32h-10q-65 0 -118 -45t-70 -138l-29 -166h242q11 0 17 -8t4 -18l-20 -116q-3 -19 -23 -19h-248l-209 -1186q-3 -19 -23 -19h-157q-11 0 -17.5 7.5t-4.5 18.5l208 1179h-122q-11 0 -17.5 8t-4.5 18
l19 108q5 27 32 27h121l37 209q26 148 123 225.5t238 77.5h18q91 0 174 -37z" />
    <glyph glyph-name="g" unicode="g" horiz-adv-x="1097" 
d="M702 1051h18q103 0 209.5 -33.5t186.5 -82.5q25 -16 20 -46l-144 -848q-32 -191 -165.5 -300.5t-332.5 -109.5h-10q-156 0 -328 67q-28 10 -23 38l20 114q2 10 10 14.5t18 0.5q155 -74 278 -74h9q140 0 218 63.5t101 194.5l16 91q-154 -132 -310 -132h-15
q-182 0 -257.5 124t-39.5 333l22 131q38 221 170.5 338t328.5 117zM697 888h-9q-110 0 -182.5 -73.5t-97.5 -213.5l-25 -142q-50 -286 172 -286h7q128 0 267 119l94 524q-115 72 -226 72z" />
    <glyph glyph-name="h" unicode="h" horiz-adv-x="1103" 
d="M411 1509h149q11 0 17.5 -7.5t4.5 -18.5l-105 -568q181 136 345 136h17q161 0 234 -96t43 -265l-118 -671q-3 -19 -22 -19h-158q-11 0 -17.5 8t-4.5 18l112 633q20 113 -18.5 169.5t-146.5 56.5h-7q-122 0 -278 -111l-134 -755q-3 -19 -22 -19h-158q-11 0 -17.5 8
t-4.5 18l257 1457q5 26 32 26z" />
    <glyph glyph-name="i" unicode="i" horiz-adv-x="448" 
d="M392 1402h164q11 0 17 -8t4 -18l-28 -161q-5 -26 -32 -26h-164q-11 0 -17.5 7.5t-4.5 17.5l29 161q5 27 32 27zM333 1024h149q11 0 17.5 -7.5t4.5 -18.5l-173 -979q-3 -19 -22 -19h-158q-11 0 -17.5 8t-4.5 18l172 971q5 27 32 27z" />
    <glyph glyph-name="j" unicode="j" horiz-adv-x="587" 
d="M531 1402h164q11 0 17.5 -7.5t4.5 -18.5l-29 -161q-5 -26 -31 -26h-165q-11 0 -17 7.5t-4 17.5l28 161q5 27 32 27zM472 1024h149q11 0 17 -8t4 -18l-194 -1102q-23 -131 -100.5 -198t-187.5 -67h-18q-70 0 -138 28q-20 8 -17 31l19 104q2 9 9 13.5t16 1.5q46 -18 86 -18
h9q101 0 121 114l193 1092q5 27 32 27z" />
    <glyph glyph-name="k" unicode="k" horiz-adv-x="1026" 
d="M411 1509h150q11 0 17 -7.5t4 -17.5l-154 -878h146l324 401q12 17 33 17h171q12 0 16.5 -9t-2.5 -19l-374 -464l246 -510q4 -8 -1 -15t-14 -7h-175q-29 0 -40 27l-208 418h-151l-75 -426q-3 -19 -22 -19h-158q-11 0 -17.5 8t-4.5 18l257 1457q5 26 32 26z" />
    <glyph glyph-name="l" unicode="l" horiz-adv-x="430" 
d="M411 1509h150q11 0 17 -7t4 -18l-258 -1465q-3 -19 -22 -19h-158q-11 0 -17.5 8t-4.5 18l257 1457q5 26 32 26z" />
    <glyph glyph-name="m" unicode="m" horiz-adv-x="1732" 
d="M1467 1051h18q158 0 224 -95t36 -266l-118 -671q-3 -19 -22 -19h-158q-11 0 -17.5 7.5t-4.5 18.5l112 633q20 116 -12 171t-137 55h-7q-124 0 -284 -117q0 -50 -11 -110l-113 -639q-3 -19 -22 -19h-158q-11 0 -17 7.5t-4 18.5l111 633q21 116 -11 171t-137 55h-7
q-120 0 -274 -109l-134 -757q-3 -19 -22 -19h-158q-11 0 -17.5 8t-4.5 18l171 971q5 27 32 27h132q20 0 20 -21l-10 -93q186 141 351 141h17q106 0 171 -45t83 -124q205 169 382 169z" />
    <glyph glyph-name="n" unicode="n" horiz-adv-x="1091" 
d="M814 1051h17q160 0 231.5 -95.5t41.5 -265.5l-118 -671q-3 -19 -23 -19h-158q-11 0 -17 8t-4 18l112 633q20 114 -16.5 170t-144.5 56h-7q-120 0 -274 -109l-134 -757q-3 -19 -22 -19h-158q-11 0 -17.5 7.5t-4.5 18.5l171 971q5 27 32 27h132q20 0 20 -21l-10 -93
q186 141 351 141z" />
    <glyph glyph-name="o" unicode="o" horiz-adv-x="1128" 
d="M732 1051h22q196 0 306.5 -127t72.5 -344l-27 -151q-26 -145 -105 -250t-188 -155.5t-236 -50.5h-22q-196 0 -306.5 127t-72.5 344l27 151q26 145 105 250t188 155.5t236 50.5zM729 885h-15q-114 0 -197 -75.5t-107 -213.5l-30 -170q-24 -138 31.5 -212.5t169.5 -74.5h14
q114 0 197 75.5t107 213.5l30 170q24 138 -31 212.5t-169 74.5z" />
    <glyph glyph-name="p" unicode="p" horiz-adv-x="1112" 
d="M796 1051h15q182 0 262.5 -126t44.5 -332l-29 -164q-39 -220 -166 -338t-308 -118h-16q-72 0 -140.5 32t-115.5 93l-79 -422q-3 -18 -22 -18h-158q-11 0 -17.5 7.5t-4.5 18.5l231 1313q5 27 32 27h132q9 0 15 -6t6 -15l-12 -91q72 67 158.5 103t171.5 36zM731 885h-8
q-128 0 -267 -119l-90 -507q99 -120 224 -120h7q113 0 186.5 74t98.5 215l30 170q25 141 -22 214t-159 73z" />
    <glyph glyph-name="q" unicode="q" horiz-adv-x="1099" 
d="M703 1051h18q103 0 210 -34t186 -82q25 -16 20 -46l-209 -1212q-3 -19 -22 -19h-158q-11 0 -17 7.5t-4 18.5l75 422q-148 -133 -314 -133h-15q-181 0 -258 125.5t-41 332.5l29 164q39 221 171 338.5t329 117.5zM701 888h-9q-109 0 -183 -74.5t-98 -214.5l-31 -173
q-50 -287 173 -287h7q128 0 267 119l100 558q-115 72 -226 72z" />
    <glyph glyph-name="r" unicode="r" horiz-adv-x="737" 
d="M797 1051h9q11 0 49 -4q10 -1 16 -9t4 -19l-25 -146q-3 -19 -25 -17q-39 5 -74 5h-10q-141 0 -295 -130l-126 -712q-3 -19 -22 -19h-158q-11 0 -17.5 8t-4.5 18l171 971q5 27 32 27h132q9 0 15 -6t6 -15l-12 -121q79 83 166.5 126t168.5 43z" />
    <glyph glyph-name="s" unicode="s" horiz-adv-x="880" 
d="M624 1051h22q138 0 260 -61q27 -10 22 -41l-19 -105q-1 -10 -10 -14.5t-19 0.5q-140 72 -243 72h-10q-80 0 -140.5 -35.5t-71.5 -97.5l-1 -10q-5 -29 3 -51t29 -36.5t42 -24t54 -20.5q4 -1 6 -2t5.5 -2t6.5 -2l58 -20q71 -25 115.5 -48t82.5 -58.5t49.5 -87t-0.5 -120.5
l-2 -12q-25 -142 -148.5 -222t-284.5 -80h-17q-70 0 -148.5 17.5t-134.5 45.5q-26 10 -21 41l18 105q1 10 10 15t19 0q154 -75 266 -75h15q85 0 147 37.5t74 106.5l2 9q6 33 -2.5 57t-30.5 40t-44.5 26t-58.5 22h-1l-58 21q-66 23 -104.5 41.5t-85 53t-62.5 86t-4 120.5
l2 12q17 95 82 164.5t151 101t180 31.5z" />
    <glyph glyph-name="t" unicode="t" horiz-adv-x="710" 
d="M427 1249l159 36q10 2 16 -3.5t5 -15.5l-43 -242h259q11 0 17 -7.5t4 -18.5l-20 -116q-3 -19 -23 -19h-265l-104 -590q-12 -70 9.5 -102t81.5 -32h9q38 0 141 33q10 3 16.5 -2.5t5.5 -15.5l-20 -109q-3 -20 -21 -27q-112 -45 -185 -45h-17q-130 0 -190 73t-37 203
l108 614h-114q-10 0 -17 7.5t-5 18.5l16 90q3 23 26 28l122 17l34 192q5 27 32 33z" />
    <glyph glyph-name="u" unicode="u" 
d="M959 1024h158q11 0 17.5 -7.5t4.5 -18.5l-173 -979q-3 -19 -22 -19h-140q-20 0 -20 21l10 93q-186 -141 -351 -141h-17q-157 0 -222.5 95t-35.5 266l117 663q5 27 32 27h150q11 0 17.5 -7.5t4.5 -18.5l-112 -633q-20 -115 11.5 -170.5t133.5 -55.5h7q120 0 274 109
l134 757q3 19 22 19z" />
    <glyph glyph-name="v" unicode="v" horiz-adv-x="1040" 
d="M1002 1024h161q10 0 14 -7t0 -16l-520 -984q-9 -17 -28 -17h-213q-19 0 -22 19l-173 974q-2 13 6 22t21 9h146q13 0 22 -7.5t10 -20.5l73 -412l49 -412h4l189 412l223 416q11 24 38 24z" />
    <glyph glyph-name="w" unicode="w" horiz-adv-x="1603" 
d="M1565 1024h162q10 0 14 -7.5t0 -15.5l-468 -983q-7 -18 -29 -18h-191q-21 0 -23 20l-34 290l-43 504h-13l-217 -504l-139 -292q-8 -18 -29 -18h-192q-20 0 -22 20l-121 974q-1 13 6.5 21.5t20.5 8.5h158q21 0 23 -21l44 -420l25 -399h8l163 399l190 414q13 27 42 27h171
q21 0 23 -21l44 -420l26 -399h8l162 399l191 415q11 26 40 26z" />
    <glyph glyph-name="x" unicode="x" horiz-adv-x="991" 
d="M934 1024h163q12 0 16.5 -9.5t-2.5 -19.5l-383 -472l226 -501q4 -8 -0.5 -15t-13.5 -7h-168q-29 0 -39 27l-126 272l-32 112h-9l-68 -112l-228 -278q-16 -21 -42 -21h-167q-12 0 -16.5 9.5t2.5 19.5l402 494l-216 479q-4 8 0.5 15t13.5 7h164q29 0 39 -27l118 -255
l33 -112h9l67 112l215 261q16 21 42 21z" />
    <glyph glyph-name="y" unicode="y" horiz-adv-x="1044" 
d="M1006 1024h160q10 0 14.5 -7t0.5 -16l-571 -1079q-78 -147 -162 -219t-212 -72h-15q-72 0 -157 30q-26 8 -21 37l19 110q1 10 9 14t17 1q79 -29 131 -29h6q54 0 94 31t81 105l39 70h-20q-21 0 -25 21l-173 972q-2 13 6 22t21 9h146q13 0 22 -7.5t10 -20.5l85 -461
l38 -363h5l163 363l251 465q11 24 38 24z" />
    <glyph glyph-name="z" unicode="z" horiz-adv-x="894" 
d="M295 1024h682q10 0 16.5 -7t4.5 -18l-15 -97q-3 -21 -19 -39l-624 -697h495q11 0 17.5 -7.5t4.5 -18.5l-21 -121q-3 -19 -23 -19h-725q-11 0 -17 7.5t-5 17.5l15 97q3 21 19 39l624 697h-459q-11 0 -17.5 7.5t-4.5 18.5l20 113q5 27 32 27z" />
    <glyph glyph-name="braceleft" unicode="{" horiz-adv-x="772" 
d="M651 1434h286q11 0 17 -8t4 -18l-20 -116q-3 -19 -23 -19h-168q-28 0 -48 -18t-25 -46l-85 -483q-9 -51 -41.5 -88.5t-79.5 -52.5q41 -15 61 -52.5t11 -87.5l-86 -483q-5 -28 8 -44.5t41 -16.5h163q11 0 17.5 -8t4.5 -18l-21 -116q-3 -19 -22 -19h-280q-68 0 -106.5 47.5
t-26.5 115.5l97 548q9 55 -45 55h-107q-11 0 -17 8t-4 18l19 108q5 27 32 27h93q33 0 53 20t26 50l97 548q12 68 59.5 108.5t115.5 40.5z" />
    <glyph glyph-name="bar" unicode="|" horiz-adv-x="520" 
d="M434 1434h159q11 0 17.5 -7.5t4.5 -18.5l-270 -1533q-5 -27 -32 -27h-159q-11 0 -17.5 8t-4.5 18l271 1533q5 27 31 27z" />
    <glyph glyph-name="braceright" unicode="}" horiz-adv-x="772" 
d="M342 1434h271q68 0 107 -48t27 -116l-97 -549q-10 -54 44 -54h107q11 0 17.5 -7.5t4.5 -18.5l-21 -116q-3 -19 -22 -19h-101q-35 0 -54.5 -19.5t-24.5 -50.5l-97 -548q-12 -68 -59.5 -108t-115.5 -40h-286q-11 0 -17 7.5t-4 18.5l20 116q3 19 22 19h169q28 0 47.5 17.5
t24.5 45.5l85 482q9 51 41.5 88.5t79.5 52.5q-40 14 -60 52.5t-11 88.5l85 483q5 28 -8 45t-40 17h-164q-11 0 -17 8t-4 18l19 108q5 27 32 27z" />
    <glyph glyph-name="asciitilde" unicode="~" horiz-adv-x="905" 
d="M414 745q48 0 91 -16t69 -34.5t63.5 -34.5t75.5 -16q35 0 78 12.5t71.5 25t81.5 38.5q8 4 14.5 -0.5t5.5 -13.5l-13 -122q-1 -18 -18 -27q-142 -73 -225 -73q-47 0 -89.5 15.5t-69.5 34.5t-64.5 34.5t-75.5 15.5q-35 0 -77.5 -12t-71.5 -25t-81 -38q-8 -4 -15 0.5
t-6 13.5l13 122q1 17 23 29q48 24 75 36t68 23.5t77 11.5z" />
    <glyph glyph-name="exclamdown" unicode="&#xa1;" horiz-adv-x="356" 
d="M286 1092h170q11 0 17.5 -8t4.5 -18l-32 -183q-3 -19 -23 -19h-178q-11 0 -17.5 7.5t-4.5 18.5l31 175q5 27 32 27zM242 652h102q11 0 17 -7t5 -17l-138 -950q-3 -20 -22 -20h-169q-11 0 -17.5 8t-4.5 19l196 942q5 25 31 25z" />
    <glyph glyph-name="cent" unicode="&#xa2;" horiz-adv-x="974" 
d="M1024 979q26 -11 21 -40l-20 -112q-1 -10 -10.5 -14.5t-19.5 0.5q-71 38 -122.5 55t-106.5 17h-14q-127 0 -223.5 -82.5t-122.5 -231.5l-21 -120q-26 -149 39.5 -230.5t193.5 -81.5h15q55 0 112 17.5t144 56.5q10 4 18 -2t6 -17l-20 -113q-5 -27 -28 -36
q-117 -54 -220 -67l-44 -246q-3 -19 -22 -19h-108q-11 0 -17.5 7.5t-4.5 18.5l42 239q-172 23 -259 150.5t-53 327.5l21 127q34 201 165.5 324t314.5 141l41 236q5 27 32 27h101q11 0 17 -8t4 -18l-42 -240q98 -16 191 -66z" />
    <glyph glyph-name="sterling" unicode="&#xa3;" horiz-adv-x="1083" 
d="M1185 1390q27 -11 22 -42l-25 -138q-1 -10 -9.5 -14.5t-18.5 0.5q-62 31 -91.5 44t-77.5 24t-103 11h-13q-117 0 -204.5 -76t-109.5 -198l-1 -8q-17 -98 -15 -238h374q11 0 17 -7.5t4 -18.5l-13 -75q-5 -27 -32 -27h-351q-2 -56 -10 -106q-17 -100 -60.5 -178
t-120.5 -158l651 1q11 0 17.5 -7.5t4.5 -18.5l-25 -141q-3 -19 -22 -19h-838q-11 0 -17 7.5t-5 17.5l20 126q3 22 16 39q5 7 27 37t28.5 39t25 36t26 41.5t21.5 41.5t21 48.5t15.5 50t13.5 58.5q8 44 9 85h-137q-11 0 -17.5 8t-4.5 18l13 75q5 27 32 27h112q-8 166 9 263
l3 17q34 193 180 309t353 116h17q153 0 289 -70z" />
    <glyph glyph-name="currency" unicode="&#xa4;" horiz-adv-x="1263" 
d="M1311 1134l68 -79q14 -15 -2 -29l-205 -179q69 -129 41 -292q-29 -158 -138 -278l138 -158q14 -15 -2 -29l-91 -81q-18 -14 -31 2l-133 166q-138 -89 -295 -89q-160 0 -272 91l-207 -172q-16 -12 -28 2l-69 79q-14 15 2 29l205 179q-67 130 -38 290q28 154 138 277
l-141 161q-14 15 2 29l92 81q17 14 30 -2l134 -169q138 89 296 89q159 0 270 -89l207 173q16 13 29 -2zM414 569q-25 -134 50.5 -226.5t210.5 -91.5q135 0 244 93t134 228q23 133 -53 225t-209 91q-135 1 -243.5 -91t-133.5 -228z" />
    <glyph glyph-name="yen" unicode="&#xa5;" horiz-adv-x="1275" 
d="M1269 1434h181q11 0 15.5 -9t-1.5 -18l-542 -793h241q11 0 17.5 -7.5t4.5 -18.5l-13 -75q-5 -27 -32 -27h-305l-4 -5l-29 -160h310q11 0 17 -7.5t4 -18.5l-13 -75q-5 -26 -32 -26h-309l-32 -175q-3 -19 -22 -19h-167q-11 0 -17.5 7.5t-4.5 18.5l31 168h-313
q-11 0 -17 7.5t-4 17.5l13 75q5 27 32 27h312l29 160l-2 5h-311q-11 0 -17.5 7.5t-4.5 18.5l14 75q5 27 31 27h246l-261 790q-4 12 2 21t19 9h172q23 0 30 -23l165 -481l52 -246h6l134 246l340 485q13 19 35 19z" />
    <glyph glyph-name="brokenbar" unicode="&#xa6;" horiz-adv-x="520" 
d="M434 1434h159q11 0 17.5 -8t4.5 -18l-111 -627q-5 -27 -32 -27h-158q-11 0 -17.5 7.5t-4.5 18.5l111 627q5 27 31 27zM275 528h158q11 0 17.5 -8t4.5 -18l-110 -627q-5 -27 -32 -27h-159q-11 0 -17.5 8t-4.5 18l111 627q5 27 32 27z" />
    <glyph glyph-name="section" unicode="&#xa7;" horiz-adv-x="894" 
d="M678 1329h22q137 0 254 -60q27 -11 22 -42l-18 -104q-1 -10 -10 -15t-19 0q-139 72 -243 72h-11q-79 0 -135.5 -35.5t-67.5 -97.5l-2 -9q-5 -29 3.5 -51t28 -36t44 -24.5t52.5 -20.5q3 -1 5 -1.5t4.5 -1.5t5 -1.5t4.5 -1.5l63 -23q71 -25 116.5 -48.5t84 -60t51 -88.5
t0.5 -121l-3 -12q-27 -156 -180 -239q90 -74 68 -198l-2 -13q-25 -140 -138 -215t-260 -75h-21q-136 0 -255 61q-27 11 -22 41l19 105q1 10 10 14.5t19 -0.5q139 -72 243 -72h10q78 0 135 36t68 98l2 9q5 29 -3.5 51t-28 36t-44 24.5t-52.5 20.5q-13 4 -19 6l-63 22
q-39 14 -68.5 26.5t-60.5 29t-51 34t-39.5 41.5t-26 50.5t-11 61.5t5.5 75l2 13q26 153 180 238q-90 74 -68 199l2 12q25 140 138 215t260 75zM623 687l-145 51q-56 -13 -94.5 -47.5t-47.5 -86.5l-2 -9q-6 -33 2.5 -57t30.5 -40t44.5 -26t58.5 -22h1l145 -52
q56 13 94.5 47.5t47.5 86.5l2 10q6 33 -2.5 57t-30.5 40t-44.5 26t-58.5 22h-1z" />
    <glyph glyph-name="dieresis" unicode="&#xa8;" horiz-adv-x="657" 
d="M411 1825h144q11 0 17.5 -7.5t4.5 -17.5l-31 -175q-5 -27 -32 -27h-144q-11 0 -17.5 8t-4.5 18l31 175q5 26 32 26zM747 1825h144q11 0 17.5 -7.5t4.5 -17.5l-31 -175q-5 -27 -32 -27h-144q-11 0 -17.5 7.5t-4.5 18.5l31 175q5 26 32 26z" />
    <glyph glyph-name="copyright" unicode="&#xa9;" horiz-adv-x="1239" 
d="M878 1536q159 0 277.5 -77.5t169.5 -207.5t24 -283q-26 -145 -118 -268.5t-230.5 -196.5t-291.5 -73q-159 0 -277.5 77.5t-169.5 207.5t-24 283q26 145 118 268.5t230.5 196.5t291.5 73zM877 1448q-201 0 -360 -136.5t-193 -330.5q-22 -126 19 -232t137.5 -169t228.5 -63
q202 0 360.5 136.5t192.5 331.5q22 126 -18.5 231.5t-137.5 168.5t-229 63zM838 1258h10q65 0 133 -33q20 -8 16 -31l-12 -63q-2 -13 -13 -7q-72 37 -120 37h-8q-62 0 -109.5 -41t-59.5 -113l-11 -61q-12 -71 20 -111.5t94 -40.5h8q46 0 129 36q7 3 12 -0.5t3 -10.5l-11 -67
q-3 -12 -16 -19q-77 -35 -141 -35h-10q-104 0 -164.5 67.5t-39.5 186.5l11 67q21 118 98 178.5t181 60.5z" />
    <glyph glyph-name="guillemotleft" unicode="&#xab;" horiz-adv-x="866" 
d="M456 857h102q17 0 23 -13.5t-4 -26.5l-251 -280l152 -290q4 -11 -2 -20t-18 -9h-105q-19 0 -30 17l-161 248q-10 16 -8 34l5 41q1 16 15 31l257 257q11 11 25 11zM815 857h102q17 0 23 -13.5t-4 -26.5l-250 -280l151 -290q5 -11 -1 -20t-18 -9h-105q-20 0 -31 17
l-161 248q-9 14 -7 34l4 41q1 16 15 31l257 257q11 11 25 11z" />
    <glyph glyph-name="logicalnot" unicode="&#xac;" 
d="M217 724h897q11 0 17 -7.5t4 -17.5l-59 -335q-5 -27 -32 -27h-113q-11 0 -17.5 7.5t-4.5 17.5l36 202h-758q-11 0 -17 7.5t-4 17.5l19 109q5 26 32 26z" />
    <glyph glyph-name="registered" unicode="&#xae;" horiz-adv-x="1239" 
d="M878 1536q159 0 277.5 -77.5t169.5 -207.5t24 -283q-26 -145 -118 -268.5t-230.5 -196.5t-291.5 -73q-159 0 -277.5 77.5t-169.5 207.5t-24 283q26 145 118 268.5t230.5 196.5t291.5 73zM877 1448q-201 0 -360 -136.5t-193 -330.5q-22 -126 19 -232t137.5 -169t228.5 -63
q202 0 360.5 136.5t192.5 331.5q22 126 -18.5 231.5t-137.5 168.5t-229 63zM654 1255h211q98 0 142.5 -50t30.5 -130l-2 -10q-9 -56 -45.5 -94.5t-98.5 -51.5l22 -46l77 -156q3 -8 -1 -14.5t-13 -6.5h-77q-25 0 -35 23l-89 186h-95l-33 -189q-3 -20 -25 -20h-69
q-11 0 -17 7.5t-4 18.5l89 506q5 27 32 27zM726 1160l-30 -170h108q50 0 79.5 23t35.5 59l2 10q6 36 -14.5 57t-71.5 21h-109z" />
    <glyph glyph-name="macron" unicode="&#xaf;" horiz-adv-x="653" 
d="M397 1747h477q11 0 17.5 -7.5t4.5 -18.5l-17 -96q-5 -27 -32 -27h-477q-11 0 -17.5 7.5t-4.5 18.5l17 96q5 27 32 27z" />
    <glyph glyph-name="degree" unicode="&#xb0;" horiz-adv-x="634" 
d="M575 1536q112 0 176.5 -78t44.5 -189q-17 -99 -99 -168t-185 -70q-111 0 -176 78.5t-45 189.5q17 99 99.5 168t184.5 69zM569 1420q-59 0 -106.5 -40t-58.5 -98q-10 -57 22.5 -95.5t90.5 -38.5q60 0 107.5 40t58.5 98q10 57 -22.5 96t-91.5 38z" />
    <glyph glyph-name="plusminus" unicode="&#xb1;" horiz-adv-x="1075" 
d="M664 1024h110q11 0 17.5 -7.5t4.5 -18.5l-44 -247h367q11 0 17.5 -7.5t4.5 -17.5l-19 -109q-5 -26 -32 -26h-367l-43 -246q-5 -27 -32 -27h-111q-11 0 -17 7.5t-4 18.5l43 247h-367q-11 0 -17 7t-4 18l19 109q5 26 31 26h367l44 246q5 27 32 27zM129 226h898q11 0 17 -8
t4 -18l-13 -75q-5 -27 -32 -27h-898q-11 0 -17 8t-4 18l13 75q5 27 32 27z" />
    <glyph glyph-name="acute" unicode="&#xb4;" horiz-adv-x="462" 
d="M587 1937h135q11 0 15 -8.5t-3 -16.5l-239 -314q-12 -15 -33 -15h-103q-10 0 -13.5 7t1.5 15l204 312q12 20 36 20z" />
    <glyph glyph-name="paragraph" unicode="&#xb6;" horiz-adv-x="1107" 
d="M673 1434h507q11 0 17.5 -8t4.5 -18l-305 -1731q-3 -19 -23 -19h-109q-11 0 -17.5 7.5t-4.5 18.5l288 1633h-218l-289 -1640q-3 -19 -22 -19h-110q-11 0 -17 7.5t-4 18.5l173 947q-172 0 -254 98t-45 310q36 204 147.5 299.5t280.5 95.5z" />
    <glyph glyph-name="periodcentered" unicode="&#xb7;" horiz-adv-x="348" 
d="M215 716h171q11 0 17 -7.5t4 -17.5l-32 -183q-3 -19 -22 -19h-179q-11 0 -17 8t-4 18l30 175q5 26 32 26z" />
    <glyph glyph-name="cedilla" unicode="&#xb8;" horiz-adv-x="495" 
d="M242 0l-42 -113q24 6 50 6q71 0 110 -47.5t25 -125.5t-75 -119t-153 -41q-81 0 -147 27q-20 8 -15 30l9 39q4 15 18 10q60 -18 112 -18q112 0 125 79q6 35 -13 53t-61 18q-35 0 -87 -16q-7 -2 -13 1l-16 10q-7 4 -4 12l71 195h106z" />
    <glyph glyph-name="guillemotright" unicode="&#xbb;" horiz-adv-x="866" 
d="M239 857h105q19 0 30 -17l162 -251q8 -15 7 -29l-5 -46q-1 -14 -13 -26l-259 -260q-10 -10 -25 -10h-102q-17 0 -23 13t4 26l251 280l-152 290q-5 11 1.5 20.5t18.5 9.5zM598 857h105q19 0 30 -17l162 -251q8 -15 7 -29l-5 -46q-1 -14 -13 -26l-259 -260q-10 -10 -24 -10
h-102q-17 0 -23.5 13t3.5 26l251 280l-152 290q-4 11 2 20.5t18 9.5z" />
    <glyph glyph-name="onequarter" unicode="&#xbc;" horiz-adv-x="1806" 
d="M1379 1434h100q11 0 15.5 -9t-1.5 -18l-899 -1381q-17 -26 -48 -26h-100q-11 0 -15.5 8.5t1.5 17.5l898 1381q17 27 49 27zM584 1434h48q11 0 17 -8t4 -18l-106 -601h140q11 0 17.5 -8t4.5 -18l-18 -101q-3 -18 -22 -18h-464q-11 0 -17.5 7.5t-4.5 17.5l18 101
q3 19 22 19h166l81 457l-172 -59q-9 -3 -15.5 2.5t-4.5 15.5l15 90q5 28 31 36l231 80q17 5 29 5zM1526 772h162q11 0 17.5 -8t4.5 -18l-75 -427h140q11 0 17 -7t4 -18l-15 -89q-3 -19 -23 -19h-147l-29 -167q-3 -19 -23 -19h-113q-11 0 -17.5 8t-4.5 18l28 160h-347
q-11 0 -17 7.5t-5 17.5l12 76q3 17 12 27l379 439q16 19 40 19zM1254 319h222l59 323z" />
    <glyph glyph-name="onehalf" unicode="&#xbd;" horiz-adv-x="1675" 
d="M584 1434h48q11 0 17 -8t4 -18l-106 -601h140q11 0 17.5 -8t4.5 -18l-18 -101q-3 -18 -22 -18h-464q-11 0 -17.5 7.5t-4.5 17.5l18 101q3 19 22 19h166l81 457l-172 -59q-9 -3 -15.5 2.5t-4.5 15.5l15 90q5 28 31 36l231 80q17 5 29 5zM1379 1434h100q11 0 15.5 -9
t-1.5 -18l-899 -1381q-17 -26 -48 -26h-100q-11 0 -15.5 8.5t1.5 17.5l898 1381q17 27 49 27zM1434 799h14q119 0 188.5 -68.5t50.5 -178.5l-2 -16q-4 -25 -15 -50t-23 -45t-34.5 -45t-39 -41t-48.5 -42t-50 -40t-56 -43t-56 -43l-54 -41h304q11 0 17.5 -8t4.5 -18l-18 -101
q-3 -19 -22 -19h-523q-10 0 -16.5 7.5t-4.5 18.5l13 75q5 25 24 38l169 121q73 56 106 82t74.5 64t59 66.5t22.5 57.5l1 7q10 57 -22.5 90t-87.5 33h-12q-42 0 -82 -11t-113 -39q-10 -3 -16.5 2.5t-5.5 15.5l17 98q3 21 26 28q119 45 210 45z" />
    <glyph glyph-name="threequarters" unicode="&#xbe;" horiz-adv-x="1843" 
d="M558 1460h9q123 0 194 -64.5t53 -165.5l-2 -13q-19 -107 -136 -166q49 -21 76.5 -68.5t16.5 -111.5l-3 -16q-18 -101 -108.5 -160.5t-226.5 -59.5h-11q-94 0 -205 44q-26 9 -21 35l17 94q3 15 19 10q67 -28 107.5 -39.5t84.5 -11.5h9q68 0 116.5 33t58.5 86l2 8
q7 42 -18.5 72.5t-90.5 30.5h-103q-11 0 -17.5 7.5t-4.5 18.5l12 69q3 18 23 18h94q62 0 101 32t47 73v5q9 52 -24 81t-92 29h-6q-59 0 -199 -51q-10 -3 -16.5 2.5t-4.5 15.5l16 91q3 23 25 29q113 43 208 43zM1416 1434h101q11 0 15.5 -9t-1.5 -18l-899 -1381
q-17 -26 -48 -26h-100q-11 0 -16 8.5t1 17.5l899 1381q17 27 48 27zM1564 772h162q11 0 17.5 -8t4.5 -18l-75 -427h139q11 0 17.5 -7.5t4.5 -17.5l-16 -89q-3 -19 -22 -19h-147l-29 -167q-3 -19 -23 -19h-113q-11 0 -17.5 8t-4.5 18l28 160h-348q-10 0 -16.5 7t-4.5 18
l12 76q3 17 12 27l379 439q16 19 40 19zM1292 319h222l59 323z" />
    <glyph glyph-name="questiondown" unicode="&#xbf;" horiz-adv-x="1026" 
d="M778 1092h170q11 0 17.5 -8t4.5 -18l-32 -183q-3 -19 -22 -19h-179q-11 0 -17.5 7.5t-4.5 18.5l31 175q5 27 32 27zM723 652h114q11 0 16.5 -7t4.5 -17l-38 -269q-1 -15 -15 -25l-31 -25q-13 -9 -28 -8q-102 12 -119 12q-144 0 -231 -68.5t-105 -171.5l-1 -10
q-20 -112 50 -179t213 -67h14q84 0 158.5 19t183.5 60q13 4 22.5 -3.5t7.5 -21.5l-24 -139q-3 -20 -23 -27q-176 -74 -360 -74h-17q-228 0 -352.5 115.5t-92.5 299.5l5 27q29 165 155 272.5t311 107.5q57 0 119 -11l45 196q3 14 18 14z" />
    <glyph glyph-name="Agrave" unicode="&#xc0;" horiz-adv-x="1304" 
d="M740 1937h131q28 0 36 -27l93 -311q2 -7 -1.5 -11.5t-10.5 -4.5h-99q-24 0 -34 21l-128 314q-3 8 1 13.5t12 5.5zM772 1434h261q25 0 28 -25l182 -1385q2 -12 -5 -18t-16 -6h-168q-10 0 -17 7t-8 15l-53 376h-505l-187 -379q-9 -19 -29 -19h-171q-11 0 -16 8t-1 18
l672 1386q11 22 33 22zM869 1257l-228 -492l-90 -181h410l-23 181l-58 492h-11z" />
    <glyph glyph-name="Aacute" unicode="&#xc1;" horiz-adv-x="1304" 
d="M1104 1937h135q11 0 15 -8.5t-3 -16.5l-239 -314q-12 -15 -33 -15h-103q-10 0 -13.5 7t1.5 15l204 312q12 20 36 20zM772 1434h261q25 0 28 -25l181 -1385q2 -12 -4.5 -18t-15.5 -6h-168q-10 0 -17 7t-8 15l-53 376h-505l-187 -379q-9 -19 -29 -19h-171q-11 0 -16 7.5
t-1 17.5l672 1387q11 22 33 22zM869 1257l-228 -492l-90 -181h410l-23 181l-58 492h-11z" />
    <glyph glyph-name="Acircumflex" unicode="&#xc2;" horiz-adv-x="1304" 
d="M943 1937h89q23 0 33 -21l139 -314q4 -7 0 -13t-12 -6h-122q-21 0 -28 20l-67 206l-147 -212q-10 -14 -29 -14h-123q-11 0 -15 8.5t3 16.5l252 316q11 13 27 13zM772 1434h261q25 0 28 -25l181 -1385q2 -12 -4.5 -18t-15.5 -6h-168q-10 0 -17 7t-8 15l-53 376h-505
l-187 -379q-9 -19 -29 -19h-171q-11 0 -16 7.5t-1 17.5l672 1387q11 22 33 22zM869 1257l-228 -492l-90 -181h410l-23 181l-58 492h-11z" />
    <glyph glyph-name="Atilde" unicode="&#xc3;" horiz-adv-x="1304" 
d="M1192 1788h61q8 0 12 -7t0 -14q-62 -109 -118 -157t-121 -48h-8q-26 0 -46.5 9t-33 22t-24.5 25.5t-29 21.5t-38 9q-30 0 -54 -16.5t-53 -49.5q-10 -10 -25 -10h-61q-8 0 -11.5 6.5t0.5 14.5q62 109 117.5 157t120.5 48h8q27 0 48 -9t34 -21.5t25 -25.5t28 -22t36 -9
q51 0 108 66q10 10 24 10zM772 1434h261q25 0 28 -25l182 -1385q2 -12 -5 -18t-16 -6h-168q-10 0 -17 7t-8 15l-53 376h-505l-187 -379q-9 -19 -29 -19h-171q-11 0 -16 7.5t-1 17.5l672 1387q11 22 33 22zM869 1257l-228 -492l-90 -181h410l-23 181l-58 492h-11z" />
    <glyph glyph-name="Adieresis" unicode="&#xc4;" horiz-adv-x="1304" 
d="M735 1825h144q11 0 17.5 -7.5t4.5 -17.5l-31 -175q-5 -27 -32 -27h-144q-11 0 -17.5 8t-4.5 18l31 175q5 26 32 26zM1070 1825h145q11 0 17 -7.5t4 -17.5l-30 -175q-5 -27 -32 -27h-145q-11 0 -17 7.5t-4 18.5l30 175q5 26 32 26zM772 1434h261q25 0 28 -25l181 -1385
q2 -12 -4.5 -18t-15.5 -6h-168q-10 0 -17 7t-8 15l-53 376h-505l-187 -379q-9 -19 -29 -19h-171q-11 0 -16 7.5t-1 17.5l672 1387q11 22 33 22zM869 1257l-228 -492l-90 -181h410l-23 181l-58 492h-11z" />
    <glyph glyph-name="Aring" unicode="&#xc5;" horiz-adv-x="1304" 
d="M976 1907q79 0 125 -56t32 -135q-12 -68 -68.5 -116t-125.5 -48q-81 0 -127 57t-32 137q12 67 68.5 114t127.5 47zM973 1807q-34 0 -60.5 -22.5t-31.5 -54.5t12 -55t49 -23q33 0 59 24.5t32 57.5q5 31 -11.5 52t-48.5 21zM772 1434h261q25 0 28 -25l181 -1385
q2 -12 -4.5 -18t-15.5 -6h-168q-10 0 -17 7t-8 15l-53 376h-505l-187 -379q-9 -19 -29 -19h-171q-11 0 -16 8t-1 18l672 1386q11 22 33 22zM869 1257l-228 -492l-90 -181h410l-23 181l-58 492h-11z" />
    <glyph glyph-name="AE" unicode="&#xc6;" horiz-adv-x="1626" 
d="M772 1434h1004q11 0 17 -8t4 -18l-25 -142q-3 -18 -22 -18h-662l-74 -421h604q11 0 17 -7.5t4 -17.5l-24 -142q-3 -19 -23 -19h-611l-80 -455h655q11 0 17 -8t4 -18l-25 -141q-3 -19 -22 -19h-848q-11 0 -17 7.5t-4 18.5l65 372h-255l-187 -379q-9 -19 -29 -19h-171
q-11 0 -16 7.5t-1 17.5l672 1387q11 22 33 22zM878 1257h-9l-228 -492l-90 -181h208z" />
    <glyph glyph-name="Ccedilla" unicode="&#xc7;" horiz-adv-x="1181" 
d="M1321 1384q24 -11 19 -39l-23 -134q-1 -10 -10 -14.5t-19 0.5q-79 40 -144 58.5t-147 18.5h-12q-117 0 -218.5 -51.5t-176.5 -157.5t-101 -252l-34 -195q-38 -217 57 -338t275 -121h12q83 0 154.5 19t165.5 60q10 4 17.5 -1.5t5.5 -16.5l-23 -133q-5 -28 -30 -39
q-164 -75 -335 -75h-12l-31 -86q24 6 50 6q71 0 110 -47.5t25 -125.5t-75.5 -119t-153.5 -41q-81 0 -147 27q-19 8 -14 30l8 39q4 15 18 10q60 -18 112 -18q112 0 125 79q6 35 -13 53t-61 18q-35 0 -87 -16q-7 -2 -12 1l-17 10q-7 4 -4 12l64 175q-103 15 -185.5 63.5
t-140 129.5t-77.5 193.5t3 255.5l35 205q26 151 95.5 273t165.5 199.5t210 119t233 41.5h26q174 0 317 -76z" />
    <glyph glyph-name="Egrave" unicode="&#xc8;" horiz-adv-x="1124" 
d="M699 1937h132q28 0 36 -27l93 -311q2 -7 -1.5 -11.5t-10.5 -4.5h-100q-23 0 -33 21l-128 314q-3 8 0.5 13.5t11.5 5.5zM512 827h604q11 0 17.5 -8t4.5 -18l-25 -141q-3 -19 -22 -19h-611l-81 -455h655q11 0 17.5 -8t4.5 -18l-25 -141q-3 -19 -22 -19h-848
q-11 0 -17.5 7.5t-4.5 18.5l244 1381q5 27 32 27h839q11 0 17.5 -7.5t4.5 -18.5l-25 -142q-3 -18 -22 -18h-662z" />
    <glyph glyph-name="Eacute" unicode="&#xc9;" horiz-adv-x="1124" 
d="M1027 1937h135q10 0 14 -8.5t-3 -16.5l-238 -314q-12 -15 -33 -15h-103q-10 0 -13.5 7t1.5 15l204 312q12 20 36 20zM434 1434h840q11 0 17.5 -8t4.5 -18l-25 -142q-3 -18 -22 -18h-662l-75 -421h604q11 0 17.5 -8t4.5 -18l-25 -141q-3 -19 -22 -19h-611l-81 -455h655
q11 0 17.5 -8t4.5 -18l-25 -141q-3 -19 -22 -19h-848q-11 0 -17.5 7.5t-4.5 18.5l244 1381q5 27 31 27z" />
    <glyph glyph-name="Ecircumflex" unicode="&#xca;" horiz-adv-x="1124" 
d="M880 1937h89q23 0 33 -21l139 -314q4 -7 0 -13t-12 -6h-122q-20 0 -27 20l-68 206l-147 -212q-10 -14 -29 -14h-123q-11 0 -15 8.5t3 16.5l252 316q11 13 27 13zM512 827h604q11 0 17.5 -7.5t4.5 -18.5l-25 -141q-3 -19 -22 -19h-611l-81 -455h655q11 0 17.5 -7.5
t4.5 -18.5l-25 -141q-3 -19 -22 -19h-848q-11 0 -17.5 8t-4.5 18l244 1381q5 27 31 27h840q11 0 17.5 -8t4.5 -18l-25 -142q-3 -18 -22 -18h-662z" />
    <glyph glyph-name="Edieresis" unicode="&#xcb;" horiz-adv-x="1124" 
d="M668 1825h144q11 0 17.5 -7.5t4.5 -17.5l-31 -175q-5 -27 -32 -27h-144q-11 0 -17.5 7.5t-4.5 18.5l31 175q5 26 32 26zM1003 1825h145q11 0 17 -7t4 -18l-30 -175q-5 -27 -32 -27h-145q-11 0 -17 8t-4 18l30 175q5 26 32 26zM512 827h604q11 0 17.5 -8t4.5 -18l-25 -141
q-3 -19 -22 -19h-611l-81 -455h655q11 0 17.5 -8t4.5 -18l-25 -141q-3 -19 -22 -19h-848q-11 0 -17.5 7.5t-4.5 18.5l244 1381q5 27 31 27h840q11 0 17.5 -7.5t4.5 -18.5l-25 -142q-3 -18 -22 -18h-662z" />
    <glyph glyph-name="Igrave" unicode="&#xcc;" horiz-adv-x="520" 
d="M352 1937h132q28 0 36 -27l93 -311q2 -7 -1.5 -11.5t-10.5 -4.5h-100q-23 0 -33 21l-128 314q-3 8 0.5 13.5t11.5 5.5zM435 1434h158q11 0 17.5 -7.5t4.5 -18.5l-245 -1389q-3 -19 -22 -19h-167q-11 0 -17.5 8t-4.5 18l244 1381q5 27 32 27z" />
    <glyph glyph-name="Iacute" unicode="&#xcd;" horiz-adv-x="520" 
d="M710 1937h135q10 0 14 -8.5t-3 -16.5l-238 -314q-12 -15 -33 -15h-103q-10 0 -13.5 7t1.5 15l203 312q12 20 37 20zM434 1434h159q11 0 17.5 -7.5t4.5 -18.5l-245 -1389q-3 -19 -22 -19h-167q-11 0 -17.5 8t-4.5 18l244 1381q5 27 31 27z" />
    <glyph glyph-name="Icircumflex" unicode="&#xce;" horiz-adv-x="520" 
d="M552 1937h90q23 0 33 -21l139 -314q4 -7 -0.5 -13t-12.5 -6h-122q-20 0 -27 20l-67 206l-147 -212q-10 -14 -29 -14h-123q-11 0 -15 8.5t3 16.5l252 316q11 13 26 13zM434 1434h159q11 0 17.5 -7.5t4.5 -18.5l-245 -1389q-3 -19 -22 -19h-167q-11 0 -17.5 8t-4.5 18
l244 1381q5 27 31 27z" />
    <glyph glyph-name="Idieresis" unicode="&#xcf;" horiz-adv-x="520" 
d="M344 1825h144q11 0 17.5 -7.5t4.5 -17.5l-31 -175q-5 -27 -32 -27h-144q-11 0 -17.5 8t-4.5 18l31 175q5 26 32 26zM680 1825h144q11 0 17.5 -7.5t4.5 -17.5l-31 -175q-5 -27 -32 -27h-144q-11 0 -17.5 7.5t-4.5 18.5l31 175q5 26 32 26zM434 1434h159q11 0 17.5 -7.5
t4.5 -18.5l-245 -1389q-3 -19 -22 -19h-167q-11 0 -17.5 8t-4.5 18l244 1381q5 27 31 27z" />
    <glyph glyph-name="Eth" unicode="&#xd0;" horiz-adv-x="1343" 
d="M434 1434h467q118 0 212.5 -38.5t159.5 -116t87.5 -194.5t-3.5 -275l-35 -201q-27 -154 -90.5 -272t-152 -191t-194 -109.5t-224.5 -36.5h-480q-11 0 -17.5 7.5t-4.5 18.5l98 558h-66q-11 0 -17.5 7.5t-4.5 17.5l19 109q5 26 32 26h66l117 663q5 27 31 27zM1110 622
l34 191q39 219 -38.5 327t-254.5 108h-264l-89 -504h308q11 0 17 -7t4 -18l-19 -109q-5 -26 -31 -26h-307l-71 -398h263q177 0 293 108.5t155 327.5z" />
    <glyph glyph-name="Ntilde" unicode="&#xd1;" horiz-adv-x="1390" 
d="M1236 1788h61q8 0 11.5 -7t-0.5 -14q-62 -109 -117.5 -157t-120.5 -48h-8q-26 0 -46.5 9t-33 22t-24.5 25.5t-29 21.5t-38 9q-30 0 -54.5 -16.5t-53.5 -49.5q-10 -10 -24 -10h-61q-8 0 -12 6.5t0 14.5q62 109 117.5 157t120.5 48h9q27 0 48 -9t34 -21.5t25 -25.5t28 -22
t36 -9q50 0 107 66q10 10 25 10zM1301 1434h169q11 0 17.5 -8t4.5 -18l-245 -1389q-3 -19 -23 -19h-192q-23 0 -31 21l-277 666l-170 420h-18l-56 -420l-118 -671q-3 -16 -19 -16h-169q-11 0 -17.5 7.5t-4.5 18.5l243 1381q5 27 32 27h185q22 0 30 -22l245 -596l203 -490h18
l68 489l105 602q3 17 20 17z" />
    <glyph glyph-name="Ograve" unicode="&#xd2;" horiz-adv-x="1402" 
d="M793 1937h131q29 0 37 -27l93 -311q2 -7 -1.5 -11.5t-10.5 -4.5h-100q-23 0 -33 21l-128 314q-3 8 0.5 13.5t11.5 5.5zM937 1460h31q114 0 207.5 -38.5t159.5 -116t89.5 -193t-1.5 -268.5l-47 -270q-26 -149 -90.5 -265.5t-153 -189t-193.5 -109.5t-220 -37h-31
q-114 0 -207.5 38.5t-159.5 116t-89.5 193t1.5 268.5l47 271q26 149 90 265.5t153 188.5t194 109t220 37zM937 1274h-20q-159 0 -271.5 -105t-147.5 -306l-52 -294q-36 -201 38.5 -305.5t233.5 -104.5h21q159 0 271 105.5t148 306.5l52 294q35 201 -39.5 305t-233.5 104z
" />
    <glyph glyph-name="Oacute" unicode="&#xd3;" horiz-adv-x="1402" 
d="M1161 1937h135q11 0 15 -8.5t-3 -16.5l-239 -314q-12 -15 -33 -15h-103q-10 0 -13.5 7t1.5 15l204 312q12 20 36 20zM937 1460h31q114 0 207.5 -38.5t159.5 -116t89.5 -193t-1.5 -268.5l-47 -270q-26 -149 -90.5 -265.5t-153 -189t-193.5 -109.5t-220 -37h-31
q-114 0 -207.5 38.5t-159.5 116t-89.5 193t1.5 268.5l47 271q26 149 90 265.5t153 188.5t194 109t220 37zM937 1274h-20q-159 0 -271.5 -105t-147.5 -306l-52 -294q-36 -201 38.5 -305.5t233.5 -104.5h21q159 0 271 105.5t148 306.5l52 294q35 201 -39.5 305t-233.5 104z
" />
    <glyph glyph-name="Ocircumflex" unicode="&#xd4;" horiz-adv-x="1402" 
d="M995 1937h88q24 0 33 -23l137 -308q4 -9 -0.5 -16t-14.5 -7h-116q-22 0 -29 21l-67 205l-145 -209q-12 -17 -33 -17h-117q-12 0 -17 9t3 19l247 311q11 15 31 15zM937 1460h31q114 0 207.5 -38.5t159.5 -116t89.5 -193t-1.5 -268.5l-47 -270q-26 -149 -90.5 -265.5
t-153 -189t-193.5 -109.5t-220 -37h-31q-114 0 -207.5 38.5t-159.5 116t-89.5 193t1.5 268.5l47 271q26 149 90 265.5t153 188.5t194 109t220 37zM937 1274h-20q-159 0 -271.5 -105t-147.5 -306l-52 -294q-36 -201 38.5 -305.5t233.5 -104.5h21q159 0 271 105.5t148 306.5
l52 294q35 201 -39.5 305t-233.5 104z" />
    <glyph glyph-name="Otilde" unicode="&#xd5;" horiz-adv-x="1402" 
d="M1243 1788h61q8 0 11.5 -7t-0.5 -14q-62 -109 -117.5 -157t-120.5 -48h-8q-26 0 -46.5 9t-33 22t-24.5 25.5t-29 21.5t-38 9q-30 0 -54.5 -16.5t-53.5 -49.5q-10 -10 -24 -10h-61q-8 0 -11.5 6.5t0.5 14.5q62 109 117.5 157t120.5 48h8q27 0 48 -9t34 -21.5t25 -25.5
t28 -22t36 -9q51 0 108 66q10 10 24 10zM937 1460h31q114 0 207.5 -38.5t159.5 -116t89.5 -193t-1.5 -268.5l-47 -270q-26 -149 -90.5 -265.5t-153 -189t-193.5 -109.5t-220 -37h-31q-114 0 -207.5 38.5t-159.5 116t-89.5 193t1.5 268.5l47 271q26 149 90 265.5t153 188.5
t194 109t220 37zM937 1274h-20q-159 0 -271.5 -105t-147.5 -306l-52 -294q-36 -201 39 -305.5t234 -104.5h20q159 0 271 105.5t148 306.5l52 294q35 201 -39.5 305t-233.5 104z" />
    <glyph glyph-name="Odieresis" unicode="&#xd6;" horiz-adv-x="1402" 
d="M784 1825h145q11 0 17 -7t4 -18l-30 -175q-5 -27 -32 -27h-145q-11 0 -17 8t-4 18l31 175q5 26 31 26zM1120 1825h145q11 0 17 -7.5t4 -17.5l-31 -175q-5 -27 -32 -27h-144q-11 0 -17 7.5t-4 18.5l30 175q5 26 32 26zM937 1460h31q114 0 207.5 -38.5t159.5 -116
t89.5 -193t-1.5 -268.5l-47 -270q-26 -149 -90.5 -265.5t-153 -189t-193.5 -109.5t-220 -37h-31q-114 0 -207.5 38.5t-159.5 116t-89.5 193t1.5 268.5l47 271q26 149 90 265.5t153 188.5t194 109t220 37zM937 1274h-20q-159 0 -271.5 -105t-147.5 -306l-52 -294
q-36 -201 38.5 -305.5t233.5 -104.5h21q159 0 271 105.5t148 306.5l52 294q35 201 -39.5 305t-233.5 104z" />
    <glyph glyph-name="multiply" unicode="&#xd7;" horiz-adv-x="892" 
d="M577 759l312 265q15 14 29 -2l71 -82q14 -16 -2 -30l-312 -265l217 -263q13 -16 -2 -29l-99 -86q-16 -14 -30 3l-215 262l-313 -266q-15 -14 -29 2l-71 82q-14 15 3 30l312 265l-218 264q-12 16 2 28l98 87q16 14 30 -3z" />
    <glyph glyph-name="Oslash" unicode="&#xd8;" horiz-adv-x="1402" 
d="M1379 1434h146q11 0 15 -9t-4 -17l-153 -174q81 -155 40 -390l-47 -270q-26 -149 -90.5 -265.5t-153 -189t-193.5 -109.5t-220 -37h-31q-195 0 -319 106l-56 -63q-13 -16 -35 -16h-146q-11 0 -15 8.5t3 16.5l153 175q-81 155 -40 389l47 271q26 149 90 265.5t153 188.5
t194 109t220 37h31q196 0 320 -106l56 63q14 17 35 17zM498 863l-52 -294q-18 -102 -7 -180l710 807q-73 78 -212 78h-20q-159 0 -271.5 -105t-147.5 -306zM1158 571l52 294q18 101 7 179l-710 -807q73 -78 211 -78h21q159 0 271 105.5t148 306.5z" />
    <glyph glyph-name="Ugrave" unicode="&#xd9;" horiz-adv-x="1378" 
d="M778 1937h132q28 0 36 -27l93 -311q2 -7 -1.5 -11.5t-10.5 -4.5h-100q-23 0 -33 21l-128 314q-3 8 0.5 13.5t11.5 5.5zM1294 1434h163q11 0 17.5 -8t4.5 -18l-157 -892q-32 -183 -122.5 -307t-214 -180t-275.5 -56h-31q-113 0 -202 34.5t-150 104t-81.5 174.5t2.5 246
l155 875q5 27 32 27h162q11 0 17.5 -8t4.5 -18l-156 -887q-32 -179 32 -270.5t214 -91.5h21q150 0 247.5 92.5t129.5 271.5l156 884q5 27 31 27z" />
    <glyph glyph-name="Uacute" unicode="&#xda;" horiz-adv-x="1378" 
d="M1152 1937h135q11 0 15 -8.5t-3 -16.5l-239 -314q-12 -15 -33 -15h-103q-10 0 -13.5 7t1.5 15l204 312q12 20 36 20zM1294 1434h163q11 0 17.5 -7.5t4.5 -18.5l-157 -892q-32 -183 -122.5 -307t-214 -180t-275.5 -56h-31q-113 0 -202 34.5t-150 104t-81.5 174.5t2.5 246
l155 875q5 27 31 27h163q11 0 17.5 -7.5t4.5 -18.5l-157 -887q-32 -179 32.5 -270.5t214.5 -91.5h21q150 0 247.5 92.5t129.5 271.5l156 884q5 27 31 27z" />
    <glyph glyph-name="Ucircumflex" unicode="&#xdb;" horiz-adv-x="1378" 
d="M980 1937h90q23 0 33 -21l138 -314q4 -7 0 -13t-12 -6h-122q-20 0 -27 20l-67 206l-147 -212q-10 -14 -29 -14h-123q-11 0 -15 8.5t3 16.5l252 316q11 13 26 13zM1294 1434h163q11 0 17.5 -8t4.5 -18l-157 -892q-32 -183 -122.5 -307t-214 -180t-275.5 -56h-31
q-113 0 -202 34.5t-150 104t-81.5 174.5t2.5 246l155 875q5 27 31 27h163q11 0 17.5 -8t4.5 -18l-156 -887q-32 -179 32 -270.5t214 -91.5h21q150 0 247.5 92.5t129.5 271.5l156 884q5 27 31 27z" />
    <glyph glyph-name="Udieresis" unicode="&#xdc;" horiz-adv-x="1378" 
d="M772 1825h144q11 0 17.5 -7.5t4.5 -17.5l-31 -175q-5 -27 -32 -27h-144q-11 0 -17.5 7.5t-4.5 18.5l31 175q5 26 32 26zM1107 1825h145q11 0 17 -7t4 -18l-30 -175q-5 -27 -32 -27h-145q-11 0 -17 8t-4 18l31 175q5 26 31 26zM1294 1434h163q11 0 17.5 -7.5t4.5 -18.5
l-157 -892q-32 -183 -122.5 -307t-214 -180t-275.5 -56h-31q-113 0 -202 34.5t-150 104t-81.5 174.5t2.5 246l155 875q5 27 31 27h163q11 0 17.5 -7.5t4.5 -18.5l-157 -887q-32 -179 32.5 -270.5t214.5 -91.5h21q150 0 247.5 92.5t129.5 271.5l156 884q5 27 31 27z" />
    <glyph glyph-name="Yacute" unicode="&#xdd;" horiz-adv-x="1275" 
d="M1099 1937h134q11 0 15 -8.5t-3 -16.5l-239 -314q-12 -15 -33 -15h-103q-10 0 -13.5 7t1.5 15l204 312q12 20 37 20zM1269 1434h181q11 0 15.5 -9t-1.5 -18l-633 -926l-84 -462q-3 -19 -22 -19h-167q-11 0 -17.5 7.5t-4.5 18.5l83 455l-305 923q-4 12 2 21t19 9h172
q23 0 30 -23l165 -481l52 -246h6l134 246l340 485q13 19 35 19z" />
    <glyph glyph-name="Thorn" unicode="&#xde;" horiz-adv-x="1275" 
d="M586 1245h268q242 0 357.5 -113.5t78.5 -325.5l-6 -32q-38 -216 -192.5 -333.5t-398.5 -117.5h-269l-54 -304q-3 -19 -22 -19h-167q-11 0 -17.5 7.5t-4.5 18.5l244 1381q5 27 32 27h158q11 0 17.5 -7.5t4.5 -18.5zM1068 778l3 22q23 128 -41.5 193.5t-232.5 65.5h-244
l-98 -558h240q167 0 258.5 73.5t114.5 203.5z" />
    <glyph glyph-name="germandbls" unicode="&#xdf;" horiz-adv-x="1202" 
d="M700 1536h17q136 0 216.5 -77.5t54.5 -224.5l-1 -10q-8 -48 -31.5 -91t-52.5 -72t-62 -59.5t-61.5 -55t-50 -56.5t-27.5 -66l-1 -9q-6 -36 3 -66t24.5 -48t45 -35.5t48.5 -25t51 -18.5q2 -1 3 -1l56 -20q72 -25 117 -48.5t82.5 -59t49 -86.5t-0.5 -120l-2 -12
q-25 -142 -148 -222t-284 -80h-18q-67 0 -145.5 17.5t-136.5 45.5q-27 10 -22 42l18 104q1 10 10 15t19 0q152 -75 266 -75h15q86 0 147.5 38t73.5 106l2 9q5 27 -1 48t-16 34t-34 26.5t-38.5 19t-47.5 17.5l-58 21q-67 24 -106 42t-84.5 53t-61.5 86t-4 120l2 12
q10 57 43.5 107.5t75.5 88t83.5 74.5t74 82t41.5 94l2 10q15 82 -21 122.5t-100 40.5h-9q-66 0 -118.5 -45t-68.5 -138l-207 -1171q-3 -19 -22 -19h-158q-11 0 -17.5 7.5t-4.5 18.5l212 1200q26 149 127 229.5t241 80.5z" />
    <glyph glyph-name="agrave" unicode="&#xe0;" horiz-adv-x="1099" 
d="M545 1527h132q28 0 36 -26l93 -312q2 -7 -1.5 -11.5t-10.5 -4.5h-99q-24 0 -34 21l-128 314q-3 8 0.5 13.5t11.5 5.5zM650 1051h7q82 0 158 -42t129 -115l32 111q8 19 28 19h136q11 0 17 -8t4 -18l-172 -979q-3 -19 -23 -19h-139q-9 0 -15 6t-6 15l12 98
q-78 -71 -166 -108.5t-172 -37.5h-7q-181 0 -258 125.5t-41 332.5l31 177q36 207 150 325t295 118zM689 885h-7q-111 0 -181 -73.5t-95 -215.5l-30 -170q-50 -287 172 -287h8q128 0 267 119l91 509q-97 118 -225 118z" />
    <glyph glyph-name="aacute" unicode="&#xe1;" horiz-adv-x="1099" 
d="M909 1527h134q11 0 15 -8t-3 -16l-238 -314q-13 -16 -33 -16h-103q-10 0 -13.5 7t1.5 15l203 313q12 19 37 19zM650 1051h7q82 0 158 -42t129 -115l32 111q8 19 28 19h136q11 0 17 -8t4 -18l-172 -979q-3 -19 -23 -19h-139q-9 0 -15 6t-6 15l12 98q-78 -71 -166 -108.5
t-172 -37.5h-7q-181 0 -258 125.5t-41 332.5l31 177q36 207 150 325t295 118zM689 885h-7q-111 0 -181 -73.5t-95 -215.5l-30 -170q-50 -287 172 -287h8q128 0 267 119l91 509q-97 118 -225 118z" />
    <glyph glyph-name="acircumflex" unicode="&#xe2;" horiz-adv-x="1099" 
d="M768 1527h90q23 0 33 -21l139 -314q4 -7 0 -13t-12 -6h-123q-20 0 -27 20l-67 206l-147 -211q-10 -15 -29 -15h-123q-11 0 -15 8.5t3 16.5l252 317q10 12 26 12zM650 1051h7q82 0 158 -42t129 -115l32 111q8 19 28 19h136q11 0 17 -8t4 -18l-172 -979q-3 -19 -23 -19
h-139q-9 0 -15 6t-6 15l12 98q-78 -71 -166 -108.5t-172 -37.5h-7q-181 0 -258 125.5t-41 332.5l31 177q36 207 150 325t295 118zM689 885h-7q-111 0 -181 -73.5t-95 -215.5l-30 -170q-50 -287 172 -287h8q128 0 267 119l91 509q-97 118 -225 118z" />
    <glyph glyph-name="atilde" unicode="&#xe3;" horiz-adv-x="1099" 
d="M1041 1379h61q8 0 12 -7.5t-1 -14.5q-62 -109 -117.5 -157t-120.5 -48h-8q-32 0 -56 14t-36 30t-32.5 30t-46.5 14q-30 0 -54.5 -16.5t-53.5 -49.5q-11 -11 -24 -11h-61q-8 0 -11.5 7.5t0.5 14.5q62 109 117.5 156.5t120.5 47.5h8q27 0 48 -9t34 -21.5t25 -25.5t28 -22
t36 -9q51 0 108 66q11 11 24 11zM650 1051h7q82 0 158 -42t129 -115l32 111q8 19 28 19h136q11 0 17 -7.5t4 -18.5l-172 -979q-3 -19 -23 -19h-139q-9 0 -15 6t-6 15l12 98q-78 -71 -166 -108.5t-172 -37.5h-7q-181 0 -258 125.5t-41 332.5l31 177q36 207 150 325t295 118z
M689 885h-7q-111 0 -181 -73.5t-95 -215.5l-30 -170q-50 -287 172 -287h8q128 0 267 119l91 509q-97 118 -225 118z" />
    <glyph glyph-name="adieresis" unicode="&#xe4;" horiz-adv-x="1099" 
d="M568 1416h144q11 0 17.5 -8t4.5 -18l-31 -175q-5 -26 -32 -26h-144q-11 0 -17.5 7.5t-4.5 17.5l31 175q5 27 32 27zM903 1416h145q11 0 17 -7.5t4 -18.5l-30 -175q-5 -26 -32 -26h-145q-11 0 -17 7.5t-4 17.5l31 175q5 27 31 27zM650 1051h7q82 0 158 -42t129 -115
l32 111q8 19 28 19h136q11 0 17 -8t4 -18l-172 -979q-3 -19 -23 -19h-139q-9 0 -15 6t-6 15l12 98q-78 -71 -166 -108.5t-172 -37.5h-7q-181 0 -258 125.5t-41 332.5l31 177q36 207 150 325t295 118zM689 885h-7q-111 0 -181 -73.5t-95 -215.5l-30 -170q-50 -287 172 -287h8
q128 0 267 119l91 509q-97 118 -225 118z" />
    <glyph glyph-name="aring" unicode="&#xe5;" horiz-adv-x="1099" 
d="M813 1498q79 0 125.5 -56.5t32.5 -135.5q-12 -68 -69 -116t-126 -48q-81 0 -126.5 57t-31.5 137q12 67 68.5 114.5t126.5 47.5zM810 1397q-34 0 -60.5 -22.5t-31.5 -54.5t12 -54.5t49 -22.5q34 0 59.5 24t31.5 57q5 31 -11.5 52t-48.5 21zM650 1051h7q82 0 158 -42
t129 -115l32 111q8 19 28 19h136q11 0 17 -8t4 -18l-172 -979q-3 -19 -23 -19h-139q-9 0 -15 6t-6 15l12 98q-78 -71 -166 -108.5t-172 -37.5h-7q-181 0 -258 125.5t-41 332.5l31 177q36 207 150 325t295 118zM689 885h-7q-111 0 -181 -73.5t-95 -215.5l-30 -170
q-50 -287 172 -287h8q128 0 267 119l91 509q-97 118 -225 118z" />
    <glyph glyph-name="ae" unicode="&#xe6;" horiz-adv-x="1798" 
d="M1406 1051h22q188 0 281 -121t54 -341l-16 -89q-3 -21 -24 -21h-647l-13 -71q-23 -129 45 -200.5t196 -71.5h9q114 0 316 78q10 4 16.5 -2t5.5 -16l-20 -114q-5 -28 -29 -37q-79 -32 -171 -52t-166 -20h-17q-105 0 -185 37t-124 105l-17 -96q-3 -19 -22 -19h-73
q-9 0 -15 6t-6 15l12 98q-78 -71 -166 -108.5t-172 -37.5h-7q-181 0 -258 125.5t-41 332.5l31 177q36 207 150 325t295 118h7q82 0 158 -42t129 -115l32 111q8 19 28 19h69q20 0 22 -21l-17 -97q134 145 328 145zM1402 898h-13q-107 0 -186.5 -79t-106.5 -216l479 1
q28 149 -15 221.5t-158 72.5zM689 885h-7q-111 0 -181 -73.5t-95 -215.5l-30 -170q-50 -287 172 -287h8q128 0 267 119l91 509q-97 118 -225 118z" />
    <glyph glyph-name="ccedilla" unicode="&#xe7;" horiz-adv-x="974" 
d="M1024 979q26 -11 21 -40l-20 -112q-1 -10 -10 -14.5t-19 0.5q-71 38 -122.5 55t-107.5 17h-14q-127 0 -223.5 -82.5t-122.5 -231.5l-21 -120q-26 -149 39.5 -230.5t193.5 -81.5h15q55 0 112.5 17.5t144.5 56.5q10 4 17.5 -2t5.5 -17l-20 -113q-5 -27 -28 -36
q-157 -72 -280 -72h-23q-2 0 -5 0.5t-5 0.5l-32 -87q24 6 50 6q71 0 110 -47.5t25 -125.5t-75.5 -119t-153.5 -41q-80 0 -146 27q-20 8 -15 30l9 39q4 15 17 10q60 -18 113 -18q112 0 125 79q6 35 -13.5 53t-61.5 18q-34 0 -86 -16q-7 -2 -13 1l-17 10q-7 4 -4 12l66 180
q-153 35 -228 159t-43 312l21 127q25 145 103 252t190.5 161.5t245.5 54.5h23q125 0 262 -72z" />
    <glyph glyph-name="egrave" unicode="&#xe8;" horiz-adv-x="1069" 
d="M578 1527h132q28 0 36 -26l93 -312q2 -7 -1.5 -11.5t-10.5 -4.5h-100q-23 0 -33 21l-128 314q-3 8 0.5 13.5t11.5 5.5zM722 1051h22q188 0 280.5 -121t53.5 -341l-15 -89q-3 -21 -24 -21h-648l-12 -71q-23 -129 45 -200.5t196 -71.5h9q114 0 316 78q10 4 17 -2t5 -17
l-20 -113q-5 -28 -30 -37q-79 -32 -170.5 -52t-165.5 -20h-18q-208 0 -316.5 126.5t-71.5 337.5l24 134q26 150 104 260t186 165t233 55zM717 898h-12q-107 0 -186.5 -79t-106.5 -216l478 1q28 149 -15 221.5t-158 72.5z" />
    <glyph glyph-name="eacute" unicode="&#xe9;" horiz-adv-x="1069" 
d="M914 1527h135q11 0 14.5 -8t-3.5 -16l-238 -314q-13 -16 -33 -16h-103q-10 0 -13.5 7t1.5 15l204 313q12 19 36 19zM722 1051h22q188 0 280.5 -121t53.5 -341l-15 -89q-3 -21 -24 -21h-648l-12 -71q-23 -129 45 -200.5t196 -71.5h9q114 0 316 78q10 4 17 -2t5 -17
l-20 -113q-5 -28 -30 -37q-79 -32 -170.5 -52t-165.5 -20h-18q-208 0 -316.5 126.5t-71.5 337.5l24 134q26 150 104 260t186 165t233 55zM717 898h-12q-107 0 -186.5 -79t-106.5 -216l478 1q28 149 -15 221.5t-158 72.5z" />
    <glyph glyph-name="ecircumflex" unicode="&#xea;" horiz-adv-x="1069" 
d="M753 1527h90q23 0 33 -21l139 -314q4 -7 -0.5 -13t-12.5 -6h-122q-20 0 -27 20l-67 206l-147 -211q-11 -15 -29 -15h-123q-11 0 -15 8.5t3 16.5l252 317q11 12 26 12zM722 1051h22q188 0 280.5 -121t53.5 -341l-15 -89q-3 -21 -24 -21h-648l-12 -71q-23 -129 45 -200.5
t196 -71.5h9q114 0 316 78q10 4 17 -2t5 -17l-20 -113q-5 -28 -30 -37q-79 -32 -170.5 -52t-165.5 -20h-18q-208 0 -316.5 126.5t-71.5 337.5l24 134q26 150 104 260t186 165t233 55zM717 898h-12q-107 0 -186.5 -79t-106.5 -216l478 1q28 149 -15 221.5t-158 72.5z" />
    <glyph glyph-name="edieresis" unicode="&#xeb;" horiz-adv-x="1069" 
d="M545 1416h144q11 0 17.5 -8t4.5 -18l-31 -175q-5 -26 -32 -26h-144q-11 0 -17.5 7.5t-4.5 17.5l31 175q5 27 32 27zM881 1416h144q11 0 17.5 -7.5t4.5 -18.5l-31 -175q-5 -26 -32 -26h-144q-11 0 -17.5 7.5t-4.5 17.5l31 175q5 27 32 27zM722 1051h22q188 0 280.5 -121
t53.5 -341l-15 -89q-3 -21 -24 -21h-648l-12 -71q-23 -129 45 -200.5t196 -71.5h9q114 0 316 78q10 4 17 -2t5 -17l-20 -113q-5 -28 -30 -37q-79 -32 -170.5 -52t-165.5 -20h-18q-208 0 -316.5 126.5t-71.5 337.5l24 134q26 150 104 260t186 165t233 55zM717 898h-12
q-107 0 -186.5 -79t-106.5 -216l478 1q28 149 -15 221.5t-158 72.5z" />
    <glyph glyph-name="igrave" unicode="&#xec;" horiz-adv-x="434" 
d="M227 1527h131q28 0 36 -26l94 -312q2 -7 -1.5 -11.5t-10.5 -4.5h-100q-23 0 -33 21l-128 314q-3 8 0.5 13.5t11.5 5.5zM326 1024h150q11 0 17 -8t4 -18l-173 -979q-3 -19 -22 -19h-158q-11 0 -17 7.5t-4 18.5l171 971q5 27 32 27z" />
    <glyph glyph-name="iacute" unicode="&#xed;" horiz-adv-x="434" 
d="M605 1527h135q11 0 14.5 -8t-3.5 -16l-238 -314q-13 -16 -33 -16h-103q-10 0 -13.5 7t1.5 15l203 313q12 19 37 19zM325 1024h150q11 0 17 -7.5t4 -18.5l-172 -979q-3 -19 -23 -19h-158q-11 0 -17 8t-4 18l171 971q5 27 32 27z" />
    <glyph glyph-name="icircumflex" unicode="&#xee;" horiz-adv-x="434" 
d="M439 1527h90q23 0 33 -21l138 -314q4 -7 0 -13t-12 -6h-122q-20 0 -27 20l-67 206l-148 -211q-10 -15 -28 -15h-124q-10 0 -14 8.5t3 16.5l252 317q11 12 26 12zM325 1024h150q11 0 17 -8t4 -18l-173 -979q-3 -19 -22 -19h-158q-11 0 -17 7.5t-4 18.5l171 971q5 27 32 27
z" />
    <glyph glyph-name="idieresis" unicode="&#xef;" horiz-adv-x="434" 
d="M229 1416h145q11 0 17 -7.5t4 -18.5l-31 -175q-5 -26 -32 -26h-144q-11 0 -17.5 7.5t-4.5 17.5l31 175q5 27 32 27zM565 1416h144q11 0 17.5 -8t4.5 -18l-31 -175q-5 -26 -32 -26h-144q-11 0 -17.5 7.5t-4.5 17.5l31 175q5 27 32 27zM325 1024h150q11 0 17 -7.5t4 -18.5
l-173 -979q-3 -19 -22 -19h-158q-11 0 -17 8t-4 18l171 971q5 27 32 27z" />
    <glyph glyph-name="eth" unicode="&#xf0;" horiz-adv-x="1095" 
d="M1248 1529l45 -83q9 -18 -7 -27l-112 -70q44 -100 20 -237l-121 -684q-39 -220 -178.5 -337.5t-331.5 -117.5h-23q-90 0 -164.5 31t-126 89t-71.5 149t-1 202l23 133q36 206 153.5 324t299.5 118h15q81 0 155 -35t123 -99l42 235q12 67 3 116l-161 -99q-19 -12 -29 7
l-46 83q-9 18 7 27l151 94q-53 28 -147 28h-9q-118 0 -295 -72q-14 -5 -23.5 3t-7.5 22l20 111q3 21 25 28q183 68 344 68h11q158 0 259 -79l128 80q19 12 30 -8zM866 428l54 308q-96 117 -224 117h-7q-113 0 -186.5 -74t-98.5 -215l-24 -138q-24 -138 27 -212.5t159 -74.5
h14q112 0 186.5 74.5t99.5 214.5z" />
    <glyph glyph-name="ntilde" unicode="&#xf1;" horiz-adv-x="1091" 
d="M1015 1379h61q8 0 12 -7.5t0 -14.5q-62 -109 -118 -157t-121 -48h-8q-32 0 -56 14t-36 30t-32.5 30t-46.5 14q-30 0 -54 -16.5t-53 -49.5q-11 -11 -25 -11h-61q-8 0 -11.5 7.5t0.5 14.5q62 109 117.5 156.5t120.5 47.5h8q27 0 48 -9t34 -21.5t25 -25.5t28 -22t36 -9
q51 0 108 66q11 11 24 11zM814 1051h17q160 0 231.5 -95.5t41.5 -265.5l-118 -671q-3 -19 -23 -19h-157q-11 0 -17.5 7.5t-4.5 18.5l112 633q20 114 -16.5 170t-144.5 56h-7q-120 0 -274 -109l-134 -757q-3 -19 -22 -19h-158q-11 0 -17.5 8t-4.5 18l171 971q5 27 32 27h132
q20 0 20 -21l-10 -93q186 141 351 141z" />
    <glyph glyph-name="ograve" unicode="&#xf2;" horiz-adv-x="1128" 
d="M585 1527h132q28 0 36 -26l93 -312q2 -7 -1.5 -11.5t-10.5 -4.5h-100q-23 0 -33 21l-128 314q-3 8 0.5 13.5t11.5 5.5zM732 1051h22q196 0 306.5 -127t72.5 -344l-27 -151q-26 -146 -104.5 -250.5t-187.5 -155t-236 -50.5h-23q-196 0 -306.5 127t-72.5 344l27 151
q26 145 105 250t188 155.5t236 50.5zM729 885h-15q-114 0 -197 -75.5t-107 -213.5l-30 -170q-24 -138 31.5 -212.5t169.5 -74.5h14q114 0 197 75.5t107 213.5l30 170q24 138 -31 212.5t-169 74.5z" />
    <glyph glyph-name="oacute" unicode="&#xf3;" horiz-adv-x="1128" 
d="M952 1527h134q11 0 15 -8t-3 -16l-238 -314q-13 -16 -34 -16h-102q-10 0 -13.5 7t1.5 15l203 313q12 19 37 19zM732 1051h22q196 0 306.5 -127t72.5 -344l-27 -151q-26 -146 -104.5 -250.5t-187.5 -155t-236 -50.5h-23q-196 0 -306.5 127t-72.5 344l27 151
q26 145 105 250t188 155.5t236 50.5zM729 885h-15q-114 0 -197 -75.5t-107 -213.5l-30 -170q-24 -138 31.5 -212.5t169.5 -74.5h14q114 0 197 75.5t107 213.5l30 170q24 138 -31 212.5t-169 74.5z" />
    <glyph glyph-name="ocircumflex" unicode="&#xf4;" horiz-adv-x="1128" 
d="M784 1527h90q22 0 32 -21l139 -314q4 -7 0 -13t-12 -6h-122q-20 0 -27 20l-67 206l-148 -211q-11 -15 -28 -15h-124q-10 0 -14 8.5t3 16.5l251 317q11 12 27 12zM732 1051h22q196 0 306.5 -127t72.5 -344l-27 -151q-26 -146 -104.5 -250.5t-187.5 -155t-236 -50.5h-23
q-196 0 -306.5 127t-72.5 344l27 151q26 145 105 250t188 155.5t236 50.5zM729 885h-15q-114 0 -197 -75.5t-107 -213.5l-30 -170q-24 -138 31.5 -212.5t169.5 -74.5h14q114 0 197 75.5t107 213.5l30 170q24 138 -31 212.5t-169 74.5z" />
    <glyph glyph-name="otilde" unicode="&#xf5;" horiz-adv-x="1128" 
d="M1034 1379h60q8 0 12 -7.5t0 -14.5q-62 -109 -117.5 -157t-120.5 -48h-8q-32 0 -56 14t-36 30t-32.5 30t-46.5 14q-30 0 -54.5 -16.5t-53.5 -49.5q-11 -11 -25 -11h-60q-8 0 -12 7.5t0 14.5q62 109 117.5 156.5t120.5 47.5h9q27 0 48 -9t34 -21.5t25 -25.5t28 -22t36 -9
q50 0 107 66q11 11 25 11zM732 1051h22q196 0 306.5 -127t72.5 -344l-27 -151q-26 -146 -104.5 -250.5t-187.5 -155t-236 -50.5h-23q-196 0 -306.5 127t-72.5 344l27 151q26 145 105 250t188 155.5t236 50.5zM729 885h-15q-114 0 -197 -75.5t-107 -213.5l-30 -170
q-24 -138 31.5 -212.5t169.5 -74.5h14q114 0 197 75.5t107 213.5l30 170q24 138 -31 212.5t-169 74.5z" />
    <glyph glyph-name="odieresis" unicode="&#xf6;" horiz-adv-x="1128" 
d="M576 1416h144q11 0 17.5 -8t4.5 -18l-31 -175q-5 -26 -32 -26h-145q-11 0 -17 7t-4 18l31 175q5 27 32 27zM911 1416h145q11 0 17 -7.5t4 -18.5l-30 -175q-5 -26 -32 -26h-145q-11 0 -17 7.5t-4 17.5l30 175q5 27 32 27zM732 1051h22q196 0 306.5 -127t72.5 -344
l-27 -151q-26 -145 -105 -250t-188 -155.5t-236 -50.5h-22q-196 0 -306.5 127t-72.5 344l27 151q26 145 105 250t188 155.5t236 50.5zM729 885h-15q-114 0 -197 -75.5t-107 -213.5l-30 -170q-24 -138 31.5 -212.5t169.5 -74.5h14q114 0 197 75.5t107 213.5l30 170
q24 138 -31 212.5t-169 74.5z" />
    <glyph glyph-name="divide" unicode="&#xf7;" 
d="M660 1173h170q11 0 17.5 -7.5t4.5 -18.5l-32 -182q-3 -19 -23 -19h-178q-11 0 -17.5 7.5t-4.5 18.5l31 174q5 27 32 27zM217 724h897q11 0 17 -7.5t4 -17.5l-19 -109q-5 -26 -32 -26h-897q-11 0 -17 7t-4 18l19 108q5 27 32 27zM513 342h170q11 0 17.5 -7.5t4.5 -18.5
l-32 -183q-3 -18 -22 -18h-179q-11 0 -17.5 7.5t-4.5 17.5l31 175q5 27 32 27z" />
    <glyph glyph-name="oslash" unicode="&#xf8;" horiz-adv-x="1128" 
d="M1083 1024h126q11 0 15 -9t-4 -17l-123 -127q66 -121 36 -291l-27 -151q-26 -145 -105 -250t-188 -155.5t-236 -50.5h-22q-150 0 -253 77l-34 -35q-14 -15 -34 -15h-133q-11 0 -15.5 9.5t3.5 17.5l123 126q-66 121 -36 291l27 151q26 145 105 250t188 155.5t236 50.5h22
q152 0 257 -80l37 38q14 15 35 15zM410 596l-30 -170q-10 -56 -5 -107l502 515q-54 51 -148 51h-15q-114 0 -197 -75.5t-107 -213.5zM899 428l30 170q11 58 6 105l-500 -516q54 -48 146 -48h14q114 0 197 75.5t107 213.5z" />
    <glyph glyph-name="ugrave" unicode="&#xf9;" 
d="M551 1527h132q28 0 36 -26l93 -312q2 -7 -1.5 -11.5t-10.5 -4.5h-100q-23 0 -33 21l-128 314q-3 8 0.5 13.5t11.5 5.5zM959 1024h158q11 0 17.5 -7.5t4.5 -18.5l-173 -979q-3 -19 -22 -19h-140q-20 0 -20 21l10 93q-186 -141 -351 -141h-17q-157 0 -222.5 95t-35.5 266
l117 663q5 27 32 27h150q11 0 17.5 -7.5t4.5 -18.5l-112 -634q-20 -115 11.5 -170t133.5 -55h7q120 0 274 109l134 757q3 19 22 19z" />
    <glyph glyph-name="uacute" unicode="&#xfa;" 
d="M921 1527h135q11 0 14.5 -8t-3.5 -16l-238 -314q-13 -16 -33 -16h-103q-10 0 -13.5 7t1.5 15l204 313q12 19 36 19zM959 1024h158q11 0 17.5 -7.5t4.5 -18.5l-173 -979q-3 -19 -22 -19h-140q-20 0 -20 21l10 93q-186 -141 -351 -141h-17q-157 0 -222.5 95t-35.5 266
l117 663q5 27 32 27h150q11 0 17.5 -7.5t4.5 -18.5l-112 -633q-20 -115 11.5 -170.5t133.5 -55.5h7q120 0 274 109l134 757q3 19 22 19z" />
    <glyph glyph-name="ucircumflex" unicode="&#xfb;" 
d="M755 1527h89q23 0 33 -21l139 -314q4 -7 0 -13t-12 -6h-122q-20 0 -27 20l-67 206l-148 -211q-10 -15 -28 -15h-124q-10 0 -14 8.5t3 16.5l251 317q10 12 27 12zM959 1024h158q11 0 17.5 -7.5t4.5 -18.5l-173 -979q-3 -19 -22 -19h-140q-20 0 -20 21l10 93
q-186 -141 -351 -141h-17q-157 0 -222.5 95t-35.5 266l117 663q5 27 32 27h150q11 0 17.5 -7.5t4.5 -18.5l-112 -633q-20 -115 11.5 -170.5t133.5 -55.5h7q120 0 274 109l134 757q3 19 22 19z" />
    <glyph glyph-name="udieresis" unicode="&#xfc;" 
d="M547 1416h144q11 0 17.5 -7.5t4.5 -18.5l-31 -175q-5 -26 -32 -26h-144q-11 0 -17.5 7.5t-4.5 17.5l31 175q5 27 32 27zM883 1416h144q11 0 17.5 -8t4.5 -18l-31 -175q-5 -26 -32 -26h-144q-11 0 -17.5 7.5t-4.5 17.5l31 175q5 27 32 27zM959 1024h158q11 0 17.5 -7.5
t4.5 -18.5l-173 -979q-3 -19 -22 -19h-140q-20 0 -20 21l10 93q-186 -141 -351 -141h-17q-157 0 -222.5 95t-35.5 266l117 663q5 27 32 27h150q11 0 17.5 -7.5t4.5 -18.5l-112 -633q-20 -115 11.5 -170.5t133.5 -55.5h7q120 0 274 109l134 757q3 19 22 19z" />
    <glyph glyph-name="yacute" unicode="&#xfd;" horiz-adv-x="1044" 
d="M915 1527h134q11 0 15 -8t-3 -16l-238 -314q-13 -16 -34 -16h-103q-10 0 -13.5 7t1.5 15l204 313q12 19 37 19zM1006 1024h160q10 0 14.5 -7t0.5 -16l-571 -1079q-78 -147 -162 -219t-212 -72h-15q-72 0 -157 30q-26 8 -21 37l19 110q1 10 9 14t17 1q79 -29 131 -29h6
q54 0 94 31t81 105l39 70h-20q-21 0 -25 21l-173 972q-2 13 6 22t21 9h146q13 0 22 -7.5t10 -20.5l85 -461l38 -363h5l163 363l251 465q11 24 38 24z" />
    <glyph glyph-name="thorn" unicode="&#xfe;" horiz-adv-x="1112" 
d="M411 1509h149q11 0 17.5 -7.5t4.5 -18.5l-103 -560q70 63 153 95.5t164 32.5h15q182 0 262.5 -126t44.5 -332l-29 -164q-39 -220 -166 -338t-308 -118h-16q-72 0 -140.5 32t-115.5 93l-79 -422q-3 -18 -22 -18h-158q-11 0 -17.5 7.5t-4.5 18.5l317 1799q5 26 32 26z
M731 885h-8q-128 0 -267 -119l-90 -507q99 -120 224 -120h7q113 0 186.5 74t98.5 215l30 170q25 141 -22 214t-159 73z" />
    <glyph glyph-name="ydieresis" unicode="&#xff;" horiz-adv-x="1044" 
d="M532 1416h144q11 0 17.5 -8t4.5 -18l-31 -175q-5 -26 -32 -26h-144q-11 0 -17.5 7.5t-4.5 17.5l31 175q5 27 32 27zM868 1416h144q11 0 17.5 -7.5t4.5 -18.5l-31 -175q-5 -26 -32 -26h-144q-11 0 -17.5 7.5t-4.5 17.5l31 175q5 27 32 27zM1006 1024h160q10 0 14.5 -7
t0.5 -16l-571 -1079q-78 -147 -162 -219t-212 -72h-15q-72 0 -157 30q-26 8 -21 37l19 110q1 10 9 14t17 1q79 -29 131 -29h6q54 0 94 31t81 105l39 70h-20q-21 0 -25 21l-173 972q-2 13 6 22t21 9h146q13 0 22 -7.5t10 -20.5l85 -461l38 -363h5l163 363l251 465
q11 24 38 24z" />
    <glyph glyph-name="Amacron" unicode="&#x100;" horiz-adv-x="1304" 
d="M722 1747h477q11 0 17 -8t4 -18l-16 -96q-5 -27 -32 -27h-477q-11 0 -17.5 8t-4.5 18l17 96q5 27 32 27zM772 1434h261q25 0 28 -25l181 -1385q2 -12 -4.5 -18t-15.5 -6h-168q-10 0 -17 7t-8 15l-53 376h-505l-187 -379q-9 -19 -29 -19h-171q-11 0 -16 7.5t-1 17.5
l672 1387q11 22 33 22zM869 1257l-228 -492l-90 -181h410l-23 181l-58 492h-11z" />
    <glyph glyph-name="amacron" unicode="&#x101;" horiz-adv-x="1099" 
d="M578 1338h477q11 0 17 -7t4 -18l-17 -97q-5 -26 -32 -26h-477q-11 0 -17 7t-4 18l17 97q5 26 32 26zM650 1051h7q82 0 158 -42t129 -115l32 111q8 19 28 19h136q11 0 17 -8t4 -18l-172 -979q-3 -19 -23 -19h-139q-9 0 -15 6t-6 15l12 98q-78 -71 -166 -108.5t-172 -37.5
h-7q-181 0 -258 125.5t-41 332.5l31 177q36 207 150 325t295 118zM689 885h-7q-111 0 -181 -73.5t-95 -215.5l-30 -170q-50 -287 172 -287h8q128 0 267 119l91 509q-97 118 -225 118z" />
    <glyph glyph-name="Abreve" unicode="&#x102;" horiz-adv-x="1304" 
d="M1231 1801q9 4 15.5 -1.5t4.5 -14.5l-18 -102q-3 -17 -17 -26q-126 -79 -273 -79q-150 0 -252 76q-18 13 -13 38l17 101q1 7 7 9.5t12 -0.5q51 -27 78.5 -40t73 -25t94.5 -12t99.5 12t82.5 25t89 39zM772 1434h261q25 0 28 -25l182 -1385q2 -12 -5 -18t-16 -6h-168
q-10 0 -17 7t-8 15l-53 376h-505l-187 -379q-9 -19 -29 -19h-171q-11 0 -16 8t-1 18l672 1386q11 22 33 22zM869 1257l-228 -492l-90 -181h410l-23 181l-58 492h-11z" />
    <glyph glyph-name="abreve" unicode="&#x103;" horiz-adv-x="1099" 
d="M1057 1391q9 4 15.5 -1t4.5 -14l-18 -103q-3 -16 -17 -25q-127 -80 -273 -80q-150 0 -252 76q-18 13 -13 38l17 101q1 7 7 9.5t12 -0.5q49 -27 77.5 -40t74 -24.5t94.5 -11.5t99 11.5t83 24.5t89 39zM650 1051h7q82 0 158 -42t129 -115l32 111q8 19 28 19h136
q11 0 17 -7.5t4 -18.5l-172 -979q-3 -19 -23 -19h-139q-9 0 -15 6t-6 15l12 98q-78 -71 -166 -108.5t-172 -37.5h-7q-181 0 -258 125.5t-41 332.5l31 177q36 207 150 325t295 118zM689 885h-7q-111 0 -181 -73.5t-95 -215.5l-30 -170q-50 -287 172 -287h8q128 0 267 119
l91 509q-97 118 -225 118z" />
    <glyph glyph-name="Aogonek" unicode="&#x104;" horiz-adv-x="1304" 
d="M1061 1409l182 -1385q2 -12 -5 -18t-16 -6q-5 -4 -28 -21.5t-29.5 -23t-27 -21.5t-28 -23t-23.5 -22t-23 -24t-18.5 -23t-17 -25.5t-11 -25t-7.5 -26.5q-8 -44 15 -67.5t69 -23.5q22 0 53 7q8 1 12 -3t3 -12l-11 -64q-3 -18 -19 -24q-46 -18 -96 -18q-86 0 -132 50.5
t-29 135.5q12 63 63 123t157 131h-40q-10 0 -17 7t-8 15l-53 376h-505l-187 -379q-9 -19 -29 -19h-171q-11 0 -16 7.5t-1 17.5l672 1387q11 22 33 22h261q25 0 28 -25zM961 584l-23 181l-58 492h-11l-228 -492l-90 -181h410z" />
    <glyph glyph-name="aogonek" unicode="&#x105;" horiz-adv-x="1099" 
d="M1004 1024h136q11 0 17 -7.5t4 -18.5l-172 -979q-3 -19 -23 -19q-109 -84 -142 -118q-61 -60 -70 -117q-8 -44 14.5 -67.5t68.5 -23.5q22 0 53 7q8 2 12.5 -3t3.5 -12l-11 -64q-3 -18 -19 -24q-46 -18 -96 -18q-86 0 -132 50.5t-29 135.5q12 62 63 122.5t157 131.5h-12
q-9 0 -15 6t-6 15l12 98q-78 -71 -166 -108.5t-172 -37.5h-7q-181 0 -258 125.5t-41 332.5l31 177q36 207 150 325t295 118h7q82 0 158 -42t129 -115l32 111q8 19 28 19zM823 258l91 509q-97 118 -225 118h-7q-111 0 -181 -73.5t-95 -215.5l-30 -170q-50 -287 172 -287h8
q128 0 267 119z" />
    <glyph glyph-name="Cacute" unicode="&#x106;" horiz-adv-x="1181" 
d="M1165 1937h134q11 0 15 -8.5t-3 -16.5l-238 -314q-12 -15 -33 -15h-103q-10 0 -13.5 7t1.5 15l203 312q12 20 37 20zM978 1460h26q174 0 317 -76q24 -11 19 -39l-23 -134q-1 -10 -10 -14.5t-19 0.5q-79 40 -144 58.5t-147 18.5h-12q-117 0 -218.5 -51.5t-176.5 -157.5
t-101 -252l-34 -195q-38 -217 57 -338t275 -121h12q83 0 154.5 19t165.5 60q10 4 17.5 -1.5t5.5 -16.5l-23 -133q-5 -28 -30 -39q-164 -75 -335 -75h-25q-94 0 -177.5 27t-150.5 79.5t-110.5 131t-58.5 181.5t7 230l35 205q26 151 95.5 273t165.5 199.5t210 119t233 41.5z
" />
    <glyph glyph-name="cacute" unicode="&#x107;" horiz-adv-x="974" 
d="M892 1527h134q11 0 15 -8t-3 -16l-238 -314q-13 -16 -34 -16h-103q-10 0 -13.5 7t1.5 15l204 313q12 19 37 19zM739 1051h23q125 0 262 -72q26 -11 21 -40l-20 -112q-2 -10 -11 -14.5t-19 0.5q-71 38 -122.5 55t-106.5 17h-14q-127 0 -223.5 -82.5t-122.5 -231.5
l-21 -120q-26 -149 39.5 -230.5t193.5 -81.5h15q55 0 112.5 17.5t144.5 56.5q10 4 17.5 -2t5.5 -17l-20 -113q-5 -27 -28 -36q-157 -72 -280 -72h-23q-203 0 -312 131t-71 352l21 127q25 145 103 252t190.5 161.5t245.5 54.5z" />
    <glyph glyph-name="Cdotaccent" unicode="&#x10a;" horiz-adv-x="1181" 
d="M976 1825h171q11 0 17.5 -7.5t4.5 -17.5l-31 -175q-5 -27 -32 -27h-171q-11 0 -17 8t-4 18l31 175q5 26 31 26zM978 1460h26q174 0 317 -76q24 -11 19 -39l-23 -134q-1 -10 -10 -14.5t-19 0.5q-79 40 -144 58.5t-147 18.5h-12q-117 0 -218.5 -51.5t-176.5 -157.5
t-101 -252l-34 -195q-38 -217 57 -338t275 -121h12q83 0 154.5 19t165.5 60q10 4 17.5 -1.5t5.5 -16.5l-23 -133q-5 -28 -30 -39q-164 -75 -335 -75h-25q-94 0 -177.5 27t-150.5 79.5t-110.5 131t-58.5 181.5t7 230l35 205q26 151 95.5 273t165.5 199.5t210 119t233 41.5z
" />
    <glyph glyph-name="cdotaccent" unicode="&#x10b;" horiz-adv-x="974" 
d="M719 1416h171q11 0 17 -8t4 -18l-31 -175q-5 -26 -31 -26h-171q-11 0 -17.5 7.5t-4.5 17.5l31 175q5 27 32 27zM739 1051h23q125 0 262 -72q26 -11 21 -40l-20 -112q-2 -10 -11 -14.5t-19 0.5q-71 38 -122.5 55t-106.5 17h-14q-127 0 -223.5 -82.5t-122.5 -231.5
l-21 -120q-26 -149 39.5 -230.5t193.5 -81.5h15q55 0 112.5 17.5t144.5 56.5q10 4 17.5 -2t5.5 -17l-20 -113q-5 -27 -28 -36q-157 -72 -280 -72h-23q-203 0 -312 131t-71 352l21 127q25 145 103 252t190.5 161.5t245.5 54.5z" />
    <glyph glyph-name="Ccaron" unicode="&#x10c;" horiz-adv-x="1181" 
d="M1219 1937h118q11 0 15 -8.5t-3 -16.5l-252 -317q-11 -12 -26 -12h-95q-18 0 -25 15l-142 320q-4 7 0.5 13t12.5 6h122q20 0 27 -20l67 -206l145 207q13 19 36 19zM978 1460h26q174 0 317 -76q24 -11 19 -39l-23 -134q-1 -10 -10 -14.5t-19 0.5q-79 40 -144 58.5
t-147 18.5h-12q-117 0 -218.5 -51.5t-176.5 -157.5t-101 -252l-34 -195q-38 -217 57 -338t275 -121h12q83 0 154.5 19t165.5 60q10 4 17.5 -1.5t5.5 -16.5l-23 -133q-5 -28 -30 -39q-164 -75 -335 -75h-25q-94 0 -177.5 27t-150.5 79.5t-110.5 131t-58.5 181.5t7 230l35 205
q26 151 95.5 273t165.5 199.5t210 119t233 41.5z" />
    <glyph glyph-name="ccaron" unicode="&#x10d;" horiz-adv-x="974" 
d="M938 1527h119q11 0 15 -8.5t-3 -16.5l-252 -317q-11 -12 -26 -12h-96q-17 0 -25 16l-141 319q-4 7 0 13t12 6h122q21 0 28 -20l67 -206l144 208q12 18 36 18zM739 1051h23q125 0 262 -72q26 -11 21 -40l-20 -112q-1 -10 -10 -14.5t-19 0.5q-71 38 -122.5 55t-107.5 17
h-14q-127 0 -223.5 -82.5t-122.5 -231.5l-21 -120q-26 -149 39.5 -230.5t193.5 -81.5h15q55 0 112.5 17.5t144.5 56.5q10 4 17.5 -2t5.5 -17l-20 -113q-5 -27 -28 -36q-157 -72 -280 -72h-23q-203 0 -312 131t-71 352l21 127q25 145 103 252t190.5 161.5t245.5 54.5z" />
    <glyph glyph-name="Dcaron" unicode="&#x10e;" horiz-adv-x="1343" 
d="M1038 1937h119q10 0 14 -8.5t-3 -16.5l-252 -317q-10 -12 -26 -12h-95q-17 0 -25 15l-141 320q-4 7 0 13t12 6h122q20 0 27 -20l67 -207l145 208q13 19 36 19zM434 1434h467q118 0 212.5 -38.5t159.5 -116t87.5 -194.5t-3.5 -275l-35 -201q-27 -154 -90.5 -272t-152 -191
t-194 -109.5t-224.5 -36.5h-480q-11 0 -17.5 7.5t-4.5 18.5l244 1381q5 27 31 27zM1110 622l34 191q39 219 -38.5 327t-254.5 108h-264l-188 -1062h263q177 0 293 108.5t155 327.5z" />
    <glyph glyph-name="dcaron" unicode="&#x10f;" horiz-adv-x="1376" 
d="M1083 1509h151q11 0 17 -7t4 -18l-258 -1465q-3 -19 -22 -19h-140q-9 0 -15 6t-6 15l12 91q-72 -67 -158.5 -103t-171.5 -36h-15q-183 0 -263 126t-44 332l29 164q39 221 165.5 338.5t308.5 117.5h15q72 0 141 -32.5t116 -92.5l103 557q5 26 31 26zM1398 1509h176
q11 0 17 -7.5t5 -17.5l-22 -135q-3 -17 -12 -30l-138 -225q-10 -15 -29 -15h-96q-10 0 -13.5 7t1.5 15l132 216h-55q-11 0 -17.5 8t-4.5 18l25 140q5 26 31 26zM702 885h-7q-114 0 -187 -74t-98 -215l-30 -170q-25 -141 21.5 -214t159.5 -73h7q129 0 268 119l90 507
q-99 120 -224 120z" />
    <glyph glyph-name="Dcroat" unicode="&#x110;" horiz-adv-x="1343" 
d="M434 1434h467q118 0 212.5 -38.5t159.5 -116t87.5 -194.5t-3.5 -275l-35 -201q-27 -154 -90.5 -272t-152 -191t-194 -109.5t-224.5 -36.5h-480q-11 0 -17.5 8t-4.5 18l98 558h-66q-11 0 -17.5 7.5t-4.5 17.5l19 109q5 26 32 26h66l117 663q5 27 31 27zM1110 622l34 191
q39 219 -38.5 327t-254.5 108h-264l-89 -504h308q11 0 17.5 -7.5t4.5 -17.5l-20 -109q-5 -26 -31 -26h-307l-71 -398h263q177 0 293 108.5t155 327.5z" />
    <glyph glyph-name="dcroat" unicode="&#x111;" horiz-adv-x="1107" 
d="M1234 1361h91q11 0 17.5 -7.5t4.5 -17.5l-17 -97q-5 -26 -32 -26h-91l-210 -1194q-3 -19 -22 -19h-140q-9 0 -15 6t-6 15l12 91q-72 -67 -158.5 -103t-171.5 -36h-15q-183 0 -263 126t-44 332l29 164q39 221 165.5 338.5t308.5 117.5h15q72 0 141 -32.5t116 -92.5l53 287
h-191q-11 0 -17.5 7.5t-4.5 17.5l17 97q5 26 32 26h191l23 122q5 26 31 26h151q11 0 17 -7.5t4 -17.5zM836 258l90 507q-99 120 -224 120h-7q-114 0 -187 -74t-98 -215l-30 -170q-25 -141 21.5 -214t159.5 -73h7q129 0 268 119z" />
    <glyph glyph-name="Emacron" unicode="&#x112;" horiz-adv-x="1124" 
d="M659 1747h477q11 0 17 -7.5t4 -18.5l-17 -96q-5 -27 -31 -27h-478q-11 0 -17 7.5t-4 18.5l17 96q5 27 32 27zM512 827h604q11 0 17.5 -7.5t4.5 -18.5l-25 -141q-3 -19 -22 -19h-611l-81 -455h655q11 0 17.5 -7.5t4.5 -18.5l-25 -141q-3 -19 -22 -19h-848q-11 0 -17.5 8
t-4.5 18l244 1381q5 27 31 27h840q11 0 17.5 -8t4.5 -18l-25 -142q-3 -18 -22 -18h-662z" />
    <glyph glyph-name="emacron" unicode="&#x113;" horiz-adv-x="1069" 
d="M533 1338h477q11 0 17 -7t4 -18l-17 -97q-5 -26 -31 -26h-478q-11 0 -17 7t-4 18l17 97q5 26 32 26zM722 1051h22q188 0 280.5 -121t53.5 -341l-15 -89q-3 -21 -24 -21h-648l-12 -71q-23 -129 45 -200.5t196 -71.5h9q114 0 316 78q10 4 17 -2t5 -17l-20 -113
q-5 -28 -30 -37q-79 -32 -170.5 -52t-165.5 -20h-18q-208 0 -316.5 126.5t-71.5 337.5l24 134q26 150 104 260t186 165t233 55zM717 898h-12q-107 0 -186.5 -79t-106.5 -216l478 1q28 149 -15 221.5t-158 72.5z" />
    <glyph glyph-name="Edotaccent" unicode="&#x116;" horiz-adv-x="1124" 
d="M829 1825h170q11 0 17.5 -7.5t4.5 -17.5l-31 -175q-5 -27 -32 -27h-170q-11 0 -17.5 8t-4.5 18l31 175q5 26 32 26zM512 827h604q11 0 17.5 -8t4.5 -18l-25 -141q-3 -19 -22 -19h-611l-81 -455h655q11 0 17.5 -8t4.5 -18l-25 -141q-3 -19 -22 -19h-848q-11 0 -17.5 7.5
t-4.5 18.5l244 1381q5 27 31 27h840q11 0 17.5 -7.5t4.5 -18.5l-25 -142q-3 -18 -22 -18h-662z" />
    <glyph glyph-name="edotaccent" unicode="&#x117;" horiz-adv-x="1069" 
d="M700 1416h170q11 0 17.5 -7.5t4.5 -18.5l-31 -175q-5 -26 -32 -26h-170q-11 0 -17.5 7.5t-4.5 17.5l31 175q5 27 32 27zM722 1051h22q188 0 280.5 -121t53.5 -341l-15 -89q-3 -21 -24 -21h-648l-12 -71q-23 -129 45 -200.5t196 -71.5h9q114 0 316 78q10 4 17 -2t5 -17
l-20 -113q-5 -28 -30 -37q-79 -32 -170.5 -52t-165.5 -20h-18q-208 0 -316.5 126.5t-71.5 337.5l24 134q26 150 104 260t186 165t233 55zM717 898h-12q-107 0 -186.5 -79t-106.5 -216l478 1q28 149 -15 221.5t-158 72.5z" />
    <glyph glyph-name="Eogonek" unicode="&#x118;" horiz-adv-x="1124" 
d="M434 1434h840q11 0 17.5 -7.5t4.5 -18.5l-25 -142q-3 -18 -22 -18h-662l-75 -421h604q11 0 17.5 -7.5t4.5 -18.5l-25 -141q-3 -19 -22 -19h-611l-81 -455h655q11 0 17.5 -7.5t4.5 -18.5l-25 -141q-3 -19 -22 -19q-5 -4 -28 -21.5t-29.5 -23t-27 -21.5t-28 -23t-23.5 -22
t-23 -24t-18.5 -23t-17 -25.5t-11 -25t-7.5 -26.5q-8 -44 15 -67.5t69 -23.5q21 0 52 7q8 2 12.5 -3t3.5 -12l-11 -64q-3 -18 -19 -24q-46 -18 -96 -18q-86 0 -132 50.5t-29 135.5q12 64 64.5 125t156.5 129h-721q-11 0 -17.5 8t-4.5 18l244 1381q5 27 31 27z" />
    <glyph glyph-name="eogonek" unicode="&#x119;" horiz-adv-x="1069" 
d="M722 1051h22q188 0 280.5 -121t53.5 -341l-15 -89q-3 -21 -24 -21h-648l-12 -71q-23 -129 45 -200.5t196 -71.5h9q114 0 316 78q10 4 17 -2t5 -17l-20 -113q-5 -28 -30 -37q-76 -31 -152 -48q-109 -84 -143 -118q-57 -59 -66 -114q-8 -44 14.5 -67.5t68.5 -23.5
q22 0 53 7q8 2 12.5 -3t3.5 -12l-11 -64q-3 -18 -19 -24q-46 -18 -96 -18q-86 0 -132 50.5t-29 135.5q23 116 182 228q-4 0 -11.5 -0.5t-10.5 -0.5h-18q-208 0 -316.5 126.5t-71.5 337.5l24 134q26 150 104 260t186 165t233 55zM412 603l478 1q28 149 -15 221.5t-158 72.5
h-12q-107 0 -186.5 -79t-106.5 -216z" />
    <glyph glyph-name="Ecaron" unicode="&#x11a;" horiz-adv-x="1124" 
d="M1067 1937h119q11 0 15 -8.5t-3 -16.5l-252 -317q-10 -12 -26 -12h-95q-17 0 -25 15l-142 320q-4 7 0 13t12 6h123q20 0 27 -20l67 -206l145 207q13 19 35 19zM512 827h604q11 0 17.5 -7.5t4.5 -18.5l-25 -141q-3 -19 -22 -19h-611l-81 -455h655q11 0 17.5 -7.5
t4.5 -18.5l-25 -141q-3 -19 -22 -19h-848q-11 0 -17.5 8t-4.5 18l244 1381q5 27 31 27h840q11 0 17.5 -8t4.5 -18l-25 -142q-3 -18 -22 -18h-662z" />
    <glyph glyph-name="ecaron" unicode="&#x11b;" horiz-adv-x="1069" 
d="M945 1527h119q11 0 15 -8.5t-3 -16.5l-252 -317q-10 -12 -26 -12h-95q-17 0 -25 16l-142 319q-4 7 0 13t12 6h123q20 0 27 -20l67 -206l145 208q12 18 35 18zM722 1051h22q188 0 280.5 -121t53.5 -341l-15 -89q-3 -21 -24 -21h-648l-12 -71q-23 -129 45 -200.5t196 -71.5
h9q114 0 316 78q10 4 17 -2t5 -17l-20 -113q-5 -28 -30 -37q-79 -32 -170.5 -52t-165.5 -20h-18q-208 0 -316.5 126.5t-71.5 337.5l24 134q26 150 104 260t186 165t233 55zM717 898h-12q-107 0 -186.5 -79t-106.5 -216l478 1q28 149 -15 221.5t-158 72.5z" />
    <glyph glyph-name="Gbreve" unicode="&#x11e;" horiz-adv-x="1310" 
d="M1331 1801q9 4 15.5 -1.5t4.5 -14.5l-18 -102q-3 -17 -17 -26q-126 -79 -273 -79q-150 0 -252 76q-19 14 -14 38l18 101q4 16 18 9q50 -27 78 -40.5t74 -25t95 -11.5t99.5 12t82.5 25t89 39zM1003 1460h25q175 0 318 -77q24 -11 19 -39l-24 -133q-2 -11 -10 -15t-18 0
q-89 43 -149 60.5t-142 17.5h-12q-121 0 -228.5 -51.5t-187 -158t-105.5 -251.5l-34 -195q-39 -219 53 -339t277 -120h12q93 0 194 43l87 490q5 26 32 26h159q10 0 16.5 -7t4.5 -18l-100 -574q-5 -29 -32 -46q-73 -43 -178 -71.5t-208 -28.5h-27q-97 0 -184 27.5t-156 81
t-114 132.5t-60 181t7 226l36 206q21 122 73 225.5t123 177.5t158.5 126.5t182.5 78t192 25.5z" />
    <glyph glyph-name="gbreve" unicode="&#x11f;" horiz-adv-x="1097" 
d="M1056 1391q9 4 15.5 -1.5t4.5 -14.5l-18 -102q-3 -16 -17 -25q-127 -80 -273 -80q-153 0 -252 76q-18 13 -13 38l17 101q1 7 7 9.5t12 -0.5q49 -27 77.5 -40t74 -24.5t94.5 -11.5t99 11.5t83 24.5t89 39zM702 1051h18q103 0 209.5 -33.5t186.5 -82.5q25 -16 20 -46
l-144 -848q-32 -191 -165.5 -300.5t-332.5 -109.5h-10q-156 0 -328 67q-28 10 -23 38l20 114q2 10 10 14.5t18 0.5q155 -74 278 -74h9q140 0 218 63.5t101 194.5l16 91q-154 -132 -310 -132h-15q-182 0 -257.5 124t-39.5 333l22 131q38 221 170.5 338t328.5 117zM697 888h-9
q-110 0 -182.5 -73.5t-97.5 -213.5l-25 -142q-50 -286 172 -286h7q128 0 267 119l94 524q-115 72 -226 72z" />
    <glyph glyph-name="Gdotaccent" unicode="&#x120;" horiz-adv-x="1310" 
d="M965 1825h171q11 0 17 -7t4 -18l-30 -175q-5 -27 -32 -27h-171q-11 0 -17 7.5t-4 18.5l30 175q5 26 32 26zM1003 1460h25q175 0 318 -77q24 -11 19 -39l-24 -133q-2 -11 -10 -15t-18 0q-89 43 -149 60.5t-142 17.5h-12q-121 0 -228.5 -51.5t-187 -158t-105.5 -251.5
l-34 -195q-39 -219 53 -339t277 -120h12q93 0 194 43l87 490q5 26 32 26h159q10 0 16.5 -7t4.5 -18l-100 -574q-5 -29 -32 -46q-73 -43 -178 -71.5t-208 -28.5h-27q-97 0 -184 27.5t-156 81t-114 132.5t-60 181t7 226l36 206q21 122 73 225.5t123 177.5t158.5 126.5
t182.5 78t192 25.5z" />
    <glyph glyph-name="gdotaccent" unicode="&#x121;" horiz-adv-x="1097" 
d="M710 1400h171q11 0 17 -7.5t4 -18.5l-31 -174q-5 -27 -31 -27h-171q-11 0 -17.5 7.5t-4.5 18.5l31 174q5 27 32 27zM702 1051h18q103 0 209.5 -33.5t186.5 -82.5q25 -16 20 -46l-144 -848q-33 -191 -166 -300.5t-332 -109.5h-10q-156 0 -328 67q-28 10 -23 38l20 114
q2 10 10 14.5t18 0.5q155 -74 278 -74h9q140 0 218 63.5t101 194.5l16 91q-154 -132 -310 -132h-15q-182 0 -257.5 124t-39.5 333l22 131q38 221 170.5 338t328.5 117zM697 888h-9q-110 0 -182.5 -73.5t-97.5 -213.5l-25 -142q-50 -286 172 -286h7q128 0 267 119l94 524
q-115 72 -226 72z" />
    <glyph glyph-name="Gcommaaccent" unicode="&#x122;" horiz-adv-x="1310" 
d="M1003 1460h25q175 0 318 -77q24 -11 19 -39l-24 -133q-2 -11 -10 -15t-18 0q-89 43 -149 60.5t-142 17.5h-12q-121 0 -228.5 -51.5t-187 -158t-105.5 -251.5l-34 -195q-39 -219 53 -339t277 -120h12q93 0 194 43l87 490q5 26 32 26h159q10 0 16.5 -7t4.5 -18l-100 -574
q-5 -29 -32 -46q-73 -43 -178 -71.5t-208 -28.5h-27q-97 0 -184 27.5t-156 81t-114 132.5t-60 181t7 226l36 206q21 122 73 225.5t123 177.5t158.5 126.5t182.5 78t192 25.5zM637 -102h176q10 0 16.5 -7.5t4.5 -18.5l-22 -135q-3 -15 -12 -29l-138 -225q-11 -16 -29 -16h-96
q-10 0 -13.5 7.5t1.5 15.5l132 215h-55q-11 0 -17.5 8t-4.5 18l25 140q5 27 32 27z" />
    <glyph glyph-name="gcommaaccent" unicode="&#x123;" horiz-adv-x="1097" 
d="M837 1173h-176q-10 0 -16.5 7t-4.5 18l22 136q3 15 12 29l138 225q11 16 29 16h96q10 0 13.5 -7.5t-1.5 -15.5l-132 -216h55q11 0 17.5 -8t4.5 -18l-25 -139q-5 -27 -32 -27zM702 1051h18q103 0 209.5 -33.5t186.5 -82.5q25 -16 20 -46l-144 -848q-32 -191 -165.5 -300.5
t-332.5 -109.5h-10q-156 0 -328 67q-28 10 -23 38l20 114q2 10 10 14.5t18 0.5q155 -74 278 -74h9q140 0 218 63.5t101 194.5l16 91q-154 -132 -310 -132h-15q-182 0 -257.5 124t-39.5 333l22 131q38 221 170.5 338t328.5 117zM697 888h-9q-110 0 -182.5 -73.5t-97.5 -213.5
l-25 -142q-50 -286 172 -286h7q128 0 267 119l94 524q-115 72 -226 72z" />
    <glyph glyph-name="Hbar" unicode="&#x126;" horiz-adv-x="1452" 
d="M1472 1170h98q11 0 17.5 -7.5t4.5 -18.5l-19 -108q-5 -27 -32 -27h-97l-175 -990q-3 -19 -22 -19h-167q-11 0 -17.5 8t-4.5 18l109 615h-657l-110 -622q-3 -19 -22 -19h-167q-11 0 -17 7.5t-4 18.5l173 983h-97q-11 0 -17.5 8t-4.5 18l19 108q5 27 32 27h96l42 237
q5 27 32 27h159q11 0 17 -7.5t4 -18.5l-42 -238h657l42 237q5 27 32 27h158q11 0 17.5 -8t4.5 -18zM1232 1009h-657l-32 -182h657z" />
    <glyph glyph-name="hbar" unicode="&#x127;" horiz-adv-x="1103" 
d="M822 1051h17q161 0 234 -96t43 -265l-118 -671q-3 -19 -22 -19h-158q-11 0 -17.5 8t-4.5 18l112 633q20 113 -18.5 169.5t-146.5 56.5h-7q-122 0 -278 -111l-134 -755q-3 -19 -22 -19h-158q-11 0 -17.5 8t-4.5 18l210 1187h-92q-11 0 -17.5 7.5t-4.5 17.5l17 97
q5 26 32 26h91l21 122q5 26 32 26h149q11 0 17.5 -7.5t4.5 -18.5l-23 -122h196q11 0 17 -7.5t4 -17.5l-17 -97q-5 -26 -32 -26h-195l-55 -298q181 136 345 136z" />
    <glyph glyph-name="Imacron" unicode="&#x12a;" horiz-adv-x="520" 
d="M332 1747h477q11 0 17 -8t4 -18l-17 -96q-5 -27 -32 -27h-477q-11 0 -17 8t-4 18l17 96q5 27 32 27zM434 1434h159q11 0 17.5 -8t4.5 -18l-245 -1389q-3 -19 -22 -19h-167q-11 0 -17.5 7.5t-4.5 18.5l244 1381q5 27 31 27z" />
    <glyph glyph-name="imacron" unicode="&#x12b;" horiz-adv-x="434" 
d="M213 1337h477q11 0 17 -7t4 -18l-17 -97q-5 -26 -31 -26h-478q-11 0 -17 7t-4 18l17 97q5 26 32 26zM325 1024h149q11 0 17.5 -8t4.5 -18l-173 -979q-3 -19 -22 -19h-158q-11 0 -17 7.5t-4 18.5l171 971q5 27 32 27z" />
    <glyph glyph-name="Iogonek" unicode="&#x12e;" horiz-adv-x="520" 
d="M434 1434h159q11 0 17.5 -7.5t4.5 -18.5l-245 -1389q-3 -19 -22 -19q-5 -4 -28 -21.5t-29.5 -23t-27 -21.5t-28 -23t-23.5 -22t-23 -24t-18.5 -23t-17 -25.5t-11 -25t-7.5 -26.5q-8 -44 14.5 -67.5t68.5 -23.5q22 0 53 7q8 2 12.5 -3t3.5 -12l-11 -64q-3 -18 -19 -24
q-46 -18 -96 -18q-86 0 -132 50.5t-29 135.5q12 62 63 122.5t157 131.5h-39q-11 0 -17.5 8t-4.5 18l244 1381q5 27 31 27z" />
    <glyph glyph-name="iogonek" unicode="&#x12f;" horiz-adv-x="434" 
d="M384 1416h171q11 0 17 -7.5t4 -18.5l-30 -175q-5 -26 -32 -26h-171q-11 0 -17 7t-4 18l30 175q5 27 32 27zM325 1024h149q11 0 17.5 -8t4.5 -18l-173 -979q-3 -19 -22 -19h-32l35 -6q-6 -5 -28.5 -22t-30 -22.5t-27.5 -21.5t-28 -23.5t-24.5 -22.5t-24 -24.5t-19 -24
t-17 -26.5t-11 -26.5t-8.5 -28.5q-7 -39 13.5 -58.5t61.5 -19.5q31 0 63 16q20 -14 17 -27l-11 -63q-4 -22 -19 -33q-61 -7 -90 -7q-84 0 -132.5 49t-32.5 138q21 117 208 253h-21q-11 0 -17 8t-4 18l171 971q5 27 32 27z" />
    <glyph glyph-name="Idotaccent" unicode="&#x130;" horiz-adv-x="520" 
d="M499 1825h170q11 0 17.5 -7.5t4.5 -17.5l-31 -175q-5 -27 -32 -27h-170q-11 0 -17.5 8t-4.5 18l31 175q5 26 32 26zM434 1434h159q11 0 17.5 -7.5t4.5 -18.5l-245 -1389q-3 -19 -22 -19h-167q-11 0 -17.5 8t-4.5 18l244 1381q5 27 31 27z" />
    <glyph glyph-name="dotlessi" unicode="&#x131;" horiz-adv-x="434" 
d="M325 1024h150q11 0 17 -8t4 -18l-172 -979q-3 -19 -23 -19h-158q-11 0 -17 7.5t-4 18.5l171 971q5 27 32 27z" />
    <glyph glyph-name="IJ" unicode="&#x132;" horiz-adv-x="1323" 
d="M434 1434h159q11 0 17.5 -7.5t4.5 -18.5l-245 -1389q-3 -19 -22 -19h-167q-11 0 -17.5 8t-4.5 18l244 1381q5 27 31 27zM1231 1434h164q11 0 17 -8t4 -18l-181 -1027q-38 -213 -150.5 -310.5t-273.5 -97.5h-11q-96 0 -194 49q-17 8 -14 28l25 140q2 11 10 15t18 0
q79 -46 145 -46h8q85 0 142.5 55.5t78.5 173.5l180 1019q5 27 32 27z" />
    <glyph glyph-name="ij" unicode="&#x133;" horiz-adv-x="913" 
d="M392 1402h164q11 0 17 -8t4 -18l-28 -161q-5 -26 -32 -26h-164q-11 0 -17.5 7.5t-4.5 17.5l29 161q5 27 32 27zM857 1402h164q11 0 17 -7.5t4 -18.5l-28 -161q-5 -26 -32 -26h-164q-11 0 -17.5 7.5t-4.5 17.5l29 161q5 27 32 27zM333 1024h149q11 0 17.5 -7.5t4.5 -18.5
l-173 -979q-3 -19 -22 -19h-158q-11 0 -17.5 8t-4.5 18l172 971q5 27 32 27zM799 1024h149q11 0 17 -7.5t4 -18.5l-194 -1102q-23 -131 -100.5 -198t-187.5 -67h-18q-70 0 -138 28q-20 8 -17 31l19 104q2 9 9 13.5t16 1.5q46 -18 86 -18h9q101 0 121 114l193 1092
q5 27 32 27z" />
    <glyph glyph-name="Kcommaaccent" unicode="&#x136;" horiz-adv-x="1277" 
d="M872 727l345 -705q4 -8 -1 -15t-14 -7h-184q-30 0 -41 27l-305 601h-195l-107 -609q-3 -19 -22 -19h-167q-11 0 -17.5 8t-4.5 18l244 1381q5 27 31 27h159q11 0 17.5 -8t4.5 -18l-105 -594h187l500 603q12 17 33 17h185q12 0 16.5 -9.5t-2.5 -19.5zM540 -102h176
q10 0 17 -7.5t5 -18.5l-22 -135q-3 -15 -12 -29l-139 -225q-11 -16 -29 -16h-95q-10 0 -13.5 7.5t1.5 15.5l132 215h-56q-11 0 -17 7.5t-4 18.5l24 140q5 27 32 27z" />
    <glyph glyph-name="kcommaaccent" unicode="&#x137;" horiz-adv-x="1026" 
d="M411 1509h150q11 0 17 -7.5t4 -17.5l-154 -878h146l324 401q12 17 33 17h171q12 0 16.5 -9t-2.5 -19l-374 -464l246 -510q4 -8 -1 -15t-14 -7h-175q-29 0 -40 27l-208 418h-151l-75 -426q-3 -19 -22 -19h-158q-11 0 -17.5 8t-4.5 18l257 1457q5 26 32 26zM415 -102h176
q10 0 16.5 -7.5t4.5 -18.5l-22 -135q-3 -15 -12 -29l-138 -225q-11 -16 -29 -16h-96q-10 0 -13.5 7.5t1.5 15.5l132 215h-55q-11 0 -17.5 8t-4.5 18l25 140q5 27 32 27z" />
    <glyph glyph-name="Lacute" unicode="&#x139;" horiz-adv-x="1058" 
d="M717 1937h135q11 0 15 -8.5t-3 -16.5l-239 -314q-12 -15 -33 -15h-103q-10 0 -13.5 7t1.5 15l204 312q12 20 36 20zM399 186h604q11 0 17.5 -7.5t4.5 -18.5l-26 -144q-3 -16 -19 -16h-799q-11 0 -17.5 7.5t-4.5 18.5l244 1381q5 27 31 27h159q11 0 17.5 -7.5t4.5 -18.5z
" />
    <glyph glyph-name="lacute" unicode="&#x13a;" horiz-adv-x="430" 
d="M687 2013h135q10 0 14 -8.5t-3 -16.5l-238 -314q-13 -16 -33 -16h-103q-10 0 -13.5 7.5t1.5 15.5l204 312q12 20 36 20zM411 1509h150q11 0 17 -7.5t4 -17.5l-258 -1465q-3 -19 -22 -19h-158q-11 0 -17.5 7.5t-4.5 18.5l257 1457q5 26 32 26z" />
    <glyph glyph-name="Lcommaaccent" unicode="&#x13b;" horiz-adv-x="1058" 
d="M399 186h604q11 0 17.5 -8t4.5 -18l-25 -144q-3 -16 -20 -16h-799q-11 0 -17.5 8t-4.5 18l244 1381q5 27 31 27h159q11 0 17.5 -8t4.5 -18zM431 -102h176q10 0 17 -7.5t5 -18.5l-22 -135q-3 -15 -12 -29l-139 -226q-10 -15 -29 -15h-95q-10 0 -13.5 7.5t1.5 15.5l132 215
h-56q-11 0 -17 7.5t-4 18.5l24 140q5 27 32 27z" />
    <glyph glyph-name="lcommaaccent" unicode="&#x13c;" horiz-adv-x="430" 
d="M411 1509h150q11 0 17 -7t4 -18l-258 -1465q-3 -19 -22 -19h-158q-11 0 -17.5 8t-4.5 18l257 1457q5 26 32 26zM117 -102h176q10 0 16.5 -7.5t4.5 -18.5l-22 -135q-3 -17 -11 -29l-139 -225q-11 -16 -29 -16h-95q-10 0 -13.5 7.5t1.5 15.5l132 215h-56q-11 0 -17.5 8
t-4.5 18l25 140q5 27 32 27z" />
    <glyph glyph-name="Lcaron" unicode="&#x13d;" horiz-adv-x="1058" 
d="M399 186h604q11 0 17.5 -8t4.5 -18l-25 -144q-3 -16 -20 -16h-799q-11 0 -17.5 8t-4.5 18l244 1381q5 27 31 27h159q11 0 17.5 -8t4.5 -18zM982 1434h176q10 0 17 -7.5t5 -18.5l-22 -135q-3 -17 -12 -30l-139 -225q-11 -15 -29 -15h-95q-10 0 -13.5 7.5t1.5 15.5l132 215
h-56q-11 0 -17 7.5t-4 18.5l24 140q5 27 32 27z" />
    <glyph glyph-name="lcaron" unicode="&#x13e;" horiz-adv-x="702" 
d="M411 1509h150q11 0 17 -7t4 -18l-258 -1465q-3 -19 -22 -19h-158q-11 0 -17.5 8t-4.5 18l257 1457q5 26 32 26zM726 1509h176q11 0 17 -7.5t5 -17.5l-22 -135q-3 -17 -12 -30l-139 -225q-11 -15 -28 -15h-96q-10 0 -13.5 7.5t1.5 14.5l132 216h-56q-11 0 -17 8t-4 18
l24 140q5 26 32 26z" />
    <glyph glyph-name="Ldot" unicode="&#x13f;" horiz-adv-x="1058" 
d="M399 186h604q11 0 17.5 -8t4.5 -18l-25 -144q-3 -16 -20 -16h-799q-11 0 -17.5 8t-4.5 18l244 1381q5 27 31 27h159q11 0 17.5 -8t4.5 -18zM861 716h171q11 0 17 -7.5t4 -17.5l-31 -175q-5 -27 -31 -27h-171q-11 0 -17.5 8t-4.5 18l31 175q5 26 32 26z" />
    <glyph glyph-name="ldot" unicode="&#x140;" horiz-adv-x="696" 
d="M411 1509h150q11 0 17 -7t4 -18l-258 -1465q-3 -19 -22 -19h-158q-11 0 -17.5 8t-4.5 18l257 1457q5 26 32 26zM585 716h171q11 0 17.5 -7.5t4.5 -17.5l-31 -175q-5 -27 -32 -27h-171q-11 0 -17 7.5t-4 18.5l30 175q5 26 32 26z" />
    <glyph glyph-name="Lslash" unicode="&#x141;" horiz-adv-x="1136" 
d="M477 186h604q11 0 17 -7.5t4 -18.5l-25 -144q-3 -16 -19 -16h-800q-11 0 -17.5 7.5t-4.5 18.5l86 485l-84 -52q-19 -12 -30 8l-55 103q-9 18 7 27l199 123l121 687q5 27 32 27h159q11 0 17 -8t4 -18l-95 -541l213 133q19 12 30 -8l56 -103q9 -18 -7 -27l-329 -203z" />
    <glyph glyph-name="lslash" unicode="&#x142;" horiz-adv-x="720" 
d="M787 1057l56 -103q9 -18 -7 -27l-240 -148l-134 -760q-3 -19 -22 -19h-158q-11 0 -17 7.5t-4 18.5l108 612l-118 -73q-18 -12 -29 8l-56 103q-9 18 7 27l232 144l112 636q5 26 32 26h150q11 0 17.5 -7.5t4.5 -17.5l-88 -496l125 77q18 12 29 -8z" />
    <glyph glyph-name="Nacute" unicode="&#x143;" horiz-adv-x="1390" 
d="M1145 1937h134q11 0 15 -8.5t-3 -16.5l-238 -314q-12 -15 -34 -15h-103q-10 0 -13.5 7t1.5 15l204 312q12 20 37 20zM1301 1434h169q11 0 17.5 -7.5t4.5 -18.5l-245 -1389q-3 -19 -23 -19h-192q-23 0 -31 21l-277 666l-170 420h-18l-56 -420l-118 -671q-3 -16 -19 -16
h-170q-11 0 -17 8t-4 18l243 1381q5 27 32 27h185q22 0 30 -22l245 -596l203 -490h18l68 489l105 602q3 17 20 17z" />
    <glyph glyph-name="nacute" unicode="&#x144;" horiz-adv-x="1091" 
d="M948 1527h135q11 0 14.5 -8t-3.5 -16l-238 -314q-13 -16 -33 -16h-103q-10 0 -13.5 7t1.5 15l204 313q12 19 36 19zM814 1051h17q160 0 231.5 -95.5t41.5 -265.5l-118 -671q-3 -19 -23 -19h-158q-11 0 -17 8t-4 18l112 633q20 114 -16.5 170t-144.5 56h-7
q-120 0 -274 -109l-134 -757q-3 -19 -22 -19h-158q-11 0 -17.5 7.5t-4.5 18.5l171 971q5 27 32 27h132q20 0 20 -21l-10 -93q186 141 351 141z" />
    <glyph glyph-name="Ncommaaccent" unicode="&#x145;" horiz-adv-x="1390" 
d="M1301 1434h169q11 0 17.5 -7.5t4.5 -18.5l-245 -1389q-3 -19 -23 -19h-192q-23 0 -31 21l-277 666l-170 420h-18l-56 -420l-118 -671q-3 -16 -19 -16h-170q-11 0 -17 8t-4 18l243 1381q5 27 32 27h185q22 0 30 -22l245 -596l203 -490h18l68 489l105 602q3 17 20 17z
M597 -102h176q10 0 17 -7.5t5 -18.5l-23 -135q-3 -17 -11 -29l-139 -225q-11 -16 -29 -16h-95q-10 0 -13.5 7.5t1.5 15.5l132 215h-56q-11 0 -17.5 7.5t-4.5 18.5l25 140q5 27 32 27z" />
    <glyph glyph-name="ncommaaccent" unicode="&#x146;" horiz-adv-x="1091" 
d="M814 1051h17q160 0 231.5 -95.5t41.5 -265.5l-118 -671q-3 -19 -23 -19h-158q-11 0 -17 8t-4 18l112 633q20 114 -16.5 170t-144.5 56h-7q-120 0 -274 -109l-134 -757q-3 -19 -22 -19h-158q-11 0 -17.5 7.5t-4.5 18.5l171 971q5 27 32 27h132q20 0 20 -21l-10 -93
q186 141 351 141zM448 -102h176q10 0 17 -7.5t5 -18.5l-22 -135q-3 -15 -12 -29l-139 -225q-11 -16 -29 -16h-95q-10 0 -13.5 7.5t1.5 15.5l132 215h-56q-11 0 -17 8t-4 18l24 140q5 27 32 27z" />
    <glyph glyph-name="Ncaron" unicode="&#x147;" horiz-adv-x="1390" 
d="M1173 1937h119q11 0 15 -8.5t-3 -16.5l-252 -317q-10 -12 -27 -12h-95q-18 0 -25 15l-141 320q-4 7 0 13t12 6h122q20 0 27 -20l68 -207l144 208q13 19 36 19zM1301 1434h169q11 0 17.5 -7.5t4.5 -18.5l-245 -1389q-3 -19 -23 -19h-192q-23 0 -31 21l-277 666l-170 420
h-18l-56 -420l-118 -671q-3 -16 -19 -16h-170q-11 0 -17 8t-4 18l243 1381q5 27 32 27h185q22 0 30 -22l245 -596l203 -490h18l68 489l105 602q3 17 20 17z" />
    <glyph glyph-name="ncaron" unicode="&#x148;" horiz-adv-x="1091" 
d="M957 1527h119q11 0 15 -8.5t-3 -16.5l-252 -317q-10 -12 -26 -12h-95q-17 0 -25 16l-142 319q-4 7 0 13t12 6h123q20 0 27 -20l67 -206l145 208q12 18 35 18zM814 1051h17q160 0 231.5 -95.5t41.5 -265.5l-118 -671q-3 -19 -23 -19h-158q-11 0 -17 8t-4 18l112 633
q20 114 -16.5 170t-144.5 56h-7q-120 0 -274 -109l-134 -757q-3 -19 -22 -19h-158q-11 0 -17.5 7.5t-4.5 18.5l171 971q5 27 32 27h132q20 0 20 -21l-10 -93q186 141 351 141z" />
    <glyph glyph-name="Eng" unicode="&#x14a;" horiz-adv-x="1390" 
d="M1303 1434h167q11 0 17.5 -7.5t4.5 -18.5l-242 -1369q-38 -217 -139 -312.5t-258 -95.5h-10q-94 0 -189 51q-17 8 -14 28l23 130q1 10 10 15t19 0q69 -43 134 -43h8q67 0 114 46.5t66 141.5l-290 687l-170 420h-18l-56 -420l-117 -668q-3 -19 -23 -19h-167q-11 0 -17 7.5
t-4 18.5l243 1381q5 27 32 27h185q22 0 30 -22l245 -597l203 -489h18l68 489l105 600q3 19 22 19z" />
    <glyph glyph-name="eng" unicode="&#x14b;" horiz-adv-x="1091" 
d="M814 1051h17q160 0 231.5 -95.5t41.5 -265.5l-140 -794q-23 -131 -100.5 -198t-187.5 -67h-18q-70 0 -138 28q-20 8 -17 31l18 104q2 9 9.5 13.5t16.5 1.5q46 -18 86 -18h9q101 0 121 114l133 754q20 114 -16.5 170t-144.5 56h-7q-120 0 -274 -109l-134 -757
q-3 -19 -22 -19h-158q-11 0 -17.5 7.5t-4.5 18.5l171 971q5 27 32 27h132q20 0 20 -21l-10 -93q186 141 351 141z" />
    <glyph glyph-name="Omacron" unicode="&#x14c;" horiz-adv-x="1402" 
d="M770 1732h477q11 0 17.5 -8t4.5 -18l-17 -96q-5 -27 -32 -27h-477q-11 0 -17.5 8t-4.5 18l17 96q5 27 32 27zM937 1460h31q114 0 207.5 -38.5t159.5 -116t89.5 -193t-1.5 -268.5l-47 -270q-26 -149 -90.5 -265.5t-153 -189t-193.5 -109.5t-220 -37h-31
q-114 0 -207.5 38.5t-159.5 116t-89.5 193t1.5 268.5l47 271q26 149 90 265.5t153 188.5t194 109t220 37zM937 1274h-20q-159 0 -271.5 -105t-147.5 -306l-52 -294q-36 -201 38.5 -305.5t233.5 -104.5h21q159 0 271 105.5t148 306.5l52 294q35 201 -39.5 305t-233.5 104z
" />
    <glyph glyph-name="omacron" unicode="&#x14d;" horiz-adv-x="1128" 
d="M563 1337h477q11 0 17.5 -7.5t4.5 -17.5l-17 -97q-5 -26 -32 -26h-477q-11 0 -17.5 7.5t-4.5 17.5l17 97q5 26 32 26zM732 1051h22q196 0 306.5 -127t72.5 -344l-27 -151q-26 -145 -105 -250t-188 -155.5t-236 -50.5h-22q-196 0 -306.5 127t-72.5 344l27 151
q26 145 105 250t188 155.5t236 50.5zM729 885h-15q-114 0 -197 -75.5t-107 -213.5l-30 -170q-24 -138 31.5 -212.5t169.5 -74.5h14q114 0 197 75.5t107 213.5l30 170q24 138 -31 212.5t-169 74.5z" />
    <glyph glyph-name="Ohungarumlaut" unicode="&#x150;" horiz-adv-x="1402" 
d="M1056 1583h-148q-10 0 -13.5 7t1.5 15l204 312q12 20 37 20h178q11 0 15 -8.5t-3 -16.5l-238 -314q-12 -15 -33 -15zM937 1460h31q114 0 207.5 -38.5t159.5 -116t89.5 -193t-1.5 -268.5l-47 -270q-26 -149 -90.5 -265.5t-153 -189t-193.5 -109.5t-220 -37h-31
q-114 0 -207.5 38.5t-159.5 116t-89.5 193t1.5 268.5l47 271q26 149 90 265.5t153 188.5t194 109t220 37zM1158 571l52 294q35 201 -39.5 305t-233.5 104h-20q-159 0 -271.5 -105t-147.5 -306l-52 -294q-36 -201 39 -305.5t234 -104.5h20q159 0 271 105.5t148 306.5z" />
    <glyph glyph-name="ohungarumlaut" unicode="&#x151;" horiz-adv-x="1128" 
d="M850 1173h-147q-10 0 -13.5 7t1.5 15l203 313q12 19 37 19h179q11 0 14.5 -8t-3.5 -16l-238 -314q-13 -16 -33 -16zM732 1051h22q196 0 306.5 -127t72.5 -344l-27 -151q-26 -146 -104.5 -250.5t-187.5 -155t-236 -50.5h-23q-196 0 -306.5 127t-72.5 344l27 151
q26 145 105 250t188 155.5t236 50.5zM899 428l30 170q24 138 -31 212.5t-169 74.5h-15q-114 0 -197 -75.5t-107 -213.5l-30 -170q-24 -138 31.5 -212.5t169.5 -74.5h14q114 0 197 75.5t107 213.5z" />
    <glyph glyph-name="OE" unicode="&#x152;" horiz-adv-x="2027" 
d="M1405 1434h772q11 0 17.5 -7.5t4.5 -18.5l-25 -142q-3 -18 -22 -18h-662l-75 -421h604q11 0 17.5 -7.5t4.5 -17.5l-25 -142q-3 -19 -22 -19h-611l-81 -455h655q11 0 17.5 -7.5t4.5 -18.5l-25 -141q-3 -19 -22 -19h-781q-11 0 -17 7.5t-4 18.5l26 147q-83 -99 -196 -149.5
t-241 -50.5h-31q-114 0 -207.5 38.5t-159.5 116t-89.5 193t1.5 268.5l47 271q26 149 90 265.5t153 188.5t194 109t220 37h31q130 0 228.5 -54t148.5 -158l28 159q5 27 32 27zM719 159h20q159 0 271 105.5t148 306.5l52 294q35 201 -39.5 305t-233.5 104h-20
q-159 0 -271.5 -105t-147.5 -306l-52 -294q-36 -201 39 -305.5t234 -104.5z" />
    <glyph glyph-name="oe" unicode="&#x153;" horiz-adv-x="1794" 
d="M1447 1051h23q188 0 280.5 -121t53.5 -341l-15 -89q-3 -21 -25 -21h-647l-12 -71q-23 -130 44.5 -201t195.5 -71h9q115 0 317 78q10 4 17 -2t5 -17l-20 -113q-5 -28 -30 -37q-79 -32 -171 -52t-166 -20h-17q-120 0 -206.5 48t-123.5 135q-68 -90 -167 -136.5t-214 -46.5
h-23q-196 0 -306.5 127t-72.5 344l27 151q26 145 105 250t188 155.5t236 50.5h22q115 0 199 -50t120 -143q68 93 165.5 143t208.5 50zM1443 898h-12q-107 0 -187 -79t-107 -216l479 1q28 149 -15 221.5t-158 72.5zM729 885h-15q-114 0 -197 -75.5t-107 -213.5l-30 -170
q-24 -138 31.5 -212.5t169.5 -74.5h14q114 0 197 75.5t107 213.5l30 170q24 138 -31 212.5t-169 74.5z" />
    <glyph glyph-name="Racute" unicode="&#x154;" horiz-adv-x="1284" 
d="M1012 1937h134q11 0 15 -8.5t-3 -16.5l-238 -314q-12 -15 -34 -15h-103q-10 0 -13.5 7t1.5 15l204 312q12 20 37 20zM434 1434h471q242 0 352.5 -105.5t74.5 -308.5l-4 -27q-27 -152 -122 -257t-255 -146l101 -204l171 -364q4 -8 -1 -15t-14 -7h-183q-29 0 -40 27
l-247 532h-273l-95 -541q-3 -19 -23 -19h-166q-11 0 -17.5 7.5t-4.5 18.5l244 1382q5 27 31 27zM587 1248l-92 -517h255q162 0 251 72t109 189l2 12q21 122 -38.5 183t-224.5 61h-262z" />
    <glyph glyph-name="racute" unicode="&#x155;" horiz-adv-x="737" 
d="M761 1527h135q11 0 14.5 -8t-3.5 -16l-238 -314q-13 -16 -33 -16h-103q-10 0 -13.5 7t1.5 15l203 313q12 19 37 19zM797 1051h9q11 0 49 -4q10 -1 16 -9t4 -19l-25 -146q-3 -19 -25 -17q-39 5 -74 5h-10q-141 0 -295 -130l-126 -712q-3 -19 -22 -19h-158q-11 0 -17.5 7.5
t-4.5 18.5l171 971q5 27 32 27h132q9 0 15 -6t6 -15l-12 -121q79 83 166.5 126t168.5 43z" />
    <glyph glyph-name="Rcommaaccent" unicode="&#x156;" horiz-adv-x="1284" 
d="M434 1434h471q242 0 352.5 -105.5t74.5 -308.5l-4 -27q-27 -152 -122 -257t-255 -146l101 -204l171 -364q4 -8 -1 -15t-14 -7h-183q-29 0 -40 27l-247 532h-273l-95 -541q-3 -19 -23 -19h-166q-11 0 -17.5 7.5t-4.5 18.5l244 1382q5 27 31 27zM587 1248l-92 -517h255
q162 0 251 72t109 189l2 12q21 122 -38.5 183t-224.5 61h-262zM545 -102h176q10 0 17 -7.5t5 -18.5l-22 -135q-3 -15 -12 -29l-139 -225q-11 -16 -29 -16h-95q-10 0 -13.5 7.5t1.5 15.5l132 215h-56q-11 0 -17 7.5t-4 18.5l24 140q5 27 32 27z" />
    <glyph glyph-name="rcommaaccent" unicode="&#x157;" horiz-adv-x="737" 
d="M797 1051h9q11 0 49 -4q10 -1 16 -9t4 -19l-25 -146q-3 -19 -25 -17q-39 5 -74 5h-10q-141 0 -295 -130l-126 -712q-3 -19 -22 -19h-158q-11 0 -17.5 8t-4.5 18l171 971q5 27 32 27h132q9 0 15 -6t6 -15l-12 -121q79 83 166.5 126t168.5 43zM123 -102h176q10 0 16.5 -7.5
t4.5 -18.5l-22 -135q-3 -15 -12 -29l-138 -226q-10 -15 -29 -15h-96q-10 0 -13.5 7.5t1.5 15.5l133 215h-56q-11 0 -17.5 8t-4.5 18l25 140q5 27 32 27z" />
    <glyph glyph-name="Rcaron" unicode="&#x158;" horiz-adv-x="1284" 
d="M1101 1937h119q11 0 15 -8.5t-3 -16.5l-252 -317q-10 -12 -27 -12h-95q-18 0 -25 15l-141 320q-4 7 0 13t12 6h122q21 0 28 -20l67 -207l144 208q13 19 36 19zM434 1434h471q242 0 352.5 -105.5t74.5 -308.5l-4 -27q-27 -152 -122 -257t-255 -146l101 -204l171 -364
q4 -8 -1 -15t-14 -7h-183q-29 0 -40 27l-247 532h-273l-95 -541q-3 -19 -23 -19h-166q-11 0 -17.5 8t-4.5 18l244 1382q5 27 31 27zM587 1248l-92 -517h255q162 0 251 72t109 189l3 12q21 122 -39 183t-225 61h-262z" />
    <glyph glyph-name="rcaron" unicode="&#x159;" horiz-adv-x="737" 
d="M781 1527h119q10 0 14 -8.5t-3 -16.5l-252 -317q-11 -12 -26 -12h-95q-17 0 -25 16l-141 319q-4 7 0 13t12 6h122q20 0 27 -20l67 -206l145 208q12 18 36 18zM797 1051h9q11 0 49 -4q10 -1 16 -9t4 -19l-25 -146q-3 -19 -25 -17q-39 5 -74 5h-10q-141 0 -295 -130
l-126 -712q-3 -19 -22 -19h-158q-11 0 -17.5 8t-4.5 18l171 971q5 27 32 27h132q9 0 15 -6t6 -15l-12 -121q79 83 166.5 126t168.5 43z" />
    <glyph glyph-name="Sacute" unicode="&#x15a;" horiz-adv-x="1122" 
d="M1013 1937h135q10 0 14 -8.5t-3 -16.5l-238 -314q-12 -15 -33 -15h-103q-10 0 -13.5 7t1.5 15l203 312q12 20 37 20zM581 643l82 -28q25 -9 42.5 -15.5t38.5 -15.5t35.5 -16.5t30.5 -17.5t26 -20t20.5 -22t15.5 -25.5t9 -29.5t3.5 -34t-4.5 -39l-1 -7
q-18 -100 -104.5 -158.5t-211.5 -58.5h-13q-87 0 -156.5 20.5t-197.5 75.5q-11 4 -20.5 -1t-11.5 -16l-24 -138q-5 -30 21 -41q174 -85 366 -85h18q133 0 248.5 46t198 139.5t104.5 219.5l4 18q6 47 8 86t-8.5 73.5t-23 62t-37 53t-49.5 45t-60.5 38.5t-70.5 34t-79 31
l-84 30q-119 42 -167 88t-34 123l1 8q17 97 101 152t190 55h12q83 0 153 -19t167 -61q10 -4 19 0.5t11 15.5l25 137q5 33 -24 43q-151 69 -327 69h-16q-87 0 -172.5 -25.5t-159 -73.5t-125.5 -124.5t-69 -170.5l-4 -23q-26 -150 52 -243t252 -155z" />
    <glyph glyph-name="sacute" unicode="&#x15b;" horiz-adv-x="880" 
d="M818 1527h135q11 0 14.5 -8t-3.5 -16l-238 -314q-13 -16 -33 -16h-103q-10 0 -13.5 7t1.5 15l204 313q12 19 36 19zM624 1051h22q138 0 260 -61q27 -10 22 -41l-19 -105q-1 -10 -10 -14.5t-19 0.5q-140 72 -243 72h-10q-80 0 -140.5 -35.5t-71.5 -97.5l-1 -10
q-5 -29 3 -51t29 -36.5t42 -24t54 -20.5q4 -1 6 -2t5.5 -2t6.5 -2l58 -20q71 -25 115.5 -48t82.5 -58.5t49.5 -87t-0.5 -120.5l-2 -12q-25 -142 -148.5 -222t-284.5 -80h-17q-70 0 -148.5 17.5t-134.5 45.5q-26 10 -21 41l18 105q1 10 10 15t19 0q154 -75 266 -75h15
q85 0 147 37.5t74 106.5l2 9q6 33 -2.5 57t-30.5 40t-44.5 26t-58.5 22h-1l-58 21q-66 23 -104.5 41.5t-85 53t-62.5 86t-4 120.5l2 12q17 95 82 164.5t151 101t180 31.5z" />
    <glyph glyph-name="Scedilla" unicode="&#x15e;" horiz-adv-x="1122" 
d="M1150 1389q29 -10 24 -43l-25 -137q-2 -11 -11 -15.5t-19 -0.5q-97 42 -167 61t-153 19h-12q-106 0 -190 -55t-101 -152l-1 -8q-14 -77 34 -123t167 -88l84 -30q44 -16 79 -31t70.5 -34t60.5 -38.5t49.5 -45t37 -53t23 -62t8.5 -73.5t-8 -86l-4 -18q-33 -184 -183 -292
t-349 -113l-31 -84q24 6 50 6q71 0 110 -47.5t25 -125.5t-75.5 -119t-153.5 -41q-81 0 -147 27q-19 8 -14 30l8 39q4 15 18 10q60 -18 112 -18q112 0 125 79q6 35 -13 53t-61 18q-35 0 -87 -16q-7 -2 -12 1l-17 10q-7 4 -4 12l62 169q-160 15 -298 82q-26 11 -21 41l24 138
q2 11 11.5 16t20.5 1q128 -55 197.5 -75.5t156.5 -20.5h13q125 0 211.5 58.5t104.5 158.5l1 7q4 21 4.5 39t-3.5 34t-9 29.5t-15.5 25.5t-20.5 22t-26 20t-30.5 17.5t-35.5 16.5t-38.5 15.5t-42.5 15.5l-82 28q-174 62 -252 155t-52 243l4 23q17 94 69 170.5t125.5 124.5
t159 73.5t172.5 25.5h16q176 0 327 -69z" />
    <glyph glyph-name="scedilla" unicode="&#x15f;" horiz-adv-x="880" 
d="M906 990q27 -10 22 -41l-19 -105q-1 -10 -10 -14.5t-19 0.5q-140 72 -243 72h-10q-80 0 -140.5 -35.5t-71.5 -97.5l-1 -10q-5 -29 3 -51t29 -36.5t42 -24t54 -20.5q4 -1 6 -2t5.5 -2t6.5 -2l58 -20q71 -25 115.5 -48t82.5 -58.5t49.5 -87t-0.5 -120.5l-2 -12
q-25 -142 -148.5 -222t-284.5 -80h-4l-32 -86q24 6 50 6q71 0 110.5 -47.5t25.5 -125.5t-75.5 -119t-153.5 -41q-81 0 -147 27q-20 8 -15 30l9 39q4 15 18 10q60 -18 112 -18q112 0 125 79q6 35 -13 53t-61 18q-35 0 -87 -16q-7 -2 -13 1l-16 10q-7 4 -4 12l64 175
q-111 16 -193 56q-26 10 -21 41l18 105q1 10 10 15t19 0q154 -75 266 -75h15q85 0 147 37.5t74 106.5l2 9q6 33 -2.5 57t-30.5 40t-44.5 26t-58.5 22h-1l-58 21q-66 23 -104.5 41.5t-85 53t-62.5 86t-4 120.5l2 12q17 95 82 164.5t151 101t180 31.5h22q138 0 260 -61z" />
    <glyph glyph-name="Scaron" unicode="&#x160;" horiz-adv-x="1122" 
d="M1045 1937h119q11 0 15 -8.5t-3 -16.5l-252 -317q-10 -12 -27 -12h-95q-18 0 -25 15l-141 320q-4 7 0 13t12 6h122q20 0 27 -20l68 -206l144 207q13 19 36 19zM581 643l82 -28q25 -9 42.5 -15.5t38.5 -15.5t35.5 -16.5t30.5 -17.5t26 -20t20.5 -22t15.5 -25.5t9 -29.5
t3.5 -34t-4.5 -39l-1 -7q-18 -100 -104.5 -158.5t-211.5 -58.5h-13q-87 0 -156.5 20.5t-197.5 75.5q-11 4 -20.5 -1t-11.5 -16l-24 -138q-5 -30 21 -41q174 -85 366 -85h18q133 0 248.5 46t198 139.5t104.5 219.5l4 18q6 47 8 86t-8.5 73.5t-23 62t-37 53t-49.5 45
t-60.5 38.5t-70.5 34t-79 31l-84 30q-119 42 -167 88t-34 123l1 8q17 97 101 152t190 55h12q83 0 153 -19t167 -61q10 -4 19 0.5t11 15.5l25 137q5 33 -24 43q-151 69 -327 69h-16q-87 0 -172.5 -25.5t-159 -73.5t-125.5 -124.5t-69 -170.5l-4 -23q-26 -150 52 -243
t252 -155z" />
    <glyph glyph-name="scaron" unicode="&#x161;" horiz-adv-x="880" 
d="M853 1527h119q11 0 15 -8.5t-3 -16.5l-252 -317q-10 -12 -27 -12h-95q-17 0 -25 16l-141 319q-4 7 0 13t12 6h122q20 0 27 -20l68 -206l144 208q12 18 36 18zM624 1051h22q138 0 260 -61q27 -10 22 -41l-19 -105q-1 -10 -10 -14.5t-19 0.5q-140 72 -243 72h-10
q-80 0 -140.5 -35.5t-71.5 -97.5l-1 -10q-5 -29 3 -51t29 -36.5t42 -24t54 -20.5q4 -1 6 -2t5.5 -2t6.5 -2l58 -20q71 -25 115.5 -48t82.5 -58.5t49.5 -87t-0.5 -120.5l-2 -12q-25 -142 -148.5 -222t-284.5 -80h-17q-70 0 -148.5 17.5t-134.5 45.5q-26 10 -21 41l18 105
q1 10 10 15t19 0q154 -75 266 -75h15q85 0 147 37.5t74 106.5l2 9q6 33 -2.5 57t-30.5 40t-44.5 26t-58.5 22h-1l-58 21q-66 23 -104.5 41.5t-85 53t-62.5 86t-4 120.5l2 12q17 95 82 164.5t151 101t180 31.5z" />
    <glyph glyph-name="Tcedilla" unicode="&#x162;" horiz-adv-x="1218" 
d="M342 1434h1041q11 0 17.5 -7.5t4.5 -18.5l-25 -142q-3 -18 -22 -18h-423l-216 -1229q-3 -19 -23 -19h-56l-42 -113q24 6 50 6q71 0 110 -47.5t25 -125.5t-75.5 -119t-153.5 -41q-80 0 -146 27q-20 8 -15 30l9 39q4 15 18 10q60 -18 112 -18q112 0 125 79q6 35 -13 53
t-61 18q-35 0 -87 -16q-7 -2 -13 1l-16 10q-7 4 -4 12l74 195h-7q-11 0 -17.5 7.5t-4.5 18.5l215 1222h-415q-11 0 -17.5 7.5t-4.5 17.5l24 134q5 27 32 27z" />
    <glyph glyph-name="tcedilla" unicode="&#x163;" horiz-adv-x="710" 
d="M564 1024h259q11 0 17 -8t4 -18l-20 -116q-3 -19 -23 -19h-265l-104 -590q-12 -70 9.5 -102t81.5 -32h9q38 0 141 33q10 3 16.5 -2.5t5.5 -15.5l-20 -109q-3 -20 -21 -27q-112 -45 -185 -45h-17q-18 0 -27 1l-32 -87q24 6 50 6q71 0 110.5 -47.5t25.5 -125.5t-75.5 -119
t-153.5 -41q-81 0 -147 27q-20 8 -15 30l9 39q4 15 18 10q60 -18 112 -18q112 0 125 79q6 35 -13 53t-61 18q-35 0 -87 -16q-7 -2 -13 1l-16 10q-7 4 -4 12l70 192q-66 29 -92.5 94t-10.5 158l108 614h-114q-10 0 -17 7.5t-5 18.5l16 90q3 23 26 28l122 17l34 192
q5 27 32 33l159 36q10 2 16 -3.5t5 -15.5z" />
    <glyph glyph-name="Tcaron" unicode="&#x164;" horiz-adv-x="1218" 
d="M1093 1937h119q11 0 15 -8.5t-3 -16.5l-252 -317q-10 -12 -27 -12h-95q-18 0 -25 15l-141 320q-4 7 0 13t12 6h122q21 0 28 -20l67 -206l144 207q13 19 36 19zM342 1434h1041q11 0 17.5 -7.5t4.5 -18.5l-25 -142q-3 -18 -22 -18h-423l-216 -1229q-3 -19 -23 -19h-166
q-11 0 -17.5 7.5t-4.5 18.5l215 1222h-415q-11 0 -17.5 7.5t-4.5 17.5l24 134q5 27 32 27z" />
    <glyph glyph-name="tcaron" unicode="&#x165;" horiz-adv-x="1015" 
d="M1039 1509h176q11 0 17 -7.5t5 -17.5l-22 -135q-3 -17 -12 -30l-139 -225q-10 -15 -29 -15h-95q-10 0 -13.5 7t1.5 15l132 216h-56q-11 0 -17 7.5t-4 18.5l24 140q5 26 32 26zM427 1249l159 36q10 2 16 -3.5t5 -15.5l-43 -242h259q11 0 17 -8t4 -18l-20 -116
q-3 -19 -23 -19h-265l-104 -590q-12 -70 9.5 -102t81.5 -32h9q38 0 141 33q10 3 16.5 -2.5t5.5 -15.5l-20 -109q-3 -20 -21 -27q-112 -45 -185 -45h-17q-130 0 -190 73t-37 203l108 614h-114q-10 0 -17 7.5t-5 18.5l16 90q3 23 26 28l122 17l34 192q5 27 32 33z" />
    <glyph glyph-name="Tbar" unicode="&#x166;" horiz-adv-x="1218" 
d="M342 1434h1042q11 0 17 -7.5t4 -18.5l-25 -142q-3 -18 -22 -18h-423l-58 -333h190q11 0 17 -7.5t4 -17.5l-19 -109q-5 -26 -32 -26h-189l-129 -736q-3 -19 -23 -19h-166q-11 0 -17.5 8t-4.5 18l128 729h-190q-11 0 -17 7.5t-4 17.5l19 109q5 26 32 26h189l58 333h-415
q-11 0 -17.5 7.5t-4.5 17.5l24 134q5 27 32 27z" />
    <glyph glyph-name="tbar" unicode="&#x167;" horiz-adv-x="710" 
d="M564 1024h259q11 0 17 -8t4 -18l-20 -116q-3 -19 -23 -19h-265l-34 -191h261q11 0 17 -8t4 -18l-17 -96q-5 -26 -32 -26h-259l-44 -251q-12 -70 9.5 -102t81.5 -32h9q38 0 141 33q10 3 16.5 -2.5t5.5 -15.5l-20 -109q-3 -20 -21 -27q-112 -45 -185 -45h-17
q-130 0 -190 73t-37 203l48 275h-113q-11 0 -17.5 7.5t-4.5 17.5l17 96q5 27 32 27h112l34 191h-114q-10 0 -17 7.5t-5 18.5l16 90q3 23 26 28l122 17l34 192q5 27 32 33l159 36q10 2 16 -3.5t5 -15.5z" />
    <glyph glyph-name="Umacron" unicode="&#x16a;" horiz-adv-x="1378" 
d="M759 1747h477q11 0 17.5 -8t4.5 -18l-17 -96q-5 -27 -32 -27h-477q-11 0 -17 8t-4 18l17 96q5 27 31 27zM1294 1434h163q11 0 17.5 -8t4.5 -18l-157 -892q-32 -183 -122.5 -307t-214 -180t-275.5 -56h-31q-113 0 -202 34.5t-150 104t-81.5 174.5t2.5 246l155 875
q5 27 31 27h163q11 0 17.5 -8t4.5 -18l-157 -887q-32 -179 32.5 -270.5t214.5 -91.5h21q150 0 247.5 92.5t129.5 271.5l156 884q5 27 31 27z" />
    <glyph glyph-name="umacron" unicode="&#x16b;" 
d="M535 1338h477q11 0 17 -7.5t4 -17.5l-17 -97q-5 -26 -32 -26h-477q-11 0 -17 7.5t-4 17.5l17 97q5 26 32 26zM959 1024h158q11 0 17.5 -7.5t4.5 -18.5l-173 -979q-3 -19 -22 -19h-140q-20 0 -20 21l10 93q-186 -141 -351 -141h-17q-157 0 -222.5 95t-35.5 266l117 663
q5 27 32 27h150q11 0 17.5 -7.5t4.5 -18.5l-112 -633q-20 -115 11.5 -170.5t133.5 -55.5h7q120 0 274 109l134 757q3 19 22 19z" />
    <glyph glyph-name="Uring" unicode="&#x16e;" horiz-adv-x="1378" 
d="M1013 1907q79 0 125.5 -56t32.5 -135q-12 -68 -68.5 -116t-125.5 -48q-81 0 -127 57t-32 137q12 67 68.5 114t126.5 47zM1010 1807q-34 0 -60 -22.5t-31 -54.5t12 -55t49 -23q33 0 59 24.5t32 57.5q5 31 -12 52t-49 21zM1294 1434h163q11 0 17.5 -7.5t4.5 -18.5
l-157 -892q-32 -183 -122.5 -307t-214 -180t-275.5 -56h-31q-113 0 -202 34.5t-150 104t-81.5 174.5t2.5 246l155 875q5 27 31 27h163q11 0 17.5 -7.5t4.5 -18.5l-157 -887q-32 -179 32.5 -270.5t214.5 -91.5h21q150 0 247.5 92.5t129.5 271.5l156 884q5 27 31 27z" />
    <glyph glyph-name="uring" unicode="&#x16f;" 
d="M788 1498q79 0 125.5 -56.5t32.5 -135.5q-12 -68 -68.5 -116t-125.5 -48q-81 0 -127 57t-32 137q12 67 68.5 114.5t126.5 47.5zM785 1397q-34 0 -60 -22.5t-31 -54.5t12 -54.5t49 -22.5q34 0 59.5 24t31.5 57q5 31 -12 52t-49 21zM959 1024h158q11 0 17.5 -7.5t4.5 -18.5
l-173 -979q-3 -19 -22 -19h-140q-20 0 -20 21l10 93q-186 -141 -351 -141h-17q-157 0 -222.5 95t-35.5 266l117 663q5 27 32 27h150q11 0 17 -7.5t4 -18.5l-111 -633q-20 -115 11.5 -170.5t133.5 -55.5h7q120 0 274 109l134 757q3 19 22 19z" />
    <glyph glyph-name="Uhungarumlaut" unicode="&#x170;" horiz-adv-x="1378" 
d="M1048 1583h-147q-10 0 -13.5 7t1.5 15l203 312q12 20 37 20h179q11 0 15 -8.5t-3 -16.5l-239 -314q-12 -15 -33 -15zM1294 1434h163q11 0 17.5 -7.5t4.5 -18.5l-157 -892q-32 -183 -122.5 -307t-214 -180t-275.5 -56h-31q-113 0 -202 34.5t-150 104t-81.5 174.5t2.5 246
l155 875q5 27 32 27h162q11 0 17.5 -7.5t4.5 -18.5l-156 -887q-32 -179 32 -270.5t214 -91.5h21q150 0 247.5 92.5t129.5 271.5l156 884q5 27 31 27z" />
    <glyph glyph-name="uhungarumlaut" unicode="&#x171;" 
d="M816 1173h-147q-10 0 -13.5 7t1.5 15l203 313q12 19 37 19h179q11 0 15 -8t-3 -16l-239 -314q-13 -16 -33 -16zM959 1024h158q11 0 17.5 -8t4.5 -18l-173 -979q-3 -19 -22 -19h-140q-20 0 -20 21l10 93q-186 -141 -351 -141h-17q-157 0 -222.5 95t-35.5 266l117 663
q5 27 32 27h150q11 0 17.5 -8t4.5 -18l-112 -633q-20 -115 11.5 -170.5t133.5 -55.5h7q120 0 274 109l134 757q3 19 22 19z" />
    <glyph glyph-name="Uogonek" unicode="&#x172;" horiz-adv-x="1378" 
d="M1294 1434h163q11 0 17.5 -8t4.5 -18l-157 -892q-38 -215 -152 -345t-281 -175q-109 -84 -143 -119q-55 -58 -64 -112q-8 -44 15 -67.5t69 -23.5q22 0 53 7q7 1 12 -3t3 -12l-11 -64q-3 -18 -19 -24q-46 -18 -96 -18q-86 0 -132 50.5t-29 135.5q23 116 182 228
q-3 0 -9.5 -0.5t-9.5 -0.5h-31q-113 0 -202 34.5t-150 104t-81.5 174.5t2.5 246l155 875q5 27 31 27h163q11 0 17.5 -8t4.5 -18l-157 -887q-32 -179 32.5 -270.5t214.5 -91.5h21q150 0 247.5 92.5t129.5 271.5l156 884q5 27 31 27z" />
    <glyph glyph-name="uogonek" unicode="&#x173;" 
d="M959 1024h158q11 0 17.5 -7.5t4.5 -18.5l-173 -979q-3 -19 -22 -19q-5 -4 -28 -21.5t-29.5 -23t-27 -21.5t-28 -23t-23.5 -22t-23 -24t-18.5 -23t-17 -25.5t-11 -25t-7.5 -26.5q-8 -44 15 -67.5t69 -23.5q22 0 53 7q8 2 12.5 -3t3.5 -12l-12 -64q-3 -18 -19 -24
q-46 -18 -96 -18q-85 0 -131 50.5t-29 135.5q13 63 63 123t156 131h-12q-20 0 -20 21l10 93q-186 -141 -351 -141h-17q-157 0 -222.5 95t-35.5 266l117 663q5 27 32 27h150q11 0 17.5 -7.5t4.5 -18.5l-112 -633q-20 -115 11.5 -170.5t133.5 -55.5h7q120 0 274 109l134 757
q3 19 22 19z" />
    <glyph glyph-name="Wcircumflex" unicode="&#x174;" horiz-adv-x="2041" 
d="M1312 1937h90q22 0 32 -21l139 -314q4 -7 0 -13t-12 -6h-122q-20 0 -27 20l-67 206l-148 -212q-10 -14 -28 -14h-124q-10 0 -14 8.5t3 16.5l251 316q11 13 27 13zM2047 1434h169q9 0 13.5 -7t0.5 -15l-618 -1392q-8 -20 -30 -20h-240q-22 0 -24 22l-46 510l-39 626h-14
l-257 -626l-229 -512q-8 -20 -29 -20h-242q-21 0 -23 21l-126 1384q-1 12 6.5 20.5t19.5 8.5h156q14 0 23.5 -9t10.5 -22l52 -612l36 -598h11l244 598l275 624q8 19 28 19h183q14 0 23 -9t10 -22l53 -612l36 -598h11l244 598l272 616q12 27 40 27z" />
    <glyph glyph-name="wcircumflex" unicode="&#x175;" horiz-adv-x="1603" 
d="M1020 1527h90q23 0 33 -21l139 -314q4 -7 -0.5 -13t-12.5 -6h-122q-20 0 -27 20l-67 206l-147 -211q-11 -15 -29 -15h-123q-11 0 -15 8.5t3 16.5l252 317q10 12 26 12zM1565 1024h162q10 0 14 -7.5t0 -15.5l-468 -983q-7 -18 -29 -18h-191q-21 0 -23 20l-34 290l-43 504
h-13l-217 -504l-139 -292q-8 -18 -29 -18h-192q-20 0 -22 20l-121 974q-1 13 6.5 21.5t20.5 8.5h158q21 0 23 -21l44 -420l25 -399h8l163 399l190 414q13 27 42 27h171q21 0 23 -21l44 -420l26 -399h8l162 399l191 415q11 26 40 26z" />
    <glyph glyph-name="Ycircumflex" unicode="&#x176;" horiz-adv-x="1275" 
d="M927 1937h90q23 0 33 -21l139 -314q4 -7 0 -13t-12 -6h-123q-20 0 -27 20l-67 206l-147 -212q-10 -14 -29 -14h-123q-11 0 -15 8.5t3 16.5l252 316q11 13 26 13zM1269 1434h181q11 0 15.5 -9t-1.5 -18l-633 -926l-84 -462q-3 -19 -22 -19h-167q-11 0 -17.5 7.5t-4.5 18.5
l83 455l-305 923q-4 12 2 21t19 9h172q23 0 30 -23l165 -481l52 -246h6l134 246l340 485q13 19 35 19z" />
    <glyph glyph-name="ycircumflex" unicode="&#x177;" horiz-adv-x="1044" 
d="M740 1527h90q23 0 33 -21l139 -314q4 -7 -0.5 -13t-12.5 -6h-122q-20 0 -27 20l-67 206l-147 -211q-10 -15 -29 -15h-123q-11 0 -15 8.5t3 16.5l252 317q10 12 26 12zM1006 1024h160q10 0 14.5 -7t0.5 -16l-571 -1079q-78 -147 -162 -219t-212 -72h-15q-72 0 -157 30
q-26 8 -21 37l19 110q1 10 9 14t17 1q79 -29 131 -29h6q54 0 94 31t81 105l39 70h-20q-21 0 -25 21l-173 972q-2 13 6 22t21 9h146q13 0 22 -7.5t10 -20.5l85 -461l38 -363h5l163 363l251 465q11 24 38 24z" />
    <glyph glyph-name="Ydieresis" unicode="&#x178;" horiz-adv-x="1275" 
d="M719 1825h144q11 0 17.5 -7.5t4.5 -17.5l-31 -175q-5 -27 -32 -27h-144q-11 0 -17.5 8t-4.5 18l31 175q5 26 32 26zM1055 1825h144q11 0 17.5 -7.5t4.5 -17.5l-31 -175q-5 -27 -32 -27h-144q-11 0 -17.5 7.5t-4.5 18.5l31 175q5 26 32 26zM1269 1434h181q11 0 15.5 -9
t-1.5 -18l-633 -926l-84 -462q-3 -19 -22 -19h-167q-11 0 -17.5 7.5t-4.5 18.5l83 455l-305 923q-4 12 2 21t19 9h172q23 0 30 -23l165 -481l52 -246h6l134 246l340 485q13 19 35 19z" />
    <glyph glyph-name="Zacute" unicode="&#x179;" horiz-adv-x="1138" 
d="M1029 1937h135q11 0 15 -8.5t-3 -16.5l-239 -314q-12 -15 -33 -15h-103q-10 0 -13.5 7t1.5 15l204 312q12 20 36 20zM383 186h675q11 0 17.5 -8t4.5 -18l-25 -141q-3 -19 -22 -19h-920q-10 0 -16.5 7t-4.5 18l19 118q3 23 17 40l869 1065h-638q-11 0 -17 7.5t-4 17.5
l23 134q5 27 32 27h874q10 0 17 -7.5t5 -18.5l-19 -117q-3 -22 -18 -40z" />
    <glyph glyph-name="zacute" unicode="&#x17a;" horiz-adv-x="894" 
d="M830 1527h134q11 0 15 -8t-3 -16l-238 -314q-13 -16 -34 -16h-102q-10 0 -13.5 7t1.5 15l203 313q12 19 37 19zM295 1024h682q10 0 16.5 -7t4.5 -18l-15 -97q-3 -21 -19 -39l-624 -697h495q11 0 17.5 -8t4.5 -18l-21 -121q-3 -19 -23 -19h-726q-10 0 -16.5 7t-4.5 18
l15 97q3 21 19 39l624 697h-459q-11 0 -17.5 8t-4.5 18l20 113q5 27 32 27z" />
    <glyph glyph-name="Zdotaccent" unicode="&#x17b;" horiz-adv-x="1138" 
d="M807 1825h170q11 0 17.5 -7.5t4.5 -17.5l-31 -175q-5 -27 -32 -27h-170q-11 0 -17.5 8t-4.5 18l31 175q5 26 32 26zM383 186h675q11 0 17.5 -8t4.5 -18l-25 -141q-3 -19 -22 -19h-920q-10 0 -16.5 7t-4.5 18l19 118q3 22 17 39l869 1066h-638q-11 0 -17 7.5t-4 17.5
l23 134q5 27 32 27h874q10 0 17 -7.5t5 -18.5l-19 -117q-3 -22 -18 -40z" />
    <glyph glyph-name="zdotaccent" unicode="&#x17c;" horiz-adv-x="894" 
d="M612 1416h171q11 0 17.5 -8t4.5 -18l-31 -175q-5 -26 -32 -26h-171q-11 0 -17 7.5t-4 17.5l31 175q5 27 31 27zM295 1024h682q10 0 16.5 -7t4.5 -18l-15 -97q-3 -21 -19 -39l-624 -697h495q11 0 17.5 -8t4.5 -18l-21 -121q-3 -19 -23 -19h-726q-10 0 -16.5 7t-4.5 18
l15 97q3 21 19 39l624 697h-459q-11 0 -17.5 8t-4.5 18l20 113q5 27 32 27z" />
    <glyph glyph-name="Zcaron" unicode="&#x17d;" horiz-adv-x="1138" 
d="M1052 1937h119q11 0 15 -8.5t-3 -16.5l-252 -317q-11 -12 -26 -12h-95q-18 0 -25 15l-142 320q-4 7 0 13t12 6h123q20 0 27 -20l67 -206l145 207q13 19 35 19zM383 186h675q11 0 17.5 -8t4.5 -18l-25 -141q-3 -19 -22 -19h-920q-10 0 -16.5 7t-4.5 18l19 118q3 23 17 40
l869 1065h-638q-11 0 -17 7.5t-4 17.5l23 134q5 27 32 27h874q10 0 17 -7.5t5 -18.5l-19 -117q-3 -22 -18 -40z" />
    <glyph glyph-name="zcaron" unicode="&#x17e;" horiz-adv-x="894" 
d="M853 1527h119q11 0 15 -8.5t-3 -16.5l-252 -317q-10 -12 -27 -12h-95q-17 0 -25 16l-141 319q-4 7 0 13t12 6h122q20 0 27 -20l67 -206l145 208q12 18 36 18zM295 1024h682q10 0 16.5 -7t4.5 -18l-15 -97q-3 -21 -19 -39l-624 -697h495q11 0 17.5 -7.5t4.5 -18.5
l-21 -121q-3 -19 -23 -19h-725q-11 0 -17 7.5t-5 17.5l15 97q3 21 19 39l624 697h-459q-11 0 -17.5 7.5t-4.5 18.5l20 113q5 27 32 27z" />
    <glyph glyph-name="Acaron" unicode="&#x1cd;" horiz-adv-x="1304" 
d="M1129 1937h119q11 0 15 -8.5t-3 -16.5l-252 -317q-10 -12 -26 -12h-96q-16 0 -24 15l-142 320q-4 7 0 13t12 6h122q21 0 28 -20l67 -207l145 208q13 19 35 19zM772 1434h261q25 0 28 -25l181 -1385q2 -12 -4.5 -18t-15.5 -6h-168q-10 0 -17 7t-8 15l-53 376h-505
l-187 -379q-9 -19 -29 -19h-171q-11 0 -16 7.5t-1 17.5l672 1387q11 22 33 22zM869 1257l-228 -492l-90 -181h410l-23 181l-58 492h-11z" />
    <glyph glyph-name="acaron" unicode="&#x1ce;" horiz-adv-x="1099" 
d="M961 1527h119q11 0 15 -8.5t-3 -16.5l-252 -317q-10 -12 -27 -12h-95q-17 0 -25 16l-141 319q-4 7 0 13t12 6h122q20 0 27 -20l68 -206l144 208q12 18 36 18zM650 1051h7q82 0 158 -42t129 -115l32 111q8 19 28 19h136q11 0 17 -7.5t4 -18.5l-172 -979q-3 -19 -23 -19
h-139q-9 0 -15 6t-6 15l12 98q-78 -71 -166 -108.5t-172 -37.5h-7q-181 0 -258 125.5t-41 332.5l31 177q36 207 150 325t295 118zM689 885h-7q-111 0 -181 -73.5t-95 -215.5l-30 -170q-50 -287 172 -287h8q128 0 267 119l91 509q-97 118 -225 118z" />
    <glyph glyph-name="Icaron" unicode="&#x1cf;" horiz-adv-x="520" 
d="M744 1937h119q11 0 15 -8.5t-3 -16.5l-252 -317q-11 -12 -26 -12h-95q-18 0 -25 15l-142 320q-4 7 0 13t12 6h123q20 0 27 -20l67 -206l145 207q13 19 35 19zM434 1434h159q11 0 17.5 -8t4.5 -18l-245 -1389q-3 -19 -22 -19h-167q-11 0 -17.5 7.5t-4.5 18.5l244 1381
q5 27 31 27z" />
    <glyph glyph-name="icaron" unicode="&#x1d0;" horiz-adv-x="434" 
d="M631 1527h118q11 0 15 -8.5t-3 -16.5l-252 -317q-11 -12 -26 -12h-95q-17 0 -25 16l-142 319q-4 7 0.5 13t12.5 6h122q20 0 27 -20l67 -206l145 208q12 18 36 18zM325 1024h150q11 0 17 -7.5t4 -18.5l-172 -979q-3 -19 -23 -19h-158q-11 0 -17 8t-4 18l171 971
q5 27 32 27z" />
    <glyph glyph-name="Ocaron" unicode="&#x1d1;" horiz-adv-x="1402" 
d="M1186 1937h118q11 0 15 -8.5t-3 -16.5l-252 -317q-10 -12 -26 -12h-95q-17 0 -25 15l-142 320q-4 7 0.5 13t12.5 6h122q20 0 27 -20l67 -206l145 207q13 19 36 19zM937 1460h31q114 0 207.5 -38.5t159.5 -116t89.5 -193t-1.5 -268.5l-47 -270q-26 -149 -90.5 -265.5
t-153 -189t-193.5 -109.5t-220 -37h-31q-114 0 -207.5 38.5t-159.5 116t-89.5 193t1.5 268.5l47 271q26 149 90 265.5t153 188.5t194 109t220 37zM937 1274h-20q-159 0 -271.5 -105t-147.5 -306l-52 -294q-36 -201 38.5 -305.5t233.5 -104.5h21q159 0 271 105.5t148 306.5
l52 294q35 201 -39.5 305t-233.5 104z" />
    <glyph glyph-name="ocaron" unicode="&#x1d2;" horiz-adv-x="1128" 
d="M977 1527h118q11 0 15 -8.5t-3 -16.5l-252 -317q-11 -12 -26 -12h-95q-17 0 -25 16l-142 319q-4 7 0.5 13t12.5 6h122q20 0 27 -20l67 -206l145 208q12 18 36 18zM732 1051h22q196 0 306.5 -127t72.5 -344l-27 -151q-26 -146 -104.5 -250.5t-187.5 -155t-236 -50.5h-23
q-196 0 -306.5 127t-72.5 344l27 151q26 145 105 250t188 155.5t236 50.5zM729 885h-15q-114 0 -197 -75.5t-107 -213.5l-30 -170q-24 -138 31.5 -212.5t169.5 -74.5h14q114 0 197 75.5t107 213.5l30 170q24 138 -31 212.5t-169 74.5z" />
    <glyph glyph-name="Ucaron" unicode="&#x1d3;" horiz-adv-x="1378" 
d="M1172 1937h119q10 0 14 -8.5t-3 -16.5l-251 -317q-11 -12 -27 -12h-95q-17 0 -25 15l-141 320q-4 7 0 13t12 6h122q20 0 27 -20l67 -206l145 207q13 19 36 19zM1294 1434h163q11 0 17.5 -8t4.5 -18l-157 -892q-32 -183 -122.5 -307t-214 -180t-275.5 -56h-31
q-113 0 -202 34.5t-150 104t-81.5 174.5t2.5 246l155 875q5 27 31 27h163q11 0 17.5 -8t4.5 -18l-157 -887q-32 -179 32.5 -270.5t214.5 -91.5h21q150 0 247.5 92.5t129.5 271.5l156 884q5 27 31 27z" />
    <glyph glyph-name="ucaron" unicode="&#x1d4;" 
d="M942 1527h119q11 0 15 -8.5t-3 -16.5l-252 -317q-11 -12 -27 -12h-95q-17 0 -25 16l-141 319q-4 7 0 13t12 6h122q20 0 27 -20l68 -206l144 208q12 18 36 18zM959 1024h158q11 0 17.5 -8t4.5 -18l-173 -979q-3 -19 -22 -19h-140q-20 0 -20 21l10 93q-186 -141 -351 -141
h-17q-157 0 -222.5 95t-35.5 266l117 663q5 27 32 27h150q11 0 17.5 -8t4.5 -18l-112 -633q-20 -115 11.5 -170.5t133.5 -55.5h7q120 0 274 109l134 757q3 19 22 19z" />
    <glyph glyph-name="Udieresismacron" unicode="&#x1d5;" horiz-adv-x="1378" 
d="M819 2087h477q11 0 17.5 -7.5t4.5 -18.5l-17 -96q-5 -27 -32 -27h-477q-11 0 -17 7.5t-4 18.5l17 96q5 27 31 27zM772 1825h144q11 0 17.5 -7.5t4.5 -17.5l-31 -175q-5 -27 -32 -27h-144q-11 0 -17.5 7.5t-4.5 18.5l31 175q5 26 32 26zM1107 1825h145q11 0 17 -7t4 -18
l-30 -175q-5 -27 -32 -27h-145q-11 0 -17 8t-4 18l31 175q5 26 31 26zM1294 1434h163q11 0 17.5 -7.5t4.5 -18.5l-157 -892q-32 -183 -122.5 -307t-214 -180t-275.5 -56h-31q-113 0 -202 34.5t-150 104t-81.5 174.5t2.5 246l155 875q5 27 31 27h163q11 0 17.5 -7.5
t4.5 -18.5l-157 -887q-32 -179 32.5 -270.5t214.5 -91.5h21q150 0 247.5 92.5t129.5 271.5l156 884q5 27 31 27z" />
    <glyph glyph-name="udieresismacron" unicode="&#x1d6;" 
d="M595 1679h477q11 0 17 -7.5t4 -18.5l-17 -96q-5 -27 -31 -27h-478q-11 0 -17 7.5t-4 18.5l17 96q5 27 32 27zM548 1416h144q11 0 17.5 -7.5t4.5 -18.5l-31 -175q-5 -26 -32 -26h-145q-11 0 -17 7.5t-4 17.5l31 175q5 27 32 27zM883 1416h145q11 0 17 -8t4 -18l-31 -175
q-5 -26 -31 -26h-145q-11 0 -17 7t-4 18l30 175q5 27 32 27zM959 1024h158q11 0 17.5 -7.5t4.5 -18.5l-173 -979q-3 -19 -22 -19h-140q-20 0 -20 21l10 93q-186 -141 -351 -141h-17q-157 0 -222.5 95t-35.5 266l117 663q5 27 32 27h150q11 0 17.5 -7.5t4.5 -18.5l-112 -633
q-20 -115 11.5 -170.5t133.5 -55.5h7q120 0 274 109l134 757q3 19 22 19z" />
    <glyph glyph-name="Udieresisacute" unicode="&#x1d7;" horiz-adv-x="1378" 
d="M1200 2277h135q11 0 15 -8.5t-3 -16.5l-239 -313q-13 -16 -33 -16h-103q-10 0 -13.5 7t1.5 15l204 313q12 19 36 19zM772 1825h144q11 0 17.5 -7.5t4.5 -17.5l-31 -175q-5 -27 -32 -27h-144q-11 0 -17.5 7.5t-4.5 18.5l31 175q5 26 32 26zM1107 1825h145q11 0 17 -7
t4 -18l-30 -175q-5 -27 -32 -27h-145q-11 0 -17 8t-4 18l31 175q5 26 31 26zM1294 1434h163q11 0 17.5 -7.5t4.5 -18.5l-157 -892q-32 -183 -122.5 -307t-214 -180t-275.5 -56h-31q-113 0 -202 34.5t-150 104t-81.5 174.5t2.5 246l155 875q5 27 31 27h163q11 0 17.5 -7.5
t4.5 -18.5l-157 -887q-32 -179 32.5 -270.5t214.5 -91.5h21q150 0 247.5 92.5t129.5 271.5l156 884q5 27 31 27z" />
    <glyph glyph-name="udieresisacute" unicode="&#x1d8;" 
d="M982 1869h135q11 0 15 -8.5t-3 -16.5l-239 -314q-12 -15 -33 -15h-103q-10 0 -13.5 7t1.5 15l204 312q12 20 36 20zM547 1416h144q11 0 17.5 -8t4.5 -18l-31 -175q-5 -26 -32 -26h-144q-11 0 -17.5 7.5t-4.5 17.5l31 175q5 27 32 27zM883 1416h144q11 0 17 -7.5t4 -18.5
l-30 -175q-5 -26 -32 -26h-145q-11 0 -17 7.5t-4 17.5l31 175q5 27 32 27zM959 1024h158q11 0 17.5 -8t4.5 -18l-173 -979q-3 -19 -22 -19h-140q-20 0 -20 21l10 93q-186 -141 -351 -141h-17q-157 0 -222.5 95t-35.5 266l117 663q5 27 32 27h150q11 0 17.5 -8t4.5 -18
l-112 -633q-20 -115 11.5 -170.5t133.5 -55.5h7q120 0 274 109l134 757q3 19 22 19z" />
    <glyph glyph-name="Udieresiscaron" unicode="&#x1d9;" horiz-adv-x="1378" 
d="M1232 2277h119q11 0 15 -8.5t-3 -16.5l-252 -317q-11 -12 -26 -12h-96q-16 0 -24 16l-142 319q-4 7 0 13t12 6h122q21 0 28 -20l67 -206l144 208q12 18 36 18zM772 1825h144q11 0 17.5 -7.5t4.5 -17.5l-31 -175q-5 -27 -32 -27h-144q-11 0 -17.5 7.5t-4.5 18.5l31 175
q5 26 32 26zM1107 1825h145q11 0 17 -7t4 -18l-30 -175q-5 -27 -32 -27h-145q-11 0 -17 8t-4 18l31 175q5 26 31 26zM1294 1434h163q11 0 17.5 -7.5t4.5 -18.5l-157 -892q-32 -183 -122.5 -307t-214 -180t-275.5 -56h-31q-113 0 -202 34.5t-150 104t-81.5 174.5t2.5 246
l155 875q5 27 31 27h163q11 0 17.5 -7.5t4.5 -18.5l-157 -887q-32 -179 32.5 -270.5t214.5 -91.5h21q150 0 247.5 92.5t129.5 271.5l156 884q5 27 31 27z" />
    <glyph glyph-name="udieresiscaron" unicode="&#x1da;" 
d="M1002 1869h119q11 0 15 -8.5t-3 -16.5l-252 -317q-11 -12 -26 -12h-95q-17 0 -25 16l-142 319q-4 7 0 13t12 6h123q20 0 27 -20l67 -206l145 207q13 19 35 19zM547 1416h144q11 0 17.5 -7.5t4.5 -18.5l-31 -175q-5 -26 -32 -26h-144q-11 0 -17.5 7.5t-4.5 17.5l31 175
q5 27 32 27zM882 1416h145q11 0 17.5 -8t4.5 -18l-31 -175q-5 -26 -32 -26h-145q-11 0 -17 7t-4 18l31 175q5 27 31 27zM959 1024h158q11 0 17.5 -7.5t4.5 -18.5l-173 -979q-3 -19 -22 -19h-140q-20 0 -20 21l10 93q-186 -141 -351 -141h-17q-157 0 -222.5 95t-35.5 266
l117 663q5 27 32 27h150q11 0 17.5 -7.5t4.5 -18.5l-112 -634q-20 -115 11.5 -170t133.5 -55h7q120 0 274 109l134 757q3 19 22 19z" />
    <glyph glyph-name="Udieresisgrave" unicode="&#x1db;" horiz-adv-x="1378" 
d="M834 2277h131q29 0 37 -26l93 -312q2 -7 -1.5 -11.5t-10.5 -4.5h-100q-23 0 -33 21l-128 314q-3 8 0.5 13.5t11.5 5.5zM772 1825h144q11 0 17.5 -7.5t4.5 -17.5l-31 -175q-5 -27 -32 -27h-144q-11 0 -17.5 7.5t-4.5 18.5l31 175q5 26 32 26zM1107 1825h145q11 0 17 -7
t4 -18l-30 -175q-5 -27 -32 -27h-145q-11 0 -17 8t-4 18l31 175q5 26 31 26zM1294 1434h163q11 0 17.5 -7.5t4.5 -18.5l-157 -892q-32 -183 -122.5 -307t-214 -180t-275.5 -56h-31q-113 0 -202 34.5t-150 104t-81.5 174.5t2.5 246l155 875q5 27 31 27h163q11 0 17.5 -7.5
t4.5 -18.5l-157 -887q-32 -179 32.5 -270.5t214.5 -91.5h21q150 0 247.5 92.5t129.5 271.5l156 884q5 27 31 27z" />
    <glyph glyph-name="udieresisgrave" unicode="&#x1dc;" 
d="M613 1869h132q28 0 36 -27l93 -311q2 -7 -1.5 -11.5t-10.5 -4.5h-100q-23 0 -33 21l-128 314q-3 8 0.5 13.5t11.5 5.5zM547 1416h144q11 0 17.5 -7.5t4.5 -18.5l-31 -175q-5 -26 -32 -26h-144q-11 0 -17.5 7.5t-4.5 17.5l31 175q5 27 32 27zM883 1416h144q11 0 17.5 -8
t4.5 -18l-31 -175q-5 -26 -32 -26h-145q-11 0 -17 7t-4 18l31 175q5 27 32 27zM959 1024h158q11 0 17.5 -7.5t4.5 -18.5l-173 -979q-3 -19 -22 -19h-140q-20 0 -20 21l10 93q-186 -141 -351 -141h-17q-157 0 -222.5 95t-35.5 266l117 663q5 27 32 27h150q11 0 17.5 -7.5
t4.5 -18.5l-112 -633q-20 -115 11.5 -170.5t133.5 -55.5h7q120 0 274 109l134 757q3 19 22 19z" />
    <glyph glyph-name="Scommaaccent" unicode="&#x218;" horiz-adv-x="1122" 
d="M581 643l82 -28q25 -9 42.5 -15.5t38.5 -15.5t35.5 -16.5t30.5 -17.5t26 -20t20.5 -22t15.5 -25.5t9 -29.5t3.5 -34t-4.5 -39l-1 -7q-18 -100 -104.5 -158.5t-211.5 -58.5h-13q-87 0 -156.5 20.5t-197.5 75.5q-11 4 -20.5 -1t-11.5 -16l-24 -138q-5 -30 21 -41
q174 -85 366 -85h18q133 0 248.5 46t198 139.5t104.5 219.5l4 18q6 47 8 86t-8.5 73.5t-23 62t-37 53t-49.5 45t-60.5 38.5t-70.5 34t-79 31l-84 30q-119 42 -167 88t-34 123l1 8q17 97 101 152t190 55h12q83 0 153 -19t167 -61q10 -4 19 0.5t11 15.5l25 137q5 33 -24 43
q-151 69 -327 69h-16q-87 0 -172.5 -25.5t-159 -73.5t-125.5 -124.5t-69 -170.5l-4 -23q-26 -150 52 -243t252 -155zM458 -102h176q10 0 17 -7.5t5 -18.5l-22 -135q-3 -15 -12 -29l-139 -225q-11 -16 -29 -16h-95q-10 0 -13.5 7.5t1.5 15.5l132 215h-56q-11 0 -17 8t-4 18
l24 140q5 27 32 27z" />
    <glyph glyph-name="scommaaccent" unicode="&#x219;" horiz-adv-x="880" 
d="M624 1051h22q138 0 260 -61q27 -10 22 -41l-19 -105q-1 -10 -10 -14.5t-19 0.5q-140 72 -243 72h-10q-80 0 -140.5 -35.5t-71.5 -97.5l-1 -10q-5 -29 3 -51t29 -36.5t42 -24t54 -20.5q4 -1 6 -2t5.5 -2t6.5 -2l58 -20q71 -25 115.5 -48t82.5 -58.5t49.5 -87t-0.5 -120.5
l-2 -12q-25 -142 -148.5 -222t-284.5 -80h-17q-70 0 -148.5 17.5t-134.5 45.5q-26 10 -21 41l18 105q1 10 10 15t19 0q154 -75 266 -75h15q85 0 147 37.5t74 106.5l2 9q6 33 -2.5 57t-30.5 40t-44.5 26t-58.5 22h-1l-58 21q-66 23 -104.5 41.5t-85 53t-62.5 86t-4 120.5
l2 12q17 95 82 164.5t151 101t180 31.5zM343 -102h176q10 0 16.5 -7.5t4.5 -18.5l-22 -135q-3 -15 -12 -29l-138 -225q-11 -16 -29 -16h-96q-10 0 -13.5 7.5t1.5 15.5l132 216h-55q-11 0 -17.5 7.5t-4.5 17.5l25 140q5 27 32 27z" />
    <glyph glyph-name="uni021A" unicode="&#x21a;" horiz-adv-x="1218" 
d="M342 1434h1042q11 0 17 -7.5t4 -18.5l-25 -142q-3 -18 -22 -18h-423l-216 -1229q-3 -19 -23 -19h-166q-11 0 -17.5 7.5t-4.5 18.5l215 1222h-415q-11 0 -17.5 7.5t-4.5 17.5l24 134q5 27 32 27zM505 -102h176q10 0 17 -7.5t5 -18.5l-22 -135q-3 -15 -12 -29l-139 -225
q-11 -16 -28 -16h-96q-10 0 -13.5 7.5t1.5 15.5l132 215h-55q-11 0 -17.5 8t-4.5 18l25 140q5 27 31 27z" />
    <glyph glyph-name="uni021B" unicode="&#x21b;" horiz-adv-x="710" 
d="M427 1249l159 36q10 2 16 -3.5t5 -15.5l-43 -242h259q11 0 17 -7.5t4 -18.5l-20 -116q-3 -19 -23 -19h-265l-104 -590q-12 -70 9.5 -102t81.5 -32h9q38 0 141 33q10 3 16.5 -2.5t5.5 -15.5l-20 -109q-3 -20 -21 -27q-112 -45 -185 -45h-17q-130 0 -190 73t-37 203
l108 614h-114q-10 0 -17 7.5t-5 18.5l16 90q3 23 26 28l122 17l34 192q5 27 32 33zM356 -102h176q10 0 17 -7.5t5 -18.5l-22 -135q-3 -15 -12 -29l-139 -225q-11 -16 -28 -16h-96q-10 0 -13.5 7.5t1.5 15.5l132 216h-56q-11 0 -17 7t-4 18l24 140q5 27 32 27z" />
    <glyph glyph-name="uni0243" unicode="&#x243;" horiz-adv-x="1275" 
d="M475 1434h472q220 0 324 -92.5t71 -278.5l-4 -24q-17 -97 -80.5 -174.5t-171.5 -125.5q112 -39 157.5 -130.5t23.5 -213.5l-4 -27q-65 -368 -515 -368h-528q-11 0 -17.5 7.5t-4.5 18.5l61 348h-105q-11 0 -17.5 7.5t-4.5 17.5l8 44q5 27 32 27h104l165 935q2 13 11.5 21
t22.5 8zM1124 1030l1 7q19 104 -31.5 157.5t-185.5 53.5h-282l-77 -437h270q135 0 211.5 61.5t93.5 157.5zM1052 407l2 10q19 106 -33.5 171t-194.5 65h-305l-32 -183h301q11 0 17 -8t4 -18l-7 -44q-5 -26 -32 -26h-300l-34 -188h321q253 0 293 221z" />
    <glyph glyph-name="circumflex" unicode="&#x2c6;" horiz-adv-x="673" 
d="M628 1937h89q23 0 33 -21l139 -314q4 -7 0 -13t-12 -6h-122q-21 0 -28 20l-67 206l-147 -212q-10 -14 -29 -14h-123q-11 0 -15 8.5t3 16.5l252 316q11 13 27 13z" />
    <glyph glyph-name="caron" unicode="&#x2c7;" horiz-adv-x="673" 
d="M814 1937h119q11 0 15 -8.5t-3 -16.5l-252 -317q-11 -12 -26 -12h-96q-17 0 -24 15l-142 320q-4 7 0 13t12 6h122q21 0 28 -20l67 -206l145 207q13 19 35 19z" />
    <glyph glyph-name="breve" unicode="&#x2d8;" horiz-adv-x="681" 
d="M918 1801q9 4 15.5 -1.5t4.5 -14.5l-18 -102q-3 -17 -17 -26q-126 -79 -273 -79q-150 0 -252 76q-18 13 -13 38l17 101q1 7 7 9.5t12 -0.5q51 -27 78.5 -40t73 -25t94.5 -12t99.5 12t82.5 25t89 39z" />
    <glyph glyph-name="dotaccent" unicode="&#x2d9;" horiz-adv-x="348" 
d="M411 1825h170q11 0 17.5 -7.5t4.5 -17.5l-31 -175q-5 -27 -32 -27h-170q-11 0 -17.5 8t-4.5 18l31 175q5 26 32 26z" />
    <glyph glyph-name="ring" unicode="&#x2da;" horiz-adv-x="481" 
d="M565 1907q79 0 125.5 -56t32.5 -135q-12 -68 -69 -116t-126 -48q-81 0 -126.5 57t-31.5 137q12 67 68.5 114t126.5 47zM562 1807q-34 0 -60.5 -22.5t-31.5 -54.5t12 -55t49 -23q33 0 59 24.5t32 57.5q5 31 -11.5 52t-48.5 21z" />
    <glyph glyph-name="ogonek" unicode="&#x2db;" horiz-adv-x="423" 
d="M238 0h127q-5 -4 -28 -21.5t-29.5 -23t-27 -21.5t-28 -23t-23.5 -22t-23 -24t-18.5 -23t-17 -25.5t-11 -25t-7.5 -26.5q-8 -44 14.5 -67.5t68.5 -23.5q22 0 53 7q8 2 12.5 -3t3.5 -12l-11 -64q-3 -18 -19 -24q-46 -18 -96 -18q-86 0 -132 50.5t-29 135.5q12 64 64.5 125
t156.5 129z" />
    <glyph glyph-name="tilde" unicode="&#x2dc;" horiz-adv-x="720" 
d="M890 1788h60q8 0 12 -7t0 -14q-62 -109 -117.5 -157t-120.5 -48h-8q-26 0 -46.5 9t-33 22t-24.5 25.5t-29 21.5t-38 9q-30 0 -54.5 -16.5t-53.5 -49.5q-10 -10 -25 -10h-60q-8 0 -12 6.5t0 14.5q62 109 117.5 157t120.5 48h8q33 0 58 -13.5t37.5 -30t32.5 -30t44 -13.5
q50 0 107 66q10 10 25 10z" />
    <glyph glyph-name="hungarumlaut" unicode="&#x2dd;" horiz-adv-x="729" 
d="M699 1937h179q10 0 14 -8.5t-3 -16.5l-238 -314q-12 -15 -33 -15h-147q-10 0 -13.5 7t1.5 15l203 312q12 20 37 20z" />
    <glyph glyph-name="uni0326" unicode="&#x326;" horiz-adv-x="0" 
d="M84 -102h176q10 0 17 -7.5t5 -18.5l-22 -135q-3 -15 -12 -29l-139 -225q-11 -16 -29 -16h-95q-10 0 -13.5 7.5t1.5 15.5l132 215h-56q-11 0 -17 7.5t-4 18.5l24 140q5 27 32 27z" />
    <glyph glyph-name="uni0401" unicode="&#x401;" horiz-adv-x="1124" 
d="M677 1825h145q11 0 17 -7.5t4 -17.5l-31 -175q-5 -27 -32 -27h-144q-11 0 -17.5 7.5t-4.5 18.5l31 175q5 26 32 26zM1013 1825h144q11 0 17.5 -7.5t4.5 -17.5l-31 -175q-5 -27 -32 -27h-144q-11 0 -17.5 8t-4.5 18l31 175q5 26 32 26zM512 827h604q11 0 17.5 -7.5
t4.5 -18.5l-25 -141q-3 -19 -22 -19h-611l-81 -455h655q11 0 17.5 -7.5t4.5 -18.5l-25 -141q-3 -19 -22 -19h-848q-11 0 -17.5 8t-4.5 18l244 1381q5 27 31 27h840q11 0 17.5 -8t4.5 -18l-25 -142q-3 -18 -22 -18h-662z" />
    <glyph glyph-name="uni0404" unicode="&#x404;" horiz-adv-x="1181" 
d="M1321 1384q24 -11 19 -39l-23 -134q-1 -10 -10 -14.5t-19 0.5q-79 40 -144 58.5t-147 18.5h-12q-177 0 -315 -119t-179 -331h573q11 0 17 -8t4 -18l-24 -141q-3 -19 -23 -19h-580l-3 -20q-38 -217 57 -338t275 -121h12q78 0 148.5 19t160.5 57q14 5 24 -3t8 -23l-23 -132
q-3 -17 -19 -25q-163 -79 -344 -79h-25q-124 0 -226.5 46t-170 128.5t-94 205.5t-0.5 269l36 205q27 153 97 275.5t166.5 199.5t209 117.5t231.5 40.5h26q174 0 317 -76z" />
    <glyph glyph-name="uni0406" unicode="&#x406;" horiz-adv-x="520" 
d="M434 1434h159q11 0 17.5 -7.5t4.5 -18.5l-245 -1389q-3 -19 -22 -19h-167q-11 0 -17.5 8t-4.5 18l244 1381q5 27 31 27z" />
    <glyph glyph-name="uni0407" unicode="&#x407;" horiz-adv-x="520" 
d="M343 1825h144q11 0 17.5 -7.5t4.5 -17.5l-31 -175q-5 -27 -32 -27h-144q-11 0 -17.5 7.5t-4.5 18.5l31 175q5 26 32 26zM679 1825h144q11 0 17.5 -7.5t4.5 -17.5l-31 -175q-5 -27 -32 -27h-144q-11 0 -17.5 8t-4.5 18l31 175q5 26 32 26zM434 1434h159q11 0 17.5 -7.5
t4.5 -18.5l-245 -1389q-3 -19 -22 -19h-167q-11 0 -17.5 8t-4.5 18l244 1381q5 27 31 27z" />
    <glyph glyph-name="uni040E" unicode="&#x40e;" horiz-adv-x="1310" 
d="M1235 1801q9 4 15.5 -1.5t4.5 -14.5l-18 -102q-3 -17 -17 -26q-126 -79 -274 -79q-149 0 -251 76q-19 14 -14 38l18 101q4 16 18 9q50 -27 78 -40.5t74 -25t95 -11.5t99.5 12t82.5 25t89 39zM1303 1434h182q11 0 15.5 -8.5t-1.5 -17.5l-681 -1069q-130 -199 -231 -280
t-235 -81h-10q-61 0 -118 18q-24 7 -19 32l25 144q4 16 20 11q49 -19 82 -19h8q73 0 128.5 41.5t130.5 156.5l8 11l-297 1042q-2 7 2.5 13t12.5 6h192q15 0 18 -14l161 -564l54 -294h6l153 293l359 559q13 20 35 20z" />
    <glyph glyph-name="uni0410" unicode="&#x410;" horiz-adv-x="1304" 
d="M772 1434h261q25 0 28 -25l181 -1385q2 -12 -4.5 -18t-15.5 -6h-168q-10 0 -17 7t-8 15l-53 376h-505l-187 -379q-9 -19 -29 -19h-171q-11 0 -16 7.5t-1 17.5l672 1387q11 22 33 22zM869 1257l-228 -492l-90 -181h410l-23 181l-58 492h-11z" />
    <glyph glyph-name="uni0411" unicode="&#x411;" horiz-adv-x="1212" 
d="M434 1434h811q11 0 17.5 -8t4.5 -18l-25 -142q-3 -18 -22 -18h-633l-68 -382h250q259 0 369.5 -108t74.5 -316l-5 -32q-36 -201 -183.5 -305.5t-389.5 -104.5h-454q-11 0 -17.5 8t-4.5 18l244 1381q5 27 31 27zM488 690l-89 -504h235q317 0 360 247l4 21
q20 116 -42.5 176t-229.5 60h-238z" />
    <glyph glyph-name="uni0412" unicode="&#x412;" horiz-adv-x="1234" 
d="M436 1434h472q220 0 324 -92.5t71 -278.5l-4 -24q-17 -97 -80.5 -174.5t-171.5 -125.5q112 -39 157.5 -130.5t23.5 -213.5l-4 -27q-65 -368 -515 -368h-528q-11 0 -17.5 8t-4.5 18l243 1379q2 13 11.5 21t22.5 8zM587 1248l-77 -437h270q135 0 211.5 61.5t93.5 157.5l1 7
q19 104 -31.5 157.5t-185.5 53.5h-282zM482 653l-83 -467h321q253 0 293 221l2 10q19 106 -33.5 171t-194.5 65h-305z" />
    <glyph glyph-name="uni0413" unicode="&#x413;" horiz-adv-x="1058" 
d="M434 1434h789q11 0 17.5 -7.5t4.5 -18.5l-25 -142q-3 -18 -22 -18h-611l-217 -1229q-3 -19 -22 -19h-167q-11 0 -17.5 8t-4.5 18l244 1381q5 27 31 27z" />
    <glyph glyph-name="uni0414" unicode="&#x414;" horiz-adv-x="1540" 
d="M694 1434h825q11 0 17.5 -7.5t4.5 -18.5l-216 -1222h159q11 0 17.5 -7.5t4.5 -18.5l-73 -410q-3 -18 -22 -18h-167q-11 0 -17 7.5t-4 17.5l42 243h-981l-44 -250q-3 -18 -22 -18h-167q-11 0 -17.5 7.5t-4.5 17.5l73 413q3 16 19 16h175q72 46 111 201l257 1023
q6 24 30 24zM836 1248l-217 -860q-33 -131 -86 -203l580 1l187 1062h-464z" />
    <glyph glyph-name="uni0415" unicode="&#x415;" horiz-adv-x="1124" 
d="M512 827h604q11 0 17.5 -8t4.5 -18l-25 -141q-3 -19 -22 -19h-611l-81 -455h655q11 0 17.5 -8t4.5 -18l-25 -141q-3 -19 -22 -19h-848q-11 0 -17.5 7.5t-4.5 18.5l244 1381q5 27 31 27h840q11 0 17.5 -7.5t4.5 -18.5l-25 -142q-3 -18 -22 -18h-662z" />
    <glyph glyph-name="uni0416" unicode="&#x416;" horiz-adv-x="1951" 
d="M1904 1434h185q12 0 16.5 -9.5t-2.5 -19.5l-557 -678l346 -705q4 -8 -1 -15t-14 -7h-185q-29 0 -40 27l-306 601h-153l-108 -609q-3 -19 -22 -19h-167q-11 0 -17.5 7.5t-4.5 18.5l106 602h-149l-525 -612q-13 -16 -33 -16h-191q-12 0 -16.5 9.5t2.5 19.5l593 698
l-315 685q-3 8 1 15t13 7h179q28 0 40 -28l283 -592h151l106 601q3 19 23 19h166q11 0 17.5 -8t4.5 -18l-105 -594h147l500 603q12 17 32 17z" />
    <glyph glyph-name="uni0417" unicode="&#x417;" horiz-adv-x="1081" 
d="M721 1460h17q206 0 325.5 -102t87.5 -284l-6 -29q-17 -93 -83 -173.5t-177 -130.5q114 -39 162 -132.5t28 -208.5l-5 -29q-22 -125 -105.5 -216t-204.5 -136.5t-265 -45.5h-17q-178 0 -336 73q-25 10 -20 37l26 148q4 18 20 11q103 -44 171.5 -63.5t154.5 -19.5h13
q135 0 234 70t118 178l2 12q17 97 -42.5 165.5t-200.5 68.5h-188q-11 0 -17.5 8t-4.5 18l20 114q3 18 22 18h162q134 0 218.5 66.5t100.5 156.5l4 18q18 100 -48.5 161t-187.5 61h-13q-81 0 -157.5 -19.5t-189.5 -61.5q-10 -4 -17 2t-5 16l26 148q3 21 23 28q175 73 355 73z
" />
    <glyph glyph-name="uni0418" unicode="&#x418;" horiz-adv-x="1390" 
d="M1278 1434h192q11 0 17.5 -8t4.5 -18l-245 -1389q-3 -19 -23 -19h-167q-10 0 -16.5 7.5t-4.5 18.5l112 642l96 439h-12l-329 -438l-504 -652q-12 -17 -34 -17h-192q-11 0 -17 7.5t-4 18.5l243 1381q5 27 32 27h159q10 0 17 -7.5t5 -18.5l-107 -610l-101 -472h12l356 471
l477 620q12 17 33 17z" />
    <glyph glyph-name="uni0419" unicode="&#x419;" horiz-adv-x="1390" 
d="M1281 1801q9 4 15.5 -1.5t4.5 -14.5l-18 -102q-3 -17 -17 -26q-126 -79 -273 -79q-150 0 -252 76q-19 14 -14 38l18 101q4 16 18 9q50 -27 78 -40.5t74 -25t95 -11.5t99.5 12t82.5 25t89 39zM1278 1434h192q11 0 17.5 -8t4.5 -18l-245 -1389q-3 -19 -23 -19h-167
q-10 0 -16.5 7.5t-4.5 18.5l112 642l96 439h-12l-329 -438l-504 -652q-12 -17 -34 -17h-191q-11 0 -17.5 7.5t-4.5 18.5l243 1381q5 27 32 27h159q10 0 17 -7.5t5 -18.5l-107 -610l-101 -472h12l356 471l477 620q12 17 33 17z" />
    <glyph glyph-name="uni041A" unicode="&#x41a;" horiz-adv-x="1277" 
d="M872 727l345 -705q4 -8 -1 -15t-14 -7h-184q-30 0 -41 27l-305 601h-195l-107 -609q-3 -19 -22 -19h-167q-11 0 -17.5 8t-4.5 18l244 1381q5 27 31 27h159q11 0 17.5 -8t4.5 -18l-105 -594h187l500 603q12 17 33 17h185q12 0 16.5 -9.5t-2.5 -19.5z" />
    <glyph glyph-name="uni041B" unicode="&#x41b;" horiz-adv-x="1423" 
d="M682 1434h821q11 0 17.5 -8t4.5 -18l-245 -1389q-3 -19 -23 -19h-167q-11 0 -17 7.5t-4 18.5l215 1222h-464l-218 -867q-55 -218 -156.5 -313t-249.5 -95h-11q-47 0 -101 20q-21 8 -18 30l26 144q4 17 20 10q43 -17 73 -17h9q69 0 117 51.5t79 175.5l256 1019q7 28 36 28
z" />
    <glyph glyph-name="uni041C" unicode="&#x41c;" horiz-adv-x="1679" 
d="M1532 1434h217q12 0 19 -8.5t5 -20.5l-245 -1389q-3 -16 -19 -16h-170q-13 0 -20 8.5t-5 21.5l133 732l96 372h-24l-262 -372l-273 -362q-9 -12 -26 -12h-96q-24 0 -30 21l-140 353l-134 372h-20l-45 -373l-126 -742q-3 -19 -22 -19h-172q-11 0 -17 7.5t-4 18.5l243 1381
q5 27 32 27l207 -1q26 0 32 -23l280 -749h9l551 759q9 14 26 14z" />
    <glyph glyph-name="uni041D" unicode="&#x41d;" horiz-adv-x="1390" 
d="M1303 1434h159q11 0 17 -7.5t4 -18.5l-244 -1389q-3 -19 -23 -19h-167q-11 0 -17 8t-4 18l108 615h-656l-110 -622q-3 -19 -22 -19h-167q-11 0 -17.5 7.5t-4.5 18.5l244 1381q5 27 32 27h158q11 0 17.5 -7.5t4.5 -18.5l-103 -581h657l102 580q5 27 32 27z" />
    <glyph glyph-name="uni041E" unicode="&#x41e;" horiz-adv-x="1402" 
d="M937 1460h31q114 0 207.5 -38.5t159.5 -116t89.5 -193t-1.5 -268.5l-47 -270q-26 -149 -90.5 -265.5t-153 -189t-193.5 -109.5t-220 -37h-31q-114 0 -207.5 38.5t-159.5 116t-89.5 193t1.5 268.5l47 271q26 149 90 265.5t153 188.5t194 109t220 37zM937 1274h-20
q-159 0 -271.5 -105t-147.5 -306l-52 -294q-36 -201 38.5 -305.5t233.5 -104.5h21q159 0 271 105.5t148 306.5l52 294q35 201 -39.5 305t-233.5 104z" />
    <glyph glyph-name="uni041F" unicode="&#x41f;" horiz-adv-x="1392" 
d="M434 1434h1030q11 0 17.5 -8t4.5 -18l-245 -1389q-3 -19 -23 -19h-166q-11 0 -17.5 7.5t-4.5 18.5l215 1222h-658l-217 -1229q-3 -19 -22 -19h-167q-11 0 -17.5 8t-4.5 18l244 1381q5 27 31 27z" />
    <glyph glyph-name="uni0420" unicode="&#x420;" horiz-adv-x="1275" 
d="M434 1434h453q242 0 357.5 -113.5t78.5 -325.5l-6 -33q-38 -216 -192.5 -333t-398.5 -117h-269l-87 -493q-3 -19 -22 -19h-167q-11 0 -17.5 8t-4.5 18l244 1381q5 27 31 27zM1097 967l4 22q22 128 -42.5 193.5t-232.5 65.5h-243l-99 -558h240q167 0 258.5 73.5
t114.5 203.5z" />
    <glyph glyph-name="uni0421" unicode="&#x421;" horiz-adv-x="1181" 
d="M978 1460h26q174 0 317 -76q24 -11 19 -39l-23 -134q-1 -10 -10 -14.5t-19 0.5q-79 40 -144 58.5t-147 18.5h-12q-117 0 -218.5 -51.5t-176.5 -157.5t-101 -252l-34 -195q-38 -217 57 -338t275 -121h12q83 0 154.5 19t165.5 60q10 4 17.5 -1.5t5.5 -16.5l-23 -133
q-5 -28 -30 -39q-164 -75 -335 -75h-25q-94 0 -177.5 27t-150.5 79.5t-110.5 131t-58.5 181.5t7 230l35 205q26 151 95.5 273t165.5 199.5t210 119t233 41.5z" />
    <glyph glyph-name="uni0422" unicode="&#x422;" horiz-adv-x="1218" 
d="M342 1434h1042q11 0 17 -7.5t4 -18.5l-25 -142q-3 -18 -22 -18h-423l-216 -1229q-3 -19 -23 -19h-166q-11 0 -17.5 7.5t-4.5 18.5l215 1222h-415q-11 0 -17.5 7.5t-4.5 17.5l24 134q5 27 32 27z" />
    <glyph glyph-name="uni0423" unicode="&#x423;" horiz-adv-x="1310" 
d="M1303 1434h182q11 0 15.5 -8.5t-1.5 -17.5l-681 -1069q-130 -199 -231 -280t-235 -81h-10q-61 0 -118 18q-24 7 -19 32l25 144q4 16 20 11q49 -19 82 -19h8q73 0 128.5 41.5t130.5 156.5l8 11l-297 1042q-2 7 2.5 13t12.5 6h192q15 0 18 -14l161 -564l54 -294h6l153 293
l359 559q13 20 35 20z" />
    <glyph glyph-name="uni0424" unicode="&#x424;" horiz-adv-x="1843" 
d="M1095 1434h159q11 0 17.5 -7.5t4.5 -18.5l-18 -103h122q113 0 208 -38.5t160.5 -108.5t93 -177t4.5 -235l-5 -28q-30 -170 -128 -295.5t-232 -187t-287 -61.5h-136l-27 -155q-3 -19 -23 -19h-167q-11 0 -17 7.5t-4 18.5l26 148h-123q-113 0 -208 38.5t-160.5 109
t-92.5 177.5t-4 235l5 27q30 170 128 295.5t232 187t287 61.5h135l18 102q5 27 32 27zM1013 1120h-123q-156 0 -268.5 -98t-142.5 -267l-6 -32q-30 -169 47.5 -266t233.5 -97h125zM1225 1120l-134 -760h123q156 0 268.5 98t142.5 267l5 32q30 169 -47 266t-233 97h-125z" />
    <glyph glyph-name="uni0425" unicode="&#x425;" horiz-adv-x="1273" 
d="M1248 1434h180q12 0 16.5 -9t-2.5 -19l-524 -676l294 -709q3 -8 -1 -14.5t-13 -6.5h-183q-29 0 -39 27l-171 394l-54 181h-12l-115 -182l-316 -399q-15 -21 -42 -21h-183q-12 0 -16.5 9t2.5 19l544 702l-284 683q-3 8 1 14.5t13 6.5h180q30 0 40 -28l161 -369l57 -180h11
l115 180l299 376q15 21 42 21z" />
    <glyph glyph-name="uni0426" unicode="&#x426;" horiz-adv-x="1466" 
d="M1279 1434h167q11 0 17 -7.5t4 -18.5l-215 -1222h159q11 0 17 -7.5t4 -18.5l-72 -410q-3 -18 -22 -18h-167q-11 0 -17.5 7.5t-4.5 17.5l43 243h-1011q-11 0 -17.5 7.5t-4.5 18.5l244 1381q5 27 32 27h158q11 0 17.5 -7.5t4.5 -18.5l-216 -1222h641l216 1229q3 19 23 19z
" />
    <glyph glyph-name="uni0427" unicode="&#x427;" horiz-adv-x="1292" 
d="M1197 1434h167q11 0 17.5 -8t4.5 -18l-245 -1389q-3 -19 -22 -19h-167q-11 0 -17 7.5t-4 18.5l93 499q-66 -32 -160 -55.5t-177 -23.5h-26q-200 0 -304.5 128.5t-64.5 354.5l85 478q5 27 32 27h163q11 0 17.5 -8t4.5 -18l-84 -474q-26 -149 31.5 -225.5t190.5 -76.5h14
q148 0 304 76l125 707q3 19 22 19z" />
    <glyph glyph-name="uni0428" unicode="&#x428;" horiz-adv-x="1982" 
d="M1887 1434h167q11 0 17 -7.5t4 -18.5l-245 -1389q-3 -19 -22 -19h-1627q-11 0 -17.5 8t-4.5 18l244 1381q5 27 32 27h158q11 0 17.5 -8t4.5 -18l-216 -1222h518l217 1229q3 19 23 19h166q11 0 17.5 -7.5t4.5 -18.5l-215 -1222h518l216 1229q3 19 23 19z" />
    <glyph glyph-name="uni0429" unicode="&#x429;" horiz-adv-x="2074" 
d="M1887 1434h167q11 0 17 -8t4 -18l-215 -1222h159q11 0 17 -8t4 -18l-72 -410q-3 -18 -22 -18h-167q-11 0 -17.5 7.5t-4.5 17.5l43 243h-1619q-11 0 -17.5 8t-4.5 18l244 1381q5 27 32 27h158q11 0 17.5 -8t4.5 -18l-216 -1222h518l217 1229q3 19 23 19h166
q11 0 17.5 -7.5t4.5 -18.5l-215 -1222h518l216 1229q3 19 23 19z" />
    <glyph glyph-name="uni042A" unicode="&#x42a;" horiz-adv-x="1411" 
d="M342 1434h399q11 0 17 -7.5t4 -18.5l-95 -542h249q259 0 370 -108t75 -316l-6 -32q-36 -201 -183.5 -305.5t-389.5 -104.5h-454q-11 0 -17.5 7.5t-4.5 18.5l216 1222h-214q-11 0 -17.5 7.5t-4.5 17.5l24 134q5 27 32 27zM636 690l-89 -504h234q318 0 361 247l4 21
q20 115 -43 175.5t-230 60.5h-237z" />
    <glyph glyph-name="uni042B" unicode="&#x42b;" horiz-adv-x="1671" 
d="M1584 1434h159q11 0 17.5 -7.5t4.5 -18.5l-245 -1389q-3 -19 -23 -19h-167q-11 0 -17 8t-4 18l243 1381q5 27 32 27zM435 1434h158q11 0 17.5 -7.5t4.5 -18.5l-96 -542h250q259 0 369.5 -108t74.5 -316l-5 -32q-36 -201 -183.5 -305.5t-389.5 -104.5h-454
q-11 0 -17.5 7.5t-4.5 18.5l244 1381q5 27 32 27zM488 690l-89 -504h235q317 0 360 247l4 21q20 116 -42.5 176t-229.5 60h-238z" />
    <glyph glyph-name="uni042C" unicode="&#x42c;" horiz-adv-x="1263" 
d="M434 1434h159q11 0 17.5 -8t4.5 -18l-96 -542h250q259 0 369.5 -108t74.5 -316l-5 -32q-36 -201 -183.5 -305.5t-389.5 -104.5h-454q-11 0 -17.5 8t-4.5 18l244 1381q5 27 31 27zM488 690l-89 -504h235q317 0 360 247l4 21q20 116 -42.5 176t-229.5 60h-238z" />
    <glyph glyph-name="uni042D" unicode="&#x42d;" horiz-adv-x="1187" 
d="M680 1460h25q119 0 220.5 -43t173.5 -122.5t101 -204.5t2 -278l-36 -205q-22 -123 -72 -227t-119.5 -178.5t-154.5 -126.5t-177 -77t-187 -25h-26q-179 0 -318 76q-23 11 -18 39l24 134q2 11 10.5 15t18.5 0q76 -39 141.5 -58.5t148.5 -19.5h12q182 0 323 122t179 339
l3 18h-579q-11 0 -17 7.5t-4 18.5l25 141q3 19 22 19h586q35 213 -62 331.5t-277 118.5h-13q-81 0 -151 -18.5t-158 -56.5q-14 -5 -24 3t-8 22l23 131q3 18 20 26q169 79 343 79z" />
    <glyph glyph-name="uni042E" unicode="&#x42e;" horiz-adv-x="1859" 
d="M1394 1460h30q114 0 208 -38.5t159.5 -116t89.5 -193t-1 -268.5l-48 -270q-26 -149 -90.5 -265.5t-153 -189t-193.5 -109.5t-220 -37h-30q-114 0 -208 38.5t-159.5 116t-89.5 193t1 268.5l9 48h-219l-109 -618q-3 -19 -22 -19h-167q-11 0 -17.5 7.5t-4.5 18.5l244 1381
q5 27 32 27h158q11 0 17.5 -7.5t4.5 -18.5l-103 -585h218l7 37q26 149 90 265.5t153 188.5t194 109t220 37zM1615 571l51 294q35 201 -39 305t-233 104h-21q-159 0 -271.5 -105t-147.5 -306l-51 -294q-36 -201 38.5 -305.5t233.5 -104.5h21q159 0 271 105.5t148 306.5z" />
    <glyph glyph-name="uni042F" unicode="&#x42f;" horiz-adv-x="1286" 
d="M873 1434h484q11 0 17.5 -7.5t4.5 -18.5l-245 -1389q-3 -19 -22 -19h-167q-11 0 -17.5 8t-4.5 18l94 533h-268l-443 -543q-13 -16 -32 -16h-190q-12 0 -16.5 9t2.5 19l290 358l193 210q-145 41 -207 151t-35 261l4 27q70 399 558 399zM1139 1248h-260q-166 0 -248.5 -62
t-103.5 -184l-3 -12q-20 -117 42.5 -188t224.5 -71h257z" />
    <glyph glyph-name="uni0430" unicode="&#x430;" horiz-adv-x="1099" 
d="M650 1051h7q82 0 158 -42t129 -115l32 111q8 19 28 19h136q11 0 17 -8t4 -18l-172 -979q-3 -19 -23 -19h-139q-9 0 -15 6t-6 15l12 98q-78 -71 -166 -108.5t-172 -37.5h-7q-181 0 -258 125.5t-41 332.5l31 177q36 207 150 325t295 118zM689 885h-7q-111 0 -181 -73.5
t-95 -215.5l-30 -170q-50 -287 172 -287h8q128 0 267 119l91 509q-97 118 -225 118z" />
    <glyph glyph-name="uni0431" unicode="&#x431;" horiz-adv-x="1095" 
d="M1190 1530q11 4 19 -2.5t6 -17.5l-20 -108q-3 -17 -9.5 -26t-21.5 -18q-122 -75 -350 -75h-9q-136 0 -219 -72t-106 -205l-21 -119q147 132 315 132h16q182 0 262.5 -125.5t44.5 -331.5l-24 -133q-26 -146 -103 -250.5t-182.5 -155t-228.5 -50.5h-23q-193 0 -296 126
t-64 345l91 512q43 245 184 369t390 124h9q104 0 179 18.5t161 62.5zM707 853h-7q-128 0 -267 -119l-55 -308q-25 -141 22.5 -214t159.5 -73h14q108 0 187 75.5t103 213.5l24 138q25 141 -22 214t-159 73z" />
    <glyph glyph-name="uni0432" unicode="&#x432;" horiz-adv-x="1009" 
d="M321 1024h386q183 0 266.5 -72.5t60.5 -200.5l-2 -17q-26 -146 -177 -213q78 -24 113 -86.5t21 -143.5l-2 -16q-23 -130 -126.5 -202.5t-284.5 -72.5h-436q-11 0 -17.5 8t-4.5 18l171 971q5 27 32 27zM471 874l-53 -296h191q96 0 151.5 42.5t66.5 103.5l3 19
q11 63 -27.5 97t-136.5 34h-195zM397 458l-54 -308h225q97 0 150.5 40t64.5 104l3 20q12 68 -25.5 106t-135.5 38h-228z" />
    <glyph glyph-name="uni0433" unicode="&#x433;" horiz-adv-x="829" 
d="M321 1024h622q11 0 17 -7.5t4 -18.5l-20 -116q-3 -19 -23 -19h-452l-149 -844q-3 -19 -22 -19h-158q-11 0 -17.5 8t-4.5 18l171 971q5 27 32 27z" />
    <glyph glyph-name="uni0434" unicode="&#x434;" horiz-adv-x="1275" 
d="M522 1024h686q11 0 17.5 -7.5t4.5 -18.5l-148 -837h154q11 0 17.5 -7.5t4.5 -18.5l-68 -385q-3 -18 -22 -18h-158q-11 0 -17.5 7.5t-4.5 17.5l43 243h-787l-44 -250q-3 -18 -22 -18h-158q-11 0 -17 7.5t-4 17.5l68 388q3 16 19 16h143q52 31 79 135l179 701q6 27 35 27z
M651 863l-128 -509q-32 -123 -78 -194l434 1l124 702h-352z" />
    <glyph glyph-name="uni0435" unicode="&#x435;" horiz-adv-x="1069" 
d="M722 1051h22q188 0 280.5 -121t53.5 -341l-15 -89q-3 -21 -24 -21h-648l-12 -71q-23 -129 45 -200.5t196 -71.5h9q114 0 316 78q10 4 17 -2t5 -17l-20 -113q-5 -28 -30 -37q-79 -32 -170.5 -52t-165.5 -20h-18q-208 0 -316.5 126.5t-71.5 337.5l24 134q26 150 104 260
t186 165t233 55zM717 898h-12q-107 0 -186.5 -79t-106.5 -216l478 1q28 149 -15 221.5t-158 72.5z" />
    <glyph glyph-name="uni0436" unicode="&#x436;" horiz-adv-x="1558" 
d="M1462 1024h172q12 0 16.5 -9t-2.5 -19l-374 -464l246 -510q4 -8 -1 -15t-14 -7h-184q-20 0 -28 19l-211 426h-123l-75 -426q-3 -19 -23 -19h-157q-11 0 -17.5 8t-4.5 18l74 419h-118l-364 -429q-13 -16 -32 -16h-181q-12 0 -16.5 9.5t2.5 19.5l424 503l-208 471
q-3 8 1 14.5t13 6.5h174q21 0 29 -20l181 -398h123l71 399q3 19 22 19h158q11 0 17 -8t4 -18l-69 -392h119l323 401q12 17 33 17z" />
    <glyph glyph-name="uni0437" unicode="&#x437;" horiz-adv-x="876" 
d="M556 1051h20q178 0 265.5 -79.5t64.5 -208.5l-3 -17q-28 -155 -182 -225q78 -25 113.5 -89t20.5 -149l-3 -16q-24 -138 -141.5 -216t-304.5 -78h-27q-154 0 -275 62q-24 10 -19 36l21 115q1 10 10 14.5t19 -0.5q138 -72 248 -72h17q100 0 168.5 47.5t80.5 113.5l3 17
q11 66 -27 105t-135 39h-150q-11 0 -17.5 7.5t-4.5 18.5l17 93q3 19 22 19h123q96 0 151.5 42.5t66.5 103.5l3 16q11 64 -31 105t-136 41h-14q-98 0 -255 -70q-14 -6 -24.5 2.5t-8.5 22.5l19 110q3 19 22 26q138 64 283 64z" />
    <glyph glyph-name="uni0438" unicode="&#x438;" horiz-adv-x="1105" 
d="M959 1024h189q11 0 17 -8t4 -18l-172 -979q-3 -19 -23 -19h-158q-10 0 -16.5 7.5t-4.5 18.5l73 415l59 302h-15l-218 -292l-331 -433q-12 -18 -34 -18h-189q-11 0 -17.5 8t-4.5 18l171 971q5 27 32 27h150q10 0 17 -7.5t5 -18.5l-68 -386l-65 -331h16l548 725
q12 18 35 18z" />
    <glyph glyph-name="uni0439" unicode="&#x439;" horiz-adv-x="1105" 
d="M1069 1391q9 4 15.5 -1t4.5 -14l-18 -103q-3 -16 -17 -25q-127 -80 -274 -80q-149 0 -251 76q-19 14 -14 38l18 101q4 16 18 9q49 -27 77.5 -40t74 -24.5t94.5 -11.5t99.5 11.5t84 25t88.5 38.5zM959 1024h189q11 0 17 -7.5t4 -18.5l-172 -979q-3 -19 -23 -19h-158
q-10 0 -16.5 7.5t-4.5 18.5l73 415l59 302h-15l-218 -292l-331 -433q-12 -18 -34 -18h-189q-11 0 -17.5 7.5t-4.5 18.5l171 971q5 27 32 27h150q10 0 17 -7.5t5 -18.5l-68 -386l-65 -331h16l548 725q12 18 35 18z" />
    <glyph glyph-name="uni043A" unicode="&#x43a;" horiz-adv-x="1026" 
d="M325 1024h150q11 0 17 -8t4 -18l-68 -392h146l324 401q12 17 33 17h171q12 0 16.5 -9t-2.5 -19l-374 -464l246 -510q4 -8 -1 -15t-14 -7h-175q-29 0 -40 27l-208 419h-151l-75 -427q-3 -19 -22 -19h-158q-11 0 -17.5 8t-4.5 18l171 971q5 27 32 27z" />
    <glyph glyph-name="uni043B" unicode="&#x43b;" horiz-adv-x="1148" 
d="M288 289l180 704q8 31 40 31h682q11 0 17.5 -7.5t4.5 -18.5l-173 -979q-3 -19 -22 -19h-158q-11 0 -17 7.5t-4 18.5l147 837h-351l-152 -605q-73 -285 -294 -285h-13q-52 0 -106 23q-25 11 -20 41l18 99q2 9 9.5 13.5t17.5 1.5q30 -12 57 -12h9q90 0 128 150z" />
    <glyph glyph-name="uni043C" unicode="&#x43c;" horiz-adv-x="1282" 
d="M1121 1024h202q11 0 17 -7.5t4 -18.5l-172 -979q-3 -19 -23 -19h-158q-10 0 -16.5 7.5t-4.5 18.5l61 354l111 413h-29l-345 -470q-15 -21 -39 -21h-65q-25 0 -33 24l-178 467h-26l-45 -413l-62 -361q-3 -19 -23 -19h-157q-11 0 -17.5 8t-4.5 18l170 963q7 35 41 35h185
q25 0 33 -25l180 -480h6l354 486q13 19 34 19z" />
    <glyph glyph-name="uni043D" unicode="&#x43d;" horiz-adv-x="1099" 
d="M983 1024h158q11 0 17 -8t4 -18l-173 -979q-3 -19 -22 -19h-158q-11 0 -17 7.5t-4 18.5l73 414h-467l-74 -421q-3 -19 -22 -19h-158q-11 0 -17.5 8t-4.5 18l171 971q5 27 32 27h150q11 0 17.5 -8t4.5 -18l-70 -397h466l71 404q3 19 23 19z" />
    <glyph glyph-name="uni043E" unicode="&#x43e;" horiz-adv-x="1128" 
d="M732 1051h22q196 0 306.5 -127t72.5 -344l-27 -151q-26 -145 -105 -250t-188 -155.5t-236 -50.5h-22q-196 0 -306.5 127t-72.5 344l27 151q26 145 105 250t188 155.5t236 50.5zM729 885h-15q-114 0 -197 -75.5t-107 -213.5l-30 -170q-24 -138 31.5 -212.5t169.5 -74.5h14
q114 0 197 75.5t107 213.5l30 170q24 138 -31 212.5t-169 74.5z" />
    <glyph glyph-name="uni043F" unicode="&#x43f;" horiz-adv-x="1101" 
d="M321 1024h821q11 0 17 -7.5t4 -18.5l-172 -979q-3 -19 -23 -19h-158q-11 0 -17 8t-4 18l147 837h-467l-149 -844q-3 -19 -22 -19h-158q-11 0 -17.5 8t-4.5 18l171 971q5 27 32 27z" />
    <glyph glyph-name="uni0440" unicode="&#x440;" horiz-adv-x="1112" 
d="M796 1051h15q182 0 262.5 -126t44.5 -332l-29 -164q-39 -220 -166 -338t-308 -118h-16q-72 0 -140.5 32t-115.5 93l-79 -422q-3 -18 -22 -18h-158q-11 0 -17.5 7.5t-4.5 18.5l231 1313q5 27 32 27h132q9 0 15 -6t6 -15l-12 -91q72 67 158.5 103t171.5 36zM731 885h-8
q-128 0 -267 -119l-90 -507q99 -120 224 -120h7q113 0 186.5 74t98.5 215l30 170q25 141 -22 214t-159 73z" />
    <glyph glyph-name="uni0441" unicode="&#x441;" horiz-adv-x="974" 
d="M739 1051h23q125 0 262 -72q26 -11 21 -40l-20 -112q-2 -10 -11 -14.5t-19 0.5q-71 38 -122.5 55t-106.5 17h-14q-127 0 -223.5 -82.5t-122.5 -231.5l-21 -120q-26 -149 39.5 -230.5t193.5 -81.5h15q55 0 112.5 17.5t144.5 56.5q10 4 17.5 -2t5.5 -17l-20 -113
q-5 -27 -28 -36q-157 -72 -280 -72h-23q-203 0 -312 131t-71 352l21 127q25 145 103 252t190.5 161.5t245.5 54.5z" />
    <glyph glyph-name="uni0442" unicode="&#x442;" horiz-adv-x="954" 
d="M249 1024h819q11 0 17.5 -8t4.5 -18l-21 -116q-3 -19 -22 -19h-316l-149 -844q-3 -19 -22 -19h-158q-11 0 -17 7.5t-4 18.5l147 837h-308q-11 0 -17.5 7.5t-4.5 18.5l19 108q5 27 32 27z" />
    <glyph glyph-name="uni0443" unicode="&#x443;" horiz-adv-x="1044" 
d="M1006 1024h160q10 0 14.5 -7t0.5 -16l-571 -1079q-78 -147 -162 -219t-212 -72h-15q-72 0 -157 30q-26 8 -21 37l19 110q1 10 9 14t17 1q79 -29 131 -29h6q54 0 94 31t81 105l39 70h-20q-21 0 -25 21l-173 972q-2 13 6 22t21 9h146q13 0 22 -7.5t10 -20.5l85 -461
l38 -363h5l163 363l251 465q11 24 38 24z" />
    <glyph glyph-name="uni0444" unicode="&#x444;" horiz-adv-x="1554" 
d="M969 1509h150q11 0 17 -7.5t4 -17.5l-76 -433h98q94 0 174.5 -32t137.5 -90.5t80.5 -149t4.5 -199.5l-27 -151q-19 -109 -72 -197t-127.5 -144t-163.5 -85.5t-184 -29.5h-111l-52 -297q-3 -18 -23 -18h-157q-11 0 -17.5 7.5t-4.5 17.5l51 290h-98q-94 0 -174.5 32
t-137.5 90.5t-80.5 149t-4.5 199.5l27 151q19 109 72 197t127.5 144t163.5 85.5t184 29.5h111l76 432q5 26 32 26zM832 885h-99q-117 0 -208 -76.5t-115 -212.5l-30 -170q-24 -136 39.5 -211.5t179.5 -75.5h101zM1035 885l-132 -746h99q117 0 208 76.5t115 212.5l30 170
q24 136 -39.5 211.5t-179.5 75.5h-101z" />
    <glyph glyph-name="uni0445" unicode="&#x445;" horiz-adv-x="991" 
d="M934 1024h163q12 0 16.5 -9.5t-2.5 -19.5l-383 -472l226 -501q4 -8 -0.5 -15t-13.5 -7h-168q-29 0 -39 27l-126 272l-32 112h-9l-68 -112l-228 -278q-16 -21 -42 -21h-167q-12 0 -16.5 9.5t2.5 19.5l402 494l-216 479q-4 8 0.5 15t13.5 7h164q29 0 39 -27l118 -255
l33 -112h9l67 112l215 261q16 21 42 21z" />
    <glyph glyph-name="uni0446" unicode="&#x446;" horiz-adv-x="1202" 
d="M978 1024h158q11 0 17 -7.5t4 -18.5l-147 -837h153q11 0 17.5 -7.5t4.5 -18.5l-68 -385q-3 -18 -22 -18h-158q-11 0 -17 7t-4 18l42 243h-818q-11 0 -17.5 8t-4.5 18l171 971q5 27 32 27h150q11 0 17.5 -8t4.5 -18l-148 -837h462l148 844q3 19 23 19z" />
    <glyph glyph-name="uni0447" unicode="&#x447;" horiz-adv-x="1064" 
d="M952 1024h158q11 0 17.5 -8t4.5 -18l-173 -979q-3 -19 -22 -19h-157q-11 0 -17.5 8t-4.5 19l62 325q-147 -78 -298 -78h-17q-163 0 -237.5 98.5t-42.5 280.5l60 344q5 27 32 27h150q11 0 17 -7.5t4 -18.5l-58 -331q-20 -114 15.5 -171t138.5 -57h7q119 0 252 78l87 488
q3 19 22 19z" />
    <glyph glyph-name="uni0448" unicode="&#x448;" horiz-adv-x="1619" 
d="M1503 1025h158q11 0 17 -7.5t4 -18.5l-173 -980q-3 -19 -22 -19h-1347q-11 0 -17.5 7.5t-4.5 18.5l172 972q5 27 31 27h150q11 0 17.5 -8t4.5 -18l-148 -838h392l149 845q3 19 22 19h158q11 0 17 -7.5t4 -18.5l-147 -838h391l149 845q3 19 23 19z" />
    <glyph glyph-name="uni0449" unicode="&#x449;" horiz-adv-x="1728" 
d="M1503 1024h158q11 0 17 -8t4 -18l-148 -837h154q11 0 17.5 -8t4.5 -18l-68 -385q-3 -19 -22 -19h-158q-11 0 -17.5 8t-4.5 18l43 243h-1343q-11 0 -17.5 7.5t-4.5 18.5l171 971q5 27 32 27h150q11 0 17.5 -7.5t4.5 -18.5l-148 -837h392l149 844q3 19 22 19h158
q11 0 17 -8t4 -18l-147 -837h391l149 844q3 19 23 19z" />
    <glyph glyph-name="uni044A" unicode="&#x44a;" horiz-adv-x="1132" 
d="M249 1024h353q11 0 17 -7.5t4 -18.5l-59 -335h243q181 0 260.5 -86t53.5 -233l-4 -21q-26 -148 -130.5 -235.5t-283.5 -87.5h-433q-11 0 -17 8t-4 18l148 837h-177q-11 0 -17.5 8t-4.5 18l19 108q5 27 32 27zM537 510l-61 -349h208q100 0 157.5 47.5t71.5 123.5l4 20
q13 74 -28 116t-142 42h-210z" />
    <glyph glyph-name="uni044B" unicode="&#x44b;" horiz-adv-x="1394" 
d="M321 1024h150q11 0 17.5 -7.5t4.5 -18.5l-60 -335h244q181 0 261 -86t54 -233l-4 -21q-26 -148 -131 -235.5t-284 -87.5h-433q-11 0 -17.5 8t-4.5 18l171 971q5 27 32 27zM1285 1024h150q11 0 17 -8t4 -18l-172 -979q-3 -19 -23 -19h-157q-11 0 -17.5 7.5t-4.5 18.5
l171 971q5 27 32 27zM407 510l-62 -349h208q100 0 157.5 47.5t71.5 123.5l4 20q13 74 -28 116t-142 42h-209z" />
    <glyph glyph-name="uni044C" unicode="&#x44c;" horiz-adv-x="1003" 
d="M321 1024h150q11 0 17.5 -7.5t4.5 -18.5l-60 -335h244q181 0 261 -86t54 -233l-4 -21q-26 -148 -131 -235.5t-284 -87.5h-433q-11 0 -17.5 8t-4.5 18l171 971q5 27 32 27zM407 510l-62 -349h208q100 0 157.5 47.5t71.5 123.5l4 20q13 74 -28 116t-142 42h-209z" />
    <glyph glyph-name="uni044D" unicode="&#x44d;" horiz-adv-x="976" 
d="M570 1051h22q95 0 174 -31.5t134 -91t76.5 -153t1.5 -208.5l-22 -125q-27 -153 -109.5 -261t-192.5 -158t-239 -50h-22q-128 0 -263 72q-25 11 -20 40l19 112q1 10 10.5 14.5t19.5 -0.5q71 -38 122.5 -55t106.5 -17h15q128 0 225 82t123 232h-402q-11 0 -17.5 8t-4.5 18
l15 88q3 19 23 19h409q21 143 -46.5 221t-191.5 78h-14q-90 0 -246 -70q-14 -6 -24.5 2t-8.5 23l19 110q3 18 21 26q157 75 287 75z" />
    <glyph glyph-name="uni044E" unicode="&#x44e;" horiz-adv-x="1548" 
d="M1152 1051h23q196 0 306 -127t72 -344l-26 -151q-26 -145 -105 -250t-188 -155.5t-236 -50.5h-23q-94 0 -171.5 31.5t-130.5 89.5t-74.5 147.5t-2.5 198.5h-202l-74 -421q-3 -19 -22 -19h-158q-11 0 -17.5 7.5t-4.5 18.5l171 971q5 27 32 27h150q11 0 17.5 -7.5
t4.5 -18.5l-70 -397h201q40 214 187 332t341 118zM1320 428l29 170q24 138 -31 212.5t-169 74.5h-15q-114 0 -196.5 -75.5t-106.5 -213.5l-30 -170q-24 -138 31 -212.5t169 -74.5h15q114 0 197 75.5t107 213.5z" />
    <glyph glyph-name="uni044F" unicode="&#x44f;" horiz-adv-x="1048" 
d="M654 1024h436q11 0 17.5 -7.5t4.5 -18.5l-173 -979q-3 -19 -22 -19h-158q-11 0 -17.5 8t-4.5 18l63 354h-202l-298 -363q-12 -17 -33 -17h-176q-12 0 -16.5 8.5t2.5 18.5l239 294l99 94q-101 25 -147.5 103t-28.5 178l3 17q26 146 129 228.5t283 82.5zM885 863h-210
q-101 0 -158 -43t-70 -117l-3 -19q-13 -72 28 -117t141 -45h212z" />
    <glyph glyph-name="uni0451" unicode="&#x451;" horiz-adv-x="1069" 
d="M553 1416h144q11 0 17.5 -7.5t4.5 -18.5l-31 -175q-5 -26 -32 -26h-144q-11 0 -17.5 7.5t-4.5 17.5l31 175q5 27 32 27zM888 1416h145q11 0 17 -8t4 -18l-30 -175q-5 -26 -32 -26h-145q-11 0 -17 7t-4 18l31 175q5 27 31 27zM722 1051h22q188 0 280.5 -121t53.5 -341
l-15 -89q-3 -21 -24 -21h-648l-12 -71q-23 -129 45 -200.5t196 -71.5h9q114 0 316 78q10 4 17 -2t5 -17l-20 -113q-5 -28 -30 -37q-79 -32 -170.5 -52t-165.5 -20h-18q-208 0 -316.5 126.5t-71.5 337.5l24 134q26 150 104 260t186 165t233 55zM717 898h-12
q-107 0 -186.5 -79t-106.5 -216l478 1q28 149 -15 221.5t-158 72.5z" />
    <glyph glyph-name="uni0454" unicode="&#x454;" horiz-adv-x="974" 
d="M1024 979q26 -11 21 -40l-20 -112q-2 -10 -11 -14.5t-19 0.5q-71 38 -122.5 55t-106.5 17h-14q-123 0 -218 -78t-125 -221h400q11 0 17 -8t4 -18l-15 -88q-3 -19 -23 -19h-407v-2q-26 -150 40.5 -231t192.5 -81h15q90 0 246 70q14 6 24.5 -2t8.5 -23l-20 -110
q-3 -18 -20 -26q-157 -75 -287 -75h-23q-94 0 -172.5 31.5t-133 91t-76 153t-1.5 208.5l22 125q27 153 109 261t191.5 158t237.5 50h23q127 0 262 -72z" />
    <glyph glyph-name="uni0456" unicode="&#x456;" horiz-adv-x="448" 
d="M392 1402h164q11 0 17 -8t4 -18l-28 -161q-5 -26 -32 -26h-164q-11 0 -17.5 7.5t-4.5 17.5l29 161q5 27 32 27zM333 1024h149q11 0 17.5 -7.5t4.5 -18.5l-173 -979q-3 -19 -22 -19h-158q-11 0 -17.5 8t-4.5 18l172 971q5 27 32 27z" />
    <glyph glyph-name="uni0457" unicode="&#x457;" horiz-adv-x="434" 
d="M229 1416h145q11 0 17 -7.5t4 -18.5l-31 -175q-5 -26 -32 -26h-144q-11 0 -17.5 7.5t-4.5 17.5l31 175q5 27 32 27zM565 1416h144q11 0 17.5 -8t4.5 -18l-31 -175q-5 -26 -32 -26h-144q-11 0 -17.5 7.5t-4.5 17.5l31 175q5 27 32 27zM325 1024h150q11 0 17.5 -7.5
t4.5 -18.5l-173 -979q-3 -19 -22 -19h-158q-11 0 -17.5 8t-4.5 18l172 971q5 27 31 27z" />
    <glyph glyph-name="uni045E" unicode="&#x45e;" horiz-adv-x="1044" 
d="M1029 1391q9 4 16 -1t5 -14l-19 -103q-3 -16 -16 -25q-127 -80 -274 -80q-152 0 -251 76q-19 14 -14 38l18 101q4 16 18 9q49 -27 77.5 -40t74 -24.5t94.5 -11.5t99 11.5t83 24.5t89 39zM1006 1024h160q10 0 14.5 -7t0.5 -16l-571 -1079q-78 -147 -162 -219t-212 -72h-15
q-72 0 -157 30q-26 8 -21 37l19 110q1 10 9 14t17 1q79 -29 131 -29h6q54 0 94 31t81 105l39 70h-20q-21 0 -25 21l-173 972q-2 13 6 22t21 9h146q13 0 22 -7.5t10 -20.5l85 -461l38 -363h5l163 363l251 465q11 24 38 24z" />
    <glyph glyph-name="uni0490" unicode="&#x490;" horiz-adv-x="1058" 
d="M1116 1579h133q11 0 17.5 -7.5t4.5 -18.5l-51 -287q-3 -18 -22 -18h-611l-217 -1229q-3 -19 -22 -19h-167q-11 0 -17.5 8t-4.5 18l244 1381q5 27 31 27h640l23 129q3 16 19 16z" />
    <glyph glyph-name="uni0491" unicode="&#x491;" horiz-adv-x="829" 
d="M855 1170h113q11 0 17.5 -7.5t4.5 -18.5l-46 -262q-3 -19 -23 -19h-452l-149 -844q-3 -19 -22 -19h-158q-11 0 -17.5 7.5t-4.5 18.5l171 971q5 27 32 27h492l22 129q3 17 20 17z" />
    <glyph glyph-name="Wgrave" unicode="&#x1e80;" horiz-adv-x="2041" 
d="M1106 1937h132q28 0 36 -27l93 -311q2 -7 -1.5 -11.5t-10.5 -4.5h-100q-23 0 -33 21l-128 314q-3 8 0.5 13.5t11.5 5.5zM2047 1434h169q9 0 13.5 -7t0.5 -15l-618 -1392q-8 -20 -30 -20h-240q-22 0 -24 22l-46 510l-39 626h-13l-258 -626l-229 -512q-8 -20 -29 -20h-242
q-21 0 -23 21l-126 1384q-1 12 6.5 20.5t19.5 8.5h156q14 0 23.5 -9t10.5 -22l52 -612l36 -598h11l244 598l275 624q8 19 28 19h183q14 0 23 -9t10 -22l53 -612l36 -598h11l244 598l272 616q12 27 40 27z" />
    <glyph glyph-name="wgrave" unicode="&#x1e81;" horiz-adv-x="1603" 
d="M809 1527h132q28 0 36 -26l93 -312q2 -7 -1.5 -11.5t-10.5 -4.5h-100q-23 0 -33 21l-128 314q-3 8 0.5 13.5t11.5 5.5zM1565 1024h162q10 0 14 -7.5t0 -15.5l-468 -983q-7 -18 -29 -18h-191q-21 0 -23 20l-34 290l-43 504h-13l-217 -504l-139 -292q-8 -18 -29 -18h-192
q-20 0 -22 20l-121 974q-1 13 6.5 21.5t20.5 8.5h158q21 0 23 -21l44 -420l25 -399h8l163 399l190 414q13 27 42 27h171q21 0 23 -21l44 -420l26 -399h8l162 399l191 415q11 26 40 26z" />
    <glyph glyph-name="Wacute" unicode="&#x1e82;" horiz-adv-x="2041" 
d="M1476 1937h134q11 0 15 -8.5t-3 -16.5l-238 -314q-12 -15 -34 -15h-102q-10 0 -13.5 7t1.5 15l203 312q12 20 37 20zM2047 1434h169q9 0 13.5 -7t0.5 -15l-618 -1392q-8 -20 -30 -20h-240q-22 0 -24 22l-46 510l-39 626h-13l-258 -626l-229 -512q-8 -20 -29 -20h-242
q-21 0 -23 21l-126 1384q-1 12 6.5 20.5t19.5 8.5h156q14 0 23.5 -9t10.5 -22l52 -612l36 -598h11l244 598l275 624q8 19 28 19h183q14 0 23 -9t10 -22l53 -612l36 -598h11l244 598l272 616q12 27 40 27z" />
    <glyph glyph-name="wacute" unicode="&#x1e83;" horiz-adv-x="1603" 
d="M1185 1527h135q11 0 14.5 -8t-3.5 -16l-238 -314q-13 -16 -33 -16h-103q-10 0 -13.5 7t1.5 15l204 313q12 19 36 19zM1565 1024h162q10 0 14 -7.5t0 -15.5l-468 -983q-7 -18 -29 -18h-191q-21 0 -23 20l-34 290l-43 504h-13l-217 -504l-139 -292q-8 -18 -29 -18h-192
q-20 0 -22 20l-121 974q-1 13 6.5 21.5t20.5 8.5h158q21 0 23 -21l43 -420l26 -399h8l163 399l190 414q13 27 42 27h171q21 0 23 -21l44 -420l26 -399h8l162 399l191 415q11 26 40 26z" />
    <glyph glyph-name="Wdieresis" unicode="&#x1e84;" horiz-adv-x="2041" 
d="M1103 1825h144q11 0 17.5 -7.5t4.5 -17.5l-31 -175q-5 -27 -32 -27h-144q-11 0 -17.5 7.5t-4.5 18.5l31 175q5 26 32 26zM1438 1825h145q11 0 17 -7t4 -18l-30 -175q-5 -27 -32 -27h-145q-11 0 -17 8t-4 18l31 175q5 26 31 26zM2047 1434h169q9 0 13.5 -7t0.5 -15
l-618 -1392q-8 -20 -30 -20h-240q-22 0 -24 22l-46 510l-39 626h-14l-257 -626l-229 -512q-8 -20 -29 -20h-242q-21 0 -23 21l-126 1384q-1 12 6.5 20.5t19.5 8.5h156q14 0 23.5 -9t10.5 -22l52 -612l36 -598h11l244 598l275 624q8 19 28 19h183q14 0 23 -9t10 -22l53 -612
l36 -598h11l244 598l272 616q12 27 40 27z" />
    <glyph glyph-name="wdieresis" unicode="&#x1e85;" horiz-adv-x="1603" 
d="M812 1416h144q11 0 17.5 -8t4.5 -18l-31 -175q-5 -26 -32 -26h-144q-11 0 -17.5 7.5t-4.5 17.5l31 175q5 27 32 27zM1148 1416h144q11 0 17.5 -7.5t4.5 -18.5l-31 -175q-5 -26 -32 -26h-144q-11 0 -17.5 7.5t-4.5 17.5l31 175q5 27 32 27zM1565 1024h162q10 0 14 -7.5
t0 -15.5l-468 -983q-7 -18 -29 -18h-191q-21 0 -23 20l-34 290l-43 504h-13l-217 -504l-139 -292q-8 -18 -29 -18h-192q-20 0 -22 20l-121 974q-1 13 6.5 21.5t20.5 8.5h158q21 0 23 -21l43 -420l26 -399h8l163 399l190 414q13 27 42 27h171q21 0 23 -21l44 -420l26 -399h8
l162 399l191 415q11 26 40 26z" />
    <glyph glyph-name="Ygrave" unicode="&#x1ef2;" horiz-adv-x="1275" 
d="M728 1937h132q28 0 36 -27l93 -311q2 -7 -1.5 -11.5t-10.5 -4.5h-100q-23 0 -33 21l-128 314q-3 8 0.5 13.5t11.5 5.5zM1269 1434h181q11 0 15.5 -9t-1.5 -18l-633 -926l-84 -462q-3 -19 -22 -19h-167q-11 0 -17.5 7.5t-4.5 18.5l83 455l-305 923q-4 12 2 21t19 9h172
q23 0 30 -23l165 -481l52 -246h6l134 246l340 485q13 19 35 19z" />
    <glyph glyph-name="ygrave" unicode="&#x1ef3;" horiz-adv-x="1044" 
d="M542 1527h132q28 0 36 -26l93 -312q2 -7 -1.5 -11.5t-10.5 -4.5h-100q-23 0 -33 21l-128 314q-3 8 0.5 13.5t11.5 5.5zM1006 1024h160q10 0 14.5 -7t0.5 -16l-571 -1079q-78 -147 -162 -219t-212 -72h-15q-75 0 -157 29q-26 8 -21 38l19 110q1 10 9 14t17 1
q79 -29 131 -29h6q54 0 94 31t81 105l39 70h-20q-21 0 -24 21l-174 972q-2 13 6 22t21 9h146q13 0 22 -7.5t10 -20.5l85 -461l38 -363h5l163 363l251 465q11 24 38 24z" />
    <glyph glyph-name="uni2009" unicode="&#x2009;" horiz-adv-x="727" 
 />
    <glyph glyph-name="endash" unicode="&#x2013;" 
d="M217 724h897q11 0 17 -7.5t4 -17.5l-20 -117q-3 -18 -23 -18h-905q-11 0 -17 7.5t-4 17.5l19 109q5 26 32 26z" />
    <glyph glyph-name="emdash" unicode="&#x2014;" horiz-adv-x="1224" 
d="M217 724h1048q11 0 17.5 -7.5t4.5 -17.5l-21 -117q-3 -19 -22 -19h-1057q-11 0 -17 7.5t-4 18.5l19 109q5 26 32 26z" />
    <glyph glyph-name="quoteleft" unicode="&#x2018;" horiz-adv-x="364" 
d="M443 1434h90q11 0 16.5 -9t0.5 -19l-149 -314h56q11 0 17.5 -7.5t4.5 -18.5l-32 -183q-3 -19 -23 -19h-184q-10 0 -16.5 7.5t-4.5 18.5l27 164q3 14 10 29l157 333q10 18 30 18z" />
    <glyph glyph-name="quoteright" unicode="&#x2019;" horiz-adv-x="364" 
d="M354 1434h176q10 0 17 -7.5t5 -18.5l-28 -164q-3 -17 -9 -29l-158 -333q-10 -18 -30 -18h-93q-10 0 -14.5 7.5t-0.5 16.5l150 318h-56q-11 0 -17 7.5t-4 18.5l30 175q5 27 32 27z" />
    <glyph glyph-name="quotesinglbase" unicode="&#x201a;" horiz-adv-x="364" 
d="M141 227h176q11 0 17 -7.5t5 -17.5l-27 -165q-3 -14 -10 -29l-158 -332q-10 -18 -30 -18h-93q-10 0 -14.5 7.5t0.5 16.5l149 318h-56q-11 0 -17 7.5t-4 18.5l31 174q5 27 31 27z" />
    <glyph glyph-name="quotedblleft" unicode="&#x201c;" horiz-adv-x="737" 
d="M443 1434h90q11 0 16.5 -9t0.5 -19l-149 -314h56q11 0 17.5 -7.5t4.5 -18.5l-32 -183q-3 -19 -23 -19h-184q-10 0 -16.5 7.5t-4.5 18.5l27 164q3 14 10 29l157 333q10 18 30 18zM816 1434h90q11 0 16.5 -9t0.5 -19l-149 -314h56q11 0 17.5 -8t4.5 -18l-33 -183
q-3 -19 -22 -19h-184q-10 0 -17 7.5t-5 18.5l28 164q3 14 10 29l157 333q10 18 30 18z" />
    <glyph glyph-name="quotedblright" unicode="&#x201d;" horiz-adv-x="737" 
d="M354 1434h176q10 0 17 -7.5t5 -18.5l-28 -164q-3 -17 -9 -29l-158 -333q-10 -18 -30 -18h-93q-10 0 -14.5 7.5t-0.5 16.5l150 318h-56q-11 0 -17 7.5t-4 18.5l30 175q5 27 32 27zM727 1434h176q10 0 17 -7.5t5 -18.5l-28 -164q-3 -17 -9 -29l-158 -333q-10 -18 -30 -18
h-94q-10 0 -14 7.5t0 16.5l150 318h-56q-11 0 -17.5 7.5t-4.5 18.5l31 175q5 27 32 27z" />
    <glyph glyph-name="quotedblbase" unicode="&#x201e;" horiz-adv-x="737" 
d="M141 227h176q11 0 17 -7.5t5 -17.5l-27 -165q-3 -14 -10 -29l-158 -332q-10 -18 -30 -18h-93q-10 0 -14.5 7.5t0.5 16.5l149 318h-56q-11 0 -17 7.5t-4 18.5l31 174q5 27 31 27zM514 227h176q11 0 17 -7.5t5 -17.5l-28 -165q-3 -17 -9 -29l-158 -332q-10 -18 -30 -18h-93
q-10 0 -14.5 7.5t-0.5 16.5l150 318h-56q-11 0 -17 7.5t-4 18.5l30 174q5 27 32 27z" />
    <glyph glyph-name="dagger" unicode="&#x2020;" horiz-adv-x="962" 
d="M655 1434h159q11 0 17 -7.5t4 -18.5l-67 -384h287q11 0 17.5 -8t4.5 -18l-24 -133q-5 -27 -32 -27h-286l-170 -963q-5 -27 -32 -27h-158q-11 0 -17.5 7.5t-4.5 18.5l170 964h-287q-11 0 -17.5 8t-4.5 18l24 133q5 27 32 27h286l67 383q5 27 32 27z" />
    <glyph glyph-name="daggerdbl" unicode="&#x2021;" horiz-adv-x="962" 
d="M659 1434h155q11 0 17 -7.5t4 -18.5l-67 -384h287q11 0 17.5 -8t4.5 -18l-23 -129q-5 -31 -37 -31h-282l-66 -373h287q11 0 17.5 -7.5t4.5 -18.5l-23 -129q-5 -31 -37 -31h-282l-70 -400q-5 -31 -37 -31h-154q-11 0 -17.5 7.5t-4.5 18.5l71 405h-287q-11 0 -17 8t-4 18
l22 129q5 31 37 31h282l66 373h-287q-11 0 -17.5 7.5t-4.5 18.5l23 129q5 31 37 31h282l66 379q5 31 37 31z" />
    <glyph glyph-name="bullet" unicode="&#x2022;" horiz-adv-x="563" 
d="M411 806q96 0 152 -69t39 -166q-15 -85 -86 -145t-157 -60q-96 0 -152 69t-39 166q15 85 86 145t157 60z" />
    <glyph glyph-name="ellipsis" unicode="&#x2026;" horiz-adv-x="1394" 
d="M129 227h171q11 0 17 -7.5t4 -18.5l-32 -182q-3 -19 -22 -19h-179q-11 0 -17.5 7.5t-4.5 18.5l31 174q5 27 32 27zM653 227h170q11 0 17.5 -8t4.5 -18l-33 -182q-3 -19 -22 -19h-178q-11 0 -17.5 8t-4.5 18l31 174q5 27 32 27zM1176 227h171q11 0 17 -7.5t4 -18.5
l-32 -182q-3 -19 -22 -19h-179q-11 0 -17.5 7.5t-4.5 18.5l31 174q5 27 32 27z" />
    <glyph glyph-name="perthousand" unicode="&#x2030;" horiz-adv-x="2844" 
d="M660 1460h31q153 0 234.5 -105t51.5 -272l-15 -85q-30 -167 -140 -265t-263 -98h-32q-154 0 -235.5 105.5t-51.5 272.5l15 85q30 167 140.5 264.5t264.5 97.5zM1538 1434h100q11 0 15.5 -9t-1.5 -18l-899 -1381q-17 -26 -48 -26h-100q-11 0 -15.5 8.5t1.5 17.5l899 1381
q17 27 48 27zM664 1315h-15q-89 0 -150 -61.5t-79 -166.5l-14 -81q-18 -105 20 -165t127 -60h15q89 0 150 61t79 166l14 81q18 105 -20 165.5t-127 60.5zM1685 799h31q153 0 234.5 -105.5t51.5 -272.5l-15 -84q-30 -167 -140 -265.5t-263 -98.5h-32q-153 0 -234.5 106
t-51.5 273l15 84q30 167 140 265t264 98zM2540 799h31q153 0 234.5 -105.5t51.5 -272.5l-15 -84q-30 -167 -140 -265.5t-263 -98.5h-32q-154 0 -235.5 106t-51.5 273l15 84q30 167 140.5 265t264.5 98zM1689 653h-14q-89 0 -150 -61t-79 -166l-15 -82q-18 -105 20.5 -165
t127.5 -60h14q89 0 150 61t79 166l15 82q18 105 -20.5 165t-127.5 60zM2544 653h-15q-89 0 -150 -61t-79 -166l-14 -82q-18 -105 20 -165t127 -60h15q89 0 150 61t79 166l14 82q18 105 -20 165t-127 60z" />
    <glyph glyph-name="guilsinglleft" unicode="&#x2039;" horiz-adv-x="507" 
d="M456 857h102q17 0 23 -13.5t-4 -26.5l-251 -280l152 -290q4 -11 -2 -20t-18 -9h-105q-19 0 -30 17l-161 248q-10 16 -8 34l5 41q1 16 15 31l257 257q11 11 25 11z" />
    <glyph glyph-name="guilsinglright" unicode="&#x203a;" horiz-adv-x="507" 
d="M239 857h105q19 0 30 -17l162 -251q8 -15 7 -29l-5 -46q-1 -14 -13 -26l-259 -260q-10 -10 -25 -10h-102q-17 0 -23 13t4 26l251 280l-152 290q-5 11 1.5 20.5t18.5 9.5z" />
    <glyph glyph-name="fraction" unicode="&#x2044;" horiz-adv-x="352" 
d="M746 1434h100q11 0 15.5 -9t-1.5 -18l-899 -1381q-17 -26 -48 -26h-100q-11 0 -16 8.5t1 17.5l899 1381q17 27 49 27z" />
    <glyph glyph-name="Euro" unicode="&#x20ac;" horiz-adv-x="1341" 
d="M1482 1384q24 -11 19 -39l-23 -134q-1 -10 -10 -14.5t-19 0.5q-79 40 -144 58.5t-147 18.5h-12q-154 0 -280.5 -90.5t-185.5 -255.5h460q11 0 17 -8t4 -18l-13 -75q-5 -27 -32 -27h-468l-29 -165h469q11 0 17.5 -8t4.5 -18l-13 -75q-5 -26 -32 -26h-460
q-1 -167 93.5 -258t249.5 -91h12q83 0 154.5 19t165.5 60q10 4 17.5 -1.5t5.5 -16.5l-23 -133q-5 -28 -30 -39q-164 -75 -335 -75h-25q-107 0 -200 35t-162.5 100.5t-107.5 168.5t-33 231h-209q-11 0 -17.5 7.5t-4.5 17.5l13 75q5 27 32 27h201l29 165h-202q-11 0 -17 7.5
t-4 18.5l13 75q5 27 32 27h205q49 169 157 291.5t242.5 181.5t281.5 59h26q174 0 317 -76z" />
    <glyph glyph-name="uni2116" unicode="&#x2116;" horiz-adv-x="2158" 
d="M1970 1460h31q153 0 234.5 -105t51.5 -272l-15 -85q-30 -167 -140 -265t-263 -98h-32q-154 0 -235 105.5t-51 272.5l14 85q30 167 140.5 264.5t264.5 97.5zM1301 1434h169q11 0 17.5 -7.5t4.5 -18.5l-245 -1389q-3 -19 -23 -19h-192q-23 0 -31 22l-277 665l-170 420h-18
l-56 -420l-118 -671q-3 -16 -19 -16h-170q-11 0 -17 8t-4 18l243 1381q5 27 32 27h185q22 0 30 -22l245 -596l203 -490h18l68 490l105 601q3 17 20 17zM1974 1315h-14q-89 0 -150.5 -61.5t-79.5 -166.5l-14 -81q-18 -105 20.5 -165t127.5 -60h14q89 0 150 61t79 166l14 81
q18 105 -20 165.5t-127 60.5zM1514 533h630q11 0 17 -7.5t4 -18.5l-23 -133q-5 -27 -32 -27h-630q-11 0 -17.5 7.5t-4.5 18.5l24 133q5 27 32 27z" />
    <glyph glyph-name="trademark" unicode="&#x2122;" horiz-adv-x="1605" 
d="M356 1516l567 -1q11 0 17.5 -7.5t4.5 -17.5l-12 -70q-3 -19 -23 -19h-226l-117 -665q-3 -19 -23 -19h-84q-11 0 -17.5 8t-4.5 18l116 658h-219q-11 0 -17.5 8t-4.5 18l11 62q5 27 32 27zM1660 1515l124 1q11 0 17.5 -8t4.5 -18l-133 -754q-3 -19 -22 -19h-87
q-11 0 -17 7.5t-4 18.5l74 417l55 189h-17l-128 -189l-144 -189q-12 -15 -29 -15h-40q-23 0 -31 23l-71 181l-67 189h-16l-19 -189l-71 -424q-4 -20 -22 -20h-87q-11 0 -17.5 8t-4.5 18l132 747q5 27 31 27h114q28 0 36 -27l131 -366h8l267 375q12 17 33 17z" />
    <glyph glyph-name="estimated" unicode="&#x212e;" horiz-adv-x="1521" 
d="M761 1366q152 0 283.5 -55t222 -149t142 -221.5t51.5 -270.5h-1164v-428q86 -93 205 -145t260 -52q149 0 274.5 48.5t213.5 130.5q7 7 15 4t8 -13v-43q0 -20 -16 -35q-93 -78 -221 -121t-274 -43q-203 0 -364 94.5t-248 253t-87 349.5q0 143 51.5 270.5t142 221.5
t222 149t283.5 55zM761 1295q-141 0 -260 -51.5t-205 -143.5v-365h930v365q-86 92 -205 143.5t-260 51.5z" />
    <glyph glyph-name="oneeighth" unicode="&#x215b;" horiz-adv-x="1724" 
d="M584 1434h48q11 0 17 -8t4 -18l-106 -601h140q11 0 17.5 -8t4.5 -18l-18 -101q-3 -18 -22 -18h-464q-11 0 -17.5 7.5t-4.5 17.5l18 101q3 19 22 19h166l81 457l-172 -59q-9 -3 -15.5 2.5t-4.5 15.5l15 90q5 28 31 36l231 80q17 5 29 5zM1379 1434h100q11 0 15.5 -9
t-1.5 -18l-899 -1381q-17 -26 -48 -26h-100q-11 0 -15.5 8.5t1.5 17.5l898 1381q17 27 49 27zM1481 799h14q117 0 189.5 -64t55.5 -162l-2 -12q-20 -108 -144 -166q53 -22 84 -73.5t19 -118.5l-2 -15q-17 -98 -107 -156.5t-221 -58.5h-23q-130 0 -204.5 66t-57.5 164l3 15
q24 133 170 189q-44 25 -69.5 70t-15.5 99l2 12q17 97 104 154t205 57zM1477 673h-9q-55 0 -100 -30t-54 -82v-4q-7 -40 20.5 -71.5t87.5 -31.5h20q61 0 100.5 32t46.5 72l1 4q9 52 -24 81.5t-89 29.5zM1432 332h-39q-65 0 -105 -35t-47 -77l-1 -7q-9 -52 24.5 -83t98.5 -31
h14q65 0 110.5 32t54.5 84l1 7q7 42 -19.5 76t-91.5 34z" />
    <glyph glyph-name="threeeighths" unicode="&#x215c;" horiz-adv-x="1761" 
d="M558 1460h9q123 0 194 -64.5t53 -165.5l-2 -13q-19 -107 -136 -166q49 -21 76.5 -68.5t16.5 -111.5l-3 -16q-18 -101 -108.5 -160.5t-226.5 -59.5h-11q-94 0 -205 44q-26 9 -21 35l17 94q3 15 19 10q67 -28 107.5 -39.5t84.5 -11.5h9q68 0 116.5 33t58.5 86l2 8
q7 42 -18.5 72.5t-90.5 30.5h-103q-11 0 -17.5 7.5t-4.5 18.5l12 69q3 18 23 18h94q62 0 101 32t47 73v5q9 52 -24 81t-92 29h-6q-59 0 -199 -51q-10 -3 -16.5 2.5t-4.5 15.5l16 91q3 23 25 29q113 43 208 43zM1416 1434h101q11 0 15.5 -9t-1.5 -18l-899 -1381
q-17 -26 -48 -26h-100q-11 0 -16 8.5t1 17.5l899 1381q17 27 48 27zM1519 799h14q117 0 189.5 -64t55.5 -162l-2 -12q-20 -108 -144 -166q53 -22 84 -73.5t19 -118.5l-2 -15q-17 -98 -107 -156.5t-221 -58.5h-23q-130 0 -204.5 66t-57.5 164l3 15q24 133 170 189
q-44 25 -69.5 70t-15.5 99l2 12q17 97 104 154t205 57zM1515 673h-10q-55 0 -99.5 -30t-53.5 -82l-1 -4q-7 -40 21 -71.5t88 -31.5h19q61 0 101 32.5t47 71.5l1 4q9 52 -24 81.5t-89 29.5zM1470 332h-39q-65 0 -105 -35t-47 -77l-2 -7q-9 -52 24.5 -83t98.5 -31h15
q65 0 110.5 32t54.5 84l1 7q7 42 -19.5 76t-91.5 34z" />
    <glyph glyph-name="fiveeighths" unicode="&#x215d;" horiz-adv-x="1765" 
d="M1421 1434h100q11 0 15.5 -9t-1.5 -18l-899 -1381q-17 -26 -48 -26h-100q-11 0 -15.5 8.5t1.5 17.5l898 1381q17 27 49 27zM367 1433h417q11 0 17 -7.5t4 -18.5l-16 -90q-3 -18 -22 -18h-306l-34 -189q86 24 131 24q105 0 169 -61.5t44 -178.5l-3 -16
q-19 -109 -110 -176.5t-228 -67.5h-11q-96 0 -211 45q-25 9 -20 33l16 90q4 16 19 11q124 -51 197 -51h9q69 0 118 37t59 94l2 9q10 55 -19.5 89.5t-99.5 34.5q-50 0 -156 -26q-19 -3 -32 7l-19 15q-13 10 -10 26l63 358q5 27 32 27zM1523 799h14q117 0 189.5 -64t55.5 -162
l-2 -12q-20 -108 -144 -166q53 -22 84 -73.5t19 -118.5l-2 -15q-17 -98 -107 -156.5t-221 -58.5h-23q-130 0 -204.5 66t-57.5 164l3 15q24 133 170 189q-44 25 -69.5 70t-15.5 99l2 12q17 97 104 154t205 57zM1519 673h-9q-55 0 -100 -30t-54 -82v-4q-7 -40 20.5 -71.5
t87.5 -31.5h20q61 0 100.5 32t46.5 72l1 4q9 52 -24 81.5t-89 29.5zM1474 332h-39q-65 0 -105 -35t-47 -77l-1 -7q-9 -52 24 -83t98 -31h15q65 0 110.5 32t54.5 84l1 7q7 42 -19.5 76t-91.5 34z" />
    <glyph glyph-name="seveneighths" unicode="&#x215e;" horiz-adv-x="1591" 
d="M342 1434h505q10 0 17 -7.5t5 -18.5l-11 -74q-3 -15 -14 -28l-296 -327q-12 -14 -15 -30l-49 -269q-3 -19 -23 -19h-117q-10 0 -16.5 7.5t-4.5 18.5l47 280q3 18 17 34l271 287h-343q-11 0 -17.5 8t-4.5 18l17 93q5 27 32 27zM1246 1434h101q11 0 15.5 -9t-1.5 -18
l-899 -1381q-17 -26 -48 -26h-101q-11 0 -15.5 8.5t1.5 17.5l899 1381q17 27 48 27zM1349 799h14q117 0 189.5 -64t55.5 -162l-2 -12q-20 -108 -144 -166q53 -22 84 -73.5t19 -118.5l-3 -15q-17 -98 -106.5 -156.5t-220.5 -58.5h-23q-130 0 -204.5 66t-57.5 164l2 15
q24 133 170 189q-44 24 -69 69.5t-15 99.5l2 12q17 97 104 154t205 57zM1344 673h-9q-55 0 -99.5 -30t-53.5 -82l-1 -5q-7 -39 21 -70.5t88 -31.5h19q61 0 101 32.5t47 71.5v4q9 52 -24 81.5t-89 29.5zM1300 332h-40q-65 0 -104.5 -35t-46.5 -77l-2 -7q-9 -52 24.5 -83
t98.5 -31h14q65 0 110.5 32t54.5 84l2 7q7 42 -19.5 76t-91.5 34z" />
    <glyph glyph-name="arrowleft" unicode="&#x2190;" horiz-adv-x="1259" 
d="M194 688l424 231q5 2 8.5 -0.5t2.5 -7.5l-3 -35q-2 -14 -13 -22l-169 -127h856q11 0 17.5 -7.5t4.5 -17.5l-21 -117q-3 -18 -22 -18h-868l121 -125q11 -11 9 -26l-3 -36q-2 -11 -12 -5l-338 228q-17 12 -14 30l4 32q1 15 16 23z" />
    <glyph glyph-name="arrowup" unicode="&#x2191;" horiz-adv-x="663" 
d="M516 1136h29q19 0 25 -17l161 -377q2 -5 -1 -9.5t-8 -4.5h-28q-16 0 -25 12l-99 144l-154 -865q-3 -19 -22 -19h-116q-11 0 -17 7.5t-4 18.5l153 858l-154 -148q-10 -8 -21 -8h-33q-8 0 -11 6t2 12l292 375q12 15 31 15z" />
    <glyph glyph-name="arrowright" unicode="&#x2192;" horiz-adv-x="1259" 
d="M944 875l3 33q1 6 6 8.5t10 -1.5l333 -223q18 -13 15 -35l-4 -27q-2 -17 -17 -26l-418 -227q-6 -4 -11 -0.5t-4 10.5l3 31q2 13 11 21l170 127h-856q-11 0 -17 7.5t-4 17.5l19 109q5 26 32 26h859l-123 126q-9 9 -7 23z" />
    <glyph glyph-name="arrowdown" unicode="&#x2193;" horiz-adv-x="663" 
d="M475 1110h107q11 0 17.5 -7.5t4.5 -18.5l-154 -859l154 148q8 8 22 8h32q8 0 10.5 -5.5t-1.5 -11.5l-293 -377q-11 -14 -28 -14h-28q-21 0 -29 20l-160 375q-2 5 1 9t8 4h27q17 0 26 -14l99 -142l153 858q5 27 32 27z" />
    <glyph glyph-name="uni2194" unicode="&#x2194;" horiz-adv-x="1597" 
d="M1303 916l332 -224q18 -13 15 -34l-3 -27q-1 -16 -18 -26l-417 -227q-6 -4 -11.5 -0.5t-4.5 10.5l4 31q2 13 11 21l170 127h-970l121 -125q11 -11 9 -26l-3 -36q-2 -11 -12 -5l-338 228q-17 12 -14 30l4 32q1 15 16 23l424 231q5 2 8.5 -0.5t2.5 -7.5l-3 -35
q-2 -14 -13 -22l-169 -127h970l-123 125q-10 10 -8 24l4 33q1 6 6 8.5t10 -1.5z" />
    <glyph glyph-name="arrowupdn" unicode="&#x2195;" horiz-adv-x="663" 
d="M624 1429l161 -377q2 -5 -1 -9.5t-8 -4.5h-29q-16 0 -25 12l-98 144l-174 -969l153 147q9 9 22 9h33q8 0 11 -6t-2 -12l-294 -376q-11 -14 -27 -14h-28q-22 0 -30 19l-160 375q-2 5 0.5 9.5t8.5 4.5h27q18 0 27 -14l98 -142l174 969l-154 -148q-10 -8 -20 -8h-34
q-7 0 -10 6t1 12l293 375q12 15 30 15h29q20 0 26 -17z" />
    <glyph glyph-name="uni2196" unicode="&#x2196;" horiz-adv-x="995" 
d="M214 833l30 26q12 11 27 6l412 -105q7 -1 8 -8t-4 -11l-27 -23q-10 -9 -23 -7l-195 14l505 -610q12 -16 -3 -29l-97 -86q-17 -15 -30 2l-503 609l-21 -194q-2 -13 -10 -20l-27 -23q-5 -5 -11 -2.5t-7 9.5l-35 426q-2 15 11 26z" />
    <glyph glyph-name="uni2197" unicode="&#x2197;" horiz-adv-x="995" 
d="M580 758l441 106q21 5 35 -11l12 -14q14 -17 6 -37l-177 -427q-2 -6 -7.5 -6.5t-9.5 4.5l-15 18q-13 14 -8 32l47 188l-718 -612q-15 -14 -29 2l-71 83q-14 15 2 29l718 612l-186 -14q-17 -1 -30 13l-15 18q-4 4 -2.5 9.5t7.5 6.5z" />
    <glyph glyph-name="uni2198" unicode="&#x2198;" horiz-adv-x="995" 
d="M200 752l98 87q16 14 30 -3l503 -608l19 190q2 15 14 26l24 21q5 5 11 2t7 -10l34 -423q2 -19 -11 -30l-26 -22q-14 -12 -32 -8l-409 105q-7 1 -8 7.5t4 10.5l24 21q11 10 29 10l191 -14l-504 610q-12 16 2 28z" />
    <glyph glyph-name="uni2199" unicode="&#x2199;" horiz-adv-x="995" 
d="M240 228l718 612q15 14 30 -3l71 -82q13 -15 -3 -29l-717 -612l187 14q15 1 27 -12l17 -20q4 -4 2.5 -9.5t-7.5 -6.5l-444 -106q-18 -5 -31 10l-15 17q-14 16 -6 33l178 429q2 6 7.5 7t9.5 -4l17 -20q10 -12 7 -29z" />
    <glyph glyph-name="partialdiff" unicode="&#x2202;" horiz-adv-x="1089" 
d="M883 1536h11q88 0 158.5 -25.5t119.5 -77.5t62.5 -132.5t-12.5 -189.5l-182 -682q-58 -220 -207 -338t-343 -118h-23q-189 0 -285.5 128t-39.5 343l36 133q55 206 182.5 324t310.5 118h15q79 0 150 -38t114 -105l65 244q35 132 -13.5 194t-185.5 62h-9q-72 0 -139.5 -18
t-170.5 -56q-11 -4 -18 2.5t-4 17.5l32 121q5 18 25 25q201 68 351 68zM699 853h-7q-114 0 -193.5 -75t-116.5 -214l-36 -138q-37 -140 8 -213.5t152 -73.5h15q112 0 192.5 74t117.5 215l83 308q-86 117 -215 117z" />
    <glyph glyph-name="emptyset" unicode="&#x2205;" horiz-adv-x="1212" 
d="M1246 1036l53 -64q14 -15 -2 -29l-120 -102q88 -148 54 -344q-26 -145 -115 -265t-222.5 -189.5t-282.5 -69.5q-193 1 -319 112l-117 -99q-15 -14 -29 2l-53 63q-14 15 2 29l117 100q-91 149 -55 347q27 147 116 266.5t221 188t281 69.5q195 0 322 -114l119 101
q16 14 30 -2zM326 510q-22 -121 23 -213l613 524q-83 64 -201 64q-159 -1 -282.5 -107t-152.5 -268zM1063 514q21 118 -23 210l-612 -523q83 -62 198 -62q160 1 284.5 107t152.5 268z" />
    <glyph glyph-name="product" unicode="&#x220f;" horiz-adv-x="1302" 
d="M344 1434h1124q11 0 17.5 -8t4.5 -18l-25 -142q-3 -18 -23 -18h-145l-217 -1229q-3 -19 -22 -19h-167q-11 0 -17 8t-4 18l215 1222h-427l-217 -1229q-3 -19 -22 -19h-167q-11 0 -17 7.5t-4 18.5l215 1222h-136q-11 0 -17.5 7.5t-4.5 17.5l24 134q5 27 32 27z" />
    <glyph glyph-name="summation" unicode="&#x2211;" horiz-adv-x="1038" 
d="M342 1434h861q11 0 17.5 -7.5t4.5 -18.5l-25 -142q-3 -18 -22 -18h-615l356 -461q11 -16 8 -33l-10 -76q-2 -17 -14 -28l-522 -464h602q11 0 17.5 -7.5t4.5 -18.5l-25 -141q-3 -19 -22 -19h-870q-11 0 -17 7.5t-5 17.5l19 118q5 26 23 43l597 531l-399 522q-19 26 -14 57
l18 110q5 28 32 28z" />
    <glyph glyph-name="minus" unicode="&#x2212;" 
d="M217 724h897q11 0 17 -7t4 -18l-19 -109q-5 -26 -32 -26h-897q-11 0 -17 7.5t-4 17.5l19 109q5 26 32 26z" />
    <glyph glyph-name="radical" unicode="&#x221a;" horiz-adv-x="1429" 
d="M1442 1434h161q10 0 14 -7.5t0 -16.5l-737 -1393q-9 -17 -28 -17h-207q-11 0 -19.5 7t-9.5 18l-153 838h-223q-11 0 -17 8t-4 18l19 108q5 27 32 27h345q30 0 35 -30l69 -391l52 -431h4l200 431l429 807q11 24 38 24z" />
    <glyph glyph-name="infinity" unicode="&#x221e;" horiz-adv-x="1392" 
d="M1210 1051h13q129 0 193 -103.5t39 -246.5l-5 -27q-28 -159 -124 -260.5t-246 -101.5h-12q-44 0 -81 13t-63.5 32t-52 53t-43 65t-40.5 79q-101 -129 -185 -185.5t-180 -56.5h-12q-129 0 -193.5 104t-39.5 246l5 27q28 159 124 260.5t246 101.5h12q53 0 96 -17.5t77 -53
t58.5 -73.5t52.5 -93q97 126 181 181.5t180 55.5zM1191 927h-10q-61 0 -116 -46.5t-147 -164.5q52 -111 89 -156.5t98 -45.5h10q70 0 121.5 57.5t66.5 142.5l3 17q15 85 -15.5 140.5t-99.5 55.5zM528 849h-9q-70 0 -122 -57.5t-67 -142.5l-3 -17q-15 -85 15.5 -140.5
t99.5 -55.5h10q62 0 117.5 47t150.5 169q-53 109 -92.5 153t-99.5 44z" />
    <glyph glyph-name="integral" unicode="&#x222b;" horiz-adv-x="894" 
d="M880 1536h17q79 0 171 -40q26 -11 21 -42l-17 -100q-2 -9 -9.5 -13.5t-17.5 -1.5q-88 32 -128 32h-9q-118 0 -141 -136l-262 -1487q-46 -260 -309 -260h-17q-75 0 -170 41q-27 11 -22 42l18 100q2 9 9 13.5t17 1.5q88 -32 129 -32h9q117 0 140 136l262 1486
q46 260 309 260z" />
    <glyph glyph-name="approxequal" unicode="&#x2248;" horiz-adv-x="905" 
d="M432 850q48 0 91 -15.5t69.5 -34.5t64 -34.5t75.5 -15.5q35 0 78 12.5t71.5 25t81.5 38.5q8 4 14.5 -0.5t5.5 -13.5l-7 -89q-2 -18 -19 -28q-140 -73 -225 -73q-47 0 -89.5 16t-69 34.5t-64 34.5t-75.5 16q-35 0 -78 -12.5t-71.5 -25t-81.5 -38.5q-8 -4 -15 0.5t-6 13.5
l8 89q1 18 23 30q51 25 75.5 36t66 22.5t77.5 11.5zM381 558q48 0 91 -16t69 -34.5t63.5 -34.5t75.5 -16q35 0 78 12.5t71.5 25t81.5 38.5q8 4 15 -0.5t6 -13.5l-8 -89q-2 -18 -19 -28q-138 -72 -224 -72q-47 0 -89.5 15.5t-69.5 34.5t-64.5 34.5t-75.5 15.5
q-35 0 -78 -12.5t-71.5 -25t-81.5 -38.5q-8 -4 -14.5 0.5t-5.5 13.5l7 89q1 18 23 30q52 25 76 36t66 23t78 12z" />
    <glyph glyph-name="notequal" unicode="&#x2260;" horiz-adv-x="1075" 
d="M873 830h260q11 0 17.5 -8t4.5 -18l-13 -75q-5 -27 -32 -27h-333l-124 -165h429q11 0 17 -8t4 -18l-13 -75q-5 -27 -32 -27h-500l-162 -214q-12 -15 -26 -6l-59 36q-20 12 -6 31l115 153h-260q-11 0 -17 7.5t-4 18.5l13 75q5 27 32 27h332l124 165h-428q-11 0 -17.5 7.5
t-4.5 18.5l13 75q5 27 32 27h501l161 215q12 15 27 5l58 -36q20 -12 6 -31z" />
    <glyph glyph-name="lessequal" unicode="&#x2264;" 
d="M224 764l940 225q9 2 15 -3.5t4 -14.5l-16 -94q-3 -17 -21 -22l-731 -165l661 -162q12 -3 18.5 -13t4.5 -22l-16 -93q-2 -15 -17 -11l-858 225q-16 5 -24.5 17t-5.5 28l12 68q5 31 34 37zM135 262h897q11 0 17.5 -8t4.5 -18l-14 -75q-5 -27 -31 -27h-897q-11 0 -17.5 8
t-4.5 18l13 75q5 27 32 27z" />
    <glyph glyph-name="greaterequal" unicode="&#x2265;" 
d="M219 891l14 83q1 9 8.5 13t15.5 2l857 -224q31 -9 26 -40l-13 -72q-5 -31 -34 -37l-940 -225q-9 -2 -15 3.5t-4 14.5l16 91q3 21 24 26l728 164l-656 161q-14 4 -21.5 15t-5.5 25zM135 262h897q11 0 17.5 -8t4.5 -18l-14 -75q-5 -27 -31 -27h-897q-11 0 -17.5 8t-4.5 18
l13 75q5 27 32 27z" />
    <glyph glyph-name="lozenge" unicode="&#x25ca;" horiz-adv-x="858" 
d="M646 1434h62q22 0 37 -18l234 -283q13 -16 10 -36l-9 -64q-3 -18 -15 -29l-347 -295q-13 -11 -29 -11h-63q-21 0 -36 18l-234 284q-13 16 -10 35l8 64q3 17 16 29l346 295q13 11 30 11zM394 1066l179 -225l267 225l-178 225z" />
    <glyph glyph-name="atsmall" unicode="&#xfe6b;" horiz-adv-x="1320" 
d="M674 1051l331 -1q164 0 251 -99t55 -280l-55 -312q-18 -99 -76 -139t-133 -40h-40q-53 0 -98.5 24.5t-46.5 71.5q-104 -96 -210 -96h-4q-113 0 -161.5 77.5t-26.5 205.5l18 100q24 136 103 205.5t200 69.5h10q60 0 124.5 -20t112.5 -48q20 -13 17 -38l-62 -380
q-12 -68 45 -68h19q63 0 76 73l58 329q22 125 -28.5 187t-163.5 62h-325q-113 0 -186.5 -63t-95.5 -188l-59 -336q-46 -259 190 -259h392q11 0 17.5 -8t4.5 -18l-13 -71q-3 -19 -22 -19h-395q-164 0 -251 99.5t-55 280.5l59 333q32 181 146 273t278 92zM782 737h-6
q-66 0 -111 -45.5t-60 -130.5l-18 -102q-30 -173 105 -173h4q79 0 163 73l60 334q-72 44 -137 44z" />
    <glyph glyph-name="i.loclTRK" horiz-adv-x="434" 
d="M384 1416h171q11 0 17 -7.5t4 -18.5l-31 -175q-5 -26 -31 -26h-171q-11 0 -17.5 7.5t-4.5 17.5l31 175q5 27 32 27zM325 1024h150q11 0 17 -8t4 -18l-172 -979q-3 -19 -23 -19h-158q-11 0 -17 7.5t-4 18.5l171 971q5 27 32 27z" />
    <glyph glyph-name="a.ss01" horiz-adv-x="1099" 
d="M703 1051h18q103 0 210 -34t186 -82q25 -16 20 -46l-148 -870q-3 -19 -23 -19h-139q-9 0 -15 6t-6 15l12 98q-78 -71 -166 -108.5t-172 -37.5h-7q-181 0 -258 125.5t-41 332.5l29 164q39 221 171 338.5t329 117.5zM701 888h-9q-109 0 -183 -74.5t-98 -214.5l-31 -173
q-50 -287 173 -287h7q128 0 267 119l100 558q-115 72 -226 72z" />
    </font>
</defs>
</svg>
