<?xml version="1.0" standalone="no"?>
<!DOCTYPE svg PUBLIC "-//W3C//DTD SVG 1.1//EN" "http://www.w3.org/Graphics/SVG/1.1/DTD/svg11.dtd" >
<svg xmlns="http://www.w3.org/2000/svg" xmlns:xlink="http://www.w3.org/1999/xlink" version="1.1">
<metadata>
Created by FontForge 20170731 at Thu Aug 13 18:28:10 2020
 By Aleksey,,,
Copyright (c) 2015 by Mariya Pigoulevskaya. All rights reserved.
</metadata>
<defs>
<font id="Webnar-BlackItalic" horiz-adv-x="1060" >
  <font-face 
    font-family="Webnar Black"
    font-weight="900"
    font-style="italic"
    font-stretch="normal"
    units-per-em="2048"
    panose-1="0 0 10 0 0 0 0 0 0 0"
    ascent="1536"
    descent="-512"
    x-height="1024"
    cap-height="1434"
    bbox="-205.062 -630 2953.51 2336"
    underline-thickness="102"
    underline-position="-307"
    unicode-range="U+0020-FE6B"
  />
<missing-glyph horiz-adv-x="1024" 
d="M0 0v1434h1024v-1434h-1024zM512 809l348 522h-696zM573 717l349 -522v1044zM164 102h696l-348 523zM102 1239v-1044l349 522z" />
    <glyph glyph-name=".notdef" horiz-adv-x="1024" 
d="M0 0v1434h1024v-1434h-1024zM512 809l348 522h-696zM573 717l349 -522v1044zM164 102h696l-348 523zM102 1239v-1044l349 522z" />
    <glyph glyph-name=".null" horiz-adv-x="0" 
 />
    <glyph glyph-name="nonmarkingreturn" horiz-adv-x="682" 
 />
    <glyph glyph-name="space" unicode=" " horiz-adv-x="450" 
 />
    <glyph glyph-name="exclam" unicode="!" horiz-adv-x="458" 
d="M338 1434h292q17 0 27 -12.5t6 -29.5l-209 -876q-5 -22 -29 -22h-202q-16 0 -25.5 10.5t-7.5 25.5l98 859q2 20 16 32.5t34 12.5zM153 354h280q17 0 26 -11.5t6 -27.5l-51 -290q-5 -25 -29 -25h-296q-17 0 -26.5 11.5t-6.5 27.5l49 274q7 41 48 41z" />
    <glyph glyph-name="quotedbl" unicode="&#x22;" horiz-adv-x="946" 
d="M340 1434h290q19 0 28.5 -13.5t4.5 -31.5l-140 -481q-6 -21 -28 -21h-203q-14 0 -23.5 10t-8.5 24l29 465q2 21 16 34.5t35 13.5zM827 1434h290q19 0 28.5 -13.5t4.5 -31.5l-140 -481q-6 -21 -27 -21h-204q-14 0 -23.5 10t-8.5 24l29 465q2 21 16 34.5t35 13.5z" />
    <glyph glyph-name="numbersign" unicode="#" horiz-adv-x="1310" 
d="M1270 1024h138q21 0 31 -15.5t2 -35.5l-68 -157q-13 -28 -43 -28h-163l-63 -143h138q21 0 31.5 -16t2.5 -35l-69 -156q-13 -28 -42 -28h-164l-167 -382q-13 -28 -43 -28h-183q-22 0 -31.5 15.5t-1.5 35.5l158 359h-170l-167 -382q-13 -28 -43 -28h-183q-22 0 -31.5 15.5
t-1.5 35.5l157 359h-136q-21 0 -31 15.5t-2 35.5l68 156q13 28 43 28h162l63 143h-137q-21 0 -31.5 16.5t-2.5 35.5l68 156q13 28 43 28h163l168 382q13 28 43 28h181q22 0 31.5 -16t1.5 -36l-157 -358h171l167 382q13 28 43 28h181q22 0 31.5 -16t1.5 -36zM899 788h-170
l-63 -143h170z" />
    <glyph glyph-name="dollar" unicode="$" horiz-adv-x="1161" 
d="M1188 1410q21 -7 32 -25.5t7 -41.5l-45 -253q-3 -16 -15.5 -23t-28.5 -2q-114 37 -176 51t-129 14h-9q-66 0 -109 -27t-52 -77l-1 -6q-7 -40 19 -62t97 -47l69 -25q196 -69 275.5 -173t47.5 -283l-3 -17q-21 -122 -90 -214.5t-163 -144.5t-209 -73l-43 -243
q-5 -25 -29 -25h-195q-17 0 -26.5 11.5t-6.5 27.5l39 223q-148 16 -266 60q-19 7 -29 25.5t-6 39.5l45 254q3 16 16 23.5t29 1.5q154 -54 217.5 -69t136.5 -15h8q79 0 125 27t55 77l1 6q8 43 -21 66.5t-109 52.5l-64 22q-178 63 -259.5 170t-51.5 273l4 22
q30 170 147.5 279.5t279.5 147.5l43 241q7 41 48 41h179q17 0 26.5 -11.5t6.5 -27.5l-40 -230q124 -11 223 -41z" />
    <glyph glyph-name="percent" unicode="%" horiz-adv-x="2035" 
d="M650 1460h40q150 0 242.5 -104t64.5 -266l-19 -110q-19 -108 -80.5 -187.5t-146.5 -118.5t-183 -39h-41q-151 0 -243.5 105t-64.5 267l19 110q19 108 80.5 187t147 117.5t184.5 38.5zM1524 1434h174q17 0 24 -13.5t-2 -27.5l-879 -1352q-27 -41 -75 -41h-174
q-17 0 -24 13.5t2 27.5l879 1352q27 41 75 41zM642 1214h-10q-42 0 -71.5 -28.5t-39.5 -87.5l-17 -101q-20 -116 69 -116h10q42 0 71.5 28.5t39.5 87.5l18 101q20 116 -70 116zM1723 799h41q150 0 242 -104t64 -266l-19 -111q-19 -108 -80.5 -187.5t-146.5 -118.5t-183 -39
h-41q-151 0 -243.5 105t-64.5 267l19 111q19 108 80.5 187t147 117.5t184.5 38.5zM1715 553h-10q-42 0 -71.5 -29t-39.5 -88l-17 -100q-20 -117 69 -117h11q42 0 71 29t39 88l18 100q10 59 -9 88t-61 29z" />
    <glyph glyph-name="ampersand" unicode="&#x26;" horiz-adv-x="1474" 
d="M811 1460h13q96 0 170 -19q22 -6 33.5 -25t7.5 -43l-44 -246q-3 -16 -16 -23.5t-29 -1.5q-83 31 -146 31h-10q-67 0 -105.5 -37t-49.5 -95l-3 -16q-11 -61 28.5 -96t112.5 -35h234l60 346q6 37 43 45l303 67q14 3 22.5 -5.5t6.5 -21.5l-75 -431h238l-48 -272h-238
l-41 -234q-15 -88 54 -88h10q14 0 125 29q15 4 25 -5t8 -23l-34 -192q-5 -29 -33 -40q-136 -56 -216 -56h-22q-80 0 -142 27.5t-91 70.5q-73 -42 -174 -70t-212 -28h-12q-95 0 -180.5 28t-151 81t-96.5 139.5t-12 193.5l3 14q20 116 81.5 196t171.5 133q-64 51 -97 129
t-18 165l3 12q19 105 68.5 183t123 124t161 67.5t190.5 21.5zM959 582h-260q-65 0 -116.5 -34t-62.5 -97l-1 -7q-12 -65 32 -104t121 -39h10q89 0 235 42z" />
    <glyph glyph-name="quotesingle" unicode="'" horiz-adv-x="458" 
d="M340 1434h290q19 0 28.5 -13.5t4.5 -31.5l-140 -481q-6 -21 -28 -21h-203q-14 0 -23.5 10t-8.5 24l29 465q2 21 16 34.5t35 13.5z" />
    <glyph glyph-name="parenleft" unicode="(" horiz-adv-x="706" 
d="M881 1462q17 1 27.5 -10.5t7.5 -28.5l-37 -212q-3 -17 -18 -21q-52 -19 -83.5 -36.5t-64 -52.5t-54 -93t-36.5 -146l-97 -551q-12 -69 -13 -119.5t6 -83t26 -56.5t40 -37.5t55 -27.5q23 -10 18 -32l-38 -216q-2 -13 -12.5 -20t-23.5 -5q-85 14 -151 37t-122.5 59.5
t-92 87t-58 119.5t-21 157t18.5 200l80 453q24 134 66.5 237.5t99 174.5t132 119t159.5 72.5t186 31.5z" />
    <glyph glyph-name="parenright" unicode=")" horiz-adv-x="706" 
d="M256 1218l38 217q2 13 12 20t23 5q71 -12 128.5 -29t109 -44.5t89.5 -64.5t65.5 -87.5t40.5 -113.5t11.5 -144t-18.5 -178l-79 -452q-57 -322 -219 -474.5t-427 -162.5q-16 -1 -26 10.5t-7 28.5l37 214q3 17 18 21q52 19 83.5 36.5t64 52.5t54 92.5t36.5 145.5l98 551
q12 69 13 119.5t-6 83t-26 56.5t-40 37.5t-55 27.5q-23 10 -18 32z" />
    <glyph glyph-name="asterisk" unicode="*" horiz-adv-x="1040" 
d="M620 1434h290q19 0 29.5 -14t4.5 -32l-64 -194l188 95q17 8 31 0.5t18 -25.5l54 -273q5 -29 -25 -36l-225 -45l127 -143q11 -11 9.5 -25t-14.5 -23l-259 -181q-14 -10 -29 -5.5t-22 20.5l-74 187l-151 -200q-9 -12 -22.5 -13.5t-24.5 8.5l-203 179q-12 10 -12 25t13 25
l176 145l-193 42q-18 4 -25 18.5t2 31.5l148 279q7 13 19.5 16.5t24.5 -4.5l170 -98l8 210q1 13 9.5 21.5t21.5 8.5z" />
    <glyph glyph-name="plus" unicode="+" horiz-adv-x="1032" 
d="M610 1086h199q17 0 26.5 -12t6.5 -28l-51 -282h295q17 0 26.5 -11.5t6.5 -27.5l-35 -197q-7 -41 -48 -41h-294l-50 -280q-3 -19 -16.5 -30t-32.5 -11h-199q-17 0 -26.5 11.5t-6.5 27.5l50 282h-294q-17 0 -26.5 11.5t-6.5 27.5l34 197q3 19 16.5 30t32.5 11h294l50 281
q3 19 16.5 30t32.5 11z" />
    <glyph glyph-name="comma" unicode="," horiz-adv-x="454" 
d="M151 354h286q17 0 26.5 -11t6.5 -27l-44 -264q-3 -20 -14 -39l-197 -329q-15 -26 -46 -26h-156q-16 0 -23 12.5t1 26.5l181 303h-85q-17 0 -26.5 11.5t-6.5 27.5l48 274q3 19 16.5 30t32.5 11z" />
    <glyph glyph-name="hyphen" unicode="-" horiz-adv-x="720" 
d="M217 764h558q17 0 26.5 -11.5t6.5 -27.5l-38 -213q-5 -25 -29 -25h-574q-17 0 -26.5 11.5t-6.5 27.5l34 197q3 19 16.5 30t32.5 11z" />
    <glyph glyph-name="period" unicode="." horiz-adv-x="442" 
d="M145 354h279q17 0 26.5 -11.5t6.5 -27.5l-51 -290q-5 -25 -30 -25h-295q-17 0 -26.5 11.5t-6.5 27.5l48 274q3 19 16.5 30t32.5 11z" />
    <glyph glyph-name="slash" unicode="/" horiz-adv-x="700" 
d="M689 1434h181q22 0 31.5 -16t1.5 -36l-593 -1354q-13 -28 -43 -28h-183q-22 0 -31.5 15.5t-1.5 35.5l595 1355q13 28 43 28z" />
    <glyph glyph-name="zero" unicode="0" horiz-adv-x="1341" 
d="M901 1460h31q111 0 205.5 -41.5t162.5 -117.5t95.5 -196.5t1.5 -266.5l-48 -270q-26 -146 -91 -262t-155 -187.5t-194.5 -108.5t-215.5 -37h-31q-111 0 -205.5 41.5t-162.5 117.5t-95.5 196.5t-1.5 266.5l48 271q21 118 67.5 216.5t110 167.5t142 117t163 70.5
t173.5 22.5zM878 1133h-15q-91 0 -148 -64t-77 -180l-61 -344q-21 -117 13.5 -180.5t126.5 -63.5h14q92 0 148 63.5t77 180.5l61 344q20 116 -14 180t-125 64z" />
    <glyph glyph-name="one" unicode="1" horiz-adv-x="931" 
d="M699 1434h180q17 0 26.5 -11.5t6.5 -27.5l-189 -1067h186q17 0 26.5 -11.5t6.5 -27.5l-47 -264q-5 -25 -29 -25h-785q-17 0 -26.5 11.5t-6.5 27.5l46 264q5 25 30 25h221l124 698l-202 -58q-22 -6 -36.5 6.5t-10.5 34.5l41 244q10 57 64 73l338 102q18 6 36 6z" />
    <glyph glyph-name="two" unicode="2" horiz-adv-x="1116" 
d="M756 1460h12q235 0 354 -114.5t84 -312.5l-2 -12q-20 -113 -89 -223.5t-211 -246.5l-254 -223h402q17 0 26.5 -11.5t6.5 -27.5l-46 -264q-5 -25 -30 -25h-887q-17 0 -26.5 11.5t-6.5 27.5l37 208q8 44 39 74l489 459q84 78 118.5 126t44.5 102l1 6q10 55 -23.5 88
t-98.5 33h-8q-66 0 -132.5 -14t-196.5 -52q-15 -4 -24.5 4.5t-7.5 23.5l47 269q6 33 37 42q173 52 345 52z" />
    <glyph glyph-name="three" unicode="3" horiz-adv-x="1052" 
d="M697 1460h12q83 0 156 -15.5t133.5 -49t101 -82t56 -119.5t0.5 -157l-3 -12q-31 -178 -220 -295q82 -43 120.5 -129t18.5 -199l-2 -14q-19 -108 -75.5 -189.5t-139.5 -130t-181 -72t-209 -23.5h-12q-158 0 -315 46q-21 7 -32 25.5t-7 41.5l47 267q2 11 10.5 16t18.5 1
q124 -41 181.5 -55t120.5 -14h10q77 0 134.5 39t69.5 104l1 7q11 62 -28.5 96.5t-104.5 34.5h-177q-17 0 -26.5 11.5t-6.5 27.5l37 208q5 25 29 25h166q73 0 124.5 35t62.5 96l2 16q10 55 -26.5 93.5t-105.5 38.5h-10q-60 0 -125 -14t-195 -52q-15 -4 -25 4.5t-8 23.5
l48 271q6 33 36 42q173 52 338 52z" />
    <glyph glyph-name="four" unicode="4" horiz-adv-x="1292" 
d="M810 1434h429q17 0 26.5 -11.5t6.5 -27.5l-130 -738h186q17 0 26 -11.5t6 -27.5l-46 -264q-5 -24 -29 -24h-201l-54 -305q-5 -25 -29 -25h-314q-17 0 -26.5 11.5t-6.5 27.5l51 291h-567q-16 0 -25.5 11t-7.5 27l37 226q6 34 25 58l587 755q21 27 56 27zM546 657h217
l72 383z" />
    <glyph glyph-name="five" unicode="5" horiz-adv-x="1073" 
d="M413 1434h736q17 0 26.5 -11.5t6.5 -27.5l-47 -265q-5 -24 -29 -24h-417l-48 -208q33 7 94 7q202 0 302.5 -123.5t62.5 -336.5l-2 -14q-39 -221 -212 -339.5t-423 -118.5h-12q-158 0 -315 46q-21 7 -32 25.5t-7 41.5l47 267q2 11 10.5 16t18.5 1q124 -41 181.5 -55
t120.5 -14h10q93 0 154.5 42.5t75.5 121.5l1 6q15 87 -40 124.5t-151 37.5q-76 0 -218 -31q-20 -5 -38 6l-17 11q-22 12 -17 38l129 736q3 19 16.5 30t32.5 11z" />
    <glyph glyph-name="six" unicode="6" horiz-adv-x="1210" 
d="M944 1460h13q135 0 279 -45q21 -7 31.5 -25t6.5 -41l-44 -255q-3 -17 -17.5 -24t-31.5 0q-102 41 -143 52t-99 11h-4q-122 0 -194.5 -75.5t-110.5 -212.5q88 64 243 64q204 0 303.5 -122.5t61.5 -341.5l-3 -14q-34 -196 -191.5 -327t-389.5 -131h-12q-73 0 -136.5 15.5
t-121.5 49t-98.5 87t-67.5 128.5t-29 174t18 224l4 22q11 63 27 125.5t46 143t68 150t96 139.5t127 119t164.5 79.5t204.5 30.5zM739 637q-63 0 -152 -38l-18 -101q-34 -197 107 -197h8q139 0 169 172l2 6q28 158 -116 158z" />
    <glyph glyph-name="seven" unicode="7" horiz-adv-x="1054" 
d="M335 1434h893q16 0 25 -11.5t7 -27.5l-34 -212q-6 -36 -27 -61l-436 -535q-21 -26 -27 -58l-93 -505q-5 -24 -29 -24h-315q-17 0 -26 11.5t-6 27.5l99 585q6 37 29 63l359 419h-478q-17 0 -26.5 11.5t-6.5 27.5l44 248q7 41 48 41z" />
    <glyph glyph-name="eight" unicode="8" horiz-adv-x="1204" 
d="M834 1460h28q101 0 187.5 -28.5t149.5 -81.5t90.5 -136.5t9.5 -186.5l-2 -13q-32 -180 -223 -286q86 -44 127.5 -131t21.5 -199l-2 -14q-19 -106 -75.5 -187t-138.5 -129t-178.5 -71.5t-205.5 -23.5h-29q-85 0 -161.5 17t-140 53t-106.5 87t-60 123.5t-2 157.5l2 14
q39 224 267 328q-67 46 -102.5 124t-20.5 165l2 12q18 103 71 182.5t129.5 127.5t168 72t193.5 24zM819 1137h-33q-57 0 -96.5 -37t-48.5 -92l-3 -17q-11 -59 15.5 -94t84.5 -35h33q58 0 96 35t49 94l3 17q9 55 -17.5 92t-82.5 37zM727 582h-45q-66 0 -108.5 -36t-54.5 -102
l-1 -6q-11 -63 19 -100t96 -37h45q65 0 108.5 36.5t54.5 100.5l1 6q12 66 -18.5 102t-96.5 36z" />
    <glyph glyph-name="nine" unicode="9" horiz-adv-x="1210" 
d="M809 1460h13q73 0 136.5 -15.5t121 -49t98.5 -86.5t67.5 -128t28.5 -174t-18 -224l-4 -22q-11 -63 -27 -125t-46 -143t-68 -151t-96.5 -139.5t-127.5 -119t-164 -80t-204 -30.5h-13q-135 0 -279 45q-21 7 -31.5 25t-6.5 41l45 255q3 17 17 24t31 0q101 -41 142.5 -52
t99.5 -11h4q122 0 194.5 75.5t110.5 211.5q-86 -63 -243 -63q-204 0 -303.5 122.5t-61.5 341.5l3 15q34 196 191.5 326.5t389.5 130.5zM787 1132h-8q-139 0 -169 -172l-2 -6q-28 -158 116 -158q63 0 152 38l18 101q34 197 -107 197z" />
    <glyph glyph-name="colon" unicode=":" horiz-adv-x="442" 
d="M254 971h279q17 0 26.5 -11.5t6.5 -27.5l-52 -291q-5 -25 -29 -25h-296q-17 0 -26 11.5t-6 27.5l48 275q3 19 16.5 30t32.5 11zM145 354h279q17 0 26.5 -11.5t6.5 -27.5l-51 -290q-5 -25 -30 -25h-295q-17 0 -26.5 11.5t-6.5 27.5l48 274q3 19 16.5 30t32.5 11z" />
    <glyph glyph-name="semicolon" unicode=";" horiz-adv-x="454" 
d="M267 971h279q17 0 26.5 -11.5t6.5 -27.5l-52 -291q-5 -25 -29 -25h-296q-17 0 -26.5 11.5t-6.5 27.5l49 275q3 19 16.5 30t32.5 11zM151 354h286q17 0 26.5 -11t6.5 -27l-44 -264q-3 -20 -14 -39l-197 -329q-15 -26 -46 -26h-156q-16 0 -23 12.5t1 26.5l181 303h-85
q-17 0 -26.5 11.5t-6.5 27.5l48 274q3 19 16.5 30t32.5 11z" />
    <glyph glyph-name="less" unicode="&#x3c;" horiz-adv-x="1032" 
d="M215 754l920 273q14 5 24 -4t8 -24l-43 -249q-5 -24 -28 -30l-520 -122l461 -118q16 -5 24.5 -18t5.5 -29l-43 -250q-1 -10 -9 -15t-19 -2l-825 273q-22 8 -33 26t-7 40l32 191q8 45 52 58z" />
    <glyph glyph-name="equal" unicode="=" horiz-adv-x="1032" 
d="M235 866h869q17 0 26.5 -11.5t6.5 -27.5l-23 -129q-7 -41 -48 -41h-869q-17 0 -26.5 11.5t-6.5 27.5l22 129q3 19 16.5 30t32.5 11zM183 567h869q17 0 26 -11.5t6 -27.5l-22 -129q-3 -19 -16.5 -30t-32.5 -11h-869q-17 0 -26.5 11.5t-6.5 27.5l23 129q3 19 16.5 30
t32.5 11z" />
    <glyph glyph-name="greater" unicode="&#x3e;" horiz-adv-x="1032" 
d="M178 772l39 228q3 16 15 23.5t27 2.5l821 -271q18 -6 27.5 -21.5t6.5 -34.5l-34 -199q-8 -45 -52 -58l-920 -273q-14 -4 -23.5 4.5t-7.5 23.5l41 243q5 31 35 37l514 121l-452 116q-20 5 -30.5 21.5t-6.5 36.5z" />
    <glyph glyph-name="question" unicode="?" horiz-adv-x="1021" 
d="M649 1460h13q162 0 282.5 -51.5t180 -153t35.5 -238.5l-2 -15q-30 -173 -147 -276t-286 -103q-49 0 -112 13l-37 -122q-7 -20 -28 -20h-205q-15 0 -24.5 10.5t-7.5 25.5l28 251q1 19 17 33l48 42q17 15 41 12q89 -10 117 -10q92 0 143 34.5t61 92.5l2 6q13 74 -33.5 108
t-142.5 34h-10q-59 0 -117 -12.5t-177 -47.5q-22 -7 -38 6t-12 36l45 251q7 33 36 42q172 52 330 52zM274 354h279q17 0 26.5 -11.5t6.5 -27.5l-51 -290q-5 -25 -30 -25h-295q-17 0 -26.5 11.5t-6.5 27.5l48 274q3 19 16.5 30t32.5 11z" />
    <glyph glyph-name="at" unicode="@" horiz-adv-x="2220" 
d="M938 1485h844q91 0 173 -26t149 -77t111.5 -126t60 -173.5t-5.5 -219.5l-87 -490q-38 -215 -159.5 -307.5t-318.5 -92.5h-136q-89 0 -170.5 39t-109.5 105q-156 -144 -314 -144h-6q-118 0 -193 65.5t-97.5 165.5t-1.5 219l31 178q38 219 177 334.5t350 115.5h22
q232 0 430 -117q41 -25 33 -74l-84 -524q-7 -36 7 -56t43 -20h25q28 0 49 20t28 56l102 577q20 115 -21 179.5t-141 64.5h-828q-100 0 -163.5 -64.5t-83.5 -179.5l-141 -796q-21 -116 20.5 -180t141.5 -64h878q17 0 26.5 -11.5t6.5 -27.5l-47 -264q-5 -25 -29 -25h-890
q-91 0 -173 26t-149 77t-111 126t-59.5 173.5t5.5 219.5l127 723q26 146 93.5 262t160.5 187.5t201.5 108.5t223.5 37zM1216 770h-11q-110 0 -136 -160l-34 -190q-29 -160 80 -160h11q58 0 133 35l77 436q-67 39 -120 39z" />
    <glyph glyph-name="A" unicode="A" horiz-adv-x="1361" 
d="M684 1434h496q12 0 20 -8.5t10 -20.5l111 -1370q3 -18 -7.5 -26.5t-23.5 -8.5h-317q-14 0 -22.5 10t-8.5 19l-18 272h-375l-115 -272q-5 -12 -17 -20.5t-26 -8.5h-323q-14 0 -21 10.5t-2 22.5l596 1372q5 11 17 20t26 9zM874 1133l-130 -367l-59 -137h218l-7 137l-5 367
h-17z" />
    <glyph glyph-name="B" unicode="B" horiz-adv-x="1236" 
d="M397 1434h512q106 0 189.5 -21.5t146 -67.5t87.5 -127t6 -191l-2 -15q-32 -175 -212 -285q78 -45 115.5 -129.5t17.5 -195.5l-3 -14q-68 -388 -546 -388h-566q-17 0 -26.5 11.5t-6.5 27.5l239 1354q3 19 16.5 30t32.5 11zM676 1106l-44 -252h162q135 0 157 123l1 6
q22 123 -114 123h-162zM584 582l-45 -254h188q60 0 99.5 32.5t49.5 90.5l1 6q11 59 -17 92t-88 33h-188z" />
    <glyph glyph-name="C" unicode="C" horiz-adv-x="1142" 
d="M965 1460h31q176 0 302 -55q39 -18 31 -61l-44 -245q-3 -17 -17 -24.5t-31 -0.5q-79 34 -129.5 46.5t-117.5 12.5h-8q-139 0 -236 -88.5t-123 -239.5l-31 -176q-26 -151 39 -239.5t204 -88.5h9q68 0 123.5 13t147.5 47q16 6 27 -3t8 -25l-43 -243q-8 -45 -46 -60
q-140 -57 -305 -57h-30q-124 0 -229.5 45t-180 127.5t-105.5 212t-4 287.5l29 172q25 151 96.5 274.5t171 203t218 122.5t243.5 43z" />
    <glyph glyph-name="D" unicode="D" horiz-adv-x="1318" 
d="M397 1434h481q123 0 223 -39.5t170.5 -119.5t96 -199.5t-0.5 -280.5l-32 -184q-27 -156 -93 -275.5t-158.5 -191.5t-202 -108t-233.5 -36h-506q-17 0 -26.5 11.5t-6.5 27.5l239 1354q3 19 16.5 30t32.5 11zM954 623l33 188q27 153 -19.5 224t-182.5 71h-109l-137 -778
h109q136 0 207.5 71t98.5 224z" />
    <glyph glyph-name="E" unicode="E" horiz-adv-x="1093" 
d="M638 891h460q17 0 26.5 -11.5t6.5 -27.5l-46 -264q-5 -25 -30 -25h-474l-42 -235h522q17 0 26 -11.5t6 -27.5l-46 -264q-5 -25 -30 -25h-875q-17 0 -26.5 11.5t-6.5 27.5l239 1354q3 19 16.5 30t32.5 11h859q17 0 26 -11.5t6 -27.5l-46 -265q-5 -24 -30 -24h-536z" />
    <glyph glyph-name="F" unicode="F" horiz-adv-x="1093" 
d="M397 1434h859q17 0 26 -11.5t6 -27.5l-46 -265q-5 -24 -30 -24h-536l-42 -238h460q17 0 26.5 -11.5t6.5 -27.5l-46 -264q-5 -24 -30 -24h-474l-91 -516q-5 -25 -30 -25h-314q-17 0 -26.5 11.5t-6.5 27.5l239 1354q3 19 16.5 30t32.5 11z" />
    <glyph glyph-name="G" unicode="G" horiz-adv-x="1284" 
d="M987 1460h31q177 0 303 -58q37 -18 30 -60l-43 -244q-3 -17 -17.5 -24.5t-30.5 -0.5q-97 39 -138.5 49.5t-108.5 10.5h-9q-148 0 -251 -88.5t-130 -239.5l-31 -176q-58 -328 213 -328h8q33 0 56 6l70 395q3 19 16.5 30t32.5 11h298q17 0 26.5 -11t6.5 -27l-98 -558
q-7 -43 -45 -67q-66 -44 -181.5 -75.5t-230.5 -31.5h-33q-128 0 -236.5 47t-182.5 132t-104 212.5t-3 278.5l31 174q22 123 74 228t125 180.5t163 129t188.5 79.5t200.5 26z" />
    <glyph glyph-name="H" unicode="H" horiz-adv-x="1380" 
d="M1193 1434h298q17 0 26.5 -11.5t6.5 -27.5l-242 -1370q-5 -25 -29 -25h-314q-17 0 -26.5 11.5t-6.5 27.5l92 524h-417l-95 -538q-5 -25 -30 -25h-314q-17 0 -26.5 11.5t-6.5 27.5l239 1354q3 19 16.5 30t32.5 11h297q17 0 26.5 -11.5t6.5 -27.5l-89 -504h418l89 502
q7 41 48 41z" />
    <glyph glyph-name="I" unicode="I" horiz-adv-x="583" 
d="M397 1434h297q17 0 26.5 -11.5t6.5 -27.5l-241 -1370q-5 -25 -30 -25h-314q-17 0 -26.5 11.5t-6.5 27.5l239 1354q3 19 16.5 30t32.5 11z" />
    <glyph glyph-name="J" unicode="J" horiz-adv-x="806" 
d="M611 1434h308q17 0 26.5 -11.5t6.5 -27.5l-168 -944q-23 -130 -74 -225.5t-122.5 -149t-151 -78.5t-171.5 -25h-10q-93 0 -188 31q-24 9 -19 34l45 258q3 16 16.5 23.5t30.5 1.5q56 -20 85 -20h10q60 0 103.5 38t56.5 110l167 944q3 19 16.5 30t32.5 11z" />
    <glyph glyph-name="K" unicode="K" horiz-adv-x="1318" 
d="M1026 729l252 -697q5 -13 -2 -22.5t-20 -9.5h-338q-46 0 -62 44l-184 509h-93l-93 -528q-5 -25 -30 -25h-314q-17 0 -26.5 11.5t-6.5 27.5l239 1354q3 19 16.5 30t32.5 11h297q17 0 26.5 -11.5t6.5 -27.5l-90 -514h77l371 526q19 27 50 27h341q18 0 25 -14t-3 -29z" />
    <glyph glyph-name="L" unicode="L" horiz-adv-x="1021" 
d="M539 328h460q17 0 26.5 -11.5t6.5 -27.5l-47 -264q-5 -25 -29 -25h-814q-17 0 -26.5 11.5t-6.5 27.5l239 1354q3 19 16.5 30t32.5 11h297q17 0 26.5 -11.5t6.5 -27.5z" />
    <glyph glyph-name="M" unicode="M" horiz-adv-x="1658" 
d="M1360 1434h410q17 0 26 -11.5t6 -27.5l-241 -1370q-5 -25 -29 -25h-324q-17 0 -26.5 12t-6.5 28l116 615l109 267h-44l-143 -267l-186 -275q-12 -20 -37 -20h-178q-36 0 -46 35l-78 260l-57 267h-34l-6 -267l-100 -630q-1 -11 -9.5 -18t-19.5 -7h-324q-17 0 -26.5 11.5
t-6.5 27.5l239 1354q3 19 16.5 30t32.5 11l387 -1q37 0 47 -37l137 -552h17l340 568q13 22 39 22z" />
    <glyph glyph-name="N" unicode="N" horiz-adv-x="1384" 
d="M1185 1434h314q17 0 26.5 -11.5t6.5 -27.5l-242 -1370q-5 -25 -29 -25h-352q-33 0 -45 33l-180 553l-61 266h-34l-10 -266l-98 -561q-5 -25 -29 -25h-314q-17 0 -26.5 11.5t-6.5 27.5l239 1354q3 19 16.5 30t32.5 11h335q33 0 45 -33l180 -553l61 -266h34l10 266l98 561
q5 25 29 25z" />
    <glyph glyph-name="O" unicode="O" horiz-adv-x="1386" 
d="M924 1460h31q91 0 173 -26t149 -77t111 -126t59.5 -173.5t-5.5 -219.5l-47 -270q-26 -146 -93.5 -262t-161 -187.5t-202 -108.5t-223.5 -37h-30q-91 0 -173 26t-149 77t-111.5 126t-60 173.5t5.5 219.5l48 271q26 146 93.5 262t160.5 187t201.5 108t223.5 37zM900 1133
h-14q-100 0 -164 -65t-84 -179l-61 -344q-21 -116 20.5 -180t141.5 -64h14q100 0 163.5 64t84.5 180l61 344q20 115 -21 179.5t-141 64.5z" />
    <glyph glyph-name="P" unicode="P" horiz-adv-x="1261" 
d="M397 1434h510q105 0 191 -29t148 -86.5t87 -152t4 -215.5l-2 -14q-18 -100 -58.5 -180t-96.5 -134.5t-128 -91.5t-150.5 -53.5t-165.5 -16.5h-173l-77 -436q-5 -25 -30 -25h-314q-17 0 -26.5 11.5t-6.5 27.5l239 1354q3 19 16.5 30t32.5 11zM937 930l3 18
q14 81 -22 119.5t-126 38.5h-123l-59 -334h119q180 0 208 158z" />
    <glyph glyph-name="Q" unicode="Q" horiz-adv-x="1386" 
d="M924 1460h31q91 0 173 -26t149 -77t111 -126t59.5 -173.5t-5.5 -219.5l-47 -270q-48 -274 -237 -435l122 -143q20 -23 -3 -44l-217 -190q-10 -9 -23 -8t-22 11l-190 223q-54 -9 -110 -9h-30q-91 0 -173 26t-149 77t-111.5 126t-60 173.5t5.5 219.5l48 271
q26 146 93.5 262t160.5 187t201.5 108t223.5 37zM739 301h15q100 0 163 64t84 180l61 344q20 115 -21 179.5t-141 64.5h-14q-100 0 -164 -65t-84 -179l-61 -344q-21 -116 20.5 -180t141.5 -64z" />
    <glyph glyph-name="R" unicode="R" horiz-adv-x="1312" 
d="M397 1434h537q83 0 153.5 -17t127.5 -51.5t93 -87.5t49.5 -125.5t-3.5 -164.5l-3 -14q-52 -290 -298 -405l90 -196l129 -341q4 -13 -2.5 -22.5t-20.5 -9.5h-338q-46 0 -62 44l-169 470h-108l-86 -489q-5 -25 -30 -25h-314q-17 0 -26.5 11.5t-6.5 27.5l239 1354
q3 19 16.5 30t32.5 11zM676 1106l-51 -293h149q159 0 185 141l2 11q26 141 -135 141h-150z" />
    <glyph glyph-name="S" unicode="S" horiz-adv-x="1120" 
d="M548 546l63 -22q80 -29 109.5 -52.5t21.5 -66.5l-1 -6q-9 -50 -55 -77t-125 -27h-8q-73 0 -136.5 15t-217.5 69q-16 6 -29.5 -1.5t-16.5 -23.5l-44 -254q-4 -21 5.5 -39.5t28.5 -25.5q74 -28 176.5 -47t200.5 -19h14q105 0 202 27.5t179.5 80.5t140.5 139.5t77 196.5
l2 17q22 122 -9.5 209.5t-107 144t-205.5 102.5l-70 25q-71 25 -97 47t-19 62l1 6q9 50 52.5 77t109.5 27h8q67 0 130 -14t176 -51q16 -5 28 2t15 23l45 254q4 23 -6.5 41t-32.5 25q-156 46 -320 46h-12q-98 0 -191.5 -28t-174 -81.5t-138 -140.5t-76.5 -195l-4 -22
q-30 -166 51.5 -273t259.5 -170z" />
    <glyph glyph-name="T" unicode="T" horiz-adv-x="1210" 
d="M335 1434h1048q17 0 26 -11.5t6 -27.5l-46 -265q-5 -24 -30 -24h-349l-191 -1081q-5 -25 -29 -25h-315q-17 0 -26 11.5t-6 27.5l188 1067h-335q-17 0 -26.5 11.5t-6.5 27.5l44 248q7 41 48 41z" />
    <glyph glyph-name="U" unicode="U" horiz-adv-x="1345" 
d="M1152 1434h308q17 0 26.5 -11.5t6.5 -27.5l-153 -868q-26 -146 -88.5 -255.5t-150.5 -173.5t-189 -94.5t-215 -30.5h-31q-90 0 -168 21.5t-143 66.5t-106 114t-56 163.5t7 215.5l148 839q3 19 16.5 30t32.5 11h308q17 0 26 -11.5t6 -27.5l-153 -871q-20 -109 15 -166
t122 -57h14q176 0 216 223l153 869q7 41 48 41z" />
    <glyph glyph-name="V" unicode="V" horiz-adv-x="1275" 
d="M1153 1434h310q14 0 20.5 -10t1.5 -23l-553 -1372q-11 -29 -43 -29h-499q-28 0 -30 29l-70 1360q-1 20 11.5 32.5t31.5 12.5h287q22 0 36 -13.5t15 -35.5l33 -668l-20 -416h12l122 416l274 676q16 41 61 41z" />
    <glyph glyph-name="W" unicode="W" horiz-adv-x="2119" 
d="M1992 1434h315q14 0 20.5 -10.5t1.5 -23.5l-566 -1371q-11 -29 -43 -29h-440q-28 0 -30 29l-27 465l16 456h-20l-140 -456l-192 -465q-11 -29 -43 -29h-441q-13 0 -21.5 8t-9.5 21l-81 1359q-2 20 10.5 33t31.5 13h291q21 0 35 -14t16 -35l39 -668l-27 -385h17l104 385
l285 688q11 29 43 29h332q21 0 35 -14t16 -35l39 -668l-27 -385h17l104 385l280 676q16 41 60 41z" />
    <glyph glyph-name="X" unicode="X" horiz-adv-x="1361" 
d="M1193 1434h332q18 0 25.5 -14.5t-3.5 -28.5l-467 -662l241 -698q4 -12 -2.5 -21.5t-19.5 -9.5h-334q-47 0 -63 45l-91 266l-29 197h-16l-92 -197l-199 -278q-24 -33 -64 -33h-338q-18 0 -25 13.5t3 28.5l487 687l-229 674q-4 12 2.5 21.5t19.5 9.5h328q47 0 63 -45
l84 -246l31 -197h17l90 197l184 257q24 34 65 34z" />
    <glyph glyph-name="Y" unicode="Y" horiz-adv-x="1296" 
d="M1153 1434h332q17 0 24 -13t-2 -27l-582 -929l-82 -441q-5 -24 -29 -24h-316q-17 0 -26.5 11.5t-6.5 27.5l79 426l-254 925q-5 17 5 30.5t28 13.5h316q37 0 47 -36l93 -345l6 -244h8l84 244l222 351q19 30 54 30z" />
    <glyph glyph-name="Z" unicode="Z" horiz-adv-x="1118" 
d="M591 328h484q17 0 26.5 -11.5t6.5 -27.5l-47 -264q-5 -25 -29 -25h-932q-16 0 -25 11t-7 27l34 214q6 35 27 60l639 794h-449q-17 0 -26.5 11.5t-6.5 27.5l44 248q7 41 48 41h880q16 0 25.5 -11.5t7.5 -27.5l-34 -213q-6 -36 -27 -61z" />
    <glyph glyph-name="bracketleft" unicode="[" horiz-adv-x="716" 
d="M397 1434h492q17 0 26.5 -11.5t6.5 -27.5l-38 -213q-5 -25 -29 -25h-170l-201 -1141h155q17 0 26.5 -11.5t6.5 -27.5l-38 -213q-5 -24 -29 -24h-509q-17 0 -26.5 11.5t-6.5 27.5l285 1614q3 19 16.5 30t32.5 11z" />
    <glyph glyph-name="backslash" unicode="\" horiz-adv-x="700" 
d="M322 1434h193q13 0 21 -8t9 -20l119 -1371q1 -15 -8 -25t-24 -10h-195q-28 0 -30 28l-117 1371q-1 15 8 25t24 10z" />
    <glyph glyph-name="bracketright" unicode="]" horiz-adv-x="716" 
d="M335 1434h493q17 0 26 -11.5t6 -27.5l-287 -1631q-5 -24 -29 -24h-509q-17 0 -26.5 11.5t-6.5 27.5l38 213q5 24 29 24h169l202 1141h-155q-17 0 -26.5 11.5t-6.5 27.5l35 197q7 41 48 41z" />
    <glyph glyph-name="asciicircum" unicode="^" horiz-adv-x="780" 
d="M532 1434h215q16 0 27 -9.5t13 -25.5l86 -631q2 -16 -7.5 -26.5t-25.5 -10.5h-220q-25 0 -40 16.5t-13 41.5l24 303h-12l-91 -326q-10 -35 -47 -35h-227q-22 0 -32.5 17t-0.5 37l301 618q16 31 50 31z" />
    <glyph glyph-name="underscore" unicode="_" horiz-adv-x="1032" 
d="M76 -39h869q17 0 26 -11.5t6 -27.5l-37 -213q-5 -25 -29 -25h-886q-17 0 -26.5 11.5t-6.5 27.5l35 197q3 19 16.5 30t32.5 11z" />
    <glyph glyph-name="grave" unicode="`" horiz-adv-x="557" 
d="M404 1911h233q41 0 54 -39l96 -291q3 -10 -2.5 -17.5t-15.5 -7.5h-181q-33 0 -49 30l-153 296q-5 11 0.5 20t17.5 9z" />
    <glyph glyph-name="a" unicode="a" horiz-adv-x="1087" 
d="M585 1051h7q134 0 244 -134l40 81q13 26 41 26h250q17 0 26.5 -11.5t6.5 -27.5l-170 -960q-5 -25 -29 -25h-259q-13 0 -21.5 8.5t-9.5 21.5l-2 58q-139 -115 -284 -115h-7q-118 0 -193 65.5t-97.5 165.5t-1.5 219l36 205q16 89 49.5 164t84.5 134t125.5 92t163.5 33z
M664 764h-10q-108 0 -137 -160l-33 -184q-29 -160 81 -160h10q58 0 133 35l77 434q-62 35 -121 35z" />
    <glyph glyph-name="b" unicode="b" horiz-adv-x="1093" 
d="M370 1509h279q17 0 26 -11.5t6 -27.5l-89 -505q117 86 247 86h22q89 0 154.5 -36t98 -96t44 -139t-6.5 -166l-34 -191q-38 -219 -180 -334.5t-353 -115.5h-22q-124 0 -239 35.5t-201 88.5q-30 19 -24 55l223 1316q3 19 16.5 30t32.5 11zM702 764h-10q-58 0 -133 -35
l-77 -436q67 -39 120 -39h10q55 0 92 40.5t51 119.5l34 190q14 78 -9 119t-78 41z" />
    <glyph glyph-name="c" unicode="c" horiz-adv-x="907" 
d="M710 1051h23q114 0 258 -57q41 -17 33 -63l-35 -201q-3 -17 -18 -24.5t-31 0.5q-133 58 -191 58h-10q-84 0 -143.5 -53.5t-77.5 -157.5l-14 -82q-18 -103 21 -157t125 -54h10q60 0 215 59q16 6 28 -3t9 -25l-36 -204q-8 -40 -45 -54q-157 -60 -265 -60h-23
q-219 0 -332 139.5t-76 362.5l17 100q37 217 188.5 346.5t369.5 129.5z" />
    <glyph glyph-name="d" unicode="d" horiz-adv-x="1093" 
d="M979 1509h280q17 0 26 -11.5t6 -27.5l-254 -1445q-5 -25 -30 -25h-259q-13 0 -21.5 8.5t-9.5 21.5l-1 42q-111 -99 -269 -99h-22q-91 0 -158 38t-100.5 100.5t-46 143.5t5.5 168l31 178q38 216 168 333t305 117h23q108 0 183 -67l94 485q4 18 17 29t32 11zM679 764h-10
q-114 0 -143 -160l-32 -184q-29 -160 86 -160h11q57 0 133 35l76 430q-67 39 -121 39z" />
    <glyph glyph-name="e" unicode="e" horiz-adv-x="1042" 
d="M706 1051h23q91 0 166.5 -30.5t128.5 -86.5t74 -144.5t2 -196.5l-23 -134q-1 -11 -9.5 -18t-19.5 -7h-548l-2 -12q-16 -86 27 -127t127 -41h11q88 0 299 67q15 5 25.5 -4t7.5 -24l-36 -205q-8 -43 -45 -55q-175 -60 -346 -60h-23q-225 0 -337.5 138t-72.5 365l18 99
q20 114 73 206t127.5 150t164.5 89t188 31zM682 791h-6q-106 0 -143 -154h239q35 154 -90 154z" />
    <glyph glyph-name="f" unicode="f" horiz-adv-x="827" 
d="M1032 1496q35 -15 28 -60l-32 -184q-3 -16 -16 -23t-29 -2q-87 28 -119 28h-10q-43 0 -79 -32t-48 -103l-16 -96h163q17 0 26.5 -11.5t6.5 -27.5l-38 -213q-5 -24 -29 -24h-178l-188 -1065q-5 -25 -29 -25h-296q-17 0 -26 11.5t-6 27.5l185 1051h-110q-17 0 -26.5 11.5
t-6.5 27.5l35 196q3 19 16.5 30t32.5 11h107l33 182q28 157 137.5 243.5t285.5 86.5h23q113 0 203 -40z" />
    <glyph glyph-name="g" unicode="g" horiz-adv-x="1085" 
d="M682 1051h22q125 0 240.5 -35.5t201.5 -88.5q31 -19 24 -56l-134 -801q-32 -194 -187 -316.5t-370 -122.5h-8q-175 0 -356 48q-20 5 -30.5 21.5t-6.5 36.5l36 205q3 17 16 24.5t29 1.5q87 -33 141.5 -47.5t112.5 -14.5h10q117 0 173.5 41.5t75.5 138.5l8 43
q-69 -45 -119 -65.5t-110 -20.5h-22q-89 0 -154.5 37t-98 99.5t-44 144t6.5 170.5l19 108q37 220 176 334.5t348 114.5zM666 770h-11q-56 0 -87.5 -38t-45.5 -118l-22 -127q-15 -84 5 -120.5t73 -36.5h10q58 0 133 35l65 366q-67 39 -120 39z" />
    <glyph glyph-name="h" unicode="h" horiz-adv-x="1095" 
d="M373 1509h279q17 0 26.5 -11.5t6.5 -27.5l-102 -528q84 62 149.5 85.5t135.5 23.5h27q138 0 217 -91.5t53 -241.5l-122 -693q-5 -25 -30 -25h-296q-17 0 -26 11.5t-6 27.5l107 610q10 60 -11 87.5t-75 27.5h-10q-62 0 -142 -39l-124 -700q-5 -25 -29 -25h-296
q-17 0 -26.5 11.5t-6.5 27.5l252 1429q3 19 16.5 30t32.5 11z" />
    <glyph glyph-name="i" unicode="i" horiz-adv-x="487" 
d="M366 1473h279q17 0 26.5 -11.5t6.5 -27.5l-43 -246q-3 -19 -16.5 -30t-32.5 -11h-279q-17 0 -26.5 11.5t-6.5 27.5l43 246q3 19 16.5 30t32.5 11zM288 1024h279q17 0 26.5 -11.5t6.5 -27.5l-170 -960q-5 -25 -29 -25h-296q-17 0 -26.5 11.5t-6.5 27.5l167 944
q3 19 16.5 30t32.5 11z" />
    <glyph glyph-name="j" unicode="j" horiz-adv-x="624" 
d="M505 1473h279q17 0 26.5 -11.5t6.5 -27.5l-43 -246q-3 -19 -16.5 -30t-32.5 -11h-279q-17 0 -26.5 11.5t-6.5 27.5l43 246q3 19 16.5 30t32.5 11zM427 1024h277q17 0 26.5 -11.5t6.5 -27.5l-176 -999q-30 -171 -128.5 -263t-252.5 -92h-24q-97 0 -166 28q-27 11 -22 43
l33 187q3 15 15 22.5t27 3.5q33 -9 54 -9h10q81 0 98 96l173 981q3 19 16.5 30t32.5 11z" />
    <glyph glyph-name="k" unicode="k" horiz-adv-x="1110" 
d="M373 1509h280q17 0 26 -11.5t6 -27.5l-142 -809h59l229 336q19 27 51 27h312q18 0 25.5 -14t-3.5 -28l-315 -445l191 -505q5 -13 -2 -22.5t-20 -9.5h-319q-45 0 -61 43l-128 342h-68l-64 -360q-5 -25 -29 -25h-296q-17 0 -26.5 11.5t-6.5 27.5l252 1429q3 19 16.5 30
t32.5 11z" />
    <glyph glyph-name="l" unicode="l" horiz-adv-x="483" 
d="M373 1509h280q17 0 26 -11.5t6 -27.5l-255 -1445q-5 -25 -29 -25h-296q-17 0 -26.5 11.5t-6.5 27.5l252 1429q3 19 16.5 30t32.5 11z" />
    <glyph glyph-name="m" unicode="m" horiz-adv-x="1650" 
d="M1442 1051h26q134 0 206 -91t46 -242l-122 -693q-5 -25 -30 -25h-295q-17 0 -26.5 11.5t-6.5 27.5l107 610q11 63 -3.5 89t-63.5 26h-11q-55 0 -137 -37q0 -16 -10 -76l-110 -626q-5 -25 -29 -25h-296q-17 0 -26.5 11.5t-6.5 27.5l108 610q11 62 -4 88.5t-64 26.5h-10
q-58 0 -134 -35l-124 -704q-5 -25 -29 -25h-296q-17 0 -26.5 11.5t-6.5 27.5l167 944q3 19 16.5 30t32.5 11h242q13 0 21.5 -8.5t9.5 -21.5l2 -61q89 67 157 92.5t140 25.5h26q85 0 148 -41.5t84 -106.5q103 85 176.5 116.5t151.5 31.5z" />
    <glyph glyph-name="n" unicode="n" horiz-adv-x="1079" 
d="M856 1051h26q137 0 214.5 -91.5t51.5 -241.5l-122 -693q-5 -25 -29 -25h-296q-17 0 -26.5 11.5t-6.5 27.5l108 610q10 61 -9.5 88t-72.5 27h-10q-58 0 -134 -35l-124 -704q-5 -25 -29 -25h-296q-17 0 -26.5 11.5t-6.5 27.5l167 944q3 19 16.5 30t32.5 11h242
q13 0 21.5 -8.5t9.5 -21.5l2 -61q89 67 157 92.5t140 25.5z" />
    <glyph glyph-name="o" unicode="o" horiz-adv-x="1103" 
d="M714 1051h23q97 0 181 -33.5t143.5 -93t85.5 -151t7 -199.5l-27 -151q-19 -108 -72.5 -195t-129 -142t-166.5 -84t-189 -29h-23q-97 0 -181 33.5t-143.5 93t-85.5 151t-7 199.5l27 151q19 108 72.5 195t129 142t166.5 84t189 29zM692 764h-10q-60 0 -101 -41t-55 -119
l-32 -184q-14 -78 12.5 -119t86.5 -41h10q60 0 100.5 41t54.5 119l33 184q14 78 -12.5 119t-86.5 41z" />
    <glyph glyph-name="p" unicode="p" horiz-adv-x="1097" 
d="M831 1051h23q72 0 129.5 -24.5t93.5 -67t58.5 -100t24.5 -123t-8 -135.5l-31 -178q-38 -215 -169 -332.5t-304 -117.5h-23q-108 0 -183 67l-72 -358q-5 -24 -29 -24h-296q-17 0 -26.5 11.5t-6.5 27.5l227 1286q3 19 16.5 30t32.5 11h242q13 0 21.5 -8.5t9.5 -21.5l1 -42
q111 99 269 99zM698 764h-10q-57 0 -133 -35l-76 -430q67 -39 120 -39h10q55 0 92 40.5t51 119.5l32 184q14 78 -8.5 119t-77.5 41z" />
    <glyph glyph-name="q" unicode="q" horiz-adv-x="1087" 
d="M684 1051h22q124 0 239 -35.5t201 -88.5q30 -19 24 -55l-200 -1189q-5 -25 -29 -25h-296q-17 0 -26.5 11.5t-6.5 27.5l64 362q-117 -86 -235 -86h-23q-118 0 -193 65.5t-97.5 165.5t-1.5 219l31 178q38 219 177 334.5t350 115.5zM674 770h-10q-111 0 -137 -160l-33 -190
q-29 -160 80 -160h10q59 0 134 35l76 436q-67 39 -120 39z" />
    <glyph glyph-name="r" unicode="r" horiz-adv-x="763" 
d="M846 1051h8q18 0 42 -3q13 -1 20.5 -12t5.5 -25l-49 -276q-2 -13 -11.5 -20t-22.5 -6q-57 6 -88 6h-17q-99 0 -192 -35l-116 -655q-5 -25 -29 -25h-296q-17 0 -26.5 11.5t-6.5 27.5l167 944q3 19 16.5 30t32.5 11h243q28 0 30 -28l7 -86q62 70 136 105.5t146 35.5z" />
    <glyph glyph-name="s" unicode="s" horiz-adv-x="894" 
d="M648 1051h20q138 0 246 -34q20 -7 31 -25.5t7 -40.5l-33 -186q-3 -17 -17 -24.5t-31 -0.5q-84 35 -127 47t-85 12h-2q-94 0 -104 -54l-1 -4q-1 -6 -1 -11t0.5 -9t3 -7.5t4 -6t6 -5.5t7 -4.5t9 -4t9 -3.5t10.5 -4t11 -4l70 -25q45 -16 77.5 -31.5t64 -37t49.5 -46
t33 -58.5t14 -74t-7 -93l-3 -14q-28 -154 -166.5 -242t-323.5 -88h-12q-152 0 -274 39q-20 7 -30 24.5t-6 40.5l33 187q3 17 16.5 24.5t29.5 0.5q96 -37 146 -50.5t96 -13.5h10q106 0 117 58l1 4q3 18 -4.5 29t-19 16t-37.5 14l-70 25q-23 8 -42.5 16t-42 19.5t-40 23
t-35.5 27.5t-30.5 34t-23 41t-15.5 48.5t-5 57.5t6 67l2 10q14 83 61 149t112 105.5t138 60.5t148 21z" />
    <glyph glyph-name="t" unicode="t" horiz-adv-x="772" 
d="M405 1245l304 67q14 3 22.5 -5.5t6.5 -21.5l-45 -261h198q17 0 26 -11.5t6 -27.5l-37 -213q-5 -24 -30 -24h-212l-71 -400q-15 -88 55 -88h10q13 0 124 29q15 4 25.5 -5t8.5 -23l-34 -192q-5 -29 -33 -40q-138 -56 -216 -56h-23q-154 0 -233.5 88t-53.5 231l80 456h-93
q-17 0 -26.5 11t-6.5 27l28 161q6 34 37 43l109 34l32 176q6 37 42 45z" />
    <glyph glyph-name="u" unicode="u" 
d="M849 1024h295q17 0 26.5 -11.5t6.5 -27.5l-169 -960q-5 -25 -29 -25h-259q-13 0 -21.5 8.5t-9.5 21.5l-2 61q-89 -67 -157 -92.5t-140 -25.5h-27q-136 0 -207.5 91t-44.5 242l120 677q7 41 48 41h280q17 0 26 -11.5t6 -27.5l-107 -610q-10 -61 6 -88t62 -27h10
q57 0 133 35l124 704q5 25 30 25z" />
    <glyph glyph-name="v" unicode="v" horiz-adv-x="1093" 
d="M933 1024h296q15 0 22 -11t0 -25l-472 -962q-13 -26 -41 -26h-379q-12 0 -19.5 7.5t-9.5 18.5l-131 948q-3 21 9.5 35.5t33.5 14.5h270q20 0 34 -12.5t16 -32.5l36 -305l-2 -375h4l125 375l150 313q18 37 58 37z" />
    <glyph glyph-name="w" unicode="w" horiz-adv-x="1720" 
d="M1555 1024h301q15 0 21.5 -10.5t0.5 -24.5l-451 -962q-13 -27 -42 -27h-335q-12 0 -20 7.5t-10 19.5l-30 274l-2 356h-20l-122 -356l-130 -275q-12 -26 -42 -26h-335q-12 0 -20 7.5t-10 19.5l-110 949q-2 20 10.5 34t32.5 14h294q28 0 30 -28l30 -396l-19 -281h13l75 281
l164 379q19 45 69 45h301q29 0 31 -28l29 -396l-18 -281h12l76 281l166 385q17 39 60 39z" />
    <glyph glyph-name="x" unicode="x" horiz-adv-x="1097" 
d="M917 1024h298q19 0 26 -14.5t-4 -29.5l-349 -462l192 -485q5 -13 -2 -23t-21 -10h-303q-46 0 -62 44l-57 161l-18 133h-12l-56 -133l-127 -173q-23 -32 -64 -32h-306q-19 0 -26 14.5t4 29.5l362 474l-182 474q-5 13 1.5 22.5t20.5 9.5h295q46 0 62 -45l55 -158l17 -133
h13l56 133l123 170q24 33 64 33z" />
    <glyph glyph-name="y" unicode="y" horiz-adv-x="1093" 
d="M933 1024h295q15 0 22.5 -11.5t0.5 -24.5l-501 -1030q-36 -73 -74.5 -127.5t-91.5 -102t-123.5 -72.5t-155.5 -25h-16q-101 0 -204 30q-18 5 -27 20.5t-5 34.5l36 199q3 16 15 23t28 2q90 -28 144 -28h4q71 0 101 61l13 27h-35q-26 0 -29 26l-131 948q-3 21 9.5 35.5
t33.5 14.5h270q20 0 34 -12.5t16 -32.5l36 -305l-2 -375h4l125 375l150 313q18 37 58 37z" />
    <glyph glyph-name="z" unicode="z" horiz-adv-x="888" 
d="M284 1024h695q16 0 25.5 -11t7.5 -27l-27 -168q-6 -41 -32 -68l-421 -463h327q17 0 26.5 -11.5t6.5 -27.5l-40 -223q-5 -25 -29 -25h-743q-16 0 -25.5 11t-7.5 27l27 168q6 41 32 68l421 463h-296q-17 0 -26.5 11.5t-6.5 27.5l37 207q3 19 16.5 30t32.5 11z" />
    <glyph glyph-name="braceleft" unicode="{" horiz-adv-x="849" 
d="M686 1434h336q17 0 26.5 -11.5t6.5 -27.5l-38 -213q-5 -25 -29 -25h-106q-28 0 -49 -17.5t-26 -45.5l-53 -303q-13 -77 -67.5 -133t-128.5 -71q69 -15 103 -71t21 -133l-54 -303q-5 -28 10 -46t43 -18h91q17 0 26.5 -11.5t6.5 -27.5l-38 -213q-5 -24 -29 -24h-328
q-91 0 -144 65.5t-37 156.5l77 437q4 28 -5.5 39t-37.5 11h-103q-17 0 -26.5 11.5t-6.5 27.5l35 196q7 41 48 41h78q39 0 61 22.5t28 54.5l77 436q16 91 78.5 143.5t153.5 52.5z" />
    <glyph glyph-name="bar" unicode="|" horiz-adv-x="583" 
d="M397 1434h297q17 0 26.5 -11.5t6.5 -27.5l-265 -1506q-3 -19 -16.5 -30t-32.5 -11h-298q-17 0 -26 11.5t-6 27.5l265 1506q3 19 16.5 30t32.5 11z" />
    <glyph glyph-name="braceright" unicode="}" horiz-adv-x="849" 
d="M335 1434h312q90 0 143.5 -66t37.5 -157l-77 -436q-5 -27 5 -38.5t38 -11.5h103q17 0 26.5 -11.5t6.5 -27.5l-38 -213q-5 -24 -29 -24h-95q-73 0 -88 -78l-77 -436q-16 -90 -78.5 -142.5t-153.5 -52.5h-336q-17 0 -26.5 11.5t-6.5 27.5l38 213q5 24 29 24h106q28 0 49 18
t26 46l53 303q13 77 67.5 133t128.5 71q-69 15 -103 71t-21 133l53 303q5 28 -9.5 45.5t-42.5 17.5h-91q-17 0 -26.5 11.5t-6.5 27.5l35 197q7 41 48 41z" />
    <glyph glyph-name="asciitilde" unicode="~" horiz-adv-x="864" 
d="M390 784q50 0 94 -15.5t70.5 -34.5t62.5 -34.5t73 -15.5q50 0 99.5 18t125.5 55q12 6 21.5 -1t8.5 -20l-23 -222q-3 -29 -28 -41q-124 -65 -211 -65q-48 0 -91 15.5t-70 34.5t-63.5 34.5t-73.5 15.5q-50 0 -99.5 -18t-125.5 -55q-12 -6 -22 1t-9 20l23 220q3 29 36 46
q126 62 202 62z" />
    <glyph glyph-name="exclamdown" unicode="&#xa1;" horiz-adv-x="458" 
d="M283 1092h280q17 0 26 -11.5t6 -27.5l-51 -291q-5 -25 -29 -25h-296q-17 0 -26.5 11.5t-6.5 27.5l49 275q7 41 48 41zM242 598h187q16 0 25 -10.5t7 -25.5l-99 -877q-2 -12 -10 -19.5t-20 -7.5h-311q-17 0 -27 12.5t-6 29.5l206 861q4 17 17 27t31 10z" />
    <glyph glyph-name="cent" unicode="&#xa2;" horiz-adv-x="907" 
d="M991 994q41 -17 33 -63l-35 -201q-3 -17 -18 -24.5t-31 0.5q-133 58 -191 58h-10q-84 0 -143.5 -53.5t-77.5 -157.5l-14 -82q-18 -103 21 -157t125 -54h10q60 0 215 59q16 6 28 -3t9 -25l-36 -204q-8 -40 -45 -54q-84 -32 -156 -47l-43 -248q-5 -25 -30 -25h-195
q-17 0 -26.5 11.5t-6.5 27.5l42 236q-159 39 -235.5 169.5t-45.5 317.5l17 100q31 187 151 311t298 155l41 229q7 41 48 41h179q17 0 26.5 -11.5t6.5 -27.5l-42 -237q68 -15 131 -41z" />
    <glyph glyph-name="sterling" unicode="&#xa3;" horiz-adv-x="1056" 
d="M1166 1416q20 -7 30.5 -25.5t6.5 -40.5l-45 -254q-3 -17 -16.5 -24t-30.5 0q-117 48 -154 56q-34 7 -75 7h-8q-73 0 -127 -47.5t-66 -118.5l-1 -6q-10 -61 -12 -146h256q17 0 26 -11.5t6 -27.5l-22 -129q-3 -19 -16.5 -30t-32.5 -11h-216q-2 -29 -6 -53
q-22 -124 -165 -227h495q17 0 26.5 -11.5t6.5 -27.5l-47 -264q-5 -25 -29 -25h-831q-16 0 -25.5 11t-7.5 27l37 236q4 33 25 59q9 11 47.5 57t52 65.5t33.5 61.5t28 86q0 1 0.5 2.5t0.5 2.5h-122q-17 0 -26.5 11.5t-6.5 27.5l23 129q3 19 16.5 30t32.5 11h72q-11 109 4 192
l2 12q35 201 193 320t393 119h12q137 0 263 -44z" />
    <glyph glyph-name="currency" unicode="&#xa4;" horiz-adv-x="1292" 
d="M1299 1163l120 -138q20 -23 -3 -44l-212 -187q42 -115 18 -252q-22 -125 -96 -226l139 -155q21 -25 -2 -45l-160 -141q-11 -10 -24 -8.5t-22 12.5l-131 166q-112 -57 -242 -57q-134 0 -234 60l-213 -176q-23 -18 -43 4l-121 138q-20 23 3 44l212 187q-42 115 -18 252
q22 125 96 226l-139 155q-21 24 2 44l160 142q11 10 24 8t22 -13l131 -166q114 58 242 58q131 0 233 -61l214 177q23 18 44 -4zM543 569q-16 -88 31 -145.5t136 -56.5q88 0 155 56.5t84 145.5q14 87 -33.5 144.5t-134.5 56.5q-88 1 -155 -56t-83 -145z" />
    <glyph glyph-name="yen" unicode="&#xa5;" horiz-adv-x="1296" 
d="M1153 1434h332q17 0 24 -13t-2 -27l-440 -702h149q17 0 26.5 -11.5t6.5 -27.5l-23 -129q-3 -19 -16.5 -30t-32.5 -11h-241l-11 -18l-14 -72h252q17 0 26.5 -11.5t6.5 -27.5l-23 -129q-7 -41 -48 -41h-252l-30 -160q-5 -24 -29 -24h-316q-17 0 -26.5 11.5t-6.5 27.5
l27 145h-257q-17 0 -26.5 11.5t-6.5 27.5l23 129q3 19 16.5 30t32.5 11h256l14 72l-6 18h-250q-17 0 -26.5 11.5t-6.5 27.5l23 129q7 41 48 41h155l-191 698q-5 17 5 30.5t28 13.5h316q37 0 47 -36l93 -345l6 -244h8l84 244l222 351q19 30 54 30z" />
    <glyph glyph-name="brokenbar" unicode="&#xa6;" horiz-adv-x="583" 
d="M397 1434h297q17 0 26.5 -11.5t6.5 -27.5l-113 -643q-3 -19 -16.5 -30t-32.5 -11h-298q-17 0 -26 11.5t-6 27.5l113 643q3 19 16.5 30t32.5 11zM245 571h297q17 0 26.5 -11.5t6.5 -27.5l-113 -643q-3 -19 -16.5 -30t-32.5 -11h-298q-17 0 -26 11.5t-6 27.5l113 643
q3 19 16.5 30t32.5 11z" />
    <glyph glyph-name="section" unicode="&#xa7;" horiz-adv-x="903" 
d="M692 1329h20q134 0 236 -34q21 -7 30.5 -25t5.5 -40l-32 -187q-3 -17 -17 -24t-31 0q-78 33 -122.5 45.5t-90.5 12.5h-2q-94 0 -103 -53l-1 -4q-6 -32 25 -47q6 -3 34 -13l81 -28q38 -13 67.5 -27t59 -32t49 -38.5t37 -46.5t24.5 -56.5t10 -68t-7 -81.5l-3 -14
q-23 -135 -137 -227q54 -80 33 -201l-2 -10q-14 -83 -58.5 -146.5t-107 -101t-133 -56.5t-145.5 -19h-21q-133 0 -235 34q-21 7 -31 25t-6 40l33 187q3 17 17 24.5t31 0.5q80 -33 124 -46t89 -13h2q43 0 71 14t32 40l1 4q1 6 1 11t-0.5 9t-3 7.5t-4 6t-6 5.5t-7 4.5t-9 4
t-9 3.5t-10.5 4t-11 4l-81 29q-38 13 -67.5 27t-59 32t-49 38t-37 46.5t-24.5 56.5t-10 68t7 81l2 15q23 135 137 227q-54 80 -33 201l2 10q14 83 58.5 146.5t107 101t133.5 56t146 18.5zM606 600l-129 47q-36 -14 -43 -47v-4q-3 -13 -0.5 -22.5t13 -16t19.5 -10t29 -10.5
l129 -47q36 14 43 47l1 4q3 13 0.5 22.5t-13.5 16t-19.5 10t-29.5 10.5z" />
    <glyph glyph-name="dieresis" unicode="&#xa8;" horiz-adv-x="788" 
d="M419 1911h226q17 0 26.5 -11.5t6.5 -27.5l-48 -275q-3 -19 -16.5 -30t-32.5 -11h-226q-17 0 -26.5 11.5t-6.5 27.5l49 275q7 41 48 41zM819 1911h226q17 0 26.5 -11.5t6.5 -27.5l-49 -275q-3 -19 -16.5 -30t-32.5 -11h-226q-17 0 -26 11.5t-6 27.5l48 275q3 19 16.5 30
t32.5 11z" />
    <glyph glyph-name="copyright" unicode="&#xa9;" horiz-adv-x="1187" 
d="M842 1536q156 0 274.5 -78t172.5 -211.5t26 -290.5q-25 -144 -117 -265t-226 -191t-279 -70q-156 0 -275 78t-173 211.5t-26 290.5q25 144 117 265t226.5 191t279.5 70zM842 1407q-175 0 -321.5 -124.5t-177.5 -299.5q-31 -177 71.5 -301.5t277.5 -124.5q177 0 322 124.5
t177 301.5q31 175 -71 299.5t-278 124.5zM808 1252h11q54 0 128 -26q28 -9 23 -43l-18 -102q-1 -6 -6 -8.5t-11 0.5q-67 32 -103 32h-5q-93 0 -112 -106l-7 -39q-9 -53 11.5 -80t63.5 -27h5q35 0 108 30q8 3 14 -1.5t5 -12.5l-18 -104q-3 -19 -23 -27q-79 -30 -128 -30h-11
q-105 0 -168.5 70.5t-42.5 191.5l8 47q21 120 96 177.5t180 57.5z" />
    <glyph glyph-name="guillemotleft" unicode="&#xab;" horiz-adv-x="972" 
d="M408 877h176q28 0 39 -21.5t-6 -43.5l-187 -255l97 -272q7 -19 -3.5 -33t-30.5 -14h-180q-32 0 -47 26l-120 205q-14 25 -11 51l9 74q3 29 22 48l205 218q15 17 37 17zM842 877h177q28 0 38.5 -21.5t-6.5 -43.5l-187 -255l97 -272q7 -19 -3.5 -33t-30.5 -14h-180
q-31 0 -46 26l-120 205q-14 25 -11 51l8 74q3 29 22 48l205 218q15 17 37 17z" />
    <glyph glyph-name="logicalnot" unicode="&#xac;" horiz-adv-x="1032" 
d="M217 764h869q17 0 26.5 -11.5t6.5 -27.5l-70 -395q-7 -41 -48 -41h-206q-17 0 -26.5 11.5t-6.5 27.5l28 159h-623q-17 0 -26.5 11.5t-6.5 27.5l34 197q3 19 16.5 30t32.5 11z" />
    <glyph glyph-name="registered" unicode="&#xae;" horiz-adv-x="1187" 
d="M842 1536q156 0 274.5 -78t172.5 -211.5t26 -290.5q-25 -144 -117 -265t-226 -191t-279 -70q-156 0 -275 78t-173 211.5t-26 290.5q25 144 117 265t226.5 191t279.5 70zM842 1407q-175 0 -321.5 -124.5t-177.5 -299.5q-31 -177 71.5 -301.5t277.5 -124.5q177 0 322 124.5
t177 301.5q31 175 -71 299.5t-278 124.5zM630 1244h217q94 0 141.5 -56t32.5 -137l-1 -6q-16 -94 -103 -126l22 -50l39 -111q5 -13 -2 -22.5t-20 -9.5h-124q-33 0 -45 33l-44 134h-35l-25 -142q-5 -25 -29 -25h-117q-17 0 -26.5 11.5t-6.5 27.5l77 438q3 19 16.5 30t32.5 11
zM745 1104l-16 -90h47q51 0 59 41l1 8q4 20 -8 30.5t-36 10.5h-47z" />
    <glyph glyph-name="macron" unicode="&#xaf;" horiz-adv-x="612" 
d="M401 1808h450q17 0 26 -11.5t6 -27.5l-30 -172q-3 -19 -16.5 -30t-32.5 -11h-449q-17 0 -26.5 11.5t-6.5 27.5l31 172q7 41 48 41z" />
    <glyph glyph-name="degree" unicode="&#xb0;" horiz-adv-x="606" 
d="M551 1536q118 0 186.5 -85t47.5 -204q-17 -98 -99 -166.5t-182 -68.5q-117 0 -186 85.5t-48 203.5q17 99 98.5 167t182.5 68zM541 1352q-32 0 -58.5 -23t-32.5 -55t13 -54t51 -22t59 22t33 54t-13.5 55t-51.5 23z" />
    <glyph glyph-name="plusminus" unicode="&#xb1;" horiz-adv-x="1032" 
d="M599 1024h199q17 0 26.5 -11.5t6.5 -27.5l-30 -166h295q17 0 26.5 -11.5t6.5 -27.5l-35 -196q-3 -19 -16.5 -30t-32.5 -11h-293l-30 -164q-7 -41 -48 -41h-200q-17 0 -26.5 11.5t-6.5 27.5l30 166h-295q-17 0 -26 11.5t-6 27.5l34 196q3 19 16.5 30t32.5 11h294l29 164
q3 19 16.5 30t32.5 11zM129 264h869q17 0 26.5 -11.5t6.5 -27.5l-23 -129q-3 -19 -16.5 -30t-32.5 -11h-869q-17 0 -26 11.5t-6 27.5l22 129q3 19 16.5 30t32.5 11z" />
    <glyph glyph-name="acute" unicode="&#xb4;" horiz-adv-x="557" 
d="M584 1911h236q16 0 21.5 -13t-4.5 -25l-254 -293q-19 -24 -53 -24h-185q-14 0 -20 11.5t2 22.5l198 290q22 31 59 31z" />
    <glyph glyph-name="paragraph" unicode="&#xb6;" horiz-adv-x="1153" 
d="M647 1434h617q17 0 26.5 -11.5t6.5 -27.5l-302 -1712q-5 -25 -30 -25h-197q-17 0 -26.5 11.5t-6.5 27.5l273 1550h-120l-276 -1564q-5 -25 -30 -25h-197q-16 0 -25.5 11.5t-6.5 28.5l175 933q-83 0 -145.5 23t-106 73.5t-56 130.5t5.5 193q68 383 421 383z" />
    <glyph glyph-name="periodcentered" unicode="&#xb7;" horiz-adv-x="442" 
d="M222 793h280q17 0 26 -11.5t6 -27.5l-51 -291q-5 -25 -29 -25h-296q-17 0 -26.5 11.5t-6.5 27.5l48 275q3 19 16.5 30t32.5 11z" />
    <glyph glyph-name="cedilla" unicode="&#xb8;" horiz-adv-x="497" 
d="M295 0l-34 -89q1 0 7 0.5t9 0.5q65 0 105 -53.5t26 -137.5q-14 -78 -78 -119.5t-164 -41.5q-97 0 -172 35q-25 12 -20 40l11 58q3 20 23 13q53 -19 115 -19q69 0 77 43q3 19 -9.5 30t-40.5 11q-25 0 -72 -16q-9 -2 -13 0l-19 9q-9 4 -5 13l86 223h168z" />
    <glyph glyph-name="guillemotright" unicode="&#xbb;" horiz-adv-x="972" 
d="M241 877h181q30 0 46 -27l123 -209q12 -22 9 -41l-10 -85q-3 -24 -17 -39l-209 -222q-15 -16 -38 -16h-176q-28 0 -39 21t6 43l187 255l-96 272q-7 19 3 33.5t30 14.5zM676 877h180q30 0 46 -27l123 -209q12 -22 9 -41l-9 -85q-3 -23 -18 -39l-209 -222q-15 -16 -37 -16
h-177q-28 0 -38.5 21t6.5 43l187 255l-97 272q-7 19 3.5 33.5t30.5 14.5z" />
    <glyph glyph-name="onequarter" unicode="&#xbc;" horiz-adv-x="1957" 
d="M620 1434h74q17 0 26.5 -11.5t6.5 -27.5l-86 -488h114q17 0 26.5 -11.5t6.5 -27.5l-32 -182q-5 -25 -29 -25h-530q-17 0 -26.5 11.5t-6.5 27.5l33 183q5 24 29 24h145l43 240l-142 -38q-14 -4 -23 5t-7 23l26 154q8 46 51 58l260 79q21 6 41 6zM1430 1434h174
q17 0 24 -13.5t-2 -27.5l-879 -1352q-27 -41 -75 -41h-174q-17 0 -24 13.5t2 27.5l879 1352q27 41 75 41zM1573 772h288q17 0 26 -11.5t6 -27.5l-61 -350h114q17 0 26 -11.5t6 -27.5l-27 -158q-5 -24 -30 -24h-128l-25 -137q-5 -25 -29 -25h-206q-17 0 -26 11.5t-6 27.5
l21 123h-295q-16 0 -25 11t-7 27l21 138q3 21 16 37l286 370q21 27 55 27zM1463 383h98l36 180z" />
    <glyph glyph-name="onehalf" unicode="&#xbd;" horiz-adv-x="1806" 
d="M620 1434h74q17 0 26.5 -11.5t6.5 -27.5l-86 -488h114q17 0 26.5 -11.5t6.5 -27.5l-32 -182q-5 -25 -29 -25h-530q-17 0 -26.5 11.5t-6.5 27.5l33 183q5 24 29 24h145l43 240l-142 -38q-14 -4 -23 5t-7 23l26 154q8 46 51 58l260 79q21 6 41 6zM1430 1434h174
q17 0 24 -13.5t-2 -27.5l-879 -1352q-27 -41 -75 -41h-174q-17 0 -24 13.5t2 27.5l879 1352q27 41 75 41zM1554 799h6q149 0 228 -77.5t57 -202.5l-1 -8q-5 -28 -14.5 -52.5t-27.5 -48t-30 -38.5t-39 -36.5t-36.5 -29t-40 -28t-33.5 -22.5l-15 -10h162q17 0 26.5 -11.5
t6.5 -27.5l-33 -182q-5 -25 -29 -25h-541q-17 0 -26.5 11.5t-6.5 27.5l22 127q6 36 37 56l234 157q51 34 72 59.5t26 55.5l1 4q6 32 -12 50.5t-57 18.5h-7q-16 0 -35.5 -3.5t-34 -7t-48 -13t-55.5 -15.5q-14 -4 -23.5 5t-7.5 23l29 167q6 37 43 45q132 31 203 31z" />
    <glyph glyph-name="threequarters" unicode="&#xbe;" horiz-adv-x="1943" 
d="M543 1461h6q143 0 221 -72t59 -181l-1 -9q-17 -98 -127 -158q42 -19 68.5 -65t16.5 -106l-1 -9q-19 -108 -113 -167t-250 -59h-6q-83 0 -207 30q-16 4 -24.5 17t-5.5 30l29 168q2 10 10 15t18 2q19 -5 55.5 -16.5t50 -15t34 -7t37.5 -3.5h6q82 0 91 53l1 6q3 22 -9 33.5
t-44 11.5h-71q-17 0 -26.5 11.5t-6.5 27.5l21 117q5 24 29 24h74q62 0 73 51l1 7q3 23 -12 36t-47 13h-6q-14 0 -33 -3.5t-33.5 -7t-49.5 -13t-57 -15.5q-14 -4 -24 4.5t-8 22.5l27 154q6 34 39 43q107 30 195 30zM1416 1434h174q17 0 24 -13.5t-2 -27.5l-879 -1352
q-27 -41 -75 -41h-174q-17 0 -24 13.5t2 27.5l879 1352q27 41 75 41zM1559 772h287q17 0 26.5 -11.5t6.5 -27.5l-62 -350h114q17 0 26.5 -11.5t6.5 -27.5l-28 -158q-5 -24 -29 -24h-129l-24 -137q-5 -25 -29 -25h-206q-17 0 -26.5 11.5t-6.5 27.5l22 123h-295
q-16 0 -25.5 11t-7.5 27l22 138q3 23 15 37l287 370q21 27 55 27zM1449 383h98l36 180z" />
    <glyph glyph-name="questiondown" unicode="&#xbf;" horiz-adv-x="1021" 
d="M726 1092h279q17 0 26.5 -11.5t6.5 -27.5l-52 -291q-5 -25 -29 -25h-296q-17 0 -26.5 11.5t-6.5 27.5l49 275q3 19 16.5 30t32.5 11zM666 598h205q15 0 24.5 -10.5t7.5 -25.5l-27 -251q-1 -19 -17 -33l-49 -42q-18 -16 -40 -13q-89 10 -117 10q-92 0 -143.5 -34.5
t-61.5 -92.5l-1 -6q-13 -74 33 -107.5t143 -33.5h10q60 0 118.5 12.5t175.5 46.5q23 7 38 -6t11 -35l-44 -251q-7 -34 -37 -43q-172 -52 -330 -52h-12q-162 0 -283 51.5t-180.5 153.5t-35.5 239l3 14q30 173 147 276.5t286 103.5q48 0 111 -13l38 122q7 20 27 20z" />
    <glyph glyph-name="Agrave" unicode="&#xc0;" horiz-adv-x="1361" 
d="M681 1911h232q41 0 54 -39l96 -291q3 -10 -2.5 -17.5t-15.5 -7.5h-181q-33 0 -49 30l-152 296q-5 11 0.5 20t17.5 9zM684 1434h496q12 0 20 -8.5t10 -20.5l111 -1370q3 -18 -7.5 -26.5t-23.5 -8.5h-317q-14 0 -22.5 10t-8.5 19l-18 272h-375l-115 -272q-5 -12 -17 -20.5
t-26 -8.5h-323q-14 0 -21 10.5t-2 22.5l596 1372q5 11 17 20t26 9zM874 1133l-130 -367l-59 -137h218l-7 137l-5 367h-17z" />
    <glyph glyph-name="Aacute" unicode="&#xc1;" horiz-adv-x="1361" 
d="M1101 1911h236q16 0 21.5 -13t-4.5 -25l-255 -293q-19 -24 -52 -24h-186q-14 0 -19.5 11.5t2.5 22.5l198 290q22 31 59 31zM684 1434h496q12 0 20 -8.5t10 -20.5l111 -1370q3 -18 -7.5 -26.5t-23.5 -8.5h-317q-14 0 -22.5 10t-8.5 19l-18 272h-375l-115 -272
q-5 -12 -17 -20.5t-26 -8.5h-323q-14 0 -21 10.5t-2 22.5l596 1372q5 11 17 20t26 9zM874 1133l-130 -367l-59 -137h218l-7 137l-5 367h-17z" />
    <glyph glyph-name="Acircumflex" unicode="&#xc2;" horiz-adv-x="1361" 
d="M926 1911h163q32 0 48 -30l153 -295q5 -11 -0.5 -20.5t-17.5 -9.5h-212q-29 0 -37 28l-35 116l-87 -121q-16 -23 -43 -23h-214q-16 0 -21.5 13t4.5 25l260 299q15 18 39 18zM684 1434h496q12 0 20 -8.5t10 -20.5l111 -1370q3 -18 -7.5 -26.5t-23.5 -8.5h-317
q-14 0 -22.5 10t-8.5 19l-18 272h-375l-115 -272q-5 -12 -17 -20.5t-26 -8.5h-323q-14 0 -21 10.5t-2 22.5l596 1372q5 11 17 20t26 9zM874 1133l-130 -367l-59 -137h218l-7 137l-5 367h-17z" />
    <glyph glyph-name="Atilde" unicode="&#xc3;" horiz-adv-x="1361" 
d="M1212 1839h95q13 0 18 -10t-1 -21q-86 -160 -145 -216t-133 -56h-8q-25 0 -45 8t-32.5 19.5t-24 23t-27 19.5t-35.5 8t-34 -8.5t-34 -28.5q-14 -14 -36 -14h-95q-13 0 -18 10t1 21q86 160 145 216t133 56h9q40 0 68 -19.5t49.5 -39t46.5 -19.5q27 0 67 37q14 14 36 14z
M684 1434h496q12 0 20 -8.5t10 -20.5l111 -1370q3 -18 -7.5 -26.5t-23.5 -8.5h-317q-14 0 -22.5 10t-8.5 19l-18 272h-375l-115 -272q-5 -12 -17 -20.5t-26 -8.5h-323q-14 0 -21 10.5t-2 22.5l596 1372q5 11 17 20t26 9zM874 1133l-130 -367l-59 -137h218l-7 137l-5 367h-17
z" />
    <glyph glyph-name="Adieresis" unicode="&#xc4;" horiz-adv-x="1361" 
d="M705 1911h226q17 0 26.5 -11.5t6.5 -27.5l-48 -275q-3 -19 -16.5 -30t-32.5 -11h-226q-17 0 -26.5 11.5t-6.5 27.5l48 275q3 19 16.5 30t32.5 11zM1105 1911h226q17 0 26 -11.5t6 -27.5l-48 -275q-3 -19 -16.5 -30t-32.5 -11h-226q-17 0 -26.5 11.5t-6.5 27.5l49 275
q3 19 16.5 30t32.5 11zM684 1434h496q12 0 20 -8.5t10 -20.5l111 -1370q3 -18 -7.5 -26.5t-23.5 -8.5h-317q-14 0 -22.5 10t-8.5 19l-18 272h-375l-115 -272q-5 -12 -17 -20.5t-26 -8.5h-323q-14 0 -21 10.5t-2 22.5l596 1372q5 11 17 20t26 9zM874 1133l-130 -367l-59 -137
h218l-7 137l-5 367h-17z" />
    <glyph glyph-name="Aring" unicode="&#xc5;" horiz-adv-x="1361" 
d="M999 1935q95 0 151 -70t39 -166q-13 -77 -76.5 -130t-141.5 -53q-96 0 -152.5 70t-39.5 168q14 76 77.5 128.5t142.5 52.5zM994 1778q-22 0 -40 -15t-22 -37t9 -37.5t35 -15.5t39.5 15.5t21.5 37.5t-8.5 37t-34.5 15zM684 1434h496q12 0 20 -8.5t10 -20.5l111 -1370
q3 -18 -7.5 -26.5t-23.5 -8.5h-317q-14 0 -22.5 10t-8.5 19l-18 272h-375l-115 -272q-5 -12 -17 -20.5t-26 -8.5h-323q-14 0 -21 10.5t-2 22.5l596 1372q5 11 17 20t26 9zM874 1133l-130 -367l-59 -137h218l-7 137l-5 367h-17z" />
    <glyph glyph-name="AE" unicode="&#xc6;" horiz-adv-x="1679" 
d="M684 1434h1158q17 0 26 -11.5t6 -27.5l-46 -265q-5 -24 -29 -24h-537l-38 -215h461q17 0 26 -11.5t6 -27.5l-46 -264q-5 -25 -30 -25h-474l-42 -235h522q17 0 26 -11.5t6 -27.5l-46 -264q-5 -25 -29 -25h-876q-17 0 -26.5 11.5t-6.5 27.5l47 262h-193l-115 -272
q-5 -12 -17 -20.5t-26 -8.5h-323q-14 0 -21 10.5t-2 22.5l596 1372q5 11 17 20t26 9zM888 1133h-14l-130 -367l-59 -137h114z" />
    <glyph glyph-name="Ccedilla" unicode="&#xc7;" horiz-adv-x="1142" 
d="M1298 1405q39 -18 31 -61l-44 -245q-3 -17 -17 -24.5t-31 -0.5q-79 34 -129.5 46.5t-117.5 12.5h-8q-139 0 -236 -88.5t-123 -239.5l-31 -176q-26 -151 39 -239.5t204 -88.5h9q68 0 123.5 13t147.5 47q16 6 27 -3t8 -25l-43 -243q-8 -45 -46 -60q-140 -57 -304 -57
l-24 -62q1 0 7.5 0.5t9.5 0.5q65 0 104.5 -53.5t25.5 -137.5q-14 -78 -77.5 -119.5t-163.5 -41.5q-98 0 -173 35q-24 11 -19 40l10 58q3 20 24 13q53 -19 114 -19q69 0 77 43q3 19 -9.5 30t-40.5 11q-25 0 -72 -16q-9 -2 -13 0l-19 9q-9 4 -5 13l81 210q-100 21 -180 73.5
t-135.5 136t-74.5 195.5t3 253l29 172q25 151 96.5 274.5t171 203t218 122.5t243.5 43h31q176 0 302 -55z" />
    <glyph glyph-name="Egrave" unicode="&#xc8;" horiz-adv-x="1093" 
d="M598 1911h232q41 0 54 -39l96 -291q3 -10 -2.5 -17.5t-15.5 -7.5h-181q-33 0 -49 30l-152 296q-5 11 0.5 20t17.5 9zM638 891h460q17 0 26.5 -11.5t6.5 -27.5l-46 -264q-5 -25 -30 -25h-474l-42 -235h522q17 0 26 -11.5t6 -27.5l-46 -264q-5 -25 -29 -25h-876
q-17 0 -26.5 11.5t-6.5 27.5l239 1354q3 19 16.5 30t32.5 11h859q17 0 26 -11.5t6 -27.5l-46 -265q-5 -24 -30 -24h-536z" />
    <glyph glyph-name="Eacute" unicode="&#xc9;" horiz-adv-x="1093" 
d="M963 1911h236q16 0 21.5 -13t-4.5 -25l-254 -293q-20 -24 -53 -24h-185q-14 0 -20 11.5t2 22.5l198 290q22 31 59 31zM397 1434h859q17 0 26 -11.5t6 -27.5l-46 -265q-5 -24 -30 -24h-536l-38 -215h460q17 0 26.5 -11.5t6.5 -27.5l-46 -264q-5 -25 -30 -25h-474l-42 -235
h522q17 0 26 -11.5t6 -27.5l-46 -264q-5 -25 -30 -25h-875q-17 0 -26.5 11.5t-6.5 27.5l239 1354q3 19 16.5 30t32.5 11z" />
    <glyph glyph-name="Ecircumflex" unicode="&#xca;" horiz-adv-x="1093" 
d="M793 1911h162q33 0 49 -30l153 -295q5 -11 -0.5 -20.5t-17.5 -9.5h-213q-28 0 -36 28l-36 116l-86 -121q-16 -23 -43 -23h-214q-16 0 -21.5 13t4.5 25l260 299q15 18 39 18zM638 891h460q17 0 26.5 -11.5t6.5 -27.5l-46 -264q-5 -25 -30 -25h-474l-42 -235h522
q17 0 26 -11.5t6 -27.5l-46 -264q-5 -25 -30 -25h-875q-17 0 -26.5 11.5t-6.5 27.5l239 1354q3 19 16.5 30t32.5 11h859q17 0 26 -11.5t6 -27.5l-46 -265q-5 -24 -30 -24h-536z" />
    <glyph glyph-name="Edieresis" unicode="&#xcb;" horiz-adv-x="1093" 
d="M572 1911h226q17 0 26.5 -11.5t6.5 -27.5l-49 -275q-7 -41 -48 -41h-226q-17 0 -26.5 11.5t-6.5 27.5l48 275q3 19 16.5 30t32.5 11zM971 1911h226q17 0 26.5 -11.5t6.5 -27.5l-48 -275q-3 -19 -16.5 -30t-32.5 -11h-226q-17 0 -26.5 11.5t-6.5 27.5l49 275q7 41 48 41z
M638 891h460q17 0 26.5 -11.5t6.5 -27.5l-46 -264q-5 -25 -30 -25h-474l-42 -235h522q17 0 26 -11.5t6 -27.5l-46 -264q-5 -25 -30 -25h-875q-17 0 -26.5 11.5t-6.5 27.5l239 1354q3 19 16.5 30t32.5 11h859q17 0 26 -11.5t6 -27.5l-46 -265q-5 -24 -30 -24h-536z" />
    <glyph glyph-name="Igrave" unicode="&#xcc;" horiz-adv-x="583" 
d="M302 1911h233q41 0 54 -39l96 -291q3 -10 -2.5 -17.5t-15.5 -7.5h-181q-33 0 -49 30l-152 296q-5 11 0 20t17 9zM397 1434h297q17 0 26.5 -11.5t6.5 -27.5l-241 -1370q-5 -25 -30 -25h-314q-17 0 -26.5 11.5t-6.5 27.5l239 1354q3 19 16.5 30t32.5 11z" />
    <glyph glyph-name="Iacute" unicode="&#xcd;" horiz-adv-x="583" 
d="M707 1911h236q16 0 21.5 -13t-4.5 -25l-254 -293q-20 -24 -53 -24h-185q-14 0 -20 11.5t2 22.5l198 290q22 31 59 31zM397 1434h297q17 0 26.5 -11.5t6.5 -27.5l-241 -1370q-5 -25 -30 -25h-314q-17 0 -26.5 11.5t-6.5 27.5l239 1354q3 19 16.5 30t32.5 11z" />
    <glyph glyph-name="Icircumflex" unicode="&#xce;" horiz-adv-x="583" 
d="M539 1911h162q33 0 49 -30l153 -295q5 -11 -0.5 -20.5t-17.5 -9.5h-213q-28 0 -36 28l-36 116l-86 -121q-16 -23 -43 -23h-214q-16 0 -21.5 13t4.5 25l260 299q15 18 39 18zM397 1434h297q17 0 26.5 -11.5t6.5 -27.5l-241 -1370q-5 -25 -30 -25h-314q-17 0 -26.5 11.5
t-6.5 27.5l239 1354q3 19 16.5 30t32.5 11z" />
    <glyph glyph-name="Idieresis" unicode="&#xcf;" horiz-adv-x="583" 
d="M318 1911h226q17 0 26.5 -11.5t6.5 -27.5l-49 -275q-7 -41 -48 -41h-226q-17 0 -26.5 11.5t-6.5 27.5l48 275q3 19 16.5 30t32.5 11zM717 1911h226q17 0 26.5 -11.5t6.5 -27.5l-48 -275q-3 -19 -16.5 -30t-32.5 -11h-226q-17 0 -26.5 11.5t-6.5 27.5l49 275q7 41 48 41z
M397 1434h297q17 0 26.5 -11.5t6.5 -27.5l-241 -1370q-5 -25 -30 -25h-314q-17 0 -26.5 11.5t-6.5 27.5l239 1354q3 19 16.5 30t32.5 11z" />
    <glyph glyph-name="Eth" unicode="&#xd0;" horiz-adv-x="1318" 
d="M397 1434h481q123 0 223 -39.5t170.5 -119.5t96 -199.5t-0.5 -280.5l-32 -184q-27 -156 -93 -275.5t-158.5 -191.5t-202 -108t-233.5 -36h-506q-17 0 -26.5 11.5t-6.5 27.5l87 489h-22q-17 0 -26.5 11.5t-6.5 27.5l35 197q7 41 48 41h20l104 588q3 19 16.5 30t32.5 11z
M954 623l33 188q27 153 -19.5 224t-182.5 71h-109l-53 -301h159q17 0 26.5 -11.5t6.5 -27.5l-35 -197q-7 -41 -48 -41h-158l-35 -200h109q136 0 207.5 71t98.5 224z" />
    <glyph glyph-name="Ntilde" unicode="&#xd1;" horiz-adv-x="1384" 
d="M1224 1839h96q13 0 18 -10t-1 -21q-86 -160 -145.5 -216t-133.5 -56h-8q-25 0 -45 8t-32.5 19.5t-24 23t-27 19.5t-35.5 8t-34 -8.5t-34 -28.5q-14 -14 -36 -14h-95q-13 0 -18 10t1 21q86 160 145.5 216t133.5 56h8q40 0 68 -19.5t49.5 -39t46.5 -19.5q28 0 68 37
q14 14 35 14zM1185 1434h314q17 0 26.5 -11.5t6.5 -27.5l-242 -1370q-5 -25 -29 -25h-352q-33 0 -45 33l-180 553l-61 266h-34l-10 -266l-98 -561q-5 -25 -29 -25h-314q-17 0 -26.5 11.5t-6.5 27.5l239 1354q3 19 16.5 30t32.5 11h335q33 0 45 -33l180 -553l61 -266h34
l10 266l98 561q5 25 29 25z" />
    <glyph glyph-name="Ograve" unicode="&#xd2;" horiz-adv-x="1386" 
d="M709 1911h232q41 0 54 -39l96 -291q3 -10 -2.5 -17.5t-15.5 -7.5h-181q-33 0 -49 30l-152 296q-5 11 0.5 20t17.5 9zM924 1460h31q91 0 173 -26t149 -77t111 -126t59.5 -173.5t-5.5 -219.5l-47 -270q-26 -146 -93.5 -262t-161 -187.5t-202 -108.5t-223.5 -37h-30
q-91 0 -173 26t-149 77t-111.5 126t-60 173.5t5.5 219.5l48 271q26 146 93.5 262t160.5 187t201.5 108t223.5 37zM900 1133h-14q-100 0 -164 -65t-84 -179l-61 -344q-21 -116 20.5 -180t141.5 -64h15q100 0 163 64t84 180l61 344q20 115 -21 179.5t-141 64.5z" />
    <glyph glyph-name="Oacute" unicode="&#xd3;" horiz-adv-x="1386" 
d="M1119 1911h236q16 0 21.5 -13t-4.5 -25l-255 -293q-19 -24 -52 -24h-186q-14 0 -19.5 11.5t2.5 22.5l198 290q22 31 59 31zM924 1460h31q91 0 173 -26t149 -77t111 -126t59.5 -173.5t-5.5 -219.5l-48 -270q-26 -146 -93.5 -262t-160.5 -187.5t-201.5 -108.5t-223.5 -37
h-30q-91 0 -173 26t-149 77t-111.5 126t-60 173.5t5.5 219.5l48 271q26 146 93.5 262t160.5 187t201.5 108t223.5 37zM900 1133h-14q-100 0 -164 -65t-84 -179l-61 -344q-21 -116 20.5 -180t141.5 -64h15q100 0 163 64t84 180l61 344q20 115 -21 179.5t-141 64.5z" />
    <glyph glyph-name="Ocircumflex" unicode="&#xd4;" horiz-adv-x="1386" 
d="M940 1911h163q33 0 49 -30l152 -295q5 -11 -0.5 -20.5t-17.5 -9.5h-212q-29 0 -37 28l-35 116l-86 -121q-16 -23 -44 -23h-213q-16 0 -22 13t4 25l260 299q15 18 39 18zM924 1460h31q91 0 173 -26t149 -77t111 -126t59.5 -173.5t-5.5 -219.5l-48 -270
q-26 -146 -93.5 -262t-160.5 -187.5t-201.5 -108.5t-223.5 -37h-30q-91 0 -173 26t-149 77t-111.5 126t-60 173.5t5.5 219.5l48 271q26 146 93.5 262t160.5 187t201.5 108t223.5 37zM900 1133h-14q-100 0 -164 -65t-84 -179l-61 -344q-21 -116 20.5 -180t141.5 -64h14
q100 0 163.5 64t84.5 180l61 344q20 115 -21 179.5t-141 64.5z" />
    <glyph glyph-name="Otilde" unicode="&#xd5;" horiz-adv-x="1386" 
d="M1226 1839h96q13 0 18 -10t-1 -21q-86 -160 -145 -216t-133 -56h-9q-25 0 -45 8t-32.5 19.5t-24 23t-27 19.5t-35.5 8t-34 -8.5t-34 -28.5q-14 -14 -36 -14h-95q-13 0 -17.5 10t1.5 21q86 160 145 216t133 56h8q40 0 68 -19.5t49.5 -39t46.5 -19.5q28 0 68 37
q14 14 35 14zM924 1460h31q91 0 173 -26t149 -77t111 -126t59.5 -173.5t-5.5 -219.5l-47 -270q-26 -146 -93.5 -262t-161 -187.5t-202 -108.5t-223.5 -37h-30q-91 0 -173 26t-149 77t-111.5 126t-60 173.5t5.5 219.5l48 271q26 146 93.5 262t160.5 187t201.5 108t223.5 37z
M900 1133h-14q-100 0 -164 -65t-84 -179l-61 -344q-21 -116 20.5 -180t141.5 -64h14q100 0 163.5 64t84.5 180l61 344q20 115 -21 179.5t-141 64.5z" />
    <glyph glyph-name="Odieresis" unicode="&#xd6;" horiz-adv-x="1386" 
d="M719 1911h227q17 0 26 -11.5t6 -27.5l-48 -275q-3 -19 -16.5 -30t-32.5 -11h-226q-17 0 -26.5 11.5t-6.5 27.5l49 275q7 41 48 41zM1119 1911h226q17 0 26.5 -11.5t6.5 -27.5l-49 -275q-3 -19 -16.5 -30t-32.5 -11h-226q-17 0 -26 11.5t-6 27.5l48 275q3 19 16.5 30
t32.5 11zM924 1460h31q91 0 173 -26t149 -77t111 -126t59.5 -173.5t-5.5 -219.5l-47 -270q-26 -146 -93.5 -262t-161 -187.5t-202 -108.5t-223.5 -37h-30q-91 0 -173 26t-149 77t-111.5 126t-60 173.5t5.5 219.5l48 271q26 146 93.5 262t160.5 187t201.5 108t223.5 37z
M900 1133h-14q-100 0 -164 -65t-84 -179l-61 -344q-21 -116 20.5 -180t141.5 -64h14q100 0 163.5 64t84.5 180l61 344q20 115 -21 179.5t-141 64.5z" />
    <glyph glyph-name="multiply" unicode="&#xd7;" horiz-adv-x="927" 
d="M599 806l256 218q23 20 43 -3l129 -148q9 -11 8 -23.5t-12 -21.5l-256 -217l177 -214q19 -24 -3 -44l-176 -153q-11 -9 -23.5 -8t-21.5 12l-175 212l-256 -217q-24 -20 -44 3l-127 147q-9 10 -8 23t11 22l256 217l-178 215q-18 23 4 43l174 154q10 9 23.5 8.5t22.5 -11.5
z" />
    <glyph glyph-name="Oslash" unicode="&#xd8;" horiz-adv-x="1386" 
d="M1289 1434h256q16 0 21.5 -12.5t-4.5 -24.5l-160 -191q77 -156 40 -368l-48 -270q-26 -146 -93.5 -262t-160.5 -187.5t-201.5 -108.5t-223.5 -37h-30q-148 0 -267 67l-13 -15q-22 -25 -53 -25h-258q-16 0 -21.5 12.5t4.5 24.5l161 190q-78 155 -41 368l48 271
q26 146 93.5 262t160.5 187t201.5 108t223.5 37h31q149 0 268 -67l13 16q22 25 53 25zM596 651l392 464q-36 18 -88 18h-14q-100 0 -164 -65t-84 -179zM1043 781l-390 -463q37 -17 86 -17h14q100 0 163.5 64t84.5 180z" />
    <glyph glyph-name="Ugrave" unicode="&#xd9;" horiz-adv-x="1345" 
d="M682 1911h233q41 0 54 -39l96 -291q3 -10 -2.5 -17.5t-15.5 -7.5h-181q-33 0 -49 30l-152 296q-5 11 0 20t17 9zM1152 1434h308q17 0 26.5 -11.5t6.5 -27.5l-153 -868q-26 -146 -88.5 -255.5t-150.5 -173.5t-189 -94.5t-215 -30.5h-31q-90 0 -168 21.5t-143 66.5
t-106 114t-56 163.5t7 215.5l148 839q3 19 16.5 30t32.5 11h308q17 0 26 -11.5t6 -27.5l-153 -871q-20 -109 15 -166t122 -57h14q176 0 216 223l153 869q7 41 48 41z" />
    <glyph glyph-name="Uacute" unicode="&#xda;" horiz-adv-x="1345" 
d="M1100 1911h236q16 0 21.5 -13t-4.5 -25l-254 -293q-19 -24 -53 -24h-186q-14 0 -19.5 11.5t2.5 22.5l198 290q22 31 59 31zM1152 1434h308q17 0 26.5 -11.5t6.5 -27.5l-153 -868q-26 -146 -88.5 -255.5t-150.5 -173.5t-189 -94.5t-215 -30.5h-31q-90 0 -168 21.5
t-143 66.5t-106 114t-56 163.5t7 215.5l148 839q3 19 16.5 30t32.5 11h308q17 0 26 -11.5t6 -27.5l-153 -871q-20 -109 15 -166t122 -57h14q176 0 216 223l153 869q7 41 48 41z" />
    <glyph glyph-name="Ucircumflex" unicode="&#xdb;" horiz-adv-x="1345" 
d="M920 1911h162q33 0 49 -30l153 -295q5 -11 -0.5 -20.5t-17.5 -9.5h-213q-28 0 -36 28l-36 116l-86 -121q-16 -23 -43 -23h-214q-16 0 -21.5 13t4.5 25l260 299q15 18 39 18zM1152 1434h308q17 0 26.5 -11.5t6.5 -27.5l-153 -868q-26 -146 -88.5 -255.5t-150.5 -173.5
t-189 -94.5t-215 -30.5h-31q-90 0 -168 21.5t-143 66.5t-106 114t-56 163.5t7 215.5l148 839q3 19 16.5 30t32.5 11h308q17 0 26 -11.5t6 -27.5l-153 -871q-20 -109 15 -166t122 -57h14q176 0 216 223l153 869q7 41 48 41z" />
    <glyph glyph-name="Udieresis" unicode="&#xdc;" horiz-adv-x="1345" 
d="M699 1911h226q17 0 26.5 -11.5t6.5 -27.5l-49 -275q-7 -41 -48 -41h-226q-17 0 -26.5 11.5t-6.5 27.5l48 275q3 19 16.5 30t32.5 11zM1098 1911h226q17 0 26.5 -11.5t6.5 -27.5l-48 -275q-3 -19 -16.5 -30t-32.5 -11h-226q-17 0 -26.5 11.5t-6.5 27.5l49 275q7 41 48 41z
M1152 1434h308q17 0 26.5 -11.5t6.5 -27.5l-153 -868q-26 -146 -88.5 -255.5t-150.5 -173.5t-189 -94.5t-215 -30.5h-31q-90 0 -168 21.5t-143 66.5t-106 114t-56 163.5t7 215.5l148 839q3 19 16.5 30t32.5 11h308q17 0 26 -11.5t6 -27.5l-153 -871q-20 -109 15 -166
t122 -57h14q176 0 216 223l153 869q7 41 48 41z" />
    <glyph glyph-name="Yacute" unicode="&#xdd;" horiz-adv-x="1296" 
d="M1070 1911h236q16 0 21.5 -13t-4.5 -25l-254 -293q-19 -24 -53 -24h-185q-14 0 -20 11.5t2 22.5l198 290q22 31 59 31zM1153 1434h332q17 0 24 -13t-2 -27l-582 -929l-82 -441q-5 -24 -29 -24h-316q-17 0 -26.5 11.5t-6.5 27.5l78 426l-253 925q-5 17 5 30.5t28 13.5h316
q37 0 47 -36l93 -345l6 -244h8l84 244l222 351q19 30 54 30z" />
    <glyph glyph-name="Thorn" unicode="&#xde;" horiz-adv-x="1261" 
d="M701 1246h173q105 0 190.5 -29t148 -86t87.5 -151.5t4 -215.5l-2 -15q-22 -124 -78.5 -217t-138 -148.5t-177.5 -82.5t-205 -27h-173l-44 -249q-5 -25 -30 -25h-314q-17 0 -26.5 11.5t-6.5 27.5l239 1354q3 19 16.5 30t32.5 11h297q17 0 26.5 -11.5t6.5 -27.5zM911 743
l3 18q14 81 -22 119.5t-126 38.5h-123l-59 -334h119q180 0 208 158z" />
    <glyph glyph-name="germandbls" unicode="&#xdf;" horiz-adv-x="1331" 
d="M709 1536h23q79 0 145 -21t114.5 -62t69 -109t5.5 -156l-1 -5q-9 -54 -32 -103t-45 -79.5t-42.5 -69t-26.5 -72.5v-4q-7 -40 4 -73t34.5 -53t41.5 -30.5t37 -16.5l67 -25q39 -14 68.5 -27.5t58.5 -31t47.5 -36.5t35.5 -44.5t22 -54.5t7.5 -66t-7.5 -80l-2 -14
q-28 -154 -166.5 -242t-323.5 -88h-13q-143 0 -271 39q-21 7 -31.5 25t-6.5 41l33 186q3 17 17 24.5t30 0.5q90 -36 141 -50t100 -14h10q107 0 117 58l1 4q3 13 0.5 22t-14 16.5t-19 10.5t-28.5 10l-69 25q-24 9 -44 17t-42.5 19.5t-40 23.5t-35.5 28t-30.5 33.5t-23 40.5
t-15 48.5t-4.5 57t6 66.5l2 10q12 67 44.5 128t65.5 99.5t64 88.5t39 96l1 6q11 63 -9.5 92.5t-61.5 29.5h-10q-46 0 -80 -32t-47 -103l-193 -1095q-5 -25 -29 -25h-296q-17 0 -26.5 11.5t-6.5 27.5l204 1153q28 159 146.5 251.5t290.5 92.5z" />
    <glyph glyph-name="agrave" unicode="&#xe0;" horiz-adv-x="1087" 
d="M453 1501h232q41 0 54 -39l96 -291q3 -10 -2 -17t-15 -7h-182q-32 0 -48 30l-153 295q-5 11 0.5 20t17.5 9zM585 1051h7q134 0 244 -134l40 81q13 26 41 26h250q17 0 26.5 -11.5t6.5 -27.5l-170 -960q-5 -25 -29 -25h-259q-13 0 -21.5 8.5t-9.5 21.5l-2 58
q-139 -115 -284 -115h-7q-118 0 -193 65.5t-97.5 165.5t-1.5 219l36 205q16 89 49.5 164t84.5 134t125.5 92t163.5 33zM664 764h-10q-108 0 -137 -160l-33 -184q-29 -160 81 -160h10q58 0 133 35l77 434q-62 35 -121 35z" />
    <glyph glyph-name="aacute" unicode="&#xe1;" horiz-adv-x="1087" 
d="M858 1501h236q16 0 21.5 -12.5t-4.5 -24.5l-254 -293q-20 -24 -53 -24h-186q-14 0 -19.5 11t2.5 22l198 290q22 31 59 31zM585 1051h7q134 0 244 -134l40 81q13 26 41 26h250q17 0 26.5 -11.5t6.5 -27.5l-170 -960q-5 -25 -29 -25h-259q-13 0 -21.5 8.5t-9.5 21.5l-2 58
q-139 -115 -284 -115h-7q-118 0 -193 65.5t-97.5 165.5t-1.5 219l36 205q16 89 49.5 164t84.5 134t125.5 92t163.5 33zM664 764h-10q-108 0 -137 -160l-33 -184q-29 -160 81 -160h10q58 0 133 35l77 434q-62 35 -121 35z" />
    <glyph glyph-name="acircumflex" unicode="&#xe2;" horiz-adv-x="1087" 
d="M719 1501h162q33 0 49 -30l152 -295q5 -10 0 -19.5t-17 -9.5h-213q-29 0 -37 27l-35 117l-86 -122q-16 -22 -43 -22h-214q-16 0 -21.5 12.5t4.5 24.5l260 299q15 18 39 18zM585 1051h7q134 0 244 -134l40 81q13 26 41 26h250q17 0 26.5 -11.5t6.5 -27.5l-170 -960
q-5 -25 -29 -25h-259q-13 0 -21.5 8.5t-9.5 21.5l-2 58q-139 -115 -284 -115h-7q-118 0 -193 65.5t-97.5 165.5t-1.5 219l36 205q16 89 49.5 164t84.5 134t125.5 92t163.5 33zM664 764h-10q-108 0 -137 -160l-33 -184q-29 -160 81 -160h10q58 0 133 35l77 434
q-62 35 -121 35z" />
    <glyph glyph-name="atilde" unicode="&#xe3;" horiz-adv-x="1087" 
d="M1033 1430h96q13 0 18 -10.5t-1 -21.5q-86 -160 -145.5 -216t-133.5 -56h-8q-25 0 -45 8t-32.5 19.5t-24 23t-27 19.5t-35.5 8t-34 -8t-34 -28q-15 -15 -36 -15h-95q-13 0 -18 10t1 21q86 160 145.5 216t133.5 56h8q32 0 57 -12t37.5 -27t31 -27t38.5 -12q28 0 68 37
q15 15 35 15zM585 1051h7q134 0 244 -134l40 81q13 26 41 26h250q17 0 26.5 -11.5t6.5 -27.5l-170 -960q-5 -25 -29 -25h-259q-13 0 -21.5 8.5t-9.5 21.5l-2 58q-139 -115 -284 -115h-7q-118 0 -193 65.5t-97.5 165.5t-1.5 219l36 205q16 89 49.5 164t84.5 134t125.5 92
t163.5 33zM664 764h-10q-108 0 -137 -160l-33 -184q-29 -160 81 -160h10q58 0 133 35l77 434q-62 35 -121 35z" />
    <glyph glyph-name="adieresis" unicode="&#xe4;" horiz-adv-x="1087" 
d="M498 1501h226q17 0 26.5 -11.5t6.5 -27.5l-49 -274q-3 -19 -16.5 -30t-32.5 -11h-226q-17 0 -26 11.5t-6 27.5l48 274q3 19 16.5 30t32.5 11zM897 1501h226q17 0 26.5 -11.5t6.5 -27.5l-49 -274q-7 -41 -48 -41h-226q-17 0 -26.5 11.5t-6.5 27.5l48 274q3 19 16.5 30
t32.5 11zM585 1051h7q134 0 244 -134l40 81q13 26 41 26h250q17 0 26.5 -11.5t6.5 -27.5l-170 -960q-5 -25 -29 -25h-259q-13 0 -21.5 8.5t-9.5 21.5l-2 58q-139 -115 -284 -115h-7q-118 0 -193 65.5t-97.5 165.5t-1.5 219l36 205q16 89 49.5 164t84.5 134t125.5 92
t163.5 33zM664 764h-10q-108 0 -137 -160l-33 -184q-29 -160 81 -160h10q58 0 133 35l77 434q-62 35 -121 35z" />
    <glyph glyph-name="aring" unicode="&#xe5;" horiz-adv-x="1087" 
d="M792 1526q95 0 151 -70t39 -166q-13 -77 -77 -130.5t-141 -53.5q-96 0 -152.5 70t-39.5 168q14 76 77.5 129t142.5 53zM787 1368q-22 0 -40 -14.5t-22 -36.5t9 -37.5t35 -15.5t39 15.5t21 37.5t-8 36.5t-34 14.5zM585 1051h7q134 0 244 -134l40 81q13 26 41 26h250
q17 0 26.5 -11.5t6.5 -27.5l-170 -960q-5 -25 -29 -25h-259q-13 0 -21.5 8.5t-9.5 21.5l-2 58q-139 -115 -284 -115h-7q-118 0 -193 65.5t-97.5 165.5t-1.5 219l36 205q16 89 49.5 164t84.5 134t125.5 92t163.5 33zM664 764h-10q-108 0 -137 -160l-33 -184q-29 -160 81 -160
h10q58 0 133 35l77 434q-62 35 -121 35z" />
    <glyph glyph-name="ae" unicode="&#xe6;" horiz-adv-x="1748" 
d="M1321 1051h22q91 0 166.5 -30.5t128.5 -86.5t74 -144.5t2 -196.5l-22 -134q-1 -11 -10 -18t-20 -7h-548l-1 -12q-16 -86 27 -127t127 -41h10q88 0 299 67q15 5 26 -4t8 -24l-37 -205q-8 -43 -45 -55q-175 -60 -346 -60h-22q-155 0 -262 71l-4 -19q-5 -25 -29 -25h-123
q-13 0 -21.5 8.5t-9.5 21.5l-2 58q-139 -115 -284 -115h-7q-118 0 -193 65.5t-97.5 165.5t-1.5 219l36 205q16 89 49.5 164t84.5 134t125.5 92t163.5 33h7q134 0 244 -134l40 81q13 26 41 26h114q29 0 33 -30v-2q120 59 257 59zM1296 791h-6q-106 0 -143 -154h239
q35 154 -90 154zM664 764h-10q-108 0 -137 -160l-33 -184q-29 -160 81 -160h10q58 0 133 35l77 434q-62 35 -121 35z" />
    <glyph glyph-name="ccedilla" unicode="&#xe7;" horiz-adv-x="907" 
d="M991 994q41 -17 33 -63l-35 -201q-3 -17 -18 -24.5t-31 0.5q-133 58 -191 58h-10q-84 0 -143.5 -53.5t-77.5 -157.5l-14 -82q-18 -103 21 -157t125 -54h10q60 0 215 59q16 6 28 -3t9 -25l-36 -204q-8 -40 -45 -54q-155 -60 -264 -60l-24 -62q1 0 7.5 0.5t9.5 0.5
q65 0 104.5 -53.5t25.5 -137.5q-14 -78 -77.5 -119.5t-163.5 -41.5q-98 0 -173 35q-24 11 -19 40l10 58q3 20 24 13q53 -19 114 -19q69 0 77 43q3 19 -9.5 30t-40.5 11q-25 0 -72 -16q-9 -2 -13 0l-19 9q-9 4 -5 13l82 214q-155 42 -228 171t-42 313l17 100
q37 217 188.5 346.5t369.5 129.5h23q114 0 258 -57z" />
    <glyph glyph-name="egrave" unicode="&#xe8;" horiz-adv-x="1042" 
d="M502 1501h232q42 0 55 -39l96 -291q3 -10 -2.5 -17t-15.5 -7h-182q-32 0 -48 30l-153 295q-5 11 0.5 20t17.5 9zM706 1051h23q91 0 166.5 -30.5t128.5 -86.5t74 -144.5t2 -196.5l-23 -134q-1 -11 -9.5 -18t-19.5 -7h-548l-2 -12q-16 -86 27 -127t127 -41h11q88 0 299 67
q15 5 25.5 -4t7.5 -24l-36 -205q-8 -43 -45 -55q-175 -60 -346 -60h-23q-225 0 -337.5 138t-72.5 365l18 99q20 114 73 206t127.5 150t164.5 89t188 31zM682 791h-6q-106 0 -143 -154h239q35 154 -90 154z" />
    <glyph glyph-name="eacute" unicode="&#xe9;" horiz-adv-x="1042" 
d="M854 1501h237q16 0 21.5 -12.5t-4.5 -24.5l-255 -293q-20 -24 -52 -24h-186q-14 0 -19.5 11t2.5 22l198 290q22 31 58 31zM706 1051h23q91 0 166.5 -30.5t128.5 -86.5t74 -144.5t2 -196.5l-23 -134q-1 -11 -9.5 -18t-19.5 -7h-548l-2 -12q-16 -86 27 -127t127 -41h11
q88 0 299 67q15 5 25.5 -4t7.5 -24l-36 -205q-8 -43 -45 -55q-175 -60 -346 -60h-23q-225 0 -337.5 138t-72.5 365l18 99q20 114 73 206t127.5 150t164.5 89t188 31zM682 791h-6q-106 0 -143 -154h239q35 154 -90 154z" />
    <glyph glyph-name="ecircumflex" unicode="&#xea;" horiz-adv-x="1042" 
d="M696 1501h163q32 0 48 -30l153 -295q5 -11 -0.5 -20t-17.5 -9h-213q-28 0 -36 27l-35 117l-87 -122q-16 -22 -43 -22h-214q-16 0 -21.5 12.5t4.5 24.5l260 299q15 18 39 18zM706 1051h23q91 0 166.5 -30.5t128.5 -86.5t74 -144.5t2 -196.5l-23 -134q-1 -11 -9.5 -18
t-19.5 -7h-548l-2 -12q-16 -86 27 -127t127 -41h11q88 0 299 67q15 5 25.5 -4t7.5 -24l-36 -205q-8 -43 -45 -55q-175 -60 -346 -60h-23q-225 0 -337.5 138t-72.5 365l18 99q20 114 73 206t127.5 150t164.5 89t188 31zM682 791h-6q-106 0 -143 -154h239q35 154 -90 154z" />
    <glyph glyph-name="edieresis" unicode="&#xeb;" horiz-adv-x="1042" 
d="M475 1501h226q17 0 26.5 -11.5t6.5 -27.5l-48 -274q-3 -19 -16.5 -30t-32.5 -11h-226q-17 0 -26.5 11.5t-6.5 27.5l48 274q3 19 16.5 30t32.5 11zM875 1501h226q17 0 26 -11.5t6 -27.5l-48 -274q-3 -19 -16.5 -30t-32.5 -11h-226q-17 0 -26.5 11.5t-6.5 27.5l49 274
q3 19 16.5 30t32.5 11zM706 1051h23q91 0 166.5 -30.5t128.5 -86.5t74 -144.5t2 -196.5l-23 -134q-1 -11 -9.5 -18t-19.5 -7h-548l-2 -12q-16 -86 27 -127t127 -41h11q88 0 299 67q15 5 25.5 -4t7.5 -24l-36 -205q-8 -43 -45 -55q-175 -60 -346 -60h-23q-225 0 -337.5 138
t-72.5 365l18 99q20 114 73 206t127.5 150t164.5 89t188 31zM682 791h-6q-106 0 -143 -154h239q35 154 -90 154z" />
    <glyph glyph-name="igrave" unicode="&#xec;" horiz-adv-x="487" 
d="M169 1501h233q41 0 54 -39l96 -291q3 -10 -2.5 -17t-15.5 -7h-181q-33 0 -49 30l-152 295q-5 11 0 20t17 9zM288 1024h279q17 0 26.5 -11.5t6.5 -27.5l-170 -960q-5 -25 -29 -25h-296q-17 0 -26.5 11.5t-6.5 27.5l167 944q3 19 16.5 30t32.5 11z" />
    <glyph glyph-name="iacute" unicode="&#xed;" horiz-adv-x="487" 
d="M594 1501h236q16 0 21.5 -12.5t-4.5 -24.5l-255 -293q-20 -24 -52 -24h-186q-14 0 -19.5 11t2.5 22l198 290q22 31 59 31zM288 1024h279q17 0 26.5 -11.5t6.5 -27.5l-170 -960q-5 -25 -29 -25h-296q-17 0 -26.5 11.5t-6.5 27.5l167 944q3 19 16.5 30t32.5 11z" />
    <glyph glyph-name="icircumflex" unicode="&#xee;" horiz-adv-x="487" 
d="M423 1501h163q32 0 48 -30l153 -295q5 -11 -0.5 -20t-17.5 -9h-212q-29 0 -37 27l-35 117l-87 -122q-16 -22 -43 -22h-214q-16 0 -21.5 12.5t4.5 24.5l260 299q15 18 39 18zM288 1024h279q17 0 26.5 -11.5t6.5 -27.5l-170 -960q-5 -25 -29 -25h-296q-17 0 -26.5 11.5
t-6.5 27.5l167 944q3 19 16.5 30t32.5 11z" />
    <glyph glyph-name="idieresis" unicode="&#xef;" horiz-adv-x="487" 
d="M199 1501h226q17 0 26.5 -11.5t6.5 -27.5l-48 -274q-3 -19 -16.5 -30t-32.5 -11h-226q-17 0 -26.5 11.5t-6.5 27.5l49 274q7 41 48 41zM599 1501h226q17 0 26 -11.5t6 -27.5l-48 -274q-3 -19 -16.5 -30t-32.5 -11h-226q-17 0 -26.5 11.5t-6.5 27.5l49 274q3 19 16.5 30
t32.5 11zM288 1024h279q17 0 26.5 -11.5t6.5 -27.5l-170 -960q-5 -25 -29 -25h-296q-17 0 -26.5 11.5t-6.5 27.5l167 944q3 19 16.5 30t32.5 11z" />
    <glyph glyph-name="eth" unicode="&#xf0;" horiz-adv-x="1093" 
d="M1204 1526l78 -141q14 -27 -10 -41l-62 -38q45 -103 21 -235l-117 -649q-26 -147 -109.5 -250.5t-194.5 -151t-240 -47.5h-23q-94 0 -177 32t-143.5 90.5t-87.5 151t-8 204.5l25 141q33 185 144 303.5t285 118.5h23q71 0 130.5 -24t97.5 -62l26 153q2 8 2 11l-91 -57
q-12 -8 -25 -4.5t-20 16.5l-78 140q-14 27 11 42l52 32q-4 0 -12.5 0.5t-13.5 0.5h-11q-87 0 -257 -56q-22 -8 -38 5.5t-12 36.5l34 193q6 35 41 44q7 2 30 8t30.5 7.5t28.5 6.5t31 7t31 6t35 5.5t36 4t41.5 3.5t43.5 2t50 1h9q134 0 245 -63l105 64q12 8 24.5 5t19.5 -16z
M745 420l48 272q-62 35 -121 35h-10q-55 0 -92 -40.5t-51 -119.5l-26 -147q-14 -78 12.5 -119t86.5 -41h10q114 0 143 160z" />
    <glyph glyph-name="ntilde" unicode="&#xf1;" horiz-adv-x="1079" 
d="M1001 1430h95q13 0 18 -10.5t-1 -21.5q-86 -160 -145 -216t-133 -56h-9q-25 0 -45 8t-32.5 19.5t-24 23t-27 19.5t-35.5 8t-34 -8t-34 -28q-15 -15 -35 -15h-95q-13 0 -18 10t1 21q86 160 145 216t133 56h8q32 0 57 -12t38 -27t31.5 -27t38.5 -12q27 0 67 37q15 15 36 15
zM856 1051h26q137 0 214.5 -91.5t51.5 -241.5l-122 -693q-5 -25 -29 -25h-296q-17 0 -26.5 11.5t-6.5 27.5l108 610q10 61 -9.5 88t-72.5 27h-10q-58 0 -134 -35l-124 -704q-5 -25 -29 -25h-296q-17 0 -26.5 11.5t-6.5 27.5l167 944q3 19 16.5 30t32.5 11h242
q13 0 21.5 -8.5t9.5 -21.5l2 -61q89 67 157 92.5t140 25.5z" />
    <glyph glyph-name="ograve" unicode="&#xf2;" horiz-adv-x="1103" 
d="M503 1501h232q41 0 54 -39l96 -291q3 -10 -2.5 -17t-15.5 -7h-181q-33 0 -49 30l-152 295q-5 11 0.5 20t17.5 9zM715 1051h22q97 0 181 -33.5t143.5 -93t85.5 -151t7 -199.5l-27 -151q-19 -108 -72.5 -195t-129 -142t-166.5 -84t-189 -29h-23q-97 0 -181 33.5t-143 93
t-85 151t-7 199.5l26 151q25 143 110 247t200.5 153.5t247.5 49.5zM692 764h-10q-60 0 -101 -41t-55 -119l-32 -184q-14 -78 12.5 -119t86.5 -41h10q60 0 100.5 41t54.5 119l33 184q14 78 -12.5 119t-86.5 41z" />
    <glyph glyph-name="oacute" unicode="&#xf3;" horiz-adv-x="1103" 
d="M905 1501h237q16 0 21.5 -12.5t-4.5 -24.5l-255 -293q-19 -24 -52 -24h-186q-14 0 -19.5 11t2.5 22l198 290q22 31 58 31zM714 1051h23q97 0 181 -33.5t143.5 -93t85.5 -151t7 -199.5l-27 -151q-19 -108 -72.5 -195t-129 -142t-166.5 -84t-189 -29h-23q-97 0 -181 33.5
t-143.5 93t-85.5 151t-7 199.5l27 151q19 108 72.5 195t129 142t166.5 84t189 29zM692 764h-11q-60 0 -100.5 -41t-54.5 -119l-32 -184q-14 -78 12.5 -119t86.5 -41h10q60 0 100.5 41t54.5 119l33 184q14 78 -12.5 119t-86.5 41z" />
    <glyph glyph-name="ocircumflex" unicode="&#xf4;" horiz-adv-x="1103" 
d="M727 1501h162q33 0 49 -30l153 -295q5 -11 -0.5 -20t-17.5 -9h-213q-29 0 -37 27l-35 117l-86 -122q-16 -22 -43 -22h-214q-16 0 -21.5 12.5t4.5 24.5l260 299q15 18 39 18zM714 1051h23q97 0 181 -33.5t143.5 -93t85.5 -151t7 -199.5l-27 -151q-19 -108 -72.5 -195
t-129 -142t-166.5 -84t-189 -29h-23q-97 0 -181 33.5t-143.5 93t-85.5 151t-7 199.5l27 151q19 108 72.5 195t129 142t166.5 84t189 29zM692 764h-10q-60 0 -101 -41t-55 -119l-32 -184q-14 -78 12.5 -119t86.5 -41h10q60 0 100.5 41t54.5 119l33 184q14 78 -12.5 119
t-86.5 41z" />
    <glyph glyph-name="otilde" unicode="&#xf5;" horiz-adv-x="1103" 
d="M1013 1430h95q13 0 18 -10.5t-1 -21.5q-86 -160 -145 -216t-133 -56h-8q-31 0 -54.5 12t-35.5 27t-31.5 27t-43.5 12q-20 0 -33.5 -8t-33.5 -28q-15 -15 -36 -15h-95q-13 0 -18 10t1 21q86 160 145 216t133 56h8q32 0 57 -12t38 -27t31.5 -27t38.5 -12q27 0 67 37
q15 15 36 15zM714 1051h23q97 0 181 -33.5t143.5 -93t85.5 -151t7 -199.5l-27 -151q-19 -108 -72.5 -195t-129 -142t-166.5 -84t-189 -29h-23q-97 0 -181 33.5t-143.5 93t-85.5 151t-7 199.5l27 151q19 108 72.5 195t129 142t166.5 84t189 29zM692 764h-10q-60 0 -101 -41
t-55 -119l-32 -184q-14 -78 12.5 -119t86.5 -41h10q60 0 100.5 41t54.5 119l33 184q14 78 -12.5 119t-86.5 41z" />
    <glyph glyph-name="odieresis" unicode="&#xf6;" horiz-adv-x="1103" 
d="M506 1501h226q17 0 26.5 -11.5t6.5 -27.5l-49 -274q-7 -41 -48 -41h-226q-17 0 -26.5 11.5t-6.5 27.5l48 274q3 19 16.5 30t32.5 11zM905 1501h226q17 0 26.5 -11.5t6.5 -27.5l-48 -274q-3 -19 -16.5 -30t-32.5 -11h-226q-17 0 -26.5 11.5t-6.5 27.5l49 274q7 41 48 41z
M714 1051h23q97 0 181 -33.5t143.5 -93t85.5 -151t7 -199.5l-27 -151q-19 -108 -72.5 -195t-129 -142t-166.5 -84t-189 -29h-23q-97 0 -181 33.5t-143.5 93t-85.5 151t-7 199.5l27 151q19 108 72.5 195t129 142t166.5 84t189 29zM692 764h-10q-60 0 -101 -41t-55 -119
l-32 -184q-14 -78 12.5 -119t86.5 -41h10q60 0 100.5 41t54.5 119l33 184q14 78 -12.5 119t-86.5 41z" />
    <glyph glyph-name="divide" unicode="&#xf7;" horiz-adv-x="1032" 
d="M598 1251h279q17 0 26.5 -11.5t6.5 -27.5l-51 -290q-5 -25 -29 -25h-296q-17 0 -26.5 11.5t-6.5 27.5l48 274q3 19 16.5 30t32.5 11zM217 764h869q17 0 26.5 -11.5t6.5 -27.5l-35 -197q-7 -41 -48 -41h-869q-17 0 -26.5 11.5t-6.5 27.5l34 197q3 19 16.5 30t32.5 11z
M440 354h279q17 0 26.5 -11.5t6.5 -27.5l-51 -290q-5 -25 -30 -25h-296q-17 0 -26 11.5t-6 27.5l48 274q3 19 16.5 30t32.5 11z" />
    <glyph glyph-name="oslash" unicode="&#xf8;" horiz-adv-x="1103" 
d="M1016 1024h215q17 0 22.5 -13t-5.5 -25l-131 -138q64 -119 37 -274l-27 -151q-19 -108 -72.5 -195t-129 -142t-166.5 -84t-189 -29h-23q-117 0 -215 48q-21 -21 -49 -21h-230q-16 0 -22 13.5t5 25.5l132 136q-64 119 -37 275l26 151q19 108 72.5 195t129 142t166.5 84
t189 29h23q122 0 225 -53l3 4q22 22 51 22zM514 534l217 225q-15 5 -39 5h-11q-60 0 -100.5 -41t-54.5 -119zM769 481l-207 -218q14 -3 31 -3h10q60 0 100.5 41t54.5 119z" />
    <glyph glyph-name="ugrave" unicode="&#xf9;" 
d="M462 1501h232q41 0 54 -39l96 -291q3 -10 -2.5 -17t-15.5 -7h-181q-33 0 -49 30l-152 295q-5 11 0.5 20t17.5 9zM849 1024h295q17 0 26.5 -11.5t6.5 -27.5l-169 -960q-5 -25 -29 -25h-259q-13 0 -21.5 8.5t-9.5 21.5l-2 61q-89 -67 -157 -92.5t-140 -25.5h-27
q-136 0 -207.5 91t-44.5 242l120 677q7 41 48 41h280q17 0 26.5 -11.5t6.5 -27.5l-108 -610q-10 -61 6 -88t62 -27h10q57 0 133 35l124 704q5 25 30 25z" />
    <glyph glyph-name="uacute" unicode="&#xfa;" 
d="M876 1501h237q16 0 21.5 -12.5t-4.5 -24.5l-255 -293q-20 -24 -52 -24h-186q-14 0 -19.5 11t2.5 22l198 290q22 31 58 31zM849 1024h295q17 0 26.5 -11.5t6.5 -27.5l-169 -960q-5 -25 -29 -25h-259q-13 0 -21.5 8.5t-9.5 21.5l-2 61q-89 -67 -157 -92.5t-140 -25.5h-27
q-136 0 -207.5 91t-44.5 242l120 677q7 41 48 41h280q17 0 26 -11.5t6 -27.5l-107 -610q-10 -61 6 -88t62 -27h10q57 0 133 35l124 704q5 25 30 25z" />
    <glyph glyph-name="ucircumflex" unicode="&#xfb;" 
d="M704 1501h162q33 0 49 -30l153 -295q5 -11 -0.5 -20t-17.5 -9h-213q-29 0 -37 27l-35 117l-86 -122q-16 -22 -43 -22h-214q-16 0 -21.5 12.5t4.5 24.5l260 299q15 18 39 18zM849 1024h295q17 0 26.5 -11.5t6.5 -27.5l-169 -960q-5 -25 -29 -25h-259q-13 0 -21.5 8.5
t-9.5 21.5l-2 61q-89 -67 -157 -92.5t-140 -25.5h-27q-136 0 -207.5 91t-44.5 242l120 677q7 41 48 41h280q17 0 26 -11.5t6 -27.5l-107 -610q-10 -61 6 -88t62 -27h10q57 0 133 35l124 704q5 25 30 25z" />
    <glyph glyph-name="udieresis" unicode="&#xfc;" 
d="M484 1501h226q17 0 26 -11.5t6 -27.5l-48 -274q-3 -19 -16.5 -30t-32.5 -11h-226q-17 0 -26.5 11.5t-6.5 27.5l49 274q3 19 16.5 30t32.5 11zM883 1501h226q17 0 26.5 -11.5t6.5 -27.5l-49 -274q-3 -19 -16.5 -30t-32.5 -11h-226q-17 0 -26 11.5t-6 27.5l48 274
q3 19 16.5 30t32.5 11zM849 1024h295q17 0 26.5 -11.5t6.5 -27.5l-169 -960q-5 -25 -29 -25h-259q-13 0 -21.5 8.5t-9.5 21.5l-2 61q-89 -67 -157 -92.5t-140 -25.5h-27q-136 0 -207.5 91t-44.5 242l120 677q7 41 48 41h280q17 0 26 -11.5t6 -27.5l-107 -610q-10 -61 6 -88
t62 -27h10q57 0 133 35l124 704q5 25 30 25z" />
    <glyph glyph-name="yacute" unicode="&#xfd;" horiz-adv-x="1093" 
d="M901 1501h236q16 0 21.5 -12.5t-4.5 -24.5l-254 -293q-19 -24 -53 -24h-185q-14 0 -20 11t2 22l198 290q22 31 59 31zM933 1024h295q15 0 22.5 -11.5t0.5 -24.5l-501 -1030q-36 -73 -74.5 -127.5t-91.5 -102t-123.5 -72.5t-155.5 -25h-16q-101 0 -204 30q-18 5 -27 20.5
t-5 34.5l36 199q3 16 15 23t28 2q90 -28 144 -28h4q71 0 101 61l13 27h-35q-12 0 -19.5 7.5t-9.5 18.5l-131 948q-3 21 9.5 35.5t33.5 14.5h270q20 0 34 -12.5t16 -32.5l36 -305l-2 -375h4l125 375l150 313q18 37 58 37z" />
    <glyph glyph-name="thorn" unicode="&#xfe;" horiz-adv-x="1097" 
d="M373 1509h279q17 0 26.5 -11.5t6.5 -27.5l-96 -496q102 77 242 77h23q72 0 129.5 -24.5t93.5 -67t58.5 -100t24.5 -123t-8 -135.5l-31 -178q-38 -215 -169 -332.5t-304 -117.5h-23q-108 0 -183 67l-72 -358q-5 -24 -29 -24h-296q-17 0 -26.5 11.5t-6.5 27.5l312 1771
q3 19 16.5 30t32.5 11zM698 764h-10q-57 0 -133 -35l-76 -430q67 -39 120 -39h10q55 0 92 40.5t51 119.5l32 184q14 78 -8.5 119t-77.5 41z" />
    <glyph glyph-name="ydieresis" unicode="&#xff;" horiz-adv-x="1093" 
d="M500 1501h226q17 0 26.5 -11.5t6.5 -27.5l-49 -274q-3 -19 -16.5 -30t-32.5 -11h-226q-17 0 -26 11.5t-6 27.5l48 274q3 19 16.5 30t32.5 11zM899 1501h226q17 0 26.5 -11.5t6.5 -27.5l-48 -274q-3 -19 -16.5 -30t-32.5 -11h-226q-17 0 -26.5 11.5t-6.5 27.5l48 274
q3 19 16.5 30t32.5 11zM933 1024h295q15 0 22.5 -11.5t0.5 -24.5l-501 -1030q-36 -73 -74.5 -127.5t-91.5 -102t-123.5 -72.5t-155.5 -25h-16q-101 0 -204 30q-18 5 -27 20.5t-5 34.5l36 199q3 16 15 23t28 2q90 -28 144 -28h4q71 0 101 61l13 27h-35q-26 0 -29 26l-131 948
q-3 21 9.5 35.5t33.5 14.5h270q20 0 34 -12.5t16 -32.5l36 -305l-2 -375h4l125 375l150 313q18 37 58 37z" />
    <glyph glyph-name="Amacron" unicode="&#x100;" horiz-adv-x="1361" 
d="M775 1808h449q17 0 26.5 -11.5t6.5 -27.5l-30 -172q-3 -19 -16.5 -30t-32.5 -11h-449q-17 0 -26.5 11.5t-6.5 27.5l30 172q3 19 16.5 30t32.5 11zM684 1434h496q12 0 20 -8.5t10 -20.5l111 -1370q3 -18 -7.5 -26.5t-23.5 -8.5h-317q-14 0 -22.5 10t-8.5 19l-18 272h-375
l-115 -272q-5 -12 -17 -20.5t-26 -8.5h-323q-14 0 -21 10.5t-2 22.5l596 1372q5 11 17 20t26 9zM874 1133l-130 -367l-59 -137h218l-7 137l-5 367h-17z" />
    <glyph glyph-name="amacron" unicode="&#x101;" horiz-adv-x="1087" 
d="M602 1401h450q17 0 26 -11.5t6 -27.5l-30 -172q-3 -19 -16.5 -30t-32.5 -11h-449q-17 0 -26.5 11.5t-6.5 27.5l31 172q7 41 48 41zM585 1051h7q134 0 244 -134l40 81q13 26 41 26h250q17 0 26.5 -11.5t6.5 -27.5l-170 -960q-5 -25 -29 -25h-259q-13 0 -21.5 8.5
t-9.5 21.5l-2 58q-139 -115 -284 -115h-7q-118 0 -193 65.5t-97.5 165.5t-1.5 219l36 205q16 89 49.5 164t84.5 134t125.5 92t163.5 33zM664 764h-10q-108 0 -137 -160l-33 -184q-29 -160 81 -160h10q58 0 133 35l77 434q-62 35 -121 35z" />
    <glyph glyph-name="Abreve" unicode="&#x102;" horiz-adv-x="1361" 
d="M1279 1845q12 5 21 -2t7 -20l-31 -177q-5 -22 -23 -34q-122 -76 -279 -76q-166 0 -263 68q-26 18 -19 52l31 179q2 9 9 13.5t16 0.5q85 -35 137.5 -49t120.5 -14t126.5 13.5t146.5 45.5zM684 1434h496q12 0 20 -8.5t10 -20.5l111 -1370q3 -18 -7.5 -26.5t-23.5 -8.5h-317
q-14 0 -22.5 10t-8.5 19l-18 272h-375l-115 -272q-5 -12 -17 -20.5t-26 -8.5h-323q-14 0 -21 10.5t-2 22.5l596 1372q5 11 17 20t26 9zM874 1133l-130 -367l-59 -137h218l-7 137l-5 367h-17z" />
    <glyph glyph-name="abreve" unicode="&#x103;" horiz-adv-x="1087" 
d="M1072 1436q12 4 20.5 -3t6.5 -20l-31 -176q-5 -23 -23 -35q-122 -76 -279 -76q-165 0 -263 69q-26 18 -19 51l32 180q2 9 9 13t16 0q85 -35 137.5 -49t120.5 -14t126 14t147 46zM585 1051h7q134 0 244 -134l40 81q13 26 41 26h250q17 0 26.5 -11.5t6.5 -27.5l-170 -960
q-5 -25 -29 -25h-259q-13 0 -21.5 8.5t-9.5 21.5l-2 58q-139 -115 -284 -115h-7q-118 0 -193 65.5t-97.5 165.5t-1.5 219l36 205q16 89 49.5 164t84.5 134t125.5 92t163.5 33zM664 764h-10q-108 0 -137 -160l-33 -184q-29 -160 81 -160h10q58 0 133 35l77 434
q-62 35 -121 35z" />
    <glyph glyph-name="Aogonek" unicode="&#x104;" horiz-adv-x="1361" 
d="M1210 1405l111 -1370q3 -18 -7.5 -26.5t-23.5 -8.5q-12 -11 -43.5 -38t-51.5 -45.5t-40 -47.5t-24 -55q-6 -33 10 -53.5t51 -20.5q15 0 26 2t17.5 -5t5.5 -17l-18 -98q-5 -28 -27 -38q-49 -24 -115 -24q-95 0 -145.5 58t-30.5 149q30 137 190 233h-122q-14 0 -22.5 10
t-8.5 19l-18 272h-375l-115 -272q-5 -12 -17 -20.5t-26 -8.5h-323q-14 0 -21 10.5t-2 22.5l596 1372q5 11 17 20t26 9h496q12 0 20 -8.5t10 -20.5zM903 629l-7 137l-5 367h-17l-130 -367l-59 -137h218z" />
    <glyph glyph-name="aogonek" unicode="&#x105;" horiz-adv-x="1087" 
d="M917 1024h250q17 0 26.5 -11.5t6.5 -27.5l-170 -960q-5 -25 -29 -25q-12 -11 -43.5 -38t-51.5 -45.5t-40 -47.5t-24 -55q-6 -33 10 -53.5t51 -20.5q15 0 26 2t17.5 -5t5.5 -17l-18 -98q-5 -28 -27 -38q-49 -24 -114 -24q-95 0 -146 58t-31 149q29 136 191 233h-65
q-13 0 -21.5 8.5t-9.5 21.5l-2 58q-139 -115 -284 -115h-7q-118 0 -193 65.5t-97.5 165.5t-1.5 219l36 205q16 89 49.5 164t84.5 134t125.5 92t163.5 33h7q134 0 244 -134l40 81q13 26 41 26zM708 295l77 434q-62 35 -121 35h-10q-108 0 -137 -160l-33 -184
q-29 -160 81 -160h10q58 0 133 35z" />
    <glyph glyph-name="Cacute" unicode="&#x106;" horiz-adv-x="1142" 
d="M1117 1911h237q16 0 21.5 -13t-4.5 -25l-255 -293q-20 -24 -52 -24h-186q-14 0 -19.5 11.5t2.5 22.5l198 290q22 31 58 31zM965 1460h31q176 0 302 -55q38 -18 30 -61l-43 -245q-3 -17 -17 -24.5t-31 -0.5q-79 34 -129.5 46.5t-117.5 12.5h-8q-139 0 -236 -88.5
t-123 -239.5l-31 -176q-26 -151 39 -239.5t204 -88.5h9q68 0 123.5 13t147.5 47q16 6 27 -3t8 -25l-43 -243q-8 -45 -46 -60q-140 -57 -305 -57h-30q-124 0 -229.5 45t-180 127.5t-105.5 212t-4 287.5l29 172q25 151 96.5 274.5t171 203t218 122.5t243.5 43z" />
    <glyph glyph-name="cacute" unicode="&#x107;" horiz-adv-x="907" 
d="M816 1501h237q16 0 21.5 -12.5t-4.5 -24.5l-255 -293q-19 -24 -52 -24h-186q-14 0 -19.5 11t2.5 22l198 290q22 31 58 31zM710 1051h23q114 0 258 -57q41 -17 33 -63l-35 -201q-3 -17 -18 -24.5t-31 0.5q-133 58 -191 58h-10q-84 0 -143.5 -53.5t-77.5 -157.5l-14 -82
q-18 -103 21 -157t125 -54h10q60 0 215 59q16 6 28 -2.5t9 -24.5l-36 -205q-8 -40 -45 -54q-157 -60 -265 -60h-23q-219 0 -332 139.5t-76 362.5l17 100q37 217 188.5 346.5t369.5 129.5z" />
    <glyph glyph-name="Cdotaccent" unicode="&#x10a;" horiz-adv-x="1142" 
d="M931 1911h279q17 0 26.5 -11.5t6.5 -27.5l-49 -275q-3 -19 -16.5 -30t-32.5 -11h-279q-17 0 -26.5 11.5t-6.5 27.5l49 275q3 19 16.5 30t32.5 11zM965 1460h31q176 0 302 -55q39 -18 31 -61l-44 -245q-3 -17 -17 -24.5t-31 -0.5q-79 34 -129.5 46.5t-117.5 12.5h-8
q-139 0 -236 -88.5t-123 -239.5l-31 -176q-26 -151 39 -239.5t204 -88.5h9q68 0 123.5 13t147.5 47q16 6 27 -3t8 -25l-43 -243q-8 -45 -46 -60q-140 -57 -305 -57h-30q-124 0 -229.5 45t-180 127.5t-105.5 212t-4 287.5l29 172q25 151 96.5 274.5t171 203t218 122.5
t243.5 43z" />
    <glyph glyph-name="cdotaccent" unicode="&#x10b;" horiz-adv-x="907" 
d="M644 1501h280q17 0 26 -11.5t6 -27.5l-48 -274q-3 -19 -16.5 -30t-32.5 -11h-279q-17 0 -26.5 11.5t-6.5 27.5l49 274q7 41 48 41zM710 1051h23q114 0 258 -57q41 -17 33 -63l-35 -201q-3 -17 -18 -24.5t-31 0.5q-133 58 -191 58h-10q-84 0 -143.5 -53.5t-77.5 -157.5
l-14 -82q-18 -103 21 -157t125 -54h10q60 0 215 59q16 6 28 -3t9 -25l-36 -204q-8 -40 -45 -54q-157 -60 -265 -60h-23q-219 0 -332 139.5t-76 362.5l17 100q37 217 188.5 346.5t369.5 129.5z" />
    <glyph glyph-name="Ccaron" unicode="&#x10c;" horiz-adv-x="1142" 
d="M1181 1911h204q16 0 22 -13t-4 -25l-260 -299q-15 -18 -39 -18h-174q-23 0 -32 20l-158 306q-5 11 0.5 20t17.5 9h212q29 0 37 -27l35 -117l81 114q22 30 58 30zM965 1460h31q176 0 302 -55q39 -18 31 -61l-44 -245q-3 -17 -17 -24.5t-31 -0.5q-79 34 -129.5 46.5
t-117.5 12.5h-8q-139 0 -236 -88.5t-123 -239.5l-31 -176q-26 -151 39 -239.5t204 -88.5h9q68 0 123.5 13t147.5 47q16 6 27 -3t8 -25l-43 -243q-8 -45 -46 -60q-140 -57 -305 -57h-30q-124 0 -229.5 45t-180 127.5t-105.5 212t-4 287.5l29 172q25 151 96.5 274.5t171 203
t218 122.5t243.5 43z" />
    <glyph glyph-name="ccaron" unicode="&#x10d;" horiz-adv-x="907" 
d="M867 1501h204q16 0 21.5 -12.5t-4.5 -24.5l-259 -299q-15 -18 -40 -18h-173q-24 0 -33 20l-157 305q-5 11 0.5 20t17.5 9h212q29 0 37 -27l35 -117l81 114q22 30 58 30zM710 1051h23q116 0 258 -56q41 -17 33 -64l-35 -201q-3 -17 -18 -24.5t-31 0.5q-133 58 -191 58h-10
q-84 0 -143.5 -53.5t-77.5 -157.5l-14 -82q-18 -103 21 -157t125 -54h10q60 0 215 59q16 6 28 -2.5t9 -24.5l-36 -205q-8 -40 -45 -54q-157 -60 -265 -60h-23q-219 0 -332 139.5t-76 362.5l17 101q37 217 188.5 346t369.5 129z" />
    <glyph glyph-name="Dcaron" unicode="&#x10e;" horiz-adv-x="1318" 
d="M953 1911h205q16 0 21.5 -13t-4.5 -25l-260 -299q-15 -18 -39 -18h-174q-23 0 -32 20l-158 306q-5 11 0.5 20t17.5 9h213q28 0 36 -27l35 -117l81 114q22 30 58 30zM397 1434h481q123 0 223 -39.5t170.5 -119.5t96 -199.5t-0.5 -280.5l-33 -184q-27 -156 -93 -275.5
t-158 -191.5t-201.5 -108t-233.5 -36h-506q-17 0 -26.5 11.5t-6.5 27.5l239 1354q3 19 16.5 30t32.5 11zM954 623l33 188q27 153 -19.5 224t-182.5 71h-109l-137 -778h109q136 0 207.5 71t98.5 224z" />
    <glyph glyph-name="dcaron" unicode="&#x10f;" horiz-adv-x="1507" 
d="M1428 1509h287q16 0 25 -11t7 -27l-32 -199q-5 -27 -19 -44l-178 -227q-15 -20 -42 -20h-162q-15 0 -21 12t4 24l165 209h-86q-17 0 -26 11.5t-6 27.5l36 203q7 41 48 41zM979 1509h280q17 0 26 -11.5t6 -27.5l-254 -1445q-5 -25 -30 -25h-259q-13 0 -21.5 8.5t-9.5 21.5
l-1 42q-111 -99 -269 -99h-22q-91 0 -158 38t-100.5 100.5t-46 143.5t5.5 168l31 178q38 216 168.5 333t305.5 117h22q108 0 183 -67l94 485q4 18 17 29t32 11zM679 764h-10q-114 0 -143 -160l-32 -184q-29 -160 86 -160h11q57 0 133 35l76 430q-67 39 -121 39z" />
    <glyph glyph-name="Dcroat" unicode="&#x110;" horiz-adv-x="1318" 
d="M397 1434h481q123 0 223 -39.5t170.5 -119.5t96 -199.5t-0.5 -280.5l-33 -184q-27 -156 -93 -275.5t-158 -191.5t-201.5 -108t-233.5 -36h-506q-17 0 -26.5 11.5t-6.5 27.5l87 489h-22q-17 0 -26.5 11.5t-6.5 27.5l35 197q7 41 48 41h20l104 588q3 19 16.5 30t32.5 11z
M954 623l33 188q27 153 -19.5 224t-182.5 71h-109l-53 -301h159q17 0 26.5 -11.5t6.5 -27.5l-35 -197q-7 -41 -48 -41h-158l-35 -200h109q136 0 207.5 71t98.5 224z" />
    <glyph glyph-name="dcroat" unicode="&#x111;" horiz-adv-x="1093" 
d="M1277 1386h51q17 0 26.5 -11.5t6.5 -27.5l-30 -172q-3 -19 -16.5 -30t-32.5 -11h-50l-196 -1109q-5 -25 -29 -25h-259q-13 0 -21.5 8.5t-9.5 21.5l-1 42q-111 -99 -269 -99h-22q-91 0 -158 38t-100.5 100.5t-46 143.5t5.5 168l31 178q38 216 168 333t305 117h23
q108 0 183 -67l29 150h-54q-17 0 -26.5 11.5t-6.5 27.5l31 172q7 41 48 41h57l16 83q4 18 17 29t32 11h280q17 0 26 -11.5t6 -27.5zM724 295l76 430q-67 39 -121 39h-10q-114 0 -143 -160l-32 -184q-29 -160 86 -160h11q57 0 133 35z" />
    <glyph glyph-name="Emacron" unicode="&#x112;" horiz-adv-x="1093" 
d="M642 1808h449q17 0 26.5 -11.5t6.5 -27.5l-30 -172q-3 -19 -16.5 -30t-32.5 -11h-449q-17 0 -26.5 11.5t-6.5 27.5l30 172q3 19 16.5 30t32.5 11zM638 891h460q17 0 26.5 -11.5t6.5 -27.5l-46 -264q-5 -25 -30 -25h-474l-42 -235h522q17 0 26 -11.5t6 -27.5l-46 -264
q-5 -25 -30 -25h-875q-17 0 -26.5 11.5t-6.5 27.5l239 1354q3 19 16.5 30t32.5 11h859q17 0 26 -11.5t6 -27.5l-46 -265q-5 -24 -30 -24h-536z" />
    <glyph glyph-name="emacron" unicode="&#x113;" horiz-adv-x="1042" 
d="M546 1401h449q17 0 26.5 -11.5t6.5 -27.5l-31 -172q-3 -19 -16.5 -30t-32.5 -11h-449q-17 0 -26.5 11.5t-6.5 27.5l31 172q3 19 16.5 30t32.5 11zM706 1051h23q91 0 166.5 -30.5t128.5 -86.5t74 -144.5t2 -196.5l-23 -134q-1 -11 -9.5 -18t-19.5 -7h-548l-2 -12
q-16 -86 27 -127t127 -41h11q88 0 299 67q15 5 25.5 -4t7.5 -24l-36 -205q-8 -43 -45 -55q-175 -60 -346 -60h-23q-225 0 -337.5 138t-72.5 365l18 99q20 114 73 206t127.5 150t164.5 89t188 31zM682 791h-6q-106 0 -143 -154h239q35 154 -90 154z" />
    <glyph glyph-name="Edotaccent" unicode="&#x116;" horiz-adv-x="1093" 
d="M745 1911h279q17 0 26.5 -11.5t6.5 -27.5l-48 -275q-3 -19 -16.5 -30t-32.5 -11h-279q-17 0 -26.5 11.5t-6.5 27.5l48 275q3 19 16.5 30t32.5 11zM638 891h460q17 0 26.5 -11.5t6.5 -27.5l-46 -264q-5 -25 -30 -25h-474l-42 -235h522q17 0 26 -11.5t6 -27.5l-46 -264
q-5 -25 -30 -25h-875q-17 0 -26.5 11.5t-6.5 27.5l239 1354q3 19 16.5 30t32.5 11h859q17 0 26 -11.5t6 -27.5l-46 -265q-5 -24 -30 -24h-536z" />
    <glyph glyph-name="edotaccent" unicode="&#x117;" horiz-adv-x="1042" 
d="M648 1501h280q17 0 26 -11.5t6 -27.5l-48 -274q-3 -19 -16.5 -30t-32.5 -11h-279q-17 0 -26.5 11.5t-6.5 27.5l48 274q3 19 16.5 30t32.5 11zM706 1051h23q91 0 166.5 -30.5t128.5 -86.5t74 -144.5t2 -196.5l-23 -134q-1 -11 -9.5 -18t-19.5 -7h-548l-2 -12
q-16 -86 27 -127t127 -41h11q88 0 299 67q15 5 25.5 -4t7.5 -24l-36 -205q-8 -43 -45 -55q-175 -60 -346 -60h-23q-225 0 -337.5 138t-72.5 365l18 99q20 114 73 206t127.5 150t164.5 89t188 31zM682 791h-6q-106 0 -143 -154h239q35 154 -90 154z" />
    <glyph glyph-name="Eogonek" unicode="&#x118;" horiz-adv-x="1093" 
d="M397 1434h859q17 0 26 -11.5t6 -27.5l-46 -265q-5 -24 -30 -24h-536l-38 -215h460q17 0 26.5 -11.5t6.5 -27.5l-46 -264q-5 -25 -30 -25h-474l-42 -235h522q17 0 26 -11.5t6 -27.5l-46 -264q-5 -25 -29 -25q-12 -11 -43.5 -38t-52 -45.5t-40.5 -47.5t-24 -55
q-6 -33 10.5 -53.5t51.5 -20.5q14 0 25 2t17.5 -5t5.5 -17l-17 -98q-5 -28 -27 -38q-49 -24 -115 -24q-95 0 -145.5 58t-30.5 149q30 137 190 233h-681q-17 0 -26.5 11.5t-6.5 27.5l239 1354q3 19 16.5 30t32.5 11z" />
    <glyph glyph-name="eogonek" unicode="&#x119;" horiz-adv-x="1042" 
d="M706 1051h23q91 0 166.5 -30.5t128.5 -86.5t74 -144.5t2 -196.5l-23 -134q-1 -11 -9.5 -18t-19.5 -7h-548l-2 -12q-16 -86 27 -127t127 -41h11q88 0 299 67q15 5 25.5 -4t7.5 -24l-36 -205q-8 -43 -45 -55q-60 -20 -137 -36q-11 -10 -43.5 -37.5t-51 -45.5t-38 -46
t-23.5 -54q-6 -33 10.5 -53.5t51.5 -20.5q14 0 25 2t17.5 -5t5.5 -17l-17 -98q-5 -28 -27 -38q-49 -24 -115 -24q-95 0 -145.5 58t-30.5 149q25 117 149 206q-225 0 -337.5 138t-72.5 365l18 99q20 114 73 206t127.5 150t164.5 89t188 31zM533 637h239q35 154 -90 154h-6
q-106 0 -143 -154z" />
    <glyph glyph-name="Ecaron" unicode="&#x11a;" horiz-adv-x="1093" 
d="M999 1911h204q16 0 21.5 -13t-4.5 -25l-259 -299q-15 -18 -40 -18h-173q-24 0 -33 20l-157 306q-5 11 0.5 20t17.5 9h212q29 0 37 -27l35 -117l81 114q22 30 58 30zM638 891h460q17 0 26.5 -11.5t6.5 -27.5l-46 -264q-5 -25 -30 -25h-474l-42 -235h522q17 0 26 -11.5
t6 -27.5l-46 -264q-5 -25 -30 -25h-875q-17 0 -26.5 11.5t-6.5 27.5l239 1354q3 19 16.5 30t32.5 11h859q17 0 26 -11.5t6 -27.5l-46 -265q-5 -24 -30 -24h-536z" />
    <glyph glyph-name="ecaron" unicode="&#x11b;" horiz-adv-x="1042" 
d="M902 1501h205q16 0 21.5 -12.5t-4.5 -24.5l-260 -299q-15 -18 -39 -18h-174q-23 0 -32 20l-158 305q-5 11 0.5 20t17.5 9h212q29 0 37 -27l35 -117l81 114q22 30 58 30zM706 1051h23q91 0 166.5 -30.5t128.5 -86.5t74 -144.5t2 -196.5l-23 -134q-1 -11 -9.5 -18t-19.5 -7
h-548l-2 -12q-16 -86 27 -127t127 -41h11q88 0 299 67q15 5 25.5 -4t7.5 -24l-36 -205q-8 -43 -45 -55q-175 -60 -346 -60h-23q-225 0 -337.5 138t-72.5 365l18 99q20 114 73 206t127.5 150t164.5 89t188 31zM682 791h-6q-106 0 -143 -154h239q35 154 -90 154z" />
    <glyph glyph-name="Gbreve" unicode="&#x11e;" horiz-adv-x="1284" 
d="M1328 1845q12 5 20.5 -2t6.5 -20l-31 -177q-5 -23 -22 -34q-122 -76 -280 -76q-166 0 -263 68q-26 18 -19 52l32 179q2 9 9 13.5t16 0.5q85 -35 137.5 -49t120.5 -14t126.5 13.5t146.5 45.5zM987 1460h31q177 0 303 -58q37 -18 30 -60l-43 -244q-3 -17 -17.5 -24.5
t-30.5 -0.5q-97 39 -138.5 49.5t-108.5 10.5h-9q-148 0 -251 -88.5t-130 -239.5l-31 -176q-58 -328 213 -328h8q33 0 56 6l70 395q3 19 16.5 30t32.5 11h298q17 0 26.5 -11t6.5 -27l-98 -558q-7 -43 -45 -67q-66 -44 -181.5 -75.5t-230.5 -31.5h-33q-128 0 -236.5 47
t-182.5 132t-104 212.5t-3 278.5l31 174q22 123 74 228t125 180.5t163 129t188.5 79.5t200.5 26z" />
    <glyph glyph-name="gbreve" unicode="&#x11f;" horiz-adv-x="1085" 
d="M1070 1436q12 4 20.5 -3t6.5 -20l-31 -176q-5 -23 -23 -35q-122 -76 -279 -76q-165 0 -263 69q-26 18 -19 51l32 180q2 9 9 13t16 0q85 -35 137.5 -49t120.5 -14t126 14t147 46zM682 1051h22q125 0 240.5 -35.5t201.5 -88.5q31 -19 24 -56l-134 -801
q-32 -194 -187 -316.5t-370 -122.5h-8q-175 0 -356 48q-20 5 -30.5 21.5t-6.5 36.5l36 205q3 17 16 24.5t29 1.5q87 -33 141.5 -47.5t112.5 -14.5h10q117 0 173.5 41.5t75.5 138.5l8 43q-69 -45 -119 -65.5t-110 -20.5h-22q-89 0 -154.5 37t-98 99.5t-44 144t6.5 170.5
l19 108q37 220 176 334.5t348 114.5zM666 770h-11q-56 0 -87.5 -38t-45.5 -118l-22 -127q-15 -84 5 -120.5t73 -36.5h10q58 0 133 35l65 366q-67 39 -120 39z" />
    <glyph glyph-name="Gdotaccent" unicode="&#x120;" horiz-adv-x="1284" 
d="M907 1911h279q17 0 26.5 -11.5t6.5 -27.5l-49 -275q-7 -41 -48 -41h-280q-17 0 -26 11.5t-6 27.5l48 275q3 19 16.5 30t32.5 11zM987 1460h31q177 0 303 -58q37 -18 30 -60l-43 -244q-3 -17 -17.5 -24.5t-30.5 -0.5q-97 39 -138.5 49.5t-108.5 10.5h-9q-148 0 -251 -88.5
t-130 -239.5l-31 -176q-58 -328 213 -328h8q33 0 56 6l70 395q3 19 16.5 30t32.5 11h298q17 0 26.5 -11t6.5 -27l-98 -558q-7 -43 -45 -67q-66 -44 -181.5 -75.5t-230.5 -31.5h-33q-128 0 -236.5 47t-182.5 132t-104 212.5t-3 278.5l31 174q22 123 74 228t125 180.5t163 129
t188.5 79.5t200.5 26z" />
    <glyph glyph-name="gdotaccent" unicode="&#x121;" horiz-adv-x="1085" 
d="M667 1501h279q17 0 26.5 -11.5t6.5 -27.5l-49 -274q-7 -41 -48 -41h-280q-17 0 -26.5 11.5t-6.5 27.5l49 274q3 19 16.5 30t32.5 11zM682 1051h22q125 0 240.5 -35.5t201.5 -88.5q31 -19 24 -56l-134 -801q-32 -194 -187 -316.5t-370 -122.5h-8q-175 0 -356 48
q-20 5 -30.5 21.5t-6.5 36.5l36 205q3 17 16 24.5t29 1.5q87 -33 141.5 -47.5t112.5 -14.5h10q117 0 173.5 41.5t75.5 138.5l8 43q-69 -45 -119 -65.5t-110 -20.5h-22q-89 0 -154.5 37t-98 99.5t-44 144t6.5 170.5l19 108q37 220 176 334.5t348 114.5zM666 770h-11
q-56 0 -87.5 -38t-45.5 -118l-22 -127q-15 -84 5 -120.5t73 -36.5h10q58 0 133 35l65 366q-67 39 -120 39z" />
    <glyph glyph-name="Gcommaaccent" unicode="&#x122;" horiz-adv-x="1284" 
d="M987 1460h31q177 0 303 -58q37 -18 30 -60l-43 -244q-3 -17 -17.5 -24.5t-30.5 -0.5q-97 39 -138.5 49.5t-108.5 10.5h-9q-148 0 -251 -88.5t-130 -239.5l-31 -176q-58 -328 213 -328h8q33 0 56 6l70 395q3 19 16.5 30t32.5 11h298q17 0 26.5 -11t6.5 -27l-98 -558
q-7 -43 -45 -67q-66 -44 -181.5 -75.5t-230.5 -31.5h-33q-128 0 -236.5 47t-182.5 132t-104 212.5t-3 278.5l31 174q22 123 74 228t125 180.5t163 129t188.5 79.5t200.5 26zM553 -102h286q16 0 25.5 -11t7.5 -27l-32 -199q-5 -27 -20 -45l-178 -226q-15 -20 -41 -20h-162
q-15 0 -21 11.5t4 23.5l164 209h-85q-17 0 -26.5 11.5t-6.5 27.5l36 204q3 19 16.5 30t32.5 11z" />
    <glyph glyph-name="gcommaaccent" unicode="&#x123;" horiz-adv-x="1085" 
d="M889 1147h-286q-16 0 -25.5 11t-7.5 27l32 199q5 27 19 44l179 227q15 20 41 20h162q15 0 21 -12t-4 -24l-164 -209h85q17 0 26 -11.5t6 -27.5l-35 -203q-3 -19 -16.5 -30t-32.5 -11zM682 1051h22q125 0 240.5 -35.5t201.5 -88.5q31 -19 24 -56l-134 -801
q-32 -194 -187 -316.5t-370 -122.5h-8q-176 0 -357 48q-20 5 -30 21.5t-6 36.5l36 205q3 17 16 24.5t29 1.5q87 -33 141.5 -47.5t112.5 -14.5h10q117 0 173.5 41.5t75.5 138.5l8 43q-69 -45 -119 -65.5t-110 -20.5h-22q-89 0 -154.5 37t-98 99.5t-44 144t6.5 170.5l19 108
q37 220 176 334.5t348 114.5zM666 770h-11q-56 0 -87.5 -38t-45.5 -118l-22 -127q-15 -84 5 -120.5t73 -36.5h10q58 0 133 35l65 366q-67 39 -120 39z" />
    <glyph glyph-name="Hbar" unicode="&#x126;" horiz-adv-x="1505" 
d="M1562 1259h85q17 0 26.5 -11.5t6.5 -27.5l-35 -196q-3 -19 -16.5 -30t-32.5 -11h-83l-169 -958q-5 -25 -29 -25h-314q-17 0 -26.5 11.5t-6.5 27.5l93 524h-418l-95 -538q-5 -25 -30 -25h-314q-17 0 -26.5 11.5t-6.5 27.5l167 944h-84q-17 0 -26.5 11.5t-6.5 27.5l35 196
q3 19 16.5 30t32.5 11h82l23 134q3 19 16.5 30t32.5 11h298q17 0 26 -11.5t6 -27.5l-24 -136h418l24 134q3 19 16.5 30t32.5 11h297q17 0 26.5 -11.5t6.5 -27.5zM1135 983h-418l-17 -92h418z" />
    <glyph glyph-name="hbar" unicode="&#x127;" horiz-adv-x="1095" 
d="M868 1051h27q138 0 217 -91.5t53 -241.5l-122 -693q-5 -25 -30 -25h-295q-17 0 -26.5 11.5t-6.5 27.5l107 610q10 60 -11 87.5t-75 27.5h-10q-62 0 -142 -39l-124 -700q-5 -25 -29 -25h-296q-17 0 -26.5 11.5t-6.5 27.5l194 1095h-52q-17 0 -26.5 11.5t-6.5 27.5l30 172
q3 19 16.5 30t32.5 11h50l14 82q3 19 16.5 30t32.5 11h279q17 0 26.5 -11.5t6.5 -27.5l-16 -84h62q17 0 26.5 -11.5t6.5 -27.5l-31 -172q-3 -19 -16.5 -30t-32.5 -11h-64l-37 -192q84 62 149.5 85.5t135.5 23.5z" />
    <glyph glyph-name="Imacron" unicode="&#x12a;" horiz-adv-x="583" 
d="M388 1808h449q17 0 26.5 -11.5t6.5 -27.5l-30 -172q-3 -19 -16.5 -30t-32.5 -11h-449q-17 0 -26.5 11.5t-6.5 27.5l30 172q3 19 16.5 30t32.5 11zM397 1434h297q17 0 26.5 -11.5t6.5 -27.5l-241 -1370q-5 -25 -30 -25h-314q-17 0 -26.5 11.5t-6.5 27.5l239 1354
q3 19 16.5 30t32.5 11z" />
    <glyph glyph-name="imacron" unicode="&#x12b;" horiz-adv-x="487" 
d="M270 1399h449q17 0 26 -11.5t6 -27.5l-30 -172q-3 -19 -16.5 -30t-32.5 -11h-449q-17 0 -26.5 11.5t-6.5 27.5l31 172q3 19 16.5 30t32.5 11zM288 1024h279q17 0 26.5 -11.5t6.5 -27.5l-170 -960q-5 -25 -29 -25h-296q-17 0 -26.5 11.5t-6.5 27.5l167 944q3 19 16.5 30
t32.5 11z" />
    <glyph glyph-name="Iogonek" unicode="&#x12e;" horiz-adv-x="583" 
d="M397 1434h297q17 0 26.5 -11.5t6.5 -27.5l-241 -1370q-5 -25 -30 -25q-12 -11 -43.5 -38t-51.5 -45.5t-40 -47.5t-24 -55q-6 -33 10 -53.5t51 -20.5q15 0 26 2t17.5 -5t5.5 -17l-17 -98q-5 -27 -28 -38q-49 -24 -114 -24q-95 0 -145.5 58t-30.5 149q30 137 190 233h-120
q-17 0 -26.5 11.5t-6.5 27.5l239 1354q3 19 16.5 30t32.5 11z" />
    <glyph glyph-name="iogonek" unicode="&#x12f;" horiz-adv-x="487" 
d="M373 1501h279q17 0 26.5 -11.5t6.5 -27.5l-48 -274q-3 -19 -16.5 -30t-32.5 -11h-279q-17 0 -26.5 11.5t-6.5 27.5l48 274q3 19 16.5 30t32.5 11zM288 1024h279q17 0 26.5 -11.5t6.5 -27.5l-170 -960q-5 -25 -29 -25h-112l112 -10q-10 -9 -45 -39t-55 -49.5t-42 -52
t-28 -63.5q-9 -46 44 -46q11 0 23.5 4t20.5 9t8 8q2 -4 7 -13t8.5 -17t3.5 -11l-20 -110q-5 -26 -20 -46q-5 0 -45.5 -2t-59.5 -2q-92 0 -147 54t-38 153q22 122 166 233h-77q-17 0 -26.5 11.5t-6.5 27.5l167 944q3 19 16.5 30t32.5 11z" />
    <glyph glyph-name="Idotaccent" unicode="&#x130;" horiz-adv-x="583" 
d="M491 1911h279q17 0 26.5 -11.5t6.5 -27.5l-48 -275q-3 -19 -16.5 -30t-32.5 -11h-279q-17 0 -26.5 11.5t-6.5 27.5l48 275q3 19 16.5 30t32.5 11zM397 1434h297q17 0 26.5 -11.5t6.5 -27.5l-241 -1370q-5 -25 -30 -25h-314q-17 0 -26.5 11.5t-6.5 27.5l239 1354
q3 19 16.5 30t32.5 11z" />
    <glyph glyph-name="dotlessi" unicode="&#x131;" horiz-adv-x="487" 
d="M288 1024h279q17 0 26.5 -11.5t6.5 -27.5l-170 -960q-5 -25 -29 -25h-296q-17 0 -26.5 11.5t-6.5 27.5l167 944q3 19 16.5 30t32.5 11z" />
    <glyph glyph-name="IJ" unicode="&#x132;" horiz-adv-x="1390" 
d="M397 1434h297q17 0 26.5 -11.5t6.5 -27.5l-241 -1370q-5 -25 -30 -25h-314q-17 0 -26.5 11.5t-6.5 27.5l239 1354q3 19 16.5 30t32.5 11zM1193 1434h308q17 0 26.5 -11.5t6.5 -27.5l-167 -944q-18 -105 -56 -187.5t-87 -136.5t-111.5 -89t-127.5 -50t-138 -15h-10
q-93 0 -188 31q-24 9 -19 34l46 258q3 17 16.5 24t29.5 1q56 -20 86 -20h10q60 0 103.5 38t56.5 110l167 944q7 41 48 41z" />
    <glyph glyph-name="ij" unicode="&#x133;" horiz-adv-x="1019" 
d="M366 1473h279q17 0 26.5 -11.5t6.5 -27.5l-43 -246q-3 -19 -16.5 -30t-32.5 -11h-279q-17 0 -26.5 11.5t-6.5 27.5l43 246q3 19 16.5 30t32.5 11zM899 1473h280q17 0 26 -11.5t6 -27.5l-43 -246q-3 -19 -16.5 -30t-32.5 -11h-279q-17 0 -26.5 11.5t-6.5 27.5l44 246
q7 41 48 41zM288 1024h279q17 0 26.5 -11.5t6.5 -27.5l-170 -960q-5 -25 -29 -25h-296q-17 0 -26.5 11.5t-6.5 27.5l167 944q3 19 16.5 30t32.5 11zM824 1024h277q17 0 26.5 -11.5t6.5 -27.5l-176 -999q-30 -171 -128.5 -263t-252.5 -92h-24q-97 0 -166 28q-27 11 -22 43
l33 187q3 15 15 22.5t27 3.5q33 -9 54 -9h10q81 0 98 96l173 981q3 19 16.5 30t32.5 11z" />
    <glyph glyph-name="Kcommaaccent" unicode="&#x136;" horiz-adv-x="1318" 
d="M1026 729l252 -697q5 -13 -2 -22.5t-20 -9.5h-338q-46 0 -62 44l-184 509h-93l-93 -528q-5 -25 -30 -25h-314q-17 0 -26.5 11.5t-6.5 27.5l239 1354q3 19 16.5 30t32.5 11h297q17 0 26.5 -11.5t6.5 -27.5l-90 -514h77l371 526q19 27 50 27h341q18 0 25 -14t-3 -29z
M504 -102h286q16 0 25 -11t7 -27l-31 -199q-5 -27 -20 -45l-178 -226q-15 -20 -41 -20h-162q-15 0 -21.5 11.5t3.5 23.5l165 209h-85q-17 0 -26.5 11.5t-6.5 27.5l36 204q3 19 16.5 30t32.5 11z" />
    <glyph glyph-name="kcommaaccent" unicode="&#x137;" horiz-adv-x="1110" 
d="M373 1509h280q17 0 26 -11.5t6 -27.5l-142 -808h59l229 335q19 27 51 27h312q18 0 25.5 -14t-3.5 -28l-315 -445l191 -505q5 -13 -2 -22.5t-20 -9.5h-319q-45 0 -61 43l-128 342h-68l-64 -360q-5 -25 -29 -25h-296q-17 0 -26.5 11.5t-6.5 27.5l252 1429q3 19 16.5 30
t32.5 11zM399 -102h286q16 0 25 -11t7 -27l-31 -199q-5 -27 -20 -45l-178 -226q-15 -20 -41 -20h-162q-15 0 -21.5 11.5t3.5 23.5l165 209h-85q-17 0 -26.5 11.5t-6.5 27.5l36 204q3 19 16.5 30t32.5 11z" />
    <glyph glyph-name="Lacute" unicode="&#x139;" horiz-adv-x="1021" 
d="M722 1911h236q16 0 21.5 -13t-4.5 -25l-254 -293q-19 -24 -53 -24h-185q-14 0 -20 11.5t2 22.5l198 290q22 31 59 31zM539 328h460q17 0 26.5 -11.5t6.5 -27.5l-47 -264q-5 -25 -29 -25h-814q-17 0 -26.5 11.5t-6.5 27.5l239 1354q3 19 16.5 30t32.5 11h297
q17 0 26.5 -11.5t6.5 -27.5z" />
    <glyph glyph-name="lacute" unicode="&#x13a;" horiz-adv-x="483" 
d="M675 1987h237q16 0 21.5 -13t-4.5 -25l-255 -293q-20 -24 -52 -24h-186q-14 0 -20 11t2 22l199 291q22 31 58 31zM373 1509h279q17 0 26.5 -11.5t6.5 -27.5l-255 -1445q-5 -25 -29 -25h-296q-17 0 -26.5 11.5t-6.5 27.5l252 1429q3 19 16.5 30t32.5 11z" />
    <glyph glyph-name="Lcommaaccent" unicode="&#x13b;" horiz-adv-x="1021" 
d="M539 328h460q17 0 26.5 -11.5t6.5 -27.5l-47 -264q-5 -25 -29 -25h-814q-17 0 -26.5 11.5t-6.5 27.5l239 1354q3 19 16.5 30t32.5 11h297q17 0 26.5 -11.5t6.5 -27.5zM356 -102h286q16 0 25 -11t7 -27l-31 -199q-5 -27 -20 -45l-178 -226q-15 -20 -41 -20h-162
q-15 0 -21.5 11.5t3.5 23.5l165 209h-85q-17 0 -26.5 11.5t-6.5 27.5l36 204q3 19 16.5 30t32.5 11z" />
    <glyph glyph-name="lcommaaccent" unicode="&#x13c;" horiz-adv-x="483" 
d="M373 1509h280q17 0 26 -11.5t6 -27.5l-255 -1445q-5 -25 -29 -25h-296q-17 0 -26.5 11.5t-6.5 27.5l252 1429q3 19 16.5 30t32.5 11zM85 -102h287q16 0 25 -11t7 -27l-32 -199q-5 -28 -19 -45l-178 -226q-15 -20 -42 -20h-162q-15 0 -21 11.5t4 23.5l165 209h-86
q-17 0 -26 11.5t-6 27.5l36 204q7 41 48 41z" />
    <glyph glyph-name="Lcaron" unicode="&#x13d;" horiz-adv-x="1021" 
d="M539 328h460q17 0 26.5 -11.5t6.5 -27.5l-47 -264q-5 -25 -29 -25h-814q-17 0 -26.5 11.5t-6.5 27.5l239 1354q3 19 16.5 30t32.5 11h297q17 0 26.5 -11.5t6.5 -27.5zM909 1434h286q16 0 25 -11.5t7 -27.5l-31 -198q-5 -27 -20 -45l-178 -226q-15 -20 -41 -20h-162
q-15 0 -21.5 11.5t3.5 23.5l165 209h-85q-17 0 -26.5 11.5t-6.5 27.5l36 204q3 19 16.5 30t32.5 11z" />
    <glyph glyph-name="lcaron" unicode="&#x13e;" horiz-adv-x="903" 
d="M823 1509h286q16 0 25.5 -11t7.5 -27l-32 -199q-5 -27 -19 -44l-179 -227q-15 -20 -41 -20h-162q-15 0 -21 12t4 24l164 209h-85q-17 0 -26 11.5t-6 27.5l36 203q7 41 48 41zM373 1509h280q17 0 26 -11.5t6 -27.5l-255 -1445q-5 -25 -29 -25h-296q-17 0 -26.5 11.5
t-6.5 27.5l252 1429q3 19 16.5 30t32.5 11z" />
    <glyph glyph-name="Ldot" unicode="&#x13f;" horiz-adv-x="1021" 
d="M539 328h460q17 0 26.5 -11.5t6.5 -27.5l-47 -264q-5 -25 -29 -25h-814q-17 0 -26.5 11.5t-6.5 27.5l239 1354q3 19 16.5 30t32.5 11h297q17 0 26.5 -11.5t6.5 -27.5zM802 793h279q17 0 26.5 -11.5t6.5 -27.5l-49 -275q-7 -41 -48 -41h-280q-17 0 -26 11.5t-6 27.5
l48 275q3 19 16.5 30t32.5 11z" />
    <glyph glyph-name="ldot" unicode="&#x140;" horiz-adv-x="894" 
d="M373 1509h280q17 0 26 -11.5t6 -27.5l-255 -1445q-5 -25 -29 -25h-296q-17 0 -26.5 11.5t-6.5 27.5l252 1429q3 19 16.5 30t32.5 11zM696 793h279q17 0 26.5 -11.5t6.5 -27.5l-49 -275q-3 -19 -16.5 -30t-32.5 -11h-279q-17 0 -26.5 11.5t-6.5 27.5l49 275q3 19 16.5 30
t32.5 11z" />
    <glyph glyph-name="Lslash" unicode="&#x141;" horiz-adv-x="1179" 
d="M697 328h460q17 0 26 -11.5t6 -27.5l-46 -264q-5 -25 -29 -25h-814q-17 0 -26.5 11.5t-6.5 27.5l66 373l-37 -23q-12 -8 -25 -4.5t-20 16.5l-100 180q-14 26 11 41l233 144l111 627q7 41 48 41h298q17 0 26.5 -11.5t6.5 -27.5l-65 -367l104 65q12 8 25 4.5t20 -16.5
l99 -180q14 -27 -10 -41l-300 -186z" />
    <glyph glyph-name="lslash" unicode="&#x142;" horiz-adv-x="917" 
d="M959 1140l99 -180q14 -27 -10 -41l-279 -172l-128 -722q-5 -25 -29 -25h-296q-17 0 -26.5 11.5t-6.5 27.5l81 458l-78 -49q-12 -8 -25 -4.5t-20 16.5l-100 180q-14 26 11 41l275 170l109 617q7 41 48 41h280q17 0 26 -11.5t6 -27.5l-65 -369l83 51q12 8 25 4.5t20 -16.5z
" />
    <glyph glyph-name="Nacute" unicode="&#x143;" horiz-adv-x="1384" 
d="M1105 1911h236q16 0 22 -13t-4 -25l-255 -293q-20 -24 -52 -24h-186q-14 0 -20 11.5t2 22.5l198 290q22 31 59 31zM1185 1434h314q17 0 26.5 -11.5t6.5 -27.5l-242 -1370q-5 -25 -29 -25h-352q-33 0 -45 33l-180 553l-61 266h-34l-10 -266l-98 -561q-5 -25 -29 -25h-314
q-17 0 -26.5 11.5t-6.5 27.5l239 1354q3 19 16.5 30t32.5 11h335q33 0 45 -33l180 -553l61 -266h34l10 266l98 561q5 25 29 25z" />
    <glyph glyph-name="nacute" unicode="&#x144;" horiz-adv-x="1079" 
d="M879 1501h236q16 0 21.5 -12.5t-4.5 -24.5l-254 -293q-19 -24 -52 -24h-186q-14 0 -20 11t2 22l198 290q22 31 59 31zM856 1051h26q137 0 214.5 -91.5t51.5 -241.5l-122 -693q-5 -25 -29 -25h-296q-17 0 -26.5 11.5t-6.5 27.5l108 610q10 61 -9.5 88t-72.5 27h-10
q-58 0 -134 -35l-124 -704q-5 -25 -29 -25h-296q-17 0 -26.5 11.5t-6.5 27.5l167 944q3 19 16.5 30t32.5 11h242q13 0 21.5 -8.5t9.5 -21.5l2 -61q89 67 157 92.5t140 25.5z" />
    <glyph glyph-name="Ncommaaccent" unicode="&#x145;" horiz-adv-x="1384" 
d="M1185 1434h314q17 0 26.5 -11.5t6.5 -27.5l-242 -1370q-5 -25 -29 -25h-352q-33 0 -45 33l-180 553l-61 266h-34l-10 -266l-98 -561q-5 -25 -29 -25h-314q-17 0 -26.5 11.5t-6.5 27.5l239 1354q3 19 16.5 30t32.5 11h335q33 0 45 -33l180 -553l61 -266h34l10 266l98 561
q5 25 29 25zM537 -102h286q16 0 25 -11t7 -27l-31 -199q-5 -27 -20 -45l-178 -226q-15 -20 -42 -20h-161q-15 0 -21.5 11.5t3.5 23.5l165 209h-85q-17 0 -26.5 11.5t-6.5 27.5l36 204q3 19 16.5 30t32.5 11z" />
    <glyph glyph-name="ncommaaccent" unicode="&#x146;" horiz-adv-x="1079" 
d="M856 1051h26q137 0 214.5 -91.5t51.5 -241.5l-122 -693q-5 -25 -29 -25h-296q-17 0 -26.5 11.5t-6.5 27.5l108 610q10 61 -9.5 88t-72.5 27h-10q-58 0 -134 -35l-124 -704q-5 -25 -29 -25h-296q-17 0 -26.5 11.5t-6.5 27.5l167 944q3 19 16.5 30t32.5 11h242
q13 0 21.5 -8.5t9.5 -21.5l2 -61q89 67 157 92.5t140 25.5zM384 -102h287q16 0 25 -11t7 -27l-32 -199q-5 -28 -19 -45l-178 -226q-15 -20 -42 -20h-162q-15 0 -21 11.5t4 23.5l165 209h-86q-17 0 -26 11.5t-6 27.5l36 204q7 41 48 41z" />
    <glyph glyph-name="Ncaron" unicode="&#x147;" horiz-adv-x="1384" 
d="M1135 1911h204q16 0 21.5 -13t-4.5 -25l-259 -299q-15 -18 -40 -18h-173q-24 0 -33 20l-157 306q-5 11 0 20t17 9h213q29 0 37 -27l35 -117l81 114q22 30 58 30zM1185 1434h314q17 0 26.5 -11.5t6.5 -27.5l-242 -1370q-5 -25 -29 -25h-352q-33 0 -45 33l-180 553l-61 266
h-34l-10 -266l-98 -561q-5 -25 -29 -25h-314q-17 0 -26.5 11.5t-6.5 27.5l239 1354q3 19 16.5 30t32.5 11h335q33 0 45 -33l180 -553l61 -266h34l10 266l98 561q5 25 29 25z" />
    <glyph glyph-name="ncaron" unicode="&#x148;" horiz-adv-x="1079" 
d="M920 1501h205q16 0 21.5 -12.5t-4.5 -24.5l-260 -299q-15 -18 -39 -18h-173q-24 0 -33 20l-158 305q-5 11 0.5 20t17.5 9h213q29 0 37 -27l35 -117l81 114q22 30 57 30zM856 1051h26q137 0 214.5 -91.5t51.5 -241.5l-122 -693q-5 -25 -29 -25h-296q-17 0 -26.5 11.5
t-6.5 27.5l108 610q10 61 -9.5 88t-72.5 27h-10q-58 0 -134 -35l-124 -704q-5 -25 -29 -25h-296q-17 0 -26.5 11.5t-6.5 27.5l167 944q3 19 16.5 30t32.5 11h242q13 0 21.5 -8.5t9.5 -21.5l2 -61q89 67 157 92.5t140 25.5z" />
    <glyph glyph-name="Eng" unicode="&#x14a;" horiz-adv-x="1384" 
d="M1185 1434h314q17 0 26.5 -11.5t6.5 -27.5l-227 -1286q-23 -134 -66 -228t-103.5 -148t-132 -78t-161.5 -24h-11q-75 0 -176 36q-24 9 -19 33l42 239q3 16 16.5 23.5t30.5 1.5q40 -15 64 -15h10q23 0 45 20t30 49l-190 568l-61 266h-34l-10 -266l-98 -561q-5 -25 -29 -25
h-314q-17 0 -26.5 11.5t-6.5 27.5l239 1354q3 19 16.5 30t32.5 11h335q33 0 45 -33l180 -553l61 -266h34l10 266l98 561q5 25 29 25z" />
    <glyph glyph-name="eng" unicode="&#x14b;" horiz-adv-x="1079" 
d="M856 1051h26q138 0 215.5 -91.5t51.5 -241.5l-130 -732q-30 -171 -128.5 -263t-252.5 -92h-24q-97 0 -166 28q-27 11 -22 43l33 187q3 15 15 22.5t27 3.5q33 -9 54 -9h10q81 0 98 96l113 647q10 61 -9.5 88t-72.5 27h-10q-58 0 -134 -35l-124 -704q-5 -25 -29 -25h-296
q-17 0 -26.5 11.5t-6.5 27.5l167 944q3 19 16.5 30t32.5 11h242q13 0 21.5 -8.5t9.5 -21.5l2 -61q89 67 157 92.5t140 25.5z" />
    <glyph glyph-name="Omacron" unicode="&#x14c;" horiz-adv-x="1386" 
d="M789 1808h450q17 0 26 -11.5t6 -27.5l-30 -172q-3 -19 -16.5 -30t-32.5 -11h-449q-17 0 -26.5 11.5t-6.5 27.5l31 172q7 41 48 41zM924 1460h31q91 0 173 -26t149 -77t111 -126t59.5 -173.5t-5.5 -219.5l-47 -270q-26 -146 -93.5 -262t-161 -187.5t-202 -108.5
t-223.5 -37h-30q-91 0 -173 26t-149 77t-111.5 126t-60 173.5t5.5 219.5l48 271q26 146 93.5 262t160.5 187t201.5 108t223.5 37zM900 1133h-14q-100 0 -164 -65t-84 -179l-61 -344q-21 -116 20.5 -180t141.5 -64h14q100 0 163.5 64t84.5 180l61 344q20 115 -21 179.5
t-141 64.5z" />
    <glyph glyph-name="omacron" unicode="&#x14d;" horiz-adv-x="1103" 
d="M576 1399h449q17 0 26.5 -11.5t6.5 -27.5l-30 -172q-3 -19 -16.5 -30t-32.5 -11h-449q-17 0 -26.5 11.5t-6.5 27.5l30 172q3 19 16.5 30t32.5 11zM714 1051h23q97 0 181 -33.5t143.5 -93t85.5 -151t7 -199.5l-27 -151q-19 -108 -72.5 -195t-129 -142t-166.5 -84t-189 -29
h-23q-97 0 -181 33.5t-143 93t-85 151t-7 199.5l26 151q19 108 72.5 195t129 142t166.5 84t189 29zM692 764h-10q-60 0 -101 -41t-55 -119l-32 -184q-14 -78 12.5 -119t86.5 -41h10q60 0 100.5 41t54.5 119l33 184q14 78 -12.5 119t-86.5 41z" />
    <glyph glyph-name="Ohungarumlaut" unicode="&#x150;" horiz-adv-x="1386" 
d="M959 1911h203q16 0 21.5 -13t-4.5 -25l-256 -293q-21 -24 -52 -24h-151q-14 0 -20 11.5t2 22.5l198 290q22 31 59 31zM1309 1911h204q16 0 21.5 -13t-4.5 -25l-255 -293q-19 -24 -52 -24h-153q-14 0 -20 11.5t2 22.5l198 290q22 31 59 31zM924 1460h31q91 0 173 -26
t149 -77t111 -126t59.5 -173.5t-5.5 -219.5l-48 -270q-26 -146 -93.5 -262t-160.5 -187.5t-201.5 -108.5t-223.5 -37h-30q-91 0 -173 26t-149 77t-111.5 126t-60 173.5t5.5 219.5l48 271q26 146 93.5 262t160.5 187t201.5 108t223.5 37zM900 1133h-14q-100 0 -164 -65
t-84 -179l-61 -344q-21 -116 20.5 -180t141.5 -64h14q100 0 163.5 64t84.5 180l61 344q20 115 -21 179.5t-141 64.5z" />
    <glyph glyph-name="ohungarumlaut" unicode="&#x151;" horiz-adv-x="1103" 
d="M744 1501h203q16 0 21.5 -12.5t-4.5 -24.5l-256 -294q-20 -23 -53 -23h-151q-14 0 -19.5 11t2.5 22l198 290q22 31 59 31zM1094 1501h203q16 0 22 -12.5t-4 -24.5l-255 -293q-20 -24 -52 -24h-153q-14 0 -20 11t2 22l198 290q22 31 59 31zM714 1051h23q97 0 181 -33.5
t143.5 -93t85.5 -151t7 -199.5l-27 -151q-19 -108 -72.5 -195t-129 -142t-166.5 -84t-189 -29h-23q-97 0 -181 33.5t-143.5 93t-85.5 151t-7 199.5l27 151q19 108 72.5 195t129 142t166.5 84t189 29zM692 764h-11q-60 0 -100.5 -41t-54.5 -119l-32 -184q-14 -78 12.5 -119
t86.5 -41h10q60 0 100.5 41t54.5 119l33 184q14 78 -12.5 119t-86.5 41z" />
    <glyph glyph-name="OE" unicode="&#x152;" horiz-adv-x="1896" 
d="M1337 1434h721q17 0 26.5 -11.5t6.5 -27.5l-46 -265q-5 -24 -30 -24h-536l-38 -215h460q17 0 26.5 -11.5t6.5 -27.5l-47 -264q-5 -25 -29 -25h-475l-41 -235h521q17 0 26.5 -11.5t6.5 -27.5l-46 -264q-5 -25 -30 -25h-737q-17 0 -26.5 11.5t-6.5 27.5l4 22
q-155 -88 -339 -88h-30q-91 0 -173 26t-149 77t-111.5 126t-60 173.5t5.5 219.5l48 271q26 146 93.5 262t160.5 187t201.5 108t223.5 37h31q192 0 327 -106l7 39q7 41 48 41zM739 301h15q100 0 163 64t84 180l61 344q20 115 -21 179.5t-141 64.5h-14q-100 0 -164 -65
t-84 -179l-61 -344q-21 -116 20.5 -180t141.5 -64z" />
    <glyph glyph-name="oe" unicode="&#x153;" horiz-adv-x="1675" 
d="M1339 1051h23q91 0 166.5 -30.5t128.5 -86.5t74 -144.5t2 -196.5l-23 -134q-1 -11 -9.5 -18t-19.5 -7h-548l-2 -12q-16 -86 27 -127t127 -41h10q89 0 300 67q15 5 25.5 -4t7.5 -24l-36 -205q-8 -43 -45 -55q-175 -60 -346 -60h-23q-177 0 -288 89q-142 -89 -320 -89h-23
q-97 0 -181 33.5t-143.5 93t-85.5 151t-7 199.5l27 151q19 108 72.5 195t129 142t166.5 84t189 29h23q169 0 287 -93q140 93 315 93zM1315 791h-7q-105 0 -142 -154h239q35 154 -90 154zM692 764h-11q-60 0 -100.5 -41t-54.5 -119l-32 -184q-14 -78 12.5 -119t86.5 -41h10
q60 0 100.5 41t54.5 119l33 184q14 78 -12.5 119t-86.5 41z" />
    <glyph glyph-name="Racute" unicode="&#x154;" horiz-adv-x="1312" 
d="M953 1911h236q16 0 22 -13t-4 -25l-255 -293q-19 -24 -52 -24h-186q-14 0 -20 11.5t2 22.5l198 290q22 31 59 31zM397 1434h537q83 0 153.5 -17t127.5 -51.5t93 -87.5t49.5 -125.5t-3.5 -164.5l-3 -14q-52 -290 -298 -405l90 -196l129 -341q4 -13 -2.5 -22.5t-20.5 -9.5
h-338q-46 0 -62 44l-169 470h-108l-86 -489q-5 -25 -30 -25h-314q-17 0 -26.5 11.5t-6.5 27.5l239 1354q3 19 16.5 30t32.5 11zM676 1106l-51 -293h149q159 0 185 141l2 11q26 141 -135 141h-150z" />
    <glyph glyph-name="racute" unicode="&#x155;" horiz-adv-x="763" 
d="M704 1501h236q16 0 21.5 -12.5t-4.5 -24.5l-255 -293q-20 -24 -52 -24h-186q-14 0 -19.5 11t2.5 22l198 290q22 31 59 31zM846 1051h8q18 0 42 -3q13 -1 20.5 -12t5.5 -25l-49 -276q-2 -13 -11.5 -20t-22.5 -6q-57 6 -88 6h-17q-99 0 -192 -35l-116 -655q-5 -25 -29 -25
h-296q-17 0 -26.5 11.5t-6.5 27.5l167 944q3 19 16.5 30t32.5 11h243q28 0 30 -28l6 -86q62 70 136.5 105.5t146.5 35.5z" />
    <glyph glyph-name="Rcommaaccent" unicode="&#x156;" horiz-adv-x="1312" 
d="M397 1434h537q83 0 153.5 -17t127.5 -51.5t93 -87.5t49.5 -125.5t-3.5 -164.5l-3 -14q-52 -290 -298 -405l90 -196l129 -341q4 -13 -2.5 -22.5t-20.5 -9.5h-338q-46 0 -62 44l-169 470h-108l-86 -489q-5 -25 -30 -25h-314q-17 0 -26.5 11.5t-6.5 27.5l239 1354
q3 19 16.5 30t32.5 11zM676 1106l-51 -293h149q159 0 185 141l2 11q26 141 -135 141h-150zM495 -102h286q16 0 25 -11.5t7 -27.5l-31 -198q-5 -27 -20 -45l-178 -226q-15 -20 -41 -20h-162q-15 0 -21.5 11.5t3.5 23.5l165 209h-85q-17 0 -26.5 11.5t-6.5 27.5l36 204
q3 19 16.5 30t32.5 11z" />
    <glyph glyph-name="rcommaaccent" unicode="&#x157;" horiz-adv-x="763" 
d="M846 1051h8q18 0 42 -3q13 -1 20.5 -12t5.5 -25l-49 -276q-2 -13 -11.5 -20t-22.5 -6q-57 6 -88 6h-17q-99 0 -192 -35l-116 -655q-5 -25 -29 -25h-296q-17 0 -26.5 11.5t-6.5 27.5l167 944q3 19 16.5 30t32.5 11h243q28 0 30 -28l7 -86q62 70 136 105.5t146 35.5z
M85 -102h286q16 0 25.5 -11t7.5 -27l-32 -199q-5 -27 -20 -45l-178 -226q-15 -20 -41 -20h-162q-15 0 -21 11.5t4 23.5l164 209h-85q-17 0 -26.5 11.5t-6.5 27.5l36 204q3 19 16.5 30t32.5 11z" />
    <glyph glyph-name="Rcaron" unicode="&#x158;" horiz-adv-x="1312" 
d="M1060 1911h204q16 0 21.5 -13t-4.5 -25l-259 -299q-15 -18 -40 -18h-173q-24 0 -33 20l-157 306q-5 11 0 20t17 9h213q29 0 37 -27l35 -117l81 114q22 30 58 30zM397 1434h537q83 0 153.5 -17t127.5 -51.5t93 -87.5t49.5 -125.5t-3.5 -164.5l-3 -14q-52 -290 -298 -405
l90 -196l129 -341q4 -13 -2.5 -22.5t-20.5 -9.5h-338q-46 0 -62 44l-169 470h-108l-86 -489q-5 -25 -30 -25h-314q-17 0 -26.5 11.5t-6.5 27.5l239 1354q3 19 16.5 30t32.5 11zM676 1106l-51 -293h149q159 0 185 141l2 11q26 141 -135 141h-150z" />
    <glyph glyph-name="rcaron" unicode="&#x159;" horiz-adv-x="763" 
d="M764 1501h204q16 0 21.5 -12.5t-4.5 -24.5l-260 -299q-15 -18 -39 -18h-173q-24 0 -33 20l-157 305q-5 11 0 20t17 9h213q29 0 37 -27l35 -117l81 114q22 30 58 30zM846 1051h8q18 0 42 -3q13 -1 20.5 -12t5.5 -25l-49 -276q-2 -13 -11.5 -20t-22.5 -6q-57 6 -88 6h-17
q-99 0 -192 -35l-116 -655q-5 -25 -29 -25h-296q-17 0 -26.5 11.5t-6.5 27.5l167 944q3 19 16.5 30t32.5 11h243q28 0 30 -28l7 -86q62 70 136 105.5t146 35.5z" />
    <glyph glyph-name="Sacute" unicode="&#x15a;" horiz-adv-x="1120" 
d="M995 1911h236q16 0 21.5 -13t-4.5 -25l-254 -293q-20 -24 -53 -24h-185q-14 0 -20 11.5t2 22.5l198 290q22 31 59 31zM548 546l63 -22q80 -29 109.5 -52.5t21.5 -66.5l-1 -6q-9 -50 -55 -77t-125 -27h-8q-73 0 -136.5 15t-217.5 69q-16 6 -29.5 -1.5t-16.5 -23.5
l-44 -254q-4 -21 5.5 -39.5t28.5 -25.5q74 -28 176.5 -47t200.5 -19h14q105 0 202 27.5t179.5 80.5t140.5 139.5t77 196.5l2 17q22 122 -9.5 209.5t-107 144t-205.5 102.5l-70 25q-71 25 -97 47t-19 62l1 6q9 50 52.5 77t109.5 27h8q67 0 130 -14t176 -51q16 -5 28 2t15 23
l45 254q4 23 -6.5 41t-32.5 25q-156 46 -320 46h-12q-98 0 -191.5 -28t-174 -81.5t-138 -140.5t-76.5 -195l-4 -22q-30 -166 51.5 -273t259.5 -170z" />
    <glyph glyph-name="sacute" unicode="&#x15b;" horiz-adv-x="894" 
d="M795 1501h236q16 0 21.5 -12.5t-4.5 -24.5l-254 -293q-20 -24 -53 -24h-185q-14 0 -20 11t2 22l198 290q22 31 59 31zM648 1051h20q138 0 246 -34q20 -7 31 -25.5t7 -40.5l-33 -186q-3 -17 -17 -24.5t-31 -0.5q-84 35 -127 47t-85 12h-2q-94 0 -104 -54l-1 -4
q-1 -6 -1 -11t0.5 -9t3 -7.5t4 -6t6 -5.5t7 -4.5t9 -4t9 -3.5t10.5 -4t11 -4l70 -25q45 -16 77.5 -31.5t64 -37t49.5 -46t33 -58.5t14 -74t-7 -93l-3 -14q-28 -154 -166.5 -242t-323.5 -88h-12q-152 0 -274 39q-20 7 -30 24.5t-6 40.5l33 187q3 17 16.5 24.5t29.5 0.5
q96 -37 146 -50.5t96 -13.5h10q106 0 117 58l1 4q3 13 0.5 22.5t-13 16t-19.5 10t-29 10.5l-70 25q-23 8 -42.5 16t-42 19.5t-40 23t-35.5 27.5t-30.5 34t-23 41t-15.5 48.5t-5 57.5t6 67l2 10q14 83 61 149t112 105.5t138 60.5t148 21z" />
    <glyph glyph-name="Scedilla" unicode="&#x15e;" horiz-adv-x="1120" 
d="M1153 1410q22 -7 32.5 -25t6.5 -41l-44 -254q-3 -16 -15.5 -23t-28.5 -2q-113 37 -176 51t-130 14h-8q-66 0 -109.5 -27t-52.5 -77l-1 -6q-7 -40 19 -62t97 -47l70 -25q130 -46 205.5 -102.5t107 -144t9.5 -209.5l-2 -17q-18 -102 -69 -184t-124 -135t-160 -84t-184 -39
l-23 -60q1 0 7.5 0.5t9.5 0.5q65 0 104.5 -53.5t25.5 -137.5q-14 -78 -77.5 -119.5t-163.5 -41.5q-98 0 -173 35q-24 11 -19 40l10 58q3 20 24 13q53 -19 114 -19q69 0 77 43q3 19 -9.5 30t-40.5 11q-25 0 -72 -16q-8 -2 -12 0l-19 9q-10 4 -6 13l76 196q-156 14 -286 62
q-19 7 -28.5 25.5t-5.5 39.5l44 254q3 16 16.5 23.5t29.5 1.5q155 -54 217.5 -69t135.5 -15h9q79 0 125 27t55 77l1 6q8 43 -21.5 66.5t-109.5 52.5l-63 22q-178 63 -259.5 170t-51.5 273l4 22q19 108 76.5 195t138 140.5t174 81.5t191.5 28h12q164 0 320 -46z" />
    <glyph glyph-name="scedilla" unicode="&#x15f;" horiz-adv-x="894" 
d="M553 745l-1 -4q-1 -6 -1 -11t0.5 -9t3 -7.5t4 -6t6 -5.5t7 -4.5t9 -4t9 -3.5t10.5 -4t11 -4l70 -25q45 -16 77.5 -31.5t64 -37t49.5 -46t33 -58.5t14 -74t-7 -93l-3 -14q-25 -139 -141.5 -224.5t-279.5 -101.5l-25 -66q1 0 7 0.5t9 0.5q65 0 104.5 -53.5t25.5 -137.5
q-14 -78 -77.5 -119.5t-163.5 -41.5q-97 0 -172 35q-25 12 -20 40l10 58q3 20 24 13q53 -19 115 -19q69 0 77 43q3 19 -9.5 30t-40.5 11q-26 0 -73 -16q-8 -2 -12 0l-19 9q-9 4 -5 13l77 200q-105 9 -187 35q-20 7 -30 24.5t-6 40.5l33 187q3 17 16.5 24.5t29.5 0.5
q96 -37 146 -50.5t96 -13.5h10q106 0 117 58l1 4q3 18 -4.5 29t-19 16t-37.5 14l-70 25q-24 8 -43 16t-41.5 19t-40 23t-35.5 28t-30.5 33.5t-23 40.5t-15.5 48.5t-5 57.5t6 67l2 11q14 83 61 149t112 105.5t138 60.5t148 21h20q138 0 246 -34q20 -7 31 -25.5t7 -40.5
l-33 -186q-3 -17 -17 -24.5t-31 -0.5q-84 35 -127 47t-85 12h-2q-94 0 -104 -54z" />
    <glyph glyph-name="Scaron" unicode="&#x160;" horiz-adv-x="1120" 
d="M1013 1911h205q16 0 21.5 -13t-4.5 -25l-260 -299q-15 -18 -39 -18h-174q-23 0 -32 20l-158 306q-5 11 0.5 20t17.5 9h213q28 0 36 -27l35 -117l81 114q22 30 58 30zM548 547l63 -23q80 -29 109.5 -52.5t21.5 -66.5l-1 -6q-9 -50 -55 -77t-125 -27h-9q-73 0 -135.5 15
t-217.5 69q-16 6 -29.5 -1.5t-16.5 -23.5l-44 -254q-4 -21 5.5 -39.5t28.5 -25.5q74 -28 176.5 -47t200.5 -19h14q105 0 202 27.5t179.5 80.5t140.5 139.5t77 196.5l2 17q32 179 -47.5 283t-275.5 173l-69 25q-71 25 -97 47t-19 62l1 6q9 50 52.5 77t109.5 27h8
q67 0 130 -14t176 -51q16 -5 28 2t15 23l45 254q4 23 -6.5 41t-32.5 25q-156 46 -320 46h-12q-98 0 -191.5 -28t-174 -81.5t-138 -140.5t-76.5 -195l-4 -22q-30 -166 51.5 -272.5t259.5 -169.5z" />
    <glyph glyph-name="scaron" unicode="&#x161;" horiz-adv-x="894" 
d="M829 1501h205q16 0 21.5 -12.5t-4.5 -24.5l-260 -299q-15 -18 -39 -18h-174q-23 0 -32 20l-158 305q-5 11 0.5 20t17.5 9h212q29 0 37 -27l35 -117l81 114q22 30 58 30zM648 1051h20q138 0 246 -34q20 -7 31 -25.5t7 -40.5l-33 -186q-3 -17 -17 -24.5t-31 -0.5
q-84 35 -127 47t-85 12h-2q-94 0 -104 -54l-1 -4q-1 -6 -1 -11t0.5 -9t3 -7.5t4 -6t6 -5.5t7 -4.5t9 -4t9 -3.5t10.5 -4t11 -4l70 -25q45 -16 77.5 -31.5t64 -37t49.5 -46t33 -58.5t14 -74t-7 -93l-3 -14q-28 -154 -166.5 -242t-323.5 -88h-12q-152 0 -274 39
q-20 7 -30 24.5t-6 40.5l33 187q3 17 16.5 24.5t29.5 0.5q96 -37 146 -50.5t96 -13.5h10q106 0 117 58l1 4q3 18 -4.5 29t-19 16t-37.5 14l-70 25q-23 8 -42.5 16t-42 19.5t-40 23t-35.5 27.5t-30.5 34t-23 41t-15.5 48.5t-5 57.5t6 67l2 10q14 83 61 149t112 105.5
t138 60.5t148 21z" />
    <glyph glyph-name="Tcedilla" unicode="&#x162;" horiz-adv-x="1210" 
d="M335 1434h1048q17 0 26 -11.5t6 -27.5l-46 -265q-5 -24 -30 -24h-349l-191 -1081q-5 -25 -29 -25h-116l-34 -89q1 0 7.5 0.5t9.5 0.5q65 0 104.5 -53.5t25.5 -137.5q-14 -78 -77.5 -119.5t-163.5 -41.5q-98 0 -173 35q-24 11 -19 40l10 58q3 20 24 13q53 -19 114 -19
q70 0 78 43q3 19 -9.5 30t-41.5 11q-25 0 -72 -16q-8 -2 -12 0l-19 9q-10 4 -6 13l86 223h-31q-17 0 -26 11.5t-6 27.5l188 1067h-335q-17 0 -26.5 11.5t-6.5 27.5l44 248q7 41 48 41z" />
    <glyph glyph-name="tcedilla" unicode="&#x163;" horiz-adv-x="772" 
d="M693 1024h198q17 0 26 -11.5t6 -27.5l-37 -213q-5 -25 -30 -25h-212l-71 -399q-15 -88 55 -88h10q13 0 124 29q15 4 25.5 -5t8.5 -23l-34 -192q-5 -29 -33 -40q-138 -56 -216 -56h-1l-24 -62q1 0 7.5 0.5t9.5 0.5q65 0 104.5 -53.5t25.5 -137.5q-14 -78 -77.5 -119.5
t-163.5 -41.5q-98 0 -173 35q-24 11 -19 40l10 58q3 20 24 13q53 -19 114 -19q70 0 78 43q3 19 -9.5 30t-41.5 11q-25 0 -72 -16q-8 -2 -12 0l-19 9q-10 4 -6 13l85 220q-88 34 -128.5 111.5t-21.5 183.5l80 456h-93q-17 0 -26.5 11t-6.5 27l27 161q6 34 38 43l109 34
l31 176q6 37 43 45l304 67q14 3 22.5 -5.5t6.5 -21.5z" />
    <glyph glyph-name="Tcaron" unicode="&#x164;" horiz-adv-x="1210" 
d="M1058 1911h205q16 0 21.5 -13t-4.5 -25l-260 -299q-15 -18 -39 -18h-174q-23 0 -32 20l-158 306q-5 11 0.5 20t17.5 9h213q28 0 36 -27l35 -117l81 114q22 30 58 30zM335 1434h1048q17 0 26 -11.5t6 -27.5l-46 -265q-5 -24 -30 -24h-349l-191 -1081q-5 -25 -29 -25h-315
q-17 0 -26 11.5t-6 27.5l188 1067h-335q-17 0 -26.5 11.5t-6.5 27.5l44 248q7 41 48 41z" />
    <glyph glyph-name="tcaron" unicode="&#x165;" horiz-adv-x="1228" 
d="M1150 1509h286q16 0 25.5 -11t7.5 -27l-32 -199q-5 -27 -19 -44l-179 -227q-15 -20 -41 -20h-162q-15 0 -21 12t4 24l165 209h-86q-17 0 -26 11.5t-6 27.5l36 203q7 41 48 41zM405 1245l304 67q14 3 22.5 -5.5t6.5 -21.5l-45 -261h198q17 0 26 -11.5t6 -27.5l-37 -213
q-5 -24 -30 -24h-212l-71 -400q-15 -88 55 -88h10q13 0 124 29q15 4 25.5 -5t8.5 -23l-34 -192q-5 -29 -33 -40q-138 -56 -216 -56h-23q-154 0 -233.5 88t-53.5 231l80 456h-93q-17 0 -26.5 11t-6.5 27l28 161q6 34 37 43l109 34l32 176q6 37 42 45z" />
    <glyph glyph-name="Tbar" unicode="&#x166;" horiz-adv-x="1210" 
d="M335 1434h1048q17 0 26 -11.5t6 -27.5l-46 -265q-5 -24 -30 -24h-349l-30 -168h145q17 0 26.5 -11.5t6.5 -27.5l-35 -196q-3 -19 -16.5 -30t-32.5 -11h-143l-112 -637q-5 -25 -29 -25h-315q-17 0 -26 11.5t-6 27.5l109 623h-145q-17 0 -26 11.5t-6 27.5l34 196
q3 19 16.5 30t32.5 11h143l30 168h-335q-17 0 -26.5 11.5t-6.5 27.5l44 248q7 41 48 41z" />
    <glyph glyph-name="tbar" unicode="&#x167;" horiz-adv-x="772" 
d="M693 1024h197q17 0 26.5 -11.5t6.5 -27.5l-37 -213q-5 -24 -30 -24h-212l-19 -105h200q17 0 26.5 -11.5t6.5 -27.5l-30 -172q-3 -18 -16.5 -29t-32.5 -11h-198l-8 -44q-15 -88 54 -88h11q13 0 124 29q15 4 25.5 -5t8.5 -23l-34 -192q-5 -29 -33 -40q-138 -56 -216 -56
h-23q-154 0 -233.5 88t-53.5 231l18 100h-92q-17 0 -26.5 11.5t-6.5 27.5l31 171q7 41 48 41h90l18 105h-93q-17 0 -26.5 11t-6.5 27l27 161q6 34 38 43l109 34l31 176q6 37 43 45l304 67q14 3 22.5 -5.5t6.5 -21.5z" />
    <glyph glyph-name="Umacron" unicode="&#x16a;" horiz-adv-x="1345" 
d="M769 1808h449q17 0 26.5 -11.5t6.5 -27.5l-30 -172q-3 -19 -16.5 -30t-32.5 -11h-449q-17 0 -26.5 11.5t-6.5 27.5l30 172q3 19 16.5 30t32.5 11zM1152 1434h308q17 0 26.5 -11.5t6.5 -27.5l-153 -868q-26 -146 -88.5 -255.5t-150.5 -173.5t-189 -94.5t-215 -30.5h-31
q-90 0 -168 21.5t-143 66.5t-106 114t-56 163.5t7 215.5l148 839q3 19 16.5 30t32.5 11h308q17 0 26 -11.5t6 -27.5l-153 -871q-20 -109 15 -166t122 -57h14q176 0 216 223l153 869q7 41 48 41z" />
    <glyph glyph-name="umacron" unicode="&#x16b;" 
d="M554 1401h449q17 0 26.5 -11.5t6.5 -27.5l-31 -172q-7 -41 -48 -41h-450q-17 0 -26 11.5t-6 27.5l30 172q3 19 16.5 30t32.5 11zM849 1024h295q17 0 26.5 -11.5t6.5 -27.5l-169 -960q-5 -25 -29 -25h-259q-13 0 -21.5 8.5t-9.5 21.5l-2 61q-89 -67 -157 -92.5t-140 -25.5
h-27q-136 0 -207.5 91t-44.5 242l120 677q7 41 48 41h280q17 0 26 -11.5t6 -27.5l-107 -610q-10 -61 6 -88t62 -27h10q57 0 133 35l124 704q5 25 30 25z" />
    <glyph glyph-name="Uring" unicode="&#x16e;" horiz-adv-x="1345" 
d="M993 1935q95 0 151 -70t39 -166q-13 -77 -76.5 -130t-141.5 -53q-96 0 -152.5 70t-39.5 168q14 76 77.5 128.5t142.5 52.5zM988 1778q-22 0 -40 -15t-22 -37t9 -37.5t35 -15.5t39 15.5t21 37.5t-8 37t-34 15zM1152 1434h308q17 0 26.5 -11.5t6.5 -27.5l-153 -868
q-26 -146 -88.5 -255.5t-150.5 -173.5t-189 -94.5t-215 -30.5h-31q-90 0 -168 21.5t-143 66.5t-106 114t-56 163.5t7 215.5l148 839q3 19 16.5 30t32.5 11h308q17 0 26 -11.5t6 -27.5l-153 -871q-20 -109 15 -166t122 -57h14q176 0 216 223l153 869q7 41 48 41z" />
    <glyph glyph-name="uring" unicode="&#x16f;" 
d="M778 1526q95 0 151 -70t39 -166q-13 -77 -77 -130.5t-142 -53.5q-96 0 -152 70t-39 168q14 76 77.5 129t142.5 53zM773 1368q-22 0 -40.5 -15t-22.5 -36q-4 -22 9 -37.5t35 -15.5t39.5 15.5t21.5 37.5t-8 36.5t-34 14.5zM849 1024h295q17 0 26.5 -11.5t6.5 -27.5
l-169 -960q-5 -25 -29 -25h-259q-13 0 -21.5 8.5t-9.5 21.5l-2 61q-89 -67 -157 -92.5t-140 -25.5h-27q-136 0 -207.5 91t-44.5 242l120 677q7 41 48 41h280q17 0 26 -11.5t6 -27.5l-107 -610q-10 -61 6 -88t62 -27h10q57 0 133 35l124 704q5 25 30 25z" />
    <glyph glyph-name="Uhungarumlaut" unicode="&#x170;" horiz-adv-x="1345" 
d="M940 1911h203q16 0 21.5 -13t-4.5 -25l-256 -293q-21 -24 -52 -24h-151q-14 0 -20 11.5t2 22.5l198 290q22 31 59 31zM1290 1911h204q16 0 21.5 -13t-4.5 -25l-255 -293q-20 -24 -52 -24h-153q-14 0 -20 11.5t2 22.5l198 290q22 31 59 31zM1152 1434h308q17 0 26.5 -11.5
t6.5 -27.5l-153 -868q-26 -146 -88.5 -255.5t-150.5 -173.5t-189 -94.5t-215 -30.5h-31q-90 0 -168 21.5t-143 66.5t-106 114t-56 163.5t7 215.5l148 839q3 19 16.5 30t32.5 11h308q17 0 26 -11.5t6 -27.5l-153 -871q-20 -109 15 -166t122 -57h14q176 0 216 223l153 869
q7 41 48 41z" />
    <glyph glyph-name="uhungarumlaut" unicode="&#x171;" 
d="M723 1501h203q16 0 22 -12.5t-5 -24.5l-257 -294q-20 -23 -52 -23h-151q-14 0 -19.5 11t2.5 22l198 290q22 31 59 31zM1073 1501h203q16 0 22 -12.5t-4 -24.5l-255 -293q-19 -24 -52 -24h-153q-14 0 -20 11t2 22l198 290q22 31 59 31zM849 1024h295q17 0 26.5 -11.5
t6.5 -27.5l-169 -960q-5 -25 -29 -25h-259q-13 0 -21.5 8.5t-9.5 21.5l-2 61q-89 -67 -157 -92.5t-140 -25.5h-27q-136 0 -207.5 91t-44.5 242l120 677q7 41 48 41h280q17 0 26 -11.5t6 -27.5l-107 -610q-10 -61 6 -88t62 -27h10q57 0 133 35l124 704q5 25 30 25z" />
    <glyph glyph-name="Uogonek" unicode="&#x172;" horiz-adv-x="1345" 
d="M1152 1434h308q17 0 26.5 -11.5t6.5 -27.5l-153 -868q-40 -225 -161 -356t-295 -175q-9 -9 -42.5 -37t-51.5 -45.5t-37.5 -45.5t-23.5 -54q-6 -33 10.5 -53.5t51.5 -20.5q15 0 26 2t17 -5t5 -17l-17 -98q-5 -28 -27 -38q-49 -24 -115 -24q-95 0 -145.5 58t-30.5 149
q25 118 150 207q-111 2 -202.5 37.5t-158 104t-92.5 181.5t-1 257l148 839q3 19 16.5 30t32.5 11h308q17 0 26 -11.5t6 -27.5l-153 -871q-20 -109 15 -166t122 -57h14q176 0 216 223l153 869q7 41 48 41z" />
    <glyph glyph-name="uogonek" unicode="&#x173;" 
d="M849 1024h295q17 0 26.5 -11.5t6.5 -27.5l-169 -960q-5 -25 -29 -25q-12 -11 -43.5 -38t-52 -45.5t-40.5 -47.5t-24 -55q-6 -33 10.5 -53.5t51.5 -20.5q14 0 25 2t17.5 -5t5.5 -17l-17 -98q-5 -28 -27 -38q-49 -24 -115 -24q-95 0 -145.5 58t-30.5 149q30 137 190 233
h-64q-13 0 -21.5 8.5t-9.5 21.5l-2 61q-89 -67 -157 -92.5t-140 -25.5h-27q-136 0 -207.5 91t-44.5 242l120 677q7 41 48 41h280q17 0 26 -11.5t6 -27.5l-107 -610q-10 -61 6 -88t62 -27h10q57 0 133 35l124 704q5 25 30 25z" />
    <glyph glyph-name="Wcircumflex" unicode="&#x174;" horiz-adv-x="2119" 
d="M1307 1911h162q33 0 49 -30l153 -295q5 -11 -0.5 -20.5t-17.5 -9.5h-213q-28 0 -36 28l-36 116l-86 -121q-16 -23 -43 -23h-214q-16 0 -21.5 13t4.5 25l260 299q15 18 39 18zM1992 1434h315q14 0 20.5 -10.5t1.5 -23.5l-566 -1371q-11 -29 -43 -29h-440q-28 0 -30 29
l-27 465l16 456h-20l-140 -456l-192 -465q-11 -29 -43 -29h-441q-13 0 -21.5 8t-9.5 21l-81 1359q-2 20 10.5 33t31.5 13h291q21 0 35 -14t16 -35l39 -668l-27 -385h17l104 385l285 688q11 29 43 29h332q21 0 35 -14t16 -35l39 -668l-27 -385h17l104 385l280 676
q16 41 60 41z" />
    <glyph glyph-name="wcircumflex" unicode="&#x175;" horiz-adv-x="1720" 
d="M1034 1501h162q33 0 49 -30l153 -295q5 -11 -0.5 -20t-17.5 -9h-213q-28 0 -36 27l-35 117l-87 -122q-16 -22 -43 -22h-214q-16 0 -21.5 12.5t4.5 24.5l260 299q15 18 39 18zM1555 1024h301q15 0 21.5 -10.5t0.5 -24.5l-451 -962q-13 -27 -42 -27h-335q-12 0 -20 7.5
t-10 19.5l-30 274l-2 356h-20l-122 -356l-130 -275q-12 -26 -42 -26h-335q-12 0 -20 7.5t-10 19.5l-110 949q-2 20 10.5 34t32.5 14h294q28 0 30 -28l30 -396l-19 -281h13l75 281l164 379q19 45 69 45h301q29 0 31 -28l29 -396l-18 -281h12l76 281l166 385q17 39 60 39z" />
    <glyph glyph-name="Ycircumflex" unicode="&#x176;" horiz-adv-x="1296" 
d="M893 1911h163q32 0 48 -30l153 -295q5 -11 -0.5 -20.5t-17.5 -9.5h-212q-29 0 -37 28l-35 116l-87 -121q-16 -23 -43 -23h-214q-16 0 -21.5 13t4.5 25l260 299q15 18 39 18zM1153 1434h332q17 0 24 -13t-2 -27l-582 -929l-82 -441q-5 -24 -29 -24h-316q-17 0 -26.5 11.5
t-6.5 27.5l78 426l-253 925q-5 17 5 30.5t28 13.5h316q37 0 47 -36l93 -345l6 -244h8l84 244l222 351q19 30 54 30z" />
    <glyph glyph-name="ycircumflex" unicode="&#x177;" horiz-adv-x="1093" 
d="M721 1501h162q33 0 49 -30l152 -295q5 -10 0 -19.5t-17 -9.5h-213q-29 0 -37 27l-35 117l-86 -122q-16 -22 -43 -22h-214q-16 0 -21.5 12.5t4.5 24.5l260 299q15 18 39 18zM933 1024h295q15 0 22.5 -11.5t0.5 -24.5l-501 -1030q-36 -73 -74.5 -127.5t-91.5 -102
t-123.5 -72.5t-155.5 -25h-16q-101 0 -204 30q-18 5 -27 20.5t-5 34.5l36 199q3 16 15 23t28 2q90 -28 144 -28h4q71 0 101 61l13 27h-35q-12 0 -19.5 7.5t-9.5 18.5l-131 948q-3 21 9.5 35.5t33.5 14.5h270q20 0 34 -12.5t16 -32.5l36 -305l-2 -375h4l125 375l150 313
q18 37 58 37z" />
    <glyph glyph-name="Ydieresis" unicode="&#x178;" horiz-adv-x="1296" 
d="M672 1911h226q17 0 26.5 -11.5t6.5 -27.5l-48 -275q-3 -19 -16.5 -30t-32.5 -11h-226q-17 0 -26.5 11.5t-6.5 27.5l49 275q7 41 48 41zM1072 1911h226q17 0 26 -11.5t6 -27.5l-48 -275q-3 -19 -16.5 -30t-32.5 -11h-226q-17 0 -26 11.5t-6 27.5l48 275q3 19 16.5 30
t32.5 11zM1153 1434h332q17 0 24 -13t-2 -27l-582 -929l-82 -441q-5 -24 -29 -24h-316q-17 0 -26.5 11.5t-6.5 27.5l79 426l-254 925q-5 17 5 30.5t28 13.5h316q37 0 47 -36l93 -345l6 -244h8l84 244l222 351q19 30 54 30z" />
    <glyph glyph-name="Zacute" unicode="&#x179;" horiz-adv-x="1118" 
d="M985 1911h236q16 0 21.5 -13t-4.5 -25l-254 -293q-20 -24 -53 -24h-185q-14 0 -20 11.5t2 22.5l198 290q22 31 59 31zM590 328h485q17 0 26.5 -11.5t6.5 -27.5l-47 -264q-5 -25 -29 -25h-932q-16 0 -25 11t-7 27l34 214q6 35 27 60l639 794h-449q-17 0 -26.5 11.5
t-6.5 27.5l44 248q7 41 48 41h880q16 0 25.5 -11.5t7.5 -27.5l-34 -213q-6 -36 -27 -61z" />
    <glyph glyph-name="zacute" unicode="&#x17a;" horiz-adv-x="888" 
d="M785 1501h236q16 0 21.5 -12.5t-4.5 -24.5l-254 -293q-20 -24 -53 -24h-185q-14 0 -20 11t2 22l198 290q22 31 59 31zM284 1024h695q16 0 25.5 -11t7.5 -27l-27 -168q-6 -40 -32 -67l-421 -464h327q17 0 26.5 -11.5t6.5 -27.5l-40 -223q-5 -25 -29 -25h-743
q-16 0 -25.5 11t-7.5 27l27 168q6 41 32 68l421 463h-296q-17 0 -26.5 11.5t-6.5 27.5l37 207q3 19 16.5 30t32.5 11z" />
    <glyph glyph-name="Zdotaccent" unicode="&#x17b;" horiz-adv-x="1118" 
d="M757 1911h280q17 0 26 -11.5t6 -27.5l-48 -275q-3 -19 -16.5 -30t-32.5 -11h-279q-17 0 -26.5 11.5t-6.5 27.5l49 275q7 41 48 41zM591 328h484q17 0 26.5 -11.5t6.5 -27.5l-47 -264q-5 -25 -29 -25h-932q-16 0 -25 11t-7 27l34 214q6 35 27 60l639 794h-449
q-17 0 -26.5 11.5t-6.5 27.5l44 248q7 41 48 41h880q16 0 25.5 -11.5t7.5 -27.5l-34 -213q-6 -36 -27 -61z" />
    <glyph glyph-name="zdotaccent" unicode="&#x17c;" horiz-adv-x="888" 
d="M570 1501h280q17 0 26 -11.5t6 -27.5l-48 -274q-3 -19 -16.5 -30t-32.5 -11h-279q-17 0 -26.5 11.5t-6.5 27.5l49 274q7 41 48 41zM284 1024h695q16 0 25.5 -11t7.5 -27l-27 -168q-6 -41 -32 -68l-421 -463h327q17 0 26.5 -11.5t6.5 -27.5l-40 -223q-5 -25 -29 -25h-743
q-16 0 -25.5 11t-7.5 27l27 168q6 41 32 68l421 463h-296q-17 0 -26.5 11.5t-6.5 27.5l37 207q3 19 16.5 30t32.5 11z" />
    <glyph glyph-name="Zcaron" unicode="&#x17d;" horiz-adv-x="1118" 
d="M1011 1911h205q16 0 21.5 -13t-4.5 -25l-260 -299q-15 -18 -39 -18h-174q-23 0 -32 20l-158 306q-5 11 0.5 20t17.5 9h212q29 0 37 -27l35 -117l81 114q22 30 58 30zM590 328h485q17 0 26.5 -11.5t6.5 -27.5l-47 -264q-5 -25 -29 -25h-932q-16 0 -25 11t-7 27l34 214
q6 35 27 60l639 794h-449q-17 0 -26.5 11.5t-6.5 27.5l44 248q7 41 48 41h880q16 0 25.5 -11.5t7.5 -27.5l-34 -213q-6 -36 -27 -61z" />
    <glyph glyph-name="zcaron" unicode="&#x17e;" horiz-adv-x="888" 
d="M815 1501h204q16 0 21.5 -12.5t-4.5 -24.5l-259 -299q-15 -18 -40 -18h-173q-24 0 -33 20l-157 305q-5 11 0 20t17 9h213q29 0 37 -27l35 -117l81 114q22 30 58 30zM284 1024h695q16 0 25.5 -11t7.5 -27l-27 -168q-6 -40 -32 -67l-421 -464h327q17 0 26.5 -11.5
t6.5 -27.5l-40 -223q-5 -25 -29 -25h-743q-16 0 -25.5 11t-7.5 27l27 168q6 41 32 68l421 463h-296q-17 0 -26.5 11.5t-6.5 27.5l37 207q3 19 16.5 30t32.5 11z" />
    <glyph glyph-name="Acaron" unicode="&#x1cd;" horiz-adv-x="1361" 
d="M1122 1911h205q16 0 21.5 -13t-4.5 -25l-260 -299q-15 -18 -39 -18h-174q-23 0 -32 20l-158 306q-5 11 0.5 20t17.5 9h213q28 0 36 -27l35 -117l81 114q22 30 58 30zM684 1434h496q12 0 20 -8.5t10 -20.5l111 -1370q3 -18 -7.5 -26.5t-23.5 -8.5h-317q-14 0 -22.5 10
t-8.5 19l-18 272h-375l-115 -272q-5 -12 -17 -20.5t-26 -8.5h-323q-14 0 -21 10.5t-2 22.5l596 1372q5 11 17 20t26 9zM874 1133l-130 -367l-59 -137h218l-7 137l-5 367h-17z" />
    <glyph glyph-name="acaron" unicode="&#x1ce;" horiz-adv-x="1087" 
d="M925 1501h205q16 0 21.5 -12.5t-4.5 -24.5l-260 -299q-15 -18 -39 -18h-173q-24 0 -33 20l-158 305q-5 11 0.5 20t17.5 9h213q28 0 36 -27l36 -117l81 114q22 30 57 30zM585 1051h7q134 0 244 -134l40 81q13 26 41 26h250q17 0 26.5 -11.5t6.5 -27.5l-170 -960
q-5 -25 -29 -25h-259q-13 0 -21.5 8.5t-9.5 21.5l-2 58q-139 -115 -284 -115h-7q-118 0 -193 65.5t-97.5 165.5t-1.5 219l36 205q16 89 49.5 164t84.5 134t125.5 92t163.5 33zM664 764h-10q-108 0 -137 -160l-33 -184q-29 -160 81 -160h10q58 0 133 35l77 434
q-62 35 -121 35z" />
    <glyph glyph-name="Icaron" unicode="&#x1cf;" horiz-adv-x="583" 
d="M745 1911h204q16 0 21.5 -13t-4.5 -25l-259 -299q-15 -18 -40 -18h-173q-24 0 -33 20l-157 306q-5 11 0.5 20t17.5 9h212q29 0 37 -27l35 -117l81 114q22 30 58 30zM397 1434h297q17 0 26.5 -11.5t6.5 -27.5l-241 -1370q-5 -25 -30 -25h-314q-17 0 -26.5 11.5t-6.5 27.5
l239 1354q3 19 16.5 30t32.5 11z" />
    <glyph glyph-name="icaron" unicode="&#x1d0;" horiz-adv-x="487" 
d="M628 1501h205q16 0 21.5 -12.5t-4.5 -24.5l-260 -299q-15 -18 -39 -18h-174q-23 0 -32 20l-158 305q-5 11 0.5 20t17.5 9h212q29 0 37 -27l35 -117l81 114q22 30 58 30zM288 1024h279q17 0 26.5 -11.5t6.5 -27.5l-170 -960q-5 -25 -29 -25h-296q-17 0 -26.5 11.5
t-6.5 27.5l167 944q3 19 16.5 30t32.5 11z" />
    <glyph glyph-name="Ocaron" unicode="&#x1d1;" horiz-adv-x="1386" 
d="M1146 1911h205q16 0 21.5 -13t-4.5 -25l-260 -299q-15 -18 -39 -18h-174q-23 0 -32 20l-158 306q-5 11 0.5 20t17.5 9h213q28 0 36 -27l36 -117l80 114q22 30 58 30zM924 1460h31q91 0 173 -26t149 -77t111 -126t59.5 -173.5t-5.5 -219.5l-48 -270q-26 -146 -93.5 -262
t-160.5 -187.5t-201.5 -108.5t-223.5 -37h-30q-91 0 -173 26t-149 77t-111.5 126t-60 173.5t5.5 219.5l48 271q26 146 93.5 262t160.5 187t201.5 108t223.5 37zM900 1133h-14q-100 0 -164 -65t-84 -179l-61 -344q-21 -116 20.5 -180t141.5 -64h15q100 0 163 64t84 180
l61 344q20 115 -21 179.5t-141 64.5z" />
    <glyph glyph-name="ocaron" unicode="&#x1d2;" horiz-adv-x="1103" 
d="M934 1501h204q16 0 21.5 -12.5t-4.5 -24.5l-260 -299q-15 -18 -39 -18h-173q-24 0 -33 20l-157 305q-5 11 0 20t17 9h213q29 0 37 -27l35 -117l81 114q22 30 58 30zM714 1051h23q97 0 181 -33.5t143.5 -93t85.5 -151t7 -199.5l-27 -151q-19 -108 -72.5 -195t-129 -142
t-166.5 -84t-189 -29h-23q-97 0 -181 33.5t-143.5 93t-85.5 151t-7 199.5l27 151q19 108 72.5 195t129 142t166.5 84t189 29zM692 764h-11q-60 0 -100.5 -41t-54.5 -119l-32 -184q-14 -78 12.5 -119t86.5 -41h10q60 0 100.5 41t54.5 119l33 184q14 78 -12.5 119t-86.5 41z
" />
    <glyph glyph-name="Ucaron" unicode="&#x1d3;" horiz-adv-x="1345" 
d="M1126 1911h204q16 0 21.5 -13t-4.5 -25l-259 -299q-15 -18 -40 -18h-173q-24 0 -33 20l-157 306q-5 11 0.5 20t17.5 9h212q29 0 37 -27l35 -117l81 114q22 30 58 30zM1152 1434h308q17 0 26.5 -11.5t6.5 -27.5l-153 -868q-26 -146 -88.5 -255.5t-150.5 -173.5t-189 -94.5
t-215 -30.5h-31q-90 0 -168 21.5t-143 66.5t-106 114t-56 163.5t7 215.5l148 839q3 19 16.5 30t32.5 11h308q17 0 26 -11.5t6 -27.5l-153 -871q-20 -109 15 -166t122 -57h14q176 0 216 223l153 869q7 41 48 41z" />
    <glyph glyph-name="ucaron" unicode="&#x1d4;" 
d="M901 1501h204q16 0 21.5 -12.5t-4.5 -24.5l-259 -299q-15 -18 -40 -18h-173q-24 0 -33 20l-157 305q-5 11 0 20t17 9h213q29 0 37 -27l35 -117l81 114q22 30 58 30zM849 1024h295q17 0 26.5 -11.5t6.5 -27.5l-169 -960q-5 -25 -29 -25h-259q-13 0 -21.5 8.5t-9.5 21.5
l-2 61q-89 -67 -157 -92.5t-140 -25.5h-27q-136 0 -207.5 91t-44.5 242l120 677q7 41 48 41h280q17 0 26 -11.5t6 -27.5l-107 -610q-10 -61 6 -88t62 -27h10q57 0 133 35l124 704q5 25 30 25z" />
    <glyph glyph-name="Udieresismacron" unicode="&#x1d5;" horiz-adv-x="1345" 
d="M844 2234h449q17 0 26.5 -11.5t6.5 -27.5l-30 -172q-3 -19 -16.5 -30t-32.5 -11h-449q-17 0 -26.5 11.5t-6.5 27.5l30 172q3 19 16.5 30t32.5 11zM699 1911h226q17 0 26.5 -11.5t6.5 -27.5l-49 -275q-7 -41 -48 -41h-226q-17 0 -26.5 11.5t-6.5 27.5l48 275q3 19 16.5 30
t32.5 11zM1098 1911h226q17 0 26.5 -11.5t6.5 -27.5l-48 -275q-3 -19 -16.5 -30t-32.5 -11h-226q-17 0 -26.5 11.5t-6.5 27.5l49 275q7 41 48 41zM1152 1434h308q17 0 26.5 -11.5t6.5 -27.5l-153 -868q-26 -146 -88.5 -255.5t-150.5 -173.5t-189 -94.5t-215 -30.5h-31
q-90 0 -168 21.5t-143 66.5t-106 114t-56 163.5t7 215.5l148 839q3 19 16.5 30t32.5 11h308q17 0 26 -11.5t6 -27.5l-153 -871q-20 -109 15 -166t122 -57h14q176 0 216 223l153 869q7 41 48 41z" />
    <glyph glyph-name="udieresismacron" unicode="&#x1d6;" 
d="M629 1827h449q17 0 26.5 -11.5t6.5 -27.5l-30 -172q-3 -19 -16.5 -30t-32.5 -11h-449q-17 0 -26.5 11.5t-6.5 27.5l30 172q3 19 16.5 30t32.5 11zM483 1501h226q17 0 26.5 -11.5t6.5 -27.5l-48 -274q-3 -19 -16.5 -30t-32.5 -11h-226q-17 0 -26.5 11.5t-6.5 27.5l49 274
q7 41 48 41zM883 1501h226q17 0 26.5 -11.5t6.5 -27.5l-49 -274q-3 -19 -16.5 -30t-32.5 -11h-226q-17 0 -26 11.5t-6 27.5l48 274q3 19 16.5 30t32.5 11zM849 1024h295q17 0 26.5 -11.5t6.5 -27.5l-169 -960q-5 -25 -29 -25h-259q-13 0 -21.5 8.5t-9.5 21.5l-2 61
q-89 -67 -157 -92.5t-140 -25.5h-27q-136 0 -207.5 91t-44.5 242l120 677q7 41 48 41h280q17 0 26 -11.5t6 -27.5l-107 -610q-10 -61 6 -88t62 -27h10q57 0 133 35l124 704q5 25 30 25z" />
    <glyph glyph-name="Udieresisacute" unicode="&#x1d7;" horiz-adv-x="1345" 
d="M1165 2336h237q16 0 21.5 -12.5t-4.5 -24.5l-255 -293q-20 -24 -52 -24h-186q-14 0 -20 11t2 22l199 290q22 31 58 31zM699 1911h226q17 0 26.5 -11.5t6.5 -27.5l-49 -275q-7 -41 -48 -41h-226q-17 0 -26.5 11.5t-6.5 27.5l48 275q3 19 16.5 30t32.5 11zM1098 1911h226
q17 0 26.5 -11.5t6.5 -27.5l-48 -275q-3 -19 -16.5 -30t-32.5 -11h-226q-17 0 -26.5 11.5t-6.5 27.5l49 275q7 41 48 41zM1152 1434h308q17 0 26.5 -11.5t6.5 -27.5l-153 -868q-26 -146 -88.5 -255.5t-150.5 -173.5t-189 -94.5t-215 -30.5h-31q-90 0 -168 21.5t-143 66.5
t-106 114t-56 163.5t7 215.5l148 839q3 19 16.5 30t32.5 11h308q17 0 26 -11.5t6 -27.5l-153 -871q-20 -109 15 -166t122 -57h14q176 0 216 223l153 869q7 41 48 41z" />
    <glyph glyph-name="udieresisacute" unicode="&#x1d8;" 
d="M954 1930h236q16 0 22 -13t-4 -25l-255 -293q-20 -24 -52 -24h-186q-14 0 -20 11.5t2 22.5l198 290q22 31 59 31zM483 1501h226q17 0 26.5 -11.5t6.5 -27.5l-48 -274q-3 -19 -16.5 -30t-32.5 -11h-226q-17 0 -26.5 11.5t-6.5 27.5l49 274q7 41 48 41zM883 1501h226
q17 0 26.5 -11.5t6.5 -27.5l-49 -274q-3 -19 -16.5 -30t-32.5 -11h-226q-17 0 -26 11.5t-6 27.5l48 274q3 19 16.5 30t32.5 11zM849 1024h295q17 0 26.5 -11.5t6.5 -27.5l-169 -960q-5 -25 -29 -25h-259q-13 0 -21.5 8.5t-9.5 21.5l-2 61q-89 -67 -157 -92.5t-140 -25.5h-27
q-136 0 -207.5 91t-44.5 242l120 677q7 41 48 41h280q17 0 26 -11.5t6 -27.5l-107 -610q-10 -61 6 -88t62 -27h10q57 0 133 35l124 704q5 25 30 25z" />
    <glyph glyph-name="Udieresiscaron" unicode="&#x1d9;" horiz-adv-x="1345" 
d="M1201 2336h204q16 0 21.5 -12.5t-4.5 -24.5l-259 -299q-15 -18 -40 -18h-173q-24 0 -33 20l-157 305q-5 11 0.5 20t17.5 9h212q29 0 37 -27l35 -117l81 114q22 30 58 30zM699 1911h226q17 0 26.5 -11.5t6.5 -27.5l-49 -275q-7 -41 -48 -41h-226q-17 0 -26.5 11.5
t-6.5 27.5l48 275q3 19 16.5 30t32.5 11zM1098 1911h226q17 0 26.5 -11.5t6.5 -27.5l-48 -275q-3 -19 -16.5 -30t-32.5 -11h-226q-17 0 -26.5 11.5t-6.5 27.5l49 275q7 41 48 41zM1152 1434h308q17 0 26.5 -11.5t6.5 -27.5l-153 -868q-26 -146 -88.5 -255.5t-150.5 -173.5
t-189 -94.5t-215 -30.5h-31q-90 0 -168 21.5t-143 66.5t-106 114t-56 163.5t7 215.5l148 839q3 19 16.5 30t32.5 11h308q17 0 26 -11.5t6 -27.5l-153 -871q-20 -109 15 -166t122 -57h14q176 0 216 223l153 869q7 41 48 41z" />
    <glyph glyph-name="udieresiscaron" unicode="&#x1da;" 
d="M976 1930h205q16 0 21.5 -13t-4.5 -25l-260 -299q-15 -18 -39 -18h-174q-23 0 -32 20l-158 305q-5 11 0.5 20.5t17.5 9.5h213q28 0 36 -28l36 -116l81 114q22 30 57 30zM483 1501h226q17 0 26.5 -11.5t6.5 -27.5l-48 -274q-3 -19 -16.5 -30t-32.5 -11h-226
q-17 0 -26.5 11.5t-6.5 27.5l49 274q7 41 48 41zM883 1501h226q17 0 26.5 -11.5t6.5 -27.5l-49 -274q-3 -19 -16.5 -30t-32.5 -11h-226q-17 0 -26 11.5t-6 27.5l48 274q3 19 16.5 30t32.5 11zM849 1024h295q17 0 26.5 -11.5t6.5 -27.5l-169 -960q-5 -25 -29 -25h-259
q-13 0 -21.5 8.5t-9.5 21.5l-2 61q-89 -67 -157 -92.5t-140 -25.5h-27q-136 0 -207.5 91t-44.5 242l120 677q7 41 48 41h280q17 0 26 -11.5t6 -27.5l-107 -610q-10 -61 6 -88t62 -27h10q57 0 133 35l124 704q5 25 30 25z" />
    <glyph glyph-name="Udieresisgrave" unicode="&#x1db;" horiz-adv-x="1345" 
d="M756 2336h233q41 0 54 -39l96 -290q3 -10 -2.5 -17.5t-15.5 -7.5h-181q-33 0 -49 30l-152 295q-5 11 0 20t17 9zM699 1911h226q17 0 26.5 -11.5t6.5 -27.5l-49 -275q-7 -41 -48 -41h-226q-17 0 -26.5 11.5t-6.5 27.5l48 275q3 19 16.5 30t32.5 11zM1098 1911h226
q17 0 26.5 -11.5t6.5 -27.5l-48 -275q-3 -19 -16.5 -30t-32.5 -11h-226q-17 0 -26.5 11.5t-6.5 27.5l49 275q7 41 48 41zM1152 1434h308q17 0 26.5 -11.5t6.5 -27.5l-153 -868q-26 -146 -88.5 -255.5t-150.5 -173.5t-189 -94.5t-215 -30.5h-31q-90 0 -168 21.5t-143 66.5
t-106 114t-56 163.5t7 215.5l148 839q3 19 16.5 30t32.5 11h308q17 0 26 -11.5t6 -27.5l-153 -871q-20 -109 15 -166t122 -57h14q176 0 216 223l153 869q7 41 48 41z" />
    <glyph glyph-name="udieresisgrave" unicode="&#x1dc;" 
d="M545 1930h232q19 0 33.5 -11t20.5 -29l96 -290q3 -10 -2 -17.5t-15 -7.5h-182q-32 0 -48 30l-153 295q-5 11 0.5 20.5t17.5 9.5zM483 1501h226q17 0 26.5 -11.5t6.5 -27.5l-48 -274q-3 -19 -16.5 -30t-32.5 -11h-226q-17 0 -26.5 11.5t-6.5 27.5l49 274q7 41 48 41z
M883 1501h226q17 0 26.5 -11.5t6.5 -27.5l-49 -274q-3 -19 -16.5 -30t-32.5 -11h-226q-17 0 -26 11.5t-6 27.5l48 274q3 19 16.5 30t32.5 11zM849 1024h295q17 0 26.5 -11.5t6.5 -27.5l-169 -960q-5 -25 -29 -25h-259q-13 0 -21.5 8.5t-9.5 21.5l-2 61q-89 -67 -157 -92.5
t-140 -25.5h-27q-136 0 -207.5 91t-44.5 242l120 677q7 41 48 41h280q17 0 26.5 -11.5t6.5 -27.5l-108 -610q-10 -61 6 -88t62 -27h10q57 0 133 35l124 704q5 25 30 25z" />
    <glyph glyph-name="Scommaaccent" unicode="&#x218;" horiz-adv-x="1120" 
d="M548 546l63 -22q80 -29 109.5 -52.5t21.5 -66.5l-1 -6q-9 -50 -55 -77t-125 -27h-8q-73 0 -136.5 15t-217.5 69q-16 6 -29.5 -1.5t-16.5 -23.5l-44 -254q-4 -21 5.5 -39.5t28.5 -25.5q74 -28 176.5 -47t200.5 -19h14q105 0 202 27.5t179.5 80.5t140.5 139.5t77 196.5
l2 17q22 122 -9.5 209.5t-107 144t-205.5 102.5l-70 25q-71 25 -97 47t-19 62l1 6q9 50 52.5 77t109.5 27h8q67 0 130 -14t176 -51q16 -5 28 2t15 23l45 254q4 23 -6.5 41t-32.5 25q-156 46 -320 46h-12q-98 0 -191.5 -28t-174 -81.5t-138 -140.5t-76.5 -195l-4 -22
q-30 -166 51.5 -273t259.5 -170zM399 -102h287q16 0 25 -11t7 -27l-32 -199q-5 -28 -19 -45l-178 -226q-15 -20 -42 -20h-161q-15 0 -21.5 11.5t3.5 23.5l165 209h-85q-17 0 -26.5 11.5t-6.5 27.5l36 204q7 41 48 41z" />
    <glyph glyph-name="scommaaccent" unicode="&#x219;" horiz-adv-x="894" 
d="M648 1051h20q138 0 246 -34q20 -7 31 -25.5t7 -40.5l-33 -186q-3 -17 -17 -24.5t-31 -0.5q-84 35 -127 47t-85 12h-2q-94 0 -104 -54l-1 -4q-1 -6 -1 -11t0.5 -9t3 -7.5t4 -6t6 -5.5t7 -4.5t9 -4t9 -3.5t10.5 -4t11 -4l70 -25q45 -16 77.5 -31.5t64 -37t49.5 -46
t33 -58.5t14 -74t-7 -93l-3 -14q-28 -154 -166.5 -242t-323.5 -88h-12q-152 0 -274 39q-20 7 -30 24.5t-6 40.5l33 187q3 17 16.5 24.5t29.5 0.5q96 -37 146 -50.5t96 -13.5h10q106 0 117 58l1 4q3 18 -4.5 29t-19 16t-37.5 14l-70 25q-23 8 -42.5 16t-42 19.5t-40 23
t-35.5 27.5t-30.5 34t-23 41t-15.5 48.5t-5 57.5t6 67l2 10q14 83 61 149t112 105.5t138 60.5t148 21zM292 -102h286q16 0 25.5 -11t7.5 -27l-32 -199q-5 -28 -19 -45l-179 -226q-15 -20 -41 -20h-162q-15 0 -21 11.5t4 23.5l164 209h-85q-17 0 -26 11.5t-6 27.5l35 204
q3 19 16.5 30t32.5 11z" />
    <glyph glyph-name="uni021A" unicode="&#x21a;" horiz-adv-x="1210" 
d="M335 1434h1048q17 0 26 -11.5t6 -27.5l-46 -265q-5 -24 -30 -24h-349l-191 -1081q-5 -25 -29 -25h-315q-17 0 -26 11.5t-6 27.5l188 1067h-335q-17 0 -26.5 11.5t-6.5 27.5l44 248q7 41 48 41zM447 -102h287q16 0 25 -11t7 -27l-32 -199q-5 -28 -19 -45l-178 -226
q-15 -20 -42 -20h-162q-15 0 -21 11.5t4 23.5l165 209h-85q-17 0 -26.5 11.5t-6.5 27.5l36 204q7 41 48 41z" />
    <glyph glyph-name="uni021B" unicode="&#x21b;" horiz-adv-x="772" 
d="M405 1245l304 67q14 3 22.5 -5.5t6.5 -21.5l-45 -261h198q17 0 26 -11.5t6 -27.5l-37 -213q-5 -24 -30 -24h-212l-71 -400q-15 -88 55 -88h10q13 0 124 29q15 4 25.5 -5t8.5 -23l-34 -192q-5 -29 -33 -40q-138 -56 -216 -56h-23q-154 0 -233.5 88t-53.5 231l80 456h-93
q-17 0 -26.5 11t-6.5 27l28 161q6 34 37 43l109 34l32 176q6 37 42 45zM338 -102h286q16 0 25.5 -11.5t7.5 -27.5l-32 -198q-5 -28 -19 -45l-179 -226q-15 -20 -41 -20h-162q-15 0 -21 11.5t4 23.5l164 209h-85q-17 0 -26 11.5t-6 27.5l36 204q7 41 48 41z" />
    <glyph glyph-name="uni0243" unicode="&#x243;" horiz-adv-x="1316" 
d="M476 1434h513q106 0 189.5 -21.5t146 -67.5t87.5 -127t6 -191l-3 -15q-32 -176 -211 -285q78 -44 115 -129t17 -196l-2 -14q-68 -388 -547 -388h-565q-17 0 -26.5 11.5t-6.5 27.5l61 344h-102q-17 0 -26.5 11.5t-6.5 27.5l12 65q3 19 16.5 30t32.5 11h99l153 865
q7 41 48 41zM1030 977l1 6q22 123 -113 123h-162l-45 -252h162q135 0 157 123zM956 451l1 6q11 59 -17 92t-88 33h-189l-9 -54h145q17 0 26.5 -11.5t6.5 -27.5l-12 -65q-3 -19 -16.5 -30t-32.5 -11h-143l-9 -55h188q60 0 99.5 32.5t49.5 90.5z" />
    <glyph glyph-name="circumflex" unicode="&#x2c6;" horiz-adv-x="768" 
d="M631 1911h162q33 0 49 -30l153 -295q5 -11 -0.5 -20.5t-17.5 -9.5h-213q-29 0 -37 28l-35 116l-86 -121q-16 -23 -43 -23h-214q-16 0 -21.5 13t4.5 25l260 299q15 18 39 18z" />
    <glyph glyph-name="caron" unicode="&#x2c7;" horiz-adv-x="768" 
d="M827 1911h204q16 0 21.5 -13t-4.5 -25l-260 -299q-15 -18 -39 -18h-173q-24 0 -33 20l-157 306q-5 11 0 20t17 9h213q29 0 37 -27l35 -117l81 114q22 30 58 30z" />
    <glyph glyph-name="breve" unicode="&#x2d8;" horiz-adv-x="667" 
d="M928 1845q12 5 21 -2t7 -20l-32 -177q-5 -23 -22 -34q-122 -76 -279 -76q-166 0 -263 68q-27 19 -20 52l32 179q2 9 9 13.5t16 0.5q85 -35 137.5 -49t120.5 -14t126.5 13.5t146.5 45.5z" />
    <glyph glyph-name="dotaccent" unicode="&#x2d9;" horiz-adv-x="442" 
d="M419 1911h280q17 0 26 -11.5t6 -27.5l-48 -275q-3 -19 -16.5 -30t-32.5 -11h-279q-17 0 -26.5 11.5t-6.5 27.5l49 275q7 41 48 41z" />
    <glyph glyph-name="ring" unicode="&#x2da;" horiz-adv-x="501" 
d="M570 1935q95 0 151 -70t39 -166q-13 -77 -76.5 -130t-141.5 -53q-96 0 -152.5 70t-39.5 168q14 76 77.5 128.5t142.5 52.5zM565 1778q-22 0 -40 -15t-22 -37t9 -37.5t35 -15.5t39.5 15.5t21.5 37.5t-8.5 37t-34.5 15z" />
    <glyph glyph-name="ogonek" unicode="&#x2db;" horiz-adv-x="419" 
d="M190 0h195q-12 -11 -43.5 -38t-52 -45.5t-40.5 -47.5t-24 -55q-6 -33 10.5 -53.5t51.5 -20.5q14 0 25 2t17.5 -5t5.5 -17l-17 -98q-5 -28 -27 -38q-49 -24 -115 -24q-95 0 -145.5 58t-30.5 149q30 137 190 233z" />
    <glyph glyph-name="tilde" unicode="&#x2dc;" horiz-adv-x="718" 
d="M869 1839h95q13 0 18 -10t-1 -21q-86 -160 -145 -216t-133 -56h-8q-31 0 -54.5 12t-35.5 27t-31.5 27t-43.5 12q-20 0 -33 -8t-34 -29q-14 -14 -36 -14h-95q-13 0 -18 10t1 21q86 160 145 216t133 56h8q32 0 57 -12t38 -27t31.5 -27t38.5 -12q27 0 67 37q14 14 36 14z
" />
    <glyph glyph-name="hungarumlaut" unicode="&#x2dd;" horiz-adv-x="874" 
d="M584 1911h203q16 0 21.5 -13t-4.5 -25l-256 -293q-21 -24 -52 -24h-151q-14 0 -20 11.5t2 22.5l198 290q22 31 59 31zM934 1911h204q16 0 21.5 -13t-4.5 -25l-255 -293q-19 -24 -52 -24h-153q-14 0 -20 11.5t2 22.5l198 290q22 31 59 31z" />
    <glyph glyph-name="uni0326" unicode="&#x326;" horiz-adv-x="0" 
d="M71 -102h287q16 0 25 -11t7 -27l-32 -199q-5 -28 -19 -45l-178 -226q-15 -20 -42 -20h-161q-15 0 -21.5 11.5t3.5 23.5l165 209h-85q-17 0 -26.5 11.5t-6.5 27.5l36 204q7 41 48 41z" />
    <glyph glyph-name="uni0401" unicode="&#x401;" horiz-adv-x="1093" 
d="M588 1911h226q17 0 26.5 -11.5t6.5 -27.5l-48 -275q-3 -19 -16.5 -30t-32.5 -11h-226q-17 0 -26.5 11.5t-6.5 27.5l48 275q3 19 16.5 30t32.5 11zM987 1911h227q17 0 26 -11.5t6 -27.5l-48 -275q-3 -19 -16.5 -30t-32.5 -11h-226q-17 0 -26.5 11.5t-6.5 27.5l49 275
q7 41 48 41zM638 891h460q17 0 26.5 -11.5t6.5 -27.5l-46 -264q-5 -25 -30 -25h-474l-42 -235h522q17 0 26 -11.5t6 -27.5l-46 -264q-5 -25 -30 -25h-875q-17 0 -26.5 11.5t-6.5 27.5l239 1354q3 19 16.5 30t32.5 11h859q17 0 26 -11.5t6 -27.5l-46 -265q-5 -24 -30 -24
h-536z" />
    <glyph glyph-name="uni0404" unicode="&#x404;" horiz-adv-x="1142" 
d="M1298 1405q38 -18 30 -61l-43 -245q-3 -17 -17 -24.5t-31 -0.5q-79 34 -129.5 46.5t-117.5 12.5h-8q-118 0 -206.5 -65t-130.5 -179h385q17 0 26.5 -11.5t6.5 -27.5l-46 -264q-5 -25 -30 -25h-402q-4 -122 62 -191t188 -69h9q109 0 250 52q23 9 40 -4.5t12 -37.5
l-41 -237q-5 -28 -30 -39q-136 -62 -319 -62h-30q-180 0 -311 87t-187 241t-22 343l30 172q27 155 99.5 280t172 203t217 119.5t240.5 41.5h31q176 0 302 -55z" />
    <glyph glyph-name="uni0406" unicode="&#x406;" horiz-adv-x="583" 
d="M397 1434h297q17 0 26.5 -11.5t6.5 -27.5l-241 -1370q-5 -25 -30 -25h-314q-17 0 -26.5 11.5t-6.5 27.5l239 1354q3 19 16.5 30t32.5 11z" />
    <glyph glyph-name="uni0407" unicode="&#x407;" horiz-adv-x="583" 
d="M318 1911h226q17 0 26 -11.5t6 -27.5l-48 -275q-3 -19 -16.5 -30t-32.5 -11h-226q-17 0 -26 11.5t-6 27.5l48 275q3 19 16.5 30t32.5 11zM717 1911h226q17 0 26.5 -11.5t6.5 -27.5l-49 -275q-7 -41 -48 -41h-226q-17 0 -26.5 11.5t-6.5 27.5l48 275q3 19 16.5 30t32.5 11
zM397 1434h297q17 0 26.5 -11.5t6.5 -27.5l-241 -1370q-5 -25 -30 -25h-314q-17 0 -26.5 11.5t-6.5 27.5l239 1354q3 19 16.5 30t32.5 11z" />
    <glyph glyph-name="uni040E" unicode="&#x40e;" horiz-adv-x="1368" 
d="M1283 1845q12 5 21 -2t7 -20l-31 -177q-5 -22 -23 -34q-122 -76 -279 -76q-166 0 -263 68q-26 18 -19 52l31 179q2 9 9 13.5t16 0.5q85 -35 138 -49t121 -14t126 13.5t146 45.5zM1223 1434h333q17 0 24 -13t-2 -27l-632 -1017q-139 -211 -260.5 -307.5t-279.5 -96.5h-10
q-74 0 -151 23q-33 11 -27 44l47 264q2 11 11 15.5t20 0.5q50 -17 71 -17h10q54 0 94 22.5t81 84.5l3 4l-269 991q-3 12 3.5 20.5t18.5 8.5h351q18 0 23 -18l119 -439l6 -244h8l84 244l271 427q19 30 53 30z" />
    <glyph glyph-name="uni0410" unicode="&#x410;" horiz-adv-x="1361" 
d="M684 1434h496q12 0 20 -8.5t10 -20.5l111 -1370q3 -18 -7.5 -26.5t-23.5 -8.5h-317q-14 0 -22.5 10t-8.5 19l-18 272h-375l-115 -272q-5 -12 -17 -20.5t-26 -8.5h-323q-14 0 -21 10.5t-2 22.5l596 1372q5 11 17 20t26 9zM874 1133l-130 -367l-59 -137h218l-7 137l-5 367
h-17z" />
    <glyph glyph-name="uni0411" unicode="&#x411;" horiz-adv-x="1206" 
d="M397 1434h857q17 0 26 -11.5t6 -27.5l-46 -265q-5 -24 -30 -24h-534l-35 -199h140q254 0 373.5 -117t78.5 -351l-3 -14q-19 -110 -72 -193.5t-130 -133t-168.5 -74t-196.5 -24.5h-521q-17 0 -26.5 11.5t-6.5 27.5l239 1354q3 19 16.5 30t32.5 11zM587 600l-48 -272h119
q165 0 188 127l3 18q11 61 -24.5 94t-122.5 33h-115z" />
    <glyph glyph-name="uni0412" unicode="&#x412;" horiz-adv-x="1236" 
d="M397 1434h512q106 0 189.5 -21.5t146 -67.5t87.5 -127t6 -191l-2 -15q-32 -175 -212 -285q78 -45 115.5 -129.5t17.5 -195.5l-3 -14q-68 -388 -546 -388h-566q-17 0 -26.5 11.5t-6.5 27.5l239 1354q3 19 16.5 30t32.5 11zM676 1106l-44 -252h162q135 0 157 123l1 6
q22 123 -114 123h-162zM584 582l-45 -254h188q60 0 99.5 32.5t49.5 90.5l1 6q11 59 -17 92t-88 33h-188z" />
    <glyph glyph-name="uni0413" unicode="&#x413;" horiz-adv-x="1021" 
d="M397 1434h797q17 0 26.5 -11.5t6.5 -27.5l-47 -265q-5 -24 -29 -24h-475l-190 -1081q-5 -25 -30 -25h-314q-17 0 -26.5 11.5t-6.5 27.5l239 1354q3 19 16.5 30t32.5 11z" />
    <glyph glyph-name="uni0414" unicode="&#x414;" horiz-adv-x="1589" 
d="M661 1434h894q17 0 26 -11.5t6 -27.5l-188 -1067h167q17 0 26.5 -11.5t6.5 -27.5l-92 -522q-5 -25 -29 -25h-314q-17 0 -26.5 11.5t-6.5 27.5l38 219h-749l-41 -233q-5 -25 -30 -25h-314q-17 0 -26.5 11.5t-6.5 27.5l92 522q5 25 30 25h188q44 35 64 118l238 951
q10 37 47 37zM921 1106l-163 -641q-22 -83 -44 -137h306l138 778h-237z" />
    <glyph glyph-name="uni0415" unicode="&#x415;" horiz-adv-x="1093" 
d="M638 891h460q17 0 26.5 -11.5t6.5 -27.5l-46 -264q-5 -25 -30 -25h-474l-42 -235h522q17 0 26 -11.5t6 -27.5l-46 -264q-5 -25 -30 -25h-875q-17 0 -26.5 11.5t-6.5 27.5l239 1354q3 19 16.5 30t32.5 11h859q17 0 26 -11.5t6 -27.5l-46 -265q-5 -24 -30 -24h-536z" />
    <glyph glyph-name="uni0416" unicode="&#x416;" horiz-adv-x="2054" 
d="M1870 1434h341q18 0 25 -14t-4 -29l-472 -662l253 -697q5 -13 -2 -22.5t-20 -9.5h-338q-47 0 -63 44l-183 509h-93l-94 -528q-5 -25 -29 -25h-314q-17 0 -26.5 11.5t-6.5 27.5l91 514h-85l-376 -527q-18 -26 -50 -26h-351q-18 0 -25 14t3 29l499 686l-235 673q-4 12 3 22
t20 10h327q46 0 63 -45l178 -508h86l94 528q5 25 29 25h314q17 0 26.5 -11.5t6.5 -27.5l-91 -514h78l371 526q19 27 50 27z" />
    <glyph glyph-name="uni0417" unicode="&#x417;" horiz-adv-x="1062" 
d="M697 1460h12q107 0 195.5 -24.5t155.5 -73.5t96 -132.5t10 -192.5l-2 -12q-31 -178 -220 -295q82 -43 120.5 -129t18.5 -199l-3 -14q-19 -110 -76.5 -192t-142.5 -129.5t-184 -70.5t-212 -23h-12q-165 0 -323 49q-18 5 -26.5 20.5t-5.5 34.5l48 276q2 11 10.5 16t18.5 1
q124 -41 181.5 -55t120.5 -14h10q82 0 142 37.5t72 105.5l1 7q11 63 -28 97t-104 34h-178q-17 0 -26.5 11.5t-6.5 27.5l37 208q5 25 29 25h166q73 0 124.5 35t62.5 96l3 16q10 58 -29.5 95t-113.5 37h-10q-60 0 -125 -14t-195 -52q-15 -4 -25 4.5t-8 23.5l48 271q6 33 36 42
q173 52 338 52z" />
    <glyph glyph-name="uni0418" unicode="&#x418;" horiz-adv-x="1384" 
d="M1152 1434h347q17 0 26.5 -11.5t6.5 -27.5l-242 -1370q-5 -25 -29 -25h-314q-17 0 -26.5 11.5t-6.5 27.5l95 547l84 266h-24l-147 -266l-385 -559q-19 -27 -52 -27h-347q-17 0 -26.5 11.5t-6.5 27.5l239 1354q3 19 16.5 30t32.5 11h297q17 0 26.5 -11.5t6.5 -27.5
l-95 -547l-84 -266h24l147 266l386 559q19 27 51 27z" />
    <glyph glyph-name="uni0419" unicode="&#x419;" horiz-adv-x="1384" 
d="M1292 1845q12 5 21 -2t7 -20l-31 -177q-5 -22 -23 -34q-122 -76 -279 -76q-166 0 -263 68q-27 19 -20 52l32 179q2 9 9 13.5t16 0.5q85 -35 137.5 -49t120.5 -14t126.5 13.5t146.5 45.5zM1152 1434h347q17 0 26.5 -11.5t6.5 -27.5l-242 -1370q-5 -25 -29 -25h-314
q-17 0 -26.5 11.5t-6.5 27.5l95 547l84 266h-24l-147 -266l-385 -559q-19 -27 -52 -27h-347q-17 0 -26.5 11.5t-6.5 27.5l239 1354q3 19 16.5 30t32.5 11h297q17 0 26.5 -11.5t6.5 -27.5l-95 -547l-84 -266h24l147 266l386 559q19 27 51 27z" />
    <glyph glyph-name="uni041A" unicode="&#x41a;" horiz-adv-x="1318" 
d="M1026 729l252 -697q5 -13 -2 -22.5t-20 -9.5h-338q-46 0 -62 44l-184 509h-93l-93 -528q-5 -25 -30 -25h-314q-17 0 -26.5 11.5t-6.5 27.5l239 1354q3 19 16.5 30t32.5 11h297q17 0 26.5 -11.5t6.5 -27.5l-90 -514h77l371 526q19 27 50 27h341q18 0 25 -14t-3 -29z" />
    <glyph glyph-name="uni041B" unicode="&#x41b;" horiz-adv-x="1406" 
d="M636 1434h886q17 0 26.5 -11.5t6.5 -27.5l-242 -1370q-5 -25 -29 -25h-315q-17 0 -26 11.5t-6 27.5l188 1067h-236l-165 -655q-34 -134 -85.5 -228.5t-118.5 -148t-141.5 -77.5t-164.5 -24h-11q-63 0 -130 22q-14 5 -21.5 17.5t-4.5 27.5l47 264q2 11 11 15.5t20 0.5
q50 -17 71 -17h10q102 0 136 143l237 944q5 20 20.5 32t36.5 12z" />
    <glyph glyph-name="uni041C" unicode="&#x41c;" horiz-adv-x="1658" 
d="M1360 1434h410q17 0 26 -11.5t6 -27.5l-241 -1370q-5 -25 -29 -25h-324q-17 0 -26.5 12t-6.5 28l116 615l109 267h-44l-143 -267l-186 -275q-12 -20 -37 -20h-178q-36 0 -46 35l-78 260l-57 267h-34l-6 -267l-100 -630q-1 -11 -9.5 -18t-19.5 -7h-324q-17 0 -26.5 11.5
t-6.5 27.5l239 1354q3 19 16.5 30t32.5 11l387 -1q37 0 47 -37l137 -552h17l340 568q13 22 39 22z" />
    <glyph glyph-name="uni041D" unicode="&#x41d;" horiz-adv-x="1380" 
d="M1193 1434h298q17 0 26.5 -11.5t6.5 -27.5l-242 -1370q-5 -25 -29 -25h-314q-17 0 -26.5 11.5t-6.5 27.5l92 524h-417l-95 -538q-5 -25 -30 -25h-314q-17 0 -26.5 11.5t-6.5 27.5l239 1354q3 19 16.5 30t32.5 11h297q17 0 26.5 -11.5t6.5 -27.5l-89 -504h418l89 502
q7 41 48 41z" />
    <glyph glyph-name="uni041E" unicode="&#x41e;" horiz-adv-x="1386" 
d="M924 1460h31q91 0 173 -26t149 -77t111 -126t59.5 -173.5t-5.5 -219.5l-47 -270q-26 -146 -93.5 -262t-161 -187.5t-202 -108.5t-223.5 -37h-30q-91 0 -173 26t-149 77t-111.5 126t-60 173.5t5.5 219.5l48 271q26 146 93.5 262t160.5 187t201.5 108t223.5 37zM900 1133
h-14q-100 0 -164 -65t-84 -179l-61 -344q-21 -116 20.5 -180t141.5 -64h14q100 0 163.5 64t84.5 180l61 344q20 115 -21 179.5t-141 64.5z" />
    <glyph glyph-name="uni041F" unicode="&#x41f;" horiz-adv-x="1370" 
d="M397 1434h1084q17 0 26.5 -11.5t6.5 -27.5l-242 -1370q-5 -25 -29 -25h-315q-17 0 -26 11.5t-6 27.5l188 1067h-408l-190 -1081q-5 -25 -30 -25h-314q-17 0 -26.5 11.5t-6.5 27.5l239 1354q3 19 16.5 30t32.5 11z" />
    <glyph glyph-name="uni0420" unicode="&#x420;" horiz-adv-x="1261" 
d="M397 1434h510q105 0 191 -29t148 -86.5t87 -152t4 -215.5l-2 -14q-18 -100 -58.5 -180t-96.5 -134.5t-128 -91.5t-150.5 -53.5t-165.5 -16.5h-173l-77 -436q-5 -25 -30 -25h-314q-17 0 -26.5 11.5t-6.5 27.5l239 1354q3 19 16.5 30t32.5 11zM937 930l3 18
q14 81 -22 119.5t-126 38.5h-123l-59 -334h119q180 0 208 158z" />
    <glyph glyph-name="uni0421" unicode="&#x421;" horiz-adv-x="1142" 
d="M965 1460h31q176 0 302 -55q39 -18 31 -61l-44 -245q-3 -17 -17 -24.5t-31 -0.5q-79 34 -129.5 46.5t-117.5 12.5h-8q-139 0 -236 -88.5t-123 -239.5l-31 -176q-26 -151 39 -239.5t204 -88.5h9q68 0 123.5 13t147.5 47q16 6 27 -3t8 -25l-43 -243q-8 -45 -46 -60
q-140 -57 -305 -57h-30q-124 0 -229.5 45t-180 127.5t-105.5 212t-4 287.5l29 172q25 151 96.5 274.5t171 203t218 122.5t243.5 43z" />
    <glyph glyph-name="uni0422" unicode="&#x422;" horiz-adv-x="1210" 
d="M335 1434h1048q17 0 26 -11.5t6 -27.5l-46 -265q-5 -24 -30 -24h-349l-191 -1081q-5 -25 -29 -25h-315q-17 0 -26 11.5t-6 27.5l188 1067h-335q-17 0 -26.5 11.5t-6.5 27.5l44 248q7 41 48 41z" />
    <glyph glyph-name="uni0423" unicode="&#x423;" horiz-adv-x="1368" 
d="M1223 1434h333q17 0 24 -13t-2 -27l-632 -1017q-139 -211 -260.5 -307.5t-279.5 -96.5h-10q-77 0 -151 22q-15 5 -22.5 17.5t-4.5 27.5l47 264q2 11 11 15.5t20 0.5q50 -17 71 -17h10q54 0 94 22.5t81 84.5l3 4l-269 991q-3 12 3.5 20.5t18.5 8.5h351q18 0 23 -18
l119 -439l6 -244h8l84 244l271 427q19 30 53 30z" />
    <glyph glyph-name="uni0424" unicode="&#x424;" horiz-adv-x="1873" 
d="M1042 1434h298q17 0 26 -11.5t6 -27.5l-15 -84h59q91 0 173.5 -25.5t149 -74.5t112 -120.5t62 -163t-2.5 -201.5l-3 -17q-24 -133 -90 -241t-158.5 -176t-201 -104t-223.5 -36h-81l-22 -127q-5 -25 -30 -25h-314q-17 0 -26.5 11.5t-6.5 27.5l20 113h-58
q-91 0 -173.5 25.5t-149 74.5t-112 120.5t-62 163t2.5 201.5l3 16q31 177 136 306t244 190.5t293 61.5h81l14 82q3 19 16.5 30t32.5 11zM921 983h-62q-99 0 -162.5 -62t-81.5 -165l-9 -49q-18 -104 24 -166t141 -62h61zM1300 983l-89 -504h61q99 0 162.5 62t82.5 166l9 49
q18 103 -24 165t-141 62h-61z" />
    <glyph glyph-name="uni0425" unicode="&#x425;" horiz-adv-x="1361" 
d="M1193 1434h332q18 0 25.5 -14.5t-3.5 -28.5l-467 -662l241 -698q4 -12 -2.5 -21.5t-19.5 -9.5h-334q-47 0 -63 45l-91 266l-29 197h-16l-92 -197l-199 -278q-24 -33 -64 -33h-338q-18 0 -25 13.5t3 28.5l487 687l-229 674q-4 12 2.5 21.5t19.5 9.5h328q47 0 63 -45
l84 -246l31 -197h17l90 197l184 257q24 34 65 34z" />
    <glyph glyph-name="uni0426" unicode="&#x426;" horiz-adv-x="1497" 
d="M1148 1434h314q17 0 26.5 -11.5t6.5 -27.5l-188 -1067h167q17 0 26.5 -11.5t6.5 -27.5l-92 -522q-5 -25 -29 -25h-315q-17 0 -26 11.5t-6 27.5l38 219h-935q-17 0 -26.5 11.5t-6.5 27.5l239 1354q3 19 16.5 30t32.5 11h297q17 0 26.5 -11.5t6.5 -27.5l-188 -1067h389
l191 1081q5 25 29 25z" />
    <glyph glyph-name="uni0427" unicode="&#x427;" horiz-adv-x="1294" 
d="M1091 1434h314q17 0 26.5 -11.5t6.5 -27.5l-242 -1370q-5 -25 -29 -25h-313q-17 0 -26.5 11.5t-6.5 28.5l83 417q-123 -49 -260 -49h-30q-188 0 -296 130t-68 356l88 499q3 19 16.5 30t32.5 11h307q17 0 26.5 -11.5t6.5 -27.5l-88 -500q-14 -83 13 -121.5t98 -38.5h10
q94 0 190 39l112 635q5 25 29 25z" />
    <glyph glyph-name="uni0428" unicode="&#x428;" horiz-adv-x="1923" 
d="M1720 1434h314q17 0 26.5 -11.5t6.5 -27.5l-242 -1370q-5 -25 -29 -25h-1654q-17 0 -26.5 11.5t-6.5 27.5l239 1354q3 19 16.5 30t32.5 11h297q17 0 26.5 -11.5t6.5 -27.5l-188 -1067h291l191 1081q5 25 29 25h314q17 0 26.5 -11.5t6.5 -27.5l-188 -1067h291l190 1081
q5 25 30 25z" />
    <glyph glyph-name="uni0429" unicode="&#x429;" horiz-adv-x="2068" 
d="M1720 1434h314q17 0 26.5 -11.5t6.5 -27.5l-189 -1067h168q17 0 26 -11.5t6 -27.5l-92 -522q-5 -25 -29 -25h-314q-17 0 -26.5 11.5t-6.5 27.5l39 219h-1507q-17 0 -26.5 11.5t-6.5 27.5l239 1354q3 19 16.5 30t32.5 11h297q17 0 26.5 -11.5t6.5 -27.5l-188 -1067h291
l191 1081q5 25 29 25h314q17 0 26.5 -11.5t6.5 -27.5l-188 -1067h291l190 1081q5 25 30 25z" />
    <glyph glyph-name="uni042A" unicode="&#x42a;" horiz-adv-x="1398" 
d="M335 1434h511q17 0 26.5 -11.5t6.5 -27.5l-86 -488h140q254 0 373 -117t78 -351l-2 -14q-19 -110 -72 -193.5t-130.5 -133t-169 -74t-196.5 -24.5h-520q-17 0 -26.5 11.5t-6.5 27.5l188 1067h-173q-17 0 -26.5 11.5t-6.5 27.5l44 248q7 41 48 41zM739 600l-48 -272h118
q166 0 189 127l3 18q11 61 -25 94t-123 33h-114z" />
    <glyph glyph-name="uni042B" unicode="&#x42b;" horiz-adv-x="1742" 
d="M1556 1434h298q17 0 26 -11.5t6 -27.5l-241 -1370q-5 -25 -29 -25h-315q-17 0 -26.5 11.5t-6.5 27.5l239 1354q3 19 16.5 30t32.5 11zM397 1434h297q17 0 26.5 -11.5t6.5 -27.5l-86 -488h140q254 0 373 -117t78 -351l-2 -14q-19 -110 -72 -193.5t-130 -133t-168.5 -74
t-196.5 -24.5h-521q-17 0 -26.5 11.5t-6.5 27.5l239 1354q3 19 16.5 30t32.5 11zM587 600l-48 -272h119q165 0 188 127l3 18q11 61 -24.5 94t-122.5 33h-115z" />
    <glyph glyph-name="uni042C" unicode="&#x42c;" horiz-adv-x="1247" 
d="M397 1434h297q17 0 26.5 -11.5t6.5 -27.5l-86 -488h140q254 0 373.5 -117t78.5 -351l-3 -14q-19 -110 -72 -193.5t-130 -133t-168.5 -74t-196.5 -24.5h-521q-17 0 -26.5 11.5t-6.5 27.5l239 1354q3 19 16.5 30t32.5 11zM587 600l-48 -272h119q165 0 188 127l3 18
q11 61 -24.5 94t-122.5 33h-115z" />
    <glyph glyph-name="uni042D" unicode="&#x42d;" horiz-adv-x="1155" 
d="M639 1460h31q99 0 189 -28.5t162.5 -84t121 -137t65 -187t-5.5 -234.5l-30 -172q-27 -155 -100.5 -280t-175 -203t-220.5 -119.5t-245 -41.5h-31q-184 0 -304 55q-36 17 -29 60l44 247q3 17 17.5 24.5t30.5 0.5q73 -32 125.5 -45.5t121.5 -13.5h8q127 0 220.5 69.5
t133.5 190.5h-400q-17 0 -26.5 11.5t-6.5 27.5l47 264q5 25 29 25h412q-2 114 -71 179t-191 65h-9q-64 0 -116 -11.5t-133 -41.5q-23 -9 -40.5 5t-12.5 38l41 235q5 27 31 39q144 63 317 63z" />
    <glyph glyph-name="uni042E" unicode="&#x42e;" horiz-adv-x="1908" 
d="M1446 1460h31q91 0 173 -26t149 -77t111 -126t59.5 -173.5t-5.5 -219.5l-47 -270q-26 -146 -93.5 -262t-160.5 -187.5t-201.5 -108.5t-223.5 -37h-31q-111 0 -207.5 39t-167 111t-103.5 185t-15 251h-134l-94 -534q-5 -25 -30 -25h-314q-17 0 -26.5 11.5t-6.5 27.5
l239 1354q3 19 16.5 30t32.5 11h297q17 0 26.5 -11.5t6.5 -27.5l-89 -508h133q28 141 96 252.5t160 180.5t199 104.5t220 35.5zM1523 545l61 344q20 115 -21 179.5t-141 64.5h-14q-100 0 -164 -65t-84 -179l-60 -344q-21 -116 20 -180t141 -64h15q100 0 163 64t84 180z" />
    <glyph glyph-name="uni042F" unicode="&#x42f;" horiz-adv-x="1312" 
d="M861 1434h562q17 0 26.5 -11.5t6.5 -27.5l-242 -1370q-5 -25 -29 -25h-314q-17 0 -26.5 11.5t-6.5 27.5l84 475h-100l-348 -488q-18 -26 -50 -26h-352q-18 0 -25.5 14t3.5 28l234 331l194 208q-100 58 -147.5 166.5t-21.5 253.5l3 14q20 112 70 194.5t123.5 130.5t162 71
t193.5 23zM1026 1106h-149q-159 0 -185 -141l-2 -11q-26 -141 135 -141h149z" />
    <glyph glyph-name="uni0430" unicode="&#x430;" horiz-adv-x="1087" 
d="M585 1051h7q134 0 244 -134l40 81q13 26 41 26h250q17 0 26.5 -11.5t6.5 -27.5l-170 -960q-5 -25 -29 -25h-259q-13 0 -21.5 8.5t-9.5 21.5l-2 58q-139 -115 -284 -115h-7q-118 0 -193 65.5t-97.5 165.5t-1.5 219l36 205q16 89 49.5 164t84.5 134t125.5 92t163.5 33z
M664 764h-10q-108 0 -137 -160l-33 -184q-29 -160 81 -160h10q58 0 133 35l77 434q-62 35 -121 35z" />
    <glyph glyph-name="uni0431" unicode="&#x431;" horiz-adv-x="1091" 
d="M1219 1528q17 6 28 -4t8 -27l-36 -199q-4 -26 -14.5 -38t-35.5 -27q-22 -12 -49 -22t-52 -16t-54.5 -10t-52.5 -6t-49 -3t-41 -1t-32.5 0.5t-19.5 0.5h-10q-186 0 -218 -181l-12 -66q116 85 240 85h22q118 0 194.5 -65t101 -166t3.5 -219l-25 -141q-19 -108 -72.5 -195
t-129 -142t-166.5 -84t-189 -29h-23q-97 0 -179 33.5t-139 93.5t-81 151t-5 199l78 442q53 298 212.5 434t457.5 136h10q102 0 168 14.5t162 51.5zM681 727h-11q-58 0 -133 -35l-48 -272q-29 -160 87 -160h10q60 0 100.5 41t54.5 119l26 147q14 78 -8.5 119t-77.5 41z" />
    <glyph glyph-name="uni0432" unicode="&#x432;" horiz-adv-x="1036" 
d="M284 1024h448q191 0 286.5 -82.5t70.5 -223.5l-2 -13q-22 -127 -155 -194q56 -25 87 -83t19 -126l-2 -12q-25 -142 -136.5 -216t-302.5 -74h-496q-17 0 -26.5 11.5t-6.5 27.5l167 944q3 19 16.5 30t32.5 11zM558 770l-28 -158h98q82 0 94 70l3 14q13 74 -69 74h-98z
M496 420l-29 -166h112q82 0 95 74l3 14q14 78 -68 78h-113z" />
    <glyph glyph-name="uni0433" unicode="&#x433;" horiz-adv-x="821" 
d="M284 1024h658q17 0 26 -11.5t6 -27.5l-37 -213q-5 -24 -29 -24h-354l-128 -723q-5 -25 -29 -25h-296q-17 0 -26.5 11.5t-6.5 27.5l167 944q3 19 16.5 30t32.5 11z" />
    <glyph glyph-name="uni0434" unicode="&#x434;" horiz-adv-x="1357" 
d="M509 1024h779q17 0 26.5 -11.5t6.5 -27.5l-125 -709h150q17 0 26.5 -11.5t6.5 -27.5l-83 -470q-5 -25 -29 -25h-296q-17 0 -26.5 11.5t-6.5 27.5l39 219h-596l-41 -233q-5 -25 -30 -25h-295q-17 0 -26.5 11.5t-6.5 27.5l83 471q5 24 29 24h133q46 11 66 86l159 618
q5 20 20.5 32t36.5 12zM744 748l-67 -265q-30 -122 -77 -207h235l83 472h-174z" />
    <glyph glyph-name="uni0435" unicode="&#x435;" horiz-adv-x="1042" 
d="M706 1051h23q91 0 166.5 -30.5t128.5 -86.5t74 -144.5t2 -196.5l-23 -134q-1 -11 -9.5 -18t-19.5 -7h-548l-2 -12q-16 -86 27 -127t127 -41h11q88 0 299 67q15 5 25.5 -4t7.5 -24l-36 -205q-8 -43 -45 -55q-175 -60 -346 -60h-23q-225 0 -337.5 138t-72.5 365l18 99
q20 114 73 206t127.5 150t164.5 89t188 31zM682 791h-6q-106 0 -143 -154h239q35 154 -90 154z" />
    <glyph glyph-name="uni0436" unicode="&#x436;" horiz-adv-x="1699" 
d="M1472 1024h311q18 0 25.5 -14t-3.5 -28l-314 -445l191 -505q4 -13 -2.5 -22.5t-20.5 -9.5h-331q-33 0 -44 31l-132 354h-54l-64 -360q-5 -25 -29 -25h-296q-17 0 -26.5 11.5t-6.5 27.5l61 346h-45l-261 -359q-19 -26 -50 -26h-330q-19 0 -25.5 14t4.5 29l367 494
l-153 456q-4 12 3 21.5t20 9.5h312q33 0 45 -33l109 -329h53l60 337q5 25 29 25h296q17 0 26.5 -11.5t6.5 -27.5l-57 -323h45l229 335q19 27 51 27z" />
    <glyph glyph-name="uni0437" unicode="&#x437;" horiz-adv-x="862" 
d="M530 1051h19q193 0 294 -83.5t76 -225.5l-2 -12q-26 -146 -162 -216q58 -25 89 -86.5t18 -137.5l-2 -13q-54 -304 -478 -304h-31q-153 0 -259 37q-36 12 -29 54l36 207q3 17 17.5 24.5t30.5 0.5q81 -35 118.5 -46.5t85.5 -11.5h14q49 0 88 22.5t46 61.5l2 8
q6 34 -11 53.5t-58 19.5h-127q-17 0 -26 11.5t-6 27.5l29 166q5 25 29 25h127q41 0 64.5 19t29.5 50l1 9q6 35 -17 55t-66 20h-10q-46 0 -86.5 -10.5t-119.5 -40.5q-24 -9 -41.5 4.5t-12.5 37.5l34 191q5 32 34 42q114 41 262 41z" />
    <glyph glyph-name="uni0438" unicode="&#x438;" horiz-adv-x="1112" 
d="M860 1024h332q17 0 26 -11.5t6 -27.5l-169 -960q-5 -25 -29 -25h-296q-17 0 -26.5 11.5t-6.5 27.5l52 299l44 178h-30l-73 -158l-204 -328q-19 -30 -53 -30h-332q-17 0 -26.5 11.5t-6.5 27.5l167 944q3 19 16.5 30t32.5 11h279q17 0 26.5 -11.5t6.5 -27.5l-52 -299
l-44 -178h29l73 158l205 328q19 30 53 30z" />
    <glyph glyph-name="uni0439" unicode="&#x439;" horiz-adv-x="1112" 
d="M1086 1436q12 5 21 -2.5t7 -20.5l-31 -176q-5 -23 -23 -35q-122 -76 -279 -76q-165 0 -263 69q-26 18 -19 51l31 180q2 9 9 13t16 0q85 -35 138 -49t121 -14t125 13.5t147 46.5zM860 1024h332q17 0 26 -11.5t6 -27.5l-169 -960q-5 -25 -29 -25h-296q-17 0 -26.5 11.5
t-6.5 27.5l52 299l44 178h-30l-73 -158l-204 -328q-19 -30 -53 -30h-332q-17 0 -26.5 11.5t-6.5 27.5l167 944q3 19 16.5 30t32.5 11h279q17 0 26.5 -11.5t6.5 -27.5l-52 -299l-44 -178h29l73 158l205 328q19 30 53 30z" />
    <glyph glyph-name="uni043A" unicode="&#x43a;" horiz-adv-x="1110" 
d="M287 1024h280q17 0 26 -11.5t6 -27.5l-56 -323h59l229 335q19 27 51 27h312q18 0 25.5 -14t-3.5 -28l-315 -445l191 -505q5 -13 -2 -22.5t-20 -9.5h-319q-45 0 -61 43l-128 342h-68l-64 -360q-5 -25 -29 -25h-296q-17 0 -26.5 11.5t-6.5 27.5l166 944q3 19 16.5 30
t32.5 11z" />
    <glyph glyph-name="uni043B" unicode="&#x43b;" horiz-adv-x="1163" 
d="M243 348l162 625q6 23 23.5 37t41.5 14h773q17 0 26 -11.5t6 -27.5l-169 -960q-5 -25 -29 -25h-296q-17 0 -26.5 11.5t-6.5 27.5l125 709h-174l-115 -460q-40 -158 -127 -236.5t-239 -78.5h-13q-75 0 -146 30q-35 15 -28 60l31 180q3 16 16 23t29 2q27 -8 40 -8h11
q31 0 51.5 21t33.5 67z" />
    <glyph glyph-name="uni043C" unicode="&#x43c;" horiz-adv-x="1286" 
d="M1011 1024h355q17 0 26 -11.5t6 -27.5l-169 -960q-5 -25 -29 -25h-296q-17 0 -26.5 11.5t-6.5 27.5l53 311l124 264h-59l-190 -311q-21 -31 -53 -31h-99q-37 0 -47 37l-80 305h-49l10 -264l-55 -325q-5 -25 -29 -25h-296q-17 0 -26.5 11.5t-6.5 27.5l164 928
q5 26 23.5 41.5t44.5 15.5h326q37 0 47 -37l80 -321h8l196 327q19 31 54 31z" />
    <glyph glyph-name="uni043D" unicode="&#x43d;" horiz-adv-x="1103" 
d="M887 1024h296q17 0 26.5 -11.5t6.5 -27.5l-169 -960q-5 -25 -30 -25h-295q-17 0 -26.5 11.5t-6.5 27.5l60 340h-260l-63 -354q-5 -25 -29 -25h-296q-17 0 -26.5 11.5t-6.5 27.5l167 944q3 19 16.5 30t32.5 11h279q17 0 26.5 -11.5t6.5 -27.5l-59 -330h261l60 344
q5 25 29 25z" />
    <glyph glyph-name="uni043E" unicode="&#x43e;" horiz-adv-x="1103" 
d="M714 1051h23q97 0 181 -33.5t143.5 -93t85.5 -151t7 -199.5l-27 -151q-19 -108 -72.5 -195t-129 -142t-166.5 -84t-189 -29h-23q-97 0 -181 33.5t-143.5 93t-85.5 151t-7 199.5l27 151q19 108 72.5 195t129 142t166.5 84t189 29zM692 764h-10q-60 0 -101 -41t-55 -119
l-32 -184q-14 -78 12.5 -119t86.5 -41h10q60 0 100.5 41t54.5 119l33 184q14 78 -12.5 119t-86.5 41z" />
    <glyph glyph-name="uni043F" unicode="&#x43f;" horiz-adv-x="1097" 
d="M284 1024h893q17 0 26.5 -11.5t6.5 -27.5l-169 -960q-5 -25 -30 -25h-296q-17 0 -26 11.5t-6 27.5l125 709h-254l-128 -723q-5 -25 -29 -25h-296q-17 0 -26.5 11.5t-6.5 27.5l167 944q3 19 16.5 30t32.5 11z" />
    <glyph glyph-name="uni0440" unicode="&#x440;" horiz-adv-x="1097" 
d="M831 1051h23q72 0 129.5 -24.5t93.5 -67t58.5 -100t24.5 -123t-8 -135.5l-31 -178q-38 -215 -169 -332.5t-304 -117.5h-23q-108 0 -183 67l-72 -358q-5 -24 -29 -24h-296q-17 0 -26.5 11.5t-6.5 27.5l227 1286q3 19 16.5 30t32.5 11h242q13 0 21.5 -8.5t9.5 -21.5l1 -42
q111 99 269 99zM698 764h-10q-57 0 -133 -35l-76 -430q67 -39 120 -39h10q55 0 92 40.5t51 119.5l32 184q14 78 -8.5 119t-77.5 41z" />
    <glyph glyph-name="uni0441" unicode="&#x441;" horiz-adv-x="907" 
d="M710 1051h23q114 0 258 -57q41 -17 33 -63l-35 -201q-3 -17 -18 -24.5t-31 0.5q-133 58 -191 58h-10q-84 0 -143.5 -53.5t-77.5 -157.5l-14 -82q-18 -103 21 -157t125 -54h10q60 0 215 59q16 6 28 -3t9 -25l-36 -204q-8 -40 -45 -54q-157 -60 -265 -60h-23
q-219 0 -332 139.5t-76 362.5l17 100q37 217 188.5 346.5t369.5 129.5z" />
    <glyph glyph-name="uni0442" unicode="&#x442;" horiz-adv-x="962" 
d="M243 1024h840q17 0 26.5 -11.5t6.5 -27.5l-38 -213q-5 -24 -29 -24h-256l-127 -723q-5 -25 -29 -25h-296q-17 0 -26.5 11.5t-6.5 27.5l125 709h-241q-17 0 -26.5 11.5t-6.5 27.5l35 196q3 19 16.5 30t32.5 11z" />
    <glyph glyph-name="uni0443" unicode="&#x443;" horiz-adv-x="1093" 
d="M933 1024h295q15 0 22.5 -11.5t0.5 -24.5l-501 -1030q-36 -73 -74.5 -127.5t-91.5 -102t-123.5 -72.5t-155.5 -25h-16q-101 0 -204 30q-18 5 -27 20.5t-5 34.5l36 199q3 16 15 23t28 2q90 -28 144 -28h4q71 0 101 61l13 27h-35q-26 0 -29 26l-131 948q-3 21 9.5 35.5
t33.5 14.5h270q20 0 34 -12.5t16 -32.5l36 -305l-2 -375h4l125 375l150 313q18 37 58 37z" />
    <glyph glyph-name="uni0444" unicode="&#x444;" horiz-adv-x="1609" 
d="M932 1509h280q17 0 26 -11.5t6 -27.5l-74 -419h56q97 0 184 -33.5t149.5 -93t91 -151t9.5 -199.5l-27 -151q-19 -108 -75 -195t-135 -142t-172.5 -84t-191.5 -29h-79l-51 -291q-5 -25 -29 -25h-296q-17 0 -26.5 11.5t-6.5 27.5l49 277h-56q-97 0 -184 33.5t-149.5 93
t-91 151t-9.5 199.5l27 151q19 108 75 195t135 142t172.5 84t191.5 29h79l74 417q7 41 48 41zM759 764h-61q-62 0 -110 -42t-62 -118l-32 -184q-14 -76 19.5 -118t95.5 -42h61zM1120 764l-89 -504h61q62 0 110 42t62 118l32 184q14 76 -19.5 118t-95.5 42h-61z" />
    <glyph glyph-name="uni0445" unicode="&#x445;" horiz-adv-x="1097" 
d="M917 1024h298q19 0 26 -14.5t-4 -29.5l-349 -462l192 -485q5 -13 -2 -23t-21 -10h-303q-46 0 -62 44l-57 161l-18 133h-12l-56 -133l-127 -173q-23 -32 -64 -32h-306q-19 0 -26 14.5t4 29.5l362 474l-182 474q-5 13 1.5 22.5t20.5 9.5h295q46 0 62 -45l55 -158l17 -133
h13l56 133l123 170q24 33 64 33z" />
    <glyph glyph-name="uni0446" unicode="&#x446;" horiz-adv-x="1234" 
d="M869 1024h296q17 0 26.5 -11.5t6.5 -27.5l-125 -709h151q17 0 26 -11.5t6 -27.5l-83 -470q-5 -25 -29 -25h-296q-17 0 -26.5 11.5t-6.5 27.5l39 219h-753q-17 0 -26.5 11.5t-6.5 27.5l167 944q3 19 16.5 30t32.5 11h279q17 0 26.5 -11.5t6.5 -27.5l-125 -709h241l128 723
q5 25 29 25z" />
    <glyph glyph-name="uni0447" unicode="&#x447;" 
d="M849 1024h295q17 0 26.5 -11.5t6.5 -27.5l-169 -960q-5 -25 -29 -25h-295q-17 0 -27 12t-6 29l55 254q-108 -39 -221 -39h-27q-70 0 -129 24t-101 69t-59 117.5t-1 161.5l63 355q7 41 48 41h280q17 0 26 -11.5t6 -27.5l-57 -323q-20 -119 78 -119h10q52 0 120 20l77 436
q5 25 30 25z" />
    <glyph glyph-name="uni0448" unicode="&#x448;" horiz-adv-x="1576" 
d="M1361 1025h296q17 0 26 -11.5t6 -27.5l-169 -961q-5 -25 -29 -25h-1390q-17 0 -26.5 11.5t-6.5 27.5l167 945q3 19 16.5 30t32.5 11h279q17 0 26.5 -11.5t6.5 -27.5l-125 -710h186l128 725q5 24 29 24h296q17 0 26.5 -11.5t6.5 -27.5l-126 -710h187l127 725q5 24 30 24z
" />
    <glyph glyph-name="uni0449" unicode="&#x449;" horiz-adv-x="1726" 
d="M1361 1024h295q17 0 26.5 -11.5t6.5 -27.5l-125 -709h151q17 0 26.5 -11.5t6.5 -27.5l-83 -470q-5 -25 -29 -25h-296q-17 0 -26.5 11.5t-6.5 27.5l39 219h-1245q-17 0 -26.5 11.5t-6.5 27.5l167 944q3 19 16.5 30t32.5 11h279q17 0 26.5 -11.5t6.5 -27.5l-125 -709h186
l127 723q5 25 30 25h296q17 0 26 -11.5t6 -27.5l-125 -709h187l127 723q5 25 30 25z" />
    <glyph glyph-name="uni044A" unicode="&#x44a;" horiz-adv-x="1185" 
d="M243 1024h469q17 0 26.5 -11.5t6.5 -27.5l-48 -270h163q190 0 279 -95t60 -257l-4 -22q-28 -161 -139 -251t-299 -90h-506q-17 0 -26.5 11.5t-6.5 27.5l125 709h-151q-17 0 -26.5 11.5t-6.5 27.5l35 196q3 19 16.5 30t32.5 11zM652 455l-32 -179h94q48 0 79 21.5t38 60.5
l3 15q7 39 -16.5 60.5t-71.5 21.5h-94z" />
    <glyph glyph-name="uni044B" unicode="&#x44b;" horiz-adv-x="1505" 
d="M284 1024h279q17 0 26.5 -11.5t6.5 -27.5l-48 -270h165q190 0 278.5 -95t59.5 -257l-4 -22q-28 -161 -139 -251t-299 -90h-508q-17 0 -26.5 11.5t-6.5 27.5l167 944q3 19 16.5 30t32.5 11zM1306 1024h279q17 0 26.5 -11.5t6.5 -27.5l-170 -960q-5 -25 -29 -25h-296
q-17 0 -26.5 11.5t-6.5 27.5l167 944q3 19 16.5 30t32.5 11zM502 455l-31 -179h94q48 0 79 21.5t38 60.5l2 15q7 39 -16.5 60.5t-71.5 21.5h-94z" />
    <glyph glyph-name="uni044C" unicode="&#x44c;" horiz-adv-x="1038" 
d="M284 1024h279q17 0 26.5 -11.5t6.5 -27.5l-48 -270h165q190 0 278.5 -95t59.5 -257l-4 -22q-28 -161 -139 -251t-299 -90h-508q-17 0 -26.5 11.5t-6.5 27.5l167 944q3 19 16.5 30t32.5 11zM502 455l-31 -179h94q48 0 79 21.5t38 60.5l2 15q7 39 -16.5 60.5t-71.5 21.5
h-94z" />
    <glyph glyph-name="uni044D" unicode="&#x44d;" horiz-adv-x="911" 
d="M522 1051h22q99 0 182.5 -32.5t143 -94t84 -158.5t3.5 -218l-18 -99q-21 -121 -75 -214t-130.5 -149t-166.5 -84.5t-190 -28.5h-22q-114 0 -258 57q-19 7 -28 24.5t-5 38.5l35 201q3 17 18 24.5t31 -0.5q133 -58 191 -58h10q71 0 125.5 37t82.5 109h-247q-17 0 -26.5 11
t-6.5 27l27 156q5 25 30 25h260q-4 69 -45.5 104t-110.5 35h-10q-57 0 -193 -51q-24 -9 -41.5 4.5t-13.5 37.5l34 192q5 29 33 40q167 64 275 64z" />
    <glyph glyph-name="uni044E" unicode="&#x44e;" horiz-adv-x="1613" 
d="M1224 1051h23q97 0 181 -33.5t143.5 -93t85.5 -151t7 -199.5l-27 -151q-19 -108 -72.5 -195t-129 -142t-166.5 -84t-189 -29h-23q-185 0 -308 111t-116 295h-144l-63 -354q-5 -25 -29 -25h-296q-17 0 -26.5 11.5t-6.5 27.5l167 944q3 19 16.5 30t32.5 11h279
q17 0 26.5 -11.5t6.5 -27.5l-59 -330h142q34 126 118.5 217.5t194 135t232.5 43.5zM1268 420l32 184q14 78 -12 119t-86 41h-11q-60 0 -100.5 -41t-54.5 -119l-32 -184q-14 -78 12.5 -119t86.5 -41h10q60 0 100.5 41t54.5 119z" />
    <glyph glyph-name="uni044F" unicode="&#x44f;" horiz-adv-x="1081" 
d="M655 1024h507q17 0 26 -11.5t6 -27.5l-169 -960q-5 -25 -29 -25h-296q-17 0 -26.5 11.5t-6.5 27.5l51 291h-56l-206 -303q-18 -27 -51 -27h-322q-17 0 -24.5 13.5t2.5 27.5l159 242l128 113q-71 34 -109.5 111.5t-23.5 163.5l3 12q29 161 139.5 251t297.5 90zM792 747
h-92q-48 0 -79 -21t-38 -60l-2 -15q-7 -39 16 -60.5t71 -21.5h93z" />
    <glyph glyph-name="uni0451" unicode="&#x451;" horiz-adv-x="1042" 
d="M487 1501h226q17 0 26 -11.5t6 -27.5l-48 -274q-3 -19 -16.5 -30t-32.5 -11h-226q-17 0 -26.5 11.5t-6.5 27.5l49 274q3 19 16.5 30t32.5 11zM886 1501h226q17 0 26.5 -11.5t6.5 -27.5l-49 -274q-7 -41 -48 -41h-226q-17 0 -26.5 11.5t-6.5 27.5l48 274q3 19 16.5 30
t32.5 11zM706 1051h23q91 0 166.5 -30.5t128.5 -86.5t74 -144.5t2 -196.5l-23 -134q-1 -11 -9.5 -18t-19.5 -7h-548l-2 -12q-16 -86 27 -127t127 -41h11q88 0 299 67q15 5 25.5 -4t7.5 -24l-36 -205q-8 -43 -45 -55q-175 -60 -346 -60h-23q-225 0 -337.5 138t-72.5 365
l18 99q20 114 73 206t127.5 150t164.5 89t188 31zM682 791h-6q-106 0 -143 -154h239q35 154 -90 154z" />
    <glyph glyph-name="uni0454" unicode="&#x454;" horiz-adv-x="907" 
d="M991 994q19 -7 28 -24.5t5 -38.5l-35 -201q-3 -17 -18 -24.5t-31 0.5q-133 58 -191 58h-10q-67 0 -119.5 -35t-81.5 -104h241q17 0 26.5 -11.5t6.5 -27.5l-28 -156q-5 -24 -29 -24h-257q2 -72 42.5 -109t109.5 -37h10q57 0 193 51q24 9 41.5 -4.5t13.5 -37.5l-34 -192
q-5 -29 -33 -40q-167 -64 -275 -64h-23q-78 0 -146.5 20.5t-124.5 61t-92.5 101t-49 140.5t4.5 180l18 99q21 121 75 214t130 149t165 84.5t187 28.5h23q114 0 258 -57z" />
    <glyph glyph-name="uni0456" unicode="&#x456;" horiz-adv-x="487" 
d="M366 1473h279q17 0 26.5 -11.5t6.5 -27.5l-43 -246q-3 -19 -16.5 -30t-32.5 -11h-279q-17 0 -26.5 11.5t-6.5 27.5l43 246q3 19 16.5 30t32.5 11zM288 1024h279q17 0 26.5 -11.5t6.5 -27.5l-170 -960q-5 -25 -29 -25h-296q-17 0 -26.5 11.5t-6.5 27.5l167 944
q3 19 16.5 30t32.5 11z" />
    <glyph glyph-name="uni0457" unicode="&#x457;" horiz-adv-x="487" 
d="M199 1501h226q17 0 26.5 -11.5t6.5 -27.5l-48 -274q-3 -19 -16.5 -30t-32.5 -11h-226q-17 0 -26.5 11.5t-6.5 27.5l49 274q7 41 48 41zM599 1501h226q17 0 26 -11.5t6 -27.5l-48 -274q-3 -19 -16.5 -30t-32.5 -11h-226q-17 0 -26.5 11.5t-6.5 27.5l49 274q3 19 16.5 30
t32.5 11zM288 1024h279q17 0 26.5 -11.5t6.5 -27.5l-170 -960q-5 -25 -29 -25h-296q-17 0 -26.5 11.5t-6.5 27.5l167 944q3 19 16.5 30t32.5 11z" />
    <glyph glyph-name="uni045E" unicode="&#x45e;" horiz-adv-x="1093" 
d="M1074 1436q12 4 20.5 -3t6.5 -20l-31 -176q-5 -24 -22 -35q-122 -76 -280 -76q-165 0 -263 69q-26 18 -19 51l32 180q2 9 9 13t16 0q85 -35 137.5 -49t120.5 -14t126 14t147 46zM933 1024h295q15 0 22.5 -11.5t0.5 -24.5l-501 -1030q-36 -73 -74.5 -127.5t-91.5 -102
t-123.5 -72.5t-155.5 -25h-16q-101 0 -204 30q-18 5 -27 20.5t-5 34.5l36 199q3 16 15 23t28 2q90 -28 144 -28h4q71 0 101 61l13 27h-35q-12 0 -19.5 7.5t-9.5 18.5l-131 948q-3 21 9.5 35.5t33.5 14.5h270q20 0 34 -12.5t16 -32.5l36 -305l-2 -375h4l125 375l150 313
q18 37 58 37z" />
    <glyph glyph-name="uni0490" unicode="&#x490;" horiz-adv-x="1021" 
d="M981 1579h239q17 0 26.5 -11.5t6.5 -27.5l-73 -410q-5 -24 -29 -24h-475l-190 -1081q-5 -25 -30 -25h-314q-17 0 -26.5 11.5t-6.5 27.5l239 1354q3 19 16.5 30t32.5 11h533l21 121q5 24 30 24z" />
    <glyph glyph-name="uni0491" unicode="&#x491;" horiz-adv-x="821" 
d="M767 1170h200q17 0 26.5 -11.5t6.5 -27.5l-63 -359q-5 -24 -29 -24h-354l-128 -723q-5 -25 -29 -25h-296q-17 0 -26.5 11.5t-6.5 27.5l167 944q3 19 16.5 30t32.5 11h432l22 121q5 25 29 25z" />
    <glyph glyph-name="Wgrave" unicode="&#x1e80;" horiz-adv-x="2119" 
d="M1068 1911h233q41 0 54 -39l96 -291q3 -10 -2.5 -17.5t-15.5 -7.5h-181q-33 0 -49 30l-153 296q-5 11 0.5 20t17.5 9zM1992 1434h315q14 0 20.5 -10.5t1.5 -23.5l-566 -1371q-11 -29 -43 -29h-440q-28 0 -30 29l-27 465l16 456h-20l-140 -456l-192 -465q-11 -29 -43 -29
h-441q-13 0 -21.5 8t-9.5 21l-81 1359q-2 20 10.5 33t31.5 13h291q21 0 35 -14t16 -35l39 -668l-27 -385h17l104 385l285 688q11 29 43 29h332q21 0 35 -14t16 -35l39 -668l-27 -385h17l104 385l280 676q16 41 60 41z" />
    <glyph glyph-name="wgrave" unicode="&#x1e81;" horiz-adv-x="1720" 
d="M787 1501h232q41 0 54 -39l96 -291q3 -10 -2.5 -17t-15.5 -7h-181q-33 0 -49 30l-152 295q-5 11 0.5 20t17.5 9zM1555 1024h301q15 0 21.5 -10.5t0.5 -24.5l-451 -962q-13 -27 -42 -27h-335q-12 0 -20 7.5t-10 19.5l-30 274l-2 356h-20l-122 -356l-130 -275
q-12 -26 -42 -26h-335q-12 0 -20 7.5t-10 19.5l-110 949q-2 20 10.5 34t32.5 14h294q28 0 30 -28l30 -396l-18 -281h12l75 281l164 379q19 45 69 45h301q29 0 31 -28l29 -396l-18 -281h12l76 281l166 385q17 39 60 39z" />
    <glyph glyph-name="Wacute" unicode="&#x1e82;" horiz-adv-x="2119" 
d="M1478 1911h236q16 0 21.5 -13t-4.5 -25l-254 -293q-19 -24 -53 -24h-185q-14 0 -20 11.5t2 22.5l198 290q22 31 59 31zM1992 1434h315q14 0 20.5 -10.5t1.5 -23.5l-566 -1371q-11 -29 -43 -29h-440q-28 0 -30 29l-27 465l16 456h-20l-140 -456l-192 -465q-11 -29 -43 -29
h-441q-13 0 -21.5 8t-9.5 21l-81 1359q-2 20 10.5 33t31.5 13h291q21 0 35 -14t16 -35l39 -668l-27 -385h17l104 385l285 688q11 29 43 29h332q21 0 35 -14t16 -35l39 -668l-27 -385h17l104 385l280 676q16 41 60 41z" />
    <glyph glyph-name="wacute" unicode="&#x1e83;" horiz-adv-x="1720" 
d="M1205 1501h236q16 0 22 -12.5t-4 -24.5l-255 -293q-20 -24 -52 -24h-186q-14 0 -20 11t2 22l198 290q22 31 59 31zM1555 1024h301q15 0 21.5 -10.5t0.5 -24.5l-451 -962q-13 -27 -42 -27h-335q-12 0 -20 7.5t-10 19.5l-30 274l-2 356h-20l-122 -356l-130 -275
q-12 -26 -42 -26h-335q-12 0 -20 7.5t-10 19.5l-110 949q-2 20 10.5 34t32.5 14h294q28 0 30 -28l30 -396l-19 -281h13l75 281l164 379q19 45 69 45h301q29 0 31 -28l29 -396l-18 -281h12l76 281l166 385q17 39 60 39z" />
    <glyph glyph-name="Wdieresis" unicode="&#x1e84;" horiz-adv-x="2119" 
d="M1086 1911h226q17 0 26.5 -11.5t6.5 -27.5l-49 -275q-7 -41 -48 -41h-226q-17 0 -26.5 11.5t-6.5 27.5l48 275q3 19 16.5 30t32.5 11zM1485 1911h226q17 0 26.5 -11.5t6.5 -27.5l-48 -275q-3 -19 -16.5 -30t-32.5 -11h-226q-17 0 -26.5 11.5t-6.5 27.5l49 275q7 41 48 41
zM1992 1434h315q14 0 20.5 -10.5t1.5 -23.5l-566 -1371q-11 -29 -43 -29h-440q-28 0 -30 29l-27 465l16 456h-20l-140 -456l-192 -465q-11 -29 -43 -29h-441q-13 0 -21.5 8t-9.5 21l-81 1359q-2 20 10.5 33t31.5 13h291q21 0 35 -14t16 -35l39 -668l-27 -385h17l104 385
l285 688q11 29 43 29h332q21 0 35 -14t16 -35l39 -668l-27 -385h17l104 385l280 676q16 41 60 41z" />
    <glyph glyph-name="wdieresis" unicode="&#x1e85;" horiz-adv-x="1720" 
d="M813 1501h226q17 0 26.5 -11.5t6.5 -27.5l-48 -274q-3 -19 -16.5 -30t-32.5 -11h-226q-17 0 -26.5 11.5t-6.5 27.5l48 274q3 19 16.5 30t32.5 11zM1212 1501h227q17 0 26 -11.5t6 -27.5l-48 -274q-3 -19 -16.5 -30t-32.5 -11h-226q-17 0 -26.5 11.5t-6.5 27.5l49 274
q7 41 48 41zM1555 1024h301q15 0 21.5 -10.5t0.5 -24.5l-451 -962q-13 -27 -42 -27h-335q-12 0 -20 7.5t-10 19.5l-30 274l-2 356h-20l-122 -356l-130 -275q-12 -26 -42 -26h-335q-12 0 -20 7.5t-10 19.5l-110 949q-2 20 10.5 34t32.5 14h294q28 0 30 -28l30 -396l-19 -281
h13l75 281l164 379q19 45 69 45h301q29 0 31 -28l29 -396l-18 -281h12l76 281l166 385q17 39 60 39z" />
    <glyph glyph-name="Ygrave" unicode="&#x1ef2;" horiz-adv-x="1296" 
d="M661 1911h233q41 0 54 -39l96 -291q3 -10 -2.5 -17.5t-15.5 -7.5h-181q-33 0 -49 30l-152 296q-5 11 0 20t17 9zM1153 1434h332q17 0 24 -13t-2 -27l-582 -929l-82 -441q-5 -24 -29 -24h-316q-17 0 -26.5 11.5t-6.5 27.5l79 426l-254 925q-5 17 5 30.5t28 13.5h316
q37 0 47 -36l93 -345l6 -244h8l84 244l223 351q19 30 53 30z" />
    <glyph glyph-name="ygrave" unicode="&#x1ef3;" horiz-adv-x="1093" 
d="M485 1501h233q41 0 54 -39l96 -291q3 -10 -2.5 -17t-15.5 -7h-181q-33 0 -49 30l-153 295q-5 11 0.5 20t17.5 9zM933 1024h295q15 0 22.5 -11.5t0.5 -24.5l-501 -1030q-36 -73 -74.5 -127.5t-91.5 -102t-123.5 -72.5t-155.5 -25h-16q-101 0 -204 30q-18 5 -27 20.5
t-5 34.5l36 199q3 16 15 23t28 2q90 -28 144 -28h5q70 0 100 61l13 27h-35q-26 0 -29 26l-131 948q-3 21 9.5 35.5t33.5 14.5h270q20 0 34 -12.5t16 -32.5l36 -305l-2 -375h4l125 375l150 313q18 37 58 37z" />
    <glyph glyph-name="uni2009" unicode="&#x2009;" horiz-adv-x="204" 
 />
    <glyph glyph-name="endash" unicode="&#x2013;" horiz-adv-x="1032" 
d="M217 764h869q17 0 26.5 -11.5t6.5 -27.5l-37 -213q-5 -25 -30 -25h-885q-17 0 -26.5 11.5t-6.5 27.5l34 197q3 19 16.5 30t32.5 11z" />
    <glyph glyph-name="emdash" unicode="&#x2014;" horiz-adv-x="1183" 
d="M217 764h1021q17 0 26.5 -11.5t6.5 -27.5l-38 -213q-5 -25 -29 -25h-1038q-17 0 -26 11.5t-6 27.5l34 197q3 19 16.5 30t32.5 11z" />
    <glyph glyph-name="quoteleft" unicode="&#x2018;" horiz-adv-x="454" 
d="M478 1434h156q16 0 23 -12.5t-1 -26.5l-181 -303h85q17 0 26.5 -11.5t6.5 -27.5l-51 -291q-5 -25 -29 -25h-303q-16 0 -26 11.5t-7 27.5l43 261q4 21 17 44l195 326q16 27 46 27z" />
    <glyph glyph-name="quoteright" unicode="&#x2019;" horiz-adv-x="454" 
d="M341 1434h286q16 0 26 -11.5t7 -27.5l-43 -264q-3 -18 -15 -39l-196 -328q-16 -27 -47 -27h-156q-16 0 -23 12.5t1 26.5l181 303h-85q-17 0 -26.5 11.5t-6.5 27.5l49 275q7 41 48 41z" />
    <glyph glyph-name="quotesinglbase" unicode="&#x201a;" horiz-adv-x="454" 
d="M151 354h286q17 0 26.5 -11t6.5 -27l-44 -264q-3 -20 -14 -39l-197 -329q-15 -26 -46 -26h-156q-16 0 -23 12.5t1 26.5l181 303h-85q-17 0 -26.5 11.5t-6.5 27.5l48 274q3 19 16.5 30t32.5 11z" />
    <glyph glyph-name="quotedblleft" unicode="&#x201c;" horiz-adv-x="933" 
d="M478 1434h156q16 0 23 -12.5t-1 -26.5l-181 -303h85q17 0 26.5 -11.5t6.5 -27.5l-51 -291q-5 -25 -29 -25h-303q-16 0 -26 11.5t-7 27.5l43 261q4 21 17 44l195 326q16 27 46 27zM957 1434h156q16 0 23 -12.5t-1 -26.5l-180 -303h85q17 0 26 -11.5t6 -27.5l-51 -291
q-5 -25 -29 -25h-303q-16 0 -25.5 11.5t-6.5 27.5l43 261q4 24 16 44l195 326q16 27 46 27z" />
    <glyph glyph-name="quotedblright" unicode="&#x201d;" horiz-adv-x="933" 
d="M341 1434h286q16 0 26 -11.5t7 -27.5l-43 -264q-3 -18 -15 -39l-196 -328q-16 -27 -47 -27h-156q-16 0 -23 12.5t1 26.5l181 303h-85q-17 0 -26.5 11.5t-6.5 27.5l49 275q7 41 48 41zM821 1434h286q16 0 25.5 -11.5t6.5 -27.5l-43 -264q-3 -20 -14 -39l-197 -328
q-16 -27 -46 -27h-156q-16 0 -23 12.5t1 26.5l180 303h-85q-17 0 -26 11.5t-6 27.5l48 275q3 19 16.5 30t32.5 11z" />
    <glyph glyph-name="quotedblbase" unicode="&#x201e;" horiz-adv-x="933" 
d="M630 354h286q17 0 26.5 -11t6.5 -27l-44 -264q-3 -20 -14 -39l-196 -329q-15 -26 -47 -26h-156q-16 0 -23 12.5t1 26.5l181 303h-85q-17 0 -26.5 11.5t-6.5 27.5l49 274q7 41 48 41zM151 354h286q17 0 26.5 -11t6.5 -27l-44 -264q-3 -20 -14 -39l-197 -329
q-15 -26 -46 -26h-156q-16 0 -23 12.5t1 26.5l181 303h-85q-17 0 -26.5 11.5t-6.5 27.5l48 274q3 19 16.5 30t32.5 11z" />
    <glyph glyph-name="dagger" unicode="&#x2020;" horiz-adv-x="972" 
d="M591 1434h298q17 0 26.5 -11.5t6.5 -27.5l-66 -371h217q17 0 26.5 -11.5t6.5 -27.5l-44 -248q-3 -19 -16.5 -30t-32.5 -11h-214l-143 -807q-7 -41 -48 -41h-298q-17 0 -26.5 11.5t-6.5 27.5l143 809h-217q-17 0 -26 11.5t-6 27.5l43 248q3 19 16.5 30t32.5 11h215l65 369
q7 41 48 41z" />
    <glyph glyph-name="daggerdbl" unicode="&#x2021;" horiz-adv-x="972" 
d="M600 1434h289q17 0 26.5 -11.5t6.5 -27.5l-66 -371h217q17 0 26.5 -11.5t6.5 -27.5l-43 -240q-4 -22 -19.5 -35.5t-38.5 -13.5h-206l-20 -110h217q17 0 26 -11.5t6 -27.5l-42 -240q-4 -22 -20 -35.5t-39 -13.5h-206l-63 -360q-4 -22 -20 -36t-39 -14h-289
q-17 0 -26.5 11.5t-6.5 27.5l65 371h-216q-17 0 -26.5 11.5t-6.5 27.5l43 240q4 22 19.5 35.5t38.5 13.5h206l20 110h-217q-17 0 -26 11.5t-6 27.5l42 240q4 22 19.5 35.5t38.5 13.5h207l63 360q4 22 20 36t39 14z" />
    <glyph glyph-name="bullet" unicode="&#x2022;" horiz-adv-x="786" 
d="M536 938q101 0 178.5 -51t112.5 -138.5t17 -189.5q-24 -136 -137 -231t-250 -95q-154 0 -245 112t-63 268q24 136 137 230.5t250 94.5z" />
    <glyph glyph-name="ellipsis" unicode="&#x2026;" horiz-adv-x="1572" 
d="M145 354h279q17 0 26.5 -11.5t6.5 -27.5l-51 -290q-5 -25 -30 -25h-295q-17 0 -26.5 11.5t-6.5 27.5l48 274q3 19 16.5 30t32.5 11zM710 354h280q17 0 26 -11.5t6 -27.5l-51 -290q-5 -25 -29 -25h-296q-17 0 -26.5 11.5t-6.5 27.5l48 274q3 19 16.5 30t32.5 11zM1275 354
h280q17 0 26 -11.5t6 -27.5l-51 -290q-5 -25 -29 -25h-296q-17 0 -26.5 11.5t-6.5 27.5l49 274q7 41 48 41z" />
    <glyph glyph-name="perthousand" unicode="&#x2030;" horiz-adv-x="2912" 
d="M650 1460h40q150 0 242.5 -104t64.5 -266l-19 -110q-19 -108 -80.5 -187.5t-146.5 -118.5t-183 -39h-41q-151 0 -243.5 105t-64.5 267l19 110q19 108 80.5 187t147 117.5t184.5 38.5zM1524 1434h174q17 0 24 -13.5t-2 -27.5l-879 -1352q-27 -41 -75 -41h-174
q-17 0 -24 13.5t2 27.5l879 1352q27 41 75 41zM642 1214h-10q-42 0 -71.5 -28.5t-39.5 -87.5l-17 -101q-20 -116 69 -116h10q42 0 71.5 28.5t39.5 87.5l18 101q20 116 -70 116zM1723 799h41q150 0 242 -104t64 -266l-19 -111q-19 -108 -80.5 -187.5t-146.5 -118.5t-183 -39
h-41q-151 0 -243.5 105t-64.5 267l19 111q19 108 80.5 187t147 117.5t184.5 38.5zM2599 799h41q150 0 242.5 -104t64.5 -266l-20 -111q-19 -108 -80 -187.5t-146 -118.5t-183 -39h-41q-151 0 -244 105t-65 267l20 111q28 162 143.5 252.5t267.5 90.5zM1715 553h-10
q-42 0 -71.5 -29t-39.5 -88l-17 -100q-20 -117 69 -117h11q42 0 71 29t39 88l18 100q10 59 -9 88t-61 29zM2592 553h-10q-42 0 -71.5 -29t-39.5 -88l-18 -100q-10 -59 9 -88t61 -29h10q42 0 71.5 29t39.5 88l17 100q20 117 -69 117z" />
    <glyph glyph-name="guilsinglleft" unicode="&#x2039;" horiz-adv-x="538" 
d="M408 877h176q28 0 39 -21.5t-6 -43.5l-187 -255l97 -272q7 -19 -3.5 -33t-30.5 -14h-180q-32 0 -47 26l-120 205q-14 25 -11 51l9 74q3 29 22 48l205 218q15 17 37 17z" />
    <glyph glyph-name="guilsinglright" unicode="&#x203a;" horiz-adv-x="538" 
d="M241 877h181q30 0 46 -27l123 -209q12 -22 9 -41l-10 -85q-3 -24 -17 -39l-209 -222q-15 -16 -38 -16h-176q-28 0 -39 21t6 43l187 255l-96 272q-7 19 3 33.5t30 14.5z" />
    <glyph glyph-name="fraction" unicode="&#x2044;" horiz-adv-x="442" 
d="M754 1434h174q17 0 24 -13.5t-2 -27.5l-879 -1352q-27 -41 -75 -41h-174q-17 0 -24 13.5t2 27.5l879 1352q27 41 75 41z" />
    <glyph glyph-name="Euro" unicode="&#x20ac;" horiz-adv-x="1310" 
d="M1467 1405q38 -18 30 -61l-43 -245q-3 -17 -17 -24.5t-31 -0.5q-79 34 -129.5 46.5t-117.5 12.5h-8q-94 0 -170.5 -41.5t-125.5 -118.5h289q17 0 26 -11.5t6 -27.5l-22 -129q-3 -19 -16.5 -30t-32.5 -11h-320l-16 -90h322q17 0 26.5 -11.5t6.5 -27.5l-23 -129
q-3 -19 -16.5 -30t-32.5 -11h-288q21 -78 82.5 -121t157.5 -43h8q68 0 123.5 13t147.5 47q16 6 27.5 -3t8.5 -25l-43 -243q-8 -45 -46 -60q-140 -57 -305 -57h-31q-141 0 -256.5 55.5t-190 168.5t-83.5 268h-201q-17 0 -26.5 11.5t-6.5 27.5l23 129q7 41 48 41h179l15 90
h-180q-17 0 -26 11.5t-6 27.5l22 129q3 19 16.5 30t32.5 11h191q56 153 165.5 265t244 167t279.5 55h30q177 0 303 -55z" />
    <glyph glyph-name="uni2116" unicode="&#x2116;" horiz-adv-x="2191" 
d="M1995 1460h41q150 0 242.5 -104t64.5 -266l-20 -110q-19 -108 -80.5 -187.5t-146.5 -118.5t-183 -39h-41q-151 0 -243.5 105t-64.5 267l20 110q28 162 143.5 252.5t267.5 90.5zM1185 1434h314q17 0 26.5 -11.5t6.5 -27.5l-242 -1370q-5 -25 -29 -25h-352q-33 0 -45 33
l-180 553l-61 266h-34l-10 -266l-97 -561q-5 -25 -30 -25h-314q-17 0 -26.5 11.5t-6.5 27.5l239 1354q3 19 16.5 30t32.5 11h335q33 0 45 -33l180 -553l61 -266h34l10 266l98 561q5 25 29 25zM1988 1214h-11q-90 0 -110 -116l-18 -101q-20 -116 70 -116h10q42 0 71.5 28.5
t39.5 87.5l17 101q20 116 -69 116zM1549 567h641q17 0 26.5 -11.5t6.5 -27.5l-44 -247q-7 -41 -48 -41h-642q-17 0 -26.5 11.5t-6.5 27.5l44 247q3 19 16.5 30t32.5 11z" />
    <glyph glyph-name="trademark" unicode="&#x2122;" horiz-adv-x="1583" 
d="M350 1516h545q17 0 26.5 -11.5t6.5 -27.5l-21 -119q-5 -25 -29 -25h-184l-105 -592q-5 -24 -29 -24h-146q-17 0 -26.5 11.5t-6.5 27.5l102 577h-167q-17 0 -26.5 11.5t-6.5 27.5l18 103q3 19 16.5 30t32.5 11zM1576 1516h194q17 0 26 -11.5t6 -27.5l-129 -736
q-5 -24 -29 -24h-151q-17 0 -26 11.5t-6 27.5l59 325l71 150h-34l-75 -150l-97 -140q-15 -23 -44 -23h-67q-36 0 -46 34l-39 129l-31 150h-29l1 -150l-52 -340q-1 -11 -9.5 -18t-19.5 -7h-152q-17 0 -26.5 11.5t-6.5 27.5l127 720q3 19 16.5 30t32.5 11h179q37 0 47 -37
l72 -291h8l184 302q15 26 46 26z" />
    <glyph glyph-name="estimated" unicode="&#x212e;" horiz-adv-x="1495" 
d="M748 1366q206 0 368.5 -94t250 -252.5t87.5 -349.5h-1143v-432q82 -80 194.5 -125t242.5 -45q173 0 308 62t224 163q8 9 18.5 6t10.5 -16v-62q0 -28 -21 -49q-97 -94 -235 -146.5t-305 -52.5q-155 0 -288 55t-224.5 149.5t-143 222t-51.5 270.5t51.5 270.5t143 221.5
t224.5 149t288 55zM748 1272q-130 0 -242.5 -45t-194.5 -125v-350h873v350q-82 80 -194 125t-242 45z" />
    <glyph glyph-name="oneeighth" unicode="&#x215b;" horiz-adv-x="1873" 
d="M620 1434h74q17 0 26.5 -11.5t6.5 -27.5l-86 -488h114q17 0 26.5 -11.5t6.5 -27.5l-32 -182q-5 -25 -29 -25h-530q-17 0 -26.5 11.5t-6.5 27.5l33 183q5 24 29 24h145l43 240l-142 -38q-14 -4 -23 5t-7 23l26 154q8 46 51 58l260 79q21 6 41 6zM1430 1434h174
q17 0 24 -13.5t-2 -27.5l-879 -1352q-27 -41 -75 -41h-174q-17 0 -24 13.5t2 27.5l879 1352q27 41 75 41zM1617 799h18q131 0 209.5 -70.5t60.5 -172.5l-1 -8q-9 -54 -42.5 -91.5t-93.5 -66.5q49 -19 81 -70t20 -119l-1 -8q-19 -104 -112.5 -162t-242.5 -58h-19
q-148 0 -231 71t-64 176l1 9q12 70 54 113.5t112 70.5q-38 23 -62.5 67t-15.5 95l1 8q18 101 107.5 158.5t220.5 57.5zM1605 594h-12q-25 0 -43 -13.5t-22 -37.5v-4q-4 -24 8.5 -38t37.5 -14h12q27 0 45 13.5t22 38.5v4q4 24 -8.5 37.5t-39.5 13.5zM1555 289h-18
q-62 0 -71 -53l-1 -5q-9 -53 52 -53h19q62 0 71 53v5q9 53 -52 53z" />
    <glyph glyph-name="threeeighths" unicode="&#x215c;" horiz-adv-x="1859" 
d="M543 1461h6q143 0 221 -72t59 -181l-1 -9q-17 -98 -127 -158q42 -19 68.5 -65t16.5 -106l-1 -9q-19 -108 -113 -167t-250 -59h-6q-83 0 -207 30q-16 4 -24.5 17t-5.5 30l29 168q2 10 10 15t18 2q19 -5 55.5 -16.5t50 -15t34 -7t37.5 -3.5h6q82 0 91 53l1 6q3 22 -9 33.5
t-44 11.5h-71q-17 0 -26.5 11.5t-6.5 27.5l21 117q5 24 29 24h74q62 0 73 51l1 7q3 23 -12 36t-47 13h-6q-14 0 -33 -3.5t-33.5 -7t-49.5 -13t-57 -15.5q-14 -4 -24 4.5t-8 22.5l27 154q6 34 39 43q107 30 195 30zM1416 1434h174q17 0 24 -13.5t-2 -27.5l-879 -1352
q-27 -41 -75 -41h-174q-17 0 -24 13.5t2 27.5l879 1352q27 41 75 41zM1603 799h18q131 0 209.5 -70.5t60.5 -172.5l-2 -8q-18 -102 -135 -158q49 -19 81 -70t20 -119l-2 -8q-19 -104 -112.5 -162t-242.5 -58h-18q-148 0 -231.5 71t-64.5 176l2 9q12 70 54 113.5t112 70.5
q-38 23 -62.5 67t-15.5 95l1 8q18 101 107.5 158.5t220.5 57.5zM1591 594h-13q-25 0 -42.5 -13.5t-21.5 -37.5l-1 -4q-4 -24 9 -38t38 -14h12q26 0 44 13.5t22 38.5l1 4q4 24 -8.5 37.5t-39.5 13.5zM1541 289h-19q-61 0 -70 -53l-1 -5q-9 -53 52 -53h18q62 0 71 53l1 5
q9 53 -52 53z" />
    <glyph glyph-name="fiveeighths" unicode="&#x215d;" horiz-adv-x="1859" 
d="M1416 1434h174q17 0 24 -13.5t-2 -27.5l-879 -1352q-27 -41 -75 -41h-174q-17 0 -24 13.5t2 27.5l879 1352q27 41 75 41zM352 1433h424q17 0 26.5 -11.5t6.5 -27.5l-28 -160q-5 -25 -29 -25h-238l-12 -69q26 8 57 8q49 0 92 -15.5t76.5 -45t48 -78.5t3.5 -110l-1 -8
q-21 -121 -117 -189t-251 -68h-6q-83 0 -207 30q-16 4 -25 17t-6 30l28 157q2 10 10 15t18 2q19 -5 55.5 -16.5t50 -15t34 -7t37.5 -3.5h6q37 0 62.5 17.5t30.5 47.5l2 9q10 63 -79 63q-33 0 -101 -12q-24 -5 -44 12l-24 20q-15 14 -12 34l63 358q3 19 16.5 30t32.5 11z
M1603 799h18q131 0 209.5 -70.5t60.5 -172.5l-2 -8q-18 -102 -135 -158q49 -19 81 -70t20 -119l-2 -8q-19 -104 -112.5 -162t-242.5 -58h-18q-148 0 -231.5 71t-64.5 176l2 9q12 70 54 113.5t112 70.5q-38 23 -62.5 67t-15.5 95l1 8q18 101 107.5 158.5t220.5 57.5z
M1591 594h-13q-25 0 -42.5 -13.5t-21.5 -37.5l-1 -4q-4 -24 9 -38t38 -14h12q26 0 44 13.5t22 38.5l1 4q4 24 -8.5 37.5t-39.5 13.5zM1541 289h-19q-61 0 -70 -53l-1 -5q-9 -53 52 -53h18q62 0 71 53l1 5q9 53 -52 53z" />
    <glyph glyph-name="seveneighths" unicode="&#x215e;" horiz-adv-x="1712" 
d="M335 1434h514q16 0 25.5 -11t7.5 -27l-21 -134q-3 -22 -18 -40l-240 -289q-13 -15 -17 -36l-41 -212q-5 -23 -29 -23h-213q-16 0 -25.5 11t-7.5 27l36 220q5 25 20 42l205 226h-241q-17 0 -26.5 11.5t-6.5 27.5l30 166q7 41 48 41zM1268 1434h173q17 0 24 -13.5t-2 -27.5
l-879 -1352q-27 -41 -74 -41h-174q-17 0 -24 13.5t2 27.5l879 1352q27 41 75 41zM1455 799h18q131 0 209.5 -70.5t60.5 -172.5l-2 -8q-18 -102 -135 -158q49 -19 81 -70t20 -119l-2 -8q-19 -104 -112.5 -162t-242.5 -58h-18q-148 0 -231.5 71t-64.5 176l2 9q12 70 54 113.5
t112 70.5q-38 23 -63 67t-16 95l2 8q18 101 107.5 158.5t220.5 57.5zM1443 594h-13q-25 0 -42.5 -13.5t-21.5 -37.5l-1 -4q-4 -24 8.5 -38t37.5 -14h13q26 0 44 13.5t22 38.5l1 4q4 24 -8.5 37.5t-39.5 13.5zM1393 289h-19q-61 0 -70 -53l-1 -5q-9 -53 52 -53h18q62 0 71 53
l1 5q9 53 -52 53z" />
    <glyph glyph-name="arrowleft" unicode="&#x2190;" horiz-adv-x="1185" 
d="M176 686l535 323q5 3 9.5 0.5t3.5 -7.5l-5 -54q-1 -13 -11 -24l-142 -156h675q17 0 26 -11.5t6 -27.5l-37 -213q-5 -24 -29 -24h-699l88 -155q7 -11 5 -24l-5 -57q-1 -5 -5 -6.5t-8 1.5l-415 318q-21 16 -18 41l5 43q3 23 21 33z" />
    <glyph glyph-name="arrowup" unicode="&#x2191;" horiz-adv-x="835" 
d="M587 1104h43q24 0 33 -20l234 -470q3 -7 -0.5 -12.5t-10.5 -5.5h-37q-19 0 -33 12l-130 111l-126 -695q-5 -24 -29 -24h-212q-17 0 -26 11.5t-6 27.5l123 680l-176 -115q-13 -8 -27 -8h-46q-10 0 -14 8t3 15l397 467q15 18 40 18z" />
    <glyph glyph-name="arrowright" unicode="&#x2192;" horiz-adv-x="1185" 
d="M803 949l3 45q1 8 7.5 11t13.5 -2l405 -309q23 -18 20 -50l-4 -34q-3 -24 -25 -38l-522 -316q-8 -5 -15 -0.5t-6 13.5l4 40q2 18 13 29l140 154h-675q-17 0 -26 11.5t-6 27.5l34 196q3 19 16.5 30t32.5 11h682l-86 153q-7 13 -6 28z" />
    <glyph glyph-name="arrowdown" unicode="&#x2193;" horiz-adv-x="835" 
d="M511 1077h195q17 0 26.5 -11.5t6.5 -27.5l-123 -680l177 117q12 7 23 7h48q10 0 14 -8t-3 -16l-400 -469q-13 -16 -33 -16h-41q-28 0 -41 26l-232 465q-3 7 0.5 12.5t10.5 5.5h40q17 0 28 -10l132 -114l123 679q3 18 16.5 29t32.5 11z" />
    <glyph glyph-name="uni2194" unicode="&#x2194;" horiz-adv-x="1677" 
d="M1324 1003l404 -309q24 -18 21 -50l-4 -34q-3 -24 -25 -38l-523 -316q-8 -5 -14.5 -0.5t-5.5 13.5l3 40q2 18 13 29l141 154h-826l88 -155q7 -11 5 -24l-5 -57q-1 -5 -5 -6.5t-8 1.5l-415 318q-21 16 -18 41l5 43q3 23 21 33l536 324q4 3 8.5 0t3.5 -8l-5 -54
q-1 -13 -11 -24l-142 -156h825l-86 153q-7 13 -6 28l4 45q1 8 7.5 11t13.5 -2z" />
    </font>
</defs>
</svg>
