<?xml version="1.0" standalone="no"?>
<!DOCTYPE svg PUBLIC "-//W3C//DTD SVG 1.1//EN" "http://www.w3.org/Graphics/SVG/1.1/DTD/svg11.dtd" >
<svg xmlns="http://www.w3.org/2000/svg" xmlns:xlink="http://www.w3.org/1999/xlink" version="1.1">
<metadata>
Created by FontForge 20170731 at Thu Aug 13 18:28:16 2020
 By Aleksey,,,
Copyright (c) 2015 by Mariya Pigoulevskaya. All rights reserved.
</metadata>
<defs>
<font id="Webnar-Black" horiz-adv-x="1060" >
  <font-face 
    font-family="Webnar Black"
    font-weight="900"
    font-stretch="normal"
    units-per-em="2048"
    panose-1="0 0 10 0 0 0 0 0 0 0"
    ascent="1536"
    descent="-512"
    x-height="1024"
    cap-height="1434"
    bbox="-204.769 -630 2871 2336"
    underline-thickness="102"
    underline-position="-307"
    unicode-range="U+0020-FE6B"
  />
<missing-glyph horiz-adv-x="1024" 
d="M0 0v1434h1024v-1434h-1024zM512 809l348 522h-696zM573 717l349 -522v1044zM164 102h696l-348 523zM102 1239v-1044l349 522z" />
    <glyph glyph-name=".notdef" horiz-adv-x="1024" 
d="M0 0v1434h1024v-1434h-1024zM512 809l348 522h-696zM573 717l349 -522v1044zM164 102h696l-348 523zM102 1239v-1044l349 522z" />
    <glyph glyph-name=".null" horiz-adv-x="0" 
 />
    <glyph glyph-name="nonmarkingreturn" horiz-adv-x="682" 
 />
    <glyph glyph-name="space" unicode=" " horiz-adv-x="450" 
 />
    <glyph glyph-name="exclam" unicode="!" horiz-adv-x="458" 
d="M72 1434h315q14 0 23 -9t8 -22l-55 -879q-3 -30 -31 -30h-205q-28 0 -31 30l-55 879q-1 13 8 22t23 9zM80 354h299q14 0 22.5 -8.5t8.5 -21.5v-293q0 -13 -9 -22t-22 -9h-299q-14 0 -22.5 9t-8.5 22v293q0 13 8.5 21.5t22.5 8.5z" />
    <glyph glyph-name="quotedbl" unicode="&#x22;" horiz-adv-x="946" 
d="M72 1434h315q14 0 23 -9t8 -22l-55 -485q-3 -31 -31 -31h-205q-28 0 -31 31l-55 485q-1 13 8 22t23 9zM559 1434h316q14 0 22.5 -9t7.5 -22l-55 -485q-3 -31 -31 -31h-204q-28 0 -31 31l-55 485q-1 13 7.5 22t22.5 9z" />
    <glyph glyph-name="numbersign" unicode="#" horiz-adv-x="1310" 
d="M1087 1024h149q19 0 28.5 -13t4.5 -30l-39 -150q-13 -43 -57 -43h-148l-37 -143h148q19 0 28.5 -13t4.5 -30l-39 -149q-13 -43 -58 -43h-146l-97 -373q-10 -37 -47 -37h-183q-18 0 -27.5 12.5t-4.5 30.5l96 367h-175l-98 -373q-10 -37 -47 -37h-182q-19 0 -28.5 13
t-4.5 30l97 367h-150q-17 0 -27 13t-6 30l39 149q13 43 58 43h148l38 143h-150q-17 0 -26.5 13t-5.5 30l39 150q13 43 57 43h147l99 373q6 37 45 37h184q17 0 26.5 -13t4.5 -30l-96 -367h176l98 373q6 37 45 37h184q17 0 26.5 -13t4.5 -30zM763 788h-176l-37 -143h175z" />
    <glyph glyph-name="dollar" unicode="$" horiz-adv-x="1161" 
d="M602 915l74 -24q207 -69 305 -173.5t98 -283.5v-16q0 -176 -102 -285.5t-268 -144.5v-244q0 -14 -8.5 -22.5t-22.5 -8.5h-199q-13 0 -21.5 8.5t-8.5 22.5v235q-91 9 -183 29.5t-127 36.5q-28 12 -28 47v270q0 13 10 21t26 2q166 -55 232 -70.5t141 -15.5h8q79 0 120.5 27
t41.5 77v7q0 43 -32.5 66t-118.5 52l-68 23q-189 63 -289 169.5t-100 272.5v23q0 175 103 285.5t264 144.5v244q0 14 8.5 22t21.5 8h199q14 0 22.5 -8.5t8.5 -21.5v-236q154 -15 237 -45q18 -6 23.5 -16.5t5.5 -30.5v-270q0 -13 -11.5 -20.5t-25.5 -2.5q-120 37 -185 51.5
t-135 14.5h-8q-66 0 -104.5 -27.5t-38.5 -77.5v-6q0 -40 29.5 -62t105.5 -47z" />
    <glyph glyph-name="percent" unicode="%" horiz-adv-x="2035" 
d="M442 635h-41q-151 0 -255.5 97t-104.5 259v111q0 162 105 260t255 98h41q152 0 257.5 -98t105.5 -260v-111q0 -162 -105.5 -259t-257.5 -97zM768 0h-182q-15 0 -22 11.5t-1 23.5l645 1362q18 37 60 37h182q15 0 22 -11.5t1 -23.5l-646 -1362q-18 -37 -59 -37zM418 881h10
q90 0 90 116v101q0 116 -90 116h-10q-90 0 -90 -116v-101q0 -116 90 -116zM1593 799h41q151 0 256 -97.5t105 -259.5v-110q0 -162 -105.5 -260.5t-255.5 -98.5h-41q-152 0 -257 98.5t-105 260.5v110q0 162 105 259.5t257 97.5zM1618 553h-10q-42 0 -66 -29t-24 -88v-100
q0 -59 24 -88t66 -29h10q42 0 66 29t24 88v100q0 59 -24 88t-66 29z" />
    <glyph glyph-name="ampersand" unicode="&#x26;" horiz-adv-x="1474" 
d="M565 1460h13q120 0 186 -24q18 -6 23.5 -16.5t5.5 -30.5v-273q0 -29 -37 -22q-6 1 -63 20t-93 19h-10q-67 0 -99 -37t-32 -95v-16q0 -61 45.5 -96t118.5 -35h233v344q0 41 37 47l283 66q17 5 29 -4.5t12 -28.5v-424h206q13 0 22 -9t9 -22v-211q0 -13 -8.5 -21.5
t-22.5 -8.5h-206v-234q0 -88 69 -88h10q19 0 127 31q12 3 21.5 -4t9.5 -19v-205q0 -22 -20 -32q-126 -58 -224 -58h-22q-166 0 -256 95q-167 -95 -363 -95h-12q-95 0 -183 26t-161.5 76t-117.5 134.5t-44 191.5v15q0 227 196 328q-78 54 -122.5 129.5t-44.5 164.5v13
q0 105 38 185t105.5 128t153 72t188.5 24zM856 582h-260q-65 0 -110.5 -34t-45.5 -97v-7q0 -65 50.5 -104t127.5 -39h11q89 0 227 42v239z" />
    <glyph glyph-name="quotesingle" unicode="'" horiz-adv-x="458" 
d="M72 1434h315q14 0 23 -9t8 -22l-55 -485q-3 -31 -31 -31h-205q-28 0 -31 31l-55 485q-1 13 8 22t23 9z" />
    <glyph glyph-name="parenleft" unicode="(" horiz-adv-x="706" 
d="M471 862v-551q0 -70 9.5 -123.5t23.5 -85.5t37.5 -55.5t43.5 -34.5t50 -22q31 -10 31 -31v-215q0 -14 -9 -23t-22 -8q-99 14 -177 39.5t-148.5 74.5t-117 119t-73.5 174.5t-27 239.5v453q0 135 27 239.5t73.5 174.5t117 119t148.5 74.5t177 39.5q13 1 22 -7.5t9 -22.5
v-216q0 -20 -31 -30q-38 -14 -62.5 -30.5t-50 -50.5t-38.5 -94t-13 -147z" />
    <glyph glyph-name="parenright" unicode=")" horiz-adv-x="706" 
d="M236 311v551q0 87 -13 147t-38.5 94t-50 50.5t-62.5 30.5q-31 10 -31 30v216q0 14 9 22.5t22 7.5q99 -14 177 -39.5t148.5 -74.5t116.5 -119t73 -174.5t27 -239.5v-453q0 -135 -27 -239.5t-73 -174.5t-116.5 -119t-148.5 -74.5t-177 -39.5q-13 -1 -22 8t-9 23v215
q0 21 31 31q30 11 50 22t43.5 34.5t37.5 55.5t23.5 85.5t9.5 123.5z" />
    <glyph glyph-name="asterisk" unicode="*" horiz-adv-x="1040" 
d="M895 1276l103 -281q5 -14 -0.5 -26t-18.5 -15l-215 -44l156 -148q8 -11 6 -23t-10 -20l-238 -184q-10 -9 -23.5 -7.5t-19.5 13.5l-115 199l-114 -199q-6 -12 -19.5 -13.5t-23.5 7.5l-238 184q-8 8 -10 19.5t6 21.5l157 150l-216 44q-13 3 -18.5 15t-0.5 26l103 281
q5 12 16 18t23 0l186 -100l-31 209q-1 13 8 22t23 9h299q14 0 23 -9t8 -22l-31 -209l186 100q12 6 23 0t16 -18z" />
    <glyph glyph-name="plus" unicode="+" horiz-adv-x="1032" 
d="M657 764h304q13 0 21.5 -8.5t8.5 -22.5v-215q0 -14 -8.5 -22.5t-21.5 -8.5h-305l-1 -290q0 -31 -30 -31h-219q-14 0 -22.5 9t-8.5 22v290h-303q-14 0 -22.5 8.5t-8.5 22.5v215q0 13 8.5 22t22.5 9h304l1 291q0 13 8.5 21.5t22.5 8.5h219q13 0 21.5 -8.5t8.5 -21.5v-291z
" />
    <glyph glyph-name="comma" unicode="," horiz-adv-x="454" 
d="M78 354h305q14 0 22.5 -8.5t8.5 -21.5v-261q0 -32 -13 -61l-133 -315q-13 -29 -43 -29h-166q-11 0 -15.5 8.5t-0.5 18.5l132 315h-97q-14 0 -22.5 9t-8.5 22v293q0 13 8.5 21.5t22.5 8.5z" />
    <glyph glyph-name="hyphen" unicode="-" horiz-adv-x="720" 
d="M72 764h577q13 0 22 -9t9 -22v-215q0 -14 -9 -22.5t-22 -8.5h-577q-14 0 -22.5 8.5t-8.5 22.5v215q0 13 8.5 22t22.5 9z" />
    <glyph glyph-name="period" unicode="." horiz-adv-x="442" 
d="M72 354h299q13 0 21.5 -8t8.5 -22v-293q0 -14 -8.5 -22.5t-21.5 -8.5h-299q-14 0 -22.5 9t-8.5 22v293q0 13 8.5 21.5t22.5 8.5z" />
    <glyph glyph-name="slash" unicode="/" horiz-adv-x="700" 
d="M444 1434h184q17 0 26.5 -13t4.5 -30l-354 -1354q-10 -37 -48 -37h-182q-19 0 -28.5 13t-4.5 30l357 1354q6 37 45 37z" />
    <glyph glyph-name="zero" unicode="0" horiz-adv-x="1341" 
d="M655 1460h31q88 0 170 -24t153.5 -74t125 -121t84 -171t30.5 -218v-270q0 -118 -30.5 -218t-84 -171t-125 -121.5t-153.5 -74.5t-170 -24h-31q-88 0 -170 24t-153.5 74.5t-125 121.5t-84 171t-30.5 218v270q0 118 30.5 218t84 171t125 121t153.5 74t170 24zM678 1133h-14
q-91 0 -137 -64t-46 -180v-344q0 -117 45.5 -180.5t137.5 -63.5h14q92 0 137 63.5t45 180.5v344q0 116 -45.5 180t-136.5 64z" />
    <glyph glyph-name="one" unicode="1" horiz-adv-x="931" 
d="M666 328h194q14 0 22.5 -9t8.5 -22v-266q0 -13 -8.5 -22t-22.5 -9h-788q-14 0 -22.5 9t-8.5 22v266q0 13 8.5 22t22.5 9h215v698l-215 -65q-12 -3 -21.5 3.5t-9.5 18.5v293q0 33 31 43l325 104q37 11 64 11h174q13 0 22 -9t9 -22v-1075z" />
    <glyph glyph-name="two" unicode="2" horiz-adv-x="1116" 
d="M588 328h416q13 0 21.5 -8.5t8.5 -22.5v-266q0 -14 -8.5 -22.5t-21.5 -8.5h-891q-13 0 -22 9t-9 22v233q0 27 16 45l418 471q71 78 97 126t26 102v6q0 55 -39 88t-104 33h-9q-69 0 -133 -14.5t-184 -51.5q-14 -5 -25.5 2.5t-11.5 20.5v270q0 20 5.5 30.5t23.5 16.5
q38 14 144 32.5t204 18.5h12q236 0 369 -107.5t133 -305.5v-13q0 -112 -53 -224t-176 -249z" />
    <glyph glyph-name="three" unicode="3" horiz-adv-x="1052" 
d="M805 744q196 -101 196 -328v-15q0 -108 -44 -191.5t-120 -134.5t-172 -76.5t-206 -25.5h-13q-94 0 -193.5 18.5t-139.5 33.5q-18 6 -23.5 16.5t-5.5 30.5v272q0 13 11.5 20.5t25.5 2.5q94 -29 125 -38t81.5 -18.5t96.5 -9.5h10q77 0 127.5 39t50.5 104v7q0 63 -45 97
t-110 34h-187q-14 0 -22 8t-8 22v211q0 14 8.5 22.5t21.5 8.5h160q73 0 118.5 35t45.5 96v16q0 55 -43.5 93.5t-112.5 38.5h-10q-63 0 -126 -14.5t-183 -51.5q-14 -5 -25.5 2.5t-11.5 20.5v272q0 20 5.5 30.5t23.5 16.5q37 14 142.5 32.5t197.5 18.5h12q106 0 195 -23
t161 -70t113 -128t41 -188v-13q0 -89 -45 -164.5t-123 -129.5z" />
    <glyph glyph-name="four" unicode="4" horiz-adv-x="1292" 
d="M567 1434h428q13 0 22 -9t9 -22v-746h195q13 0 21.5 -8.5t8.5 -21.5v-267q0 -14 -8.5 -22t-21.5 -8h-195v-299q0 -13 -9 -22t-22 -9h-317q-14 0 -22.5 9t-8.5 22v299h-575q-14 0 -22.5 8.5t-8.5 21.5v199q0 66 35 125l430 715q18 35 61 35zM426 657h221v383z" />
    <glyph glyph-name="five" unicode="5" horiz-adv-x="1073" 
d="M598 905q195 0 309.5 -117t114.5 -329v-15q0 -148 -74.5 -256t-201 -161.5t-289.5 -53.5h-13q-94 0 -193.5 18.5t-139.5 33.5q-18 6 -23.5 16.5t-5.5 30.5v272q0 13 11.5 20.5t25.5 2.5q94 -29 125 -38t81.5 -18.5t96.5 -9.5h10q94 0 147.5 43t53.5 121v6q0 45 -18 77.5
t-49.5 50.5t-69 26t-82.5 8q-74 0 -213 -31q-18 -4 -35 4l-19 10q-28 16 -28 50v737q0 13 8.5 22t22.5 9h755q13 0 22 -9t9 -22v-266q0 -13 -9 -22t-22 -9h-411v-211q44 10 104 10z" />
    <glyph glyph-name="six" unicode="6" horiz-adv-x="1210" 
d="M735 909q196 0 310 -116t114 -334v-15q0 -95 -35.5 -180t-100 -150t-162.5 -103t-214 -38h-12q-88 0 -165.5 20.5t-148 69.5t-120.5 123.5t-79.5 189.5t-29.5 261v22q0 62 5.5 126t22.5 145t44 153t74 142.5t108.5 121t152 82t199.5 31.5h13q91 0 175 -17.5t128 -33.5
q18 -6 23 -16t5 -31v-272q0 -13 -12 -20.5t-24 -2.5q-113 43 -156 54.5t-105 11.5h-4q-122 0 -180.5 -75.5t-73.5 -212.5q115 64 248 64zM770 473v6q0 158 -143 158q-63 0 -146 -38v-101q0 -197 142 -197h8q139 0 139 172z" />
    <glyph glyph-name="seven" unicode="7" horiz-adv-x="1054" 
d="M72 1434h911q13 0 22 -9t9 -22v-227q0 -24 -15 -50l-346 -542q-14 -24 -14 -49v-504q0 -13 -8.5 -22t-22.5 -9h-317q-13 0 -22 9t-9 22v555q0 74 35 125l268 395h-491q-14 0 -22.5 9t-8.5 22v266q0 13 8.5 22t22.5 9z" />
    <glyph glyph-name="eight" unicode="8" horiz-adv-x="1204" 
d="M588 1460h28q102 0 191 -26.5t159.5 -77t111 -132t40.5 -184.5v-12q0 -88 -46 -163t-126 -124q100 -49 153.5 -132.5t53.5 -196.5v-15q0 -106 -44 -189t-119.5 -133.5t-170.5 -76t-203 -25.5h-28q-108 0 -203 25.5t-170.5 76t-119.5 133.5t-44 189v15q0 227 209 328
q-81 49 -127.5 124t-46.5 164v12q0 103 40.5 184.5t111 132t159.5 77t191 26.5zM618 1137h-32q-57 0 -90 -37t-33 -92v-17q0 -59 32.5 -94t90.5 -35h32q58 0 90.5 35t32.5 94v17q0 55 -33 92t-90 37zM625 582h-45q-66 0 -103 -36t-37 -102v-6q0 -63 37 -100t103 -37h45
q65 0 102 36.5t37 100.5v6q0 66 -36.5 102t-102.5 36z" />
    <glyph glyph-name="nine" unicode="9" horiz-adv-x="1210" 
d="M563 1460h12q88 0 165.5 -20.5t148 -69.5t120.5 -123.5t79.5 -189t29.5 -260.5v-23q0 -62 -5.5 -126t-22.5 -145t-44 -153t-74 -142.5t-108.5 -121t-152 -82t-199.5 -31.5h-12q-160 0 -303 52q-18 6 -23.5 16.5t-5.5 30.5v272q0 13 12.5 20.5t24.5 2.5
q113 -43 155.5 -54.5t104.5 -11.5h4q122 0 180.5 75t73.5 212q-115 -64 -248 -64q-196 0 -310 116.5t-114 334.5v14q0 95 35.5 180t100 150t162.5 103t214 38zM588 1133h-8q-73 0 -106.5 -47t-33.5 -126v-6q0 -157 144 -157q62 0 145 38v101q0 197 -141 197z" />
    <glyph glyph-name="colon" unicode=":" horiz-adv-x="442" 
d="M72 971h299q13 0 21.5 -8.5t8.5 -22.5v-293q0 -14 -8.5 -22.5t-21.5 -8.5h-299q-14 0 -22.5 9t-8.5 22v293q0 14 8.5 22.5t22.5 8.5zM72 354h299q13 0 21.5 -8t8.5 -22v-293q0 -14 -8.5 -22.5t-21.5 -8.5h-299q-14 0 -22.5 9t-8.5 22v293q0 13 8.5 21.5t22.5 8.5z" />
    <glyph glyph-name="semicolon" unicode=";" horiz-adv-x="454" 
d="M84 971h299q13 0 22 -8.5t9 -22.5v-293q0 -13 -9 -22t-22 -9h-299q-14 0 -22.5 9t-8.5 22v293q0 14 8.5 22.5t22.5 8.5zM78 354h305q14 0 22.5 -8.5t8.5 -21.5v-261q0 -32 -13 -61l-133 -315q-13 -29 -43 -29h-166q-11 0 -15.5 8.5t-0.5 18.5l133 315h-98q-14 0 -22.5 9
t-8.5 22v293q0 13 8.5 21.5t22.5 8.5z" />
    <glyph glyph-name="less" unicode="&#x3c;" horiz-adv-x="1032" 
d="M74 752l872 272q19 6 32 -4t13 -29v-221q0 -46 -45 -55l-475 -117l475 -117q45 -9 45 -55v-221q0 -19 -13 -29t-32 -4l-872 272q-33 10 -33 45v218q0 35 33 45z" />
    <glyph glyph-name="equal" unicode="=" horiz-adv-x="1032" 
d="M72 866h889q13 0 21.5 -8t8.5 -22v-148q0 -14 -8.5 -22.5t-21.5 -8.5h-889q-14 0 -22.5 8.5t-8.5 22.5v148q0 13 8.5 21.5t22.5 8.5zM72 567h889q13 0 21.5 -8.5t8.5 -21.5v-148q0 -14 -8.5 -22.5t-21.5 -8.5h-889q-14 0 -22.5 9t-8.5 22v148q0 13 8.5 21.5t22.5 8.5z
" />
    <glyph glyph-name="greater" unicode="&#x3e;" horiz-adv-x="1032" 
d="M86 1024l872 -272q33 -10 33 -45v-218q0 -35 -33 -45l-872 -272q-19 -6 -32 4t-13 29v221q0 46 45 55l475 117l-475 117q-45 9 -45 55v221q0 19 13 29t32 4z" />
    <glyph glyph-name="question" unicode="?" horiz-adv-x="1021" 
d="M403 1460h13q250 0 407.5 -113t157.5 -317v-14q0 -174 -106 -283.5t-283 -109.5q-51 0 -103 10l-6 -109q-3 -30 -30 -30h-205q-28 0 -31 30l-16 248q-2 31 22 55l19 19q25 25 67 20q78 -8 101 -8q92 0 137 34.5t45 92.5v6q0 142 -201 142h-10q-46 0 -96.5 -9.5
t-81.5 -18.5t-125 -38q-14 -5 -25.5 2.5t-11.5 20.5v272q0 20 5.5 30.5t23.5 16.5q39 14 138.5 32.5t194.5 18.5zM201 354h299q14 0 22 -8t8 -22v-293q0 -14 -8.5 -22.5t-21.5 -8.5h-299q-13 0 -22 9t-9 22v293q0 13 8.5 21.5t22.5 8.5z" />
    <glyph glyph-name="at" unicode="@" horiz-adv-x="2220" 
d="M688 1485h844q115 0 219 -39t186.5 -113t131.5 -192t49 -264v-490q0 -215 -112 -314.5t-308 -99.5h-135q-92 0 -178 35.5t-131 106.5q-138 -142 -285 -142h-6q-89 0 -159.5 35.5t-113.5 96.5t-65.5 139t-22.5 166v178q0 219 124.5 341t334.5 122h22q134 0 265.5 -38
t207.5 -85q21 -14 21 -37v-555q0 -36 17.5 -56t45.5 -20h25q29 0 46.5 20t17.5 56v577q0 114 -52.5 179t-152.5 65h-828q-100 0 -152 -64.5t-52 -179.5v-796q0 -116 52 -180t152 -64h887q13 0 22 -8.5t9 -22.5v-266q0 -14 -9 -22.5t-22 -8.5h-895q-115 0 -219 39.5
t-186.5 113t-131.5 192t-49 264.5v723q0 146 49 264t131.5 192t186.5 113t219 39zM1090 770h-11q-111 0 -108 -160v-190q0 -160 108 -160h11q59 0 127 35v436q-73 39 -127 39z" />
    <glyph glyph-name="A" unicode="A" horiz-adv-x="1361" 
d="M427 1434h508q23 0 30 -31l355 -1372q3 -13 -7 -22t-24 -9h-324q-23 0 -30 31l-66 270h-377l-65 -270q-7 -31 -31 -31h-324q-14 0 -23.5 9t-6.5 22l354 1372q7 31 31 31zM672 1133l-67 -367l-33 -137h218l-34 137l-67 367h-17z" />
    <glyph glyph-name="B" unicode="B" horiz-adv-x="1236" 
d="M996 741q190 -101 190 -325v-15q0 -87 -25 -155.5t-69 -114t-106.5 -75.5t-134 -43t-155.5 -13h-563q-13 0 -22 9t-9 22v1372q0 13 9 22t22 9h535q489 0 489 -394v-14q0 -175 -161 -285zM778 977v6q0 123 -135 123h-162v-252h162q135 0 135 123zM797 451v6q0 59 -33.5 92
t-93.5 33h-189v-254h189q60 0 93.5 32.5t33.5 90.5z" />
    <glyph glyph-name="C" unicode="C" horiz-adv-x="1142" 
d="M719 1460h31q92 0 181.5 -18.5t131.5 -40.5q29 -15 29 -47v-260q0 -14 -12 -21.5t-25 -1.5q-84 35 -137.5 48.5t-126.5 13.5h-9q-139 0 -220 -88.5t-81 -239.5v-176q0 -151 81 -239.5t220 -88.5h9q76 0 132 14.5t132 46.5q13 6 25 -1t12 -21v-262q0 -30 -29 -47
q-37 -22 -130.5 -40t-182.5 -18h-31q-98 0 -189.5 27t-171 82t-139 132t-93.5 184.5t-34 232.5v172q0 155 52 282t140 207.5t200 124t235 43.5z" />
    <glyph glyph-name="D" unicode="D" horiz-adv-x="1318" 
d="M133 1434h504q123 0 228.5 -38t187 -113t128 -196.5t46.5 -277.5v-184q0 -156 -46.5 -277.5t-128 -196.5t-187 -113t-228.5 -38h-504q-13 0 -22 9t-9 22v1372q0 13 9 22t22 9zM844 623v188q0 153 -59 224t-195 71h-109v-778h109q136 0 195 71t59 224z" />
    <glyph glyph-name="E" unicode="E" horiz-adv-x="1093" 
d="M481 891h469q14 0 22.5 -8.5t8.5 -22.5v-266q0 -14 -8.5 -22.5t-22.5 -8.5h-469v-235h531q13 0 21.5 -8.5t8.5 -22.5v-266q0 -14 -8.5 -22.5t-21.5 -8.5h-879q-13 0 -22 9t-9 22v1372q0 13 9 22t22 9h879q13 0 21.5 -8.5t8.5 -22.5v-266q0 -14 -8.5 -22.5t-21.5 -8.5
h-531v-215z" />
    <glyph glyph-name="F" unicode="F" horiz-adv-x="1093" 
d="M133 1434h879q13 0 21.5 -8.5t8.5 -22.5v-266q0 -14 -8.5 -22.5t-21.5 -8.5h-531v-238h469q14 0 22.5 -8.5t8.5 -21.5v-267q0 -13 -8.5 -21.5t-22.5 -8.5h-469v-510q0 -14 -8.5 -22.5t-21.5 -8.5h-318q-13 0 -22 9t-9 22v1372q0 13 9 22t22 9z" />
    <glyph glyph-name="G" unicode="G" horiz-adv-x="1284" 
d="M741 1460h31q93 0 183.5 -19.5t129.5 -41.5q29 -15 29 -47v-258q0 -13 -10.5 -21t-26.5 -2q-109 41 -151 51.5t-113 10.5h-8q-148 0 -236 -89t-88 -239v-176q0 -328 271 -328h8q34 0 55 6v406q0 13 8.5 21.5t22.5 8.5h309q14 0 22.5 -8.5t8.5 -21.5v-561q0 -41 -27 -62
q-46 -39 -168.5 -78.5t-234.5 -38.5h-31q-127 0 -240 43.5t-201.5 124.5t-140 207.5t-51.5 282.5v172q0 155 54 282t145.5 207.5t207 124t242.5 43.5z" />
    <glyph glyph-name="H" unicode="H" horiz-adv-x="1380" 
d="M930 1434h317q13 0 22 -9t9 -22v-1372q0 -13 -9 -22t-22 -9h-317q-14 0 -22.5 9t-8.5 22v532h-418v-532q0 -14 -8.5 -22.5t-21.5 -8.5h-318q-13 0 -22 9t-9 22v1372q0 13 9 22t22 9h318q13 0 21.5 -8.5t8.5 -22.5v-512h418v512q0 13 8.5 22t22.5 9z" />
    <glyph glyph-name="I" unicode="I" horiz-adv-x="583" 
d="M133 1434h318q13 0 21.5 -8.5t8.5 -22.5v-1372q0 -14 -8.5 -22.5t-21.5 -8.5h-318q-13 0 -22 9t-9 22v1372q0 13 9 22t22 9z" />
    <glyph glyph-name="J" unicode="J" horiz-adv-x="806" 
d="M346 1434h328q14 0 22.5 -9t8.5 -22v-938q0 -132 -36.5 -230t-101 -153.5t-141.5 -82t-168 -26.5h-10q-96 0 -189 33q-18 6 -18 27v268q0 15 10.5 22t24.5 1q63 -23 96 -23h10q62 0 97.5 38.5t35.5 109.5v954q0 13 8.5 22t22.5 9z" />
    <glyph glyph-name="K" unicode="K" horiz-adv-x="1318" 
d="M897 729l377 -692q7 -13 -0.5 -25t-22.5 -12h-358q-27 0 -39 25l-284 528h-89v-522q0 -14 -8.5 -22.5t-21.5 -8.5h-318q-13 0 -22 9t-9 22v1372q0 13 9 22t22 9h318q13 0 21.5 -8.5t8.5 -22.5v-522h82l279 528q12 25 39 25h350q15 0 21.5 -12t-1.5 -25z" />
    <glyph glyph-name="L" unicode="L" horiz-adv-x="1021" 
d="M481 328h469q14 0 22.5 -9t8.5 -22v-266q0 -13 -8.5 -22t-22.5 -9h-817q-13 0 -22 9t-9 22v1372q0 13 9 22t22 9h318q13 0 21.5 -8.5t8.5 -22.5v-1075z" />
    <glyph glyph-name="M" unicode="M" horiz-adv-x="1658" 
d="M1114 1434h412q13 0 21.5 -8.5t8.5 -22.5v-1372q0 -14 -8.5 -22.5t-21.5 -8.5h-328q-14 0 -22.5 9t-8.5 22l11 624l41 267h-29l-100 -267l-132 -270q-12 -25 -38 -25h-185q-27 0 -39 25l-131 270l-100 267h-29l41 -267l10 -624q0 -14 -8.5 -22.5t-21.5 -8.5h-328
q-13 0 -22 9t-9 22v1372q0 13 9 22t22 9h412q30 0 39 -25l239 -565h17l239 565q9 25 39 25z" />
    <glyph glyph-name="N" unicode="N" horiz-adv-x="1384" 
d="M938 1434h317q13 0 22 -9t9 -22v-1372q0 -13 -9 -22t-22 -9h-356q-27 0 -41 25l-285 561l-104 266h-29l37 -266v-555q0 -13 -8.5 -22t-22.5 -9h-317q-13 0 -22 9t-9 22v1372q0 13 9 22t22 9h356q27 0 41 -25l285 -561l104 -266h29l-37 266v555q0 13 8.5 22t22.5 9z" />
    <glyph glyph-name="O" unicode="O" horiz-adv-x="1386" 
d="M678 1460h31q115 0 219 -39t186 -113t131 -192t49 -264v-270q0 -146 -49 -264.5t-131 -192t-186 -113t-219 -39.5h-31q-115 0 -219 39.5t-186.5 113t-131.5 192t-49 264.5v270q0 146 49 264t131.5 192t186.5 113t219 39zM700 1133h-14q-100 0 -152.5 -65t-52.5 -179v-344
q0 -116 52.5 -180t152.5 -64h14q100 0 152.5 64t52.5 180v344q0 114 -52.5 179t-152.5 65z" />
    <glyph glyph-name="P" unicode="P" horiz-adv-x="1261" 
d="M133 1434h533q105 0 194 -27t159 -81.5t110 -147t40 -213.5v-15q0 -124 -42 -219.5t-115.5 -153.5t-166.5 -87t-202 -29h-162v-430q0 -14 -8.5 -22.5t-21.5 -8.5h-318q-13 0 -22 9t-9 22v1372q0 13 9 22t22 9zM780 930v18q0 81 -43 119.5t-133 38.5h-123v-334h119
q180 0 180 158z" />
    <glyph glyph-name="Q" unicode="Q" horiz-adv-x="1386" 
d="M1294 852v-270q0 -274 -164 -440l154 -154q20 -20 0 -43l-188 -189q-9 -9 -21.5 -9t-21.5 9l-228 228q-60 -11 -116 -11h-31q-115 0 -219 39.5t-186.5 113t-131.5 192t-49 264.5v270q0 146 49 264t131.5 192t186.5 113t219 39h31q115 0 219 -39t186 -113t131 -192
t49 -264zM686 301h14q100 0 152.5 64t52.5 180v344q0 114 -52.5 179t-152.5 65h-14q-100 0 -152.5 -65t-52.5 -179v-344q0 -116 52.5 -180t152.5 -64z" />
    <glyph glyph-name="R" unicode="R" horiz-adv-x="1312" 
d="M133 1434h559q105 0 191.5 -25t154 -76t105 -135.5t37.5 -196.5v-14q0 -146 -62 -250.5t-171 -161.5l138 -202l183 -336q7 -13 -0.5 -25t-22.5 -12h-358q-27 0 -39 25l-263 489h-104v-483q0 -14 -8.5 -22.5t-21.5 -8.5h-318q-13 0 -22 9t-9 22v1372q0 13 9 22t22 9z
M481 1106v-293h150q160 0 160 141v11q0 141 -160 141h-150z" />
    <glyph glyph-name="S" unicode="S" horiz-adv-x="1120" 
d="M451 551l67 -23q86 -29 119 -52t33 -66v-7q0 -50 -41.5 -77t-120.5 -27h-8q-75 0 -141 15.5t-232 70.5q-16 6 -26.5 -2t-10.5 -21v-270q0 -34 29 -47q48 -21 174 -46.5t231 -25.5h15q105 0 197 27.5t165 80.5t115.5 140t42.5 197v16q0 179 -98 283.5t-306 173.5l-73 24
q-76 26 -106 47.5t-30 61.5v6q0 50 39 77.5t105 27.5h8q70 0 135 -14.5t185 -51.5q14 -5 25 2.5t11 20.5v270q0 21 -5 31t-23 16q-38 14 -145 32.5t-206 18.5h-12q-98 0 -186.5 -28t-160 -81.5t-113.5 -140t-42 -194.5v-23q0 -166 100 -272.5t290 -169.5z" />
    <glyph glyph-name="T" unicode="T" horiz-adv-x="1210" 
d="M72 1434h1067q13 0 21.5 -8.5t8.5 -22.5v-266q0 -14 -8.5 -22.5t-21.5 -8.5h-344v-1075q0 -13 -8.5 -22t-22.5 -9h-318q-13 0 -21.5 8.5t-8.5 22.5v1075h-344q-14 0 -22.5 9t-8.5 22v266q0 13 8.5 22t22.5 9z" />
    <glyph glyph-name="U" unicode="U" horiz-adv-x="1345" 
d="M889 1434h328q13 0 21.5 -8.5t8.5 -22.5v-862q0 -118 -30 -213.5t-81.5 -161t-123 -109.5t-152 -64t-170.5 -20h-31q-90 0 -170.5 20t-152 64t-123 109.5t-81.5 161t-30 213.5v862q0 13 9 22t22 9h328q13 0 22 -9t9 -22v-879q0 -223 176 -223h14q176 0 176 223v879
q0 13 9 22t22 9z" />
    <glyph glyph-name="V" unicode="V" horiz-adv-x="1275" 
d="M882 1434h320q19 0 28 -12t4 -29l-311 -1370q-7 -23 -29 -23h-512q-21 0 -28 23l-312 1370q-5 17 4.5 29t28.5 12h320q21 0 28 -23l158 -694l51 -416h12l52 416l157 694q7 23 29 23z" />
    <glyph glyph-name="W" unicode="W" horiz-adv-x="2119" 
d="M1722 1434h323q18 0 27.5 -12t5.5 -29l-324 -1370q-7 -23 -28 -23h-455q-22 0 -29 23l-110 471l-62 456h-20l-62 -456l-110 -471q-7 -23 -29 -23h-454q-22 0 -29 23l-324 1370q-4 17 5.5 29t27.5 12h324q21 0 28 -23l164 -694l39 -385h16l39 385l164 694q7 23 29 23h364
q22 0 29 -23l164 -694l39 -385h16l39 385l164 694q7 23 29 23z" />
    <glyph glyph-name="X" unicode="X" horiz-adv-x="1361" 
d="M929 1434h351q15 0 21.5 -12t-1.5 -25l-348 -668l364 -692q7 -13 0 -25t-22 -12h-354q-26 0 -39 25l-152 286l-59 197h-17l-61 -197l-152 -286q-12 -25 -39 -25h-354q-15 0 -22 12t0 25l364 692l-348 668q-8 13 -1.5 25t21.5 12h351q26 0 39 -25l141 -266l61 -197h17
l59 197l141 266q12 25 39 25z" />
    <glyph glyph-name="Y" unicode="Y" horiz-adv-x="1296" 
d="M900 1434h318q22 0 32 -16t2 -36l-413 -917v-434q0 -13 -8.5 -22t-22.5 -9h-320q-13 0 -21.5 8.5t-8.5 22.5v434l-414 917q-8 20 2.5 36t32.5 16h317q30 0 43 -27l160 -354l45 -244h8l45 244l160 354q13 27 43 27z" />
    <glyph glyph-name="Z" unicode="Z" horiz-adv-x="1118" 
d="M528 328h498q14 0 22.5 -9t8.5 -22v-266q0 -13 -8.5 -22t-22.5 -9h-934q-14 0 -22.5 9t-8.5 22v233q0 22 13 41l504 801h-463q-13 0 -22 9t-9 22v266q0 13 9 22t22 9h899q13 0 21.5 -8.5t8.5 -22.5v-234q0 -23 -12 -41z" />
    <glyph glyph-name="bracketleft" unicode="[" horiz-adv-x="716" 
d="M481 16h164q14 0 22.5 -8.5t8.5 -21.5v-215q0 -13 -9 -22t-22 -9h-512q-13 0 -22 9t-9 22v1632q0 13 9 22t22 9h512q13 0 22 -9t9 -22v-215q0 -14 -9 -22.5t-22 -8.5h-164v-1141z" />
    <glyph glyph-name="backslash" unicode="\" horiz-adv-x="700" 
d="M73 1434h184q39 0 45 -37l357 -1354q5 -17 -4.5 -30t-28.5 -13h-182q-37 0 -47 37l-355 1354q-5 17 4.5 30t26.5 13z" />
    <glyph glyph-name="bracketright" unicode="]" horiz-adv-x="716" 
d="M72 1434h512q13 0 21.5 -8.5t8.5 -22.5v-1632q0 -14 -8.5 -22.5t-21.5 -8.5h-512q-14 0 -22.5 9t-8.5 22v215q0 13 8.5 21.5t22.5 8.5h164v1141h-164q-14 0 -22.5 8.5t-8.5 22.5v215q0 13 8.5 22t22.5 9z" />
    <glyph glyph-name="asciicircum" unicode="^" horiz-adv-x="780" 
d="M543 1401l194 -625q6 -19 -3.5 -32t-28.5 -13h-222q-24 0 -39 12t-16 33l-31 316h-12l-33 -316q-1 -21 -16 -33t-39 -12h-221q-19 0 -29 13t-4 32l195 625q10 33 43 33h219q33 0 43 -33z" />
    <glyph glyph-name="underscore" unicode="_" horiz-adv-x="1032" 
d="M72 -39h889q13 0 21.5 -8.5t8.5 -22.5v-215q0 -13 -8.5 -21.5t-21.5 -8.5h-889q-14 0 -22.5 8.5t-8.5 21.5v215q0 14 8.5 22.5t22.5 8.5z" />
    <glyph glyph-name="grave" unicode="`" horiz-adv-x="557" 
d="M357 1886l157 -311q4 -7 1 -13t-11 -6h-207q-23 0 -37 21l-217 313q-4 8 -0.5 14.5t11.5 6.5h262q28 0 41 -25z" />
    <glyph glyph-name="a" unicode="a" horiz-adv-x="1009" 
d="M528 1051h9q67 0 123.5 -9.5t111.5 -36t93 -69.5t62 -113.5t25 -163.5v-628q0 -14 -8.5 -22.5t-21.5 -8.5h-263q-21 0 -28 23l-20 77q-144 -127 -279 -127h-10q-70 0 -125 25t-88.5 66.5t-50.5 92.5t-17 107v25q0 150 101.5 232t322.5 100l127 10v14q0 75 -33 100
t-108 25h-5q-30 0 -68 -6t-64.5 -12t-81 -19.5t-80.5 -19.5q-12 -3 -21.5 3t-9.5 19v217q0 35 24 41q218 58 383 58zM592 426h-70q-119 0 -119 -90v-6q0 -37 22.5 -60.5t57.5 -23.5h11q40 0 98 38v142z" />
    <glyph glyph-name="b" unicode="b" horiz-adv-x="1093" 
d="M653 1051h23q118 0 203 -62t124 -159t39 -216v-178q0 -219 -126.5 -341t-337.5 -122h-23q-134 0 -265.5 38t-207.5 85q-21 14 -21 37v1346q0 13 8.5 21.5t22.5 8.5h299q14 0 22.5 -8.5t8.5 -21.5v-514q101 86 231 86zM674 414v190q0 78 -30 119t-85 41h-10
q-59 0 -127 -35v-436q73 -39 127 -39h10q55 0 85 41t30 119z" />
    <glyph glyph-name="c" unicode="c" horiz-adv-x="907" 
d="M537 1051h22q66 0 145.5 -20t131.5 -44q24 -9 24 -41v-223q0 -13 -9.5 -20.5t-21.5 -2.5q-86 35 -131.5 49.5t-83.5 14.5h-10q-83 0 -133.5 -54t-50.5 -157v-82q0 -103 50.5 -157t133.5 -54h10q38 0 83.5 14.5t131.5 49.5q12 5 21.5 -2.5t9.5 -20.5v-223q0 -32 -24 -41
q-52 -24 -131.5 -44t-145.5 -20h-22q-98 0 -184.5 30.5t-154.5 89.5t-107.5 154t-39.5 216v98q0 121 39.5 216t107.5 154t154.5 89.5t184.5 30.5z" />
    <glyph glyph-name="d" unicode="d" horiz-adv-x="1093" 
d="M702 1509h299q14 0 22.5 -8.5t8.5 -21.5v-1448q0 -13 -9 -22t-22 -9h-262q-21 0 -28 23l-16 59q-103 -109 -255 -109h-22q-91 0 -162.5 35.5t-115.5 96.5t-66.5 139t-22.5 166v178q0 216 115.5 339.5t290.5 123.5h22q116 0 193 -59v487q0 13 8 21.5t22 8.5zM545 764h-10
q-115 0 -115 -160v-184q0 -160 115 -160h10q55 0 127 35v430q-73 39 -127 39z" />
    <glyph glyph-name="e" unicode="e" horiz-adv-x="1042" 
d="M532 1051h23q190 0 315 -116t125 -329v-121q0 -22 -14.5 -36.5t-36.5 -14.5h-522l1 -12q-1 -86 49 -127t134 -41h10q57 0 123.5 17t171.5 53q12 5 21.5 -2.5t9.5 -20.5v-223q0 -32 -24 -41q-48 -22 -158.5 -43t-198.5 -21h-22q-103 0 -190.5 30.5t-154.5 89.5t-105 154
t-38 216v98q0 151 67 264.5t175 169.5t239 56zM543 791h-6q-105 0 -116 -154h239q8 154 -117 154z" />
    <glyph glyph-name="f" unicode="f" horiz-adv-x="827" 
d="M786 1489q21 -11 21 -33v-209q0 -12 -9.5 -18.5t-21.5 -3.5q-88 30 -133 30h-10q-46 0 -74.5 -32t-28.5 -103v-96h172q14 0 22.5 -9t8.5 -22v-215q0 -13 -8.5 -21.5t-22.5 -8.5h-172v-717q0 -14 -8.5 -22.5t-21.5 -8.5h-299q-13 0 -22 9t-9 22v717h-119q-14 0 -22.5 8.5
t-8.5 21.5v215q0 13 9 22t22 9h119v168q0 159 102 251.5t275 92.5h22q70 0 130 -16t87 -31z" />
    <glyph glyph-name="g" unicode="g" horiz-adv-x="1085" 
d="M1004 928q20 -13 20 -37v-807q0 -96 -31 -174.5t-81 -129t-115.5 -85t-132 -49.5t-132.5 -15h-8q-46 0 -89 2.5t-71.5 6t-63.5 10.5t-50.5 10.5t-49.5 12.5t-44 12q-25 6 -25 41v223q0 13 9.5 20t21.5 2q64 -23 94.5 -33t82.5 -21t97 -11h10q112 0 165 41t53 139v44
q-114 -87 -232 -87h-22q-89 0 -159 35.5t-113 96.5t-65 138t-22 166v109q0 220 123.5 341.5t333.5 121.5h22q134 0 266.5 -38t207.5 -85zM526 330h11q59 0 127 35v366q-73 39 -127 39h-11q-106 0 -106 -156v-127q0 -157 106 -157z" />
    <glyph glyph-name="h" unicode="h" horiz-adv-x="1095" 
d="M694 1051h27q138 0 227.5 -85.5t89.5 -234.5v-700q0 -14 -8.5 -22.5t-21.5 -8.5h-299q-13 0 -22 9t-9 22v618q0 60 -26.5 87.5t-80.5 27.5h-10q-62 0 -135 -39v-694q0 -13 -9 -22t-22 -9h-299q-13 0 -21.5 8.5t-8.5 22.5v1448q0 13 8 21.5t22 8.5h299q14 0 22.5 -8.5
t8.5 -21.5v-545q75 63 138 90t130 27z" />
    <glyph glyph-name="i" unicode="i" horiz-adv-x="487" 
d="M96 1473h299q13 0 22 -8.5t9 -22.5v-264q0 -14 -9 -22.5t-22 -8.5h-299q-13 0 -21.5 8.5t-8.5 22.5v264q0 14 8.5 22.5t21.5 8.5zM96 1024h299q13 0 22 -9t9 -22v-962q0 -13 -9 -22t-22 -9h-299q-13 0 -21.5 8.5t-8.5 22.5v962q0 14 8.5 22.5t21.5 8.5z" />
    <glyph glyph-name="j" unicode="j" horiz-adv-x="624" 
d="M234 1473h299q13 0 22 -8.5t9 -22.5v-264q0 -14 -9 -22.5t-22 -8.5h-299q-13 0 -21.5 8.5t-8.5 22.5v264q0 14 8.5 22.5t21.5 8.5zM234 1024h299q13 0 22 -9t9 -22v-993q0 -171 -88 -269.5t-244 -98.5h-22q-104 0 -164 28q-25 11 -26 42v192q1 18 10 22.5t22 -0.5
q35 -10 62 -10h10q40 0 60 21.5t20 75.5v990q0 14 8.5 22.5t21.5 8.5z" />
    <glyph glyph-name="k" unicode="k" horiz-adv-x="1110" 
d="M807 537l278 -496q8 -15 1.5 -28t-23.5 -13h-336q-27 0 -37 20l-200 365h-64v-354q0 -13 -9 -22t-22 -9h-299q-13 0 -21.5 8.5t-8.5 22.5v1448q0 13 8 21.5t22 8.5h299q14 0 22.5 -8.5t8.5 -21.5v-817h64l172 339q10 23 38 23h318q17 0 23.5 -13t-1.5 -26z" />
    <glyph glyph-name="l" unicode="l" horiz-adv-x="483" 
d="M96 1509h299q14 0 22.5 -8.5t8.5 -21.5v-1448q0 -13 -9 -22t-22 -9h-299q-13 0 -21.5 8.5t-8.5 22.5v1448q0 13 8 21.5t22 8.5z" />
    <glyph glyph-name="m" unicode="m" horiz-adv-x="1650" 
d="M1268 1051h26q134 0 216.5 -85t82.5 -235v-700q0 -14 -8.5 -22.5t-21.5 -8.5h-299q-14 0 -22.5 9t-8.5 22v618q0 62 -19.5 88.5t-68.5 26.5h-10q-55 0 -131 -37q4 -20 4 -76v-620q0 -13 -9 -22t-22 -9h-299q-14 0 -22.5 9t-8.5 22v618q0 62 -19.5 88.5t-68.5 26.5h-10
q-55 0 -127 -35v-698q0 -13 -9 -22t-22 -9h-299q-14 0 -22.5 9t-8.5 22v962q0 13 8.5 22t22.5 9h262q22 0 29 -23l20 -77q79 69 144.5 98t134.5 29h27q87 0 154.5 -37.5t104.5 -107.5q87 79 156.5 112t143.5 33z" />
    <glyph glyph-name="n" unicode="n" horiz-adv-x="1079" 
d="M682 1051h27q138 0 225.5 -85t87.5 -235v-700q0 -13 -9 -22t-22 -9h-299q-13 0 -21.5 8.5t-8.5 22.5v618q0 61 -25 88t-78 27h-10q-55 0 -127 -35v-698q0 -13 -9 -22t-22 -9h-299q-14 0 -22.5 9t-8.5 22v962q0 13 8.5 22t22.5 9h262q22 0 29 -23l20 -77q79 69 144.5 98
t134.5 29z" />
    <glyph glyph-name="o" unicode="o" horiz-adv-x="1103" 
d="M541 1051h22q131 0 241 -52.5t179.5 -160t69.5 -250.5v-152q0 -143 -69.5 -250.5t-179.5 -160t-241 -52.5h-22q-131 0 -241 52.5t-179.5 160t-69.5 250.5v152q0 143 69.5 250.5t179.5 160t241 52.5zM557 764h-10q-60 0 -93.5 -41t-33.5 -119v-184q0 -78 33.5 -119
t93.5 -41h10q60 0 93.5 41t33.5 119v184q0 78 -33.5 119t-93.5 41z" />
    <glyph glyph-name="p" unicode="p" horiz-adv-x="1097" 
d="M657 1051h23q89 0 160.5 -35.5t116 -96.5t67.5 -139t23 -166v-178q0 -215 -116.5 -339t-289.5 -124h-23q-115 0 -192 59v-343q0 -13 -9 -22t-22 -9h-299q-13 0 -21.5 8.5t-8.5 22.5v1304q0 14 8.5 22.5t21.5 8.5h262q22 0 29 -23l15 -59q103 109 255 109zM563 764h-10
q-55 0 -127 -35v-430q73 -39 127 -39h10q55 0 85 41t30 119v184q0 78 -30 119t-85 41z" />
    <glyph glyph-name="q" unicode="q" horiz-adv-x="1087" 
d="M510 1051h22q134 0 266.5 -38t207.5 -85q20 -13 20 -37v-1202q0 -13 -9 -22t-22 -9h-299q-13 0 -21.5 8.5t-8.5 22.5v370q-101 -86 -232 -86h-22q-89 0 -159.5 35.5t-113.5 96.5t-65.5 139t-22.5 166v178q0 219 124.5 341t334.5 122zM539 770h-11q-111 0 -108 -160v-190
q0 -160 108 -160h11q59 0 127 35v436q-73 39 -127 39z" />
    <glyph glyph-name="r" unicode="r" horiz-adv-x="763" 
d="M672 1051h8q23 0 43 -4q9 -1 14.5 -9.5t5.5 -17.5v-277q0 -17 -10 -25.5t-26 -6.5q-32 4 -82 4h-17q-100 0 -186 -35v-649q0 -13 -9 -22t-22 -9h-299q-14 0 -22.5 9t-8.5 22v962q0 13 8.5 22t22.5 9h262q22 0 29 -23l27 -102q50 71 121 111.5t141 40.5z" />
    <glyph glyph-name="s" unicode="s" horiz-adv-x="894" 
d="M451 1051h20q78 0 159 -13t118 -28q24 -9 24 -41v-211q0 -13 -9.5 -20.5t-21.5 -2.5q-64 25 -94 36t-68.5 19.5t-72.5 8.5h-2q-43 0 -68.5 -14t-25.5 -40v-4q0 -6 1 -11t2 -9t4.5 -7.5t5 -6t7 -5.5t7.5 -4.5t9.5 -4t9.5 -3.5t11 -4l12 -4l74 -25q72 -24 120.5 -49.5
t90 -64.5t61 -94.5t19.5 -131.5v-14q0 -154 -123.5 -242t-308.5 -88h-13q-72 0 -169 14t-134 31q-24 9 -24 41v211q0 14 9 20.5t21 2.5q69 -25 103.5 -37t79 -21.5t82.5 -9.5h10q106 0 106 58v4q0 18 -9.5 29t-21.5 16t-40 14l-74 25q-39 13 -69 25.5t-65 32.5t-60.5 45
t-47.5 57.5t-33.5 76.5t-11.5 97v10q0 83 35 149t93 105.5t127.5 60.5t144.5 21z" />
    <glyph glyph-name="t" unicode="t" horiz-adv-x="772" 
d="M190 1245l283 66q17 5 29 -4.5t12 -28.5v-254h207q13 0 22 -9t9 -22v-215q0 -14 -9 -22.5t-22 -8.5h-207v-399q0 -88 70 -88h10q19 0 127 31q12 3 21.5 -4t9.5 -19v-205q0 -21 -21 -32q-126 -58 -223 -58h-23q-155 0 -243 82.5t-88 223.5v468h-103q-13 0 -22 8.5t-9 22.5
v181q0 8 5 14.5t10 9.5t16 7l103 34v174q0 41 36 47z" />
    <glyph glyph-name="u" unicode="u" 
d="M674 1024h299q13 0 22 -9t9 -22v-962q0 -13 -9 -22t-22 -9h-262q-22 0 -29 23l-20 77q-79 -69 -144.5 -98t-134.5 -29h-27q-136 0 -217.5 84.5t-81.5 235.5v700q0 13 8.5 22t22.5 9h299q13 0 22 -9t9 -22v-618q0 -61 21 -88t67 -27h10q55 0 127 35v698q0 13 8.5 22
t22.5 9z" />
    <glyph glyph-name="v" unicode="v" horiz-adv-x="1093" 
d="M735 1024h303q19 0 29 -13t4 -32l-301 -959q-7 -20 -26 -20h-394q-19 0 -26 20l-301 959q-6 19 3.5 32t28.5 13h303q20 0 27 -20l98 -330l62 -375h4l61 375l99 330q7 20 26 20z" />
    <glyph glyph-name="w" unicode="w" horiz-adv-x="1720" 
d="M1356 1024h309q19 0 29 -13t4 -32l-281 -959q-7 -20 -26 -20h-351q-19 0 -26 20l-82 281l-62 356h-20l-61 -356l-82 -281q-7 -20 -27 -20h-350q-20 0 -27 20l-280 959q-6 19 3.5 32t28.5 13h310q19 0 26 -20l103 -404l28 -281h13l28 281l103 404q7 20 26 20h336
q20 0 27 -20l102 -404l29 -281h12l29 281l102 404q7 20 27 20z" />
    <glyph glyph-name="x" unicode="x" horiz-adv-x="1097" 
d="M727 1024h313q17 0 24 -13t-1 -26l-266 -467l276 -477q8 -13 1.5 -27t-23.5 -14h-322q-24 0 -37 20l-100 185l-37 133h-12l-37 -133l-101 -185q-13 -20 -36 -20h-322q-17 0 -24 14t1 27l277 477l-266 467q-8 13 -1.5 26t23.5 13h314q25 0 38 -23l97 -180l37 -133h12
l37 133l96 180q13 23 39 23z" />
    <glyph glyph-name="y" unicode="y" horiz-adv-x="1093" 
d="M735 1024h303q19 0 29 -13t4 -32l-317 -1008q-18 -57 -39.5 -104t-55.5 -92t-75.5 -76t-99 -49.5t-126.5 -18.5h-16q-61 0 -128.5 13.5t-86.5 21.5q-20 7 -20 33v221q0 12 9 19t21 4q105 -31 158 -31h4q71 0 90 61l8 27h-47q-19 0 -26 20l-301 959q-6 19 3.5 32t28.5 13
h303q20 0 27 -20l98 -330l62 -375h4l61 375l99 330q7 20 26 20z" />
    <glyph glyph-name="z" unicode="z" horiz-adv-x="888" 
d="M477 287h340q13 0 22 -8.5t9 -22.5v-225q0 -13 -9 -22t-22 -9h-745q-14 0 -22.5 9t-8.5 22v192q0 20 14 41l346 473h-309q-14 0 -22.5 8.5t-8.5 22.5v225q0 13 8.5 22t22.5 9h715q13 0 22 -9t9 -22v-192q0 -19 -15 -41z" />
    <glyph glyph-name="braceleft" unicode="{" horiz-adv-x="849" 
d="M614 1094v-303q0 -78 -43.5 -133.5t-115.5 -70.5q72 -15 115.5 -70.5t43.5 -133.5v-303q0 -28 18 -46t46 -18h100q14 0 22.5 -8.5t8.5 -21.5v-215q0 -13 -8.5 -22t-22.5 -9h-334q-91 0 -149.5 59t-58.5 150v436q0 28 -18 46t-46 18h-100q-14 0 -22.5 8.5t-8.5 21.5v215
q0 14 8.5 22.5t22.5 8.5h100q28 0 46 17.5t18 45.5v437q0 91 58.5 150t149.5 59h334q14 0 22.5 -9t8.5 -22v-215q0 -14 -8.5 -22.5t-22.5 -8.5h-100q-28 0 -46 -17.5t-18 -45.5z" />
    <glyph glyph-name="bar" unicode="|" horiz-adv-x="583" 
d="M133 1434h318q13 0 21.5 -8.5t8.5 -22.5v-1524q0 -14 -8.5 -22.5t-21.5 -8.5h-318q-13 0 -22 9t-9 22v1524q0 13 9 22t22 9z" />
    <glyph glyph-name="braceright" unicode="}" horiz-adv-x="849" 
d="M678 725h100q14 0 22.5 -8.5t8.5 -22.5v-215q0 -13 -8.5 -21.5t-22.5 -8.5h-100q-28 0 -46 -18t-18 -46v-436q0 -91 -58.5 -150t-149.5 -59h-334q-14 0 -22.5 9t-8.5 22v215q0 13 8.5 21.5t22.5 8.5h100q28 0 46 18t18 46v303q0 78 43.5 133.5t115.5 70.5
q-72 15 -115.5 70.5t-43.5 133.5v303q0 28 -18 45.5t-46 17.5h-100q-14 0 -22.5 8.5t-8.5 22.5v215q0 13 8.5 22t22.5 9h334q91 0 149.5 -59t58.5 -150v-437q0 -28 18 -45.5t46 -17.5z" />
    <glyph glyph-name="asciitilde" unicode="~" horiz-adv-x="864" 
d="M274 784q57 0 111 -25t105 -50t102 -25q77 0 194 64q14 8 25.5 1.5t11.5 -24.5v-197q0 -36 -32 -55q-110 -65 -203 -65q-55 0 -108 25t-105 50t-103 25q-77 0 -194 -64q-14 -8 -25.5 -1.5t-11.5 24.5v197q0 36 25 49q44 25 62 34.5t61.5 23t84.5 13.5z" />
    <glyph glyph-name="exclamdown" unicode="&#xa1;" horiz-adv-x="458" 
d="M80 1092h299q13 0 22 -9t9 -22v-293q0 -14 -9 -22.5t-22 -8.5h-299q-14 0 -22.5 8.5t-8.5 22.5v293q0 13 8.5 22t22.5 9zM127 598h205q28 0 31 -31l55 -878q1 -13 -8 -22t-23 -9h-315q-14 0 -23 9t-8 22l55 878q3 31 31 31z" />
    <glyph glyph-name="cent" unicode="&#xa2;" horiz-adv-x="907" 
d="M614 764h-10q-83 0 -133.5 -54t-50.5 -157v-82q0 -103 50.5 -157t133.5 -54h10q38 0 83.5 14.5t131.5 49.5q12 5 21.5 -2.5t9.5 -20.5v-223q0 -32 -24 -41q-72 -32 -158 -50v-243q0 -14 -9 -22.5t-22 -8.5h-198q-13 0 -22 8.5t-9 22.5v241q-163 33 -265 155.5t-102 322.5
v98q0 200 102 322.5t265 155.5v241q0 14 9 22.5t22 8.5h198q13 0 22 -8.5t9 -22.5v-243q86 -18 158 -50q24 -9 24 -41v-223q0 -13 -9.5 -20.5t-21.5 -2.5q-86 35 -131.5 49.5t-83.5 14.5z" />
    <glyph glyph-name="sterling" unicode="&#xa3;" horiz-adv-x="1056" 
d="M440 328h504q14 0 22.5 -9t8.5 -22v-266q0 -13 -8.5 -22t-22.5 -9h-833q-13 0 -22 9t-9 22v248q0 17 10 34q8 15 44.5 68t52.5 95.5t16 98.5q0 11 -2 33h-129q-14 0 -22.5 9t-8.5 22v147q0 14 8.5 22.5t22.5 8.5h79q-26 100 -26 178v13q0 201 142.5 326.5t377.5 125.5h12
q139 0 279 -51q18 -6 23.5 -16.5t5.5 -30.5v-270q0 -13 -11.5 -20.5t-25.5 -2.5q-20 7 -59 22.5t-52.5 20t-39.5 12t-47 9.5t-48 2h-8q-73 0 -118.5 -47.5t-45.5 -118.5v-6q0 -62 14 -146h264q14 0 22.5 -8.5t8.5 -22.5v-147q0 -13 -8.5 -22t-22.5 -9h-227q4 -38 4 -53
q0 -124 -125 -227z" />
    <glyph glyph-name="currency" unicode="&#xa4;" horiz-adv-x="1292" 
d="M1068 331l172 -171q22 -22 0 -45l-140 -140q-22 -23 -45 0l-171 172q-107 -59 -238 -59q-132 0 -239 59l-171 -172q-22 -23 -45 0l-139 140q-22 23 0 45l172 171q-60 111 -60 238q0 128 60 239l-172 171q-22 23 0 45l139 139q23 23 45 0l171 -172q109 60 239 60
q129 0 238 -60l171 172q23 23 45 0l140 -139q22 -22 0 -45l-173 -171q60 -111 60 -239q0 -129 -59 -238zM443 569q0 -88 57 -145.5t146 -56.5q88 0 144 56.5t58 145.5q-2 87 -58.5 144.5t-143.5 56.5q-89 1 -146 -56t-57 -145z" />
    <glyph glyph-name="yen" unicode="&#xa5;" horiz-adv-x="1296" 
d="M900 1434h318q22 0 32 -16t2 -36l-311 -690h162q14 0 22.5 -8.5t8.5 -21.5v-148q0 -14 -9 -22.5t-22 -8.5h-256l-8 -18v-72h264q13 0 22 -8.5t9 -22.5v-147q0 -13 -9 -22t-22 -9h-264v-153q0 -13 -8.5 -22t-22.5 -9h-320q-13 0 -21.5 8.5t-8.5 22.5v153h-264
q-14 0 -22.5 9t-8.5 22v147q0 14 8.5 22.5t22.5 8.5h264v72l-9 18h-255q-14 0 -22.5 8.5t-8.5 22.5v148q0 13 8.5 21.5t22.5 8.5h161l-311 690q-8 20 2.5 36t32.5 16h317q30 0 43 -27l160 -354l45 -244h8l45 244l160 354q13 27 43 27z" />
    <glyph glyph-name="brokenbar" unicode="&#xa6;" horiz-adv-x="583" 
d="M133 1434h318q13 0 21.5 -8.5t8.5 -22.5v-662q0 -13 -8.5 -21.5t-21.5 -8.5h-318q-14 0 -22.5 8.5t-8.5 21.5v662q0 13 9 22t22 9zM133 571h318q13 0 21.5 -8.5t8.5 -21.5v-662q0 -14 -8.5 -22.5t-21.5 -8.5h-318q-13 0 -22 9t-9 22v662q0 13 8.5 21.5t22.5 8.5z" />
    <glyph glyph-name="section" unicode="&#xa7;" horiz-adv-x="903" 
d="M469 1329h20q78 0 159 -13t118 -28q25 -9 25 -41v-211q0 -13 -9.5 -20t-21.5 -2q-89 35 -137.5 49t-98.5 14h-2q-44 0 -69 -13.5t-25 -39.5v-4q0 -6 1 -11.5t3.5 -10t4 -8t7.5 -7t8 -5t10 -4.5t10.5 -4t12.5 -4.5t13 -4.5l73 -25q72 -24 120.5 -49.5t90 -64.5t61 -94.5
t19.5 -131.5v-14q0 -134 -98 -221q70 -82 70 -207v-11q0 -83 -35 -149t-93 -105.5t-127.5 -60.5t-144.5 -21h-20q-78 0 -159 13t-118 28q-24 9 -24 41v211q0 14 9 20.5t21 2.5q91 -36 139 -50t97 -14h2q43 0 68.5 14t25.5 40v4q0 6 -1 11t-2 9t-4.5 7.5t-5 6t-7 5.5
t-7.5 4.5t-9.5 4t-9.5 3.5t-11 4l-12 4l-74 25q-72 24 -120.5 49.5t-90 64.5t-61 94.5t-19.5 131.5v14q0 134 98 221q-69 80 -69 207v10q0 83 35 149t92.5 105.5t127.5 60.5t144 21zM502 600l-138 47q-34 -14 -34 -47v-4q0 -18 9.5 -29t21.5 -16t40 -14l138 -47q34 14 34 47
v4q0 18 -9.5 29t-21.5 16t-40 14z" />
    <glyph glyph-name="dieresis" unicode="&#xa8;" horiz-adv-x="788" 
d="M72 1911h245q13 0 22 -8.5t9 -22.5v-293q0 -13 -9 -22t-22 -9h-245q-14 0 -22.5 9t-8.5 22v293q0 14 8.5 22.5t22.5 8.5zM471 1911h246q13 0 22 -8.5t9 -22.5v-293q0 -13 -9 -22t-22 -9h-246q-13 0 -22 9t-9 22v293q0 14 9 22.5t22 8.5z" />
    <glyph glyph-name="copyright" unicode="&#xa9;" horiz-adv-x="1187" 
d="M594 1536q112 0 214.5 -44t176.5 -118t118 -176.5t44 -214.5t-44 -214.5t-118 -176.5t-176.5 -118t-214.5 -44t-214.5 44t-176.5 118t-118 176.5t-44 214.5t44 214.5t118 176.5t176.5 118t214.5 44zM594 1407q-175 0 -299.5 -124.5t-124.5 -299.5q0 -177 124.5 -301.5
t299.5 -124.5q177 0 300.5 124.5t123.5 301.5q0 175 -124 299.5t-300 124.5zM638 1105h-6q-43 0 -68 -26.5t-25 -79.5v-39q0 -53 25 -80t68 -27h6q37 0 108 32q5 3 10.5 -1t5.5 -11v-113q0 -13 -13 -20q-73 -32 -140 -32h-10q-105 0 -175.5 63.5t-70.5 184.5v48
q0 120 70.5 184t175.5 64h10q67 0 140 -32q13 -7 13 -20v-115q0 -6 -5 -10t-11 -2q-71 32 -108 32z" />
    <glyph glyph-name="guillemotleft" unicode="&#xab;" horiz-adv-x="972" 
d="M332 557l164 -301q3 -6 -0.5 -12t-10.5 -6h-227q-22 0 -35 16l-166 217q-16 22 -16 45v82q0 23 16 45l166 217q14 17 35 17h227q7 0 10.5 -6.5t0.5 -12.5zM766 557l164 -301q3 -6 0 -12t-10 -6h-228q-22 0 -35 16l-165 217q-17 24 -17 45v82q0 21 17 45l165 217
q14 17 35 17h228q7 0 10 -6.5t0 -12.5z" />
    <glyph glyph-name="logicalnot" unicode="&#xac;" horiz-adv-x="1032" 
d="M72 764h889q13 0 21.5 -8.5t8.5 -22.5v-414q0 -30 -30 -30h-226q-13 0 -21.5 8.5t-8.5 21.5v168h-633q-14 0 -22.5 8.5t-8.5 22.5v215q0 13 8.5 22t22.5 9z" />
    <glyph glyph-name="registered" unicode="&#xae;" horiz-adv-x="1187" 
d="M594 1536q112 0 214.5 -44t176.5 -118t118 -176.5t44 -214.5t-44 -214.5t-118 -176.5t-176.5 -118t-214.5 -44t-214.5 44t-176.5 118t-118 176.5t-44 214.5t44 214.5t118 176.5t176.5 118t214.5 44zM594 1407q-175 0 -299.5 -124.5t-124.5 -299.5q0 -177 124.5 -301.5
t299.5 -124.5q177 0 300.5 124.5t123.5 301.5q0 175 -124 299.5t-300 124.5zM384 1244h255q94 0 145 -49t51 -130v-7q0 -44 -24 -80.5t-62 -53.5l45 -55l63 -126q3 -6 0 -11.5t-10 -5.5h-167q-14 0 -21 14l-77 153h-31v-151q0 -16 -16 -16h-151q-15 0 -15 16v486q0 16 15 16
zM551 1014h47q51 0 51 41v8q0 41 -51 41h-47v-90z" />
    <glyph glyph-name="macron" unicode="&#xaf;" horiz-adv-x="612" 
d="M72 1808h469q13 0 21.5 -8t8.5 -22v-191q0 -14 -8.5 -22.5t-21.5 -8.5h-469q-14 0 -22.5 9t-8.5 22v191q0 13 8.5 21.5t22.5 8.5z" />
    <glyph glyph-name="degree" unicode="&#xb0;" horiz-adv-x="606" 
d="M303 1536q109 0 185.5 -76.5t76.5 -185.5q0 -108 -77 -185t-185 -77t-185 77t-77 185q0 109 76.5 185.5t185.5 76.5zM303 1352q-32 0 -55 -23t-23 -55t23 -54t55 -22t55 22t23 54t-23 55t-55 23z" />
    <glyph glyph-name="plusminus" unicode="&#xb1;" horiz-adv-x="1032" 
d="M657 819h304q13 0 21.5 -8.5t8.5 -22.5v-215q0 -13 -8.5 -21.5t-21.5 -8.5h-305l-1 -174q0 -31 -30 -31h-219q-14 0 -22.5 9t-8.5 22v174h-303q-14 0 -22.5 8.5t-8.5 21.5v215q0 14 8.5 22.5t22.5 8.5h304l1 174q0 13 8.5 22t22.5 9h219q13 0 21.5 -8.5t8.5 -22.5v-174z
M72 264h889q13 0 21.5 -8.5t8.5 -22.5v-147q0 -14 -8.5 -22.5t-21.5 -8.5h-889q-14 0 -22.5 8.5t-8.5 22.5v147q0 13 8.5 22t22.5 9z" />
    <glyph glyph-name="acute" unicode="&#xb4;" horiz-adv-x="557" 
d="M43 1575l158 311q13 25 41 25h262q8 0 11 -6.5t-1 -14.5l-217 -313q-14 -21 -37 -21h-206q-8 0 -11.5 6t0.5 13z" />
    <glyph glyph-name="paragraph" unicode="&#xb6;" horiz-adv-x="1153" 
d="M406 1434h614q14 0 22.5 -9t8.5 -22v-1714q0 -13 -8.5 -22t-22.5 -9h-201q-13 0 -22 9t-9 22v1558h-120v-1558q0 -13 -9 -22t-22 -9h-201q-13 0 -21.5 8.5t-8.5 22.5v942q-365 0 -365 393q0 209 97.5 309.5t267.5 100.5z" />
    <glyph glyph-name="periodcentered" unicode="&#xb7;" horiz-adv-x="442" 
d="M72 793h299q13 0 21.5 -8.5t8.5 -22.5v-293q0 -14 -8.5 -22.5t-21.5 -8.5h-299q-14 0 -22.5 9t-8.5 22v293q0 14 8.5 22.5t22.5 8.5z" />
    <glyph glyph-name="cedilla" unicode="&#xb8;" horiz-adv-x="497" 
d="M297 0l-18 -89q1 0 6.5 0.5t7.5 0.5q72 0 118 -44.5t46 -119.5q0 -88 -64 -138t-172 -50q-90 0 -151 32q-29 16 -29 43v66q0 6 5 9t11 1q2 0 22.5 -6.5t48 -12t52.5 -5.5q70 0 70 43q0 41 -57 41q-25 0 -68 -15q-8 -3 -16 0l-11 4q-18 7 -14 25l45 215h168z" />
    <glyph glyph-name="guillemotright" unicode="&#xbb;" horiz-adv-x="972" 
d="M206 557l-163 301q-3 6 0 12.5t10 6.5h227q21 0 35 -17l166 -217q16 -22 16 -45v-82q0 -23 -16 -45l-166 -217q-13 -16 -35 -16h-227q-7 0 -10 6t0 12zM641 557l-164 301q-3 6 0 12.5t10 6.5h227q21 0 35 -17l166 -217q16 -22 16 -45v-82q0 -23 -16 -45l-166 -217
q-13 -16 -35 -16h-227q-7 0 -10 6t0 12z" />
    <glyph glyph-name="onequarter" unicode="&#xbc;" horiz-adv-x="2021" 
d="M481 907h123q14 0 22.5 -8.5t8.5 -21.5v-185q0 -13 -8.5 -21.5t-22.5 -8.5h-532q-14 0 -22.5 8.5t-8.5 21.5v185q0 13 8.5 21.5t22.5 8.5h139v240l-139 -39q-12 -3 -21.5 3.5t-9.5 18.5v173q0 33 31 43l243 77q37 11 64 11h72q13 0 21.5 -8.5t8.5 -22.5v-496zM1178 1434
h183q15 0 21.5 -11.5t0.5 -23.5l-645 -1362q-18 -37 -59 -37h-183q-15 0 -21.5 11.5t-0.5 23.5l645 1362q18 37 59 37zM1826 383h123q13 0 22 -8.5t9 -22.5v-159q0 -13 -9 -22t-22 -9h-123v-131q0 -14 -8.5 -22.5t-21.5 -8.5h-209q-13 0 -22 9t-9 22v131h-303q-13 0 -22 9
t-9 22v145q0 23 12 41l220 366q17 27 47 27h295q13 0 21.5 -8.5t8.5 -22.5v-358zM1556 563l-102 -180h102v180z" />
    <glyph glyph-name="onehalf" unicode="&#xbd;" horiz-adv-x="1869" 
d="M481 907h123q14 0 22.5 -8.5t8.5 -21.5v-185q0 -13 -8.5 -21.5t-22.5 -8.5h-532q-14 0 -22.5 8.5t-8.5 21.5v185q0 13 8.5 21.5t22.5 8.5h139v240l-139 -39q-12 -3 -21.5 3.5t-9.5 18.5v173q0 33 31 43l243 77q37 11 64 11h72q13 0 21.5 -8.5t8.5 -22.5v-496zM1178 1434
h183q15 0 21.5 -11.5t0.5 -23.5l-645 -1362q-18 -37 -59 -37h-183q-15 0 -21.5 11.5t-0.5 23.5l645 1362q18 37 59 37zM1486 799h6q150 0 237 -71.5t87 -195.5v-8q0 -38 -14 -74t-30.5 -60.5t-47.5 -52t-48 -40t-48 -33.5l-27 -18h197q13 0 21.5 -8.5t8.5 -22.5v-184
q0 -14 -8.5 -22.5t-21.5 -8.5h-545q-13 0 -22 9t-9 22v143q0 26 21 43l213 162q44 34 60.5 59.5t16.5 55.5v4q0 32 -21.5 50.5t-59.5 18.5h-7q-23 0 -46.5 -5.5t-61.5 -17t-64 -18.5q-12 -3 -21 4t-9 19v180q0 31 26 37q140 33 217 33z" />
    <glyph glyph-name="threequarters" unicode="&#xbe;" horiz-adv-x="2007" 
d="M285 1460h6q144 0 228.5 -65.5t84.5 -173.5v-9q0 -49 -27 -90t-71 -69q115 -53 115 -170v-9q0 -108 -89.5 -173.5t-244.5 -65.5h-6q-73 0 -213 33q-27 7 -27 37v167q0 12 9.5 19t21.5 4q23 -6 65 -18.5t66 -17.5t47 -5h6q82 0 82 53v6q0 45 -62 45h-79q-13 0 -22 9t-9 22
v119q0 14 9 22.5t22 8.5h67q64 0 64 51v6q0 22 -17.5 35.5t-50.5 13.5h-6q-20 0 -43.5 -5t-63.5 -17t-65 -19q-12 -3 -21.5 4t-9.5 19v164q0 29 27 36q140 33 207 33zM1164 1434h182q15 0 22 -11.5t1 -23.5l-645 -1362q-18 -37 -60 -37h-182q-15 0 -21.5 11.5t-0.5 23.5
l645 1362q18 37 59 37zM1812 383h123q13 0 22 -8.5t9 -22.5v-159q0 -13 -9 -22t-22 -9h-123v-131q0 -13 -9 -22t-22 -9h-209q-13 0 -21.5 8.5t-8.5 22.5v131h-303q-13 0 -22 9t-9 22v145q0 23 12 41l219 366q17 27 47 27h295q13 0 22 -9t9 -22v-358zM1542 563l-103 -180h103
v180z" />
    <glyph glyph-name="questiondown" unicode="&#xbf;" horiz-adv-x="1021" 
d="M522 1092h299q13 0 22 -9t9 -22v-293q0 -14 -9 -22.5t-22 -8.5h-299q-13 0 -21.5 8.5t-8.5 22.5v293q0 14 8.5 22.5t21.5 8.5zM569 598h205q28 0 31 -31l16 -248q2 -31 -22 -55l-19 -18q-26 -26 -67 -21q-78 8 -101 8q-92 0 -137 -34.5t-45 -92.5v-6q0 -141 201 -141h10
q46 0 96.5 9.5t81.5 18.5t125 38q14 5 25.5 -2.5t11.5 -20.5v-272q0 -20 -5.5 -30.5t-23.5 -16.5q-40 -15 -140 -33.5t-194 -18.5h-12q-250 0 -407.5 113t-157.5 317v15q0 174 106 283.5t283 109.5q50 0 102 -10l7 108q3 31 30 31z" />
    <glyph glyph-name="Agrave" unicode="&#xc0;" horiz-adv-x="1361" 
d="M634 1886l158 -311q4 -7 0.5 -13t-11.5 -6h-206q-23 0 -37 21l-217 313q-4 8 -1 14.5t11 6.5h262q29 0 41 -25zM427 1434h508q23 0 30 -31l355 -1372q3 -13 -7 -22t-24 -9h-324q-23 0 -30 31l-66 270h-377l-65 -270q-7 -31 -31 -31h-324q-14 0 -23.5 9t-6.5 22l354 1372
q7 31 31 31zM672 1133l-67 -367l-33 -137h218l-34 137l-67 367h-17z" />
    <glyph glyph-name="Aacute" unicode="&#xc1;" horiz-adv-x="1361" 
d="M560 1575l158 311q12 25 41 25h262q8 0 11 -6.5t-1 -14.5l-217 -313q-14 -21 -37 -21h-207q-8 0 -11 6t1 13zM427 1434h508q23 0 30 -31l355 -1372q3 -13 -7 -22t-24 -9h-324q-23 0 -30 31l-66 270h-377l-65 -270q-7 -31 -31 -31h-324q-14 0 -23.5 9t-6.5 22l354 1372
q7 31 31 31zM672 1133l-67 -367l-33 -137h218l-34 137l-67 367h-17z" />
    <glyph glyph-name="Acircumflex" unicode="&#xc2;" horiz-adv-x="1361" 
d="M804 1890l217 -313q4 -7 1 -14t-11 -7h-230q-29 0 -41 25l-60 119l-60 -119q-12 -25 -41 -25h-230q-8 0 -11 7t1 14l217 313q14 21 37 21h174q23 0 37 -21zM427 1434h508q23 0 30 -31l355 -1372q3 -13 -7 -22t-24 -9h-324q-23 0 -30 31l-66 270h-377l-65 -270
q-7 -31 -31 -31h-324q-14 0 -23.5 9t-6.5 22l354 1372q7 31 31 31zM672 1133l-67 -367l-33 -137h218l-34 137l-67 367h-17z" />
    <glyph glyph-name="Atilde" unicode="&#xc3;" horiz-adv-x="1361" 
d="M874 1839h109q9 0 13 -6.5t1 -15.5q-55 -158 -106.5 -219.5t-126.5 -61.5h-8q-31 0 -56.5 12t-40 27t-36 27t-45.5 12q-8 0 -15.5 -2t-12 -3.5t-10.5 -6.5t-8 -6.5t-7.5 -8.5t-6.5 -8q-13 -16 -33 -16h-108q-9 0 -13.5 6.5t-1.5 15.5q55 158 107 219.5t127 61.5h8
q32 0 59 -12t42.5 -27t36 -27t40.5 -12q30 0 60 35q13 16 32 16zM427 1434h508q23 0 30 -31l355 -1372q3 -13 -7 -22t-24 -9h-324q-23 0 -30 31l-66 270h-377l-65 -270q-7 -31 -31 -31h-324q-14 0 -23.5 9t-6.5 22l354 1372q7 31 31 31zM672 1133l-67 -367l-33 -137h218
l-34 137l-67 367h-17z" />
    <glyph glyph-name="Adieresis" unicode="&#xc4;" horiz-adv-x="1361" 
d="M357 1911h246q13 0 22 -8.5t9 -22.5v-293q0 -13 -9 -22t-22 -9h-246q-13 0 -21.5 8.5t-8.5 22.5v293q0 14 8.5 22.5t21.5 8.5zM757 1911h245q14 0 22.5 -8.5t8.5 -22.5v-293q0 -13 -8.5 -22t-22.5 -9h-245q-13 0 -22 9t-9 22v293q0 14 9 22.5t22 8.5zM427 1434h508
q23 0 30 -31l355 -1372q3 -13 -7 -22t-24 -9h-324q-23 0 -30 31l-66 270h-377l-65 -270q-7 -31 -31 -31h-324q-14 0 -23.5 9t-6.5 22l354 1372q7 31 31 31zM672 1133l-67 -367l-33 -137h218l-34 137l-67 367h-17z" />
    <glyph glyph-name="Aring" unicode="&#xc5;" horiz-adv-x="1361" 
d="M681 1935q86 0 147.5 -61.5t61.5 -147.5q0 -88 -61 -149t-148 -61q-88 0 -149.5 61t-61.5 149q0 86 61.5 147.5t149.5 61.5zM681 1778q-22 0 -37.5 -15t-15.5 -37t15.5 -37.5t37.5 -15.5t36.5 15.5t14.5 37.5t-14.5 37t-36.5 15zM427 1434h508q23 0 30 -31l355 -1372
q3 -13 -7 -22t-24 -9h-324q-23 0 -30 31l-66 270h-377l-65 -270q-7 -31 -31 -31h-324q-14 0 -23.5 9t-6.5 22l354 1372q7 31 31 31zM672 1133l-67 -367l-33 -137h218l-34 137l-67 367h-17z" />
    <glyph glyph-name="AE" unicode="&#xc6;" horiz-adv-x="1679" 
d="M1067 891h469q14 0 22.5 -8.5t8.5 -22.5v-266q0 -14 -8.5 -22.5t-22.5 -8.5h-469v-235h531q14 0 22.5 -9t8.5 -22v-266q0 -13 -8.5 -22t-22.5 -9h-879q-13 0 -22 9t-9 22v270h-196l-65 -270q-7 -31 -31 -31h-324q-14 0 -23.5 9t-6.5 22l354 1372q7 31 31 31h1171
q14 0 22.5 -9t8.5 -22v-266q0 -13 -8.5 -22t-22.5 -9h-531v-215zM688 1133h-16l-67 -367l-33 -137h116v504z" />
    <glyph glyph-name="Ccedilla" unicode="&#xc7;" horiz-adv-x="1142" 
d="M791 1133h-9q-139 0 -220 -88.5t-81 -239.5v-176q0 -151 81 -239.5t220 -88.5h9q76 0 132 14.5t132 46.5q13 6 25 -1t12 -21v-262q0 -30 -29 -47q-37 -21 -125.5 -39t-176.5 -19l-12 -62q1 0 6.5 0.5t7.5 0.5q72 0 118 -44.5t46 -119.5q0 -88 -64 -138t-172 -50
q-90 0 -151 32q-29 16 -29 43v66q0 6 5 9t11 1q2 0 22.5 -6.5t48 -12t52.5 -5.5q70 0 70 43q0 41 -57 41q-25 0 -68 -15q-8 -3 -16 0l-11 4q-18 7 -14 25l42 200q-104 19 -194 70.5t-160 131t-110 194t-40 250.5v172q0 155 52 282t140 207.5t200 124t235 43.5h31
q92 0 181.5 -18.5t131.5 -40.5q29 -15 29 -47v-260q0 -14 -12 -21.5t-25 -1.5q-84 35 -137.5 48.5t-126.5 13.5z" />
    <glyph glyph-name="Egrave" unicode="&#xc8;" horiz-adv-x="1093" 
d="M541 1886l158 -311q4 -7 1 -13t-11 -6h-207q-23 0 -37 21l-217 313q-4 8 -1 14.5t11 6.5h262q28 0 41 -25zM481 891h469q14 0 22.5 -8.5t8.5 -22.5v-266q0 -14 -8.5 -22.5t-22.5 -8.5h-469v-235h531q13 0 21.5 -8.5t8.5 -22.5v-266q0 -14 -8.5 -22.5t-21.5 -8.5h-879
q-13 0 -22 9t-9 22v1372q0 13 9 22t22 9h879q13 0 21.5 -8.5t8.5 -22.5v-266q0 -14 -8.5 -22.5t-21.5 -8.5h-531v-215z" />
    <glyph glyph-name="Eacute" unicode="&#xc9;" horiz-adv-x="1093" 
d="M430 1575l157 311q13 25 41 25h262q8 0 11.5 -6.5t-0.5 -14.5l-217 -313q-14 -21 -37 -21h-207q-8 0 -11 6t1 13zM481 891h469q14 0 22.5 -8.5t8.5 -22.5v-266q0 -14 -8.5 -22.5t-22.5 -8.5h-469v-235h531q13 0 21.5 -8.5t8.5 -22.5v-266q0 -14 -8.5 -22.5t-21.5 -8.5
h-879q-13 0 -22 9t-9 22v1372q0 13 9 22t22 9h879q13 0 21.5 -8.5t8.5 -22.5v-266q0 -14 -8.5 -22.5t-21.5 -8.5h-531v-215z" />
    <glyph glyph-name="Ecircumflex" unicode="&#xca;" horiz-adv-x="1093" 
d="M671 1890l217 -313q4 -7 1 -14t-11 -7h-230q-28 0 -41 25l-60 119l-61 -119q-12 -25 -41 -25h-229q-8 0 -11 7t1 14l217 313q14 21 37 21h174q23 0 37 -21zM481 891h469q14 0 22.5 -8.5t8.5 -22.5v-266q0 -14 -8.5 -22.5t-22.5 -8.5h-469v-235h531q13 0 21.5 -8.5
t8.5 -22.5v-266q0 -14 -8.5 -22.5t-21.5 -8.5h-879q-13 0 -22 9t-9 22v1372q0 13 9 22t22 9h879q13 0 21.5 -8.5t8.5 -22.5v-266q0 -14 -8.5 -22.5t-21.5 -8.5h-531v-215z" />
    <glyph glyph-name="Edieresis" unicode="&#xcb;" horiz-adv-x="1093" 
d="M224 1911h246q14 0 22.5 -8.5t8.5 -22.5v-293q0 -13 -8.5 -22t-22.5 -9h-246q-13 0 -21.5 8.5t-8.5 22.5v293q0 14 8.5 22.5t21.5 8.5zM624 1911h245q13 0 22 -8.5t9 -22.5v-293q0 -13 -9 -22t-22 -9h-245q-14 0 -22.5 9t-8.5 22v293q0 14 8.5 22.5t22.5 8.5zM481 891
h469q14 0 22.5 -8.5t8.5 -22.5v-266q0 -14 -8.5 -22.5t-22.5 -8.5h-469v-235h531q13 0 21.5 -8.5t8.5 -22.5v-266q0 -14 -8.5 -22.5t-21.5 -8.5h-879q-13 0 -22 9t-9 22v1372q0 13 9 22t22 9h879q13 0 21.5 -8.5t8.5 -22.5v-266q0 -14 -8.5 -22.5t-21.5 -8.5h-531v-215z" />
    <glyph glyph-name="Igrave" unicode="&#xcc;" horiz-adv-x="583" 
d="M246 1886l158 -311q4 -7 0.5 -13t-11.5 -6h-206q-23 0 -37 21l-217 313q-4 8 -1 14.5t11 6.5h262q29 0 41 -25zM133 1434h318q13 0 21.5 -8.5t8.5 -22.5v-1372q0 -14 -8.5 -22.5t-21.5 -8.5h-318q-13 0 -22 9t-9 22v1372q0 13 9 22t22 9z" />
    <glyph glyph-name="Iacute" unicode="&#xcd;" horiz-adv-x="583" 
d="M174 1575l157 311q13 25 41 25h262q8 0 11.5 -6.5t-0.5 -14.5l-217 -313q-14 -21 -37 -21h-207q-8 0 -11 6t1 13zM133 1434h318q13 0 21.5 -8.5t8.5 -22.5v-1372q0 -14 -8.5 -22.5t-21.5 -8.5h-318q-13 0 -22 9t-9 22v1372q0 13 9 22t22 9z" />
    <glyph glyph-name="Icircumflex" unicode="&#xce;" horiz-adv-x="583" 
d="M417 1890l217 -313q4 -7 1 -14t-11 -7h-230q-28 0 -41 25l-60 119l-61 -119q-12 -25 -41 -25h-229q-8 0 -11 7t1 14l217 313q14 21 37 21h174q23 0 37 -21zM133 1434h318q13 0 21.5 -8.5t8.5 -22.5v-1372q0 -14 -8.5 -22.5t-21.5 -8.5h-318q-13 0 -22 9t-9 22v1372
q0 13 9 22t22 9z" />
    <glyph glyph-name="Idieresis" unicode="&#xcf;" horiz-adv-x="583" 
d="M-30 1911h246q14 0 22.5 -8.5t8.5 -22.5v-293q0 -13 -8.5 -22t-22.5 -9h-246q-13 0 -21.5 8.5t-8.5 22.5v293q0 14 8.5 22.5t21.5 8.5zM370 1911h245q13 0 22 -8.5t9 -22.5v-293q0 -13 -9 -22t-22 -9h-245q-14 0 -22.5 9t-8.5 22v293q0 14 8.5 22.5t22.5 8.5zM133 1434
h318q13 0 21.5 -8.5t8.5 -22.5v-1372q0 -14 -8.5 -22.5t-21.5 -8.5h-318q-13 0 -22 9t-9 22v1372q0 13 9 22t22 9z" />
    <glyph glyph-name="Eth" unicode="&#xd0;" horiz-adv-x="1318" 
d="M133 1434h504q123 0 228.5 -38t187 -113t128 -196.5t46.5 -277.5v-184q0 -156 -46.5 -277.5t-128 -196.5t-187 -113t-228.5 -38h-504q-13 0 -22 9t-9 22v497h-30q-14 0 -22.5 9t-8.5 22v215q0 14 8.5 22.5t22.5 8.5h30v598q0 13 9 22t22 9zM844 623v188q0 153 -59 224
t-195 71h-109v-301h168q13 0 22 -8.5t9 -22.5v-215q0 -13 -9 -22t-22 -9h-168v-200h109q136 0 195 71t59 224z" />
    <glyph glyph-name="Ntilde" unicode="&#xd1;" horiz-adv-x="1384" 
d="M887 1839h108q9 0 13.5 -6.5t1.5 -15.5q-55 -158 -107 -219.5t-127 -61.5h-8q-31 0 -56.5 12t-40 27t-36 27t-45.5 12q-8 0 -15.5 -2t-12 -3.5t-10.5 -6.5t-8 -6.5t-7.5 -8.5t-6.5 -8q-13 -16 -32 -16h-109q-9 0 -13 6.5t-1 15.5q55 158 106.5 219.5t126.5 61.5h8
q40 0 72 -19.5t57 -39t50 -19.5q29 0 59 35q13 16 33 16zM938 1434h317q13 0 22 -9t9 -22v-1372q0 -13 -9 -22t-22 -9h-356q-27 0 -41 25l-285 561l-104 266h-29l37 -266v-555q0 -13 -8.5 -22t-22.5 -9h-317q-13 0 -22 9t-9 22v1372q0 13 9 22t22 9h356q27 0 41 -25
l285 -561l104 -266h29l-37 266v555q0 13 8.5 22t22.5 9z" />
    <glyph glyph-name="Ograve" unicode="&#xd2;" horiz-adv-x="1386" 
d="M652 1886l158 -311q4 -7 1 -13t-11 -6h-207q-23 0 -37 21l-217 313q-4 8 -1 14.5t11 6.5h262q29 0 41 -25zM678 1460h31q115 0 219 -39t186 -113t131 -192t49 -264v-270q0 -146 -49 -264.5t-131 -192t-186 -113t-219 -39.5h-31q-115 0 -219 39.5t-186.5 113t-131.5 192
t-49 264.5v270q0 146 49 264t131.5 192t186.5 113t219 39zM700 1133h-14q-100 0 -152.5 -65t-52.5 -179v-344q0 -116 52.5 -180t152.5 -64h14q100 0 152.5 64t52.5 180v344q0 114 -52.5 179t-152.5 65z" />
    <glyph glyph-name="Oacute" unicode="&#xd3;" horiz-adv-x="1386" 
d="M585 1575l158 311q13 25 41 25h262q8 0 11 -6.5t-1 -14.5l-217 -313q-14 -21 -37 -21h-206q-8 0 -11.5 6t0.5 13zM678 1460h31q115 0 219 -39t186 -113t131 -192t49 -264v-270q0 -146 -49 -264.5t-131 -192t-186 -113t-219 -39.5h-31q-115 0 -219 39.5t-186.5 113
t-131.5 192t-49 264.5v270q0 146 49 264t131.5 192t186.5 113t219 39zM700 1133h-14q-100 0 -152.5 -65t-52.5 -179v-344q0 -116 52.5 -180t152.5 -64h14q100 0 152.5 64t52.5 180v344q0 114 -52.5 179t-152.5 65z" />
    <glyph glyph-name="Ocircumflex" unicode="&#xd4;" horiz-adv-x="1386" 
d="M818 1890l217 -313q4 -7 1 -14t-11 -7h-229q-28 0 -41 25l-61 119l-60 -119q-12 -25 -41 -25h-229q-8 0 -11.5 7t0.5 14l217 313q14 21 37 21h174q23 0 37 -21zM678 1460h31q115 0 219 -39t186 -113t131 -192t49 -264v-270q0 -146 -49 -264.5t-131 -192t-186 -113
t-219 -39.5h-31q-115 0 -219 39.5t-186.5 113t-131.5 192t-49 264.5v270q0 146 49 264t131.5 192t186.5 113t219 39zM700 1133h-14q-100 0 -152.5 -65t-52.5 -179v-344q0 -116 52.5 -180t152.5 -64h14q100 0 152.5 64t52.5 180v344q0 114 -52.5 179t-152.5 65z" />
    <glyph glyph-name="Otilde" unicode="&#xd5;" horiz-adv-x="1386" 
d="M889 1839h108q9 0 13.5 -6.5t1.5 -15.5q-55 -158 -107 -219.5t-127 -61.5h-8q-31 0 -56.5 12t-40 27t-36 27t-45.5 12q-8 0 -15.5 -2t-12 -3.5t-10.5 -6.5t-8 -6.5t-7.5 -8.5t-6.5 -8q-13 -16 -32 -16h-109q-9 0 -13 6.5t-1 15.5q55 158 106.5 219.5t126.5 61.5h8
q40 0 72 -19.5t57 -39t50 -19.5q29 0 59 35q13 16 33 16zM678 1460h31q115 0 219 -39t186 -113t131 -192t49 -264v-270q0 -146 -49 -264.5t-131 -192t-186 -113t-219 -39.5h-31q-115 0 -219 39.5t-186.5 113t-131.5 192t-49 264.5v270q0 146 49 264t131.5 192t186.5 113
t219 39zM700 1133h-14q-100 0 -152.5 -65t-52.5 -179v-344q0 -116 52.5 -180t152.5 -64h14q100 0 152.5 64t52.5 180v344q0 114 -52.5 179t-152.5 65z" />
    <glyph glyph-name="Odieresis" unicode="&#xd6;" horiz-adv-x="1386" 
d="M372 1911h245q13 0 22 -8.5t9 -22.5v-293q0 -13 -9 -22t-22 -9h-245q-14 0 -22.5 9t-8.5 22v293q0 14 8.5 22.5t22.5 8.5zM771 1911h246q13 0 22 -8.5t9 -22.5v-293q0 -13 -9 -22t-22 -9h-246q-13 0 -22 9t-9 22v293q0 14 9 22.5t22 8.5zM678 1460h31q115 0 219 -39
t186 -113t131 -192t49 -264v-270q0 -146 -49 -264.5t-131 -192t-186 -113t-219 -39.5h-31q-115 0 -219 39.5t-186.5 113t-131.5 192t-49 264.5v270q0 146 49 264t131.5 192t186.5 113t219 39zM700 1133h-14q-100 0 -152.5 -65t-52.5 -179v-344q0 -116 52.5 -180t152.5 -64
h14q100 0 152.5 64t52.5 180v344q0 114 -52.5 179t-152.5 65z" />
    <glyph glyph-name="multiply" unicode="&#xd7;" horiz-adv-x="927" 
d="M659 612l216 -217q23 -20 0 -43l-152 -151q-9 -9 -21.5 -9t-21.5 9l-216 216l-218 -218q-9 -9 -21.5 -9t-21.5 9l-151 153q-23 20 0 43l217 217l-215 215q-23 23 0 43l151 154q9 9 21.5 9t21.5 -9l216 -216l216 216q9 9 21.5 9t21.5 -9l152 -154q23 -20 0 -43z" />
    <glyph glyph-name="Oslash" unicode="&#xd8;" horiz-adv-x="1386" 
d="M1047 1434h229q17 0 22.5 -14.5t-4.5 -28.5l-109 -165q109 -154 109 -374v-270q0 -146 -49 -264.5t-131 -192t-186 -113t-219 -39.5h-31q-152 0 -281 66l-2 -2q-25 -37 -55 -37h-227q-18 0 -24.5 14.5t3.5 28.5l109 164q-109 154 -109 375v270q0 146 49 264t131.5 192
t186.5 113t219 39h31q153 0 282 -66l2 3q25 37 54 37zM481 628l321 481q-45 24 -102 24h-14q-100 0 -152.5 -65t-52.5 -179v-261zM905 805l-319 -482q41 -22 100 -22h14q100 0 152.5 64t52.5 180v260z" />
    <glyph glyph-name="Ugrave" unicode="&#xd9;" horiz-adv-x="1345" 
d="M626 1886l158 -311q4 -7 0.5 -13t-11.5 -6h-206q-23 0 -37 21l-217 313q-4 8 -1 14.5t11 6.5h262q29 0 41 -25zM889 1434h328q13 0 21.5 -8.5t8.5 -22.5v-862q0 -118 -30 -213.5t-81.5 -161t-123 -109.5t-152 -64t-170.5 -20h-31q-90 0 -170.5 20t-152 64t-123 109.5
t-81.5 161t-30 213.5v862q0 13 9 22t22 9h328q13 0 22 -9t9 -22v-879q0 -223 176 -223h14q176 0 176 223v879q0 13 9 22t22 9z" />
    <glyph glyph-name="Uacute" unicode="&#xda;" horiz-adv-x="1345" 
d="M566 1575l158 311q12 25 41 25h262q8 0 11 -6.5t-1 -14.5l-217 -313q-14 -21 -36 -21h-207q-8 0 -11.5 6t0.5 13zM889 1434h328q13 0 21.5 -8.5t8.5 -22.5v-862q0 -118 -30 -213.5t-81.5 -161t-123 -109.5t-152 -64t-170.5 -20h-31q-90 0 -170.5 20t-152 64t-123 109.5
t-81.5 161t-30 213.5v862q0 13 9 22t22 9h328q13 0 22 -9t9 -22v-879q0 -223 176 -223h14q176 0 176 223v879q0 13 9 22t22 9z" />
    <glyph glyph-name="Ucircumflex" unicode="&#xdb;" horiz-adv-x="1345" 
d="M798 1890l217 -313q4 -7 1 -14t-11 -7h-230q-29 0 -41 25l-60 119l-61 -119q-13 -25 -41 -25h-229q-8 0 -11 7t1 14l217 313q14 21 37 21h174q23 0 37 -21zM889 1434h328q13 0 21.5 -8.5t8.5 -22.5v-862q0 -118 -30 -213.5t-81.5 -161t-123 -109.5t-152 -64t-170.5 -20
h-31q-90 0 -170.5 20t-152 64t-123 109.5t-81.5 161t-30 213.5v862q0 13 9 22t22 9h328q13 0 22 -9t9 -22v-879q0 -223 176 -223h14q176 0 176 223v879q0 13 9 22t22 9z" />
    <glyph glyph-name="Udieresis" unicode="&#xdc;" horiz-adv-x="1345" 
d="M351 1911h246q13 0 22 -8.5t9 -22.5v-293q0 -13 -9 -22t-22 -9h-246q-13 0 -21.5 8.5t-8.5 22.5v293q0 14 8.5 22.5t21.5 8.5zM751 1911h245q14 0 22.5 -8.5t8.5 -22.5v-293q0 -13 -8.5 -22t-22.5 -9h-245q-13 0 -22 9t-9 22v293q0 14 9 22.5t22 8.5zM889 1434h328
q13 0 21.5 -8.5t8.5 -22.5v-862q0 -118 -30 -213.5t-81.5 -161t-123 -109.5t-152 -64t-170.5 -20h-31q-90 0 -170.5 20t-152 64t-123 109.5t-81.5 161t-30 213.5v862q0 13 9 22t22 9h328q13 0 22 -9t9 -22v-879q0 -223 176 -223h14q176 0 176 223v879q0 13 9 22t22 9z" />
    <glyph glyph-name="Yacute" unicode="&#xdd;" horiz-adv-x="1296" 
d="M537 1575l157 311q12 25 41 25h262q8 0 11.5 -6.5t-0.5 -14.5l-217 -313q-14 -21 -37 -21h-207q-8 0 -11 6t1 13zM900 1434h318q22 0 32 -16t2 -36l-413 -917v-434q0 -13 -8.5 -22t-22.5 -9h-320q-13 0 -21.5 8.5t-8.5 22.5v434l-414 917q-8 20 2.5 36t32.5 16h317
q30 0 43 -27l160 -354l45 -244h8l45 244l160 354q13 27 43 27z" />
    <glyph glyph-name="Thorn" unicode="&#xde;" horiz-adv-x="1261" 
d="M481 1246h185q105 0 194 -27t159 -81.5t110 -147t40 -213.5v-14q0 -124 -42 -219.5t-115.5 -153.5t-166.5 -87t-202 -29h-162v-243q0 -14 -8.5 -22.5t-21.5 -8.5h-318q-13 0 -22 9t-9 22v1372q0 13 9 22t22 9h318q13 0 21.5 -8.5t8.5 -22.5v-157zM780 743v18
q0 81 -43 119.5t-133 38.5h-123v-334h119q180 0 180 158z" />
    <glyph glyph-name="germandbls" unicode="&#xdf;" horiz-adv-x="1331" 
d="M438 1536h23q79 0 148.5 -21t126 -62t89 -109t32.5 -156v-5q0 -68 -22.5 -127t-44.5 -107t-22 -90v-4q0 -40 17 -73t44 -53t46.5 -30.5t39.5 -16.5l72 -25q74 -25 123.5 -50.5t90 -64.5t59.5 -94.5t19 -130.5v-14q0 -154 -123.5 -242t-308.5 -88h-12q-73 0 -166 13.5
t-137 31.5q-24 10 -25 41v211q1 14 10 20.5t22 2.5q100 -37 155 -52.5t108 -15.5h11q106 0 106 58v4q0 13 -4 22t-16.5 16.5t-20.5 10.5t-30 10l-74 25q-62 21 -106 43t-88.5 60t-68.5 96t-24 135v10q0 67 22 128t48.5 99.5t48.5 88.5t22 96v6q0 63 -26 92.5t-67 29.5h-11
q-102 0 -102 -135v-1089q0 -13 -9 -22t-22 -9h-299q-14 0 -22.5 9t-8.5 22v1161q0 159 102 251.5t275 92.5z" />
    <glyph glyph-name="agrave" unicode="&#xe0;" horiz-adv-x="1009" 
d="M493 1477l157 -312q4 -7 1 -12.5t-11 -5.5h-207q-23 0 -36 20l-218 314q-4 7 -0.5 13.5t11.5 6.5h262q29 0 41 -24zM528 1051h9q67 0 123.5 -9.5t111.5 -36t93 -69.5t62 -113.5t25 -163.5v-628q0 -14 -8.5 -22.5t-21.5 -8.5h-263q-21 0 -28 23l-20 77
q-144 -127 -279 -127h-10q-70 0 -125 25t-88.5 66.5t-50.5 92.5t-17 107v25q0 150 101.5 232t322.5 100l127 10v14q0 75 -33 100t-108 25h-5q-30 0 -68 -6t-64.5 -12t-81 -19.5t-80.5 -19.5q-12 -3 -21.5 3t-9.5 19v217q0 35 24 41q218 58 383 58zM592 426h-70
q-119 0 -119 -90v-6q0 -37 22.5 -60.5t57.5 -23.5h11q40 0 98 38v142z" />
    <glyph glyph-name="aacute" unicode="&#xe1;" horiz-adv-x="1009" 
d="M425 1165l158 312q12 24 41 24h262q8 0 11 -6.5t-1 -13.5l-217 -314q-13 -20 -37 -20h-207q-8 0 -11 5.5t1 12.5zM528 1051h9q67 0 123.5 -9.5t111.5 -36t93 -69.5t62 -113.5t25 -163.5v-628q0 -14 -8.5 -22.5t-21.5 -8.5h-263q-21 0 -28 23l-20 77q-144 -127 -279 -127
h-10q-70 0 -125 25t-88.5 66.5t-50.5 92.5t-17 107v25q0 150 101.5 232t322.5 100l127 10v14q0 75 -33 100t-108 25h-5q-30 0 -68 -6t-64.5 -12t-81 -19.5t-80.5 -19.5q-12 -3 -21.5 3t-9.5 19v217q0 35 24 41q218 58 383 58zM592 426h-70q-119 0 -119 -90v-6
q0 -37 22.5 -60.5t57.5 -23.5h11q40 0 98 38v142z" />
    <glyph glyph-name="acircumflex" unicode="&#xe2;" horiz-adv-x="1009" 
d="M630 1481l217 -314q4 -7 1 -13.5t-11 -6.5h-230q-29 0 -41 24l-60 120l-61 -120q-12 -24 -41 -24h-229q-8 0 -11 6.5t1 13.5l217 314q13 20 37 20h174q24 0 37 -20zM528 1051h9q67 0 123.5 -9.5t111.5 -36t93 -69.5t62 -113.5t25 -163.5v-628q0 -14 -8.5 -22.5
t-21.5 -8.5h-263q-21 0 -28 23l-20 77q-144 -127 -279 -127h-10q-70 0 -125 25t-88.5 66.5t-50.5 92.5t-17 107v25q0 150 101.5 232t322.5 100l127 10v14q0 75 -33 100t-108 25h-5q-30 0 -68 -6t-64.5 -12t-81 -19.5t-80.5 -19.5q-12 -3 -21.5 3t-9.5 19v217q0 35 24 41
q218 58 383 58zM592 426h-70q-119 0 -119 -90v-6q0 -37 22.5 -60.5t57.5 -23.5h11q40 0 98 38v142z" />
    <glyph glyph-name="atilde" unicode="&#xe3;" horiz-adv-x="1009" 
d="M700 1430h109q9 0 13 -7t1 -16q-55 -158 -106.5 -219.5t-126.5 -61.5h-8q-31 0 -56.5 12t-40.5 27t-36.5 27t-45.5 12q-10 0 -17.5 -1.5t-14.5 -6.5t-9.5 -7t-10 -10.5t-7.5 -9.5q-13 -16 -33 -16h-108q-9 0 -13.5 7t-1.5 16q55 157 107 218.5t127 61.5h8q32 0 59 -12
t42.5 -27t36 -27t40.5 -12q30 0 60 35q14 17 32 17zM528 1051h9q67 0 123.5 -9.5t111.5 -36t93 -69.5t62 -113.5t25 -163.5v-628q0 -14 -8.5 -22.5t-21.5 -8.5h-263q-21 0 -28 23l-20 77q-144 -127 -279 -127h-10q-70 0 -125 25t-88.5 66.5t-50.5 92.5t-17 107v25
q0 150 101.5 232t322.5 100l127 10v14q0 75 -33 100t-108 25h-5q-30 0 -68 -6t-64.5 -12t-81 -19.5t-80.5 -19.5q-12 -3 -21.5 3t-9.5 19v217q0 35 24 41q218 58 383 58zM592 426h-70q-119 0 -119 -90v-6q0 -37 22.5 -60.5t57.5 -23.5h11q40 0 98 38v142z" />
    <glyph glyph-name="adieresis" unicode="&#xe4;" horiz-adv-x="1009" 
d="M183 1501h246q13 0 22 -8.5t9 -22.5v-292q0 -14 -9 -22.5t-22 -8.5h-246q-13 0 -21.5 8.5t-8.5 22.5v292q0 14 8.5 22.5t21.5 8.5zM583 1501h245q14 0 22.5 -8.5t8.5 -22.5v-292q0 -14 -8.5 -22.5t-22.5 -8.5h-245q-13 0 -22 8.5t-9 22.5v292q0 14 9 22.5t22 8.5z
M528 1051h9q67 0 123.5 -9.5t111.5 -36t93 -69.5t62 -113.5t25 -163.5v-628q0 -14 -8.5 -22.5t-21.5 -8.5h-263q-21 0 -28 23l-20 77q-144 -127 -279 -127h-10q-70 0 -125 25t-88.5 66.5t-50.5 92.5t-17 107v25q0 150 101.5 232t322.5 100l127 10v14q0 75 -33 100t-108 25
h-5q-30 0 -68 -6t-64.5 -12t-81 -19.5t-80.5 -19.5q-12 -3 -21.5 3t-9.5 19v217q0 35 24 41q218 58 383 58zM592 426h-70q-119 0 -119 -90v-6q0 -37 22.5 -60.5t57.5 -23.5h11q40 0 98 38v142z" />
    <glyph glyph-name="aring" unicode="&#xe5;" horiz-adv-x="1009" 
d="M507 1526q86 0 147.5 -61.5t61.5 -147.5q0 -88 -61.5 -149.5t-147.5 -61.5q-88 0 -149.5 61.5t-61.5 149.5q0 86 61.5 147.5t149.5 61.5zM507 1368q-22 0 -37.5 -14.5t-15.5 -36.5t15.5 -37.5t37.5 -15.5t36.5 15.5t14.5 37.5t-14.5 36.5t-36.5 14.5zM528 1051h9
q67 0 123.5 -9.5t111.5 -36t93 -69.5t62 -113.5t25 -163.5v-628q0 -14 -8.5 -22.5t-21.5 -8.5h-263q-21 0 -28 23l-20 77q-144 -127 -279 -127h-10q-70 0 -125 25t-88.5 66.5t-50.5 92.5t-17 107v25q0 150 101.5 232t322.5 100l127 10v14q0 75 -33 100t-108 25h-5
q-30 0 -68 -6t-64.5 -12t-81 -19.5t-80.5 -19.5q-12 -3 -21.5 3t-9.5 19v217q0 35 24 41q218 58 383 58zM592 426h-70q-119 0 -119 -90v-6q0 -37 22.5 -60.5t57.5 -23.5h11q40 0 98 38v142z" />
    <glyph glyph-name="ae" unicode="&#xe6;" horiz-adv-x="1583" 
d="M1073 1051h23q190 0 315 -116t125 -329v-121q0 -22 -14.5 -36.5t-36.5 -14.5h-522v-12q-1 -86 49.5 -127t134.5 -41h10q57 0 123.5 17t171.5 53q12 5 21.5 -2.5t9.5 -20.5v-223q0 -32 -25 -41q-48 -22 -158 -43t-198 -21h-23q-172 0 -296 83v-25q0 -13 -8.5 -22t-22.5 -9
h-93q-21 0 -28 23l-20 77q-144 -127 -279 -127h-10q-70 0 -125 25t-88.5 66.5t-50.5 92.5t-17 107v25q0 150 101.5 232t322.5 100l127 10v14q0 75 -33 100t-108 25h-5q-30 0 -68 -6t-64.5 -12t-81 -19.5t-80.5 -19.5q-12 -3 -21.5 3t-9.5 19v217q0 35 24 41q218 58 383 58h9
q177 0 276 -69q117 69 260 69zM962 637h239q8 154 -118 154h-6q-104 0 -115 -154zM592 426h-70q-119 0 -119 -90v-6q0 -37 22.5 -60.5t57.5 -23.5h11q40 0 98 38v142z" />
    <glyph glyph-name="ccedilla" unicode="&#xe7;" horiz-adv-x="907" 
d="M614 764h-10q-83 0 -133.5 -54t-50.5 -157v-82q0 -103 50.5 -157t133.5 -54h10q38 0 83.5 14.5t131.5 49.5q12 5 21.5 -2.5t9.5 -20.5v-223q0 -32 -24 -41q-51 -22 -125.5 -41.5t-138.5 -21.5l-13 -63q1 0 6.5 0.5t7.5 0.5q72 0 118 -44.5t46 -119.5q0 -88 -64 -138
t-172 -50q-90 0 -151 32q-29 16 -29 43v66q0 6 5 9t11 1q2 0 22.5 -6.5t48 -12t52.5 -5.5q70 0 70 43q0 41 -57 41q-25 0 -68 -15q-8 -3 -16 0l-11 4q-18 7 -14 25l43 203q-159 37 -257.5 158t-98.5 317v98q0 121 39.5 216t107.5 154t154.5 89.5t184.5 30.5h22
q66 0 145.5 -20t131.5 -44q24 -9 24 -41v-223q0 -13 -9.5 -20.5t-21.5 -2.5q-86 35 -131.5 49.5t-83.5 14.5z" />
    <glyph glyph-name="egrave" unicode="&#xe8;" horiz-adv-x="1042" 
d="M518 1477l157 -312q4 -7 1 -12.5t-11 -5.5h-207q-24 0 -37 20l-217 314q-4 7 -0.5 13.5t11.5 6.5h262q29 0 41 -24zM532 1051h23q190 0 315 -116t125 -329v-121q0 -22 -14.5 -36.5t-36.5 -14.5h-522l1 -12q-1 -86 49 -127t134 -41h10q57 0 123.5 17t171.5 53
q12 5 21.5 -2.5t9.5 -20.5v-223q0 -32 -24 -41q-48 -22 -158.5 -43t-198.5 -21h-22q-103 0 -190.5 30.5t-154.5 89.5t-105 154t-38 216v98q0 151 67 264.5t175 169.5t239 56zM543 791h-6q-105 0 -116 -154h239q8 154 -117 154z" />
    <glyph glyph-name="eacute" unicode="&#xe9;" horiz-adv-x="1042" 
d="M393 1165l158 312q12 24 41 24h262q8 0 11 -6.5t-1 -13.5l-217 -314q-13 -20 -37 -20h-206q-8 0 -11.5 5.5t0.5 12.5zM532 1051h23q190 0 315 -116t125 -329v-121q0 -22 -14.5 -36.5t-36.5 -14.5h-522l1 -12q-1 -86 49 -127t134 -41h10q57 0 123.5 17t171.5 53
q12 5 21.5 -2.5t9.5 -20.5v-223q0 -32 -24 -41q-48 -22 -158.5 -43t-198.5 -21h-22q-103 0 -190.5 30.5t-154.5 89.5t-105 154t-38 216v98q0 151 67 264.5t175 169.5t239 56zM543 791h-6q-105 0 -116 -154h239q8 154 -117 154z" />
    <glyph glyph-name="ecircumflex" unicode="&#xea;" horiz-adv-x="1042" 
d="M646 1481l217 -314q4 -7 1 -13.5t-11 -6.5h-229q-29 0 -41 24l-61 120l-60 -120q-12 -24 -41 -24h-230q-8 0 -11 6.5t1 13.5l217 314q13 20 37 20h174q24 0 37 -20zM532 1051h23q190 0 315 -116t125 -329v-121q0 -22 -14.5 -36.5t-36.5 -14.5h-522l1 -12q-1 -86 49 -127
t134 -41h10q57 0 123.5 17t171.5 53q12 5 21.5 -2.5t9.5 -20.5v-223q0 -32 -24 -41q-48 -22 -158.5 -43t-198.5 -21h-22q-103 0 -190.5 30.5t-154.5 89.5t-105 154t-38 216v98q0 151 67 264.5t175 169.5t239 56zM543 791h-6q-105 0 -116 -154h239q8 154 -117 154z" />
    <glyph glyph-name="edieresis" unicode="&#xeb;" horiz-adv-x="1042" 
d="M200 1501h245q13 0 22 -8.5t9 -22.5v-292q0 -14 -9 -22.5t-22 -8.5h-245q-14 0 -22.5 8.5t-8.5 22.5v292q0 14 8.5 22.5t22.5 8.5zM599 1501h246q13 0 22 -8.5t9 -22.5v-292q0 -14 -9 -22.5t-22 -8.5h-246q-13 0 -22 8.5t-9 22.5v292q0 14 9 22.5t22 8.5zM532 1051h23
q190 0 315 -116t125 -329v-121q0 -22 -14.5 -36.5t-36.5 -14.5h-522l1 -12q-1 -86 49 -127t134 -41h10q57 0 123.5 17t171.5 53q12 5 21.5 -2.5t9.5 -20.5v-223q0 -32 -24 -41q-48 -22 -158.5 -43t-198.5 -21h-22q-103 0 -190.5 30.5t-154.5 89.5t-105 154t-38 216v98
q0 151 67 264.5t175 169.5t239 56zM543 791h-6q-105 0 -116 -154h239q8 154 -117 154z" />
    <glyph glyph-name="igrave" unicode="&#xec;" horiz-adv-x="487" 
d="M185 1477l158 -312q4 -7 1 -12.5t-11 -5.5h-207q-24 0 -37 20l-217 314q-4 7 -1 13.5t11 6.5h262q29 0 41 -24zM96 1024h299q13 0 22 -9t9 -22v-962q0 -13 -9 -22t-22 -9h-299q-13 0 -21.5 8.5t-8.5 22.5v962q0 14 8.5 22.5t21.5 8.5z" />
    <glyph glyph-name="iacute" unicode="&#xed;" horiz-adv-x="487" 
d="M133 1165l157 312q12 24 41 24h262q8 0 11.5 -6.5t-0.5 -13.5l-217 -314q-13 -20 -37 -20h-207q-8 0 -11 5.5t1 12.5zM96 1024h299q13 0 22 -9t9 -22v-962q0 -13 -9 -22t-22 -9h-299q-13 0 -21.5 8.5t-8.5 22.5v962q0 14 8.5 22.5t21.5 8.5z" />
    <glyph glyph-name="icircumflex" unicode="&#xee;" horiz-adv-x="487" 
d="M375 1481l218 -314q4 -7 0.5 -13.5t-11.5 -6.5h-229q-29 0 -41 24l-60 120l-61 -120q-12 -24 -41 -24h-229q-8 0 -11 6.5t1 13.5l217 314q13 20 37 20h174q23 0 36 -20zM96 1024h299q13 0 22 -9t9 -22v-962q0 -13 -9 -22t-22 -9h-299q-13 0 -21.5 8.5t-8.5 22.5v962
q0 14 8.5 22.5t21.5 8.5z" />
    <glyph glyph-name="idieresis" unicode="&#xef;" horiz-adv-x="487" 
d="M-76 1501h245q13 0 22 -8.5t9 -22.5v-292q0 -14 -9 -22.5t-22 -8.5h-245q-14 0 -22.5 8.5t-8.5 22.5v292q0 14 8.5 22.5t22.5 8.5zM323 1501h246q13 0 22 -8.5t9 -22.5v-292q0 -14 -9 -22.5t-22 -8.5h-246q-13 0 -22 8.5t-9 22.5v292q0 14 9 22.5t22 8.5zM96 1024h299
q13 0 22 -9t9 -22v-962q0 -13 -9 -22t-22 -9h-299q-13 0 -21.5 8.5t-8.5 22.5v962q0 14 8.5 22.5t21.5 8.5z" />
    <glyph glyph-name="eth" unicode="&#xf0;" horiz-adv-x="1093" 
d="M1031 1359l-52 -37q63 -102 63 -239l-2 -647q0 -108 -38.5 -197t-104 -146.5t-151.5 -88.5t-183 -31h-22q-131 0 -241 52.5t-179.5 160t-69.5 250.5v142q0 119 39.5 216t124.5 158.5t203 61.5h22q131 0 232 -86v153q0 17 -1 25l-100 -70q-23 -17 -42 7l-91 127
q-8 10 -5.5 23t14.5 21l65 45q-22 3 -48 3h-10q-45 0 -98 -11.5t-81.5 -21t-95.5 -33.5q-12 -4 -21 2.5t-9 20.5v223q0 35 24 41q6 2 43.5 11.5t50.5 12.5t50.5 10.5t64.5 10.5t70.5 5.5t89.5 2.5h8q144 0 265 -64l92 64q25 18 43 -6l90 -128q8 -10 5.5 -22.5t-14.5 -20.5z
M672 420v272q-68 35 -127 35h-10q-55 0 -85 -41t-30 -119v-147q0 -78 33.5 -119t93.5 -41h10q115 0 115 160z" />
    <glyph glyph-name="ntilde" unicode="&#xf1;" horiz-adv-x="1079" 
d="M735 1430h109q9 0 13 -7t1 -16q-55 -158 -106.5 -219.5t-126.5 -61.5h-9q-31 0 -56.5 12t-40 27t-36 27t-45.5 12q-10 0 -17.5 -1.5t-14.5 -6.5t-9.5 -7t-10 -10.5t-7.5 -9.5q-13 -16 -33 -16h-108q-9 0 -13.5 7t-1.5 16q55 157 107 218.5t127 61.5h8q40 0 71.5 -19.5
t56.5 -39t50 -19.5q29 0 59 35q14 17 33 17zM682 1051h27q138 0 225.5 -85t87.5 -235v-700q0 -13 -9 -22t-22 -9h-299q-13 0 -21.5 8.5t-8.5 22.5v618q0 61 -25 88t-78 27h-10q-55 0 -127 -35v-698q0 -13 -9 -22t-22 -9h-299q-14 0 -22.5 9t-8.5 22v962q0 13 8.5 22t22.5 9
h262q22 0 29 -23l20 -77q79 69 144.5 98t134.5 29z" />
    <glyph glyph-name="ograve" unicode="&#xf2;" horiz-adv-x="1103" 
d="M518 1477l158 -312q4 -7 1 -12.5t-11 -5.5h-207q-24 0 -37 20l-217 314q-4 7 -1 13.5t11 6.5h262q29 0 41 -24zM541 1051h22q131 0 241 -52.5t179.5 -160t69.5 -250.5v-152q0 -143 -69.5 -250.5t-179.5 -160t-241 -52.5h-22q-131 0 -241 52.5t-179.5 160t-69.5 250.5v152
q0 143 69.5 250.5t179.5 160t241 52.5zM557 764h-10q-60 0 -93.5 -41t-33.5 -119v-184q0 -78 33.5 -119t93.5 -41h10q60 0 93.5 41t33.5 119v184q0 78 -33.5 119t-93.5 41z" />
    <glyph glyph-name="oacute" unicode="&#xf3;" horiz-adv-x="1103" 
d="M444 1165l158 312q12 24 41 24h262q8 0 11 -6.5t-1 -13.5l-217 -314q-13 -20 -36 -20h-207q-8 0 -11.5 5.5t0.5 12.5zM541 1051h22q131 0 241 -52.5t179.5 -160t69.5 -250.5v-152q0 -143 -69.5 -250.5t-179.5 -160t-241 -52.5h-22q-131 0 -241 52.5t-179.5 160
t-69.5 250.5v152q0 143 69.5 250.5t179.5 160t241 52.5zM557 764h-10q-60 0 -93.5 -41t-33.5 -119v-184q0 -78 33.5 -119t93.5 -41h10q60 0 93.5 41t33.5 119v184q0 78 -33.5 119t-93.5 41z" />
    <glyph glyph-name="ocircumflex" unicode="&#xf4;" horiz-adv-x="1103" 
d="M677 1481l217 -314q4 -7 1 -13.5t-11 -6.5h-230q-29 0 -41 24l-60 120l-60 -120q-12 -24 -41 -24h-230q-8 0 -11 6.5t1 13.5l217 314q13 20 37 20h174q24 0 37 -20zM541 1051h22q131 0 241 -52.5t179.5 -160t69.5 -250.5v-152q0 -143 -69.5 -250.5t-179.5 -160
t-241 -52.5h-22q-131 0 -241 52.5t-179.5 160t-69.5 250.5v152q0 143 69.5 250.5t179.5 160t241 52.5zM557 764h-10q-60 0 -93.5 -41t-33.5 -119v-184q0 -78 33.5 -119t93.5 -41h10q60 0 93.5 41t33.5 119v184q0 78 -33.5 119t-93.5 41z" />
    <glyph glyph-name="otilde" unicode="&#xf5;" horiz-adv-x="1103" 
d="M748 1430h108q9 0 13 -7t1 -16q-55 -158 -106.5 -219.5t-126.5 -61.5h-8q-31 0 -56.5 12t-40 27t-36 27t-45.5 12q-8 0 -15.5 -2t-12 -3.5t-10.5 -6.5t-8 -6.5t-7.5 -8.5t-6.5 -8q-13 -16 -33 -16h-108q-9 0 -13 7t-1 16q55 158 106.5 219t126.5 61h8q40 0 71.5 -19.5
t56.5 -39t50 -19.5q30 0 60 35q14 17 33 17zM541 1051h22q131 0 241 -52.5t179.5 -160t69.5 -250.5v-152q0 -143 -69.5 -250.5t-179.5 -160t-241 -52.5h-22q-131 0 -241 52.5t-179.5 160t-69.5 250.5v152q0 143 69.5 250.5t179.5 160t241 52.5zM557 764h-10q-60 0 -93.5 -41
t-33.5 -119v-184q0 -78 33.5 -119t93.5 -41h10q60 0 93.5 41t33.5 119v184q0 78 -33.5 119t-93.5 41z" />
    <glyph glyph-name="odieresis" unicode="&#xf6;" horiz-adv-x="1103" 
d="M230 1501h246q14 0 22.5 -8.5t8.5 -22.5v-292q0 -14 -8.5 -22.5t-22.5 -8.5h-246q-13 0 -21.5 8.5t-8.5 22.5v292q0 14 8.5 22.5t21.5 8.5zM630 1501h246q13 0 21.5 -8.5t8.5 -22.5v-292q0 -14 -8.5 -22.5t-21.5 -8.5h-246q-14 0 -22.5 8.5t-8.5 22.5v292q0 14 8.5 22.5
t22.5 8.5zM541 1051h22q131 0 241 -52.5t179.5 -160t69.5 -250.5v-152q0 -143 -69.5 -250.5t-179.5 -160t-241 -52.5h-22q-131 0 -241 52.5t-179.5 160t-69.5 250.5v152q0 143 69.5 250.5t179.5 160t241 52.5zM557 764h-10q-60 0 -93.5 -41t-33.5 -119v-184q0 -78 33.5 -119
t93.5 -41h10q60 0 93.5 41t33.5 119v184q0 78 -33.5 119t-93.5 41z" />
    <glyph glyph-name="divide" unicode="&#xf7;" horiz-adv-x="1032" 
d="M367 1251h299q14 0 22 -8.5t8 -21.5v-293q0 -14 -8.5 -22.5t-21.5 -8.5h-299q-13 0 -22 8.5t-9 22.5v293q0 13 8.5 21.5t22.5 8.5zM72 764h889q13 0 21.5 -8.5t8.5 -22.5v-215q0 -14 -8.5 -22.5t-21.5 -8.5h-889q-14 0 -22.5 8.5t-8.5 22.5v215q0 13 8.5 22t22.5 9z
M367 354h299q14 0 22 -8t8 -22v-293q0 -14 -8.5 -22.5t-21.5 -8.5h-299q-13 0 -22 9t-9 22v293q0 13 8.5 21.5t22.5 8.5z" />
    <glyph glyph-name="oslash" unicode="&#xf8;" horiz-adv-x="1103" 
d="M809 1024h225q17 0 23.5 -14.5t-4.5 -28.5l-86 -118q86 -115 86 -275v-152q0 -143 -69.5 -250.5t-179.5 -160t-241 -52.5h-22q-106 0 -202 37q-15 -10 -32 -10h-235q-18 0 -25 14.5t4 28.5l87 117q-87 118 -87 276v152q0 143 69.5 250.5t179.5 160t241 52.5h22
q110 0 210 -40q16 13 36 13zM420 540l164 222q-9 2 -27 2h-10q-60 0 -93.5 -41t-33.5 -119v-64zM684 474l-154 -213q6 -1 17 -1h10q60 0 93.5 41t33.5 119v54z" />
    <glyph glyph-name="ugrave" unicode="&#xf9;" 
d="M477 1477l158 -312q4 -7 1 -12.5t-11 -5.5h-207q-24 0 -37 20l-217 314q-4 7 -1 13.5t11 6.5h263q28 0 40 -24zM674 1024h299q13 0 22 -9t9 -22v-962q0 -13 -9 -22t-22 -9h-262q-22 0 -29 23l-20 77q-79 -69 -144.5 -98t-134.5 -29h-27q-136 0 -217.5 84.5t-81.5 235.5
v700q0 13 8.5 22t22.5 9h299q13 0 22 -9t9 -22v-618q0 -61 21 -88t67 -27h10q55 0 127 35v698q0 13 8.5 22t22.5 9z" />
    <glyph glyph-name="uacute" unicode="&#xfa;" 
d="M415 1165l158 312q12 24 41 24h262q8 0 11 -6.5t-1 -13.5l-217 -314q-13 -20 -36 -20h-207q-8 0 -11.5 5.5t0.5 12.5zM674 1024h299q13 0 22 -9t9 -22v-962q0 -13 -9 -22t-22 -9h-262q-22 0 -29 23l-20 77q-79 -69 -144.5 -98t-134.5 -29h-27q-136 0 -217.5 84.5
t-81.5 235.5v700q0 13 8.5 22t22.5 9h299q13 0 22 -9t9 -22v-618q0 -61 21 -88t67 -27h10q55 0 127 35v698q0 13 8.5 22t22.5 9z" />
    <glyph glyph-name="ucircumflex" unicode="&#xfb;" 
d="M654 1481l217 -314q4 -7 1 -13.5t-11 -6.5h-229q-29 0 -41 24l-61 120l-60 -120q-12 -24 -41 -24h-229q-8 0 -11.5 6.5t0.5 13.5l218 314q13 20 36 20h174q24 0 37 -20zM674 1024h299q13 0 22 -9t9 -22v-962q0 -13 -9 -22t-22 -9h-262q-22 0 -29 23l-20 77
q-79 -69 -144.5 -98t-134.5 -29h-27q-136 0 -217.5 84.5t-81.5 235.5v700q0 13 8.5 22t22.5 9h299q13 0 22 -9t9 -22v-618q0 -61 21 -88t67 -27h10q55 0 127 35v698q0 13 8.5 22t22.5 9z" />
    <glyph glyph-name="udieresis" unicode="&#xfc;" 
d="M208 1501h246q13 0 21.5 -8.5t8.5 -22.5v-292q0 -14 -8.5 -22.5t-21.5 -8.5h-246q-14 0 -22.5 8.5t-8.5 22.5v292q0 14 8.5 22.5t22.5 8.5zM607 1501h246q13 0 22 -8.5t9 -22.5v-292q0 -14 -9 -22.5t-22 -8.5h-246q-13 0 -21.5 8.5t-8.5 22.5v292q0 14 8.5 22.5t21.5 8.5
zM674 1024h299q13 0 22 -9t9 -22v-962q0 -13 -9 -22t-22 -9h-262q-22 0 -29 23l-20 77q-79 -69 -144.5 -98t-134.5 -29h-27q-136 0 -217.5 84.5t-81.5 235.5v700q0 13 8.5 22t22.5 9h299q13 0 22 -9t9 -22v-618q0 -61 21 -88t67 -27h10q55 0 127 35v698q0 13 8.5 22t22.5 9z
" />
    <glyph glyph-name="yacute" unicode="&#xfd;" horiz-adv-x="1093" 
d="M440 1165l157 312q12 24 41 24h263q8 0 11 -6.5t-1 -13.5l-217 -314q-13 -20 -37 -20h-207q-8 0 -11 5.5t1 12.5zM735 1024h303q19 0 29 -13t4 -32l-317 -1008q-18 -57 -39.5 -104t-55.5 -92t-75.5 -76t-99 -49.5t-126.5 -18.5h-16q-61 0 -128.5 13.5t-86.5 21.5
q-20 7 -20 33v221q0 12 9 19t21 4q105 -31 158 -31h4q71 0 90 61l8 27h-47q-19 0 -26 20l-301 959q-6 19 3.5 32t28.5 13h303q20 0 27 -20l98 -330l62 -375h4l61 375l99 330q7 20 26 20z" />
    <glyph glyph-name="thorn" unicode="&#xfe;" horiz-adv-x="1097" 
d="M657 1051h23q89 0 160.5 -35.5t116 -96.5t67.5 -139t23 -166v-178q0 -215 -116.5 -339t-289.5 -124h-23q-115 0 -192 59v-343q0 -13 -9 -22t-22 -9h-299q-13 0 -21.5 8.5t-8.5 22.5v1790q0 13 8 21.5t22 8.5h299q14 0 22.5 -8.5t8.5 -21.5v-514q99 86 231 86zM678 420
v184q0 78 -30 119t-85 41h-10q-55 0 -127 -35v-430q73 -39 127 -39h10q55 0 85 41t30 119z" />
    <glyph glyph-name="ydieresis" unicode="&#xff;" horiz-adv-x="1093" 
d="M224 1501h246q14 0 22.5 -8.5t8.5 -22.5v-292q0 -14 -8.5 -22.5t-22.5 -8.5h-246q-13 0 -21.5 8.5t-8.5 22.5v292q0 14 8.5 22.5t21.5 8.5zM624 1501h245q13 0 22 -8.5t9 -22.5v-292q0 -14 -9 -22.5t-22 -8.5h-245q-14 0 -22.5 8.5t-8.5 22.5v292q0 14 8.5 22.5t22.5 8.5
zM735 1024h303q19 0 29 -13t4 -32l-317 -1008q-18 -57 -39.5 -104t-55.5 -92t-75.5 -76t-99 -49.5t-126.5 -18.5h-16q-61 0 -128.5 13.5t-86.5 21.5q-20 7 -20 33v221q0 12 9 19t21 4q105 -31 158 -31h4q71 0 90 61l8 27h-47q-19 0 -26 20l-301 959q-6 19 3.5 32t28.5 13
h303q20 0 27 -20l98 -330l62 -375h4l61 375l99 330q7 20 26 20z" />
    <glyph glyph-name="Amacron" unicode="&#x100;" horiz-adv-x="1361" 
d="M445 1808h469q14 0 22.5 -8.5t8.5 -21.5v-191q0 -13 -8.5 -22t-22.5 -9h-469q-13 0 -21.5 8.5t-8.5 22.5v191q0 14 8.5 22t21.5 8zM427 1434h508q23 0 30 -31l355 -1372q3 -13 -7 -22t-24 -9h-324q-23 0 -30 31l-66 270h-377l-65 -270q-7 -31 -31 -31h-324q-14 0 -23.5 9
t-6.5 22l354 1372q7 31 31 31zM672 1133l-67 -367l-33 -137h218l-34 137l-67 367h-17z" />
    <glyph glyph-name="amacron" unicode="&#x101;" horiz-adv-x="1009" 
d="M271 1399h469q14 0 22.5 -8.5t8.5 -22.5v-190q0 -14 -8.5 -22.5t-22.5 -8.5l-469 2q-13 0 -21.5 8.5t-8.5 22.5v188q0 14 8.5 22.5t21.5 8.5zM528 1051h9q67 0 123.5 -9.5t111.5 -36t93 -69.5t62 -113.5t25 -163.5v-628q0 -14 -8.5 -22.5t-21.5 -8.5h-263q-21 0 -28 23
l-20 77q-144 -127 -279 -127h-10q-70 0 -125 25t-88.5 66.5t-50.5 92.5t-17 107v25q0 150 101.5 232t322.5 100l127 10v14q0 75 -33 100t-108 25h-5q-30 0 -68 -6t-64.5 -12t-81 -19.5t-80.5 -19.5q-12 -3 -21.5 3t-9.5 19v217q0 35 24 41q218 58 383 58zM592 426h-70
q-119 0 -119 -90v-6q0 -37 22.5 -60.5t57.5 -23.5h11q40 0 98 38v142z" />
    <glyph glyph-name="Abreve" unicode="&#x102;" horiz-adv-x="1361" 
d="M936 1843q15 7 26 2t11 -22v-178q0 -20 -19 -35q-34 -27 -110.5 -50.5t-163.5 -23.5t-163.5 23.5t-110.5 50.5q-19 15 -19 35v178q0 17 11 22t26 -2q75 -30 130 -43.5t126 -13.5t126 13.5t130 43.5zM427 1434h508q23 0 30 -31l355 -1372q3 -13 -7 -22t-24 -9h-324
q-23 0 -30 31l-66 270h-377l-65 -270q-7 -31 -31 -31h-324q-14 0 -23.5 9t-6.5 22l354 1372q7 31 31 31zM672 1133l-67 -367l-33 -137h218l-34 137l-67 367h-17z" />
    <glyph glyph-name="abreve" unicode="&#x103;" horiz-adv-x="1009" 
d="M762 1434q15 7 26 1.5t11 -22.5v-178q0 -20 -19 -35q-34 -27 -110.5 -50.5t-163.5 -23.5t-164 23.5t-111 50.5q-18 14 -18 35v178q0 17 11 22.5t26 -1.5q77 -30 131 -44t125 -14t125 14t131 44zM528 1051h9q67 0 123.5 -9.5t111.5 -36t93 -69.5t62 -113.5t25 -163.5v-628
q0 -14 -8.5 -22.5t-21.5 -8.5h-263q-21 0 -28 23l-20 77q-144 -127 -279 -127h-10q-70 0 -125 25t-88.5 66.5t-50.5 92.5t-17 107v25q0 150 101.5 232t322.5 100l127 10v14q0 75 -33 100t-108 25h-5q-30 0 -68 -6t-64.5 -12t-81 -19.5t-80.5 -19.5q-12 -3 -21.5 3t-9.5 19
v217q0 35 24 41q218 58 383 58zM592 426h-70q-119 0 -119 -90v-6q0 -37 22.5 -60.5t57.5 -23.5h11q40 0 98 38v142z" />
    <glyph glyph-name="Aogonek" unicode="&#x104;" horiz-adv-x="1361" 
d="M965 1403l355 -1372q3 -13 -7 -22t-24 -9q-9 -11 -36.5 -38t-44 -45.5t-31.5 -47t-15 -55.5q0 -34 21 -54t55 -20q14 0 34 4q6 2 11.5 -1t5.5 -9v-111q0 -28 -29 -41q-46 -22 -110 -22q-83 0 -141 46t-58 134q0 139 143 260h-129q-23 0 -30 31l-66 270h-377l-65 -270
q-7 -31 -31 -31h-324q-14 0 -23.5 9t-6.5 22l354 1372q7 31 31 31h508q23 0 30 -31zM790 629l-34 137l-67 367h-17l-67 -367l-33 -137h218z" />
    <glyph glyph-name="aogonek" unicode="&#x105;" horiz-adv-x="1009" 
d="M528 1051h9q67 0 123.5 -9.5t111.5 -36t93 -69.5t62 -113.5t25 -163.5v-628q0 -14 -8.5 -22.5t-21.5 -8.5q-9 -11 -36.5 -38t-44 -45.5t-31.5 -47t-15 -55.5q0 -34 20.5 -54t54.5 -20q15 0 35 4q6 2 11.5 -1t5.5 -9v-111q0 -28 -29 -41q-46 -22 -111 -22q-83 0 -140.5 46
t-57.5 134q0 139 143 260h-68q-21 0 -28 23l-20 77q-144 -127 -279 -127h-10q-70 0 -125 25t-88.5 66.5t-50.5 92.5t-17 107v25q0 150 101.5 232t322.5 100l127 10v14q0 75 -33 100t-108 25h-5q-30 0 -68 -6t-64.5 -12t-81 -19.5t-80.5 -19.5q-12 -3 -21.5 3t-9.5 19v217
q0 35 24 41q218 58 383 58zM592 426h-70q-119 0 -119 -90v-6q0 -37 22.5 -60.5t57.5 -23.5h11q40 0 98 38v142z" />
    <glyph glyph-name="Cacute" unicode="&#x106;" horiz-adv-x="1142" 
d="M578 1575l158 311q12 25 41 25h262q8 0 11 -6.5t-1 -14.5l-217 -313q-14 -21 -37 -21h-207q-8 0 -11 6t1 13zM719 1460h31q92 0 181.5 -18.5t131.5 -40.5q29 -15 29 -47v-260q0 -14 -12 -21.5t-25 -1.5q-84 35 -137.5 48.5t-126.5 13.5h-9q-139 0 -220 -88.5t-81 -239.5
v-176q0 -151 81 -239.5t220 -88.5h9q76 0 132 14.5t132 46.5q13 6 25 -1t12 -21v-262q0 -30 -29 -47q-37 -22 -130.5 -40t-182.5 -18h-31q-98 0 -189.5 27t-171 82t-139 132t-93.5 184.5t-34 232.5v172q0 155 52 282t140 207.5t200 124t235 43.5z" />
    <glyph glyph-name="cacute" unicode="&#x107;" horiz-adv-x="907" 
d="M355 1165l158 312q12 24 41 24h262q8 0 11 -6.5t-1 -13.5l-217 -314q-13 -20 -37 -20h-206q-8 0 -11.5 5.5t0.5 12.5zM537 1051h22q66 0 145.5 -20t131.5 -44q24 -9 24 -41v-223q0 -13 -9.5 -20.5t-21.5 -2.5q-86 35 -131.5 49.5t-83.5 14.5h-10q-83 0 -133.5 -54
t-50.5 -157v-82q0 -103 50.5 -157t133.5 -54h10q38 0 83.5 14.5t131.5 49.5q12 5 21.5 -2.5t9.5 -20.5v-223q0 -32 -24 -41q-52 -24 -131.5 -44t-145.5 -20h-22q-98 0 -184.5 30.5t-154.5 89.5t-107.5 154t-39.5 216v98q0 121 39.5 216t107.5 154t154.5 89.5t184.5 30.5z
" />
    <glyph glyph-name="Cdotaccent" unicode="&#x10a;" horiz-adv-x="1142" 
d="M583 1911h299q14 0 22.5 -8.5t8.5 -22.5v-293q0 -13 -8.5 -22t-22.5 -9h-299q-13 0 -22 9t-9 22v293q0 14 9 22.5t22 8.5zM719 1460h31q92 0 181.5 -18.5t131.5 -40.5q29 -15 29 -47v-260q0 -14 -12 -21.5t-25 -1.5q-84 35 -137.5 48.5t-126.5 13.5h-9q-139 0 -220 -88.5
t-81 -239.5v-176q0 -151 81 -239.5t220 -88.5h9q76 0 132 14.5t132 46.5q13 6 25 -1t12 -21v-262q0 -30 -29 -47q-37 -22 -130.5 -40t-182.5 -18h-31q-98 0 -189.5 27t-171 82t-139 132t-93.5 184.5t-34 232.5v172q0 155 52 282t140 207.5t200 124t235 43.5z" />
    <glyph glyph-name="cdotaccent" unicode="&#x10b;" horiz-adv-x="907" 
d="M369 1501h299q14 0 22.5 -8.5t8.5 -22.5v-292q0 -14 -8.5 -22.5t-22.5 -8.5h-299q-13 0 -22 8.5t-9 22.5v292q0 14 9 22.5t22 8.5zM537 1051h22q66 0 145.5 -20t131.5 -44q24 -9 24 -41v-223q0 -13 -9.5 -20.5t-21.5 -2.5q-86 35 -131.5 49.5t-83.5 14.5h-10
q-83 0 -133.5 -54t-50.5 -157v-82q0 -103 50.5 -157t133.5 -54h10q38 0 83.5 14.5t131.5 49.5q12 5 21.5 -2.5t9.5 -20.5v-223q0 -32 -24 -41q-52 -24 -131.5 -44t-145.5 -20h-22q-98 0 -184.5 30.5t-154.5 89.5t-107.5 154t-39.5 216v98q0 121 39.5 216t107.5 154
t154.5 89.5t184.5 30.5z" />
    <glyph glyph-name="Ccaron" unicode="&#x10c;" horiz-adv-x="1142" 
d="M840 1911h229q8 0 11 -6.5t-1 -14.5l-217 -313q-14 -21 -37 -21h-174q-22 0 -36 21l-218 313q-4 8 -0.5 14.5t11.5 6.5h229q29 0 41 -25l60 -119l61 119q13 25 41 25zM719 1460h31q92 0 181.5 -18.5t131.5 -40.5q29 -15 29 -47v-260q0 -14 -12 -21.5t-25 -1.5
q-84 35 -137.5 48.5t-126.5 13.5h-9q-139 0 -220 -88.5t-81 -239.5v-176q0 -151 81 -239.5t220 -88.5h9q76 0 132 14.5t132 46.5q13 6 25 -1t12 -21v-262q0 -30 -29 -47q-37 -22 -130.5 -40t-182.5 -18h-31q-98 0 -189.5 27t-171 82t-139 132t-93.5 184.5t-34 232.5v172
q0 155 52 282t140 207.5t200 124t235 43.5z" />
    <glyph glyph-name="ccaron" unicode="&#x10d;" horiz-adv-x="907" 
d="M588 1501h229q8 0 11 -6.5t-1 -13.5l-217 -314q-13 -20 -37 -20h-174q-24 0 -37 20l-217 314q-4 7 -1 13.5t11 6.5h230q29 0 41 -24l60 -120l61 120q12 24 41 24zM537 1051h22q66 0 145.5 -20t131.5 -44q24 -9 24 -41v-223q0 -13 -9.5 -20.5t-21.5 -2.5
q-86 35 -131.5 49.5t-83.5 14.5h-10q-83 0 -133.5 -54t-50.5 -157v-82q0 -103 50.5 -157t133.5 -54h10q38 0 83.5 14.5t131.5 49.5q12 5 21.5 -2.5t9.5 -20.5v-223q0 -32 -24 -41q-52 -24 -131.5 -44t-145.5 -20h-22q-98 0 -184.5 30.5t-154.5 89.5t-107.5 154t-39.5 216v98
q0 121 39.5 216t107.5 154t154.5 89.5t184.5 30.5z" />
    <glyph glyph-name="Dcaron" unicode="&#x10e;" horiz-adv-x="1318" 
d="M603 1911h229q8 0 11 -6.5t-1 -14.5l-217 -313q-14 -21 -37 -21h-174q-23 0 -37 21l-217 313q-4 8 -1 14.5t11 6.5h230q28 0 41 -25l60 -119l61 119q12 25 41 25zM133 1434h504q123 0 228.5 -38t187 -113t128 -196.5t46.5 -277.5v-184q0 -156 -46.5 -277.5t-128 -196.5
t-187 -113t-228.5 -38h-504q-13 0 -22 9t-9 22v1372q0 13 9 22t22 9zM844 623v188q0 153 -59 224t-195 71h-109v-778h109q136 0 195 71t59 224z" />
    <glyph glyph-name="dcaron" unicode="&#x10f;" horiz-adv-x="1507" 
d="M702 1509h299q14 0 22.5 -8.5t8.5 -21.5v-1448q0 -13 -9 -22t-22 -9h-262q-21 0 -28 23l-16 59q-103 -109 -255 -109h-22q-91 0 -162.5 35.5t-115.5 96.5t-66.5 139t-22.5 166v178q0 216 115.5 339.5t290.5 123.5h22q116 0 193 -59v487q0 13 8 21.5t22 8.5zM1151 1509
h306q13 0 21.5 -8.5t8.5 -21.5v-189q0 -43 -12 -62l-133 -218q-19 -29 -43 -29h-166q-11 0 -16.5 8.5t0.5 18.5l133 218h-99q-13 0 -21.5 8.5t-8.5 22.5v222q0 13 8.5 21.5t21.5 8.5zM545 764h-10q-115 0 -115 -160v-184q0 -160 115 -160h10q55 0 127 35v430q-73 39 -127 39
z" />
    <glyph glyph-name="Dcroat" unicode="&#x110;" horiz-adv-x="1318" 
d="M133 1434h504q123 0 228.5 -38t187 -113t128 -196.5t46.5 -277.5v-184q0 -156 -46.5 -277.5t-128 -196.5t-187 -113t-228.5 -38h-504q-13 0 -22 9t-9 22v497h-30q-14 0 -22.5 9t-8.5 22v215q0 14 8.5 22.5t22.5 8.5h30v598q0 13 9 22t22 9zM844 623v188q0 153 -59 224
t-195 71h-109v-301h168q13 0 22 -8.5t9 -22.5v-215q0 -13 -9 -22t-22 -9h-168v-200h109q136 0 195 71t59 224z" />
    <glyph glyph-name="dcroat" unicode="&#x111;" horiz-adv-x="1093" 
d="M1032 1386h61q13 0 21.5 -8.5t8.5 -22.5v-190q0 -14 -8.5 -22.5t-21.5 -8.5h-61v-1103q0 -13 -9 -22t-22 -9h-262q-21 0 -28 23l-16 59q-103 -109 -255 -109h-22q-91 0 -162.5 35.5t-115.5 96.5t-66.5 139t-22.5 166v178q0 216 115.5 339.5t290.5 123.5h22q116 0 193 -59
v142h-70q-14 0 -22.5 9t-8.5 22v190q0 13 8.5 22t22.5 9h70v93q0 13 8 21.5t22 8.5h299q14 0 22.5 -8.5t8.5 -21.5v-93zM672 295v430q-73 39 -127 39h-10q-115 0 -115 -160v-184q0 -160 115 -160h10q55 0 127 35z" />
    <glyph glyph-name="Emacron" unicode="&#x112;" horiz-adv-x="1093" 
d="M312 1808h469q14 0 22.5 -8.5t8.5 -21.5v-191q0 -13 -9 -22t-22 -9h-469q-13 0 -21.5 8.5t-8.5 22.5v191q0 14 8 22t22 8zM481 891h469q14 0 22.5 -8.5t8.5 -22.5v-266q0 -14 -8.5 -22.5t-22.5 -8.5h-469v-235h531q13 0 21.5 -8.5t8.5 -22.5v-266q0 -14 -8.5 -22.5
t-21.5 -8.5h-879q-13 0 -22 9t-9 22v1372q0 13 9 22t22 9h879q13 0 21.5 -8.5t8.5 -22.5v-266q0 -14 -8.5 -22.5t-21.5 -8.5h-531v-215z" />
    <glyph glyph-name="emacron" unicode="&#x113;" horiz-adv-x="1042" 
d="M288 1399h469q13 0 21.5 -8.5t8.5 -22.5v-190q0 -14 -8.5 -22.5t-21.5 -8.5h-469q-14 0 -22.5 8.5t-8.5 22.5v190q0 14 8.5 22.5t22.5 8.5zM532 1051h23q190 0 315 -116t125 -329v-121q0 -22 -14.5 -36.5t-36.5 -14.5h-522l1 -12q-1 -86 49 -127t134 -41h10
q57 0 123.5 17t171.5 53q12 5 21.5 -2.5t9.5 -20.5v-223q0 -32 -24 -41q-48 -22 -158.5 -43t-198.5 -21h-22q-103 0 -190.5 30.5t-154.5 89.5t-105 154t-38 216v98q0 151 67 264.5t175 169.5t239 56zM543 791h-6q-105 0 -116 -154h239q8 154 -117 154z" />
    <glyph glyph-name="Edotaccent" unicode="&#x116;" horiz-adv-x="1093" 
d="M397 1911h299q14 0 22.5 -8.5t8.5 -22.5v-293q0 -13 -8.5 -22t-22.5 -9h-299q-13 0 -21.5 8.5t-8.5 22.5v293q0 14 8.5 22.5t21.5 8.5zM481 891h469q14 0 22.5 -8.5t8.5 -22.5v-266q0 -14 -8.5 -22.5t-22.5 -8.5h-469v-235h531q13 0 21.5 -8.5t8.5 -22.5v-266
q0 -14 -8.5 -22.5t-21.5 -8.5h-879q-13 0 -22 9t-9 22v1372q0 13 9 22t22 9h879q13 0 21.5 -8.5t8.5 -22.5v-266q0 -14 -8.5 -22.5t-21.5 -8.5h-531v-215z" />
    <glyph glyph-name="edotaccent" unicode="&#x117;" horiz-adv-x="1042" 
d="M373 1501h299q13 0 21.5 -8.5t8.5 -22.5v-292q0 -14 -8.5 -22.5t-21.5 -8.5h-299q-13 0 -22 8.5t-9 22.5v292q0 14 9 22.5t22 8.5zM532 1051h23q190 0 315 -116t125 -329v-121q0 -22 -14.5 -36.5t-36.5 -14.5h-522l1 -12q-1 -86 49 -127t134 -41h10q57 0 123.5 17
t171.5 53q12 5 21.5 -2.5t9.5 -20.5v-223q0 -32 -24 -41q-48 -22 -158.5 -43t-198.5 -21h-22q-103 0 -190.5 30.5t-154.5 89.5t-105 154t-38 216v98q0 151 67 264.5t175 169.5t239 56zM543 791h-6q-105 0 -116 -154h239q8 154 -117 154z" />
    <glyph glyph-name="Eogonek" unicode="&#x118;" horiz-adv-x="1093" 
d="M481 1106v-215h469q14 0 22.5 -8.5t8.5 -22.5v-266q0 -14 -8.5 -22.5t-22.5 -8.5h-469v-235h531q13 0 21.5 -8.5t8.5 -22.5v-266q0 -14 -8.5 -22.5t-21.5 -8.5q-9 -11 -36.5 -38t-44 -45.5t-31.5 -47t-15 -55.5q0 -34 21 -54t55 -20q14 0 34 4q6 2 11.5 -1t5.5 -9v-111
q0 -28 -29 -41q-46 -22 -111 -22q-83 0 -140.5 46t-57.5 134q0 139 143 260h-684q-13 0 -22 9t-9 22v1372q0 13 9 22t22 9h879q13 0 21.5 -8.5t8.5 -22.5v-266q0 -14 -8.5 -22.5t-21.5 -8.5h-531z" />
    <glyph glyph-name="eogonek" unicode="&#x119;" horiz-adv-x="1042" 
d="M532 1051h23q190 0 315 -116t125 -329v-121q0 -22 -14.5 -36.5t-36.5 -14.5h-522l1 -12q-1 -86 49 -127t134 -41h10q57 0 123.5 17t171.5 53q12 5 21.5 -2.5t9.5 -20.5v-223q0 -32 -24 -41q-49 -22 -160 -43q-7 -8 -36 -37t-43 -45t-28.5 -44t-14.5 -54q0 -34 21 -54
t55 -20q15 0 35 4q6 2 11 -1t5 -9v-111q0 -29 -28 -41q-46 -22 -111 -22q-83 0 -141 46t-58 134q0 122 114 233q-103 0 -190.5 30.5t-154.5 89.5t-105 154t-38 216v98q0 151 67 264.5t175 169.5t239 56zM421 637h239q8 154 -117 154h-6q-105 0 -116 -154z" />
    <glyph glyph-name="Ecaron" unicode="&#x11a;" horiz-adv-x="1093" 
d="M648 1911h230q8 0 11 -6.5t-1 -14.5l-217 -313q-14 -21 -37 -21h-174q-23 0 -37 21l-217 313q-4 8 -1 14.5t11 6.5h229q29 0 41 -25l61 -119l60 119q13 25 41 25zM481 891h469q14 0 22.5 -8.5t8.5 -22.5v-266q0 -14 -8.5 -22.5t-22.5 -8.5h-469v-235h531q13 0 21.5 -8.5
t8.5 -22.5v-266q0 -14 -8.5 -22.5t-21.5 -8.5h-879q-13 0 -22 9t-9 22v1372q0 13 9 22t22 9h879q13 0 21.5 -8.5t8.5 -22.5v-266q0 -14 -8.5 -22.5t-21.5 -8.5h-531v-215z" />
    <glyph glyph-name="ecaron" unicode="&#x11b;" horiz-adv-x="1042" 
d="M624 1501h229q8 0 11 -6.5t-1 -13.5l-217 -314q-13 -20 -37 -20h-174q-24 0 -37 20l-217 314q-4 7 -1 13.5t11 6.5h230q29 0 41 -24l60 -120l61 120q12 24 41 24zM532 1051h23q190 0 315 -116t125 -329v-121q0 -22 -14.5 -36.5t-36.5 -14.5h-522l1 -12q-1 -86 49 -127
t134 -41h10q57 0 123.5 17t171.5 53q12 5 21.5 -2.5t9.5 -20.5v-223q0 -32 -24 -41q-48 -22 -158.5 -43t-198.5 -21h-22q-103 0 -190.5 30.5t-154.5 89.5t-105 154t-38 216v98q0 151 67 264.5t175 169.5t239 56zM543 791h-6q-105 0 -116 -154h239q8 154 -117 154z" />
    <glyph glyph-name="Gbreve" unicode="&#x11e;" horiz-adv-x="1284" 
d="M985 1843q36 14 36 -20v-178q0 -21 -18 -35q-34 -27 -110.5 -50.5t-163.5 -23.5t-164 23.5t-111 50.5q-18 14 -18 35v178q0 17 11 22t26 -2q75 -30 130 -43.5t126 -13.5t126 13.5t130 43.5zM741 1460h31q93 0 183.5 -19.5t129.5 -41.5q29 -15 29 -47v-258
q0 -13 -10.5 -21t-26.5 -2q-109 41 -151 51.5t-113 10.5h-8q-148 0 -236 -89t-88 -239v-176q0 -328 271 -328h8q34 0 55 6v406q0 13 8.5 21.5t22.5 8.5h309q14 0 22.5 -8.5t8.5 -21.5v-561q0 -41 -27 -62q-46 -39 -168.5 -78.5t-234.5 -38.5h-31q-127 0 -240 43.5
t-201.5 124.5t-140 207.5t-51.5 282.5v172q0 155 54 282t145.5 207.5t207 124t242.5 43.5z" />
    <glyph glyph-name="gbreve" unicode="&#x11f;" horiz-adv-x="1085" 
d="M799 1434q15 7 26 1.5t11 -22.5v-178q0 -20 -19 -35q-34 -27 -110.5 -50.5t-163.5 -23.5t-164 23.5t-111 50.5q-18 14 -18 35v178q0 17 11 22.5t26 -1.5q77 -30 131 -44t125 -14t125 14t131 44zM1004 928q20 -13 20 -37v-807q0 -96 -31 -174.5t-81 -129t-115.5 -85
t-132 -49.5t-132.5 -15h-8q-46 0 -89 2.5t-71.5 6t-63.5 10.5t-50.5 10.5t-49.5 12.5t-44 12q-25 6 -25 41v223q0 13 9.5 20t21.5 2q64 -23 94.5 -33t82.5 -21t97 -11h10q112 0 165 41t53 139v44q-114 -87 -232 -87h-22q-89 0 -159 35.5t-113 96.5t-65 138t-22 166v109
q0 220 123.5 341.5t333.5 121.5h22q134 0 266.5 -38t207.5 -85zM526 330h11q59 0 127 35v366q-73 39 -127 39h-11q-106 0 -106 -156v-127q0 -157 106 -157z" />
    <glyph glyph-name="Gdotaccent" unicode="&#x120;" horiz-adv-x="1284" 
d="M559 1911h299q14 0 22.5 -8.5t8.5 -22.5v-293q0 -13 -8.5 -22t-22.5 -9h-299q-13 0 -22 9t-9 22v293q0 14 9 22.5t22 8.5zM741 1460h31q93 0 183.5 -19.5t129.5 -41.5q29 -15 29 -47v-258q0 -13 -10.5 -21t-26.5 -2q-109 41 -151 51.5t-113 10.5h-8q-148 0 -236 -89
t-88 -239v-176q0 -328 271 -328h8q34 0 55 6v406q0 13 8.5 21.5t22.5 8.5h309q14 0 22.5 -8.5t8.5 -21.5v-561q0 -41 -27 -62q-46 -39 -168.5 -78.5t-234.5 -38.5h-31q-127 0 -240 43.5t-201.5 124.5t-140 207.5t-51.5 282.5v172q0 155 54 282t145.5 207.5t207 124
t242.5 43.5z" />
    <glyph glyph-name="gdotaccent" unicode="&#x121;" horiz-adv-x="1085" 
d="M393 1501h299q14 0 22.5 -8.5t8.5 -22.5v-292q0 -14 -8.5 -22.5t-22.5 -8.5h-299q-13 0 -22 8.5t-9 22.5v292q0 14 9 22.5t22 8.5zM1004 928q20 -13 20 -37v-807q0 -96 -31 -174.5t-81 -129t-115.5 -85t-132 -49.5t-132.5 -15h-8q-46 0 -89 2.5t-71.5 6t-63.5 10.5
t-50.5 10.5t-49.5 12.5t-44 12q-25 6 -25 41v223q0 13 9.5 20t21.5 2q64 -23 94.5 -33t82.5 -21t97 -11h10q112 0 165 41t53 139v44q-114 -87 -232 -87h-22q-89 0 -159 35.5t-113 96.5t-65 138t-22 166v109q0 220 123.5 341.5t333.5 121.5h22q134 0 266.5 -38t207.5 -85z
M526 330h11q59 0 127 35v366q-73 39 -127 39h-11q-106 0 -106 -156v-127q0 -157 106 -157z" />
    <glyph glyph-name="Gcommaaccent" unicode="&#x122;" horiz-adv-x="1284" 
d="M741 1460h31q93 0 183.5 -19.5t129.5 -41.5q29 -15 29 -47v-258q0 -13 -10.5 -21t-26.5 -2q-109 41 -151 51.5t-113 10.5h-8q-148 0 -236 -89t-88 -239v-176q0 -328 271 -328h8q34 0 55 6v406q0 13 8.5 21.5t22.5 8.5h309q14 0 22.5 -8.5t8.5 -21.5v-561q0 -41 -27 -62
q-46 -39 -168.5 -78.5t-234.5 -38.5h-31q-127 0 -240 43.5t-201.5 124.5t-140 207.5t-51.5 282.5v172q0 155 54 282t145.5 207.5t207 124t242.5 43.5zM560 -102h305q13 0 22 -9t9 -22v-189q0 -43 -12 -62l-133 -218q-18 -28 -43 -28h-166q-11 0 -17 8.5t0 17.5l133 218h-98
q-14 0 -22.5 9t-8.5 22v222q0 13 8.5 22t22.5 9z" />
    <glyph glyph-name="gcommaaccent" unicode="&#x123;" horiz-adv-x="1085" 
d="M697 1147h-305q-13 0 -21.5 8.5t-8.5 22.5v189q0 42 12 61l133 218q19 29 43 29h166q11 0 16.5 -8.5t-0.5 -18.5l-133 -218h98q14 0 22.5 -8.5t8.5 -21.5v-222q0 -14 -9 -22.5t-22 -8.5zM1004 928q20 -13 20 -37v-807q0 -96 -31 -174.5t-81 -129t-115.5 -85t-132 -49.5
t-132.5 -15h-8q-46 0 -89 2.5t-71.5 6t-63.5 10.5t-50.5 10.5t-49.5 12.5t-44 12q-25 6 -25 41v223q0 13 9.5 20t21.5 2q64 -23 94.5 -33t82.5 -21t97 -11h10q112 0 165 41t53 139v44q-114 -87 -232 -87h-22q-89 0 -159 35.5t-113 96.5t-65 138t-22 166v109
q0 220 123.5 341.5t333.5 121.5h22q134 0 266.5 -38t207.5 -85zM526 330h11q59 0 127 35v366q-73 39 -127 39h-11q-106 0 -106 -156v-127q0 -157 106 -157z" />
    <glyph glyph-name="Hbar" unicode="&#x126;" horiz-adv-x="1505" 
d="M1340 1259h94q14 0 22.5 -8.5t8.5 -21.5v-216q0 -13 -8.5 -21.5t-22.5 -8.5h-94v-952q0 -13 -9 -22t-22 -9h-317q-14 0 -22.5 9t-8.5 22v532h-418v-532q0 -14 -8.5 -22.5t-21.5 -8.5h-318q-13 0 -21.5 8.5t-8.5 22.5v952h-93q-14 0 -22.5 8.5t-8.5 21.5v216
q0 13 8.5 21.5t22.5 8.5h93v144q0 14 8.5 22.5t21.5 8.5h318q13 0 21.5 -8.5t8.5 -22.5v-144h418v144q0 13 8.5 22t22.5 9h317q13 0 22 -9t9 -22v-144zM961 983h-418v-92h418v92z" />
    <glyph glyph-name="hbar" unicode="&#x127;" horiz-adv-x="1095" 
d="M694 1051h27q138 0 227.5 -85.5t89.5 -234.5v-700q0 -14 -8.5 -22.5t-21.5 -8.5h-299q-13 0 -22 9t-9 22v618q0 60 -26.5 87.5t-80.5 27.5h-10q-62 0 -135 -39v-694q0 -13 -9 -22t-22 -9h-299q-13 0 -21.5 8.5t-8.5 22.5v1105h-61q-13 0 -22 9t-9 22v188q0 13 9 22t22 9
h61v93q0 13 8 21.5t22 8.5h299q14 0 22.5 -8.5t8.5 -21.5v-93h69q13 0 22 -9t9 -22v-190q0 -13 -9 -22t-22 -9l-69 1v-201q75 63 138 90t130 27z" />
    <glyph glyph-name="Imacron" unicode="&#x12a;" horiz-adv-x="583" 
d="M58 1808h469q14 0 22.5 -8.5t8.5 -21.5v-191q0 -13 -9 -22t-22 -9h-469q-13 0 -21.5 8.5t-8.5 22.5v191q0 14 8 22t22 8zM133 1434h318q13 0 21.5 -8.5t8.5 -22.5v-1372q0 -14 -8.5 -22.5t-21.5 -8.5h-318q-13 0 -22 9t-9 22v1372q0 13 9 22t22 9z" />
    <glyph glyph-name="imacron" unicode="&#x12b;" horiz-adv-x="487" 
d="M12 1399h469q13 0 22 -8.5t9 -22.5v-190q0 -14 -9 -22.5t-22 -8.5h-469q-14 0 -22.5 8.5t-8.5 22.5v190q0 14 8.5 22.5t22.5 8.5zM96 1024h299q13 0 22 -9t9 -22v-962q0 -13 -9 -22t-22 -9h-299q-13 0 -21.5 8.5t-8.5 22.5v962q0 14 8.5 22.5t21.5 8.5z" />
    <glyph glyph-name="Iogonek" unicode="&#x12e;" horiz-adv-x="583" 
d="M133 1434h318q13 0 21.5 -8.5t8.5 -22.5v-1372q0 -14 -8.5 -22.5t-21.5 -8.5q-9 -11 -36.5 -38t-44 -45.5t-31.5 -47t-15 -55.5q0 -34 20.5 -54t54.5 -20q15 0 35 4q6 2 11.5 -1t5.5 -9v-111q0 -28 -29 -41q-46 -22 -111 -22q-83 0 -140.5 46t-57.5 134q0 139 143 260
h-123q-13 0 -22 9t-9 22v1372q0 13 9 22t22 9z" />
    <glyph glyph-name="iogonek" unicode="&#x12f;" horiz-adv-x="487" 
d="M96 1501h299q13 0 22 -8.5t9 -22.5v-292q0 -14 -9 -22.5t-22 -8.5h-299q-13 0 -21.5 8.5t-8.5 22.5v292q0 14 8.5 22.5t21.5 8.5zM96 1024h299q13 0 22 -9t9 -22v-962q0 -13 -9 -22t-22 -9q-9 -11 -36.5 -38t-44 -45.5t-31.5 -47t-15 -55.5q0 -34 21 -54t55 -20
q15 0 35 4q6 2 11 -1t5 -9v-111q0 -29 -28 -41q-46 -22 -111 -22q-83 0 -141 46t-58 134q0 138 144 260h-105q-13 0 -21.5 8.5t-8.5 22.5v962q0 14 8.5 22.5t21.5 8.5z" />
    <glyph glyph-name="Idotaccent" unicode="&#x130;" horiz-adv-x="583" 
d="M143 1911h299q14 0 22.5 -8.5t8.5 -22.5v-293q0 -13 -8.5 -22t-22.5 -9h-299q-13 0 -21.5 8.5t-8.5 22.5v293q0 14 8.5 22.5t21.5 8.5zM133 1434h318q13 0 21.5 -8.5t8.5 -22.5v-1372q0 -14 -8.5 -22.5t-21.5 -8.5h-318q-13 0 -22 9t-9 22v1372q0 13 9 22t22 9z" />
    <glyph glyph-name="dotlessi" unicode="&#x131;" horiz-adv-x="487" 
d="M96 1024h299q13 0 22 -9t9 -22v-962q0 -13 -9 -22t-22 -9h-299q-13 0 -21.5 8.5t-8.5 22.5v962q0 14 8.5 22.5t21.5 8.5z" />
    <glyph glyph-name="IJ" unicode="&#x132;" horiz-adv-x="1390" 
d="M133 1434h318q13 0 21.5 -8.5t8.5 -22.5v-1372q0 -14 -8.5 -22.5t-21.5 -8.5h-318q-13 0 -22 9t-9 22v1372q0 13 9 22t22 9zM930 1434h327q13 0 22 -9t9 -22v-938q0 -132 -36.5 -230t-100.5 -153.5t-141 -82t-168 -26.5h-11q-94 0 -188 33q-18 6 -18 27v268q0 15 10.5 22
t23.5 1q63 -23 97 -23h10q62 0 97.5 38.5t35.5 109.5v954q0 13 8.5 22t22.5 9z" />
    <glyph glyph-name="ij" unicode="&#x133;" horiz-adv-x="1019" 
d="M96 1473h299q13 0 22 -8.5t9 -22.5v-264q0 -14 -9 -22.5t-22 -8.5h-299q-13 0 -21.5 8.5t-8.5 22.5v264q0 14 8.5 22.5t21.5 8.5zM629 1473h299q13 0 21.5 -8.5t8.5 -22.5v-264q0 -14 -8.5 -22.5t-21.5 -8.5h-299q-13 0 -22 8.5t-9 22.5v264q0 14 9 22.5t22 8.5zM96 1024
h299q13 0 22 -9t9 -22v-962q0 -13 -9 -22t-22 -9h-299q-13 0 -21.5 8.5t-8.5 22.5v962q0 14 8.5 22.5t21.5 8.5zM629 1024h299q13 0 21.5 -8.5t8.5 -22.5v-993q0 -171 -87.5 -269.5t-243.5 -98.5h-23q-104 0 -164 28q-14 6 -19 14.5t-6 27.5v192q1 18 9.5 22.5t21.5 -0.5
q35 -10 62 -10h10q40 0 60 21.5t20 75.5v990q0 13 9 22t22 9z" />
    <glyph glyph-name="Kcommaaccent" unicode="&#x136;" horiz-adv-x="1318" 
d="M897 729l377 -692q7 -13 -0.5 -25t-22.5 -12h-358q-27 0 -39 25l-284 528h-89v-522q0 -14 -8.5 -22.5t-21.5 -8.5h-318q-13 0 -22 9t-9 22v1372q0 13 9 22t22 9h318q13 0 21.5 -8.5t8.5 -22.5v-522h82l279 528q12 25 39 25h350q15 0 21.5 -12t-1.5 -25zM510 -102h306
q13 0 21.5 -8.5t8.5 -22.5v-189q0 -43 -12 -62l-133 -218q-18 -28 -43 -28h-166q-11 0 -16.5 8t0.5 18l133 218h-99q-13 0 -21.5 8.5t-8.5 22.5v222q0 14 8.5 22.5t21.5 8.5z" />
    <glyph glyph-name="kcommaaccent" unicode="&#x137;" horiz-adv-x="1110" 
d="M807 537l278 -496q8 -15 1.5 -28t-23.5 -13h-336q-27 0 -37 20l-200 365h-64v-354q0 -13 -9 -22t-22 -9h-299q-13 0 -21.5 8.5t-8.5 22.5v1448q0 13 8 21.5t22 8.5h299q14 0 22.5 -8.5t8.5 -21.5v-817h64l172 339q10 23 38 23h318q17 0 23.5 -13t-1.5 -26zM406 -102h305
q13 0 22 -9t9 -22v-189q0 -42 -13 -62l-133 -218q-18 -28 -43 -28h-166q-11 0 -16.5 8t0.5 18l133 218h-98q-14 0 -22.5 9t-8.5 22v222q0 13 8.5 22t22.5 9z" />
    <glyph glyph-name="Lacute" unicode="&#x139;" horiz-adv-x="1021" 
d="M189 1575l157 311q12 25 41 25h262q8 0 11.5 -6.5t-0.5 -14.5l-217 -313q-14 -21 -37 -21h-207q-8 0 -11 6t1 13zM481 328h469q14 0 22.5 -9t8.5 -22v-266q0 -13 -8.5 -22t-22.5 -9h-817q-13 0 -22 9t-9 22v1372q0 13 9 22t22 9h318q13 0 21.5 -8.5t8.5 -22.5v-1075z" />
    <glyph glyph-name="lacute" unicode="&#x13a;" horiz-adv-x="483" 
d="M129 1651l157 311q12 25 41 25h262q8 0 11.5 -6.5t-0.5 -14.5l-217 -313q-14 -21 -37 -21h-207q-8 0 -11 6t1 13zM96 1509h299q14 0 22.5 -8.5t8.5 -21.5v-1448q0 -13 -9 -22t-22 -9h-299q-13 0 -21.5 8.5t-8.5 22.5v1448q0 13 8 21.5t22 8.5z" />
    <glyph glyph-name="Lcommaaccent" unicode="&#x13b;" horiz-adv-x="1021" 
d="M481 328h469q14 0 22.5 -9t8.5 -22v-266q0 -13 -8.5 -22t-22.5 -9h-817q-13 0 -22 9t-9 22v1372q0 13 9 22t22 9h318q13 0 21.5 -8.5t8.5 -22.5v-1075zM363 -102h305q14 0 22.5 -9t8.5 -22v-189q0 -42 -13 -62l-133 -218q-18 -28 -43 -28h-166q-11 0 -16.5 8t0.5 18
l133 218h-98q-13 0 -22 9t-9 22v222q0 13 9 22t22 9z" />
    <glyph glyph-name="lcommaaccent" unicode="&#x13c;" horiz-adv-x="483" 
d="M96 1509h299q14 0 22.5 -8.5t8.5 -21.5v-1448q0 -13 -9 -22t-22 -9h-299q-13 0 -21.5 8.5t-8.5 22.5v1448q0 13 8 21.5t22 8.5zM93 -102h305q13 0 21.5 -8.5t8.5 -22.5v-189q0 -43 -12 -62l-133 -218q-18 -28 -43 -28h-166q-11 0 -16.5 8t0.5 18l133 218h-98q-13 0 -22 9
t-9 22v222q0 13 9 22t22 9z" />
    <glyph glyph-name="Lcaron" unicode="&#x13d;" horiz-adv-x="1021" 
d="M481 328h469q14 0 22.5 -9t8.5 -22v-266q0 -13 -8.5 -22t-22.5 -9h-817q-13 0 -22 9t-9 22v1372q0 13 9 22t22 9h318q13 0 21.5 -8.5t8.5 -22.5v-1075zM645 1434h305q14 0 22.5 -9t8.5 -22v-189q0 -43 -12 -62l-133 -218q-18 -28 -43 -28h-166q-11 0 -17 8.5t0 17.5
l133 218h-98q-13 0 -22 9t-9 22v222q0 13 9 22t22 9z" />
    <glyph glyph-name="lcaron" unicode="&#x13e;" horiz-adv-x="903" 
d="M96 1509h299q14 0 22.5 -8.5t8.5 -21.5v-1448q0 -13 -9 -22t-22 -9h-299q-13 0 -21.5 8.5t-8.5 22.5v1448q0 13 8 21.5t22 8.5zM546 1509h305q14 0 22.5 -8.5t8.5 -21.5v-189q0 -43 -12 -62l-133 -218q-19 -29 -43 -29h-166q-11 0 -16.5 8.5t0.5 18.5l133 218h-99
q-13 0 -21.5 8.5t-8.5 22.5v222q0 13 8 21.5t22 8.5z" />
    <glyph glyph-name="Ldot" unicode="&#x13f;" horiz-adv-x="1021" 
d="M481 328h469q14 0 22.5 -9t8.5 -22v-266q0 -13 -8.5 -22t-22.5 -9h-817q-13 0 -22 9t-9 22v1372q0 13 9 22t22 9h318q13 0 21.5 -8.5t8.5 -22.5v-1075zM651 793h299q14 0 22.5 -8.5t8.5 -22.5v-293q0 -13 -8.5 -22t-22.5 -9h-299q-13 0 -21.5 8.5t-8.5 22.5v293
q0 14 8.5 22.5t21.5 8.5z" />
    <glyph glyph-name="ldot" unicode="&#x140;" horiz-adv-x="894" 
d="M96 1509h299q14 0 22.5 -8.5t8.5 -21.5v-1448q0 -13 -9 -22t-22 -9h-299q-13 0 -21.5 8.5t-8.5 22.5v1448q0 13 8 21.5t22 8.5zM545 793h299q14 0 22.5 -8.5t8.5 -22.5v-293q0 -13 -8.5 -22t-22.5 -9h-299q-13 0 -22 9t-9 22v293q0 14 9 22.5t22 8.5z" />
    <glyph glyph-name="Lslash" unicode="&#x141;" horiz-adv-x="1179" 
d="M639 328h469q14 0 22.5 -9t8.5 -22v-266q0 -13 -8.5 -22t-22.5 -9h-817q-13 0 -22 9t-9 22v395l-52 -36q-25 -16 -42 6l-119 168q-8 10 -5.5 22.5t14.5 20.5l204 143v653q0 13 9 22t22 9h317q14 0 22.5 -9t8.5 -22v-389l112 78q24 16 42 -7l119 -167q8 -10 5.5 -22.5
t-14.5 -20.5l-264 -185v-362z" />
    <glyph glyph-name="lslash" unicode="&#x142;" horiz-adv-x="917" 
d="M772 1145l119 -168q8 -10 5.5 -22.5t-14.5 -20.5l-245 -171v-732q0 -13 -8.5 -22t-22.5 -9h-299q-13 0 -22 9t-9 22v480l-88 -62q-25 -17 -43 6l-119 168q-8 10 -5.5 22.5t14.5 20.5l242 169v644q0 13 8.5 21.5t21.5 8.5h299q14 0 22.5 -8.5t8.5 -21.5v-393l93 65
q25 16 42 -6z" />
    <glyph glyph-name="Nacute" unicode="&#x143;" horiz-adv-x="1384" 
d="M572 1575l158 311q12 25 40 25h263q8 0 11 -6.5t-1 -14.5l-217 -313q-14 -21 -37 -21h-207q-8 0 -11 6t1 13zM938 1434h317q13 0 22 -9t9 -22v-1372q0 -13 -9 -22t-22 -9h-356q-27 0 -41 25l-285 561l-104 266h-29l37 -266v-555q0 -13 -8.5 -22t-22.5 -9h-317
q-13 0 -22 9t-9 22v1372q0 13 9 22t22 9h356q27 0 41 -25l285 -561l104 -266h29l-37 266v555q0 13 8.5 22t22.5 9z" />
    <glyph glyph-name="nacute" unicode="&#x144;" horiz-adv-x="1079" 
d="M420 1165l157 312q12 24 41 24h262q8 0 11.5 -6.5t-0.5 -13.5l-217 -314q-13 -20 -37 -20h-207q-8 0 -11 5.5t1 12.5zM682 1051h27q138 0 225.5 -85t87.5 -235v-700q0 -13 -9 -22t-22 -9h-299q-13 0 -21.5 8.5t-8.5 22.5v618q0 61 -25 88t-78 27h-10q-55 0 -127 -35v-698
q0 -13 -9 -22t-22 -9h-299q-14 0 -22.5 9t-8.5 22v962q0 13 8.5 22t22.5 9h262q22 0 29 -23l20 -77q79 69 144.5 98t134.5 29z" />
    <glyph glyph-name="Ncommaaccent" unicode="&#x145;" horiz-adv-x="1384" 
d="M938 1434h317q13 0 22 -9t9 -22v-1372q0 -13 -9 -22t-22 -9h-356q-27 0 -41 25l-285 561l-104 266h-29l37 -266v-555q0 -13 -8.5 -22t-22.5 -9h-317q-13 0 -22 9t-9 22v1372q0 13 9 22t22 9h356q27 0 41 -25l285 -561l104 -266h29l-37 266v555q0 13 8.5 22t22.5 9z
M543 -102h305q14 0 22.5 -9t8.5 -22v-189q0 -43 -12 -62l-133 -218q-18 -28 -43 -28h-166q-11 0 -17 8.5t0 17.5l133 218h-98q-13 0 -22 9t-9 22v222q0 13 9 22t22 9z" />
    <glyph glyph-name="ncommaaccent" unicode="&#x146;" horiz-adv-x="1079" 
d="M682 1051h27q138 0 225.5 -85t87.5 -235v-700q0 -13 -9 -22t-22 -9h-299q-13 0 -21.5 8.5t-8.5 22.5v618q0 61 -25 88t-78 27h-10q-55 0 -127 -35v-698q0 -13 -9 -22t-22 -9h-299q-14 0 -22.5 9t-8.5 22v962q0 13 8.5 22t22.5 9h262q22 0 29 -23l20 -77q79 69 144.5 98
t134.5 29zM392 -102h305q13 0 21.5 -8.5t8.5 -22.5v-189q0 -43 -12 -62l-133 -218q-18 -28 -43 -28h-166q-11 0 -16.5 8t0.5 18l133 218h-98q-14 0 -22.5 9t-8.5 22v222q0 13 8.5 22t22.5 9z" />
    <glyph glyph-name="Ncaron" unicode="&#x147;" horiz-adv-x="1384" 
d="M794 1911h229q8 0 11 -6.5t-1 -14.5l-217 -313q-14 -21 -37 -21h-174q-23 0 -37 21l-217 313q-4 8 -1 14.5t11 6.5h230q29 0 41 -25l60 -119l61 119q13 25 41 25zM938 1434h317q13 0 22 -9t9 -22v-1372q0 -13 -9 -22t-22 -9h-356q-27 0 -41 25l-285 561l-104 266h-29
l37 -266v-555q0 -13 -8.5 -22t-22.5 -9h-317q-13 0 -22 9t-9 22v1372q0 13 9 22t22 9h356q27 0 41 -25l285 -561l104 -266h29l-37 266v555q0 13 8.5 22t22.5 9z" />
    <glyph glyph-name="ncaron" unicode="&#x148;" horiz-adv-x="1079" 
d="M642 1501h229q8 0 11.5 -6.5t-0.5 -13.5l-217 -314q-13 -20 -37 -20h-174q-24 0 -37 20l-217 314q-4 7 -1 13.5t11 6.5h229q29 0 41 -24l61 -120l60 120q12 24 41 24zM682 1051h27q138 0 225.5 -85t87.5 -235v-700q0 -13 -9 -22t-22 -9h-299q-13 0 -21.5 8.5t-8.5 22.5
v618q0 61 -25 88t-78 27h-10q-55 0 -127 -35v-698q0 -13 -9 -22t-22 -9h-299q-14 0 -22.5 9t-8.5 22v962q0 13 8.5 22t22.5 9h262q22 0 29 -23l20 -77q79 69 144.5 98t134.5 29z" />
    <glyph glyph-name="Eng" unicode="&#x14a;" horiz-adv-x="1384" 
d="M938 1434h317q13 0 22 -9t9 -22v-1280q0 -492 -391 -492h-10q-95 0 -188 33q-19 6 -19 27v258q0 15 10.5 21.5t24.5 0.5q60 -22 96 -22h10q49 0 49 56l-295 581l-104 266h-29l37 -266v-555q0 -13 -8.5 -22t-22.5 -9h-317q-13 0 -22 9t-9 22v1372q0 13 9 22t22 9h356
q27 0 41 -25l285 -561l104 -266h29l-37 266v555q0 13 8.5 22t22.5 9z" />
    <glyph glyph-name="eng" unicode="&#x14b;" horiz-adv-x="1079" 
d="M682 1051h27q138 0 225.5 -85t87.5 -235v-731q0 -171 -88 -269.5t-244 -98.5h-22q-104 0 -164 28q-25 11 -26 42v192q1 18 10 22.5t22 -0.5q35 -10 61 -10h11q40 0 60 21.5t20 75.5v646q0 61 -25 88t-78 27h-10q-55 0 -127 -35v-698q0 -13 -9 -22t-22 -9h-299
q-14 0 -22.5 9t-8.5 22v962q0 13 8.5 22t22.5 9h262q22 0 29 -23l20 -77q79 69 144.5 98t134.5 29z" />
    <glyph glyph-name="Omacron" unicode="&#x14c;" horiz-adv-x="1386" 
d="M460 1808h469q13 0 21.5 -8t8.5 -22v-191q0 -14 -8.5 -22.5t-21.5 -8.5h-469q-14 0 -22.5 9t-8.5 22v191q0 13 8.5 21.5t22.5 8.5zM678 1460h31q115 0 219 -39t186 -113t131 -192t49 -264v-270q0 -146 -49 -264.5t-131 -192t-186 -113t-219 -39.5h-31q-115 0 -219 39.5
t-186.5 113t-131.5 192t-49 264.5v270q0 146 49 264t131.5 192t186.5 113t219 39zM700 1133h-14q-100 0 -152.5 -65t-52.5 -179v-344q0 -116 52.5 -180t152.5 -64h14q100 0 152.5 64t52.5 180v344q0 114 -52.5 179t-152.5 65z" />
    <glyph glyph-name="omacron" unicode="&#x14d;" horiz-adv-x="1103" 
d="M318 1399h469q13 0 22 -8.5t9 -22.5v-190q0 -14 -9 -22.5t-22 -8.5l-469 2q-13 0 -21.5 8.5t-8.5 22.5v188q0 14 8.5 22.5t21.5 8.5zM541 1051h22q131 0 241 -52.5t179.5 -160t69.5 -250.5v-152q0 -143 -69.5 -250.5t-179.5 -160t-241 -52.5h-22q-131 0 -241 52.5
t-179.5 160t-69.5 250.5v152q0 143 69.5 250.5t179.5 160t241 52.5zM557 764h-10q-60 0 -93.5 -41t-33.5 -119v-184q0 -78 33.5 -119t93.5 -41h10q60 0 93.5 41t33.5 119v184q0 78 -33.5 119t-93.5 41z" />
    <glyph glyph-name="Ohungarumlaut" unicode="&#x150;" horiz-adv-x="1386" 
d="M426 1575l157 311q13 25 41 25h230q8 0 11 -6.5t-1 -14.5l-217 -313q-14 -21 -37 -21h-174q-8 0 -11 6t1 13zM776 1575l158 311q12 25 41 25h229q8 0 11 -6.5t-1 -14.5l-217 -313q-14 -21 -37 -21h-174q-8 0 -11 6t1 13zM678 1460h31q115 0 219 -39t186 -113t131 -192
t49 -264v-270q0 -146 -49 -264.5t-131 -192t-186 -113t-219 -39.5h-31q-115 0 -219 39.5t-186.5 113t-131.5 192t-49 264.5v270q0 146 49 264t131.5 192t186.5 113t219 39zM700 1133h-14q-100 0 -152.5 -65t-52.5 -179v-344q0 -116 52.5 -180t152.5 -64h14q100 0 152.5 64
t52.5 180v344q0 114 -52.5 179t-152.5 65z" />
    <glyph glyph-name="ohungarumlaut" unicode="&#x151;" horiz-adv-x="1103" 
d="M283 1165l157 312q12 24 41 24h230q8 0 11 -6.5t-1 -13.5l-217 -314q-13 -20 -37 -20h-174q-8 0 -11 5.5t1 12.5zM633 1165l158 312q12 24 41 24h229q8 0 11 -6.5t-1 -13.5l-217 -314q-13 -20 -37 -20h-174q-8 0 -11 5.5t1 12.5zM541 1051h22q131 0 241 -52.5t179.5 -160
t69.5 -250.5v-152q0 -143 -69.5 -250.5t-179.5 -160t-241 -52.5h-22q-131 0 -241 52.5t-179.5 160t-69.5 250.5v152q0 143 69.5 250.5t179.5 160t241 52.5zM557 764h-10q-60 0 -93.5 -41t-33.5 -119v-184q0 -78 33.5 -119t93.5 -41h10q60 0 93.5 41t33.5 119v184
q0 78 -33.5 119t-93.5 41z" />
    <glyph glyph-name="OE" unicode="&#x152;" horiz-adv-x="1896" 
d="M678 1460h31q182 0 324 -90v33q0 14 8.5 22.5t21.5 8.5h752q13 0 21.5 -8.5t8.5 -22.5v-266q0 -14 -8.5 -22.5t-21.5 -8.5h-531v-215h469q13 0 22 -8.5t9 -22.5v-266q0 -14 -9 -22.5t-22 -8.5h-469v-235h531q13 0 21.5 -8.5t8.5 -22.5v-266q0 -14 -8.5 -22.5t-21.5 -8.5
h-752q-13 0 -21.5 8.5t-8.5 22.5v32q-142 -90 -324 -90h-31q-115 0 -219 39.5t-186.5 113t-131.5 192t-49 264.5v270q0 146 49 264t131.5 192t186.5 113t219 39zM700 1133h-14q-100 0 -152.5 -65t-52.5 -179v-344q0 -116 52.5 -180t152.5 -64h14q100 0 152.5 64t52.5 180
v344q0 114 -52.5 179t-152.5 65z" />
    <glyph glyph-name="oe" unicode="&#x153;" horiz-adv-x="1675" 
d="M1165 1051h23q190 0 315 -116t125 -329v-121q0 -22 -14.5 -36.5t-36.5 -14.5h-522v-12q-1 -86 49.5 -127t134.5 -41h10q57 0 123.5 17t171.5 53q12 5 21.5 -2.5t9.5 -20.5v-223q0 -32 -25 -41q-48 -22 -158 -43t-198 -21h-23q-181 0 -306 89q-130 -89 -302 -89h-22
q-131 0 -241 52.5t-179.5 160t-69.5 250.5v152q0 143 69.5 250.5t179.5 160t241 52.5h22q176 0 307 -93q127 93 295 93zM1176 791h-7q-104 0 -115 -154h239q8 154 -117 154zM557 764h-10q-60 0 -93.5 -41t-33.5 -119v-184q0 -78 33.5 -119t93.5 -41h10q60 0 93.5 41
t33.5 119v184q0 78 -33.5 119t-93.5 41z" />
    <glyph glyph-name="Racute" unicode="&#x154;" horiz-adv-x="1312" 
d="M420 1575l158 311q12 25 40 25h263q8 0 11 -6.5t-1 -14.5l-217 -313q-14 -21 -37 -21h-207q-8 0 -11 6t1 13zM133 1434h559q105 0 191.5 -25t154 -76t105 -135.5t37.5 -196.5v-14q0 -146 -62 -250.5t-171 -161.5l138 -202l183 -336q7 -13 -0.5 -25t-22.5 -12h-358
q-27 0 -39 25l-263 489h-104v-483q0 -14 -8.5 -22.5t-21.5 -8.5h-318q-13 0 -22 9t-9 22v1372q0 13 9 22t22 9zM481 1106v-293h150q160 0 160 141v11q0 141 -160 141h-150z" />
    <glyph glyph-name="racute" unicode="&#x155;" horiz-adv-x="763" 
d="M243 1165l157 312q12 24 41 24h262q8 0 11.5 -6.5t-0.5 -13.5l-217 -314q-13 -20 -37 -20h-207q-8 0 -11 5.5t1 12.5zM672 1051h8q23 0 43 -4q9 -1 14.5 -9.5t5.5 -17.5v-277q0 -17 -10 -25.5t-26 -6.5q-32 4 -82 4h-17q-100 0 -186 -35v-649q0 -13 -9 -22t-22 -9h-299
q-14 0 -22.5 9t-8.5 22v962q0 13 8.5 22t22.5 9h262q22 0 29 -23l27 -102q50 71 121 111.5t141 40.5z" />
    <glyph glyph-name="Rcommaaccent" unicode="&#x156;" horiz-adv-x="1312" 
d="M133 1434h559q105 0 191.5 -25t154 -76t105 -135.5t37.5 -196.5v-14q0 -146 -62 -250.5t-171 -161.5l138 -202l183 -336q7 -13 -0.5 -25t-22.5 -12h-358q-27 0 -39 25l-263 489h-104v-483q0 -14 -8.5 -22.5t-21.5 -8.5h-318q-13 0 -22 9t-9 22v1372q0 13 9 22t22 9z
M481 1106v-293h150q160 0 160 141v11q0 141 -160 141h-150zM501 -102h305q14 0 22.5 -9t8.5 -22v-189q0 -43 -12 -62l-133 -218q-18 -28 -43 -28h-166q-11 0 -17 8.5t0 17.5l134 218h-99q-13 0 -21.5 8.5t-8.5 22.5v222q0 14 8.5 22.5t21.5 8.5z" />
    <glyph glyph-name="rcommaaccent" unicode="&#x157;" horiz-adv-x="763" 
d="M672 1051h8q23 0 43 -4q9 -1 14.5 -9.5t5.5 -17.5v-277q0 -17 -10 -25.5t-26 -6.5q-32 4 -82 4h-17q-100 0 -186 -35v-649q0 -13 -9 -22t-22 -9h-299q-14 0 -22.5 9t-8.5 22v962q0 13 8.5 22t22.5 9h262q22 0 29 -23l27 -102q50 71 121 111.5t141 40.5zM92 -102h305
q13 0 22 -9t9 -22v-189q0 -43 -12 -62l-133 -218q-18 -28 -43 -28h-166q-11 0 -17 8.5t0 17.5l133 218h-98q-14 0 -22.5 9t-8.5 22v222q0 13 8.5 22t22.5 9z" />
    <glyph glyph-name="Rcaron" unicode="&#x158;" horiz-adv-x="1312" 
d="M709 1911h229q8 0 11.5 -6.5t-0.5 -14.5l-217 -313q-14 -21 -37 -21h-174q-23 0 -37 21l-217 313q-4 8 -1 14.5t11 6.5h229q28 0 41 -25l61 -119l60 119q12 25 41 25zM133 1434h559q105 0 191.5 -25t154 -76t105 -135.5t37.5 -196.5v-14q0 -146 -62 -250.5t-171 -161.5
l138 -202l183 -336q7 -13 -0.5 -25t-22.5 -12h-358q-27 0 -39 25l-263 489h-104v-483q0 -14 -8.5 -22.5t-21.5 -8.5h-318q-13 0 -22 9t-9 22v1372q0 13 9 22t22 9zM481 1106v-293h150q160 0 160 141v11q0 141 -160 141h-150z" />
    <glyph glyph-name="rcaron" unicode="&#x159;" horiz-adv-x="763" 
d="M484 1501h230q8 0 11 -6.5t-1 -13.5l-217 -314q-13 -20 -37 -20h-174q-24 0 -37 20l-217 314q-4 7 -1 13.5t11 6.5h230q29 0 41 -24l60 -120l60 120q12 24 41 24zM672 1051h8q23 0 43 -4q9 -1 14.5 -9.5t5.5 -17.5v-277q0 -17 -10 -25.5t-26 -6.5q-32 4 -82 4h-17
q-100 0 -186 -35v-649q0 -13 -9 -22t-22 -9h-299q-14 0 -22.5 9t-8.5 22v962q0 13 8.5 22t22.5 9h262q22 0 29 -23l27 -102q50 71 121 111.5t141 40.5z" />
    <glyph glyph-name="Sacute" unicode="&#x15a;" horiz-adv-x="1120" 
d="M462 1575l157 311q13 25 41 25h262q8 0 11.5 -6.5t-0.5 -14.5l-217 -313q-14 -21 -37 -21h-207q-8 0 -11 6t1 13zM451 551l67 -23q86 -29 119 -52t33 -66v-7q0 -50 -41.5 -77t-120.5 -27h-8q-75 0 -141 15.5t-232 70.5q-16 6 -26.5 -2t-10.5 -21v-270q0 -34 29 -47
q48 -21 174 -46.5t231 -25.5h15q105 0 197 27.5t165 80.5t115.5 140t42.5 197v16q0 179 -98 283.5t-306 173.5l-73 24q-76 26 -106 47.5t-30 61.5v6q0 50 39 77.5t105 27.5h8q70 0 135 -14.5t185 -51.5q14 -5 25 2.5t11 20.5v270q0 21 -5 31t-23 16q-38 14 -145 32.5
t-206 18.5h-12q-98 0 -186.5 -28t-160 -81.5t-113.5 -140t-42 -194.5v-23q0 -166 100 -272.5t290 -169.5z" />
    <glyph glyph-name="sacute" unicode="&#x15b;" horiz-adv-x="894" 
d="M334 1165l157 312q12 24 41 24h263q8 0 11 -6.5t-1 -13.5l-217 -314q-13 -20 -37 -20h-207q-8 0 -11 5.5t1 12.5zM451 1051h20q78 0 159 -13t118 -28q24 -9 24 -41v-211q0 -13 -9.5 -20.5t-21.5 -2.5q-64 25 -94 36t-68.5 19.5t-72.5 8.5h-2q-43 0 -68.5 -14t-25.5 -40
v-4q0 -6 1 -11t2 -9t4.5 -7.5t5 -6t7 -5.5t7.5 -4.5t9.5 -4t9.5 -3.5t11 -4l12 -4l74 -25q72 -24 120.5 -49.5t90 -64.5t61 -94.5t19.5 -131.5v-14q0 -154 -123.5 -242t-308.5 -88h-13q-72 0 -169 14t-134 31q-24 9 -24 41v211q0 14 9 20.5t21 2.5q69 -25 103.5 -37
t79 -21.5t82.5 -9.5h10q106 0 106 58v4q0 18 -9.5 29t-21.5 16t-40 14l-74 25q-39 13 -69 25.5t-65 32.5t-60.5 45t-47.5 57.5t-33.5 76.5t-11.5 97v10q0 83 35 149t93 105.5t127.5 60.5t144.5 21z" />
    <glyph glyph-name="Scedilla" unicode="&#x15e;" horiz-adv-x="1120" 
d="M582 915l73 -24q208 -69 306 -173.5t98 -283.5v-16q0 -102 -36 -183.5t-99 -135t-144 -84.5t-176 -39l-13 -65q1 0 6.5 0.5t7.5 0.5q72 0 118 -44.5t46 -119.5q0 -88 -63.5 -138t-171.5 -50q-91 0 -152 32q-29 16 -29 43v66q0 6 5.5 9t11.5 1q2 0 22.5 -6.5t48 -12
t52.5 -5.5q69 0 69 43q0 41 -57 41q-25 0 -68 -15q-8 -3 -16 0l-10 4q-8 3 -12 10.5t-3 14.5l41 193q-93 9 -187 30t-131 37q-29 13 -29 47v270q0 13 10.5 21t26.5 2q166 -55 232 -70.5t141 -15.5h8q79 0 120.5 27t41.5 77v7q0 43 -33 66t-119 52l-67 23q-190 63 -290 169.5
t-100 272.5v23q0 108 42 194.5t113.5 140t160 81.5t186.5 28h12q99 0 206 -18.5t145 -32.5q18 -6 23 -16t5 -31v-270q0 -13 -11 -20.5t-25 -2.5q-120 37 -185 51.5t-135 14.5h-8q-66 0 -105 -27.5t-39 -77.5v-6q0 -40 30 -61.5t106 -47.5z" />
    <glyph glyph-name="scedilla" unicode="&#x15f;" horiz-adv-x="894" 
d="M479 682l74 -25q72 -24 120.5 -49.5t90 -64.5t61 -94.5t19.5 -131.5v-14q0 -136 -98.5 -221t-253.5 -104l-14 -67q1 0 7 0.5t8 0.5q72 0 117.5 -44.5t45.5 -119.5q0 -88 -63.5 -138t-171.5 -50q-91 0 -152 32q-28 16 -28 43v66q0 6 5 9t11 1q2 0 22.5 -6.5t48 -12
t52.5 -5.5q70 0 70 43q0 41 -58 41q-24 0 -67 -15q-9 -3 -17 0l-10 4q-18 7 -14 25l40 192q-164 13 -228 41q-24 9 -24 41v211q0 14 9 20.5t21 2.5q69 -25 103.5 -37t79 -21.5t82.5 -9.5h10q106 0 106 58v4q0 18 -9.5 29t-21.5 16t-40 14l-74 25q-39 13 -69 25.5t-65 32.5
t-60.5 45t-47.5 57.5t-33.5 76.5t-11.5 97v10q0 83 35 149t93 105.5t127.5 60.5t144.5 21h20q78 0 159 -13t118 -28q24 -9 24 -41v-211q0 -13 -9.5 -20.5t-21.5 -2.5q-64 25 -94 36t-68.5 19.5t-72.5 8.5h-2q-43 0 -68.5 -14t-25.5 -40v-4q0 -6 1 -11t2 -9t4.5 -7.5t5 -6
t7 -5.5t7.5 -4.5t9.5 -4t9.5 -3.5t11 -4z" />
    <glyph glyph-name="Scaron" unicode="&#x160;" horiz-adv-x="1120" 
d="M663 1911h229q8 0 11 -6.5t-1 -14.5l-217 -313q-14 -21 -37 -21h-174q-23 0 -37 21l-217 313q-4 8 -1 14.5t11 6.5h230q28 0 41 -25l60 -119l61 119q12 25 41 25zM451 551l67 -23q86 -29 119 -52t33 -66v-7q0 -50 -41.5 -77t-120.5 -27h-8q-75 0 -141 15.5t-232 70.5
q-16 6 -26.5 -2t-10.5 -21v-270q0 -34 29 -47q48 -21 174 -46.5t231 -25.5h15q105 0 197 27.5t165 80.5t115.5 140t42.5 197v16q0 179 -98 283.5t-306 173.5l-73 24q-76 26 -106 47.5t-30 61.5v6q0 50 39 77.5t105 27.5h8q70 0 135 -14.5t185 -51.5q14 -5 25 2.5t11 20.5
v270q0 21 -5 31t-23 16q-38 14 -145 32.5t-206 18.5h-12q-98 0 -186.5 -28t-160 -81.5t-113.5 -140t-42 -194.5v-23q0 -166 100 -272.5t290 -169.5z" />
    <glyph glyph-name="scaron" unicode="&#x161;" horiz-adv-x="894" 
d="M550 1501h229q8 0 11.5 -6.5t-0.5 -13.5l-218 -314q-13 -20 -36 -20h-175q-23 0 -36 20l-217 314q-4 7 -1 13.5t11 6.5h229q29 0 41 -24l61 -120l60 120q12 24 41 24zM451 1051h20q78 0 159 -13t118 -28q24 -9 24 -41v-211q0 -13 -9.5 -20.5t-21.5 -2.5q-64 25 -94 36
t-68.5 19.5t-72.5 8.5h-2q-43 0 -68.5 -14t-25.5 -40v-4q0 -6 1 -11t2 -9t4.5 -7.5t5 -6t7 -5.5t7.5 -4.5t9.5 -4t9.5 -3.5t11 -4l12 -4l74 -25q72 -24 120.5 -49.5t90 -64.5t61 -94.5t19.5 -131.5v-14q0 -154 -123.5 -242t-308.5 -88h-13q-72 0 -169 14t-134 31
q-24 9 -24 41v211q0 14 9 20.5t21 2.5q69 -25 103.5 -37t79 -21.5t82.5 -9.5h10q106 0 106 58v4q0 18 -9.5 29t-21.5 16t-40 14l-74 25q-39 13 -69 25.5t-65 32.5t-60.5 45t-47.5 57.5t-33.5 76.5t-11.5 97v10q0 83 35 149t93 105.5t127.5 60.5t144.5 21z" />
    <glyph glyph-name="Tcedilla" unicode="&#x162;" horiz-adv-x="1210" 
d="M72 1434h1067q13 0 21.5 -8.5t8.5 -22.5v-266q0 -14 -8.5 -22.5t-21.5 -8.5h-344v-1075q0 -13 -8.5 -22t-22.5 -9h-110l-18 -89q1 0 6.5 0.5t7.5 0.5q72 0 118 -44.5t46 -119.5q0 -88 -63.5 -138t-171.5 -50q-91 0 -152 32q-29 16 -29 43v66q0 6 5.5 9t11.5 1
q2 0 22.5 -6.5t48 -12t52.5 -5.5q69 0 69 43q0 41 -57 41q-24 0 -68 -15q-8 -3 -16 0l-10 4q-8 3 -12 10.5t-3 14.5l45 215h-40q-13 0 -21.5 8.5t-8.5 22.5v1075h-344q-14 0 -22.5 9t-8.5 22v266q0 13 8.5 22t22.5 9z" />
    <glyph glyph-name="tcedilla" unicode="&#x163;" horiz-adv-x="772" 
d="M514 748v-400q0 -88 70 -88h10q19 0 127 31q12 3 21.5 -4t9.5 -19v-205q0 -21 -21 -32q-126 -58 -223 -58h-3l-13 -62q1 0 6.5 0.5t7.5 0.5q72 0 118 -44.5t46 -119.5q0 -88 -63.5 -138t-171.5 -50q-91 0 -152 32q-29 16 -29 43v66q0 6 5.5 9t11.5 1q2 0 22.5 -6.5
t48 -12t52.5 -5.5q69 0 69 43q0 41 -57 41q-24 0 -68 -15q-8 -3 -16 0l-10 4q-8 3 -12 10.5t-3 14.5l45 211q-90 32 -139 106t-49 177v468h-103q-13 0 -22 8.5t-9 22.5v181q0 8 5 14.5t10 9.5t16 7l103 34v174q0 41 36 47l283 66q17 5 29 -4.5t12 -28.5v-254h207q13 0 22 -9
t9 -22v-215q0 -13 -8.5 -21.5t-22.5 -8.5h-207z" />
    <glyph glyph-name="Tcaron" unicode="&#x164;" horiz-adv-x="1210" 
d="M708 1911h229q8 0 11 -6.5t-1 -14.5l-217 -313q-14 -21 -37 -21h-174q-23 0 -37 21l-217 313q-4 8 -1 14.5t11 6.5h230q29 0 41 -25l60 -119l61 119q13 25 41 25zM72 1434h1067q13 0 21.5 -8.5t8.5 -22.5v-266q0 -14 -8.5 -22.5t-21.5 -8.5h-344v-1075q0 -13 -8.5 -22
t-22.5 -9h-318q-13 0 -21.5 8.5t-8.5 22.5v1075h-344q-14 0 -22.5 9t-8.5 22v266q0 13 8.5 22t22.5 9z" />
    <glyph glyph-name="tcaron" unicode="&#x165;" horiz-adv-x="1228" 
d="M873 1509h306q13 0 21.5 -8.5t8.5 -21.5v-189q0 -43 -12 -62l-133 -218q-19 -29 -43 -29h-166q-11 0 -16.5 8.5t0.5 18.5l133 218h-99q-13 0 -21.5 8.5t-8.5 22.5v222q0 13 8.5 21.5t21.5 8.5zM190 1245l283 66q17 5 29 -4.5t12 -28.5v-254h207q13 0 22 -9t9 -22v-215
q0 -14 -9 -22.5t-22 -8.5h-207v-399q0 -88 70 -88h10q19 0 127 31q12 3 21.5 -4t9.5 -19v-205q0 -21 -21 -32q-126 -58 -223 -58h-23q-155 0 -243 82.5t-88 223.5v468h-103q-13 0 -22 8.5t-9 22.5v181q0 8 5 14.5t10 9.5t16 7l103 34v174q0 41 36 47z" />
    <glyph glyph-name="Tbar" unicode="&#x166;" horiz-adv-x="1210" 
d="M72 1434h1067q13 0 21.5 -8.5t8.5 -22.5v-266q0 -14 -8.5 -22.5t-21.5 -8.5h-344v-195h153q14 0 22.5 -8.5t8.5 -21.5v-191q0 -13 -8.5 -21.5t-22.5 -8.5h-153v-629q0 -13 -8.5 -22t-22.5 -9h-318q-13 0 -21.5 8.5t-8.5 22.5v629h-154q-14 0 -22.5 8.5t-8.5 21.5v191
q0 13 8.5 21.5t22.5 8.5h154v195h-344q-14 0 -22.5 9t-8.5 22v266q0 13 8.5 22t22.5 9z" />
    <glyph glyph-name="tbar" unicode="&#x167;" horiz-adv-x="772" 
d="M514 748v-105h207q14 0 22.5 -8.5t8.5 -21.5v-191q0 -14 -9 -22.5t-22 -8.5l-207 1v-44q0 -88 70 -88h10q19 0 127 31q12 3 21.5 -4t9.5 -19v-205q0 -21 -21 -32q-126 -58 -223 -58h-23q-155 0 -243 82.5t-88 223.5v114l-103 1q-14 0 -22.5 8.5t-8.5 21.5v189
q0 13 8.5 21.5t22.5 8.5h103v104h-103q-13 0 -22 8.5t-9 22.5v181q0 8 5 14.5t10 9.5t16 7l103 34v174q0 41 36 47l283 66q17 5 29 -4.5t12 -28.5v-254h207q13 0 22 -9t9 -22v-215q0 -13 -8.5 -21.5t-22.5 -8.5h-207z" />
    <glyph glyph-name="Umacron" unicode="&#x16a;" horiz-adv-x="1345" 
d="M439 1808h469q14 0 22.5 -8.5t8.5 -21.5v-191q0 -13 -8.5 -22t-22.5 -9l-469 3q-13 0 -21.5 8.5t-8.5 21.5v189q0 14 8.5 22t21.5 8zM889 1434h328q13 0 21.5 -8.5t8.5 -22.5v-862q0 -118 -30 -213.5t-81.5 -161t-123 -109.5t-152 -64t-170.5 -20h-31q-90 0 -170.5 20
t-152 64t-123 109.5t-81.5 161t-30 213.5v862q0 13 9 22t22 9h328q13 0 22 -9t9 -22v-879q0 -223 176 -223h14q176 0 176 223v879q0 13 9 22t22 9z" />
    <glyph glyph-name="umacron" unicode="&#x16b;" 
d="M296 1399h469q13 0 22 -8.5t9 -22.5v-190q0 -14 -9 -22.5t-22 -8.5l-469 2q-14 0 -22.5 8.5t-8.5 22.5v188q0 14 8.5 22.5t22.5 8.5zM674 1024h299q13 0 22 -9t9 -22v-962q0 -13 -9 -22t-22 -9h-262q-22 0 -29 23l-20 77q-79 -69 -144.5 -98t-134.5 -29h-27
q-136 0 -217.5 84.5t-81.5 235.5v700q0 13 8.5 22t22.5 9h299q13 0 22 -9t9 -22v-618q0 -61 21 -88t67 -27h10q55 0 127 35v698q0 13 8.5 22t22.5 9z" />
    <glyph glyph-name="Uring" unicode="&#x16e;" horiz-adv-x="1345" 
d="M675 1935q86 0 147.5 -61.5t61.5 -147.5q0 -88 -61 -149t-148 -61q-88 0 -149.5 61t-61.5 149q0 86 61.5 147.5t149.5 61.5zM675 1778q-22 0 -37.5 -15t-15.5 -37t15.5 -37.5t37.5 -15.5t36.5 15.5t14.5 37.5t-14.5 37t-36.5 15zM889 1434h328q13 0 21.5 -8.5t8.5 -22.5
v-862q0 -118 -30 -213.5t-81.5 -161t-123 -109.5t-152 -64t-170.5 -20h-31q-90 0 -170.5 20t-152 64t-123 109.5t-81.5 161t-30 213.5v862q0 13 9 22t22 9h328q13 0 22 -9t9 -22v-879q0 -223 176 -223h14q176 0 176 223v879q0 13 9 22t22 9z" />
    <glyph glyph-name="uring" unicode="&#x16f;" 
d="M531 1526q86 0 147.5 -61.5t61.5 -147.5q0 -88 -61.5 -149.5t-147.5 -61.5q-88 0 -149 61.5t-61 149.5q0 87 61.5 148t148.5 61zM531 1368q-22 0 -37.5 -14.5t-15.5 -36.5t15.5 -37.5t37.5 -15.5t37 15.5t15 37.5t-15 36.5t-37 14.5zM674 1024h299q13 0 22 -9t9 -22v-962
q0 -13 -9 -22t-22 -9h-262q-22 0 -29 23l-20 77q-79 -69 -144.5 -98t-134.5 -29h-27q-136 0 -217.5 84.5t-81.5 235.5v700q0 13 8.5 22t22.5 9h299q13 0 22 -9t9 -22v-618q0 -61 21 -88t67 -27h10q55 0 127 35v698q0 13 8.5 22t22.5 9z" />
    <glyph glyph-name="Uhungarumlaut" unicode="&#x170;" horiz-adv-x="1345" 
d="M407 1575l157 311q12 25 41 25h230q8 0 11 -6.5t-1 -14.5l-217 -313q-14 -21 -37 -21h-174q-8 0 -11 6t1 13zM757 1575l158 311q13 25 40 25h230q8 0 11 -6.5t-1 -14.5l-217 -313q-14 -21 -37 -21h-174q-8 0 -11 6t1 13zM889 1434h328q13 0 21.5 -8.5t8.5 -22.5v-862
q0 -118 -30 -213.5t-81.5 -161t-123 -109.5t-152 -64t-170.5 -20h-31q-90 0 -170.5 20t-152 64t-123 109.5t-81.5 161t-30 213.5v862q0 13 9 22t22 9h328q13 0 22 -9t9 -22v-879q0 -223 176 -223h14q176 0 176 223v879q0 13 9 22t22 9z" />
    <glyph glyph-name="uhungarumlaut" unicode="&#x171;" 
d="M262 1165l157 312q12 24 41 24h230q8 0 11 -6.5t-1 -13.5l-217 -314q-13 -20 -37 -20h-174q-8 0 -11 5.5t1 12.5zM612 1165l158 312q12 24 40 24h230q8 0 11 -6.5t-1 -13.5l-217 -314q-13 -20 -37 -20h-174q-8 0 -11 5.5t1 12.5zM674 1024h299q13 0 22 -9t9 -22v-962
q0 -13 -9 -22t-22 -9h-262q-22 0 -29 23l-20 77q-79 -69 -144.5 -98t-134.5 -29h-27q-136 0 -217.5 84.5t-81.5 235.5v700q0 13 8.5 22t22.5 9h299q13 0 22 -9t9 -22v-618q0 -61 21 -88t67 -27h10q55 0 127 35v698q0 13 8.5 22t22.5 9z" />
    <glyph glyph-name="Uogonek" unicode="&#x172;" horiz-adv-x="1345" 
d="M889 1434h328q13 0 21.5 -8.5t8.5 -22.5v-862q0 -231 -107 -368t-284 -180q-6 -7 -35.5 -36.5t-42.5 -45.5t-27.5 -44t-14.5 -53q0 -34 21 -54t55 -20q15 0 35 4q6 2 11 -1t5 -9v-111q0 -28 -29 -41q-46 -22 -110 -22q-83 0 -141 46t-58 134q0 123 114 234
q-110 3 -204.5 37t-170 100.5t-119 176.5t-43.5 253v862q0 13 9 22t22 9h328q13 0 22 -9t9 -22v-879q0 -223 176 -223h14q176 0 176 223v879q0 13 9 22t22 9z" />
    <glyph glyph-name="uogonek" unicode="&#x173;" 
d="M674 1024h299q13 0 22 -9t9 -22v-962q0 -13 -9 -22t-22 -9q-9 -11 -36.5 -38t-44 -45.5t-31.5 -47t-15 -55.5q0 -34 21 -54t55 -20q14 0 34 4q6 2 11.5 -1t5.5 -9v-111q0 -28 -29 -41q-46 -22 -110 -22q-83 0 -141 46t-58 134q0 139 143 260h-67q-22 0 -29 23l-20 77
q-79 -69 -144.5 -98t-134.5 -29h-27q-136 0 -217.5 84.5t-81.5 235.5v700q0 13 8.5 22t22.5 9h299q13 0 22 -9t9 -22v-618q0 -61 21 -88t67 -27h10q55 0 127 35v698q0 13 8.5 22t22.5 9z" />
    <glyph glyph-name="Wcircumflex" unicode="&#x174;" horiz-adv-x="2119" 
d="M1185 1890l217 -313q4 -7 1 -14t-11 -7h-230q-28 0 -41 25l-60 119l-61 -119q-12 -25 -41 -25h-229q-8 0 -11 7t1 14l217 313q14 21 37 21h174q23 0 37 -21zM1722 1434h323q18 0 27.5 -12t5.5 -29l-324 -1370q-7 -23 -28 -23h-455q-22 0 -29 23l-110 471l-62 456h-20
l-62 -456l-110 -471q-7 -23 -29 -23h-454q-22 0 -29 23l-324 1370q-4 17 5.5 29t27.5 12h324q21 0 28 -23l164 -694l39 -385h16l39 385l164 694q7 23 29 23h364q22 0 29 -23l164 -694l39 -385h16l39 385l164 694q7 23 29 23z" />
    <glyph glyph-name="wcircumflex" unicode="&#x175;" horiz-adv-x="1720" 
d="M984 1481l217 -314q4 -7 1 -13.5t-11 -6.5h-229q-29 0 -41 24l-61 120l-60 -120q-12 -24 -41 -24h-230q-8 0 -11 6.5t1 13.5l217 314q13 20 37 20h174q24 0 37 -20zM1356 1024h309q19 0 29 -13t4 -32l-281 -959q-7 -20 -26 -20h-351q-19 0 -26 20l-82 281l-62 356h-20
l-61 -356l-82 -281q-7 -20 -27 -20h-350q-20 0 -27 20l-280 959q-6 19 3.5 32t28.5 13h310q19 0 26 -20l103 -404l28 -281h13l28 281l103 404q7 20 26 20h336q20 0 27 -20l102 -404l29 -281h12l29 281l102 404q7 20 27 20z" />
    <glyph glyph-name="Ycircumflex" unicode="&#x176;" horiz-adv-x="1296" 
d="M771 1890l217 -313q4 -7 1 -14t-11 -7h-229q-29 0 -41 25l-61 119l-60 -119q-13 -25 -41 -25h-230q-8 0 -11 7t1 14l217 313q14 21 37 21h174q23 0 37 -21zM900 1434h318q22 0 32 -16t2 -36l-413 -917v-434q0 -13 -8.5 -22t-22.5 -9h-320q-13 0 -21.5 8.5t-8.5 22.5v434
l-414 917q-8 20 2.5 36t32.5 16h317q30 0 43 -27l160 -354l45 -244h8l45 244l160 354q13 27 43 27z" />
    <glyph glyph-name="ycircumflex" unicode="&#x177;" horiz-adv-x="1093" 
d="M671 1481l217 -314q4 -7 1 -13.5t-11 -6.5h-230q-29 0 -41 24l-60 120l-61 -120q-12 -24 -41 -24h-229q-8 0 -11 6.5t1 13.5l217 314q13 20 37 20h174q24 0 37 -20zM735 1024h303q19 0 29 -13t4 -32l-317 -1008q-18 -57 -39.5 -104t-55.5 -92t-75.5 -76t-99 -49.5
t-126.5 -18.5h-16q-61 0 -128.5 13.5t-86.5 21.5q-20 7 -20 33v221q0 12 9 19t21 4q105 -31 158 -31h4q71 0 90 61l8 27h-47q-19 0 -26 20l-301 959q-6 19 3.5 32t28.5 13h303q20 0 27 -20l98 -330l62 -375h4l61 375l99 330q7 20 26 20z" />
    <glyph glyph-name="Ydieresis" unicode="&#x178;" horiz-adv-x="1296" 
d="M325 1911h245q14 0 22.5 -8.5t8.5 -22.5v-293q0 -13 -8.5 -22t-22.5 -9h-245q-13 0 -22 9t-9 22v293q0 14 9 22.5t22 8.5zM724 1911h246q13 0 21.5 -8.5t8.5 -22.5v-293q0 -14 -8.5 -22.5t-21.5 -8.5h-246q-14 0 -22.5 9t-8.5 22v293q0 14 8.5 22.5t22.5 8.5zM900 1434
h318q22 0 32 -16t2 -36l-413 -917v-434q0 -13 -8.5 -22t-22.5 -9h-320q-13 0 -21.5 8.5t-8.5 22.5v434l-414 917q-8 20 2.5 36t32.5 16h317q30 0 43 -27l160 -354l45 -244h8l45 244l160 354q13 27 43 27z" />
    <glyph glyph-name="Zacute" unicode="&#x179;" horiz-adv-x="1118" 
d="M452 1575l157 311q13 25 41 25h262q8 0 11.5 -6.5t-0.5 -14.5l-217 -313q-14 -21 -37 -21h-207q-8 0 -11 6t1 13zM528 328h498q14 0 22.5 -9t8.5 -22v-266q0 -13 -8.5 -22t-22.5 -9h-934q-14 0 -22.5 9t-8.5 22v233q0 22 13 41l504 801h-463q-13 0 -22 9t-9 22v266
q0 13 9 22t22 9h899q13 0 21.5 -8.5t8.5 -22.5v-234q0 -23 -12 -41z" />
    <glyph glyph-name="zacute" unicode="&#x17a;" horiz-adv-x="888" 
d="M324 1165l157 312q12 24 41 24h263q8 0 11 -6.5t-1 -13.5l-217 -314q-13 -20 -37 -20h-207q-8 0 -11 5.5t1 12.5zM477 287h340q13 0 22 -8.5t9 -22.5v-225q0 -13 -9 -22t-22 -9h-745q-14 0 -22.5 9t-8.5 22v192q0 20 14 41l346 473h-309q-14 0 -22.5 8.5t-8.5 22.5v225
q0 13 8.5 22t22.5 9h715q13 0 22 -9t9 -22v-192q0 -19 -15 -41z" />
    <glyph glyph-name="Zdotaccent" unicode="&#x17b;" horiz-adv-x="1118" 
d="M410 1911h299q13 0 21.5 -8.5t8.5 -22.5v-293q0 -14 -8.5 -22.5t-21.5 -8.5h-299q-14 0 -22.5 9t-8.5 22v293q0 14 8.5 22.5t22.5 8.5zM528 328h498q14 0 22.5 -9t8.5 -22v-266q0 -13 -8.5 -22t-22.5 -9h-934q-14 0 -22.5 9t-8.5 22v233q0 22 13 41l504 801h-463
q-13 0 -22 9t-9 22v266q0 13 9 22t22 9h899q13 0 21.5 -8.5t8.5 -22.5v-234q0 -23 -12 -41z" />
    <glyph glyph-name="zdotaccent" unicode="&#x17c;" horiz-adv-x="888" 
d="M295 1501h299q14 0 22.5 -8.5t8.5 -22.5v-292q0 -14 -8.5 -22.5t-22.5 -8.5h-299q-13 0 -22 8.5t-9 22.5v292q0 14 9 22.5t22 8.5zM477 287h340q13 0 22 -8.5t9 -22.5v-225q0 -13 -9 -22t-22 -9h-745q-14 0 -22.5 9t-8.5 22v192q0 20 14 41l346 473h-309q-14 0 -22.5 8.5
t-8.5 22.5v225q0 13 8.5 22t22.5 9h715q13 0 22 -9t9 -22v-192q0 -19 -15 -41z" />
    <glyph glyph-name="Zcaron" unicode="&#x17d;" horiz-adv-x="1118" 
d="M660 1911h230q8 0 11 -6.5t-1 -14.5l-217 -313q-14 -21 -37 -21h-174q-23 0 -37 21l-217 313q-4 8 -1 14.5t11 6.5h230q28 0 41 -25l60 -119l61 119q12 25 40 25zM528 328h498q14 0 22.5 -9t8.5 -22v-266q0 -13 -8.5 -22t-22.5 -9h-934q-14 0 -22.5 9t-8.5 22v233
q0 22 13 41l504 801h-463q-13 0 -22 9t-9 22v266q0 13 9 22t22 9h899q13 0 21.5 -8.5t8.5 -22.5v-234q0 -23 -12 -41z" />
    <glyph glyph-name="zcaron" unicode="&#x17e;" horiz-adv-x="888" 
d="M546 1501h229q8 0 11 -6.5t-1 -13.5l-217 -314q-13 -20 -37 -20h-174q-23 0 -36 20l-218 314q-4 7 -0.5 13.5t11.5 6.5h229q29 0 41 -24l60 -120l61 120q12 24 41 24zM477 287h340q13 0 22 -8.5t9 -22.5v-225q0 -13 -9 -22t-22 -9h-745q-14 0 -22.5 9t-8.5 22v192
q0 20 14 41l346 473h-309q-14 0 -22.5 8.5t-8.5 22.5v225q0 13 8.5 22t22.5 9h715q13 0 22 -9t9 -22v-192q0 -19 -15 -41z" />
    <glyph glyph-name="Acaron" unicode="&#x1cd;" horiz-adv-x="1361" 
d="M781 1911h230q8 0 11 -6.5t-1 -14.5l-217 -313q-14 -21 -37 -21h-174q-23 0 -37 21l-217 313q-4 8 -1 14.5t11 6.5h230q29 0 41 -25l60 -119l60 119q12 25 41 25zM427 1434h508q23 0 30 -31l355 -1372q3 -13 -7 -22t-24 -9h-324q-23 0 -30 31l-66 270h-377l-65 -270
q-7 -31 -31 -31h-324q-14 0 -23.5 9t-6.5 22l354 1372q7 31 31 31zM672 1133l-67 -367l-33 -137h218l-34 137l-67 367h-17z" />
    <glyph glyph-name="acaron" unicode="&#x1ce;" horiz-adv-x="1009" 
d="M607 1501h230q8 0 11 -6.5t-1 -13.5l-217 -314q-13 -20 -37 -20h-174q-24 0 -37 20l-217 314q-4 7 -1 13.5t11 6.5h229q29 0 41 -24l61 -120l60 120q12 24 41 24zM528 1051h9q67 0 123.5 -9.5t111.5 -36t93 -69.5t62 -113.5t25 -163.5v-628q0 -14 -8.5 -22.5t-21.5 -8.5
h-263q-21 0 -28 23l-20 77q-144 -127 -279 -127h-10q-70 0 -125 25t-88.5 66.5t-50.5 92.5t-17 107v25q0 150 101.5 232t322.5 100l127 10v14q0 75 -33 100t-108 25h-5q-30 0 -68 -6t-64.5 -12t-81 -19.5t-80.5 -19.5q-12 -3 -21.5 3t-9.5 19v217q0 35 24 41q218 58 383 58z
M592 426h-70q-119 0 -119 -90v-6q0 -37 22.5 -60.5t57.5 -23.5h11q40 0 98 38v142z" />
    <glyph glyph-name="Icaron" unicode="&#x1cf;" horiz-adv-x="583" 
d="M394 1911h230q8 0 11 -6.5t-1 -14.5l-217 -313q-14 -21 -37 -21h-174q-23 0 -37 21l-217 313q-4 8 -1 14.5t11 6.5h229q29 0 41 -25l61 -119l60 119q13 25 41 25zM133 1434h318q13 0 21.5 -8.5t8.5 -22.5v-1372q0 -14 -8.5 -22.5t-21.5 -8.5h-318q-13 0 -22 9t-9 22v1372
q0 13 9 22t22 9z" />
    <glyph glyph-name="icaron" unicode="&#x1d0;" horiz-adv-x="487" 
d="M349 1501h229q8 0 11 -6.5t-1 -13.5l-217 -314q-13 -20 -36 -20h-175q-23 0 -36 20l-217 314q-4 7 -1 13.5t11 6.5h229q29 0 41 -24l61 -120l60 120q12 24 41 24zM96 1024h299q13 0 22 -9t9 -22v-962q0 -13 -9 -22t-22 -9h-299q-13 0 -21.5 8.5t-8.5 22.5v962
q0 14 8.5 22.5t21.5 8.5z" />
    <glyph glyph-name="Ocaron" unicode="&#x1d1;" horiz-adv-x="1386" 
d="M796 1911h229q8 0 11 -6.5t-1 -14.5l-217 -313q-14 -21 -37 -21h-174q-23 0 -37 21l-217 313q-4 8 -0.5 14.5t11.5 6.5h229q29 0 41 -25l60 -119l61 119q13 25 41 25zM678 1460h31q115 0 219 -39t186 -113t131 -192t49 -264v-270q0 -146 -49 -264.5t-131 -192t-186 -113
t-219 -39.5h-31q-115 0 -219 39.5t-186.5 113t-131.5 192t-49 264.5v270q0 146 49 264t131.5 192t186.5 113t219 39zM700 1133h-14q-100 0 -152.5 -65t-52.5 -179v-344q0 -116 52.5 -180t152.5 -64h14q100 0 152.5 64t52.5 180v344q0 114 -52.5 179t-152.5 65z" />
    <glyph glyph-name="ocaron" unicode="&#x1d2;" horiz-adv-x="1103" 
d="M654 1501h230q8 0 11 -6.5t-1 -13.5l-217 -314q-13 -20 -37 -20h-174q-24 0 -37 20l-217 314q-4 7 -1 13.5t11 6.5h230q29 0 41 -24l60 -120l60 120q12 24 41 24zM541 1051h22q131 0 241 -52.5t179.5 -160t69.5 -250.5v-152q0 -143 -69.5 -250.5t-179.5 -160t-241 -52.5
h-22q-131 0 -241 52.5t-179.5 160t-69.5 250.5v152q0 143 69.5 250.5t179.5 160t241 52.5zM557 764h-10q-60 0 -93.5 -41t-33.5 -119v-184q0 -78 33.5 -119t93.5 -41h10q60 0 93.5 41t33.5 119v184q0 78 -33.5 119t-93.5 41z" />
    <glyph glyph-name="Ucaron" unicode="&#x1d3;" horiz-adv-x="1345" 
d="M775 1911h230q8 0 11 -6.5t-1 -14.5l-217 -313q-14 -21 -37 -21h-174q-23 0 -37 21l-217 313q-4 8 -1 14.5t11 6.5h229q28 0 41 -25l61 -119l60 119q12 25 41 25zM889 1434h328q13 0 21.5 -8.5t8.5 -22.5v-862q0 -118 -30 -213.5t-81.5 -161t-123 -109.5t-152 -64
t-170.5 -20h-31q-90 0 -170.5 20t-152 64t-123 109.5t-81.5 161t-30 213.5v862q0 13 9 22t22 9h328q13 0 22 -9t9 -22v-879q0 -223 176 -223h14q176 0 176 223v879q0 13 9 22t22 9z" />
    <glyph glyph-name="ucaron" unicode="&#x1d4;" 
d="M632 1501h229q8 0 11 -6.5t-1 -13.5l-217 -314q-13 -20 -37 -20h-174q-23 0 -36 20l-218 314q-4 7 -0.5 13.5t11.5 6.5h229q29 0 41 -24l60 -120l61 120q12 24 41 24zM674 1024h299q13 0 22 -9t9 -22v-962q0 -13 -9 -22t-22 -9h-262q-22 0 -29 23l-20 77
q-79 -69 -144.5 -98t-134.5 -29h-27q-136 0 -217.5 84.5t-81.5 235.5v700q0 13 8.5 22t22.5 9h299q13 0 22 -9t9 -22v-618q0 -61 21 -88t67 -27h10q55 0 127 35v698q0 13 8.5 22t22.5 9z" />
    <glyph glyph-name="Udieresismacron" unicode="&#x1d5;" horiz-adv-x="1345" 
d="M439 2233h469q14 0 22.5 -8.5t8.5 -22.5v-190q0 -14 -8.5 -22.5t-22.5 -8.5l-469 1q-13 0 -21.5 8.5t-8.5 22.5v189q0 14 8.5 22.5t21.5 8.5zM351 1911h246q13 0 22 -8.5t9 -22.5v-293q0 -13 -9 -22t-22 -9h-246q-13 0 -21.5 8.5t-8.5 22.5v293q0 14 8.5 22.5t21.5 8.5z
M751 1911h245q14 0 22.5 -8.5t8.5 -22.5v-293q0 -13 -8.5 -22t-22.5 -9h-245q-13 0 -22 9t-9 22v293q0 14 9 22.5t22 8.5zM889 1434h328q13 0 21.5 -8.5t8.5 -22.5v-862q0 -118 -30 -213.5t-81.5 -161t-123 -109.5t-152 -64t-170.5 -20h-31q-90 0 -170.5 20t-152 64
t-123 109.5t-81.5 161t-30 213.5v862q0 13 9 22t22 9h328q13 0 22 -9t9 -22v-879q0 -223 176 -223h14q176 0 176 223v879q0 13 9 22t22 9z" />
    <glyph glyph-name="udieresismacron" unicode="&#x1d6;" 
d="M296 1826h469q14 0 22.5 -8.5t8.5 -21.5v-191q0 -13 -9 -22t-22 -9h-469q-14 0 -22.5 9t-8.5 22v191q0 13 8.5 21.5t22.5 8.5zM208 1501h246q13 0 21.5 -8.5t8.5 -22.5v-292q0 -14 -8.5 -22.5t-21.5 -8.5h-246q-14 0 -22.5 8.5t-8.5 22.5v292q0 14 8.5 22.5t22.5 8.5z
M607 1501h246q13 0 22 -8.5t9 -22.5v-292q0 -14 -9 -22.5t-22 -8.5h-246q-13 0 -21.5 8.5t-8.5 22.5v292q0 14 8.5 22.5t21.5 8.5zM674 1024h299q13 0 22 -9t9 -22v-962q0 -13 -9 -22t-22 -9h-262q-22 0 -29 23l-20 77q-79 -69 -144.5 -98t-134.5 -29h-27
q-136 0 -217.5 84.5t-81.5 235.5v700q0 13 8.5 22t22.5 9h299q13 0 22 -9t9 -22v-618q0 -61 21 -88t67 -27h10q55 0 127 35v698q0 13 8.5 22t22.5 9z" />
    <glyph glyph-name="Udieresisacute" unicode="&#x1d7;" horiz-adv-x="1345" 
d="M557 2000l158 312q12 24 41 24h262q8 0 11 -6t-1 -14l-217 -314q-13 -20 -37 -20h-207q-8 0 -11 5t1 13zM351 1911h246q13 0 22 -8.5t9 -22.5v-293q0 -13 -9 -22t-22 -9h-246q-13 0 -21.5 8.5t-8.5 22.5v293q0 14 8.5 22.5t21.5 8.5zM751 1911h245q14 0 22.5 -8.5
t8.5 -22.5v-293q0 -13 -8.5 -22t-22.5 -9h-245q-13 0 -22 9t-9 22v293q0 14 9 22.5t22 8.5zM889 1434h328q13 0 21.5 -8.5t8.5 -22.5v-862q0 -118 -30 -213.5t-81.5 -161t-123 -109.5t-152 -64t-170.5 -20h-31q-90 0 -170.5 20t-152 64t-123 109.5t-81.5 161t-30 213.5v862
q0 13 9 22t22 9h328q13 0 22 -9t9 -22v-879q0 -223 176 -223h14q176 0 176 223v879q0 13 9 22t22 9z" />
    <glyph glyph-name="udieresisacute" unicode="&#x1d8;" 
d="M418 1594l157 311q13 25 41 25h262q8 0 11.5 -7t-0.5 -14l-218 -313q-14 -21 -36 -21h-207q-8 0 -11 5.5t1 13.5zM208 1501h246q13 0 21.5 -8.5t8.5 -22.5v-292q0 -14 -8.5 -22.5t-21.5 -8.5h-246q-14 0 -22.5 8.5t-8.5 22.5v292q0 14 8.5 22.5t22.5 8.5zM607 1501h246
q13 0 22 -8.5t9 -22.5v-292q0 -14 -9 -22.5t-22 -8.5h-246q-13 0 -21.5 8.5t-8.5 22.5v292q0 14 8.5 22.5t21.5 8.5zM674 1024h299q13 0 22 -9t9 -22v-962q0 -13 -9 -22t-22 -9h-262q-22 0 -29 23l-20 77q-79 -69 -144.5 -98t-134.5 -29h-27q-136 0 -217.5 84.5t-81.5 235.5
v700q0 13 8.5 22t22.5 9h299q13 0 22 -9t9 -22v-618q0 -61 21 -88t67 -27h10q55 0 127 35v698q0 13 8.5 22t22.5 9z" />
    <glyph glyph-name="Udieresiscaron" unicode="&#x1d9;" horiz-adv-x="1345" 
d="M775 2336h230q8 0 11 -6t-1 -14l-217 -314q-13 -20 -37 -20h-174q-24 0 -37 20l-217 314q-4 8 -1 14t11 6h229q29 0 41 -24l61 -120l60 120q12 24 41 24zM351 1911h246q13 0 22 -8.5t9 -22.5v-293q0 -13 -9 -22t-22 -9h-246q-13 0 -21.5 8.5t-8.5 22.5v293q0 14 8.5 22.5
t21.5 8.5zM751 1911h245q14 0 22.5 -8.5t8.5 -22.5v-293q0 -13 -8.5 -22t-22.5 -9h-245q-13 0 -22 9t-9 22v293q0 14 9 22.5t22 8.5zM889 1434h328q13 0 21.5 -8.5t8.5 -22.5v-862q0 -118 -30 -213.5t-81.5 -161t-123 -109.5t-152 -64t-170.5 -20h-31q-90 0 -170.5 20
t-152 64t-123 109.5t-81.5 161t-30 213.5v862q0 13 9 22t22 9h328q13 0 22 -9t9 -22v-879q0 -223 176 -223h14q176 0 176 223v879q0 13 9 22t22 9z" />
    <glyph glyph-name="udieresiscaron" unicode="&#x1da;" 
d="M632 1930h229q8 0 11 -7t-1 -14l-217 -313q-14 -21 -37 -21h-174q-22 0 -36 21l-218 313q-4 7 -0.5 14t11.5 7h229q29 0 41 -25l60 -119l61 119q13 25 41 25zM208 1501h246q13 0 21.5 -8.5t8.5 -22.5v-292q0 -14 -8.5 -22.5t-21.5 -8.5h-246q-14 0 -22.5 8.5t-8.5 22.5
v292q0 14 8.5 22.5t22.5 8.5zM607 1501h246q13 0 22 -8.5t9 -22.5v-292q0 -14 -9 -22.5t-22 -8.5h-246q-13 0 -21.5 8.5t-8.5 22.5v292q0 14 8.5 22.5t21.5 8.5zM674 1024h299q13 0 22 -9t9 -22v-962q0 -13 -9 -22t-22 -9h-262q-22 0 -29 23l-20 77q-79 -69 -144.5 -98
t-134.5 -29h-27q-136 0 -217.5 84.5t-81.5 235.5v700q0 13 8.5 22t22.5 9h299q13 0 22 -9t9 -22v-618q0 -61 21 -88t67 -27h10q55 0 127 35v698q0 13 8.5 22t22.5 9z" />
    <glyph glyph-name="Udieresisgrave" unicode="&#x1db;" horiz-adv-x="1345" 
d="M626 2312l157 -312q4 -8 1 -13t-11 -5h-207q-24 0 -37 20l-217 314q-4 8 -0.5 14t11.5 6h262q29 0 41 -24zM351 1911h246q13 0 22 -8.5t9 -22.5v-293q0 -13 -9 -22t-22 -9h-246q-13 0 -21.5 8.5t-8.5 22.5v293q0 14 8.5 22.5t21.5 8.5zM751 1911h245q14 0 22.5 -8.5
t8.5 -22.5v-293q0 -13 -8.5 -22t-22.5 -9h-245q-13 0 -22 9t-9 22v293q0 14 9 22.5t22 8.5zM889 1434h328q13 0 21.5 -8.5t8.5 -22.5v-862q0 -118 -30 -213.5t-81.5 -161t-123 -109.5t-152 -64t-170.5 -20h-31q-90 0 -170.5 20t-152 64t-123 109.5t-81.5 161t-30 213.5v862
q0 13 9 22t22 9h328q13 0 22 -9t9 -22v-879q0 -223 176 -223h14q176 0 176 223v879q0 13 9 22t22 9z" />
    <glyph glyph-name="udieresisgrave" unicode="&#x1dc;" 
d="M485 1905l158 -311q4 -8 0.5 -13.5t-11.5 -5.5h-206q-23 0 -37 21l-217 313q-4 7 -1 14t11 7h262q28 0 41 -25zM208 1501h246q13 0 21.5 -8.5t8.5 -22.5v-292q0 -14 -8.5 -22.5t-21.5 -8.5h-246q-14 0 -22.5 8.5t-8.5 22.5v292q0 14 8.5 22.5t22.5 8.5zM607 1501h246
q13 0 22 -8.5t9 -22.5v-292q0 -14 -9 -22.5t-22 -8.5h-246q-13 0 -21.5 8.5t-8.5 22.5v292q0 14 8.5 22.5t21.5 8.5zM674 1024h299q13 0 22 -9t9 -22v-962q0 -13 -9 -22t-22 -9h-262q-22 0 -29 23l-20 77q-79 -69 -144.5 -98t-134.5 -29h-27q-136 0 -217.5 84.5t-81.5 235.5
v700q0 13 8.5 22t22.5 9h299q13 0 22 -9t9 -22v-618q0 -61 21 -88t67 -27h10q55 0 127 35v698q0 13 8.5 22t22.5 9z" />
    <glyph glyph-name="Scommaaccent" unicode="&#x218;" horiz-adv-x="1120" 
d="M451 551l67 -23q86 -29 119 -52t33 -66v-7q0 -50 -41.5 -77t-120.5 -27h-8q-75 0 -141 15.5t-232 70.5q-16 6 -26.5 -2t-10.5 -21v-270q0 -34 29 -47q48 -21 174 -46.5t231 -25.5h15q105 0 197 27.5t165 80.5t115.5 140t42.5 197v16q0 179 -98 283.5t-306 173.5l-73 24
q-76 26 -106 47.5t-30 61.5v6q0 50 39 77.5t105 27.5h8q70 0 135 -14.5t185 -51.5q14 -5 25 2.5t11 20.5v270q0 21 -5 31t-23 16q-38 14 -145 32.5t-206 18.5h-12q-98 0 -186.5 -28t-160 -81.5t-113.5 -140t-42 -194.5v-23q0 -166 100 -272.5t290 -169.5zM407 -102h305
q14 0 22.5 -9t8.5 -22v-189q0 -42 -13 -62l-133 -218q-18 -28 -43 -28h-166q-11 0 -16.5 8t0.5 18l133 218h-98q-13 0 -22 9t-9 22v222q0 13 9 22t22 9z" />
    <glyph glyph-name="scommaaccent" unicode="&#x219;" horiz-adv-x="894" 
d="M451 1051h20q78 0 159 -13t118 -28q24 -9 24 -41v-211q0 -13 -9.5 -20.5t-21.5 -2.5q-64 25 -94 36t-68.5 19.5t-72.5 8.5h-2q-43 0 -68.5 -14t-25.5 -40v-4q0 -6 1 -11t2 -9t4.5 -7.5t5 -6t7 -5.5t7.5 -4.5t9.5 -4t9.5 -3.5t11 -4l12 -4l74 -25q72 -24 120.5 -49.5
t90 -64.5t61 -94.5t19.5 -131.5v-14q0 -154 -123.5 -242t-308.5 -88h-13q-72 0 -169 14t-134 31q-24 9 -24 41v211q0 14 9 20.5t21 2.5q69 -25 103.5 -37t79 -21.5t82.5 -9.5h10q106 0 106 58v4q0 18 -9.5 29t-21.5 16t-40 14l-74 25q-39 13 -69 25.5t-65 32.5t-60.5 45
t-47.5 57.5t-33.5 76.5t-11.5 97v10q0 83 35 149t93 105.5t127.5 60.5t144.5 21zM299 -102h306q13 0 21.5 -8.5t8.5 -22.5v-189q0 -43 -12 -62l-133 -218q-18 -28 -43 -28h-166q-11 0 -16.5 8t0.5 18l133 218h-99q-13 0 -21.5 8.5t-8.5 22.5v222q0 14 8.5 22.5t21.5 8.5z
" />
    <glyph glyph-name="uni021A" unicode="&#x21a;" horiz-adv-x="1210" 
d="M72 1434h1067q13 0 21.5 -8.5t8.5 -22.5v-266q0 -14 -8.5 -22.5t-21.5 -8.5h-344v-1075q0 -13 -8.5 -22t-22.5 -9h-318q-13 0 -21.5 8.5t-8.5 22.5v1075h-344q-14 0 -22.5 9t-8.5 22v266q0 13 8.5 22t22.5 9zM455 -102h305q14 0 22.5 -9t8.5 -22v-189q0 -42 -13 -62
l-133 -218q-18 -28 -43 -28h-166q-11 0 -16.5 8t0.5 18l133 218h-98q-13 0 -22 9t-9 22v222q0 13 9 22t22 9z" />
    <glyph glyph-name="uni021B" unicode="&#x21b;" horiz-adv-x="772" 
d="M190 1245l283 66q17 5 29 -4.5t12 -28.5v-254h207q13 0 22 -9t9 -22v-215q0 -14 -9 -22.5t-22 -8.5h-207v-399q0 -88 70 -88h10q19 0 127 31q12 3 21.5 -4t9.5 -19v-205q0 -21 -21 -32q-126 -58 -223 -58h-23q-155 0 -243 82.5t-88 223.5v468h-103q-13 0 -22 8.5t-9 22.5
v181q0 8 5 14.5t10 9.5t16 7l103 34v174q0 41 36 47zM345 -102h306q13 0 21.5 -8.5t8.5 -22.5v-189q0 -43 -12 -62l-133 -218q-18 -28 -43 -28h-166q-11 0 -16.5 8t0.5 18l133 218h-99q-13 0 -21.5 8.5t-8.5 22.5v222q0 14 8.5 22.5t21.5 8.5z" />
    <glyph glyph-name="uni0243" unicode="&#x243;" horiz-adv-x="1316" 
d="M1076 741q190 -101 190 -325v-15q0 -87 -25 -155.5t-69 -114t-106.5 -75.5t-134 -43t-155.5 -13h-563q-13 0 -22 9t-9 22v352h-110q-14 0 -22.5 8.5t-8.5 22.5v84q0 13 8.5 21.5t22.5 8.5h110v875q0 13 9 22t22 9h535q489 0 489 -394v-14q0 -175 -161 -285zM561 854h162
q135 0 135 123v6q0 123 -135 123h-162v-252zM877 451v6q0 59 -33.5 92t-93.5 33h-189v-54h154q13 0 21.5 -8t8.5 -22v-84q0 -14 -8.5 -22.5t-21.5 -8.5h-154v-55h189q60 0 93.5 32.5t33.5 90.5z" />
    <glyph glyph-name="circumflex" unicode="&#x2c6;" horiz-adv-x="768" 
d="M508 1890l217 -313q4 -7 1 -14t-11 -7h-229q-28 0 -41 25l-61 119l-60 -119q-12 -25 -41 -25h-229q-8 0 -11.5 7t0.5 14l217 313q14 21 37 21h174q23 0 37 -21z" />
    <glyph glyph-name="caron" unicode="&#x2c7;" horiz-adv-x="768" 
d="M486 1911h229q8 0 11 -6.5t-1 -14.5l-217 -313q-14 -21 -37 -21h-174q-23 0 -37 21l-217 313q-4 8 -0.5 14.5t11.5 6.5h229q29 0 41 -25l60 -119l61 119q13 25 41 25z" />
    <glyph glyph-name="breve" unicode="&#x2d8;" horiz-adv-x="667" 
d="M590 1843q15 7 26 2t11 -22v-178q0 -20 -19 -35q-34 -27 -110.5 -50.5t-163.5 -23.5t-164 23.5t-111 50.5q-18 14 -18 35v178q0 17 11 22t26 -2q75 -30 130 -43.5t126 -13.5t126 13.5t130 43.5z" />
    <glyph glyph-name="dotaccent" unicode="&#x2d9;" horiz-adv-x="442" 
d="M72 1911h299q13 0 21.5 -8.5t8.5 -22.5v-293q0 -14 -8.5 -22.5t-21.5 -8.5h-299q-14 0 -22.5 9t-8.5 22v293q0 14 8.5 22.5t22.5 8.5z" />
    <glyph glyph-name="ring" unicode="&#x2da;" horiz-adv-x="501" 
d="M252 1935q86 0 147.5 -61.5t61.5 -147.5q0 -88 -61.5 -149t-147.5 -61q-88 0 -149.5 61t-61.5 149q0 86 61.5 147.5t149.5 61.5zM252 1778q-22 0 -37.5 -15t-15.5 -37t15.5 -37.5t37.5 -15.5t36.5 15.5t14.5 37.5t-14.5 37t-36.5 15z" />
    <glyph glyph-name="ogonek" unicode="&#x2db;" horiz-adv-x="419" 
d="M184 0h195q-9 -11 -36.5 -38t-44 -45.5t-31.5 -47t-15 -55.5q0 -34 21 -54t55 -20q14 0 34 4q6 2 11.5 -1t5.5 -9v-111q0 -28 -29 -41q-46 -22 -110 -22q-83 0 -141 46t-58 134q0 139 143 260z" />
    <glyph glyph-name="tilde" unicode="&#x2dc;" horiz-adv-x="718" 
d="M554 1839h109q9 0 13 -6.5t1 -15.5q-55 -158 -106.5 -219.5t-126.5 -61.5h-9q-31 0 -56.5 12t-40 27t-36 27t-45.5 12q-10 0 -17.5 -1.5t-14.5 -6.5t-9.5 -7t-10 -10.5t-7.5 -9.5q-13 -16 -33 -16h-108q-9 0 -13.5 6.5t-1.5 15.5q55 158 107 219.5t127 61.5h8
q40 0 71.5 -19.5t56.5 -39t50 -19.5q29 0 59 35q13 16 33 16z" />
    <glyph glyph-name="hungarumlaut" unicode="&#x2dd;" horiz-adv-x="874" 
d="M43 1575l158 311q13 25 41 25h229q8 0 11.5 -6.5t-0.5 -14.5l-217 -313q-14 -21 -37 -21h-174q-8 0 -11.5 6t0.5 13zM394 1575l157 311q13 25 41 25h230q8 0 11 -6.5t-1 -14.5l-217 -313q-14 -21 -37 -21h-174q-8 0 -11 6t1 13z" />
    <glyph glyph-name="uni0326" unicode="&#x326;" horiz-adv-x="0" 
d="M79 -102h305q14 0 22.5 -9t8.5 -22v-189q0 -42 -13 -62l-133 -218q-18 -28 -43 -28h-166q-11 0 -16.5 8t0.5 18l133 218h-98q-13 0 -22 9t-9 22v222q0 13 9 22t22 9z" />
    <glyph glyph-name="uni0401" unicode="&#x401;" horiz-adv-x="1093" 
d="M239 1911h246q13 0 21.5 -8.5t8.5 -22.5v-293q0 -14 -8.5 -22.5t-21.5 -8.5h-246q-13 0 -22 9t-9 22v293q0 14 9 22.5t22 8.5zM638 1911h246q14 0 22.5 -8.5t8.5 -22.5v-293q0 -13 -8.5 -22t-22.5 -9h-246q-13 0 -21.5 8.5t-8.5 22.5v293q0 14 8.5 22.5t21.5 8.5z
M133 1434h879q13 0 21.5 -8.5t8.5 -22.5v-266q0 -14 -8.5 -22.5t-21.5 -8.5h-531v-215h469q14 0 22.5 -8.5t8.5 -22.5v-266q0 -14 -8.5 -22.5t-22.5 -8.5h-469v-235h531q13 0 21.5 -8.5t8.5 -22.5v-266q0 -14 -8.5 -22.5t-21.5 -8.5h-879q-13 0 -22 9t-9 22v1372q0 13 9 22
t22 9z" />
    <glyph glyph-name="uni0404" unicode="&#x404;" horiz-adv-x="1142" 
d="M791 1133h-9q-118 0 -195 -65t-98 -179h394q13 0 21.5 -8.5t8.5 -22.5v-266q0 -14 -8.5 -22.5t-21.5 -8.5h-397q17 -121 95.5 -190.5t200.5 -69.5h9q76 0 132 14.5t132 46.5q13 6 25 -1t12 -21v-262q0 -30 -29 -47q-37 -22 -130.5 -40t-182.5 -18h-31q-98 0 -189.5 27
t-171 82t-139 132t-93.5 184.5t-34 232.5v172q0 155 52 282t140 207.5t200 124t235 43.5h31q92 0 181.5 -18.5t131.5 -40.5q29 -15 29 -47v-260q0 -14 -12 -21.5t-25 -1.5q-84 35 -137.5 48.5t-126.5 13.5z" />
    <glyph glyph-name="uni0406" unicode="&#x406;" horiz-adv-x="583" 
d="M133 1434h318q13 0 21.5 -8.5t8.5 -22.5v-1372q0 -14 -8.5 -22.5t-21.5 -8.5h-318q-13 0 -22 9t-9 22v1372q0 13 9 22t22 9z" />
    <glyph glyph-name="uni0407" unicode="&#x407;" horiz-adv-x="583" 
d="M-30 1911h246q13 0 21.5 -8.5t8.5 -22.5v-293q0 -14 -8.5 -22.5t-21.5 -8.5h-246q-14 0 -22.5 9t-8.5 22v293q0 14 8.5 22.5t22.5 8.5zM369 1911h246q13 0 22 -8.5t9 -22.5v-293q0 -13 -9 -22t-22 -9h-246q-13 0 -21.5 8.5t-8.5 22.5v293q0 14 8.5 22.5t21.5 8.5z
M133 1434h318q13 0 21.5 -8.5t8.5 -22.5v-1372q0 -14 -8.5 -22.5t-21.5 -8.5h-318q-13 0 -22 9t-9 22v1372q0 13 9 22t22 9z" />
    <glyph glyph-name="uni040E" unicode="&#x40e;" horiz-adv-x="1368" 
d="M940 1843q15 7 26 2t11 -22v-179q0 -20 -18 -34q-34 -27 -111 -50.5t-164 -23.5t-163.5 23.5t-110.5 50.5q-19 15 -19 34v179q0 17 11 22t26 -2q75 -30 130 -43.5t126 -13.5t126 13.5t130 43.5zM971 1434h317q22 0 33 -16t2 -36l-449 -993q-50 -104 -97 -176.5
t-104.5 -129t-125 -83.5t-148.5 -27h-10q-83 0 -160 27q-18 6 -18 27v268q0 34 35 22q41 -14 67 -14h10q54 0 90.5 22.5t65.5 84.5l3 4l-437 968q-9 20 2 36t33 16h317q29 0 43 -27l195 -430l45 -244h8l45 244l194 430q13 27 44 27z" />
    <glyph glyph-name="uni0410" unicode="&#x410;" horiz-adv-x="1361" 
d="M427 1434h508q23 0 30 -31l355 -1372q3 -13 -7 -22t-24 -9h-324q-23 0 -30 31l-66 270h-377l-65 -270q-7 -31 -31 -31h-324q-14 0 -23.5 9t-6.5 22l354 1372q7 31 31 31zM672 1133l-67 -367l-33 -137h218l-34 137l-67 367h-17z" />
    <glyph glyph-name="uni0411" unicode="&#x411;" horiz-adv-x="1206" 
d="M481 907h152q522 0 522 -454v-15q0 -110 -40 -195.5t-110.5 -137.5t-160 -78.5t-193.5 -26.5h-518q-13 0 -22 9t-9 22v1372q0 13 9 22t22 9h877q13 0 21.5 -8.5t8.5 -22.5v-266q0 -14 -8.5 -22.5t-21.5 -8.5h-529v-199zM766 455v18q0 127 -170 127h-115v-272h119
q166 0 166 127z" />
    <glyph glyph-name="uni0412" unicode="&#x412;" horiz-adv-x="1236" 
d="M996 741q190 -101 190 -325v-15q0 -87 -25 -155.5t-69 -114t-106.5 -75.5t-134 -43t-155.5 -13h-563q-13 0 -22 9t-9 22v1372q0 13 9 22t22 9h535q489 0 489 -394v-14q0 -175 -161 -285zM778 977v6q0 123 -135 123h-162v-252h162q135 0 135 123zM797 451v6q0 59 -33.5 92
t-93.5 33h-189v-254h189q60 0 93.5 32.5t33.5 90.5z" />
    <glyph glyph-name="uni0413" unicode="&#x413;" horiz-adv-x="1021" 
d="M133 1434h817q14 0 22.5 -9t8.5 -22v-266q0 -13 -8.5 -22t-22.5 -9h-469v-1075q0 -14 -8.5 -22.5t-21.5 -8.5h-318q-13 0 -22 9t-9 22v1372q0 13 9 22t22 9z" />
    <glyph glyph-name="uni0414" unicode="&#x414;" horiz-adv-x="1589" 
d="M1341 328h177q13 0 21.5 -8.5t8.5 -22.5v-524q0 -14 -8.5 -22.5t-21.5 -8.5h-318q-14 0 -22.5 9t-8.5 22v227h-749v-227q0 -13 -9 -22t-22 -9h-317q-14 0 -22.5 9t-8.5 22v524q0 13 8.5 22t22.5 9h182q38 34 43 118l72 959q2 12 10 20.5t20 8.5h912q13 0 21.5 -8.5
t8.5 -22.5v-1075zM726 1106l-50 -641q-6 -72 -20 -137h307v778h-237z" />
    <glyph glyph-name="uni0415" unicode="&#x415;" horiz-adv-x="1093" 
d="M481 891h469q14 0 22.5 -8.5t8.5 -22.5v-266q0 -14 -8.5 -22.5t-22.5 -8.5h-469v-235h531q13 0 21.5 -8.5t8.5 -22.5v-266q0 -14 -8.5 -22.5t-21.5 -8.5h-879q-13 0 -22 9t-9 22v1372q0 13 9 22t22 9h879q13 0 21.5 -8.5t8.5 -22.5v-266q0 -14 -8.5 -22.5t-21.5 -8.5
h-531v-215z" />
    <glyph glyph-name="uni0416" unicode="&#x416;" horiz-adv-x="2054" 
d="M1632 729l377 -692q7 -13 -0.5 -25t-22.5 -12h-358q-26 0 -39 25l-284 528h-89v-522q0 -13 -9 -22t-22 -9h-317q-14 0 -22.5 9t-8.5 22v522h-89l-284 -528q-12 -25 -38 -25h-359q-15 0 -22 12t0 25l376 692l-354 668q-7 13 -0.5 25t21.5 12h350q26 0 39 -25l278 -528h82
v522q0 13 8.5 22t22.5 9h317q13 0 22 -9t9 -22v-522h82l279 528q13 25 38 25h351q15 0 21.5 -12t-1.5 -25z" />
    <glyph glyph-name="uni0417" unicode="&#x417;" horiz-adv-x="1062" 
d="M816 744q196 -101 196 -328v-15q0 -110 -45 -194t-123 -134t-175 -75t-210 -25h-13q-94 0 -193.5 18.5t-139.5 33.5q-18 6 -23.5 16.5t-5.5 30.5v272q0 13 11.5 20.5t25.5 2.5q94 -29 125 -38t81.5 -18.5t96.5 -9.5h10q82 0 135.5 37.5t53.5 105.5v7q0 63 -45.5 97
t-110.5 34h-186q-14 0 -22.5 8.5t-8.5 21.5v211q0 13 9 22t22 9h159q73 0 118.5 35t45.5 96v16q0 58 -46 95t-120 37h-10q-63 0 -126 -14.5t-183 -51.5q-14 -5 -25.5 2.5t-11.5 20.5v272q0 20 5.5 30.5t23.5 16.5q37 14 142.5 32.5t197.5 18.5h12q86 0 160.5 -13.5
t141.5 -44t114.5 -77t75.5 -116.5t28 -158v-13q0 -89 -44.5 -164.5t-122.5 -129.5z" />
    <glyph glyph-name="uni0418" unicode="&#x418;" horiz-adv-x="1384" 
d="M899 1434h356q13 0 22 -9t9 -22v-1372q0 -13 -9 -22t-22 -9h-317q-14 0 -22.5 9t-8.5 22v555l37 266h-29l-104 -266l-285 -561q-14 -25 -41 -25h-356q-13 0 -22 9t-9 22v1372q0 13 9 22t22 9h317q14 0 22.5 -9t8.5 -22v-555l-37 -266h29l104 266l285 561q14 25 41 25z
" />
    <glyph glyph-name="uni0419" unicode="&#x419;" horiz-adv-x="1384" 
d="M949 1843q15 7 26 2t11 -22v-178q0 -20 -19 -35q-34 -27 -110.5 -50.5t-163.5 -23.5t-164 23.5t-111 50.5q-18 14 -18 35v178q0 17 11 22t26 -2q75 -30 130 -43.5t126 -13.5t126 13.5t130 43.5zM899 1434h356q13 0 22 -9t9 -22v-1372q0 -13 -9 -22t-22 -9h-317
q-14 0 -22.5 9t-8.5 22v555l37 266h-29l-104 -266l-285 -561q-14 -25 -41 -25h-356q-13 0 -22 9t-9 22v1372q0 13 9 22t22 9h317q14 0 22.5 -9t8.5 -22v-555l-37 -266h29l104 266l285 561q14 25 41 25z" />
    <glyph glyph-name="uni041A" unicode="&#x41a;" horiz-adv-x="1318" 
d="M897 729l377 -692q7 -13 -0.5 -25t-22.5 -12h-358q-27 0 -39 25l-284 528h-89v-522q0 -14 -8.5 -22.5t-21.5 -8.5h-318q-13 0 -22 9t-9 22v1372q0 13 9 22t22 9h318q13 0 21.5 -8.5t8.5 -22.5v-522h82l279 528q12 25 39 25h350q15 0 21.5 -12t-1.5 -25z" />
    <glyph glyph-name="uni041B" unicode="&#x41b;" horiz-adv-x="1406" 
d="M367 1434h911q14 0 22.5 -9t8.5 -22v-1372q0 -13 -8.5 -22t-22.5 -9h-317q-13 0 -22 9t-9 22v1075h-237l-50 -641q-39 -492 -436 -492h-10q-61 0 -138 27q-18 6 -18 27v268q0 34 35 22q41 -14 67 -14h11q101 0 110 143l72 959q2 12 10.5 20.5t20.5 8.5z" />
    <glyph glyph-name="uni041C" unicode="&#x41c;" horiz-adv-x="1658" 
d="M1114 1434h412q13 0 21.5 -8.5t8.5 -22.5v-1372q0 -14 -8.5 -22.5t-21.5 -8.5h-328q-14 0 -22.5 9t-8.5 22l11 624l41 267h-29l-100 -267l-132 -270q-12 -25 -38 -25h-185q-27 0 -39 25l-131 270l-100 267h-29l41 -267l10 -624q0 -14 -8.5 -22.5t-21.5 -8.5h-328
q-13 0 -22 9t-9 22v1372q0 13 9 22t22 9h412q30 0 39 -25l239 -565h17l239 565q9 25 39 25z" />
    <glyph glyph-name="uni041D" unicode="&#x41d;" horiz-adv-x="1380" 
d="M930 1434h317q13 0 22 -9t9 -22v-1372q0 -13 -9 -22t-22 -9h-317q-14 0 -22.5 9t-8.5 22v532h-418v-532q0 -14 -8.5 -22.5t-21.5 -8.5h-318q-13 0 -22 9t-9 22v1372q0 13 9 22t22 9h318q13 0 21.5 -8.5t8.5 -22.5v-512h418v512q0 13 8.5 22t22.5 9z" />
    <glyph glyph-name="uni041E" unicode="&#x41e;" horiz-adv-x="1386" 
d="M678 1460h31q115 0 219 -39t186 -113t131 -192t49 -264v-270q0 -146 -49 -264.5t-131 -192t-186 -113t-219 -39.5h-31q-115 0 -219 39.5t-186.5 113t-131.5 192t-49 264.5v270q0 146 49 264t131.5 192t186.5 113t219 39zM700 1133h-14q-100 0 -152.5 -65t-52.5 -179v-344
q0 -116 52.5 -180t152.5 -64h14q100 0 152.5 64t52.5 180v344q0 114 -52.5 179t-152.5 65z" />
    <glyph glyph-name="uni041F" unicode="&#x41f;" horiz-adv-x="1370" 
d="M133 1434h1104q13 0 22 -9t9 -22v-1372q0 -13 -9 -22t-22 -9h-317q-14 0 -22.5 9t-8.5 22v1075h-408v-1075q0 -14 -8.5 -22.5t-21.5 -8.5h-318q-13 0 -22 9t-9 22v1372q0 13 9 22t22 9z" />
    <glyph glyph-name="uni0420" unicode="&#x420;" horiz-adv-x="1261" 
d="M133 1434h533q105 0 194 -27t159 -81.5t110 -147t40 -213.5v-15q0 -124 -42 -219.5t-115.5 -153.5t-166.5 -87t-202 -29h-162v-430q0 -14 -8.5 -22.5t-21.5 -8.5h-318q-13 0 -22 9t-9 22v1372q0 13 9 22t22 9zM780 930v18q0 81 -43 119.5t-133 38.5h-123v-334h119
q180 0 180 158z" />
    <glyph glyph-name="uni0421" unicode="&#x421;" horiz-adv-x="1142" 
d="M719 1460h31q92 0 181.5 -18.5t131.5 -40.5q29 -15 29 -47v-260q0 -14 -12 -21.5t-25 -1.5q-84 35 -137.5 48.5t-126.5 13.5h-9q-139 0 -220 -88.5t-81 -239.5v-176q0 -151 81 -239.5t220 -88.5h9q76 0 132 14.5t132 46.5q13 6 25 -1t12 -21v-262q0 -30 -29 -47
q-37 -22 -130.5 -40t-182.5 -18h-31q-98 0 -189.5 27t-171 82t-139 132t-93.5 184.5t-34 232.5v172q0 155 52 282t140 207.5t200 124t235 43.5z" />
    <glyph glyph-name="uni0422" unicode="&#x422;" horiz-adv-x="1210" 
d="M72 1434h1067q13 0 21.5 -8.5t8.5 -22.5v-266q0 -14 -8.5 -22.5t-21.5 -8.5h-344v-1075q0 -13 -8.5 -22t-22.5 -9h-318q-13 0 -21.5 8.5t-8.5 22.5v1075h-344q-14 0 -22.5 9t-8.5 22v266q0 13 8.5 22t22.5 9z" />
    <glyph glyph-name="uni0423" unicode="&#x423;" horiz-adv-x="1368" 
d="M971 1434h317q22 0 33 -16t2 -36l-449 -993q-50 -104 -97 -176.5t-104.5 -129t-125 -83.5t-148.5 -27h-10q-83 0 -160 27q-18 6 -18 27v268q0 34 35 22q41 -14 67 -14h10q54 0 90.5 22.5t65.5 84.5l3 4l-437 968q-9 20 2 36t33 16h317q29 0 43 -27l195 -430l45 -244h8
l45 244l195 430q14 27 43 27z" />
    <glyph glyph-name="uni0424" unicode="&#x424;" horiz-adv-x="1873" 
d="M1126 1311h70q114 0 218.5 -38.5t187 -109t131.5 -181t49 -243.5v-16q0 -133 -49 -243t-131.5 -180.5t-187 -109t-218.5 -38.5h-70v-121q0 -14 -8.5 -22.5t-21.5 -8.5h-318q-13 0 -21.5 8.5t-8.5 22.5v121h-70q-114 0 -218.5 38.5t-187 109t-131.5 180.5t-49 243v16
q0 133 49 243.5t131.5 181t187 109t218.5 38.5h70v92q0 14 8.5 22.5t21.5 8.5h318q13 0 21.5 -8.5t8.5 -22.5v-92zM748 983h-62q-99 0 -152 -62t-53 -165v-49q0 -104 53 -166t152 -62h62v504zM1393 707v49q0 103 -53 165t-152 62h-62v-504h62q99 0 152 62t53 166z" />
    <glyph glyph-name="uni0425" unicode="&#x425;" horiz-adv-x="1361" 
d="M929 1434h351q15 0 21.5 -12t-1.5 -25l-348 -668l364 -692q7 -13 0 -25t-22 -12h-354q-26 0 -39 25l-152 286l-59 197h-17l-61 -197l-152 -286q-12 -25 -39 -25h-354q-15 0 -22 12t0 25l364 692l-348 668q-8 13 -1.5 25t21.5 12h351q26 0 39 -25l141 -266l61 -197h17
l59 197l141 266q12 25 39 25z" />
    <glyph glyph-name="uni0426" unicode="&#x426;" horiz-adv-x="1497" 
d="M1249 328h176q13 0 22 -9t9 -22v-524q0 -13 -9 -22t-22 -9h-317q-14 0 -22.5 9t-8.5 22v227h-944q-13 0 -22 9t-9 22v1372q0 13 9 22t22 9h318q13 0 21.5 -8.5t8.5 -22.5v-1075h389v1075q0 13 9 22t22 9h318q13 0 21.5 -8.5t8.5 -22.5v-1075z" />
    <glyph glyph-name="uni0427" unicode="&#x427;" horiz-adv-x="1294" 
d="M844 1434h317q13 0 22 -9t9 -22v-1372q0 -13 -9 -22t-22 -9h-317q-14 0 -22.5 9t-8.5 22v432q-127 -55 -252 -55h-31q-122 0 -219.5 51.5t-158 160.5t-60.5 261v522q0 13 9 22t22 9h328q13 0 21.5 -8.5t8.5 -22.5v-508q0 -83 34.5 -121.5t105.5 -38.5h10q92 0 182 39v629
q0 13 8.5 22t22.5 9z" />
    <glyph glyph-name="uni0428" unicode="&#x428;" horiz-adv-x="1923" 
d="M1473 1434h317q14 0 22.5 -9t8.5 -22v-1372q0 -13 -8.5 -22t-22.5 -9h-1657q-13 0 -22 9t-9 22v1372q0 13 9 22t22 9h318q13 0 21.5 -8.5t8.5 -22.5v-1075h291v1075q0 13 9 22t22 9h317q14 0 22.5 -9t8.5 -22v-1075h291v1075q0 13 9 22t22 9z" />
    <glyph glyph-name="uni0429" unicode="&#x429;" horiz-adv-x="2068" 
d="M1821 328h176q13 0 22 -9t9 -22v-524q0 -13 -9 -22t-22 -9h-318q-13 0 -21.5 8.5t-8.5 22.5v227h-1516q-13 0 -22 9t-9 22v1372q0 13 9 22t22 9h318q13 0 21.5 -8.5t8.5 -22.5v-1075h291v1075q0 13 9 22t22 9h317q14 0 22.5 -9t8.5 -22v-1075h291v1075q0 13 9 22t22 9
h317q14 0 22.5 -9t8.5 -22v-1075z" />
    <glyph glyph-name="uni042A" unicode="&#x42a;" horiz-adv-x="1398" 
d="M633 907h151q523 0 523 -454v-15q0 -110 -40 -195.5t-110.5 -137.5t-160 -78.5t-193.5 -26.5h-518q-13 0 -22 9t-9 22v1075h-182q-14 0 -22.5 9t-8.5 22v266q0 13 8.5 22t22.5 9h530q14 0 22.5 -9t8.5 -22v-496zM918 455v18q0 127 -170 127h-115v-272h119q166 0 166 127z
" />
    <glyph glyph-name="uni042B" unicode="&#x42b;" horiz-adv-x="1742" 
d="M481 907h152q522 0 522 -454v-15q0 -110 -40 -195.5t-110.5 -137.5t-160 -78.5t-193.5 -26.5h-518q-13 0 -22 9t-9 22v1372q0 13 9 22t22 9h318q13 0 21.5 -8.5t8.5 -22.5v-496zM1292 1434h318q13 0 21.5 -8.5t8.5 -22.5v-1372q0 -14 -8.5 -22.5t-21.5 -8.5h-318
q-13 0 -21.5 8.5t-8.5 22.5v1372q0 14 8.5 22.5t21.5 8.5zM766 455v18q0 127 -170 127h-115v-272h119q166 0 166 127z" />
    <glyph glyph-name="uni042C" unicode="&#x42c;" horiz-adv-x="1247" 
d="M481 907h152q522 0 522 -454v-15q0 -110 -40 -195.5t-110.5 -137.5t-160 -78.5t-193.5 -26.5h-518q-13 0 -22 9t-9 22v1372q0 13 9 22t22 9h318q13 0 21.5 -8.5t8.5 -22.5v-496zM766 455v18q0 127 -170 127h-115v-272h119q166 0 166 127z" />
    <glyph glyph-name="uni042D" unicode="&#x42d;" horiz-adv-x="1155" 
d="M393 1460h31q125 0 239 -43.5t204 -124t143 -207.5t53 -282v-172q0 -125 -34.5 -232.5t-95 -184.5t-141.5 -132t-174.5 -82t-193.5 -27h-31q-89 0 -182.5 18t-130.5 40q-29 17 -29 47v262q0 14 12 21t25 1q76 -32 132 -46.5t132 -14.5h8q127 0 209 69.5t100 190.5h-409
q-14 0 -22.5 8.5t-8.5 22.5v266q0 14 8.5 22.5t22.5 8.5h406q-23 114 -103.5 179t-202.5 65h-8q-73 0 -126.5 -13.5t-137.5 -48.5q-13 -6 -25 1.5t-12 21.5v260q0 32 29 47q42 22 131.5 40.5t181.5 18.5z" />
    <glyph glyph-name="uni042E" unicode="&#x42e;" horiz-adv-x="1908" 
d="M1200 1460h31q115 0 219 -39t186.5 -113t131.5 -192t49 -264v-270q0 -146 -49 -264.5t-131.5 -192t-186.5 -113t-219 -39.5h-31q-89 0 -173 23t-157.5 71.5t-129 117t-89 164.5t-36.5 210h-134v-528q0 -14 -8.5 -22.5t-21.5 -8.5h-318q-13 0 -22 9t-9 22v1372q0 13 9 22
t22 9h318q13 0 21.5 -8.5t8.5 -22.5v-516h134q6 138 57 249t132.5 180.5t183 106.5t212.5 37zM1427 545v344q0 115 -52 179.5t-152 64.5h-15q-100 0 -152 -64.5t-52 -179.5v-344q0 -116 52 -180t152 -64h15q100 0 152 64t52 180z" />
    <glyph glyph-name="uni042F" unicode="&#x42f;" horiz-adv-x="1312" 
d="M620 1434h559q13 0 22 -9t9 -22v-1372q0 -13 -9 -22t-22 -9h-317q-14 0 -22.5 9t-8.5 22v483h-103l-264 -489q-12 -25 -38 -25h-359q-15 0 -22 12t0 25l182 336l138 202q-109 57 -170.5 161.5t-61.5 250.5v14q0 112 37.5 196.5t104.5 135.5t153.5 76t191.5 25zM831 1106
h-149q-160 0 -160 -141v-11q0 -141 160 -141h149v293z" />
    <glyph glyph-name="uni0430" unicode="&#x430;" horiz-adv-x="1009" 
d="M528 1051h9q67 0 123.5 -9.5t111.5 -36t93 -69.5t62 -113.5t25 -163.5v-628q0 -14 -8.5 -22.5t-21.5 -8.5h-263q-21 0 -28 23l-20 77q-144 -127 -279 -127h-10q-70 0 -125 25t-88.5 66.5t-50.5 92.5t-17 107v25q0 150 101.5 232t322.5 100l127 10l-1 13q1 75 -32 100.5
t-108 25.5h-5q-30 0 -68 -6t-64.5 -12t-81 -19.5t-80.5 -19.5q-12 -3 -21.5 3t-9.5 19v217q0 35 24 41q218 58 383 58zM592 426h-70q-119 0 -119 -90v-6q0 -37 22.5 -60.5t57.5 -23.5h11q40 0 98 38v142z" />
    <glyph glyph-name="uni0431" unicode="&#x431;" horiz-adv-x="1091" 
d="M651 1014h23q89 0 160.5 -35.5t115.5 -96.5t67 -138.5t23 -165.5v-142q0 -108 -40 -197t-108 -146.5t-155.5 -88.5t-185.5 -31h-23q-97 0 -183.5 31t-152 88.5t-103.5 146.5t-38 197v443q0 298 142 440.5t440 142.5h10q107 0 175 17t147 53q12 6 21 -1.5t9 -21.5v-229
q0 -29 -32 -45q-22 -12 -46.5 -21.5t-44 -15.5t-48.5 -10.5t-43.5 -7t-47 -3.5t-40.5 -1h-42h-35h-10q-186 0 -186 -181v-67q101 86 231 86zM672 420v147q0 78 -30 119t-85 41h-10q-59 0 -127 -35v-272q0 -160 115 -160h10q60 0 93.5 41t33.5 119z" />
    <glyph glyph-name="uni0432" unicode="&#x432;" horiz-adv-x="1036" 
d="M92 1024h471q192 0 296 -76t104 -217v-12q0 -61 -32 -113t-89 -83q67 -29 105 -84t38 -124v-12q0 -142 -104.5 -222.5t-294.5 -80.5h-494q-14 0 -22.5 9t-8.5 22v962q0 13 8.5 22t22.5 9zM422 770v-158h98q41 0 61.5 19t20.5 51v14q0 74 -82 74h-98zM422 420v-166h113
q81 0 81 74v14q0 78 -81 78h-113z" />
    <glyph glyph-name="uni0433" unicode="&#x433;" horiz-adv-x="821" 
d="M92 1024h678q14 0 22.5 -9t8.5 -22v-215q0 -13 -8.5 -21.5t-22.5 -8.5h-348v-717q0 -13 -9 -22t-22 -9h-299q-14 0 -22.5 9t-8.5 22v962q0 13 8.5 22t22.5 9z" />
    <glyph glyph-name="uni0434" unicode="&#x434;" horiz-adv-x="1357" 
d="M1147 276h160q13 0 21.5 -8t8.5 -22v-473q0 -14 -8.5 -22.5t-21.5 -8.5h-299q-14 0 -22.5 9t-8.5 22v227h-596v-227q0 -13 -8.5 -22t-22.5 -9h-299q-13 0 -22 9t-9 22v473q0 13 8.5 21.5t22.5 8.5h127q44 11 51 86l52 631q3 31 30 31h805q14 0 22.5 -9t8.5 -22v-717z
M612 748l-20 -265q-10 -122 -41 -207h235v472h-174z" />
    <glyph glyph-name="uni0435" unicode="&#x435;" horiz-adv-x="1042" 
d="M532 1051h23q190 0 315 -116t125 -329v-121q0 -22 -14.5 -36.5t-36.5 -14.5h-522l1 -12q-1 -86 49 -127t134 -41h10q57 0 123.5 17t171.5 53q12 5 21.5 -2.5t9.5 -20.5v-223q0 -32 -24 -41q-48 -22 -158.5 -43t-198.5 -21h-22q-103 0 -190.5 30.5t-154.5 89.5t-105 154
t-38 216v98q0 151 67 264.5t175 169.5t239 56zM543 791h-6q-105 0 -116 -154h239q8 154 -117 154z" />
    <glyph glyph-name="uni0436" unicode="&#x436;" horiz-adv-x="1699" 
d="M1397 537l278 -496q8 -15 1.5 -28t-23.5 -13h-336q-27 0 -37 20l-200 365h-50v-354q0 -13 -9 -22t-22 -9h-299q-13 0 -21.5 8.5t-8.5 22.5v354h-50l-200 -365q-10 -20 -37 -20h-336q-17 0 -24 13t1 28l279 496l-233 448q-8 13 -1.5 26t23.5 13h317q29 0 39 -23l172 -339
h50v331q0 14 8.5 22.5t21.5 8.5h299q13 0 22 -9t9 -22v-331h50l171 339q10 23 39 23h318q17 0 23.5 -13t-1.5 -26z" />
    <glyph glyph-name="uni0437" unicode="&#x437;" horiz-adv-x="862" 
d="M356 1051h19q194 0 303.5 -77t109.5 -218v-13q0 -68 -32.5 -125.5t-90.5 -91.5q69 -30 107.5 -88t38.5 -135v-12q0 -160 -116.5 -239t-319.5 -79h-31q-80 0 -155.5 13t-112.5 28q-25 9 -25 41v224q0 13 9.5 20t21.5 2l40 -16l37.5 -15t30 -11t31.5 -9.5t26 -5.5t31 -5
t31 -1h15q49 0 83.5 22.5t34.5 61.5v8q0 34 -20.5 53.5t-61.5 19.5h-135q-13 0 -21.5 8.5t-8.5 22.5v168q0 14 8.5 22.5t21.5 8.5h121q41 0 61.5 19t20.5 50v9q0 35 -26.5 55t-69.5 20h-10q-14 0 -28.5 -1.5t-25 -2.5t-26.5 -5.5t-24 -6.5t-27.5 -9.5t-27 -10.5t-33.5 -13
t-36 -14q-12 -5 -21.5 2t-9.5 20v224q0 32 25 41q33 14 110 27.5t158 13.5z" />
    <glyph glyph-name="uni0438" unicode="&#x438;" horiz-adv-x="1112" 
d="M666 1024h354q14 0 22.5 -9t8.5 -22v-962q0 -13 -8.5 -22t-22.5 -9h-299q-13 0 -22 9t-9 22v307l12 178h-32l-49 -158l-144 -327q-5 -12 -7.5 -16.5t-9 -9.5t-14.5 -5h-354q-14 0 -22.5 9t-8.5 22v962q0 13 8.5 22t22.5 9h299q13 0 22 -9t9 -22v-307l-12 -178h32l50 158
l143 327q5 12 7.5 16.5t9 9.5t14.5 5z" />
    <glyph glyph-name="uni0439" unicode="&#x439;" horiz-adv-x="1112" 
d="M815 1434q15 7 26 1.5t11 -22.5v-178q0 -21 -18 -35q-34 -27 -111 -50.5t-164 -23.5t-163.5 23.5t-110.5 50.5q-19 15 -19 35v178q0 17 11 22.5t26 -1.5q77 -30 131 -44t125 -14t125 14t131 44zM666 1024h354q14 0 22.5 -9t8.5 -22v-962q0 -13 -8.5 -22t-22.5 -9h-299
q-13 0 -22 9t-9 22v307l12 178h-32l-49 -158l-144 -327q-5 -12 -7.5 -16.5t-9 -9.5t-14.5 -5h-354q-14 0 -22.5 9t-8.5 22v962q0 13 8.5 22t22.5 9h299q13 0 22 -9t9 -22v-307l-12 -178h32l50 158l143 327q5 12 7.5 16.5t9 9.5t14.5 5z" />
    <glyph glyph-name="uni043A" unicode="&#x43a;" horiz-adv-x="1110" 
d="M807 537l278 -496q8 -15 1.5 -28t-23.5 -13h-336q-27 0 -37 20l-200 365h-64v-354q0 -13 -9 -22t-22 -9h-299q-13 0 -21.5 8.5t-8.5 22.5v962q0 14 8.5 22.5t21.5 8.5h299q13 0 22 -9t9 -22v-331h64l172 339q10 23 38 23h318q17 0 23.5 -13t-1.5 -26z" />
    <glyph glyph-name="uni043B" unicode="&#x43b;" horiz-adv-x="1163" 
d="M266 1024h805q13 0 22 -9t9 -22v-962q0 -13 -9 -22t-22 -9h-299q-14 0 -22.5 9t-8.5 22v717h-174l-35 -447q-26 -328 -321 -328h-12q-46 0 -92 12.5t-66 24.5q-21 12 -21 33v205q0 11 7.5 18.5t23.5 3.5q30 -10 51 -10h11q61 0 69 88l54 645q3 31 30 31z" />
    <glyph glyph-name="uni043C" unicode="&#x43c;" horiz-adv-x="1286" 
d="M817 1024h377q14 0 22.5 -9t8.5 -22v-962q0 -13 -8.5 -22t-22.5 -9h-299q-13 0 -22 9t-9 22v319l58 264h-43l-138 -313q-13 -29 -43 -29h-110q-30 0 -43 29l-137 313h-43l57 -264v-319q0 -13 -9 -22t-22 -9h-299q-14 0 -22.5 9t-8.5 22v962q0 13 8.5 22t22.5 9h377
q8 0 14.5 -5t9 -9.5t7.5 -16.5l139 -327h8l139 327q5 12 7.5 16.5t9 9.5t14.5 5z" />
    <glyph glyph-name="uni043D" unicode="&#x43d;" horiz-adv-x="1103" 
d="M713 1024h299q13 0 21.5 -8.5t8.5 -22.5v-962q0 -14 -8.5 -22.5t-21.5 -8.5h-299q-13 0 -22 9t-9 22v348h-260v-348q0 -13 -9 -22t-22 -9h-299q-14 0 -22.5 9t-8.5 22v962q0 13 8.5 22t22.5 9h299q13 0 22 -9t9 -22v-338h260v338q0 13 9 22t22 9z" />
    <glyph glyph-name="uni043E" unicode="&#x43e;" horiz-adv-x="1103" 
d="M541 1051h22q131 0 241 -52.5t179.5 -160t69.5 -250.5v-152q0 -143 -69.5 -250.5t-179.5 -160t-241 -52.5h-22q-131 0 -241 52.5t-179.5 160t-69.5 250.5v152q0 143 69.5 250.5t179.5 160t241 52.5zM557 764h-10q-60 0 -93.5 -41t-33.5 -119v-184q0 -78 33.5 -119
t93.5 -41h10q60 0 93.5 41t33.5 119v184q0 78 -33.5 119t-93.5 41z" />
    <glyph glyph-name="uni043F" unicode="&#x43f;" horiz-adv-x="1097" 
d="M92 1024h914q13 0 21.5 -8.5t8.5 -22.5v-962q0 -14 -8.5 -22.5t-21.5 -8.5h-299q-13 0 -22 9t-9 22v717h-254v-717q0 -13 -9 -22t-22 -9h-299q-14 0 -22.5 9t-8.5 22v962q0 13 8.5 22t22.5 9z" />
    <glyph glyph-name="uni0440" unicode="&#x440;" horiz-adv-x="1097" 
d="M657 1051h23q89 0 160.5 -35.5t116 -96.5t67.5 -139t23 -166v-178q0 -215 -116.5 -339t-289.5 -124h-23q-115 0 -192 59v-343q0 -13 -9 -22t-22 -9h-299q-13 0 -21.5 8.5t-8.5 22.5v1304q0 14 8.5 22.5t21.5 8.5h262q22 0 29 -23l15 -59q103 109 255 109zM563 764h-10
q-55 0 -127 -35v-430q73 -39 127 -39h10q55 0 85 41t30 119v184q0 78 -30 119t-85 41z" />
    <glyph glyph-name="uni0441" unicode="&#x441;" horiz-adv-x="907" 
d="M537 1051h22q66 0 145.5 -20t131.5 -44q24 -9 24 -41v-223q0 -13 -9.5 -20.5t-21.5 -2.5q-86 35 -131.5 49.5t-83.5 14.5h-10q-83 0 -133.5 -54t-50.5 -157v-82q0 -103 50.5 -157t133.5 -54h10q38 0 83.5 14.5t131.5 49.5q12 5 21.5 -2.5t9.5 -20.5v-223q0 -32 -24 -41
q-52 -24 -131.5 -44t-145.5 -20h-22q-98 0 -184.5 30.5t-154.5 89.5t-107.5 154t-39.5 216v98q0 121 39.5 216t107.5 154t154.5 89.5t184.5 30.5z" />
    <glyph glyph-name="uni0442" unicode="&#x442;" horiz-adv-x="962" 
d="M51 1024h860q13 0 22 -9t9 -22v-215q0 -13 -8.5 -21.5t-22.5 -8.5h-249v-717q0 -13 -9 -22t-22 -9h-299q-14 0 -22.5 9t-8.5 22v717h-250q-14 0 -22.5 8.5t-8.5 21.5v215q0 13 9 22t22 9z" />
    <glyph glyph-name="uni0443" unicode="&#x443;" horiz-adv-x="1093" 
d="M735 1024h303q19 0 29 -13t4 -32l-317 -1008q-18 -57 -39.5 -104t-55.5 -92t-75.5 -76t-99 -49.5t-126.5 -18.5h-16q-61 0 -128.5 13.5t-86.5 21.5q-20 7 -20 33v221q0 12 9 19t21 4q105 -31 158 -31h4q71 0 90 61l8 27h-47q-19 0 -26 20l-301 959q-6 19 3.5 32t28.5 13
h303q20 0 27 -20l98 -330l62 -375h4l61 375l99 330q7 20 26 20z" />
    <glyph glyph-name="uni0444" unicode="&#x444;" horiz-adv-x="1609" 
d="M985 1051h68q98 0 188 -31t161.5 -88.5t114 -146.5t42.5 -197v-152q0 -108 -42.5 -197t-114 -146.5t-161.5 -88.5t-188 -31h-68v-284q0 -13 -8.5 -22t-22.5 -9h-299q-13 0 -21.5 8.5t-8.5 22.5v284h-68q-98 0 -188 31t-161.5 88.5t-114 146.5t-42.5 197v152
q0 108 42.5 197t114 146.5t161.5 88.5t188 31h68v428q0 13 8.5 21.5t21.5 8.5h299q14 0 22.5 -8.5t8.5 -21.5v-428zM625 764h-62q-62 0 -102.5 -42t-40.5 -118v-184q0 -76 40.5 -118t102.5 -42h62v504zM1190 420v184q0 76 -40.5 118t-102.5 42h-62v-504h62q62 0 102.5 42
t40.5 118z" />
    <glyph glyph-name="uni0445" unicode="&#x445;" horiz-adv-x="1097" 
d="M727 1024h313q17 0 24 -13t-1 -26l-266 -467l276 -477q8 -13 1.5 -27t-23.5 -14h-322q-24 0 -37 20l-100 185l-37 133h-12l-37 -133l-101 -185q-13 -20 -36 -20h-322q-17 0 -24 14t1 27l277 477l-266 467q-8 13 -1.5 26t23.5 13h314q25 0 38 -23l97 -180l37 -133h12
l37 133l96 180q13 23 39 23z" />
    <glyph glyph-name="uni0446" unicode="&#x446;" horiz-adv-x="1234" 
d="M1024 276h160q14 0 22 -8t8 -22v-473q0 -14 -8.5 -22.5t-21.5 -8.5h-299q-13 0 -22 9t-9 22v227h-762q-14 0 -22.5 9t-8.5 22v962q0 13 8.5 22t22.5 9h299q13 0 22 -9t9 -22v-717h242v717q0 14 8.5 22.5t21.5 8.5h299q13 0 22 -9t9 -22v-717z" />
    <glyph glyph-name="uni0447" unicode="&#x447;" 
d="M674 1024h299q13 0 22 -9t9 -22v-962q0 -13 -9 -22t-22 -9h-299q-14 0 -22.5 9t-8.5 22v269q-113 -44 -215 -44h-27q-148 0 -246 91.5t-98 266.5v379q0 13 8.5 22t22.5 9h299q13 0 22 -9t9 -22v-331q0 -119 98 -119h10q54 0 117 20v430q0 13 8.5 22t22.5 9z" />
    <glyph glyph-name="uni0448" unicode="&#x448;" horiz-adv-x="1576" 
d="M1186 1024h299q13 0 22 -9t9 -22v-962q0 -13 -9 -22t-22 -9h-1393q-14 0 -22.5 9t-8.5 22v962q0 13 8.5 22t22.5 9h299q13 0 22 -9t9 -22v-717h186v717q0 13 9 22t22 9h299q14 0 22.5 -9t8.5 -22v-717h186v717q0 13 8.5 22t22.5 9z" />
    <glyph glyph-name="uni0449" unicode="&#x449;" horiz-adv-x="1726" 
d="M1516 276h159q14 0 22.5 -8.5t8.5 -21.5v-473q0 -13 -9 -22t-22 -9h-299q-13 0 -21.5 8.5t-8.5 22.5v227h-1254q-14 0 -22.5 9t-8.5 22v962q0 13 8.5 22t22.5 9h299q13 0 22 -9t9 -22v-717h186v717q0 13 9 22t22 9h299q14 0 22.5 -9t8.5 -22v-717h186v717q0 13 8.5 22
t22.5 9h299q13 0 22 -9t9 -22v-717z" />
    <glyph glyph-name="uni044A" unicode="&#x44a;" horiz-adv-x="1185" 
d="M571 715h174q190 0 290 -88.5t100 -249.5v-23q0 -161 -101.5 -257.5t-288.5 -96.5h-503q-14 0 -22.5 9t-8.5 22v717h-160q-14 0 -22.5 8.5t-8.5 21.5v215q0 13 9 22t22 9h490q13 0 21.5 -8.5t8.5 -22.5v-278zM571 276h93q48 0 75 21.5t27 60.5v15q0 39 -27 60.5t-75 21.5
h-93v-179z" />
    <glyph glyph-name="uni044B" unicode="&#x44b;" horiz-adv-x="1505" 
d="M422 715h174q190 0 289.5 -88t99.5 -250v-23q0 -161 -101 -257.5t-288 -96.5h-504q-14 0 -22.5 9t-8.5 22v962q0 13 8.5 22t22.5 9h299q13 0 22 -9t9 -22v-278zM1114 1024h299q13 0 22 -9t9 -22v-962q0 -13 -9 -22t-22 -9h-299q-14 0 -22.5 9t-8.5 22v962q0 13 8.5 22
t22.5 9zM616 358v15q0 39 -27 60.5t-75 21.5h-92v-179h92q48 0 75 21.5t27 60.5z" />
    <glyph glyph-name="uni044C" unicode="&#x44c;" horiz-adv-x="1038" 
d="M422 715h176q190 0 289.5 -88t99.5 -250v-23q0 -161 -101 -257.5t-288 -96.5h-506q-14 0 -22.5 9t-8.5 22v962q0 13 8.5 22t22.5 9h299q13 0 22 -9t9 -22v-278zM422 276h94q48 0 75 21.5t27 60.5v15q0 39 -27 60.5t-75 21.5h-94v-179z" />
    <glyph glyph-name="uni044D" unicode="&#x44d;" horiz-adv-x="911" 
d="M348 1051h23q99 0 186 -30.5t155.5 -89.5t108 -154t39.5 -216v-98q0 -121 -39.5 -216t-108 -154t-155.5 -89.5t-186 -30.5h-23q-66 0 -145 20t-131 44q-25 9 -25 41v223q0 13 9.5 20.5t21.5 2.5q86 -35 131.5 -49.5t83.5 -14.5h10q71 0 119 37t63 109h-256q-13 0 -21.5 8
t-8.5 22v158q0 14 8.5 22.5t21.5 8.5h255q-16 69 -64 104t-117 35h-10q-38 0 -83.5 -14.5t-131.5 -49.5q-12 -5 -21.5 2.5t-9.5 20.5v223q0 32 25 41q52 24 131 44t145 20z" />
    <glyph glyph-name="uni044E" unicode="&#x44e;" horiz-adv-x="1613" 
d="M1051 1051h22q131 0 241 -52.5t179.5 -160t69.5 -250.5v-152q0 -143 -69.5 -250.5t-179.5 -160t-241 -52.5h-22q-122 0 -226.5 46t-175.5 140t-85 220h-142v-348q0 -13 -9 -22t-22 -9h-299q-14 0 -22.5 9t-8.5 22v962q0 13 8.5 22t22.5 9h299q13 0 22 -9t9 -22v-338h143
q16 123 87 214.5t174.5 136.5t224.5 45zM1194 420v184q0 78 -33.5 119t-93.5 41h-10q-60 0 -93.5 -41t-33.5 -119v-184q0 -78 33.5 -119t93.5 -41h10q60 0 93.5 41t33.5 119z" />
    <glyph glyph-name="uni044F" unicode="&#x44f;" horiz-adv-x="1081" 
d="M486 1024h504q14 0 22.5 -9t8.5 -22v-962q0 -13 -8.5 -22t-22.5 -9h-299q-13 0 -22 9t-9 22v299h-60l-153 -303q-13 -27 -43 -27h-329q-14 0 -20.5 10.5t-0.5 22.5l125 250l89 108q-76 33 -123.5 106t-47.5 160v13q0 161 101 257.5t288 96.5zM660 748h-92
q-48 0 -75 -21.5t-27 -60.5v-15q0 -39 27 -60.5t75 -21.5h92v179z" />
    <glyph glyph-name="uni0451" unicode="&#x451;" horiz-adv-x="1042" 
d="M211 1501h246q13 0 22 -8.5t9 -22.5v-292q0 -14 -9 -22.5t-22 -8.5h-246q-13 0 -22 8.5t-9 22.5v292q0 14 9 22.5t22 8.5zM610 1501h246q14 0 22.5 -8.5t8.5 -22.5v-292q0 -14 -8.5 -22.5t-22.5 -8.5h-246q-13 0 -21.5 8.5t-8.5 22.5v292q0 14 8.5 22.5t21.5 8.5z
M532 1051h23q190 0 315 -116t125 -329v-121q0 -22 -14.5 -36.5t-36.5 -14.5h-522l1 -12q-1 -86 49 -127t134 -41h10q57 0 123.5 17t171.5 53q12 5 21.5 -2.5t9.5 -20.5v-223q0 -32 -24 -41q-48 -22 -158.5 -43t-198.5 -21h-22q-103 0 -190.5 30.5t-154.5 89.5t-105 154
t-38 216v98q0 151 67 264.5t175 169.5t239 56zM543 791h-6q-105 0 -116 -154h239q8 154 -117 154z" />
    <glyph glyph-name="uni0454" unicode="&#x454;" horiz-adv-x="907" 
d="M614 764h-10q-67 0 -114 -35t-63 -104h251q14 0 22.5 -8.5t8.5 -22.5v-158q0 -13 -8.5 -21.5t-22.5 -8.5h-252q15 -72 62 -109t116 -37h10q38 0 83.5 14.5t131.5 49.5q12 5 21.5 -2.5t9.5 -20.5v-223q0 -32 -24 -41q-52 -24 -131.5 -44t-145.5 -20h-22q-98 0 -184.5 30.5
t-154.5 89.5t-107.5 154t-39.5 216v98q0 121 39.5 216t107.5 154t154.5 89.5t184.5 30.5h22q66 0 145.5 -20t131.5 -44q24 -9 24 -41v-223q0 -13 -9.5 -20.5t-21.5 -2.5q-86 35 -131.5 49.5t-83.5 14.5z" />
    <glyph glyph-name="uni0456" unicode="&#x456;" horiz-adv-x="487" 
d="M96 1473h299q13 0 22 -8.5t9 -22.5v-264q0 -14 -9 -22.5t-22 -8.5h-299q-13 0 -21.5 8.5t-8.5 22.5v264q0 14 8.5 22.5t21.5 8.5zM96 1024h299q13 0 22 -9t9 -22v-962q0 -13 -9 -22t-22 -9h-299q-13 0 -21.5 8.5t-8.5 22.5v962q0 14 8.5 22.5t21.5 8.5z" />
    <glyph glyph-name="uni0457" unicode="&#x457;" horiz-adv-x="487" 
d="M-77 1501h246q13 0 22 -8.5t9 -22.5v-292q0 -14 -9 -22.5t-22 -8.5h-246q-13 0 -22 8.5t-9 22.5v292q0 14 9 22.5t22 8.5zM323 1501h245q14 0 22.5 -8.5t8.5 -22.5v-292q0 -14 -8.5 -22.5t-22.5 -8.5h-245q-13 0 -22 8.5t-9 22.5v292q0 14 9 22.5t22 8.5zM96 1024h299
q13 0 22 -9t9 -22v-962q0 -13 -9 -22t-22 -9h-299q-13 0 -21.5 8.5t-8.5 22.5v962q0 14 8.5 22.5t21.5 8.5z" />
    <glyph glyph-name="uni045E" unicode="&#x45e;" horiz-adv-x="1093" 
d="M803 1434q15 7 26 1.5t11 -22.5v-178q0 -20 -19 -35q-34 -27 -110.5 -50.5t-163.5 -23.5t-163.5 23.5t-110.5 50.5q-19 15 -19 35v178q0 17 11 22.5t26 -1.5q77 -30 131 -44t125 -14t125 14t131 44zM735 1024h303q19 0 29 -13t4 -32l-317 -1008q-18 -57 -39.5 -104
t-55.5 -92t-75.5 -76t-99 -49.5t-126.5 -18.5h-16q-61 0 -128.5 13.5t-86.5 21.5q-20 7 -20 33v221q0 12 9 19t21 4q105 -31 158 -31h4q71 0 90 61l8 27h-47q-19 0 -26 20l-301 959q-6 19 3.5 32t28.5 13h303q20 0 27 -20l98 -330l62 -375h4l61 375l99 330q7 20 26 20z" />
    <glyph glyph-name="uni0490" unicode="&#x490;" horiz-adv-x="1021" 
d="M708 1579h242q14 0 22.5 -8.5t8.5 -22.5v-411q0 -13 -8.5 -22t-22.5 -9h-469v-1075q0 -14 -8.5 -22.5t-21.5 -8.5h-318q-13 0 -22 9t-9 22v1372q0 13 9 22t22 9h544v114q0 14 8.5 22.5t22.5 8.5z" />
    <glyph glyph-name="uni0491" unicode="&#x491;" horiz-adv-x="821" 
d="M566 1170h204q14 0 22.5 -9t8.5 -22v-361q0 -13 -8.5 -21.5t-22.5 -8.5h-348v-717q0 -13 -9 -22t-22 -9h-299q-14 0 -22.5 9t-8.5 22v962q0 13 8.5 22t22.5 9h444v115q0 14 8.5 22.5t21.5 8.5z" />
    <glyph glyph-name="Wgrave" unicode="&#x1e80;" horiz-adv-x="2119" 
d="M1012 1886l157 -311q4 -7 1 -13t-11 -6h-207q-23 0 -37 21l-217 313q-4 8 -0.5 14.5t11.5 6.5h262q29 0 41 -25zM1722 1434h323q18 0 27.5 -12t5.5 -29l-324 -1370q-7 -23 -28 -23h-455q-22 0 -29 23l-110 471l-62 456h-20l-62 -456l-110 -471q-7 -23 -29 -23h-454
q-22 0 -29 23l-324 1370q-4 17 5.5 29t27.5 12h324q21 0 28 -23l164 -694l39 -385h16l39 385l164 694q7 23 29 23h364q22 0 29 -23l164 -694l39 -385h16l39 385l164 694q7 23 29 23z" />
    <glyph glyph-name="wgrave" unicode="&#x1e81;" horiz-adv-x="1720" 
d="M802 1477l158 -312q4 -7 1 -12.5t-11 -5.5h-207q-24 0 -37 20l-217 314q-4 7 -1 13.5t11 6.5h262q29 0 41 -24zM1356 1024h309q19 0 29 -13t4 -32l-281 -959q-7 -20 -26 -20h-351q-19 0 -26 20l-82 281l-62 356h-20l-61 -356l-82 -281q-7 -20 -27 -20h-350q-20 0 -27 20
l-280 959q-6 19 3.5 32t28.5 13h310q19 0 26 -20l103 -404l28 -281h13l28 281l103 404q7 20 26 20h336q20 0 27 -20l102 -404l29 -281h12l29 281l102 404q7 20 27 20z" />
    <glyph glyph-name="Wacute" unicode="&#x1e82;" horiz-adv-x="2119" 
d="M945 1575l157 311q12 25 41 25h262q8 0 11.5 -6.5t-0.5 -14.5l-217 -313q-14 -21 -37 -21h-207q-8 0 -11 6t1 13zM1722 1434h323q18 0 27.5 -12t5.5 -29l-324 -1370q-7 -23 -28 -23h-455q-22 0 -29 23l-110 471l-62 456h-20l-62 -456l-110 -471q-7 -23 -29 -23h-454
q-22 0 -29 23l-324 1370q-4 17 5.5 29t27.5 12h324q21 0 28 -23l164 -694l39 -385h16l39 385l164 694q7 23 29 23h364q22 0 29 -23l164 -694l39 -385h16l39 385l164 694q7 23 29 23z" />
    <glyph glyph-name="wacute" unicode="&#x1e83;" horiz-adv-x="1720" 
d="M744 1165l158 312q12 24 41 24h262q8 0 11 -6.5t-1 -13.5l-217 -314q-13 -20 -37 -20h-207q-8 0 -11 5.5t1 12.5zM1356 1024h309q19 0 29 -13t4 -32l-281 -959q-7 -20 -26 -20h-351q-19 0 -26 20l-82 281l-62 356h-20l-61 -356l-82 -281q-7 -20 -27 -20h-350
q-20 0 -27 20l-280 959q-6 19 3.5 32t28.5 13h310q19 0 26 -20l103 -404l28 -281h13l28 281l103 404q7 20 26 20h336q20 0 27 -20l102 -404l29 -281h12l29 281l102 404q7 20 27 20z" />
    <glyph glyph-name="Wdieresis" unicode="&#x1e84;" horiz-adv-x="2119" 
d="M738 1911h246q14 0 22.5 -8.5t8.5 -22.5v-293q0 -13 -8.5 -22t-22.5 -9h-246q-13 0 -21.5 8.5t-8.5 22.5v293q0 14 8.5 22.5t21.5 8.5zM1138 1911h245q13 0 22 -8.5t9 -22.5v-293q0 -13 -9 -22t-22 -9h-245q-14 0 -22.5 9t-8.5 22v293q0 14 8.5 22.5t22.5 8.5zM1722 1434
h323q18 0 27.5 -12t5.5 -29l-324 -1370q-7 -23 -28 -23h-455q-22 0 -29 23l-110 471l-62 456h-20l-62 -456l-110 -471q-7 -23 -29 -23h-454q-22 0 -29 23l-324 1370q-4 17 5.5 29t27.5 12h324q21 0 28 -23l164 -694l39 -385h16l39 385l164 694q7 23 29 23h364q22 0 29 -23
l164 -694l39 -385h16l39 385l164 694q7 23 29 23z" />
    <glyph glyph-name="wdieresis" unicode="&#x1e85;" horiz-adv-x="1720" 
d="M538 1501h245q13 0 22 -8.5t9 -22.5v-292q0 -14 -9 -22.5t-22 -8.5h-245q-14 0 -22.5 8.5t-8.5 22.5v292q0 14 8.5 22.5t22.5 8.5zM937 1501h246q13 0 21.5 -8.5t8.5 -22.5v-292q0 -14 -8.5 -22.5t-21.5 -8.5h-246q-13 0 -22 8.5t-9 22.5v292q0 14 9 22.5t22 8.5z
M1356 1024h309q19 0 29 -13t4 -32l-281 -959q-7 -20 -26 -20h-351q-19 0 -26 20l-82 281l-62 356h-20l-61 -356l-82 -281q-7 -20 -27 -20h-350q-20 0 -27 20l-280 959q-6 19 3.5 32t28.5 13h310q19 0 26 -20l103 -404l28 -281h13l28 281l103 404q7 20 26 20h336q20 0 27 -20
l102 -404l29 -281h12l29 281l102 404q7 20 27 20z" />
    <glyph glyph-name="Ygrave" unicode="&#x1ef2;" horiz-adv-x="1296" 
d="M605 1886l158 -311q4 -7 0.5 -13t-11.5 -6h-206q-23 0 -37 21l-217 313q-4 8 -1 14.5t11 6.5h262q28 0 41 -25zM900 1434h318q22 0 32 -16t2 -36l-413 -917v-434q0 -13 -8.5 -22t-22.5 -9h-320q-13 0 -21.5 8.5t-8.5 22.5v434l-414 917q-8 20 2.5 36t32.5 16h317
q30 0 43 -27l160 -354l45 -244h8l45 244l160 354q13 27 43 27z" />
    <glyph glyph-name="ygrave" unicode="&#x1ef3;" horiz-adv-x="1093" 
d="M501 1477l158 -312q4 -7 0.5 -12.5t-11.5 -5.5h-206q-24 0 -37 20l-217 314q-4 7 -1 13.5t11 6.5h262q29 0 41 -24zM735 1024h303q19 0 29 -13t4 -32l-317 -1008q-18 -57 -39.5 -104t-55.5 -92t-75.5 -76t-99 -49.5t-126.5 -18.5h-16q-61 0 -128.5 13.5t-86.5 21.5
q-20 7 -20 33v221q0 12 9 19t21 4q105 -31 158 -31h4q71 0 90 61l8 27h-47q-19 0 -26 20l-301 959q-6 19 3.5 32t28.5 13h303q20 0 27 -20l98 -330l62 -375h4l61 375l99 330q7 20 26 20z" />
    <glyph glyph-name="uni2009" unicode="&#x2009;" horiz-adv-x="204" 
 />
    <glyph glyph-name="endash" unicode="&#x2013;" horiz-adv-x="1032" 
d="M72 764h889q13 0 21.5 -8.5t8.5 -22.5v-215q0 -14 -8.5 -22.5t-21.5 -8.5h-889q-14 0 -22.5 8.5t-8.5 22.5v215q0 13 8.5 22t22.5 9z" />
    <glyph glyph-name="emdash" unicode="&#x2014;" horiz-adv-x="1183" 
d="M72 764h1040q14 0 22.5 -9t8.5 -22v-215q0 -14 -8.5 -22.5t-22.5 -8.5h-1040q-14 0 -22.5 8.5t-8.5 22.5v215q0 13 8.5 22t22.5 9z" />
    <glyph glyph-name="quoteleft" unicode="&#x2018;" horiz-adv-x="454" 
d="M377 737h-305q-14 0 -22.5 8.5t-8.5 22.5v260q0 35 12 62l133 315q13 29 43 29h166q11 0 16 -8.5t1 -18.5l-131 -315h96q13 0 22 -9t9 -22v-293q0 -14 -9 -22.5t-22 -8.5z" />
    <glyph glyph-name="quoteright" unicode="&#x2019;" horiz-adv-x="454" 
d="M78 1434h305q13 0 22 -9t9 -22v-260q0 -33 -13 -62l-133 -315q-13 -29 -43 -29h-166q-11 0 -15.5 8.5t-0.5 18.5l133 315h-98q-14 0 -22.5 8.5t-8.5 22.5v293q0 13 8.5 22t22.5 9z" />
    <glyph glyph-name="quotesinglbase" unicode="&#x201a;" horiz-adv-x="454" 
d="M78 354h305q14 0 22.5 -8.5t8.5 -21.5v-261q0 -32 -13 -61l-133 -315q-13 -29 -43 -29h-166q-11 0 -15.5 8.5t-0.5 18.5l133 315h-98q-14 0 -22.5 9t-8.5 22v293q0 13 8.5 21.5t22.5 8.5z" />
    <glyph glyph-name="quotedblleft" unicode="&#x201c;" horiz-adv-x="933" 
d="M377 737h-305q-14 0 -22.5 8.5t-8.5 22.5v260q0 35 12 62l133 315q13 29 43 29h166q11 0 16 -8.5t1 -18.5l-131 -315h96q13 0 22 -9t9 -22v-293q0 -14 -9 -22.5t-22 -8.5zM856 737h-305q-13 0 -22 8.5t-9 22.5v260q0 35 12 62l134 315q13 29 43 29h165q11 0 16 -8.5
t1 -18.5l-133 -315h98q14 0 22.5 -9t8.5 -22v-293q0 -14 -8.5 -22.5t-22.5 -8.5z" />
    <glyph glyph-name="quotedblright" unicode="&#x201d;" horiz-adv-x="933" 
d="M78 1434h305q13 0 22 -9t9 -22v-260q0 -33 -13 -62l-133 -315q-13 -29 -43 -29h-166q-11 0 -15.5 8.5t-0.5 18.5l133 315h-98q-14 0 -22.5 8.5t-8.5 22.5v293q0 13 8.5 22t22.5 9zM557 1434h305q14 0 22.5 -9t8.5 -22v-260q0 -35 -12 -62l-133 -315q-13 -29 -43 -29h-166
q-11 0 -16 8.5t-1 18.5l131 315h-96q-13 0 -22 8.5t-9 22.5v293q0 13 9 22t22 9z" />
    <glyph glyph-name="quotedblbase" unicode="&#x201e;" horiz-adv-x="933" 
d="M78 354h305q14 0 22.5 -8.5t8.5 -21.5v-261q0 -32 -13 -61l-133 -315q-13 -29 -43 -29h-166q-11 0 -15.5 8.5t-0.5 18.5l133 315h-98q-14 0 -22.5 9t-8.5 22v293q0 13 8.5 21.5t22.5 8.5zM557 354h305q14 0 22.5 -8.5t8.5 -21.5v-261q0 -34 -12 -61l-133 -315
q-13 -29 -43 -29h-166q-11 0 -16 8.5t-1 18.5l131 315h-96q-13 0 -22 9t-9 22v293q0 13 8.5 21.5t22.5 8.5z" />
    <glyph glyph-name="dagger" unicode="&#x2020;" horiz-adv-x="972" 
d="M676 1024h225q13 0 22 -9t9 -22v-266q0 -13 -9 -22t-22 -9h-225v-817q0 -13 -9 -22t-22 -9h-317q-14 0 -22.5 9t-8.5 22v817h-225q-14 0 -22.5 9t-8.5 22v266q0 13 8.5 22t22.5 9h225v379q0 13 8.5 22t22.5 9h317q13 0 22 -9t9 -22v-379z" />
    <glyph glyph-name="daggerdbl" unicode="&#x2021;" horiz-adv-x="972" 
d="M676 586h225q13 0 22 -9t9 -22v-266q0 -13 -9 -22t-22 -9h-225v-379q0 -13 -9 -22t-22 -9h-317q-14 0 -22.5 9t-8.5 22v379h-225q-14 0 -22.5 9t-8.5 22v266q0 13 8.5 22t22.5 9h225v110h-225q-14 0 -22.5 9t-8.5 22v266q0 13 8.5 22t22.5 9h225v379q0 13 8.5 22t22.5 9
h317q13 0 22 -9t9 -22v-379h225q13 0 22 -9t9 -22v-266q0 -13 -9 -22t-22 -9h-225v-110z" />
    <glyph glyph-name="bullet" unicode="&#x2022;" horiz-adv-x="786" 
d="M393 938q146 0 249 -103t103 -249t-103 -249.5t-249 -103.5t-249 103.5t-103 249.5t103 249t249 103z" />
    <glyph glyph-name="ellipsis" unicode="&#x2026;" horiz-adv-x="1572" 
d="M72 354h299q13 0 21.5 -8t8.5 -22v-293q0 -14 -8.5 -22.5t-21.5 -8.5h-299q-14 0 -22.5 9t-8.5 22v293q0 13 8.5 21.5t22.5 8.5zM637 354h299q14 0 22.5 -8.5t8.5 -21.5v-293q0 -13 -8.5 -22t-22.5 -9h-299q-13 0 -22 9t-9 22v293q0 13 8.5 21.5t22.5 8.5zM1202 354h299
q14 0 22.5 -8.5t8.5 -21.5v-293q0 -13 -9 -22t-22 -9h-299q-14 0 -22.5 9t-8.5 22v293q0 13 8.5 21.5t22.5 8.5z" />
    <glyph glyph-name="perthousand" unicode="&#x2030;" horiz-adv-x="2912" 
d="M442 635h-41q-151 0 -255.5 97t-104.5 259v111q0 162 105 260t255 98h41q152 0 257.5 -98t105.5 -260v-111q0 -162 -105.5 -259t-257.5 -97zM768 0h-182q-15 0 -22 11.5t-1 23.5l645 1362q18 37 60 37h182q15 0 22 -11.5t1 -23.5l-646 -1362q-18 -37 -59 -37zM418 881h10
q90 0 90 116v101q0 116 -90 116h-10q-90 0 -90 -116v-101q0 -116 90 -116zM1593 799h41q151 0 256 -97.5t105 -259.5v-110q0 -162 -105.5 -260.5t-255.5 -98.5h-41q-152 0 -257 98.5t-105 260.5v110q0 162 105 259.5t257 97.5zM2470 799h41q151 0 255.5 -97.5t104.5 -259.5
v-110q0 -162 -105 -260.5t-255 -98.5h-41q-152 0 -257.5 98.5t-105.5 260.5v110q0 162 105.5 259.5t257.5 97.5zM1618 553h-10q-42 0 -66 -29t-24 -88v-100q0 -59 24 -88t66 -29h10q42 0 66 29t24 88v100q0 59 -24 88t-66 29zM2494 553h-10q-42 0 -66 -29t-24 -88v-100
q0 -59 24 -88t66 -29h10q42 0 66.5 29t24.5 88v100q0 59 -24.5 88t-66.5 29z" />
    <glyph glyph-name="guilsinglleft" unicode="&#x2039;" horiz-adv-x="538" 
d="M332 557l164 -301q3 -6 -0.5 -12t-10.5 -6h-227q-22 0 -35 16l-166 217q-16 22 -16 45v82q0 23 16 45l166 217q14 17 35 17h227q7 0 10.5 -6.5t0.5 -12.5z" />
    <glyph glyph-name="guilsinglright" unicode="&#x203a;" horiz-adv-x="538" 
d="M206 557l-163 301q-3 6 0 12.5t10 6.5h227q21 0 35 -17l166 -217q16 -22 16 -45v-82q0 -23 -16 -45l-166 -217q-13 -16 -35 -16h-227q-7 0 -10 6t0 12z" />
    <glyph glyph-name="fraction" unicode="&#x2044;" horiz-adv-x="505" 
d="M503 1434h182q15 0 21.5 -11.5t0.5 -23.5l-645 -1362q-18 -37 -59 -37h-182q-15 0 -22 11.5t-1 23.5l645 1362q18 37 60 37z" />
    <glyph glyph-name="Euro" unicode="&#x20ac;" horiz-adv-x="1310" 
d="M958 1133h-8q-94 0 -162.5 -41.5t-104.5 -118.5h298q13 0 22 -8.5t9 -22.5v-147q0 -13 -9 -22t-22 -9h-332v-90h332q13 0 22 -9t9 -22v-147q0 -14 -9 -22.5t-22 -8.5h-300q35 -78 104 -121t165 -43h8q76 0 133 15t132 46q13 6 25 -1t12 -21v-262q0 -30 -29 -47
q-37 -22 -130.5 -40t-182.5 -18h-31q-142 0 -266.5 55t-217.5 168t-126 269h-205q-14 0 -22.5 8.5t-8.5 22.5v147q0 13 8.5 22t22.5 9h188v90h-188q-14 0 -22.5 9t-8.5 22v147q0 14 8.5 22.5t22.5 8.5h206q33 154 126 266t217.5 166.5t265.5 54.5h31q92 0 181.5 -18.5
t131.5 -40.5q29 -15 29 -47v-260q0 -14 -12 -21.5t-25 -1.5q-84 34 -138 48t-127 14z" />
    <glyph glyph-name="uni2116" unicode="&#x2116;" horiz-adv-x="2191" 
d="M1749 1460h41q151 0 255.5 -97t104.5 -259v-111q0 -162 -105 -260t-255 -98h-41q-152 0 -257.5 98t-105.5 260v111q0 162 105.5 259t257.5 97zM938 1434h317q13 0 22 -9t9 -22v-1372q0 -13 -9 -22t-22 -9h-356q-27 0 -41 25l-285 561l-104 266h-29l37 -266v-555
q0 -13 -8.5 -22t-22.5 -9h-317q-13 0 -22 9t-9 22v1372q0 13 9 22t22 9h356q27 0 41 -25l285 -561l104 -266h29l-37 266v555q0 13 8.5 22t22.5 9zM1774 1214h-11q-90 0 -90 -116v-101q0 -116 90 -116h11q90 0 90 116v101q0 116 -90 116zM1438 567h661q14 0 22.5 -8.5
t8.5 -21.5v-267q0 -13 -8.5 -21.5t-22.5 -8.5h-661q-14 0 -22.5 8.5t-8.5 21.5v267q0 13 8.5 21.5t22.5 8.5z" />
    <glyph glyph-name="trademark" unicode="&#x2122;" horiz-adv-x="1583" 
d="M57 1516h594q17 0 17 -17v-149q0 -17 -17 -17h-192v-600q0 -16 -17 -16h-176q-18 0 -18 16v600h-191q-16 0 -16 17v149q0 17 16 17zM1296 1516h230q16 0 16 -17v-766q0 -16 -16 -16h-183q-16 0 -16 16l4 348l31 150h-25l-53 -150l-74 -149q-6 -14 -22 -14h-103
q-14 0 -20 14l-74 149l-53 150h-25l29 -150l6 -348q0 -16 -18 -16h-182q-17 0 -17 16v766q0 17 17 17h229q16 0 22 -15l134 -313h8l135 313q3 15 20 15z" />
    <glyph glyph-name="estimated" unicode="&#x212e;" horiz-adv-x="1495" 
d="M748 1366q206 0 368.5 -94t250 -252.5t87.5 -349.5h-1143v-432q82 -80 194.5 -125t242.5 -45q173 0 308 62t224 163q8 9 18.5 6t10.5 -16v-62q0 -28 -21 -49q-97 -94 -235 -146.5t-305 -52.5q-155 0 -288 55t-224.5 149.5t-143 222t-51.5 270.5t51.5 270.5t143 221.5
t224.5 149t288 55zM748 1272q-130 0 -242.5 -45t-194.5 -125v-350h873v350q-82 80 -194 125t-242 45z" />
    <glyph glyph-name="oneeighth" unicode="&#x215b;" horiz-adv-x="1937" 
d="M481 907h123q14 0 22.5 -8.5t8.5 -21.5v-185q0 -13 -8.5 -21.5t-22.5 -8.5h-532q-14 0 -22.5 8.5t-8.5 21.5v185q0 13 8.5 21.5t22.5 8.5h139v240l-139 -39q-12 -3 -21.5 3.5t-9.5 18.5v173q0 33 31 43l243 77q37 11 64 11h72q13 0 21.5 -8.5t8.5 -22.5v-496zM1178 1434
h183q15 0 21.5 -11.5t0.5 -23.5l-645 -1362q-18 -37 -59 -37h-183q-15 0 -21.5 11.5t-0.5 23.5l645 1362q18 37 59 37zM1762 401q59 -23 96.5 -70t37.5 -116v-8q0 -105 -89.5 -169.5t-238.5 -64.5h-18q-149 0 -238.5 64.5t-89.5 169.5v8q0 69 37.5 116t96.5 70
q-107 57 -107 160v8q0 102 85.5 166t215.5 64h18q131 0 216 -64t85 -166v-8q0 -103 -107 -160zM1497 543v-4q0 -24 15 -38t40 -14h12q27 0 42.5 14t15.5 38v4q0 24 -15.5 37.5t-42.5 13.5h-12q-25 0 -40 -13.5t-15 -37.5zM1630 231v5q0 53 -62 53h-18q-62 0 -62 -53v-5
q0 -53 62 -53h18q62 0 62 53z" />
    <glyph glyph-name="threeeighths" unicode="&#x215c;" horiz-adv-x="1923" 
d="M285 1460h6q144 0 228.5 -65.5t84.5 -173.5v-9q0 -49 -27 -90t-71 -69q115 -53 115 -170v-9q0 -108 -89.5 -173.5t-244.5 -65.5h-6q-73 0 -213 33q-27 7 -27 37v167q0 12 9.5 19t21.5 4q23 -6 65 -18.5t66 -17.5t47 -5h6q82 0 82 53v6q0 45 -62 45h-79q-13 0 -22 9t-9 22
v119q0 14 9 22.5t22 8.5h67q64 0 64 51v6q0 22 -17.5 35.5t-50.5 13.5h-6q-20 0 -43.5 -5t-63.5 -17t-65 -19q-12 -3 -21.5 4t-9.5 19v164q0 29 27 36q140 33 207 33zM1164 1434h182q15 0 22 -11.5t1 -23.5l-645 -1362q-18 -37 -60 -37h-182q-15 0 -21.5 11.5t-0.5 23.5
l645 1362q18 37 59 37zM1748 401q59 -23 96.5 -70t37.5 -116v-8q0 -105 -89.5 -169.5t-238.5 -64.5h-18q-149 0 -238.5 64.5t-89.5 169.5v8q0 69 37.5 116t96.5 70q-108 58 -108 160v8q0 102 86 166t216 64h18q131 0 216 -64t85 -166v-8q0 -103 -107 -160zM1482 543v-4
q0 -24 15.5 -38t40.5 -14h12q26 0 41.5 13.5t15.5 38.5v4q0 24 -15 37.5t-42 13.5h-12q-25 0 -40.5 -13.5t-15.5 -37.5zM1615 231v5q0 53 -61 53h-19q-61 0 -61 -53v-5q0 -53 61 -53h19q61 0 61 53z" />
    <glyph glyph-name="fiveeighths" unicode="&#x215d;" horiz-adv-x="1923" 
d="M88 1434h444q14 0 22.5 -9t8.5 -22v-162q0 -13 -8.5 -22t-22.5 -9h-231v-69q40 8 78 8q45 0 86.5 -13.5t77 -40.5t57 -74t21.5 -108v-8q0 -122 -89.5 -196t-244.5 -74h-6q-73 0 -213 33q-27 7 -27 37v157q0 12 9.5 19t21.5 4q23 -6 65 -18.5t66 -17.5t47 -5h6
q36 0 59 17.5t23 47.5v9q0 30 -24 46.5t-66 16.5q-38 0 -103 -12q-22 -3 -36 8l-31 22q-21 17 -21 43v361q0 13 8.5 22t22.5 9zM1164 1434h182q15 0 22 -11.5t1 -23.5l-645 -1362q-18 -37 -60 -37h-182q-15 0 -21.5 11.5t-0.5 23.5l645 1362q18 37 59 37zM1748 401
q59 -23 96.5 -70t37.5 -116v-8q0 -105 -89.5 -169.5t-238.5 -64.5h-18q-149 0 -238.5 64.5t-89.5 169.5v8q0 69 37.5 116t96.5 70q-108 58 -108 160v8q0 102 86 166t216 64h18q131 0 216 -64t85 -166v-8q0 -103 -107 -160zM1482 543v-4q0 -24 15.5 -38t40.5 -14h12
q26 0 41.5 13.5t15.5 38.5v4q0 24 -15 37.5t-42 13.5h-12q-25 0 -40.5 -13.5t-15.5 -37.5zM1615 231v5q0 53 -61 53h-19q-61 0 -61 -53v-5q0 -53 61 -53h19q61 0 61 53z" />
    <glyph glyph-name="seveneighths" unicode="&#x215e;" horiz-adv-x="1835" 
d="M72 1434h532q14 0 22.5 -9t8.5 -22v-137q0 -24 -12 -45l-191 -291q-8 -13 -8 -31v-207q0 -13 -8.5 -21.5t-22.5 -8.5h-215q-14 0 -22.5 8.5t-8.5 21.5v232q0 16 11 34l168 230h-254q-14 0 -22.5 9t-8.5 22v184q0 13 8.5 22t22.5 9zM1076 1434h182q15 0 22 -11.5t1 -23.5
l-645 -1362q-18 -37 -60 -37h-182q-15 0 -22 11.5t-1 23.5l646 1362q18 37 59 37zM1660 401q59 -23 96.5 -70t37.5 -116v-8q0 -105 -89.5 -169.5t-238.5 -64.5h-19q-148 0 -237.5 64.5t-89.5 169.5v8q0 69 37.5 116t96.5 70q-108 58 -108 160v8q0 102 85.5 166t215.5 64h19
q131 0 216 -64t85 -166v-8q0 -103 -107 -160zM1394 543v-4q0 -24 15 -38t40 -14h13q26 0 41.5 13.5t15.5 38.5v4q0 24 -15 37.5t-42 13.5h-13q-25 0 -40 -13.5t-15 -37.5zM1527 231v5q0 53 -61 53h-19q-61 0 -61 -53v-5q0 -53 61 -53h19q61 0 61 53z" />
    <glyph glyph-name="arrowleft" unicode="&#x2190;" horiz-adv-x="1185" 
d="M70 694l459 310q7 5 13.5 1.5t6.5 -12.5v-45q0 -14 -8 -25l-115 -155h688q14 0 22.5 -9t8.5 -22v-214q0 -13 -8.5 -22t-22.5 -9h-688l115 -155q8 -11 8 -25v-45q0 -9 -6.5 -12.5t-13.5 1.5l-459 310q-29 19 -29 49v30q0 30 29 49z" />
    <glyph glyph-name="arrowup" unicode="&#x2191;" horiz-adv-x="835" 
d="M402 1104h31q30 0 49 -29l309 -459q5 -8 1.5 -14t-12.5 -6h-45q-13 0 -24 8l-155 115v-688q0 -13 -9 -22t-22 -9h-215q-14 0 -22.5 9t-8.5 22v688l-155 -115q-11 -8 -24 -8h-45q-9 0 -12.5 6t1.5 14l309 459q19 29 49 29z" />
    <glyph glyph-name="arrowright" unicode="&#x2192;" horiz-adv-x="1185" 
d="M657 1004l459 -310q29 -19 29 -49v-30q0 -30 -29 -49l-459 -310q-7 -5 -13.5 -1.5t-6.5 12.5v45q0 14 8 25l115 155h-688q-14 0 -22.5 9t-8.5 22v214q0 13 8.5 22t22.5 9h688l-115 155q-8 11 -8 25v45q0 9 6.5 12.5t13.5 -1.5z" />
    <glyph glyph-name="arrowdown" unicode="&#x2193;" horiz-adv-x="835" 
d="M310 1077h215q14 0 22.5 -8.5t8.5 -21.5v-689l155 115q13 9 25 9h45q9 0 12 -7t-2 -14l-309 -459q-19 -29 -49 -29h-31q-30 0 -49 29l-309 459q-5 7 -1.5 14t12.5 7h45q11 0 24 -9l155 -115v689q0 13 8.5 21.5t22.5 8.5z" />
    <glyph glyph-name="uni2194" unicode="&#x2194;" horiz-adv-x="1677" 
d="M1149 1004l459 -310q29 -19 29 -49v-30q0 -30 -29 -49l-459 -310q-7 -5 -13.5 -1.5t-6.5 12.5v45q0 14 8 25l115 155h-826l115 -155q8 -11 8 -25v-45q0 -9 -6.5 -12.5t-13.5 1.5l-459 310q-29 19 -29 49v30q0 30 29 49l459 310q7 5 13.5 1.5t6.5 -12.5v-45q0 -14 -8 -25
l-115 -155h826l-115 155q-8 11 -8 25v45q0 9 6.5 12.5t13.5 -1.5z" />
    <glyph glyph-name="arrowupdn" unicode="&#x2195;" horiz-adv-x="835" 
d="M402 1569h31q30 0 49 -29l309 -459q5 -7 1.5 -14t-12.5 -7h-45q-11 0 -24 9l-155 115v-826l155 115q11 8 24 8h45q9 0 12.5 -6.5t-1.5 -14.5l-309 -458q-19 -29 -49 -29h-31q-30 0 -49 29l-309 458q-5 8 -1.5 14.5t12.5 6.5h45q13 0 24 -8l155 -115v826l-155 -115
q-13 -9 -24 -9h-45q-9 0 -12.5 7t1.5 14l309 459q19 29 49 29z" />
    <glyph glyph-name="uni2196" unicode="&#x2196;" horiz-adv-x="974" 
d="M134 882l543 -106q8 -2 10.5 -9t-3.5 -13l-32 -32q-11 -11 -23 -12l-191 -28l487 -487q21 -21 0 -43l-152 -152q-22 -22 -44 0l-486 487l-29 -192q-2 -13 -11 -23l-32 -32q-6 -6 -13.5 -3.5t-9.5 10.5l-105 544q-7 34 14 55l22 21q22 22 55 15z" />
    <glyph glyph-name="uni2197" unicode="&#x2197;" horiz-adv-x="974" 
d="M298 776l543 106q33 7 55 -15l22 -21q21 -21 14 -55l-105 -544q-2 -8 -9.5 -10.5t-13.5 3.5l-31 32q-11 11 -12 23l-28 192l-487 -487q-22 -22 -43 0l-152 152q-21 22 0 43l486 487l-191 28q-12 1 -23 12l-32 32q-6 6 -3.5 13t10.5 9z" />
    <glyph glyph-name="uni2198" unicode="&#x2198;" horiz-adv-x="974" 
d="M733 370l28 191q1 12 12 23l31 32q6 6 13.5 3.5t9.5 -10.5l105 -543q7 -34 -14 -55l-22 -22q-21 -21 -55 -14l-543 106q-8 2 -10.5 9t3.5 13l32 32q9 9 23 11l191 29l-486 486q-22 22 0 44l152 152q21 21 43 0z" />
    <glyph glyph-name="uni2199" unicode="&#x2199;" horiz-adv-x="974" 
d="M773 857l152 -152q22 -22 0 -44l-487 -486l191 -29q13 -2 23 -11l32 -32q6 -6 3.5 -13t-10.5 -9l-543 -106q-34 -7 -55 14l-22 22q-21 21 -14 55l105 543q2 8 9.5 10.5t13.5 -3.5l32 -32q9 -10 11 -23l29 -191l486 487q22 22 44 0z" />
    <glyph glyph-name="partialdiff" unicode="&#x2202;" horiz-adv-x="1132" 
d="M630 1536h8q67 0 131.5 -14.5t127 -49t107.5 -85t69 -129.5t16 -175l-57 -647q-20 -216 -167 -339.5t-350 -123.5h-22q-98 0 -183.5 31.5t-148 89t-95 146.5t-23.5 196l12 142q8 88 38.5 166.5t81 139t124.5 95.5t162 35h22q132 0 223 -86l15 153q9 100 -37.5 140.5
t-155.5 40.5h-10q-43 0 -93.5 -10t-85 -21t-102.5 -35q-13 -4 -21.5 3.5t-6.5 19.5l20 223q3 34 27 41q112 29 187 41t187 12zM663 420l25 272q-67 35 -125 35h-11q-56 0 -89 -42t-39 -118l-12 -147q-7 -83 24 -121.5t88 -38.5h10q115 0 129 160z" />
    <glyph glyph-name="emptyset" unicode="&#x2205;" horiz-adv-x="1179" 
d="M1018 1051l109 -111q23 -23 0 -43l-86 -86q84 -132 84 -299q0 -230 -154 -385t-387 -154q-164 1 -296 83l-83 -83q-24 -21 -45 0l-108 111q-23 23 0 43l80 81q-87 133 -86 304q1 152 70 274.5t192 193t276 71.5q169 1 304 -86l85 86q24 21 45 0zM343 512q0 -47 10 -83
l321 321q-42 14 -88 14q-109 0 -176 -68t-67 -184zM830 512q0 42 -9 78l-318 -318q38 -12 83 -12q108 0 176 68t68 184z" />
    <glyph glyph-name="product" unicode="&#x220f;" horiz-adv-x="1382" 
d="M72 1434h1239q13 0 21.5 -8.5t8.5 -22.5v-266q0 -14 -8.5 -22.5t-21.5 -8.5h-113v-1075q0 -13 -9 -22t-22 -9h-317q-14 0 -22.5 9t-8.5 22v1075h-256v-1075q0 -13 -8.5 -22t-22.5 -9h-317q-13 0 -22 9t-9 22v1075h-112q-14 0 -22.5 9t-8.5 22v266q0 13 8.5 22t22.5 9z
" />
    <glyph glyph-name="summation" unicode="&#x2211;" horiz-adv-x="1034" 
d="M993 1403v-266q0 -14 -8.5 -22.5t-21.5 -8.5h-416l252 -285q16 -19 16 -43v-123q0 -24 -16 -43l-252 -284h416q13 0 21.5 -8.5t8.5 -22.5v-266q0 -14 -8.5 -22.5t-21.5 -8.5h-891q-14 0 -22.5 9t-8.5 22v233q0 27 16 45l363 408l-363 407q-16 18 -16 45v234q0 13 8.5 22
t22.5 9h891q13 0 21.5 -8.5t8.5 -22.5z" />
    <glyph glyph-name="minus" unicode="&#x2212;" horiz-adv-x="1032" 
d="M72 764h889q13 0 21.5 -8.5t8.5 -22.5v-215q0 -14 -8.5 -22.5t-21.5 -8.5h-889q-14 0 -22.5 8.5t-8.5 22.5v215q0 13 8.5 22t22.5 9z" />
    <glyph glyph-name="radical" unicode="&#x221a;" horiz-adv-x="1452" 
d="M1073 1434h303q19 0 29 -13t4 -32l-430 -1369q-7 -20 -27 -20h-393q-20 0 -27 20l-228 728h-232q-14 0 -22.5 8.5t-8.5 21.5v215q0 13 8.5 22t22.5 9h495q20 0 27 -20l98 -330l62 -375h4l61 375l228 739q7 21 26 21z" />
    <glyph glyph-name="infinity" unicode="&#x221e;" horiz-adv-x="1429" 
d="M1063 1051h10q137 0 226.5 -105t89.5 -254v-20q0 -182 -94 -298t-273 -116h-10q-51 0 -96 13.5t-85.5 42t-72 58t-72.5 75.5q-133 -189 -319 -189h-11q-137 0 -226 104.5t-89 253.5v21q0 182 94 298t273 116h10q89 0 170 -49t162 -131q127 180 313 180zM1036 852h-6
q-30 0 -62 -24.5t-85 -98.5q56 -61 87.5 -87t57.5 -26h4q42 0 68 32.5t26 86.5v2q0 53 -25 84t-65 31zM401 692h-4q-42 0 -68 -32.5t-26 -86.5v-2q0 -53 25 -83.5t65 -30.5h6q31 0 65 26.5t91 107.5q-100 101 -154 101z" />
    <glyph glyph-name="integral" unicode="&#x222b;" horiz-adv-x="917" 
d="M856 1479q21 -11 21 -33v-205q0 -12 -9.5 -18.5t-21.5 -3.5q-104 30 -127 30h-10q-70 0 -70 -88v-1368q0 -141 -88 -223t-244 -82h-22q-100 0 -224 57q-20 10 -20 33v205q0 12 9.5 18.5t21.5 3.5q104 -30 127 -30h10q70 0 70 88v1368q0 141 88 223t243 82h23
q99 0 223 -57z" />
    <glyph glyph-name="approxequal" unicode="&#x2248;" horiz-adv-x="864" 
d="M274 887q46 0 90 -16t74 -34.5t71.5 -34.5t82.5 -16q77 0 194 64q14 8 25.5 1.5t11.5 -24.5v-129q0 -36 -32 -55q-110 -65 -203 -65q-55 0 -108 25t-105 50t-103 25q-77 0 -194 -64q-14 -8 -25.5 -1.5t-11.5 24.5v129q0 36 25 49q2 1 16.5 9t18.5 10.5t17.5 9.5t19.5 10
t19.5 8.5t21.5 8t21 6.5t24 5.5t24 3t26 1.5zM274 588q46 0 90 -16t74 -34.5t71.5 -34.5t82.5 -16q77 0 194 64q14 8 25.5 1.5t11.5 -24.5v-129q0 -36 -32 -55q-110 -65 -203 -65q-55 0 -108 25t-105 50t-103 25q-77 0 -194 -64q-14 -8 -25.5 -1.5t-11.5 24.5v129
q0 37 25 49q2 1 16.5 9t18.5 10.5t17.5 9.5t19.5 10t19.5 8.5t21.5 8t21 6.5t24 5.5t24 3t26 1.5z" />
    <glyph glyph-name="notequal" unicode="&#x2260;" horiz-adv-x="1032" 
d="M646 657l-52 -90h367q13 0 21.5 -8.5t8.5 -21.5v-148q0 -14 -8.5 -22.5t-21.5 -8.5h-488l-100 -174q-6 -12 -18.5 -15t-22.5 3l-105 59q-25 18 -10 43l49 84h-194q-14 0 -22.5 9t-8.5 22v148q0 13 8.5 21.5t22.5 8.5h314l52 90h-366q-14 0 -22.5 8.5t-8.5 22.5v148
q0 13 8.5 21.5t22.5 8.5h487l100 174q6 12 18.5 15.5t22.5 -2.5l105 -60q25 -18 10 -43l-48 -84h194q13 0 21.5 -8t8.5 -22v-148q0 -14 -8.5 -22.5t-21.5 -8.5h-315z" />
    <glyph glyph-name="lessequal" unicode="&#x2264;" horiz-adv-x="1032" 
d="M74 799l872 225q19 5 32 -4.5t13 -28.5v-131q0 -46 -45 -55l-530 -125l530 -127q45 -9 45 -55v-131q0 -19 -13 -28.5t-32 -4.5l-872 225q-33 10 -33 45v150q0 35 33 45zM72 283h889q13 0 21.5 -8.5t8.5 -22.5v-148q0 -14 -8.5 -22t-21.5 -8h-889q-14 0 -22.5 8.5
t-8.5 21.5v148q0 14 8.5 22.5t22.5 8.5z" />
    <glyph glyph-name="greaterequal" unicode="&#x2265;" horiz-adv-x="1032" 
d="M86 1024l872 -225q33 -10 33 -45v-150q0 -35 -33 -45l-872 -225q-19 -5 -32 4.5t-13 28.5v131q0 46 45 55l530 127l-530 125q-45 9 -45 55v131q0 19 13 28.5t32 4.5zM72 283h889q13 0 21.5 -8.5t8.5 -22.5v-148q0 -14 -8.5 -22t-21.5 -8h-889q-14 0 -22.5 8.5t-8.5 21.5
v148q0 14 8.5 22.5t22.5 8.5z" />
    <glyph glyph-name="lozenge" unicode="&#x25ca;" horiz-adv-x="937" 
d="M430 1434h78q32 0 55 -23l311 -311q23 -23 23 -56v-77q0 -33 -23 -56l-311 -311q-22 -22 -55 -22h-78q-33 0 -55 22l-312 311q-22 22 -22 56v77q0 34 22 56l312 311q23 23 55 23zM289 1006l180 -181l180 181l-180 180z" />
    </font>
</defs>
</svg>
