<?xml version="1.0" standalone="no"?>
<!DOCTYPE svg PUBLIC "-//W3C//DTD SVG 1.1//EN" "http://www.w3.org/Graphics/SVG/1.1/DTD/svg11.dtd" >
<svg xmlns="http://www.w3.org/2000/svg" xmlns:xlink="http://www.w3.org/1999/xlink" version="1.1">
<metadata>
Created by FontForge 20170731 at Thu Aug 13 18:28:11 2020
 By Aleksey,,,
Copyright (c) 2015 by Mariya Pigoulevskaya. All rights reserved.
</metadata>
<defs>
<font id="Webnar-Thin" horiz-adv-x="1083" >
  <font-face 
    font-family="Webnar Thin"
    font-weight="250"
    font-stretch="normal"
    units-per-em="2048"
    panose-1="0 0 3 0 0 0 0 0 0 0"
    ascent="1536"
    descent="-512"
    x-height="1024"
    cap-height="1434"
    bbox="-204.885 -512 2697 2220"
    underline-thickness="102"
    underline-position="-307"
    unicode-range="U+0020-FE6B"
  />
<missing-glyph horiz-adv-x="1024" 
d="M0 0v1434h1024v-1434h-1024zM512 809l348 522h-696zM573 717l349 -522v1044zM164 102h696l-348 523zM102 1239v-1044l349 522z" />
    <glyph glyph-name=".notdef" horiz-adv-x="1024" 
d="M0 0v1434h1024v-1434h-1024zM512 809l348 522h-696zM573 717l349 -522v1044zM164 102h696l-348 523zM102 1239v-1044l349 522z" />
    <glyph glyph-name=".null" horiz-adv-x="0" 
 />
    <glyph glyph-name="nonmarkingreturn" horiz-adv-x="682" 
 />
    <glyph glyph-name="space" unicode=" " horiz-adv-x="389" 
 />
    <glyph glyph-name="exclam" unicode="!" horiz-adv-x="256" 
d="M109 1434h38q11 0 11 -11l-6 -1026q0 -10 -11 -10h-26q-11 0 -11 10l-6 1026q0 11 11 11zM94 104h68q12 0 12 -12v-80q0 -12 -12 -12h-68q-12 0 -12 12v80q0 12 12 12z" />
    <glyph glyph-name="quotedbl" unicode="&#x22;" horiz-adv-x="452" 
d="M92 1434h39q10 0 10 -11l-6 -389q0 -10 -10 -10h-27q-10 0 -10 10l-6 389q0 11 10 11zM322 1434h38q11 0 11 -11l-6 -389q0 -10 -11 -10h-26q-11 0 -11 10l-6 389q0 11 11 11z" />
    <glyph glyph-name="numbersign" unicode="#" horiz-adv-x="1107" 
d="M807 907h205q16 0 13 -14l-6 -21q-3 -14 -19 -14h-206l-74 -283h206q16 0 13 -14l-6 -20q-4 -15 -19 -15h-207l-135 -512q-4 -14 -20 -14h-21q-17 0 -12 18l134 508h-300l-135 -512q-4 -14 -21 -14h-20q-17 0 -12 18l133 508h-205q-14 0 -10 15l4 20q3 14 18 14h206
l75 283h-207q-13 0 -10 14l4 21q3 14 20 14h205l135 512q4 15 21 15h20q17 0 12 -19l-133 -508h300l135 512q4 15 20 15h20q18 0 13 -19zM740 858h-300l-75 -283h300z" />
    <glyph glyph-name="dollar" unicode="$" horiz-adv-x="1124" 
d="M510 784l104 -34q52 -17 87.5 -30.5t79.5 -34.5t73 -41.5t59 -50t48 -62.5t29 -77t11 -96v-20q0 -160 -122 -261t-308 -104v-249q0 -11 -10 -11h-31q-10 0 -10 11v250q-101 3 -194.5 34t-161.5 70q-12 6 -12 20v27q0 4 3.5 6t6.5 0q195 -108 381 -108h16
q170 0 280.5 89.5t110.5 237.5v8q0 45 -10 83t-24.5 66.5t-42.5 54t-53.5 43t-68.5 36.5t-75.5 31t-85.5 30l-105 35q-180 60 -271 142t-91 215v22q0 103 59 182.5t147.5 119t190.5 42.5v250q0 10 10 10h31q10 0 10 -10v-250q181 -5 336 -94q13 -6 13 -20v-27q0 -4 -4 -6
t-7 0q-177 98 -356 98h-16q-91 0 -172 -33.5t-136 -105t-55 -168.5v-10q0 -113 80 -182t256 -128z" />
    <glyph glyph-name="percent" unicode="%" horiz-adv-x="1945" 
d="M436 635h-22q-156 0 -244 105t-88 278v59q0 173 88 278t244 105h22q156 0 244 -105t88 -278v-59q0 -173 -88 -278t-244 -105zM647 0h-22q-20 0 -13 18l666 1401q8 15 20 15h23q9 0 12 -5.5t0 -13.5l-665 -1401q-7 -14 -21 -14zM416 684h18q135 0 209 91.5t74 240.5v63
q0 149 -74 240.5t-209 91.5h-18q-135 0 -209 -91.5t-74 -240.5v-63q0 -149 74 -240.5t209 -91.5zM1509 799h23q156 0 244 -105t88 -278v-60q0 -173 -88 -278t-244 -105h-23q-156 0 -243.5 105t-87.5 278v60q0 173 87.5 278t243.5 105zM1530 750h-19q-134 0 -208 -91.5
t-74 -240.5v-64q0 -149 73.5 -240t208.5 -91h19q135 0 208.5 91t73.5 240v64q0 149 -74 240.5t-208 91.5z" />
    <glyph glyph-name="ampersand" unicode="&#x26;" horiz-adv-x="1398" 
d="M573 1460h15q125 0 229 -49q12 -6 12 -20v-27q0 -4 -3.5 -6t-6.5 0q-114 53 -233 53h-11q-162 0 -263 -85.5t-101 -225.5v-21q0 -53 22 -105t66.5 -99t123 -76t179.5 -29l354 -1v466q0 14 9 16l26 6q17 4 17 -10v-478l319 -1q10 0 10 -10v-29q0 -10 -10 -10l-319 1v-517
q0 -93 36.5 -136.5t122.5 -43.5h9q67 0 147 34q6 3 10 -0.5t4 -9.5v-20q0 -14 -12 -19q-80 -35 -147 -35h-13q-183 0 -205 175q-84 -74 -192 -124.5t-225 -50.5h-21q-192 0 -306 109.5t-114 273.5v43q0 53 16.5 105t50 102t94 89t140.5 58q-119 43 -181 131.5t-62 182.5v45
q0 155 115.5 251.5t297.5 96.5zM956 720l-393 1q-92 0 -164.5 -21.5t-117.5 -55t-74.5 -78.5t-41 -89t-11.5 -90v-18q0 -150 98.5 -248t271.5 -98h17q202 0 415 190v507z" />
    <glyph glyph-name="quotesingle" unicode="'" horiz-adv-x="223" 
d="M92 1434h39q10 0 10 -11l-6 -389q0 -10 -10 -10h-27q-10 0 -10 10l-6 389q0 11 10 11z" />
    <glyph glyph-name="parenleft" unicode="(" horiz-adv-x="514" 
d="M215 1036v-899q0 -95 18 -165t51 -111t65 -63t73 -36q10 -3 10 -10v-28q0 -5 -3 -8.5t-7 -2.5q-114 25 -186 125.5t-72 270.5v956q0 170 71.5 270t186.5 125q4 1 7 -2t3 -8v-29q0 -7 -10 -10q-41 -14 -73 -36t-65 -63t-51 -111t-18 -165z" />
    <glyph glyph-name="parenright" unicode=")" horiz-adv-x="514" 
d="M299 137v899q0 95 -18 165t-51 111t-65 63t-73 36q-10 3 -10 10v29q0 5 3 8t7 2q115 -25 186.5 -125t71.5 -270v-956q0 -170 -72 -270.5t-186 -125.5q-4 -1 -7 2.5t-3 8.5v28q0 7 10 10q41 14 73 36t65 63t51 111t18 165z" />
    <glyph glyph-name="asterisk" unicode="*" horiz-adv-x="823" 
d="M728 1235l12 -39q4 -11 -6 -14l-283 -95l201 -229q7 -7 0 -14l-33 -27q-8 -6 -14 0l-194 243l-193 -243q-6 -6 -14 0l-33 27q-7 7 0 14l201 229l-283 95q-10 3 -6 14l12 39q4 13 16 8l276 -109l-7 289q0 11 10 11h43q10 0 10 -11l-7 -289l275 109q13 5 17 -8z" />
    <glyph glyph-name="plus" unicode="+" horiz-adv-x="1116" 
d="M584 686h440q10 0 10 -10v-29q0 -10 -10 -10h-440v-389q0 -10 -11 -10h-30q-11 0 -11 10v389h-440q-10 0 -10 10v29q0 10 10 10h440v389q0 10 11 10h30q11 0 11 -10v-389z" />
    <glyph glyph-name="comma" unicode="," horiz-adv-x="278" 
d="M113 104h71q13 0 13 -12v-69q0 -13 -2 -21l-62 -336q0 -8 -10 -8h-31q-10 0 -10 15v3l59 324h-28q-13 0 -13 12v80q0 12 13 12z" />
    <glyph glyph-name="hyphen" unicode="-" horiz-adv-x="802" 
d="M92 686h619q10 0 10 -10v-29q0 -10 -10 -10h-619q-10 0 -10 10v29q0 10 10 10z" />
    <glyph glyph-name="period" unicode="." horiz-adv-x="256" 
d="M94 104h68q12 0 12 -12v-80q0 -12 -12 -12h-68q-12 0 -12 12v80q0 12 12 12z" />
    <glyph glyph-name="slash" unicode="/" horiz-adv-x="589" 
d="M473 1434h20q17 0 12 -19l-368 -1401q-3 -14 -21 -14h-20q-18 0 -13 18l369 1401q4 15 21 15z" />
    <glyph glyph-name="zero" unicode="0" horiz-adv-x="1345" 
d="M657 1460h31q226 0 360 -154t134 -454v-270q0 -300 -134 -454.5t-360 -154.5h-31q-225 0 -359 154.5t-134 454.5v270q0 300 133.5 454t359.5 154zM686 1411h-27q-205 0 -324.5 -142.5t-119.5 -428.5v-246q0 -286 119.5 -428.5t324.5 -142.5h27q205 0 324.5 142.5
t119.5 428.5v246q0 286 -119.5 428.5t-324.5 142.5z" />
    <glyph glyph-name="one" unicode="1" horiz-adv-x="768" 
d="M420 49h256q10 0 10 -10v-29q0 -10 -10 -10h-584q-10 0 -10 10v29q0 10 10 10h277v1325l-277 -117q-10 -3 -10 9v30q0 14 10 17l275 117q8 4 20 4h23q10 0 10 -11v-1374z" />
    <glyph glyph-name="two" unicode="2" horiz-adv-x="1124" 
d="M193 49h798q10 0 10 -10v-29q0 -10 -10 -10h-858q-10 0 -10 10v33q0 8 4 12l360 371q183 187 255 274q186 224 186 363v10q0 83 -31.5 149.5t-84 106.5t-116 61t-131.5 21h-16q-179 0 -356 -98q-3 -2 -7 0t-4 6v27q0 14 13 20q68 39 160.5 66.5t191.5 27.5h20
q78 0 150.5 -24t131.5 -69t94.5 -118.5t35.5 -163.5v-22q0 -74 -37.5 -159t-114.5 -181t-122.5 -146.5t-131.5 -137.5q-21 -21 -30 -31z" />
    <glyph glyph-name="three" unicode="3" horiz-adv-x="1089" 
d="M687 753q65 -15 117 -44t85.5 -64.5t56 -78t32 -84t9.5 -83.5v-43q0 -162 -128 -272.5t-333 -110.5h-20q-200 0 -365 95q-12 6 -12 20v27q0 4 3.5 6t6.5 0q177 -98 369 -98h16q185 0 298.5 99t113.5 247v18q0 46 -11.5 90t-41.5 89t-74.5 79t-117.5 55.5t-165 21.5h-190
q-10 0 -10 10v28q0 10 10 10h151q82 0 149.5 19.5t111.5 51t74.5 72.5t43.5 82.5t13 83.5v21q0 140 -103 225.5t-268 85.5h-16q-182 0 -359 -98q-3 -2 -6.5 0t-3.5 6v27q0 14 12 20q68 39 161 66.5t193 27.5h21q185 0 302.5 -96.5t117.5 -251.5v-45q0 -94 -62 -182.5
t-181 -131.5z" />
    <glyph glyph-name="four" unicode="4" horiz-adv-x="1214" 
d="M806 1434h50q10 0 10 -11v-974h256q11 0 11 -11v-28q0 -11 -11 -11h-256v-389q0 -10 -10 -10h-31q-10 0 -10 10v389h-723q-10 0 -10 11v32q0 9 4 13l698 968q7 11 22 11zM145 449h670v928z" />
    <glyph glyph-name="five" unicode="5" horiz-adv-x="1089" 
d="M553 838q112 0 197.5 -33t136 -91t75.5 -131t25 -159v-39q0 -172 -127 -292t-334 -120h-20q-107 0 -205 28t-166 67q-12 6 -12 20v27q0 4 3.5 6t6.5 0q177 -98 375 -98h16q188 0 300 108t112 266v15q0 81 -21 147t-65 118.5t-120 81.5t-179 29q-53 0 -115 -11
t-133.5 -28.5t-89.5 -21.5q-16 -3 -25 10l-12 17q-4 8 -4 14v655q0 11 10 11h695q10 0 10 -11v-28q0 -11 -10 -11h-654v-601q2 0 43.5 10t56 13t53.5 11t62.5 11.5t56 6.5t58.5 3z" />
    <glyph glyph-name="six" unicode="6" horiz-adv-x="1185" 
d="M662 852q197 0 309 -109.5t112 -283.5v-39q0 -88 -30 -168t-84.5 -142.5t-140 -99.5t-189.5 -37h-18q-210 0 -333.5 157.5t-123.5 422.5v39q0 151 17 276.5t45.5 213.5t69.5 156.5t84.5 109.5t94.5 67t96 35.5t93 9.5h20q159 0 322 -94q12 -6 12 -20v-27q0 -4 -3.5 -6
t-6.5 0q-86 48 -159 73t-167 25h-16q-39 0 -76 -7.5t-80 -27.5t-80.5 -52.5t-73.5 -86.5t-63.5 -124t-47 -171t-26.5 -222q97 56 215 94t228 38zM1032 432v14q0 162 -97.5 259.5t-275.5 97.5q-201 0 -443 -144l-1 -94q0 -251 109 -396.5t299 -145.5h14q124 0 215.5 58
t135.5 149.5t44 201.5z" />
    <glyph glyph-name="seven" unicode="7" 
d="M92 1434h899q10 0 10 -11v-32q0 -7 -4 -13l-518 -678q-6 -9 -6 -18v-672q0 -10 -10 -10h-31q-10 0 -10 10v690q0 10 6 19l508 665h-844q-10 0 -10 11v28q0 11 10 11z" />
    <glyph glyph-name="eight" unicode="8" horiz-adv-x="1202" 
d="M592 1460h18q193 0 312.5 -96.5t119.5 -251.5v-45q0 -94 -62 -182.5t-182 -131.5q81 -19 141.5 -59t94.5 -90t50 -101.5t16 -103.5v-43q0 -163 -132 -273t-352 -110h-30q-220 0 -352 110t-132 273v43q0 52 16.5 103.5t50 101.5t94.5 90t141 59q-120 43 -182 131.5
t-62 182.5v45q0 155 119.5 251.5t312.5 96.5zM608 1411h-14q-173 0 -278 -85t-105 -226v-21q0 -52 21 -104t63 -99t116 -76.5t169 -29.5h32q98 0 174.5 29.5t119 76.5t64 99t21.5 104v21q0 141 -105 226t-278 85zM637 721h-72q-93 0 -166 -21.5t-118 -55.5t-74.5 -79.5
t-41 -89t-11.5 -88.5v-18q0 -149 117 -247.5t317 -98.5h26q200 0 317.5 98.5t117.5 247.5v18q0 37 -8.5 73.5t-26.5 75t-50.5 71t-76.5 58.5t-108 41t-142 15z" />
    <glyph glyph-name="nine" unicode="9" horiz-adv-x="1185" 
d="M547 1460h18q210 0 333.5 -157t123.5 -422v-39q0 -151 -17 -276.5t-45.5 -214t-69.5 -156.5t-84.5 -109t-94.5 -67.5t-96 -36t-93 -9.5h-20q-157 0 -322 95q-12 6 -12 20v27q0 4 3.5 6t6.5 0q86 -48 159 -73t167 -25h16q39 0 76 7.5t80 27.5t80.5 52.5t73.5 86.5
t63.5 124t47 171t26.5 222q-97 -56 -215 -94t-228 -38q-197 0 -309.5 109.5t-112.5 283.5v39q0 88 30 168t85 142t140.5 99t189.5 37zM563 1411h-14q-94 0 -170 -33.5t-124.5 -91t-74.5 -130.5t-26 -155v-14q0 -162 97 -259t275 -97q204 0 444 143l1 94q0 251 -109 397
t-299 146z" />
    <glyph glyph-name="colon" unicode=":" horiz-adv-x="256" 
d="M94 901h68q12 0 12 -12v-80q0 -12 -12 -12h-68q-12 0 -12 12v80q0 12 12 12zM94 104h68q12 0 12 -12v-80q0 -12 -12 -12h-68q-12 0 -12 12v80q0 12 12 12z" />
    <glyph glyph-name="semicolon" unicode=";" horiz-adv-x="278" 
d="M117 901h67q13 0 13 -12v-80q0 -12 -13 -12h-67q-12 0 -12 12v80q0 12 12 12zM113 104h71q13 0 13 -12v-69q0 -13 -2 -21l-62 -336q0 -8 -10 -8h-31q-10 0 -10 15v3l59 324h-28q-13 0 -13 12v80q0 12 13 12z" />
    <glyph glyph-name="less" unicode="&#x3c;" horiz-adv-x="1114" 
d="M92 598l922 352q7 3 12.5 -0.5t5.5 -11.5v-23q0 -13 -10 -16l-860 -328l860 -327q10 -3 10 -17v-22q0 -8 -5.5 -11.5t-12.5 -0.5l-922 352q-10 3 -10 16v21q0 13 10 16z" />
    <glyph glyph-name="equal" unicode="=" horiz-adv-x="1114" 
d="M92 795h930q10 0 10 -11v-28q0 -11 -10 -11h-930q-10 0 -10 11v28q0 11 10 11zM92 508h930q10 0 10 -10v-29q0 -10 -10 -10h-930q-10 0 -10 10v29q0 10 10 10z" />
    <glyph glyph-name="greater" unicode="&#x3e;" horiz-adv-x="1114" 
d="M100 950l922 -352q10 -3 10 -16v-21q0 -13 -10 -16l-922 -352q-7 -3 -12.5 0.5t-5.5 11.5v22q0 14 10 17l860 327l-860 328q-10 3 -10 16v23q0 8 5.5 11.5t12.5 0.5z" />
    <glyph glyph-name="question" unicode="?" horiz-adv-x="1028" 
d="M465 1460h20q209 0 335 -111t126 -274v-39q0 -158 -116.5 -270.5t-317.5 -112.5q-56 0 -127 11l-2 -267q0 -10 -10 -10h-27q-10 0 -10 10l-2 289q0 11 8 16l12 9q8 6 27 4q8 -1 28.5 -5t41.5 -6t47 -2q99 0 177 29t125 78t71 110t24 130v14q0 150 -111 249t-301 99h-16
q-198 0 -375 -98q-3 -2 -6.5 0t-3.5 6v27q0 14 12 20q67 39 165 66.5t206 27.5zM326 104h67q13 0 13 -12v-80q0 -12 -13 -12h-67q-13 0 -13 12v80q0 12 13 12z" />
    <glyph glyph-name="at" unicode="@" horiz-adv-x="1732" 
d="M809 1327h299q287 0 445.5 -152t158.5 -456v-553q0 -51 -14.5 -89t-34.5 -57t-47.5 -30.5t-45.5 -14t-36 -2.5h-64q-17 0 -37.5 4t-46 15.5t-46 30.5t-34.5 52.5t-14 76.5q-75 -89 -172.5 -134t-185.5 -45h-8q-188 0 -286.5 118t-98.5 345v152q0 223 106 343t289 120h12
q88 0 201 -36t182 -77q12 -9 12 -23v-722q0 -54 13 -90.5t34.5 -52t40 -21.5t39.5 -6h64q21 0 39.5 6t40 21.5t34.5 52t13 90.5v514q0 289 -144 430t-411 141h-295q-267 0 -411 -141t-144 -430v-381q0 -289 144 -430.5t411 -141.5h483q11 0 11 -10v-29q0 -10 -11 -10h-485
q-287 0 -445.5 152t-158.5 456v406q0 304 158.5 456t445.5 152zM946 1001h-8q-162 0 -254 -106.5t-92 -304.5v-156q0 -202 84.5 -306.5t251.5 -104.5h4q193 0 360 198v676q-178 104 -346 104z" />
    <glyph glyph-name="A" unicode="A" horiz-adv-x="1249" 
d="M605 1434h39q15 0 22 -17l500 -1407q3 -10 -6 -10h-29q-16 0 -22 16l-169 476h-631l-169 -476q-6 -16 -23 -16h-28q-9 0 -6 10l499 1407q6 15 23 17zM621 1376l-215 -612l-80 -223h596l-80 223l-216 612h-5z" />
    <glyph glyph-name="B" unicode="B" horiz-adv-x="1234" 
d="M841 753q152 -35 222 -133.5t70 -230.5v-39q0 -165 -101.5 -257.5t-322.5 -92.5h-494q-10 0 -10 10v1413q0 11 10 11h440q420 0 420 -334v-33q0 -103 -59 -188t-175 -126zM1024 1079v8q0 147 -87 222t-284 75h-397v-614h377q102 0 179.5 25.5t122.5 70t67 98t22 115.5z
M1081 362v15q0 56 -11.5 104.5t-41 93.5t-74.5 76.5t-117 50.5t-165 19h-416v-672h451q202 0 288 81t86 232z" />
    <glyph glyph-name="C" unicode="C" horiz-adv-x="1218" 
d="M735 1460h21q96 0 188.5 -27.5t159.5 -66.5q12 -6 12 -20v-27q0 -4 -3.5 -6t-6.5 0q-177 98 -352 98h-17q-104 0 -196.5 -37t-166 -108t-116.5 -185.5t-43 -257.5v-213q0 -143 43 -257.5t116.5 -185t166 -107.5t196.5 -37h17q175 0 352 98q3 2 6.5 0t3.5 -6v-27
q0 -14 -12 -20q-68 -39 -160 -67t-188 -28h-21q-114 0 -215.5 40.5t-181.5 116t-127 197t-47 271.5v238q0 150 47 271t127 197t181.5 116t215.5 40z" />
    <glyph glyph-name="D" unicode="D" horiz-adv-x="1366" 
d="M215 1434h457q114 0 209.5 -37.5t167.5 -111t112.5 -191.5t40.5 -269v-217q0 -151 -40.5 -269t-112.5 -191t-167.5 -110.5t-209.5 -37.5h-457q-10 0 -10 10v1413q0 11 10 11zM1151 621v192q0 144 -36.5 255t-102.5 179t-152 102.5t-190 34.5h-414v-1335h414
q104 0 190.5 34.5t152 103t102 179.5t36.5 255z" />
    <glyph glyph-name="E" unicode="E" horiz-adv-x="1155" 
d="M256 766h745q11 0 11 -10v-29q0 -10 -11 -10h-745v-668h786q11 0 11 -10v-29q0 -10 -11 -10h-827q-10 0 -10 10v1413q0 11 10 11h827q11 0 11 -11v-28q0 -11 -11 -11h-786v-618z" />
    <glyph glyph-name="F" unicode="F" horiz-adv-x="1155" 
d="M215 1434h827q11 0 11 -11v-28q0 -11 -11 -11h-786v-618h745q11 0 11 -10v-29q0 -10 -11 -10h-745v-707q0 -10 -10 -10h-31q-10 0 -10 10v1413q0 11 10 11z" />
    <glyph glyph-name="G" unicode="G" horiz-adv-x="1337" 
d="M762 1460h20q96 0 189 -27.5t160 -66.5q12 -6 12 -20v-27q0 -4 -3.5 -6t-6.5 0q-177 98 -353 98h-16q-85 0 -164.5 -23t-149.5 -71t-122 -116t-82.5 -165.5t-30.5 -212.5v-213q0 -115 30.5 -212.5t82.5 -165.5t122 -116t149.5 -70.5t164.5 -22.5h16q160 0 312 76v585
q0 10 10 10h31q10 0 10 -10v-596q0 -14 -12 -20q-68 -39 -160.5 -67t-188.5 -28h-20q-93 0 -180 25t-163.5 76.5t-133.5 124.5t-89.5 175.5t-31.5 223.5v238q0 121 33 223.5t90 175.5t133 124.5t162.5 76t179.5 24.5z" />
    <glyph glyph-name="H" unicode="H" horiz-adv-x="1398" 
d="M1153 1434h31q10 0 10 -11v-1413q0 -10 -10 -10h-31q-10 0 -10 10v707h-887v-707q0 -10 -10 -10h-31q-10 0 -10 10v1413q0 11 10 11h31q10 0 10 -11v-657h887v657q0 11 10 11z" />
    <glyph glyph-name="I" unicode="I" horiz-adv-x="460" 
d="M215 1434h31q10 0 10 -11v-1413q0 -10 -10 -10h-31q-10 0 -10 10v1413q0 11 10 11z" />
    <glyph glyph-name="J" unicode="J" horiz-adv-x="796" 
d="M551 1434h31q10 0 10 -11v-1108q0 -175 -72.5 -258.5t-202.5 -83.5h-10q-53 0 -112.5 18.5t-102.5 47.5q-10 7 -10 18v31q0 5 4 7t8 -1q107 -71 215 -71h6q109 0 167.5 72t58.5 233v1095q0 11 10 11z" />
    <glyph glyph-name="K" unicode="K" horiz-adv-x="1236" 
d="M596 725l557 -709q3 -4 1.5 -10t-7.5 -6h-37q-8 0 -14 6l-548 694h-292v-690q0 -10 -10 -10h-31q-10 0 -10 10v1413q0 11 10 11h31q10 0 10 -11v-673h293l506 677q7 7 14 7h35q6 0 7.5 -6t-1.5 -11z" />
    <glyph glyph-name="L" unicode="L" horiz-adv-x="1093" 
d="M256 49h745q11 0 11 -10v-29q0 -10 -11 -10h-786q-10 0 -10 10v1413q0 11 10 11h31q10 0 10 -11v-1374z" />
    <glyph glyph-name="M" unicode="M" horiz-adv-x="1699" 
d="M1450 1434h35q10 0 10 -11v-1413q0 -10 -10 -10h-31q-10 0 -10 10v1329h-4l-293 -475l-277 -438q-6 -12 -20 -12h-10q-15 0 -21 12l-276 438l-293 475h-4v-1329q0 -10 -10 -10h-31q-10 0 -10 10v1413q0 11 10 11h35q14 0 20 -13l583 -936h3l584 936q6 13 20 13z" />
    <glyph glyph-name="N" unicode="N" horiz-adv-x="1396" 
d="M1161 1434h31q10 0 10 -11v-1413q0 -10 -10 -10h-43q-11 0 -16 8l-885 1346h-2v-1344q0 -10 -10 -10h-31q-10 0 -10 10v1413q0 11 10 11h43q10 0 16 -9l885 -1345h2v1343q0 11 10 11z" />
    <glyph glyph-name="O" unicode="O" horiz-adv-x="1419" 
d="M694 1460h31q114 0 209.5 -37.5t167.5 -110.5t112.5 -191t40.5 -269v-270q0 -151 -40.5 -269t-112.5 -191.5t-167.5 -111t-209.5 -37.5h-31q-114 0 -209.5 37.5t-167.5 111t-112.5 191.5t-40.5 269v270q0 151 40.5 269t112.5 191t167.5 110.5t209.5 37.5zM723 1411h-27
q-104 0 -190 -34.5t-152 -102.5t-102.5 -179t-36.5 -255v-246q0 -144 36.5 -255t102.5 -179t152 -102.5t190 -34.5h27q104 0 190 34.5t152 102.5t102.5 179t36.5 255v246q0 144 -36.5 255t-102.5 179t-152 102.5t-190 34.5z" />
    <glyph glyph-name="P" unicode="P" horiz-adv-x="1290" 
d="M215 1434h401q264 0 387 -104t123 -292v-49q0 -92 -28.5 -167.5t-88 -135t-159.5 -92.5t-234 -33h-360v-551q0 -10 -10 -10h-31q-10 0 -10 10v1413q0 11 10 11zM1075 1001v25q0 173 -108 265.5t-353 92.5h-358v-774h358q124 0 215 30t143.5 84t77.5 123t25 154z" />
    <glyph glyph-name="Q" unicode="Q" horiz-adv-x="1419" 
d="M1255 852v-270q0 -199 -68 -336t-189 -206l253 -253q7 -7 0 -14l-22 -21q-7 -8 -15 0l-264 265q-103 -44 -225 -44h-31q-114 0 -209.5 37.5t-167.5 111t-112.5 191.5t-40.5 269v270q0 151 40.5 269t112.5 191t167.5 110.5t209.5 37.5h31q114 0 209.5 -37.5t167.5 -110.5
t112.5 -191t40.5 -269zM696 23h27q104 0 190 34.5t152 102.5t102.5 179t36.5 255v246q0 144 -36.5 255t-102.5 179t-152 102.5t-190 34.5h-27q-104 0 -190 -34.5t-152 -102.5t-102.5 -179t-36.5 -255v-246q0 -144 36.5 -255t102.5 -179t152 -102.5t190 -34.5z" />
    <glyph glyph-name="R" unicode="R" horiz-adv-x="1257" 
d="M215 1434h412q265 0 382 -97t117 -284v-39q0 -73 -22 -137.5t-66.5 -119.5t-120 -93t-174.5 -53l431 -599q4 -4 1.5 -8t-8.5 -4h-34q-12 0 -19 10l-426 592h-432v-592q0 -10 -10 -10h-31q-10 0 -10 10v1413q0 11 10 11zM256 1384v-733h358q123 0 214.5 30t144 83.5
t77.5 118.5t25 143v14q0 85 -23 146.5t-74.5 107t-139 68t-213.5 22.5h-369z" />
    <glyph glyph-name="S" unicode="S" horiz-adv-x="1124" 
d="M485 737l105 -35q53 -18 85.5 -30t75.5 -31t68.5 -36.5t53.5 -43t42.5 -54t24.5 -66.5t10 -83v-8q0 -148 -110.5 -237.5t-280.5 -89.5h-16q-186 0 -381 108q-3 2 -6.5 0t-3.5 -6v-27q0 -14 12 -20q182 -105 377 -105h20q190 0 315 101.5t125 263.5v20q0 52 -11 96t-29 77
t-48 62.5t-59 50t-73 41.5t-79.5 34.5t-87.5 30.5l-104 34q-176 59 -256 128t-80 182v10q0 97 55 168.5t136 105t172 33.5h16q179 0 356 -98q3 -2 7 0t4 6v27q0 14 -13 20q-68 39 -160.5 66.5t-191.5 27.5h-20q-104 0 -196.5 -39t-154 -119t-61.5 -186v-22q0 -133 91 -215
t271 -142z" />
    <glyph glyph-name="T" unicode="T" horiz-adv-x="1226" 
d="M92 1434h1043q10 0 10 -11v-28q0 -11 -10 -11h-496v-1374q0 -10 -10 -10h-31q-10 0 -10 10v1374h-496q-10 0 -10 11v28q0 11 10 11z" />
    <glyph glyph-name="U" unicode="U" horiz-adv-x="1409" 
d="M1176 1434h28q10 0 10 -11v-915q0 -260 -130.5 -397.5t-358.5 -137.5h-31q-228 0 -358.5 137.5t-130.5 397.5v915q0 11 10 11h29q10 0 10 -11v-903q0 -246 116 -371.5t326 -125.5h27q210 0 326 125.5t116 371.5v903q0 11 11 11z" />
    <glyph glyph-name="V" unicode="V" horiz-adv-x="1232" 
d="M1115 1434h29q10 0 6 -11l-492 -1407q-6 -16 -22 -16h-39q-17 2 -23 16l-491 1407q-4 11 6 11h28q16 0 23 -17l474 -1360h5l172 492l301 868q7 17 23 17z" />
    <glyph glyph-name="W" unicode="W" horiz-adv-x="1966" 
d="M1850 1434h27q10 0 6 -11l-418 -1407q-6 -16 -24 -16h-35q-19 0 -25 16l-164 553l-231 789h-6l-232 -789l-164 -553q-6 -16 -24 -16h-35q-19 0 -25 16l-417 1407q-4 11 6 11h26q16 0 23 -17l401 -1358h6l238 803l164 555q7 17 22 17h27q16 0 23 -17l163 -555l239 -803h5
l402 1358q7 17 22 17z" />
    <glyph glyph-name="X" unicode="X" horiz-adv-x="1187" 
d="M1048 1434h35q5 0 8 -4.5t0 -8.5l-459 -690l473 -719q3 -4 0 -8t-8 -4h-35q-11 0 -18 10l-446 682h-7l-446 -682q-7 -10 -19 -10h-35q-5 0 -8 4t0 8l473 719l-458 690q-3 4 0 8.5t8 4.5h35q11 0 18 -11l322 -487l110 -166h7l110 166l321 487q7 11 19 11z" />
    <glyph glyph-name="Y" unicode="Y" horiz-adv-x="1255" 
d="M1131 1434h35q4 0 6 -4t0 -7l-520 -927v-486q0 -10 -10 -10h-29q-10 0 -10 10v486l-520 927q-2 3 0 7t6 4h35q14 0 20 -13l481 -858h5l481 858q7 13 20 13z" />
    <glyph glyph-name="Z" unicode="Z" horiz-adv-x="1159" 
d="M174 49h862q11 0 11 -10v-29q0 -10 -11 -10h-913q-10 0 -10 10v33q0 4 4 12l858 1329h-823q-11 0 -11 11v28q0 11 11 11h874q10 0 10 -11v-32q0 -5 -4 -13z" />
    <glyph glyph-name="bracketleft" unicode="[" horiz-adv-x="638" 
d="M256 -211h291q10 0 10 -10v-29q0 -10 -10 -10h-332q-10 0 -10 10v1673q0 11 10 11h332q10 0 10 -11v-28q0 -11 -10 -11h-291v-1595z" />
    <glyph glyph-name="backslash" unicode="\" horiz-adv-x="589" 
d="M96 1434h20q17 0 21 -15l368 -1401q5 -18 -12 -18h-20q-17 0 -21 14l-369 1401q-5 19 13 19z" />
    <glyph glyph-name="bracketright" unicode="]" horiz-adv-x="638" 
d="M92 1434h332q10 0 10 -11v-1673q0 -10 -10 -10h-332q-10 0 -10 10v29q0 10 10 10h291v1595h-291q-10 0 -10 11v28q0 11 10 11z" />
    <glyph glyph-name="asciicircum" unicode="^" horiz-adv-x="755" 
d="M405 1450l268 -700q3 -7 -0.5 -13t-11.5 -6h-23q-13 0 -16 10l-242 639h-4l-242 -639q-3 -10 -16 -10h-23q-8 0 -11.5 6t-0.5 13l268 700q3 10 17 10h20q14 0 17 -10z" />
    <glyph glyph-name="underscore" unicode="_" horiz-adv-x="1114" 
d="M92 -96h930q10 0 10 -10v-29q0 -10 -10 -10h-930q-10 0 -10 10v29q0 10 10 10z" />
    <glyph glyph-name="grave" unicode="`" horiz-adv-x="368" 
d="M141 1948l145 -324q3 -6 0.5 -11t-8.5 -5h-17q-13 0 -20 14l-158 322q-3 7 0.5 12.5t11.5 5.5h23q16 0 23 -14z" />
    <glyph glyph-name="a" unicode="a" horiz-adv-x="999" 
d="M498 1051h12q179 0 254.5 -94t75.5 -289v-658q0 -10 -11 -10h-30q-11 0 -11 10v142q-75 -89 -172.5 -134t-185.5 -45h-12q-153 0 -244.5 78.5t-91.5 214.5v8q0 166 118 245t361 87l227 7v57q0 170 -61.5 250.5t-218.5 80.5h-8q-162 0 -328 -88q-3 -2 -6.5 0.5t-3.5 6.5
v26q0 15 12 21q63 35 156 59.5t168 24.5zM788 562l-258 -9q-203 -7 -300 -76t-97 -203v-10q0 -110 77.5 -175.5t209.5 -65.5h8q193 0 360 198v341z" />
    <glyph glyph-name="b" unicode="b" horiz-adv-x="1120" 
d="M573 1051h9q189 0 292 -119t103 -344v-152q0 -222 -110.5 -342.5t-295.5 -120.5h-12q-88 0 -201 36t-182 77q-12 9 -12 23v1390q0 10 10 10h31q10 0 10 -10v-627q75 89 172.5 134t185.5 45zM926 434v156q0 200 -89 305.5t-257 105.5h-5q-193 0 -360 -198v-676
q178 -104 346 -104h8q163 0 260 107t97 304z" />
    <glyph glyph-name="c" unicode="c" horiz-adv-x="1038" 
d="M584 1051h22q72 0 147.5 -24t133.5 -60q12 -6 12 -21v-26q0 -4 -3.5 -6.5t-6.5 -0.5q-148 88 -285 88h-18q-168 0 -279.5 -109t-111.5 -302v-156q0 -193 111.5 -302t279.5 -109h18q137 0 285 88q3 2 6.5 -0.5t3.5 -6.5v-26q0 -15 -12 -21q-58 -36 -133.5 -60t-147.5 -24
h-22q-189 0 -315 122.5t-126 340.5v152q0 218 126 340.5t315 122.5z" />
    <glyph glyph-name="d" unicode="d" horiz-adv-x="1120" 
d="M915 1509h31q10 0 10 -10v-1489q0 -10 -10 -10h-31q-10 0 -10 10v142q-75 -89 -172.5 -134t-185.5 -45h-8q-189 0 -292.5 119t-103.5 344v152q0 225 103.5 344t292.5 119h8q88 0 185.5 -45t172.5 -134v627q0 10 10 10zM545 1001h-4q-168 0 -257 -105.5t-89 -305.5v-156
q0 -200 89 -305.5t257 -105.5h4q193 0 360 198v582q-167 198 -360 198z" />
    <glyph glyph-name="e" unicode="e" horiz-adv-x="1093" 
d="M553 1051h22q186 0 282.5 -118t96.5 -345v-56q0 -10 -10 -10h-749v-127q0 -171 110 -271.5t281 -100.5h8q153 0 319 88q3 2 7 -0.5t4 -6.5v-26q0 -14 -13 -21q-64 -35 -152.5 -59.5t-162.5 -24.5h-12q-193 0 -317 114t-124 310v168q0 224 114 355t296 131zM573 1001h-18
q-159 0 -259 -116.5t-101 -313.5h708q0 219 -82.5 324.5t-247.5 105.5z" />
    <glyph glyph-name="f" unicode="f" horiz-adv-x="704" 
d="M631 1501q12 -5 12 -18v-21q0 -6 -4 -9.5t-10 -0.5q-82 35 -156 35h-8q-86 0 -145.5 -56.5t-59.5 -170.5v-236h320q10 0 10 -10v-29q0 -10 -10 -10h-320v-965q0 -10 -10 -10h-31q-10 0 -10 10v965h-137q-11 0 -11 10v29q0 10 11 10h137v233q0 139 73 209t181 70h12
q76 0 156 -35z" />
    <glyph glyph-name="g" unicode="g" horiz-adv-x="1110" 
d="M934 938q12 -9 12 -23v-901q0 -188 -95.5 -285.5t-279.5 -97.5h-12q-74 0 -162.5 24.5t-152.5 59.5q-13 7 -13 21v26q0 4 4 6.5t7 0.5q166 -88 319 -88h8q163 0 244.5 84t81.5 247v140q-75 -89 -172.5 -134t-185.5 -45h-9q-188 0 -286.5 118t-98.5 345v152q0 223 106 343
t290 120h12q88 0 201 -36t182 -77zM530 23h5q193 0 360 198v676q-178 104 -346 104h-8q-162 0 -254 -106.5t-92 -304.5v-156q0 -202 84.5 -306.5t250.5 -104.5z" />
    <glyph glyph-name="h" unicode="h" horiz-adv-x="1112" 
d="M594 1051h8q182 0 266 -98t84 -287v-656q0 -10 -10 -10h-31q-10 0 -10 10v658q0 164 -70 248.5t-231 84.5h-4q-90 0 -189 -48.5t-188 -130.5v-812q0 -10 -10 -10h-31q-10 0 -10 10v1489q0 10 10 10h31q10 0 10 -10v-612q82 72 184.5 118t190.5 46z" />
    <glyph glyph-name="i" unicode="i" horiz-adv-x="411" 
d="M180 1333h56q12 0 12 -12v-80q0 -12 -12 -12h-56q-12 0 -12 12v80q0 12 12 12zM193 1024h30q10 0 10 -10v-1004q0 -10 -10 -10h-30q-11 0 -11 10v1004q0 10 11 10z" />
    <glyph glyph-name="j" unicode="j" horiz-adv-x="550" 
d="M320 1333h55q12 0 12 -12v-80q0 -12 -12 -12h-55q-12 0 -12 12v80q0 12 12 12zM332 1024h31q10 0 10 -10v-1203q0 -94 -49.5 -137t-118.5 -43h-13q-56 0 -118 27q-13 5 -13 18v21q0 6 4.5 9.5t10.5 0.5q61 -26 119 -26h8q48 0 83.5 29.5t35.5 98.5v1205q0 10 10 10z" />
    <glyph glyph-name="k" unicode="k" horiz-adv-x="944" 
d="M496 528l385 -510q5 -6 2 -12t-11 -6h-32q-12 0 -17 8l-374 496h-230v-494q0 -10 -10 -10h-31q-10 0 -10 10v1489q0 10 10 10h31q10 0 10 -10v-946h231l332 463q8 8 17 8h30q7 0 10 -6t-1 -12z" />
    <glyph glyph-name="l" unicode="l" horiz-adv-x="378" 
d="M178 1509h31q10 0 10 -10v-1489q0 -10 -10 -10h-31q-10 0 -10 10v1489q0 10 10 10z" />
    <glyph glyph-name="m" unicode="m" horiz-adv-x="1812" 
d="M1309 1051h8q181 0 258.5 -97t77.5 -288v-656q0 -10 -11 -10h-30q-10 0 -10 10v658q0 167 -64 250t-223 83h-4q-93 0 -196 -52t-194 -139q13 -62 13 -144v-656q0 -10 -10 -10h-31q-10 0 -10 10v658q0 167 -64 250t-223 83h-4q-90 0 -189 -48.5t-188 -130.5v-812
q0 -10 -10 -10h-31q-10 0 -10 10v1004q0 10 10 10h31q10 0 10 -10v-127q82 72 184.5 118t190.5 46h8q244 0 309 -190q90 85 199 137.5t203 52.5z" />
    <glyph glyph-name="n" unicode="n" horiz-adv-x="1103" 
d="M590 1051h8q182 0 264 -97.5t82 -287.5v-656q0 -10 -10 -10h-31q-10 0 -10 10v658q0 165 -68 249t-229 84h-4q-90 0 -189 -48.5t-188 -130.5v-812q0 -10 -10 -10h-31q-10 0 -10 10v1004q0 10 10 10h31q10 0 10 -10v-127q82 72 184.5 118t190.5 46z" />
    <glyph glyph-name="o" unicode="o" horiz-adv-x="1153" 
d="M565 1051h23q188 0 305 -121t117 -342v-152q0 -221 -117 -342t-305 -121h-23q-188 0 -305 121t-117 342v152q0 221 117 342t305 121zM586 1001h-19q-166 0 -269 -107.5t-103 -303.5v-156q0 -196 103 -303.5t269 -107.5h19q166 0 269 107.5t103 303.5v156
q0 196 -103 303.5t-269 107.5z" />
    <glyph glyph-name="p" unicode="p" horiz-adv-x="1124" 
d="M578 1051h8q189 0 292 -119t103 -344v-152q0 -225 -103 -344t-292 -119h-8q-89 0 -186.5 45t-172.5 134v-484q0 -10 -10 -10h-31q-10 0 -10 10v1346q0 10 10 10h31q10 0 10 -10v-142q75 89 172.5 134t186.5 45zM584 1001h-4q-194 0 -361 -198v-582q167 -198 361 -198h4
q168 0 257 105.5t89 305.5v156q0 200 -89 305.5t-257 105.5z" />
    <glyph glyph-name="q" unicode="q" horiz-adv-x="1110" 
d="M539 1051h12q88 0 201 -36t182 -77q12 -9 12 -23v-1247q0 -10 -10 -10h-31q-10 0 -10 10v484q-75 -89 -172.5 -134t-185.5 -45h-9q-188 0 -286.5 118t-98.5 345v152q0 223 106 343t290 120zM549 1001h-8q-162 0 -254 -106.5t-92 -304.5v-156q0 -202 84.5 -306.5
t250.5 -104.5h5q193 0 360 198v676q-178 104 -346 104z" />
    <glyph glyph-name="r" unicode="r" horiz-adv-x="712" 
d="M567 1051h8q38 0 62 -4q14 -2 14 -19v-22q0 -12 -18 -9q-24 4 -60 4h-4q-175 0 -354 -220v-771q0 -10 -10 -10h-31q-10 0 -10 10v1004q0 10 10 10h31q10 0 10 -10v-160q81 96 172 146.5t180 50.5z" />
    <glyph glyph-name="s" unicode="s" horiz-adv-x="866" 
d="M418 1051h22q66 0 149 -24.5t138 -59.5q12 -6 12 -21v-26q0 -4 -3.5 -6.5t-6.5 -0.5q-148 88 -291 88h-18q-115 0 -196 -55.5t-81 -152.5v-15q0 -37 14.5 -67t37.5 -50t56 -37t66 -29t71 -24q17 -5 26 -8l49 -16q53 -17 86.5 -29.5t73.5 -31.5t64 -39t46 -47t31.5 -62
t9.5 -78v-10q0 -131 -96 -204t-234 -73h-22q-71 0 -160.5 25t-144.5 59q-13 7 -13 21v26q0 4 4 6.5t7 0.5q66 -39 149.5 -63.5t159.5 -24.5h18q117 0 199 59t82 166v14q0 30 -8 56.5t-19.5 45.5t-33.5 37t-39.5 29t-48.5 24t-50 20t-53 18l-49 16q-10 3 -31 10
q-143 47 -199 83q-100 66 -100 175v15q0 122 94.5 191t231.5 69z" />
    <glyph glyph-name="t" unicode="t" horiz-adv-x="651" 
d="M217 1251l27 6q16 4 16 -10v-223h320q10 0 10 -10v-29q0 -10 -10 -10h-320v-772q0 -93 37 -136.5t123 -43.5h8q67 0 147 34q6 3 10.5 -0.5t4.5 -9.5v-20q0 -14 -12 -19q-80 -35 -148 -35h-12q-107 0 -158 57t-51 175v770h-137q-11 0 -11 10v29q0 10 11 10h137v211
q0 14 8 16z" />
    <glyph glyph-name="u" unicode="u" 
d="M883 1024h30q11 0 11 -10v-1004q0 -10 -11 -10h-30q-11 0 -11 10v127q-82 -72 -184 -118t-190 -46h-9q-177 0 -253 97t-76 288v656q0 10 10 10h31q10 0 10 -10v-658q0 -167 63 -250t218 -83h4q90 0 188 48t188 131v812q0 10 11 10z" />
    <glyph glyph-name="v" unicode="v" horiz-adv-x="989" 
d="M892 1024h28q9 0 6 -10l-387 -998q-6 -16 -22 -16h-43q-20 0 -23 16l-389 998q-3 10 8 10h27q17 0 23 -16l374 -959h3l173 449l199 510q6 16 23 16z" />
    <glyph glyph-name="w" unicode="w" horiz-adv-x="1492" 
d="M1397 1024h25q11 0 8 -10l-305 -998q-6 -16 -22 -16h-43q-17 0 -23 16l-289 949h-5l-195 -646l-93 -303q-6 -16 -22 -16h-43q-20 0 -23 16l-305 998q-3 10 8 10h25q16 0 22 -16l294 -955h3l158 514l133 441q3 16 23 16h37q16 0 22 -16l293 -955h4l156 514l135 441
q6 16 22 16z" />
    <glyph glyph-name="x" unicode="x" horiz-adv-x="890" 
d="M769 1024h31q7 0 10 -6t-2 -12l-328 -478l346 -510q5 -6 2 -12t-10 -6h-31q-11 0 -16 8l-323 473h-6l-322 -473q-5 -8 -17 -8h-30q-7 0 -10 6t1 12l346 510l-329 478q-3 6 -1 12t9 6h31q12 0 16 -8l244 -350l63 -93h4l305 443q8 8 17 8z" />
    <glyph glyph-name="y" unicode="y" horiz-adv-x="997" 
d="M900 1024h28q10 0 7 -10l-441 -1125q-56 -140 -111.5 -199t-150.5 -59h-12q-55 0 -121 29q-12 5 -12 18v21q0 6 4 9.5t10 0.5q66 -28 121 -28h8q69 0 116.5 45t92.5 161l43 113h-6q-17 0 -23 16l-391 998q-3 10 8 10h27q17 0 23 -16l375 -959h6l376 959q6 16 23 16z" />
    <glyph glyph-name="z" unicode="z" horiz-adv-x="899" 
d="M145 49h662q10 0 10 -10v-29q0 -10 -10 -10h-715q-10 0 -10 10v27q0 11 8 22l653 916h-620q-10 0 -10 10v29q0 10 10 10h674q10 0 10 -10v-27q0 -11 -8 -22z" />
    <glyph glyph-name="braceleft" unicode="{" horiz-adv-x="696" 
d="M313 1323v-657q0 -49 -34 -80q34 -31 34 -80v-656q0 -28 15.5 -44.5t42.5 -16.5h233q10 0 10 -10v-29q0 -10 -10 -10h-237q-46 0 -75.5 29t-29.5 75v656q0 28 -15 44.5t-42 16.5h-113q-10 0 -10 10v29q0 10 10 10h113q27 0 42 17t15 45v657q0 46 29.5 75.5t75.5 29.5h237
q10 0 10 -11v-28q0 -11 -10 -11h-233q-27 0 -42.5 -16.5t-15.5 -44.5z" />
    <glyph glyph-name="bar" unicode="|" horiz-adv-x="460" 
d="M215 1434h31q10 0 10 -11v-1564q0 -11 -10 -11h-31q-10 0 -10 11v1564q0 11 10 11z" />
    <glyph glyph-name="braceright" unicode="}" horiz-adv-x="696" 
d="M492 610h112q10 0 10 -10v-29q0 -10 -10 -10h-112q-27 0 -42.5 -16.5t-15.5 -44.5v-656q0 -46 -29 -75t-75 -29h-238q-10 0 -10 10v29q0 10 10 10h234q27 0 42 16.5t15 44.5v656q0 49 34 80q-34 31 -34 80v657q0 28 -15 44.5t-42 16.5h-234q-10 0 -10 11v28q0 11 10 11
h238q46 0 75 -29.5t29 -75.5v-657q0 -28 15.5 -45t42.5 -17z" />
    <glyph glyph-name="asciitilde" unicode="~" horiz-adv-x="946" 
d="M315 707q46 0 90 -16t74 -34.5t71.5 -34.5t82.5 -16q13 0 26 1.5t27.5 5t24.5 6t26 9t23.5 9.5t24.5 11.5l21 10.5t21.5 11.5t18.5 9.5q9 4 13.5 0.5t4.5 -10.5v-19q0 -9 -10 -14q-2 -1 -19 -11t-22 -12.5t-21 -11.5t-24 -12t-23.5 -10t-27 -10t-26.5 -6.5t-30 -5
t-30 -1.5q-57 0 -111 25t-105 50t-102 25q-37 0 -82.5 -14.5t-65 -24.5t-65.5 -34q-9 -4 -13.5 -0.5t-4.5 10.5v18q0 12 6 15t32.5 17.5t36.5 19.5t34 15.5t40 15t39 8.5t45 4z" />
    <glyph glyph-name="exclamdown" unicode="&#xa1;" horiz-adv-x="256" 
d="M94 1092h68q12 0 12 -13v-80q0 -12 -12 -12h-68q-12 0 -12 12v80q0 13 12 13zM115 705h26q11 0 11 -11l6 -1026q0 -10 -11 -10h-38q-11 0 -11 10l6 1026q0 11 11 11z" />
    <glyph glyph-name="cent" unicode="&#xa2;" horiz-adv-x="1038" 
d="M604 1001h-18q-168 0 -279.5 -109t-111.5 -302v-156q0 -193 111.5 -302t279.5 -109h18q137 0 285 88q3 2 6.5 -0.5t3.5 -6.5v-26q0 -15 -12 -21q-54 -34 -125 -57.5t-141 -25.5v-250q0 -11 -11 -11h-30q-11 0 -11 11v250q-88 2 -165 33.5t-135.5 88t-92 144.5t-33.5 196
v152q0 108 33.5 196t92 144.5t135.5 88t165 33.5v250q0 11 11 11h30q11 0 11 -11v-250q70 -2 141 -25.5t125 -57.5q12 -6 12 -21v-26q0 -4 -3.5 -6.5t-6.5 -0.5q-148 88 -285 88z" />
    <glyph glyph-name="sterling" unicode="&#xa3;" horiz-adv-x="1110" 
d="M193 49h804q11 0 11 -10v-29q0 -10 -11 -10h-850q-10 0 -10 10v19q0 12 4 20q63 126 82 183q37 113 37 247q0 80 -13 166h-155q-10 0 -10 10v29q0 10 10 10h147q-2 13 -8.5 50t-9 54t-7.5 50.5t-7 57t-4 55.5t-2 63v23q0 185 116 299t295 114h21q167 0 330 -94
q12 -6 12 -20v-27q0 -4 -3.5 -6t-6.5 0q-58 32 -96 49.5t-102.5 33t-135.5 15.5h-17q-159 0 -260.5 -103t-101.5 -274v-10q0 -46 4.5 -97t8 -75.5t15 -86.5t12.5 -71h490q11 0 11 -10v-29q0 -10 -11 -10h-483q12 -82 12 -153q0 -136 -29 -235t-89 -208z" />
    <glyph glyph-name="currency" unicode="&#xa4;" horiz-adv-x="1234" 
d="M979 248l171 -170q8 -8 0 -15l-23 -22q-7 -7 -14 0l-171 171q-137 -123 -322 -124q-190 2 -326 125l-172 -172q-7 -7 -14 0l-23 22q-7 7 0 15l173 172q-121 138 -120 321q2 188 122 323l-175 175q-7 7 0 14l23 23q7 7 14 0l175 -175q135 122 323 122q184 0 320 -120
l173 173q7 7 14 0l23 -23q7 -7 0 -14l-173 -173q126 -139 126 -325q0 -185 -124 -323zM189 571q-1 -180 125 -306t306 -126t306 126.5t126 305.5t-126 305t-306 125q-179 1 -304 -124t-127 -306z" />
    <glyph glyph-name="yen" unicode="&#xa5;" horiz-adv-x="1255" 
d="M1131 1434h35q4 0 6 -4t0 -7l-496 -884h345q10 0 10 -11v-28q0 -11 -10 -11h-369v-237h369q10 0 10 -10v-29q0 -10 -10 -10h-369v-193q0 -10 -10 -10h-29q-10 0 -10 10v193h-369q-10 0 -10 10v29q0 10 10 10h369v237h-369q-10 0 -10 11v28q0 11 10 11h345l-496 884
q-2 3 0 7t6 4h35q14 0 20 -13l481 -858h4l482 858q7 13 20 13z" />
    <glyph glyph-name="brokenbar" unicode="&#xa6;" horiz-adv-x="460" 
d="M215 1434h31q10 0 10 -11v-616q0 -10 -10 -10h-31q-10 0 -10 10v616q0 11 10 11zM215 485h31q10 0 10 -10v-616q0 -11 -10 -11h-31q-10 0 -10 11v616q0 10 10 10z" />
    <glyph glyph-name="section" unicode="&#xa7;" horiz-adv-x="886" 
d="M432 1329h23q66 0 148.5 -24.5t137.5 -59.5q13 -7 13 -20v-27q0 -4 -4 -6t-7 0q-148 88 -290 88h-19q-112 0 -186 -56.5t-74 -152.5v-14q0 -37 15 -67t35.5 -49.5t58 -38t64.5 -28t72 -24.5q17 -5 25 -8l50 -17q65 -21 103 -35.5t83 -39.5t68.5 -51.5t40 -67.5t16.5 -92
v-11q0 -91 -48.5 -154.5t-129.5 -95.5q137 -69 137 -196v-14q0 -121 -88 -191t-221 -70h-23q-66 0 -149 24.5t-138 59.5q-12 6 -12 21v27q0 4 3.5 6t6.5 0q148 -88 291 -88h19q112 0 186 56.5t74 152.5v14q0 37 -14.5 67t-37.5 50t-56 37t-66 29t-71 24q-17 5 -26 8l-49 16
q-53 17 -86.5 29.5t-73.5 31.5t-64 39t-46 47t-31.5 62t-9.5 78v10q0 92 48 155.5t130 95.5q-137 69 -137 196v14q0 121 87.5 190.5t221.5 69.5zM502 770l-170 57q-88 -18 -143.5 -74t-55.5 -143v-14q0 -30 8 -56.5t19.5 -45t33.5 -36.5t39.5 -29t48.5 -24t49.5 -19.5
t53.5 -18.5l170 -58q88 18 143.5 74t55.5 143v15q0 30 -8 56.5t-19.5 45t-33.5 36.5t-39.5 29t-48.5 24t-49.5 19.5t-53.5 18.5z" />
    <glyph glyph-name="dieresis" unicode="&#xa8;" horiz-adv-x="530" 
d="M94 1743h68q12 0 12 -12v-80q0 -13 -12 -13h-68q-12 0 -12 13v80q0 12 12 12zM369 1743h67q13 0 13 -12v-80q0 -13 -13 -13h-67q-13 0 -13 13v80q0 12 13 12z" />
    <glyph glyph-name="copyright" unicode="&#xa9;" horiz-adv-x="1290" 
d="M645 1536q163 0 293 -76.5t200 -202.5t70 -274t-70 -274t-200 -202.5t-293 -76.5t-293 76.5t-200 202.5t-70 274t70 274t200 202.5t293 76.5zM645 1487q-149 0 -267.5 -69t-181.5 -183.5t-63 -251.5t63 -251.5t181.5 -183.5t267.5 -69t267.5 69t181.5 183.5t63 251.5
t-63 251.5t-181.5 183.5t-267.5 69zM655 1214h-10q-80 0 -134 -53.5t-54 -142.5v-84q0 -89 54 -143t134 -54h10q64 0 144 41q12 4 12 -6v-29q0 -9 -10 -16q-21 -13 -66 -26t-80 -13h-10q-103 0 -171 64.5t-68 181.5v84q0 117 68 181.5t171 64.5h10q35 0 80 -13t66 -26
q10 -7 10 -17v-28q0 -10 -12 -6q-78 40 -144 40z" />
    <glyph glyph-name="guillemotleft" unicode="&#xab;" horiz-adv-x="763" 
d="M135 518l258 -305q4 -6 2 -10t-8 -4h-31q-8 0 -14 6l-254 293q-6 6 -6 16v8q0 11 6 17l254 292q7 7 14 7h31q6 0 8 -4.5t-2 -10.5zM422 518l258 -305q4 -6 2 -10t-8 -4h-31q-8 0 -14 6l-254 293q-6 6 -6 16v8q0 11 6 17l254 292q7 7 14 7h31q6 0 8 -4.5t-2 -10.5z" />
    <glyph glyph-name="logicalnot" unicode="&#xac;" horiz-adv-x="1114" 
d="M92 686h930q10 0 10 -10v-283q0 -10 -10 -10h-31q-10 0 -10 10v244h-889q-10 0 -10 10v29q0 10 10 10z" />
    <glyph glyph-name="registered" unicode="&#xae;" horiz-adv-x="1290" 
d="M645 1536q163 0 293 -76.5t200 -202.5t70 -274t-70 -274t-200 -202.5t-293 -76.5t-293 76.5t-200 202.5t-70 274t70 274t200 202.5t293 76.5zM645 1487q-149 0 -267.5 -69t-181.5 -183.5t-63 -251.5t63 -251.5t181.5 -183.5t267.5 -69t267.5 69t181.5 183.5t63 251.5
t-63 251.5t-181.5 183.5t-267.5 69zM446 1266h216q101 0 150 -45t49 -122v-12q0 -65 -39 -111t-117 -56l178 -240q4 -4 1.5 -8.5t-7.5 -4.5h-39q-7 1 -13 7l-180 243h-152v-244q0 -6 -6 -6h-41q-6 0 -6 6v587q0 6 6 6zM493 968h168q75 0 111 34.5t36 84.5v12q0 53 -35 84.5
t-112 31.5h-168v-247z" />
    <glyph glyph-name="macron" unicode="&#xaf;" horiz-adv-x="694" 
d="M92 1688h510q10 0 10 -11v-28q0 -11 -10 -11h-510q-10 0 -10 11v28q0 11 10 11z" />
    <glyph glyph-name="degree" unicode="&#xb0;" horiz-adv-x="661" 
d="M330 1536q105 0 177.5 -71t72.5 -171q0 -101 -72 -171.5t-178 -71.5q-104 0 -176 71t-72 172q0 100 72 171t176 71zM330 1487q-84 0 -140.5 -55.5t-56.5 -137.5t56.5 -138t140.5 -56q86 0 142 56t56 138q0 83 -56.5 138.5t-141.5 54.5z" />
    <glyph glyph-name="plusminus" unicode="&#xb1;" horiz-adv-x="1116" 
d="M584 686h440q10 0 10 -10v-29q0 -10 -10 -10h-440v-328q0 -10 -11 -10h-30q-11 0 -11 10v328h-440q-10 0 -10 10v29q0 10 10 10h440v328q0 10 11 10h30q11 0 11 -10v-328zM92 188h932q10 0 10 -10v-28q0 -11 -10 -11h-932q-10 0 -10 11v28q0 10 10 10z" />
    <glyph glyph-name="acute" unicode="&#xb4;" horiz-adv-x="368" 
d="M84 1624l145 324q7 14 22 14h23q8 0 11.5 -5.5t0.5 -12.5l-157 -322q-7 -14 -21 -14h-16q-6 0 -8.5 5t0.5 11z" />
    <glyph glyph-name="paragraph" unicode="&#xb6;" horiz-adv-x="1064" 
d="M446 1434h404q10 0 10 -11v-1755q0 -10 -10 -10h-31q-10 0 -10 10v1716h-311v-1716q0 -10 -11 -10h-30q-11 0 -11 10v963q-364 0 -364 393q0 210 97 310t267 100z" />
    <glyph glyph-name="periodcentered" unicode="&#xb7;" horiz-adv-x="256" 
d="M94 643h68q12 0 12 -12v-80q0 -12 -12 -12h-68q-12 0 -12 12v80q0 12 12 12z" />
    <glyph glyph-name="cedilla" unicode="&#xb8;" horiz-adv-x="495" 
d="M190 0l-22 -137q40 12 82 12q74 0 119 -40.5t45 -110.5q0 -79 -54 -121.5t-139 -42.5q-69 0 -123 18q-16 5 -16 23v16q0 15 14 12q75 -18 121 -18q68 0 108 27t40 83q0 51 -31.5 77t-83.5 26q-15 0 -30.5 -2.5t-33.5 -6.5t-24 -5q-19 -4 -27 4l-6 6q-12 12 -10 20l26 160
h45z" />
    <glyph glyph-name="guillemotright" unicode="&#xbb;" horiz-adv-x="763" 
d="M343 518l-258 305q-4 6 -2 10.5t8 4.5h31q7 0 14 -7l254 -292q6 -6 6 -17v-8q0 -10 -6 -16l-254 -293q-6 -6 -14 -6h-31q-6 0 -8 4t2 10zM630 518l-258 305q-4 6 -2 10.5t8 4.5h30q8 0 15 -7l254 -292q6 -6 6 -17v-8q0 -10 -6 -16l-254 -293q-6 -6 -15 -6h-30q-6 0 -8 4
t2 10z" />
    <glyph glyph-name="onequarter" unicode="&#xbc;" horiz-adv-x="1712" 
d="M332 711h168q10 0 10 -11v-28q0 -10 -10 -10h-408q-10 0 -10 10v28q0 11 10 11h189v665l-189 -80q-10 -3 -10 9v28q0 14 10 17l187 80q8 4 20 4h23q10 0 10 -11v-712zM1075 1434h22q9 0 12.5 -5.5t0.5 -13.5l-666 -1401q-7 -14 -21 -14h-22q-19 0 -12 18l665 1401
q8 15 21 15zM1451 258h168q10 0 10 -10v-29q0 -10 -10 -10h-168v-199q0 -10 -10 -10h-31q-10 0 -10 10v199h-402q-10 0 -10 10v19q0 9 6 18l373 498q12 18 35 18h39q10 0 10 -10v-504zM1400 717l-343 -459h343v459z" />
    <glyph glyph-name="onehalf" unicode="&#xbd;" horiz-adv-x="1601" 
d="M332 711h168q10 0 10 -11v-28q0 -10 -10 -10h-408q-10 0 -10 10v28q0 11 10 11h189v665l-189 -80q-10 -3 -10 9v28q0 14 10 17l187 80q8 4 20 4h23q10 0 10 -11v-712zM1075 1434h22q9 0 12.5 -5.5t0.5 -13.5l-666 -1401q-7 -14 -21 -14h-22q-19 0 -12 18l665 1401
q8 15 21 15zM1232 799h20q91 0 161.5 -58.5t70.5 -154.5v-23q0 -23 -4.5 -45.5t-17 -47t-23 -43.5t-35 -47.5t-39 -45t-49.5 -50t-52 -49.5t-61 -56.5t-63 -57.5l-78 -72h446q11 0 11 -10v-29q0 -10 -11 -10h-510q-10 0 -10 10v33q0 8 4 12l97 88q21 19 63.5 57.5t61 55.5
t52.5 49t49 49t39 43.5t34.5 44t23 40t17 42t4.5 39.5v10q0 82 -56 129.5t-127 47.5h-16q-95 0 -209 -62q-3 -2 -6.5 0t-3.5 6v27q0 14 12 20q99 58 205 58z" />
    <glyph glyph-name="threequarters" unicode="&#xbe;" horiz-adv-x="1800" 
d="M317 1460h11q104 0 178 -57t74 -150v-16q0 -58 -31.5 -103t-84.5 -71q61 -24 97.5 -73t36.5 -116v-22q0 -93 -78 -155t-194 -62h-17q-110 0 -215 57q-12 6 -12 21v26q0 4 3.5 6t6.5 0q119 -61 219 -61h13q96 0 159.5 50.5t63.5 129.5v10q0 61 -47.5 111t-145.5 50
l-135 -1q-10 0 -10 10v29q0 10 10 10h119q93 0 141.5 49t48.5 105v4q0 80 -59 125t-143 45h-7q-96 0 -215 -61q-3 -2 -6.5 0t-3.5 6v26q0 15 12 21q105 57 211 57zM1163 1434h22q9 0 12.5 -5.5t0.5 -13.5l-666 -1401q-7 -14 -21 -14h-22q-19 0 -12 18l665 1401q8 15 21 15z
M1539 258h168q10 0 10 -10v-29q0 -10 -10 -10h-168v-199q0 -10 -10 -10h-31q-10 0 -10 10v199h-402q-10 0 -10 10v19q0 9 6 18l373 498q12 18 35 18h39q10 0 10 -10v-504zM1488 717l-343 -459h343v459z" />
    <glyph glyph-name="questiondown" unicode="&#xbf;" horiz-adv-x="1028" 
d="M635 1092h67q13 0 13 -13v-80q0 -12 -13 -12h-67q-12 0 -12 12v80q0 13 12 13zM655 705h27q10 0 10 -11l2 -288q0 -12 -8 -17l-12 -8q-8 -6 -27 -4q-6 1 -28 4.5t-42 5.5t-47 2q-99 0 -177 -28.5t-125 -78t-71 -110t-24 -129.5v-14q0 -150 111 -249t301 -99h16
q198 0 375 98q3 2 6.5 0t3.5 -6v-27q0 -14 -12 -20q-68 -39 -166 -67t-205 -28h-20q-209 0 -335 111t-126 274v39q0 158 116.5 270.5t317.5 112.5q62 0 127 -10l2 266q0 11 10 11z" />
    <glyph glyph-name="Agrave" unicode="&#xc0;" horiz-adv-x="1249" 
d="M507 1948l145 -324q3 -6 0.5 -11t-8.5 -5h-17q-13 0 -20 14l-158 322q-3 7 1 12.5t12 5.5h22q16 0 23 -14zM605 1434h39q15 0 22 -17l500 -1407q3 -10 -6 -10h-29q-16 0 -22 16l-169 476h-631l-169 -476q-6 -16 -23 -16h-28q-9 0 -6 10l499 1407q6 15 23 17zM621 1376
l-215 -612l-80 -223h596l-80 223l-216 612h-5z" />
    <glyph glyph-name="Aacute" unicode="&#xc1;" horiz-adv-x="1249" 
d="M597 1624l145 324q7 14 23 14h22q8 0 12 -5.5t1 -12.5l-158 -322q-7 -14 -20 -14h-17q-6 0 -8.5 5t0.5 11zM605 1434h39q15 0 22 -17l500 -1407q3 -10 -6 -10h-29q-16 0 -22 16l-169 476h-631l-169 -476q-6 -16 -23 -16h-28q-9 0 -6 10l499 1407q6 15 23 17zM621 1376
l-215 -612l-80 -223h596l-80 223l-216 612h-5z" />
    <glyph glyph-name="Acircumflex" unicode="&#xc2;" horiz-adv-x="1249" 
d="M653 1948l178 -322q4 -7 0 -12.5t-12 -5.5h-22q-16 0 -23 14l-149 292l-150 -292q-7 -14 -22 -14h-23q-8 0 -12 5.5t0 12.5l178 322q7 14 20 14h17q13 0 20 -14zM605 1434h39q15 0 22 -17l500 -1407q3 -10 -6 -10h-29q-16 0 -22 16l-169 476h-631l-169 -476
q-6 -16 -23 -16h-28q-9 0 -6 10l499 1407q6 15 23 17zM621 1376l-215 -612l-80 -223h596l-80 223l-216 612h-5z" />
    <glyph glyph-name="Atilde" unicode="&#xc3;" horiz-adv-x="1249" 
d="M869 1741h23q16 0 10 -17q-13 -48 -65 -92.5t-111 -44.5h-8q-33 0 -60.5 15t-43 33t-40 33t-53.5 15q-68 0 -123 -90q-6 -12 -18 -12h-23q-15 0 -10 16q13 48 65 93t111 45h8q28 0 50.5 -10t38 -24.5t30.5 -28.5t34.5 -24t43.5 -10q68 0 123 91q6 12 18 12zM605 1434h39
q15 0 22 -17l500 -1407q3 -10 -6 -10h-29q-16 0 -22 16l-169 476h-631l-169 -476q-6 -16 -23 -16h-28q-9 0 -6 10l499 1407q6 15 23 17zM621 1376l-215 -612l-80 -223h596l-80 223l-216 612h-5z" />
    <glyph glyph-name="Adieresis" unicode="&#xc4;" horiz-adv-x="1249" 
d="M454 1743h67q13 0 13 -12v-80q0 -13 -13 -13h-67q-13 0 -13 13v80q0 12 13 12zM728 1743h68q12 0 12 -12v-80q0 -13 -12 -13h-68q-12 0 -12 13v80q0 12 12 12zM605 1434h39q15 0 22 -17l500 -1407q3 -10 -6 -10h-29q-16 0 -22 16l-169 476h-631l-169 -476q-6 -16 -23 -16
h-28q-9 0 -6 10l499 1407q6 15 23 17zM621 1376l-215 -612l-80 -223h596l-80 223l-216 612h-5z" />
    <glyph glyph-name="Aring" unicode="&#xc5;" horiz-adv-x="1249" 
d="M625 1880q63 0 106 -42.5t43 -102.5q0 -61 -43.5 -104.5t-105.5 -43.5q-64 0 -107 43.5t-43 104.5q0 59 43 102t107 43zM625 1835q-44 0 -71.5 -28.5t-27.5 -69.5q0 -43 27.5 -74t71.5 -31t71 31t27 74q0 41 -27 69.5t-71 28.5zM605 1434h39q15 0 22 -17l500 -1407
q3 -10 -6 -10h-29q-16 0 -22 16l-169 476h-631l-169 -476q-6 -16 -23 -16h-28q-9 0 -6 10l499 1407q6 15 23 17zM621 1376l-215 -612l-80 -223h596l-80 223l-216 612h-5z" />
    <glyph glyph-name="AE" unicode="&#xc6;" horiz-adv-x="1574" 
d="M676 766h745q11 0 11 -10v-29q0 -10 -11 -10h-745v-668h786q11 0 11 -10v-29q0 -10 -11 -10h-827q-10 0 -10 10v482h-316l-169 -476q-6 -16 -23 -16h-28q-9 0 -6 10l499 1407q6 15 23 17h857q11 0 11 -11v-28q0 -11 -11 -11h-786v-618zM625 1376h-4l-215 -612l-80 -223
h299v835z" />
    <glyph glyph-name="Ccedilla" unicode="&#xc7;" horiz-adv-x="1218" 
d="M754 1411h-17q-104 0 -196.5 -37t-166 -108t-116.5 -185.5t-43 -257.5v-213q0 -143 43 -257.5t116.5 -185t166 -107.5t196.5 -37h17q175 0 352 98q3 2 6.5 0t3.5 -6v-27q0 -14 -12 -20q-68 -39 -160 -67t-188 -28h-21h-2l-18 -110q40 12 82 12q74 0 119 -40.5t45 -110.5
q0 -79 -54 -121.5t-139 -42.5q-69 0 -123 18q-16 5 -16 23v16q0 15 14 12q75 -18 121 -18q68 0 108 27t40 83q0 51 -31.5 77t-83.5 26q-15 0 -30.5 -2.5t-33.5 -6.5t-24 -5q-19 -4 -27 4l-6 6q-12 12 -10 20l22 135q-107 8 -200.5 52t-166.5 120t-115 192t-42 259v238
q0 150 47 271t127 197t181.5 116t215.5 40h21q96 0 188.5 -27.5t159.5 -66.5q12 -6 12 -20v-27q0 -4 -3.5 -6t-6.5 0q-177 98 -352 98z" />
    <glyph glyph-name="Egrave" unicode="&#xc8;" horiz-adv-x="1155" 
d="M507 1948l145 -324q3 -6 0.5 -11t-8.5 -5h-16q-14 0 -21 14l-158 322q-3 7 1 12.5t12 5.5h22q16 0 23 -14zM256 766h745q11 0 11 -10v-29q0 -10 -11 -10h-745v-668h786q11 0 11 -10v-29q0 -10 -11 -10h-827q-10 0 -10 10v1413q0 11 10 11h827q11 0 11 -11v-28
q0 -11 -11 -11h-786v-618z" />
    <glyph glyph-name="Eacute" unicode="&#xc9;" horiz-adv-x="1155" 
d="M583 1624l145 324q7 14 23 14h22q8 0 11.5 -5.5t0.5 -12.5l-157 -322q-7 -14 -21 -14h-16q-6 0 -8.5 5t0.5 11zM256 766h745q11 0 11 -10v-29q0 -10 -11 -10h-745v-668h786q11 0 11 -10v-29q0 -10 -11 -10h-827q-10 0 -10 10v1413q0 11 10 11h827q11 0 11 -11v-28
q0 -11 -11 -11h-786v-618z" />
    <glyph glyph-name="Ecircumflex" unicode="&#xca;" horiz-adv-x="1155" 
d="M662 1948l178 -322q4 -7 -0.5 -12.5t-12.5 -5.5h-22q-16 0 -23 14l-149 292l-150 -292q-7 -14 -22 -14h-23q-8 0 -12 5.5t0 12.5l178 322q7 14 21 14h16q14 0 21 -14zM256 766h745q11 0 11 -10v-29q0 -10 -11 -10h-745v-668h786q11 0 11 -10v-29q0 -10 -11 -10h-827
q-10 0 -10 10v1413q0 11 10 11h827q11 0 11 -11v-28q0 -11 -11 -11h-786v-618z" />
    <glyph glyph-name="Edieresis" unicode="&#xcb;" horiz-adv-x="1155" 
d="M451 1743h68q12 0 12 -12v-80q0 -13 -12 -13h-68q-12 0 -12 13v80q0 12 12 12zM726 1743h67q13 0 13 -12v-80q0 -13 -13 -13h-67q-13 0 -13 13v80q0 12 13 12zM256 766h745q11 0 11 -10v-29q0 -10 -11 -10h-745v-668h786q11 0 11 -10v-29q0 -10 -11 -10h-827
q-10 0 -10 10v1413q0 11 10 11h827q11 0 11 -11v-28q0 -11 -11 -11h-786v-618z" />
    <glyph glyph-name="Igrave" unicode="&#xcc;" horiz-adv-x="460" 
d="M109 1948l145 -324q3 -6 0.5 -11t-8.5 -5h-16q-14 0 -21 14l-157 322q-3 7 0.5 12.5t11.5 5.5h22q16 0 23 -14zM215 1434h31q10 0 10 -11v-1413q0 -10 -10 -10h-31q-10 0 -10 10v1413q0 11 10 11z" />
    <glyph glyph-name="Iacute" unicode="&#xcd;" horiz-adv-x="460" 
d="M207 1624l145 324q7 14 23 14h22q8 0 12 -5.5t1 -12.5l-158 -322q-7 -14 -21 -14h-16q-6 0 -8.5 5t0.5 11zM215 1434h31q10 0 10 -11v-1413q0 -10 -10 -10h-31q-10 0 -10 10v1413q0 11 10 11z" />
    <glyph glyph-name="Icircumflex" unicode="&#xce;" horiz-adv-x="460" 
d="M260 1948l178 -322q4 -7 0 -12.5t-12 -5.5h-23q-15 0 -22 14l-150 292l-149 -292q-7 -14 -23 -14h-22q-8 0 -12 5.5t0 12.5l178 322q7 14 20 14h17q13 0 20 -14zM215 1434h31q10 0 10 -11v-1413q0 -10 -10 -10h-31q-10 0 -10 10v1413q0 11 10 11z" />
    <glyph glyph-name="Idieresis" unicode="&#xcf;" horiz-adv-x="460" 
d="M60 1743h68q12 0 12 -12v-80q0 -13 -12 -13h-68q-12 0 -12 13v80q0 12 12 12zM335 1743h67q13 0 13 -12v-80q0 -13 -13 -13h-67q-12 0 -12 13v80q0 12 12 12zM215 1434h31q10 0 10 -11v-1413q0 -10 -10 -10h-31q-10 0 -10 10v1413q0 11 10 11z" />
    <glyph glyph-name="Eth" unicode="&#xd0;" horiz-adv-x="1366" 
d="M215 1434h457q114 0 209.5 -37.5t167.5 -111t112.5 -191.5t40.5 -269v-217q0 -151 -40.5 -269t-112.5 -191t-167.5 -110.5t-209.5 -37.5h-457q-10 0 -10 10v627h-113q-10 0 -10 10v29q0 10 10 10h113v737q0 11 10 11zM1151 621v192q0 144 -36.5 255t-102.5 179
t-152 102.5t-190 34.5h-414v-698h455q10 0 10 -10v-29q0 -10 -10 -10h-455v-588h414q104 0 190.5 34.5t152 103t102 179.5t36.5 255z" />
    <glyph glyph-name="Ntilde" unicode="&#xd1;" horiz-adv-x="1396" 
d="M943 1741h23q16 0 10 -17q-13 -48 -65 -92.5t-111 -44.5h-8q-33 0 -60.5 15t-43 33t-40 33t-53.5 15q-68 0 -123 -90q-6 -12 -18 -12h-23q-15 0 -10 16q13 48 65 93t111 45h8q28 0 50.5 -10t38 -24.5t30.5 -28.5t34.5 -24t43.5 -10q68 0 123 91q6 12 18 12zM1161 1434h31
q10 0 10 -11v-1413q0 -10 -10 -10h-43q-11 0 -16 8l-885 1346h-2v-1344q0 -10 -10 -10h-31q-10 0 -10 10v1413q0 11 10 11h43q10 0 16 -9l885 -1345h2v1343q0 11 10 11z" />
    <glyph glyph-name="Ograve" unicode="&#xd2;" horiz-adv-x="1419" 
d="M583 1948l146 -324q3 -6 0.5 -11t-8.5 -5h-17q-13 0 -20 14l-158 322q-3 7 0.5 12.5t11.5 5.5h23q15 0 22 -14zM694 1460h31q114 0 209.5 -37.5t167.5 -110.5t112.5 -191t40.5 -269v-270q0 -151 -40.5 -269t-112.5 -191.5t-167.5 -111t-209.5 -37.5h-31
q-114 0 -209.5 37.5t-167.5 111t-112.5 191.5t-40.5 269v270q0 151 40.5 269t112.5 191t167.5 110.5t209.5 37.5zM723 1411h-27q-104 0 -190 -34.5t-152 -102.5t-102.5 -179t-36.5 -255v-246q0 -144 36.5 -255t102.5 -179t152 -102.5t190 -34.5h27q104 0 190 34.5t152 102.5
t102.5 179t36.5 255v246q0 144 -36.5 255t-102.5 179t-152 102.5t-190 34.5z" />
    <glyph glyph-name="Oacute" unicode="&#xd3;" horiz-adv-x="1419" 
d="M696 1624l145 324q7 14 23 14h22q8 0 12 -5.5t1 -12.5l-158 -322q-7 -14 -20 -14h-17q-6 0 -8.5 5t0.5 11zM694 1460h31q114 0 209.5 -37.5t167.5 -110.5t112.5 -191t40.5 -269v-270q0 -151 -40.5 -269t-112.5 -191.5t-167.5 -111t-209.5 -37.5h-31q-114 0 -209.5 37.5
t-167.5 111t-112.5 191.5t-40.5 269v270q0 151 40.5 269t112.5 191t167.5 110.5t209.5 37.5zM723 1411h-27q-104 0 -190 -34.5t-152 -102.5t-102.5 -179t-36.5 -255v-246q0 -144 36.5 -255t102.5 -179t152 -102.5t190 -34.5h27q104 0 190 34.5t152 102.5t102.5 179t36.5 255
v246q0 144 -36.5 255t-102.5 179t-152 102.5t-190 34.5z" />
    <glyph glyph-name="Ocircumflex" unicode="&#xd4;" horiz-adv-x="1419" 
d="M739 1948l179 -322q4 -7 -0.5 -12.5t-12.5 -5.5h-22q-16 0 -23 14l-149 292l-150 -292q-7 -14 -22 -14h-23q-8 0 -12 5.5t0 12.5l178 322q7 14 20 14h17q13 0 20 -14zM694 1460h31q114 0 209.5 -37.5t167.5 -110.5t112.5 -191t40.5 -269v-270q0 -151 -40.5 -269
t-112.5 -191.5t-167.5 -111t-209.5 -37.5h-31q-114 0 -209.5 37.5t-167.5 111t-112.5 191.5t-40.5 269v270q0 151 40.5 269t112.5 191t167.5 110.5t209.5 37.5zM723 1411h-27q-104 0 -190 -34.5t-152 -102.5t-102.5 -179t-36.5 -255v-246q0 -144 36.5 -255t102.5 -179
t152 -102.5t190 -34.5h27q104 0 190 34.5t152 102.5t102.5 179t36.5 255v246q0 144 -36.5 255t-102.5 179t-152 102.5t-190 34.5z" />
    <glyph glyph-name="Otilde" unicode="&#xd5;" horiz-adv-x="1419" 
d="M955 1741h23q16 0 10 -17q-13 -48 -65 -92.5t-111 -44.5h-8q-33 0 -60.5 15t-43 33t-40 33t-53.5 15q-68 0 -123 -90q-6 -12 -18 -12h-23q-15 0 -10 16q13 48 65 93t111 45h8q28 0 50.5 -10t38 -24.5t30.5 -28.5t34.5 -24t43.5 -10q68 0 123 91q6 12 18 12zM694 1460h31
q114 0 209.5 -37.5t167.5 -110.5t112.5 -191t40.5 -269v-270q0 -151 -40.5 -269t-112.5 -191.5t-167.5 -111t-209.5 -37.5h-31q-114 0 -209.5 37.5t-167.5 111t-112.5 191.5t-40.5 269v270q0 151 40.5 269t112.5 191t167.5 110.5t209.5 37.5zM723 1411h-27
q-104 0 -190 -34.5t-152 -102.5t-102.5 -179t-36.5 -255v-246q0 -144 36.5 -255t102.5 -179t152 -102.5t190 -34.5h27q104 0 190 34.5t152 102.5t102.5 179t36.5 255v246q0 144 -36.5 255t-102.5 179t-152 102.5t-190 34.5z" />
    <glyph glyph-name="Odieresis" unicode="&#xd6;" horiz-adv-x="1419" 
d="M540 1743h67q13 0 13 -12v-80q0 -13 -13 -13h-67q-13 0 -13 13v80q0 12 13 12zM814 1743h68q12 0 12 -12v-80q0 -13 -12 -13h-68q-12 0 -12 13v80q0 12 12 12zM694 1460h31q114 0 209.5 -37.5t167.5 -110.5t112.5 -191t40.5 -269v-270q0 -151 -40.5 -269t-112.5 -191.5
t-167.5 -111t-209.5 -37.5h-31q-114 0 -209.5 37.5t-167.5 111t-112.5 191.5t-40.5 269v270q0 151 40.5 269t112.5 191t167.5 110.5t209.5 37.5zM723 1411h-27q-104 0 -190 -34.5t-152 -102.5t-102.5 -179t-36.5 -255v-246q0 -144 36.5 -255t102.5 -179t152 -102.5
t190 -34.5h27q104 0 190 34.5t152 102.5t102.5 179t36.5 255v246q0 144 -36.5 255t-102.5 179t-152 102.5t-190 34.5z" />
    <glyph glyph-name="multiply" unicode="&#xd7;" horiz-adv-x="862" 
d="M466 678l311 -311q7 -7 0 -15l-20 -20q-7 -8 -15 0l-311 311l-311 -311q-8 -8 -15 0l-20 20q-7 8 0 15l311 311l-311 311q-7 7 0 15l20 20q7 8 15 0l311 -311l311 311q8 8 15 0l20 -20q7 -8 0 -15z" />
    <glyph glyph-name="Oslash" unicode="&#xd8;" horiz-adv-x="1419" 
d="M1219 1434h28q22 0 8 -19l-112 -153q112 -156 112 -410v-270q0 -151 -40.5 -269t-112.5 -191.5t-167.5 -111t-209.5 -37.5h-31q-240 0 -384 157l-84 -116q-10 -14 -25 -14h-29q-22 0 -8 18l112 153q-112 156 -112 411v270q0 151 40.5 269t112.5 191t167.5 110.5
t209.5 37.5h31q241 0 384 -156l85 115q11 15 25 15zM215 840v-246q0 -234 95 -378l767 1045q-128 150 -354 150h-27q-104 0 -190 -34.5t-152 -102.5t-102.5 -179t-36.5 -255zM1204 594v246q0 234 -94 377l-768 -1044q128 -150 354 -150h27q104 0 190 34.5t152 102.5
t102.5 179t36.5 255z" />
    <glyph glyph-name="Ugrave" unicode="&#xd9;" horiz-adv-x="1409" 
d="M580 1948l146 -324q3 -6 0.5 -11t-8.5 -5h-17q-13 0 -20 14l-158 322q-3 7 0.5 12.5t11.5 5.5h23q15 0 22 -14zM1176 1434h28q10 0 10 -11v-915q0 -260 -130.5 -397.5t-358.5 -137.5h-31q-228 0 -358.5 137.5t-130.5 397.5v915q0 11 10 11h29q10 0 10 -11v-903
q0 -246 116 -371.5t326 -125.5h27q210 0 326 125.5t116 371.5v903q0 11 11 11z" />
    <glyph glyph-name="Uacute" unicode="&#xda;" horiz-adv-x="1409" 
d="M697 1624l146 324q7 14 22 14h23q8 0 11.5 -5.5t0.5 -12.5l-158 -322q-7 -14 -20 -14h-17q-6 0 -8.5 5t0.5 11zM1176 1434h28q10 0 10 -11v-915q0 -260 -130.5 -397.5t-358.5 -137.5h-31q-228 0 -358.5 137.5t-130.5 397.5v915q0 11 10 11h29q10 0 10 -11v-903
q0 -246 116 -371.5t326 -125.5h27q210 0 326 125.5t116 371.5v903q0 11 11 11z" />
    <glyph glyph-name="Ucircumflex" unicode="&#xdb;" horiz-adv-x="1409" 
d="M733 1948l178 -322q4 -7 0 -12.5t-12 -5.5h-22q-16 0 -23 14l-149 292l-150 -292q-7 -14 -23 -14h-22q-8 0 -12 5.5t0 12.5l178 322q7 14 20 14h17q13 0 20 -14zM1176 1434h28q10 0 10 -11v-915q0 -260 -130.5 -397.5t-358.5 -137.5h-31q-228 0 -358.5 137.5
t-130.5 397.5v915q0 11 10 11h29q10 0 10 -11v-903q0 -246 116 -371.5t326 -125.5h27q210 0 326 125.5t116 371.5v903q0 11 11 11z" />
    <glyph glyph-name="Udieresis" unicode="&#xdc;" horiz-adv-x="1409" 
d="M534 1743h67q12 0 12 -12v-80q0 -13 -12 -13h-67q-13 0 -13 13v80q0 12 13 12zM808 1743h68q12 0 12 -12v-80q0 -13 -12 -13h-68q-12 0 -12 13v80q0 12 12 12zM1176 1434h28q10 0 10 -11v-915q0 -260 -130.5 -397.5t-358.5 -137.5h-31q-228 0 -358.5 137.5t-130.5 397.5
v915q0 11 10 11h29q10 0 10 -11v-903q0 -246 116 -371.5t326 -125.5h27q210 0 326 125.5t116 371.5v903q0 11 11 11z" />
    <glyph glyph-name="Yacute" unicode="&#xdd;" horiz-adv-x="1255" 
d="M620 1624l145 324q7 14 23 14h22q8 0 12 -5.5t1 -12.5l-158 -322q-7 -14 -20 -14h-17q-6 0 -8.5 5t0.5 11zM1131 1434h35q4 0 6 -4t0 -7l-520 -927v-486q0 -10 -10 -10h-29q-10 0 -10 10v486l-520 927q-2 3 0 7t6 4h35q14 0 20 -13l481 -858h5l481 858q7 13 20 13z" />
    <glyph glyph-name="Thorn" unicode="&#xde;" horiz-adv-x="1290" 
d="M256 1243h360q265 0 387.5 -103.5t122.5 -291.5v-49q0 -92 -28.5 -167.5t-88 -135t-159.5 -92.5t-234 -33h-360v-361q0 -10 -10 -10h-31q-10 0 -10 10v1413q0 11 10 11h31q10 0 10 -11v-180zM1075 811v24q0 85 -24.5 149t-78 112t-143.5 73t-215 25h-358v-774h358
q124 0 215 30t143.5 84t77.5 123t25 154z" />
    <glyph glyph-name="germandbls" unicode="&#xdf;" horiz-adv-x="1077" 
d="M422 1536h12q107 0 180.5 -65.5t73.5 -190.5v-14q0 -51 -18.5 -95t-48 -76.5t-65 -61.5t-71 -55.5t-65 -53.5t-48 -60.5t-18.5 -70.5v-15q0 -37 15 -67t35.5 -49.5t58 -38t64.5 -28t72 -24.5q17 -5 25 -8l49 -16q64 -21 102.5 -36t83.5 -39.5t69 -51.5t40.5 -68t16.5 -92
v-10q0 -131 -96 -204t-234 -73h-23q-71 0 -160.5 25t-144.5 59q-12 6 -12 21v26q0 4 3.5 6.5t6.5 0.5q66 -39 149.5 -63.5t159.5 -24.5h19q117 0 198.5 59t81.5 166v14q0 30 -8 56.5t-19.5 45.5t-33.5 37t-39.5 29t-48.5 24t-50 20t-53 18l-49 16q-10 3 -30 10
q-143 46 -199 83q-100 65 -100 175v15q0 43 18.5 82t48 69t65 58.5l71 57t65 58.5t48 69t18.5 83v14q0 100 -60 152.5t-145 52.5h-8q-86 0 -145.5 -56.5t-59.5 -170.5v-1250q0 -10 -10 -10h-31q-10 0 -10 10v1247q0 139 73 209t181 70z" />
    <glyph glyph-name="agrave" unicode="&#xe0;" horiz-adv-x="999" 
d="M378 1538l146 -323q3 -6 0.5 -11.5t-8.5 -5.5h-17q-13 0 -20 14l-158 322q-3 7 0.5 12.5t11.5 5.5h23q15 0 22 -14zM498 1051h12q179 0 254.5 -94t75.5 -289v-658q0 -10 -11 -10h-30q-11 0 -11 10v142q-75 -89 -172.5 -134t-185.5 -45h-12q-153 0 -244.5 78.5
t-91.5 214.5v8q0 166 118 245t361 87l227 7v57q0 170 -61.5 250.5t-218.5 80.5h-8q-162 0 -328 -88q-3 -2 -6.5 0.5t-3.5 6.5v26q0 15 12 21q63 35 156 59.5t168 24.5zM788 562l-258 -9q-203 -7 -300 -76t-97 -203v-10q0 -110 77.5 -175.5t209.5 -65.5h8q193 0 360 198v341z
" />
    <glyph glyph-name="aacute" unicode="&#xe1;" horiz-adv-x="999" 
d="M493 1215l145 323q7 14 23 14h22q8 0 11.5 -5.5t0.5 -12.5l-157 -322q-7 -14 -21 -14h-16q-6 0 -8.5 5.5t0.5 11.5zM498 1051h12q179 0 254.5 -94t75.5 -289v-658q0 -10 -11 -10h-30q-11 0 -11 10v142q-75 -89 -172.5 -134t-185.5 -45h-12q-153 0 -244.5 78.5
t-91.5 214.5v8q0 166 118 245t361 87l227 7v57q0 170 -61.5 250.5t-218.5 80.5h-8q-162 0 -328 -88q-3 -2 -6.5 0.5t-3.5 6.5v26q0 15 12 21q63 35 156 59.5t168 24.5zM788 562l-258 -9q-203 -7 -300 -76t-97 -203v-10q0 -110 77.5 -175.5t209.5 -65.5h8q193 0 360 198v341z
" />
    <glyph glyph-name="acircumflex" unicode="&#xe2;" horiz-adv-x="999" 
d="M528 1538l179 -321q4 -7 -0.5 -13t-12.5 -6h-22q-16 0 -23 14l-149 292l-150 -292q-7 -14 -22 -14h-23q-8 0 -12 6t0 13l178 321q7 14 21 14h16q13 0 20 -14zM498 1051h12q179 0 254.5 -94t75.5 -289v-658q0 -10 -11 -10h-30q-11 0 -11 10v142q-75 -89 -172.5 -134
t-185.5 -45h-12q-153 0 -244.5 78.5t-91.5 214.5v8q0 166 118 245t361 87l227 7v57q0 170 -61.5 250.5t-218.5 80.5h-8q-162 0 -328 -88q-3 -2 -6.5 0.5t-3.5 6.5v26q0 15 12 21q63 35 156 59.5t168 24.5zM788 562l-258 -9q-203 -7 -300 -76t-97 -203v-10
q0 -110 77.5 -175.5t209.5 -65.5h8q193 0 360 198v341z" />
    <glyph glyph-name="atilde" unicode="&#xe3;" horiz-adv-x="999" 
d="M744 1331h23q15 0 10 -16q-13 -48 -65 -92.5t-111 -44.5h-8q-33 0 -60.5 15t-43 33t-40 33t-53.5 15q-68 0 -123 -90q-7 -13 -18 -13h-23q-16 0 -10 17q13 48 65 92.5t111 44.5h9q33 0 60.5 -15t43 -33t39.5 -33t53 -15q68 0 123 90q6 12 18 12zM498 1051h12
q179 0 254.5 -94t75.5 -289v-658q0 -10 -11 -10h-30q-11 0 -11 10v142q-75 -89 -172.5 -134t-185.5 -45h-12q-153 0 -244.5 78.5t-91.5 214.5v8q0 166 118 245t361 87l227 7v57q0 170 -61.5 250.5t-218.5 80.5h-8q-162 0 -328 -88q-3 -2 -6.5 0.5t-3.5 6.5v26q0 15 12 21
q63 35 156 59.5t168 24.5zM788 562l-258 -9q-203 -7 -300 -76t-97 -203v-10q0 -110 77.5 -175.5t209.5 -65.5h8q193 0 360 198v341z" />
    <glyph glyph-name="adieresis" unicode="&#xe4;" horiz-adv-x="999" 
d="M329 1333h67q13 0 13 -12v-80q0 -12 -13 -12h-67q-13 0 -13 12v80q0 12 13 12zM603 1333h68q12 0 12 -12v-80q0 -12 -12 -12h-68q-12 0 -12 12v80q0 12 12 12zM498 1051h12q179 0 254.5 -94t75.5 -289v-658q0 -10 -11 -10h-30q-11 0 -11 10v142q-75 -89 -172.5 -134
t-185.5 -45h-12q-153 0 -244.5 78.5t-91.5 214.5v8q0 166 118 245t361 87l227 7v57q0 170 -61.5 250.5t-218.5 80.5h-8q-162 0 -328 -88q-3 -2 -6.5 0.5t-3.5 6.5v26q0 15 12 21q63 35 156 59.5t168 24.5zM788 562l-258 -9q-203 -7 -300 -76t-97 -203v-10
q0 -110 77.5 -175.5t209.5 -65.5h8q193 0 360 198v341z" />
    <glyph glyph-name="aring" unicode="&#xe5;" horiz-adv-x="999" 
d="M500 1471q63 0 106 -43t43 -103q0 -61 -43.5 -104t-105.5 -43q-64 0 -107 43t-43 104q0 59 43 102.5t107 43.5zM500 1425q-44 0 -71.5 -28.5t-27.5 -69.5q0 -43 27.5 -73.5t71.5 -30.5t71 30.5t27 73.5q0 41 -27 69.5t-71 28.5zM498 1051h12q179 0 254.5 -94t75.5 -289
v-658q0 -10 -11 -10h-30q-11 0 -11 10v142q-75 -89 -172.5 -134t-185.5 -45h-12q-153 0 -244.5 78.5t-91.5 214.5v8q0 166 118 245t361 87l227 7v57q0 170 -61.5 250.5t-218.5 80.5h-8q-162 0 -328 -88q-3 -2 -6.5 0.5t-3.5 6.5v26q0 15 12 21q63 35 156 59.5t168 24.5z
M788 562l-258 -9q-203 -7 -300 -76t-97 -203v-10q0 -110 77.5 -175.5t209.5 -65.5h8q193 0 360 198v341z" />
    <glyph glyph-name="ae" unicode="&#xe6;" horiz-adv-x="1738" 
d="M1198 1051h23q186 0 282 -118t96 -345v-56q0 -10 -10 -10h-749v-127q0 -171 110 -271.5t281 -100.5h8q154 0 320 88q3 2 6.5 -0.5t3.5 -6.5v-26q0 -14 -13 -21q-64 -35 -152.5 -59.5t-162.5 -24.5h-12q-130 0 -232.5 54t-156.5 154v-171q0 -10 -11 -10h-30q-11 0 -11 10
v142q-75 -89 -172.5 -134t-185.5 -45h-12q-153 0 -244.5 78.5t-91.5 214.5v8q0 166 118 245t361 87l227 7v57q0 170 -61.5 250.5t-218.5 80.5h-8q-162 0 -328 -88q-3 -2 -6.5 0.5t-3.5 6.5v26q0 15 12 21q63 35 156 59.5t168 24.5h12q146 0 222 -63t98 -190
q49 121 145.5 187t222.5 66zM840 571h708q0 219 -82.5 324.5t-246.5 105.5h-19q-159 0 -259 -116.5t-101 -313.5zM788 562l-258 -9q-203 -7 -300 -76t-97 -203v-10q0 -110 77.5 -175.5t209.5 -65.5h8q193 0 360 198v341z" />
    <glyph glyph-name="ccedilla" unicode="&#xe7;" horiz-adv-x="1038" 
d="M604 1001h-18q-168 0 -279.5 -109t-111.5 -302v-156q0 -193 111.5 -302t279.5 -109h18q137 0 285 88q3 2 6.5 -0.5t3.5 -6.5v-26q0 -15 -12 -21q-58 -36 -133.5 -60t-147.5 -24h-22q-15 0 -45 2l-18 -112q40 12 82 12q74 0 119 -40.5t45 -110.5q0 -79 -54 -121.5
t-139 -42.5q-69 0 -123 18q-16 5 -16 23v16q0 15 14 12q75 -18 121 -18q68 0 107.5 27t39.5 83q0 51 -31 77t-83 26q-15 0 -30.5 -2.5t-33.5 -6.5t-24 -5q-19 -4 -27 4l-6 6q-12 12 -10 20l23 141q-156 28 -254 146t-98 309v152q0 218 126 340.5t315 122.5h22
q72 0 147.5 -24t133.5 -60q12 -6 12 -21v-26q0 -4 -3.5 -6.5t-6.5 -0.5q-148 88 -285 88z" />
    <glyph glyph-name="egrave" unicode="&#xe8;" horiz-adv-x="1093" 
d="M433 1538l145 -323q3 -6 0.5 -11.5t-8.5 -5.5h-16q-14 0 -21 14l-157 322q-3 7 0.5 12.5t11.5 5.5h23q15 0 22 -14zM553 1051h22q186 0 282.5 -118t96.5 -345v-56q0 -10 -10 -10h-749v-127q0 -171 110 -271.5t281 -100.5h8q153 0 319 88q3 2 7 -0.5t4 -6.5v-26
q0 -14 -13 -21q-64 -35 -152.5 -59.5t-162.5 -24.5h-12q-193 0 -317 114t-124 310v168q0 224 114 355t296 131zM573 1001h-18q-159 0 -259 -116.5t-101 -313.5h708q0 219 -82.5 324.5t-247.5 105.5z" />
    <glyph glyph-name="eacute" unicode="&#xe9;" horiz-adv-x="1093" 
d="M538 1215l145 323q7 14 23 14h22q8 0 12 -5.5t1 -12.5l-158 -322q-7 -14 -21 -14h-16q-6 0 -8.5 5.5t0.5 11.5zM553 1051h22q186 0 282.5 -118t96.5 -345v-56q0 -10 -10 -10h-749v-127q0 -171 110 -271.5t281 -100.5h8q153 0 319 88q3 2 7 -0.5t4 -6.5v-26q0 -14 -13 -21
q-64 -35 -152.5 -59.5t-162.5 -24.5h-12q-193 0 -317 114t-124 310v168q0 224 114 355t296 131zM573 1001h-18q-159 0 -259 -116.5t-101 -313.5h708q0 219 -82.5 324.5t-247.5 105.5z" />
    <glyph glyph-name="ecircumflex" unicode="&#xea;" horiz-adv-x="1093" 
d="M575 1538l179 -321q4 -7 -0.5 -13t-12.5 -6h-22q-16 0 -23 14l-149 292l-150 -292q-7 -14 -22 -14h-23q-8 0 -12 6t0 13l178 321q7 14 21 14h16q13 0 20 -14zM553 1051h22q186 0 282.5 -118t96.5 -345v-56q0 -10 -10 -10h-749v-127q0 -171 110 -271.5t281 -100.5h8
q153 0 319 88q3 2 7 -0.5t4 -6.5v-26q0 -14 -13 -21q-64 -35 -152.5 -59.5t-162.5 -24.5h-12q-193 0 -317 114t-124 310v168q0 224 114 355t296 131zM573 1001h-18q-159 0 -259 -116.5t-101 -313.5h708q0 219 -82.5 324.5t-247.5 105.5z" />
    <glyph glyph-name="edieresis" unicode="&#xeb;" horiz-adv-x="1093" 
d="M376 1333h67q13 0 13 -12v-80q0 -12 -13 -12h-67q-12 0 -12 12v80q0 12 12 12zM650 1333h68q12 0 12 -12v-80q0 -12 -12 -12h-68q-12 0 -12 12v80q0 12 12 12zM553 1051h22q186 0 282.5 -118t96.5 -345v-56q0 -10 -10 -10h-749v-127q0 -171 110 -271.5t281 -100.5h8
q153 0 319 88q3 2 7 -0.5t4 -6.5v-26q0 -14 -13 -21q-64 -35 -152.5 -59.5t-162.5 -24.5h-12q-193 0 -317 114t-124 310v168q0 224 114 355t296 131zM573 1001h-18q-159 0 -259 -116.5t-101 -313.5h708q0 219 -82.5 324.5t-247.5 105.5z" />
    <glyph glyph-name="igrave" unicode="&#xec;" horiz-adv-x="382" 
d="M63 1538l145 -323q3 -6 0.5 -11.5t-8.5 -5.5h-16q-14 0 -21 14l-157 322q-3 7 0.5 12.5t11.5 5.5h23q15 0 22 -14zM178 1024h31q10 0 10 -10v-1004q0 -10 -10 -10h-31q-10 0 -10 10v1004q0 10 10 10z" />
    <glyph glyph-name="iacute" unicode="&#xed;" horiz-adv-x="382" 
d="M182 1215l145 323q7 14 23 14h22q8 0 12 -5.5t1 -12.5l-158 -322q-7 -14 -21 -14h-16q-6 0 -8.5 5.5t0.5 11.5zM178 1024h31q10 0 10 -10v-1004q0 -10 -10 -10h-31q-10 0 -10 10v1004q0 10 10 10z" />
    <glyph glyph-name="icircumflex" unicode="&#xee;" horiz-adv-x="382" 
d="M222 1538l178 -321q4 -7 -0.5 -13t-12.5 -6h-22q-16 0 -23 14l-149 292l-150 -292q-7 -14 -22 -14h-23q-8 0 -12 6t0 13l178 321q7 14 21 14h16q14 0 21 -14zM178 1024h31q10 0 10 -10v-1004q0 -10 -10 -10h-31q-10 0 -10 10v1004q0 10 10 10z" />
    <glyph glyph-name="idieresis" unicode="&#xef;" horiz-adv-x="382" 
d="M22 1333h67q13 0 13 -12v-80q0 -12 -13 -12h-67q-12 0 -12 12v80q0 12 12 12zM296 1333h68q12 0 12 -12v-80q0 -12 -12 -12h-68q-12 0 -12 12v80q0 12 12 12zM178 1024h31q10 0 10 -10v-1004q0 -10 -10 -10h-31q-10 0 -10 10v1004q0 10 10 10z" />
    <glyph glyph-name="eth" unicode="&#xf0;" horiz-adv-x="1099" 
d="M1021 1534l17 -26q8 -7 -2 -15l-140 -98q60 -91 60 -242v-717q0 -224 -106 -343.5t-291 -119.5h-22q-176 0 -285 121t-109 342v125q0 225 103.5 344t292.5 119h8q89 0 186 -45t172 -133v309q0 131 -52 210l-187 -131q-6 -4 -15 3l-17 26q-8 6 2 14l184 129
q-83 81 -240 81h-9q-153 0 -319 -88q-3 -2 -6.5 0t-3.5 6v27q0 14 12 20q64 35 152.5 59.5t162.5 24.5h13q186 0 281 -100l143 100q7 4 15 -2zM905 434v342q-168 199 -360 199h-4q-168 0 -257 -105.5t-89 -306.5v-129q0 -196 94.5 -303.5t249.5 -107.5h18q163 0 255.5 106.5
t92.5 304.5z" />
    <glyph glyph-name="ntilde" unicode="&#xf1;" horiz-adv-x="1103" 
d="M798 1331h22q15 0 10 -16q-13 -48 -65 -92.5t-111 -44.5h-8q-33 0 -60.5 15t-43 33t-39.5 33t-53 15q-68 0 -123 -90q-7 -13 -19 -13h-22q-17 0 -11 17q13 47 65.5 92t111.5 45h8q33 0 60.5 -15t43 -33t39.5 -33t53 -15q68 0 123 90q6 12 19 12zM590 1051h8
q182 0 264 -97.5t82 -287.5v-656q0 -10 -10 -10h-31q-10 0 -10 10v658q0 165 -68 249t-229 84h-4q-90 0 -189 -48.5t-188 -130.5v-812q0 -10 -10 -10h-31q-10 0 -10 10v1004q0 10 10 10h31q10 0 10 -10v-127q82 72 184.5 118t190.5 46z" />
    <glyph glyph-name="ograve" unicode="&#xf2;" horiz-adv-x="1153" 
d="M446 1538l145 -323q3 -6 0.5 -11.5t-8.5 -5.5h-16q-14 0 -21 14l-157 322q-3 7 0.5 12.5t11.5 5.5h22q16 0 23 -14zM565 1051h23q188 0 305 -121t117 -342v-152q0 -221 -117 -342t-305 -121h-23q-188 0 -305 121t-117 342v152q0 221 117 342t305 121zM586 1001h-19
q-166 0 -269 -107.5t-103 -303.5v-156q0 -196 103 -303.5t269 -107.5h19q166 0 269 107.5t103 303.5v156q0 196 -103 303.5t-269 107.5z" />
    <glyph glyph-name="oacute" unicode="&#xf3;" horiz-adv-x="1153" 
d="M562 1215l146 323q7 14 22 14h23q8 0 11.5 -5.5t0.5 -12.5l-158 -322q-7 -14 -20 -14h-17q-6 0 -8.5 5.5t0.5 11.5zM565 1051h23q188 0 305 -121t117 -342v-152q0 -221 -117 -342t-305 -121h-23q-188 0 -305 121t-117 342v152q0 221 117 342t305 121zM586 1001h-19
q-166 0 -269 -107.5t-103 -303.5v-156q0 -196 103 -303.5t269 -107.5h19q166 0 269 107.5t103 303.5v156q0 196 -103 303.5t-269 107.5z" />
    <glyph glyph-name="ocircumflex" unicode="&#xf4;" horiz-adv-x="1153" 
d="M606 1538l178 -321q4 -7 0 -13t-12 -6h-22q-16 0 -23 14l-149 292l-150 -292q-7 -14 -22 -14h-23q-8 0 -12 6t0 13l178 321q7 14 20 14h17q13 0 20 -14zM565 1051h23q188 0 305 -121t117 -342v-152q0 -221 -117 -342t-305 -121h-23q-188 0 -305 121t-117 342v152
q0 221 117 342t305 121zM586 1001h-19q-166 0 -269 -107.5t-103 -303.5v-156q0 -196 103 -303.5t269 -107.5h19q166 0 269 107.5t103 303.5v156q0 196 -103 303.5t-269 107.5z" />
    <glyph glyph-name="otilde" unicode="&#xf5;" horiz-adv-x="1153" 
d="M822 1331h23q15 0 10 -16q-13 -48 -65 -92.5t-111 -44.5h-8q-33 0 -60.5 15t-43 33t-40 33t-53.5 15q-68 0 -123 -90q-7 -13 -18 -13h-23q-16 0 -10 17q13 48 65 92.5t111 44.5h8q33 0 60.5 -15t43 -33t40 -33t53.5 -15q68 0 123 90q6 12 18 12zM565 1051h23
q188 0 305 -121t117 -342v-152q0 -221 -117 -342t-305 -121h-23q-188 0 -305 121t-117 342v152q0 221 117 342t305 121zM586 1001h-19q-166 0 -269 -107.5t-103 -303.5v-156q0 -196 103 -303.5t269 -107.5h19q166 0 269 107.5t103 303.5v156q0 196 -103 303.5t-269 107.5z
" />
    <glyph glyph-name="odieresis" unicode="&#xf6;" horiz-adv-x="1153" 
d="M407 1333h67q12 0 12 -12v-80q0 -12 -12 -12h-67q-13 0 -13 12v80q0 12 13 12zM681 1333h68q12 0 12 -12v-80q0 -12 -12 -12h-68q-12 0 -12 12v80q0 12 12 12zM565 1051h23q188 0 305 -121t117 -342v-152q0 -221 -117 -342t-305 -121h-23q-188 0 -305 121t-117 342v152
q0 221 117 342t305 121zM586 1001h-19q-166 0 -269 -107.5t-103 -303.5v-156q0 -196 103 -303.5t269 -107.5h19q166 0 269 107.5t103 303.5v156q0 196 -103 303.5t-269 107.5z" />
    <glyph glyph-name="divide" unicode="&#xf7;" horiz-adv-x="1114" 
d="M524 1098h68q12 0 12 -13v-79q0 -13 -12 -13h-68q-12 0 -12 13v79q0 13 12 13zM92 686h930q10 0 10 -10v-29q0 -10 -10 -10h-930q-10 0 -10 10v29q0 10 10 10zM524 330h68q12 0 12 -13v-79q0 -13 -12 -13h-68q-12 0 -12 13v79q0 13 12 13z" />
    <glyph glyph-name="oslash" unicode="&#xf8;" horiz-adv-x="1153" 
d="M971 1024h30q22 0 9 -18l-89 -110q89 -121 89 -308v-152q0 -221 -117 -342t-305 -121h-23q-185 0 -298 115l-60 -74q-10 -14 -25 -14h-30q-22 0 -9 18l89 110q-89 121 -89 308v152q0 221 117 342t305 121h23q185 0 298 -115l60 74q10 14 25 14zM195 590v-156
q0 -158 71 -264l588 725q-100 106 -268 106h-19q-166 0 -269 -107.5t-103 -303.5zM958 434v156q0 158 -71 264l-588 -725q100 -106 268 -106h19q166 0 269 107.5t103 303.5z" />
    <glyph glyph-name="ugrave" unicode="&#xf9;" 
d="M417 1538l145 -323q3 -6 0.5 -11.5t-8.5 -5.5h-16q-14 0 -21 14l-157 322q-3 7 0.5 12.5t11.5 5.5h22q16 0 23 -14zM883 1024h30q11 0 11 -10v-1004q0 -10 -11 -10h-30q-11 0 -11 10v127q-82 -72 -184 -118t-190 -46h-9q-177 0 -253 97t-76 288v656q0 10 10 10h31
q10 0 10 -10v-658q0 -167 63 -250t218 -83h4q90 0 188 48t188 131v812q0 10 11 10z" />
    <glyph glyph-name="uacute" unicode="&#xfa;" 
d="M530 1215l145 323q7 14 23 14h23q8 0 11.5 -5.5t0.5 -12.5l-158 -322q-7 -14 -20 -14h-17q-6 0 -8.5 5.5t0.5 11.5zM883 1024h30q11 0 11 -10v-1004q0 -10 -11 -10h-30q-11 0 -11 10v127q-82 -72 -184 -118t-190 -46h-9q-177 0 -253 97t-76 288v656q0 10 10 10h31
q10 0 10 -10v-658q0 -167 63 -250t218 -83h4q90 0 188 48t188 131v812q0 10 11 10z" />
    <glyph glyph-name="ucircumflex" unicode="&#xfb;" 
d="M571 1538l179 -321q4 -7 -0.5 -13t-12.5 -6h-22q-16 0 -23 14l-149 292l-150 -292q-7 -14 -22 -14h-23q-8 0 -12 6t0 13l178 321q7 14 21 14h16q13 0 20 -14zM883 1024h30q11 0 11 -10v-1004q0 -10 -11 -10h-30q-11 0 -11 10v127q-82 -72 -184 -118t-190 -46h-9
q-177 0 -253 97t-76 288v656q0 10 10 10h31q10 0 10 -10v-658q0 -167 63 -250t218 -83h4q90 0 188 48t188 131v812q0 10 11 10z" />
    <glyph glyph-name="udieresis" unicode="&#xfc;" 
d="M372 1333h67q13 0 13 -12v-80q0 -12 -13 -12h-67q-13 0 -13 12v80q0 12 13 12zM646 1333h68q12 0 12 -12v-80q0 -12 -12 -12h-68q-12 0 -12 12v80q0 12 12 12zM883 1024h30q11 0 11 -10v-1004q0 -10 -11 -10h-30q-11 0 -11 10v127q-82 -72 -184 -118t-190 -46h-9
q-177 0 -253 97t-76 288v656q0 10 10 10h31q10 0 10 -10v-658q0 -167 63 -250t218 -83h4q90 0 188 48t188 131v812q0 10 11 10z" />
    <glyph glyph-name="yacute" unicode="&#xfd;" horiz-adv-x="997" 
d="M493 1215l146 323q7 14 22 14h23q8 0 11.5 -5.5t0.5 -12.5l-158 -322q-7 -14 -20 -14h-16q-6 0 -9 5.5t0 11.5zM900 1024h28q10 0 7 -10l-441 -1125q-56 -140 -111.5 -199t-150.5 -59h-12q-55 0 -121 29q-12 5 -12 18v21q0 6 4 9.5t10 0.5q66 -28 121 -28h8
q69 0 116.5 45t92.5 161l43 113h-6q-17 0 -23 16l-391 998q-3 10 8 10h27q17 0 23 -16l376 -959h5l376 959q6 16 23 16z" />
    <glyph glyph-name="thorn" unicode="&#xfe;" horiz-adv-x="1124" 
d="M578 1051h8q189 0 292 -119t103 -344v-152q0 -225 -103 -344t-292 -119h-8q-89 0 -186.5 45t-172.5 134v-484q0 -10 -10 -10h-31q-10 0 -10 10v1831q0 10 10 10h31q10 0 10 -10v-627q75 89 172.5 134t186.5 45zM930 434v156q0 200 -89 305.5t-257 105.5h-4
q-194 0 -361 -198v-582q167 -198 361 -198h4q168 0 257 105.5t89 305.5z" />
    <glyph glyph-name="ydieresis" unicode="&#xff;" horiz-adv-x="997" 
d="M327 1333h67q13 0 13 -12v-80q0 -12 -13 -12h-67q-13 0 -13 12v80q0 12 13 12zM601 1333h68q12 0 12 -12v-80q0 -12 -12 -12h-68q-12 0 -12 12v80q0 12 12 12zM900 1024h28q10 0 7 -10l-441 -1125q-56 -140 -111.5 -199t-150.5 -59h-12q-55 0 -121 29q-12 5 -12 18v21
q0 6 4 9.5t10 0.5q66 -28 121 -28h8q69 0 116.5 45t92.5 161l43 113h-6q-17 0 -23 16l-391 998q-3 10 8 10h27q17 0 23 -16l375 -959h6l376 959q6 16 23 16z" />
    <glyph glyph-name="Amacron" unicode="&#x100;" horiz-adv-x="1249" 
d="M370 1688h510q10 0 10 -11v-28q0 -11 -10 -11h-510q-11 0 -11 11v28q0 11 11 11zM605 1434h39q15 0 22 -17l500 -1407q3 -10 -6 -10h-29q-16 0 -22 16l-169 476h-631l-169 -476q-6 -16 -23 -16h-28q-9 0 -6 10l499 1407q6 15 23 17zM621 1376l-215 -612l-80 -223h596
l-80 223l-216 612h-5z" />
    <glyph glyph-name="amacron" unicode="&#x101;" horiz-adv-x="999" 
d="M245 1278h510q10 0 10 -10v-29q0 -10 -10 -10h-510q-11 0 -11 10v29q0 10 11 10zM498 1051h12q179 0 254.5 -94t75.5 -289v-658q0 -10 -11 -10h-30q-11 0 -11 10v142q-75 -89 -172.5 -134t-185.5 -45h-12q-153 0 -244.5 78.5t-91.5 214.5v8q0 166 118 245t361 87l227 7
v57q0 170 -61.5 250.5t-218.5 80.5h-8q-162 0 -328 -88q-3 -2 -6.5 0.5t-3.5 6.5v26q0 15 12 21q63 35 156 59.5t168 24.5zM788 562l-258 -9q-203 -7 -300 -76t-97 -203v-10q0 -110 77.5 -175.5t209.5 -65.5h8q193 0 360 198v341z" />
    <glyph glyph-name="Abreve" unicode="&#x102;" horiz-adv-x="1249" 
d="M874 1755q6 4 11.5 1t5.5 -9v-25q0 -13 -10 -20q-39 -31 -107 -57.5t-149 -26.5t-149 26.5t-107 57.5q-11 7 -11 20v25q0 6 5.5 9t11.5 -1q36 -25 63.5 -40.5t79.5 -31.5t107 -16t107 16t79 31.5t63 40.5zM605 1434h39q15 0 22 -17l500 -1407q3 -10 -6 -10h-29
q-16 0 -22 16l-169 476h-631l-169 -476q-6 -16 -23 -16h-28q-9 0 -6 10l499 1407q6 15 23 17zM621 1376l-215 -612l-80 -223h596l-80 223l-216 612h-5z" />
    <glyph glyph-name="abreve" unicode="&#x103;" horiz-adv-x="999" 
d="M750 1346q6 4 11 0.5t5 -9.5v-24q0 -14 -10 -21q-39 -31 -107 -57.5t-149 -26.5t-149 26.5t-107 57.5q-11 7 -11 21v24q0 6 5.5 9.5t11.5 -0.5q36 -25 63.5 -40.5t79.5 -31.5t107 -16t107 16t79.5 31.5t63.5 40.5zM498 1051h12q179 0 254.5 -94t75.5 -289v-658
q0 -10 -11 -10h-30q-11 0 -11 10v142q-75 -89 -172.5 -134t-185.5 -45h-12q-153 0 -244.5 78.5t-91.5 214.5v8q0 166 118 245t361 87l227 7v57q0 170 -61.5 250.5t-218.5 80.5h-8q-162 0 -328 -88q-3 -2 -6.5 0.5t-3.5 6.5v26q0 15 12 21q63 35 156 59.5t168 24.5zM788 562
l-258 -9q-203 -7 -300 -76t-97 -203v-10q0 -110 77.5 -175.5t209.5 -65.5h8q193 0 360 198v341z" />
    <glyph glyph-name="Aogonek" unicode="&#x104;" horiz-adv-x="1249" 
d="M666 1417l500 -1407q3 -10 -6 -10q-109 -86 -161 -147.5t-52 -131.5q0 -56 34 -83t93 -27q30 0 72 10q14 3 14 -12v-17q0 -17 -16 -22q-30 -10 -74 -10q-75 0 -123.5 42.5t-48.5 121.5q0 68 47 129t168 156q-3 3 -4 7l-169 476h-631l-169 -476q-6 -16 -23 -16h-28
q-9 0 -6 10l499 1407q6 15 23 17h39q15 0 22 -17zM922 541l-79 223l-217 612h-5l-215 -612l-80 -223h596z" />
    <glyph glyph-name="aogonek" unicode="&#x105;" horiz-adv-x="999" 
d="M498 1051h12q179 0 254.5 -94t75.5 -289v-658q0 -10 -11 -10q-109 -86 -161 -147.5t-52 -131.5q0 -56 34 -83t93 -27q30 0 72 10q14 3 14 -12v-17q0 -17 -16 -22q-30 -10 -74 -10q-76 0 -124 42t-48 121q0 69 48 130.5t173 160.5v138q-75 -89 -172.5 -134t-185.5 -45h-12
q-153 0 -244.5 78.5t-91.5 214.5v8q0 166 118 245t361 87l227 7v57q0 170 -61.5 250.5t-218.5 80.5h-8q-162 0 -328 -88q-3 -2 -6.5 0.5t-3.5 6.5v26q0 15 12 21q63 35 156 59.5t168 24.5zM420 23h8q193 0 360 198v341l-258 -9q-203 -7 -300 -76t-97 -203v-10
q0 -110 77.5 -175.5t209.5 -65.5z" />
    <glyph glyph-name="Cacute" unicode="&#x106;" horiz-adv-x="1218" 
d="M704 1624l145 324q7 14 23 14h22q8 0 11.5 -5.5t0.5 -12.5l-157 -322q-7 -14 -21 -14h-16q-6 0 -8.5 5t0.5 11zM735 1460h21q96 0 188.5 -27.5t159.5 -66.5q12 -6 12 -20v-27q0 -4 -3.5 -6t-6.5 0q-177 98 -352 98h-17q-104 0 -196.5 -37t-166 -108t-116.5 -185.5
t-43 -257.5v-213q0 -143 43 -257.5t116.5 -185t166 -107.5t196.5 -37h17q175 0 352 98q3 2 6.5 0t3.5 -6v-27q0 -14 -12 -20q-68 -39 -160 -67t-188 -28h-21q-114 0 -215.5 40.5t-181.5 116t-127 197t-47 271.5v238q0 150 47 271t127 197t181.5 116t215.5 40z" />
    <glyph glyph-name="cacute" unicode="&#x107;" horiz-adv-x="1038" 
d="M530 1215l146 323q7 14 22 14h23q8 0 11.5 -5.5t0.5 -12.5l-158 -322q-7 -14 -20 -14h-17q-6 0 -8.5 5.5t0.5 11.5zM584 1051h22q72 0 147.5 -24t133.5 -60q12 -6 12 -21v-26q0 -4 -3.5 -6.5t-6.5 -0.5q-148 88 -285 88h-18q-168 0 -279.5 -109t-111.5 -302v-156
q0 -193 111.5 -302t279.5 -109h18q137 0 285 88q3 2 6.5 -0.5t3.5 -6.5v-26q0 -15 -12 -21q-58 -36 -133.5 -60t-147.5 -24h-22q-189 0 -315 122.5t-126 340.5v152q0 218 126 340.5t315 122.5z" />
    <glyph glyph-name="Cdotaccent" unicode="&#x10a;" horiz-adv-x="1218" 
d="M712 1743h68q12 0 12 -12v-80q0 -13 -12 -13h-68q-12 0 -12 13v80q0 12 12 12zM735 1460h21q96 0 188.5 -27.5t159.5 -66.5q12 -6 12 -20v-27q0 -4 -3.5 -6t-6.5 0q-177 98 -352 98h-17q-104 0 -196.5 -37t-166 -108t-116.5 -185.5t-43 -257.5v-213q0 -143 43 -257.5
t116.5 -185t166 -107.5t196.5 -37h17q175 0 352 98q3 2 6.5 0t3.5 -6v-27q0 -14 -12 -20q-68 -39 -160 -67t-188 -28h-21q-114 0 -215.5 40.5t-181.5 116t-127 197t-47 271.5v238q0 150 47 271t127 197t181.5 116t215.5 40z" />
    <glyph glyph-name="cdotaccent" unicode="&#x10b;" horiz-adv-x="1038" 
d="M555 1333h68q12 0 12 -12v-80q0 -12 -12 -12h-68q-12 0 -12 12v80q0 12 12 12zM584 1051h22q72 0 147.5 -24t133.5 -60q12 -6 12 -21v-26q0 -4 -3.5 -6.5t-6.5 -0.5q-148 88 -285 88h-18q-168 0 -279.5 -109t-111.5 -302v-156q0 -193 111.5 -302t279.5 -109h18
q137 0 285 88q3 2 6.5 -0.5t3.5 -6.5v-26q0 -15 -12 -21q-58 -36 -133.5 -60t-147.5 -24h-22q-189 0 -315 122.5t-126 340.5v152q0 218 126 340.5t315 122.5z" />
    <glyph glyph-name="Ccaron" unicode="&#x10c;" horiz-adv-x="1218" 
d="M915 1962h23q8 0 12 -5.5t0 -12.5l-178 -322q-7 -14 -20 -14h-17q-13 0 -20 14l-178 322q-4 7 0 12.5t12 5.5h22q16 0 23 -14l149 -292l150 292q7 14 22 14zM735 1460h21q96 0 188.5 -27.5t159.5 -66.5q12 -6 12 -20v-27q0 -4 -3.5 -6t-6.5 0q-177 98 -352 98h-17
q-104 0 -196.5 -37t-166 -108t-116.5 -185.5t-43 -257.5v-213q0 -143 43 -257.5t116.5 -185t166 -107.5t196.5 -37h17q175 0 352 98q3 2 6.5 0t3.5 -6v-27q0 -14 -12 -20q-68 -39 -160 -67t-188 -28h-21q-114 0 -215.5 40.5t-181.5 116t-127 197t-47 271.5v238q0 150 47 271
t127 197t181.5 116t215.5 40z" />
    <glyph glyph-name="ccaron" unicode="&#x10d;" horiz-adv-x="1038" 
d="M740 1552h22q8 0 12 -5.5t0 -12.5l-178 -322q-7 -14 -20 -14h-17q-13 0 -20 14l-178 322q-4 7 0 12.5t12 5.5h22q16 0 23 -14l150 -292l149 292q7 14 23 14zM584 1051h22q72 0 147.5 -24t133.5 -60q12 -6 12 -21v-26q0 -4 -3.5 -6.5t-6.5 -0.5q-148 88 -285 88h-18
q-168 0 -279.5 -109t-111.5 -302v-156q0 -193 111.5 -302t279.5 -109h18q137 0 285 88q3 2 6.5 -0.5t3.5 -6.5v-26q0 -15 -12 -21q-58 -36 -133.5 -60t-147.5 -24h-22q-189 0 -315 122.5t-126 340.5v152q0 218 126 340.5t315 122.5z" />
    <glyph glyph-name="Dcaron" unicode="&#x10e;" horiz-adv-x="1366" 
d="M780 1962h22q8 0 12 -5.5t0 -12.5l-178 -322q-7 -14 -20 -14h-17q-13 0 -20 14l-178 322q-4 7 0 12.5t12 5.5h23q15 0 22 -14l150 -292l149 292q7 14 23 14zM215 1434h457q114 0 209.5 -37.5t167.5 -111t112.5 -191.5t40.5 -269v-217q0 -151 -40.5 -269t-112.5 -191
t-167.5 -110.5t-209.5 -37.5h-457q-10 0 -10 10v1413q0 11 10 11zM1151 621v192q0 144 -36.5 255t-102.5 179t-152 102.5t-190 34.5h-414v-1335h414q104 0 190.5 34.5t152 103t102 179.5t36.5 255z" />
    <glyph glyph-name="dcaron" unicode="&#x10f;" horiz-adv-x="1247" 
d="M915 1509h31q10 0 10 -10v-1489q0 -10 -10 -10h-31q-10 0 -10 10v142q-75 -89 -172.5 -134t-185.5 -45h-8q-189 0 -292.5 119t-103.5 344v152q0 225 103.5 344t292.5 119h8q88 0 185.5 -45t172.5 -134v627q0 10 10 10zM1102 1509h72q12 0 12 -12v-70q0 -12 -2 -20
l-61 -226q-3 -8 -10 -8h-31q-14 0 -10 18l59 214h-29q-12 0 -12 12v80q0 12 12 12zM545 1001h-4q-168 0 -257 -105.5t-89 -305.5v-156q0 -200 89 -305.5t257 -105.5h4q193 0 360 198v582q-167 198 -360 198z" />
    <glyph glyph-name="Dcroat" unicode="&#x110;" horiz-adv-x="1366" 
d="M215 1434h457q114 0 209.5 -37.5t167.5 -111t112.5 -191.5t40.5 -269v-217q0 -151 -40.5 -269t-112.5 -191t-167.5 -110.5t-209.5 -37.5h-457q-10 0 -10 10v627h-113q-10 0 -10 10v29q0 10 10 10h113v737q0 11 10 11zM1151 621v192q0 144 -36.5 255t-102.5 179
t-152 102.5t-190 34.5h-414v-698h455q10 0 10 -10v-29q0 -10 -10 -10h-455v-588h414q104 0 190.5 34.5t152 103t102 179.5t36.5 255z" />
    <glyph glyph-name="dcroat" unicode="&#x111;" horiz-adv-x="1120" 
d="M956 1337h134q10 0 10 -10v-28q0 -11 -10 -11h-134v-1278q0 -10 -10 -10h-31q-10 0 -10 10v142q-75 -89 -172.5 -134t-185.5 -45h-8q-189 0 -292.5 119t-103.5 344v152q0 225 103.5 344t292.5 119h8q88 0 185.5 -45t172.5 -134v416h-325q-10 0 -10 11v28q0 10 10 10h325
v162q0 10 10 10h31q10 0 10 -10v-162zM905 221v582q-167 198 -360 198h-4q-168 0 -257 -105.5t-89 -305.5v-156q0 -200 89 -305.5t257 -105.5h4q193 0 360 198z" />
    <glyph glyph-name="Emacron" unicode="&#x112;" horiz-adv-x="1155" 
d="M374 1688h510q10 0 10 -11v-28q0 -11 -10 -11h-510q-10 0 -10 11v28q0 11 10 11zM256 766h745q11 0 11 -10v-29q0 -10 -11 -10h-745v-668h786q11 0 11 -10v-29q0 -10 -11 -10h-827q-10 0 -10 10v1413q0 11 10 11h827q11 0 11 -11v-28q0 -11 -11 -11h-786v-618z" />
    <glyph glyph-name="emacron" unicode="&#x113;" horiz-adv-x="1093" 
d="M292 1278h510q10 0 10 -10v-29q0 -10 -10 -10h-510q-10 0 -10 10v29q0 10 10 10zM553 1051h22q186 0 282.5 -118t96.5 -345v-56q0 -10 -10 -10h-749v-127q0 -171 110 -271.5t281 -100.5h8q153 0 319 88q3 2 7 -0.5t4 -6.5v-26q0 -14 -13 -21q-64 -35 -152.5 -59.5
t-162.5 -24.5h-12q-193 0 -317 114t-124 310v168q0 224 114 355t296 131zM573 1001h-18q-159 0 -259 -116.5t-101 -313.5h708q0 219 -82.5 324.5t-247.5 105.5z" />
    <glyph glyph-name="Edotaccent" unicode="&#x116;" horiz-adv-x="1155" 
d="M601 1743h68q12 0 12 -12v-80q0 -13 -12 -13h-68q-12 0 -12 13v80q0 12 12 12zM256 766h745q11 0 11 -10v-29q0 -10 -11 -10h-745v-668h786q11 0 11 -10v-29q0 -10 -11 -10h-827q-10 0 -10 10v1413q0 11 10 11h827q11 0 11 -11v-28q0 -11 -11 -11h-786v-618z" />
    <glyph glyph-name="edotaccent" unicode="&#x117;" horiz-adv-x="1093" 
d="M513 1333h68q12 0 12 -12v-80q0 -12 -12 -12h-68q-12 0 -12 12v80q0 12 12 12zM553 1051h22q186 0 282.5 -118t96.5 -345v-56q0 -10 -10 -10h-749v-127q0 -171 110 -271.5t281 -100.5h8q153 0 319 88q3 2 7 -0.5t4 -6.5v-26q0 -14 -13 -21q-64 -35 -152.5 -59.5
t-162.5 -24.5h-12q-193 0 -317 114t-124 310v168q0 224 114 355t296 131zM573 1001h-18q-159 0 -259 -116.5t-101 -313.5h708q0 219 -82.5 324.5t-247.5 105.5z" />
    <glyph glyph-name="Eogonek" unicode="&#x118;" horiz-adv-x="1155" 
d="M256 1384v-618h745q11 0 11 -10v-29q0 -10 -11 -10h-745v-668h786q11 0 11 -10v-29q0 -10 -11 -10h-2q-109 -86 -161 -147.5t-52 -131.5q0 -56 34 -83t93 -27q30 0 72 10q14 3 14 -12v-17q0 -17 -16 -22q-30 -10 -74 -10q-75 0 -123.5 42.5t-48.5 121.5q0 68 45.5 128
t157.5 148h-766q-10 0 -10 10v1413q0 11 10 11h827q11 0 11 -11v-28q0 -11 -11 -11h-786z" />
    <glyph glyph-name="eogonek" unicode="&#x119;" horiz-adv-x="1093" 
d="M553 1051h22q186 0 282.5 -118t96.5 -345v-56q0 -10 -10 -10h-749v-127q0 -171 110 -271.5t281 -100.5h8q153 0 319 88q3 2 7 -0.5t4 -6.5v-26q0 -14 -13 -21q-72 -39 -172 -64q-104 -83 -154 -143.5t-50 -128.5q0 -56 34 -83t93 -27q30 0 72 10q14 3 14 -12v-17
q0 -17 -16 -22q-30 -10 -74 -10q-75 0 -123.5 42.5t-48.5 121.5q0 64 40 120.5t135 133.5q-38 -5 -65 -5h-12q-193 0 -317 114t-124 310v168q0 224 114 355t296 131zM195 571h708q0 219 -82.5 324.5t-247.5 105.5h-18q-159 0 -259 -116.5t-101 -313.5z" />
    <glyph glyph-name="Ecaron" unicode="&#x11a;" horiz-adv-x="1155" 
d="M793 1962h23q8 0 12 -5.5t0 -12.5l-178 -322q-7 -14 -21 -14h-16q-14 0 -21 14l-178 322q-4 7 0 12.5t12 5.5h23q16 0 23 -14l149 -292l150 292q7 14 22 14zM256 766h745q11 0 11 -10v-29q0 -10 -11 -10h-745v-668h786q11 0 11 -10v-29q0 -10 -11 -10h-827q-10 0 -10 10
v1413q0 11 10 11h827q11 0 11 -11v-28q0 -11 -11 -11h-786v-618z" />
    <glyph glyph-name="ecaron" unicode="&#x11b;" horiz-adv-x="1093" 
d="M719 1552h22q8 0 12.5 -5.5t0.5 -12.5l-179 -322q-7 -14 -20 -14h-16q-14 0 -21 14l-178 322q-4 7 0 12.5t12 5.5h23q15 0 22 -14l150 -292l149 292q7 14 23 14zM553 1051h22q186 0 282.5 -118t96.5 -345v-56q0 -10 -10 -10h-749v-127q0 -171 110 -271.5t281 -100.5h8
q153 0 319 88q3 2 7 -0.5t4 -6.5v-26q0 -14 -13 -21q-64 -35 -152.5 -59.5t-162.5 -24.5h-12q-193 0 -317 114t-124 310v168q0 224 114 355t296 131zM573 1001h-18q-159 0 -259 -116.5t-101 -313.5h708q0 219 -82.5 324.5t-247.5 105.5z" />
    <glyph glyph-name="Gbreve" unicode="&#x11e;" horiz-adv-x="1337" 
d="M1023 1755q6 4 11.5 1t5.5 -9v-25q0 -13 -10 -20q-39 -31 -107 -57.5t-149 -26.5t-149 26.5t-107 57.5q-11 7 -11 20v25q0 6 5.5 9t11.5 -1q36 -25 63.5 -40.5t79.5 -31.5t107 -16t107 16t79 31.5t63 40.5zM762 1460h20q96 0 189 -27.5t160 -66.5q12 -6 12 -20v-27
q0 -4 -3.5 -6t-6.5 0q-177 98 -353 98h-16q-85 0 -164.5 -23t-149.5 -71t-122 -116t-82.5 -165.5t-30.5 -212.5v-213q0 -115 30.5 -212.5t82.5 -165.5t122 -116t149.5 -70.5t164.5 -22.5h16q160 0 312 76v585q0 10 10 10h31q10 0 10 -10v-596q0 -14 -12 -20
q-68 -39 -160.5 -67t-188.5 -28h-20q-93 0 -180 25t-163.5 76.5t-133.5 124.5t-89.5 175.5t-31.5 223.5v238q0 121 33 223.5t90 175.5t133 124.5t162.5 76t179.5 24.5z" />
    <glyph glyph-name="gbreve" unicode="&#x11f;" horiz-adv-x="1110" 
d="M805 1346q6 4 11 0.5t5 -9.5v-24q0 -14 -10 -21q-39 -31 -107 -57.5t-149 -26.5t-149 26.5t-107 57.5q-10 7 -10 21v24q0 6 5 9.5t11 -0.5q36 -25 63.5 -40.5t79.5 -31.5t107 -16t107 16t79.5 31.5t63.5 40.5zM934 938q12 -9 12 -23v-901q0 -188 -95.5 -285.5
t-279.5 -97.5h-12q-74 0 -162.5 24.5t-152.5 59.5q-13 7 -13 21v26q0 4 4 6.5t7 0.5q166 -88 319 -88h8q163 0 244.5 84t81.5 247v140q-75 -89 -172.5 -134t-185.5 -45h-9q-188 0 -286.5 118t-98.5 345v152q0 223 106 343t290 120h12q88 0 201 -36t182 -77zM530 23h5
q193 0 360 198v676q-178 104 -346 104h-8q-162 0 -254 -106.5t-92 -304.5v-156q0 -202 84.5 -306.5t250.5 -104.5z" />
    <glyph glyph-name="Gdotaccent" unicode="&#x120;" horiz-adv-x="1337" 
d="M713 1743h68q12 0 12 -12v-80q0 -13 -12 -13h-68q-12 0 -12 13v80q0 12 12 12zM762 1460h20q96 0 189 -27.5t160 -66.5q12 -6 12 -20v-27q0 -4 -3.5 -6t-6.5 0q-177 98 -353 98h-16q-85 0 -164.5 -23t-149.5 -71t-122 -116t-82.5 -165.5t-30.5 -212.5v-213
q0 -115 30.5 -212.5t82.5 -165.5t122 -116t149.5 -70.5t164.5 -22.5h16q160 0 312 76v585q0 10 10 10h31q10 0 10 -10v-596q0 -14 -12 -20q-68 -39 -160.5 -67t-188.5 -28h-20q-93 0 -180 25t-163.5 76.5t-133.5 124.5t-89.5 175.5t-31.5 223.5v238q0 121 33 223.5t90 175.5
t133 124.5t162.5 76t179.5 24.5z" />
    <glyph glyph-name="gdotaccent" unicode="&#x121;" horiz-adv-x="1110" 
d="M521 1303h68q12 0 12 -13v-80q0 -12 -12 -12h-68q-12 0 -12 12v80q0 13 12 13zM934 938q12 -9 12 -23v-901q0 -188 -95.5 -285.5t-279.5 -97.5h-12q-74 0 -162.5 24.5t-152.5 59.5q-13 7 -13 21v26q0 4 4 6.5t7 0.5q166 -88 319 -88h8q163 0 244.5 84t81.5 247v140
q-75 -89 -172.5 -134t-185.5 -45h-9q-188 0 -286.5 118t-98.5 345v152q0 223 106 343t290 120h12q88 0 201 -36t182 -77zM530 23h5q193 0 360 198v676q-178 104 -346 104h-8q-162 0 -254 -106.5t-92 -304.5v-156q0 -202 84.5 -306.5t250.5 -104.5z" />
    <glyph glyph-name="Gcommaaccent" unicode="&#x122;" horiz-adv-x="1337" 
d="M762 1460h20q96 0 189 -27.5t160 -66.5q12 -6 12 -20v-27q0 -4 -3.5 -6t-6.5 0q-177 98 -353 98h-16q-85 0 -164.5 -23t-149.5 -71t-122 -116t-82.5 -165.5t-30.5 -212.5v-213q0 -115 30.5 -212.5t82.5 -165.5t122 -116t149.5 -70.5t164.5 -22.5h16q160 0 312 76v585
q0 10 10 10h31q10 0 10 -10v-596q0 -14 -12 -20q-68 -39 -160.5 -67t-188.5 -28h-20q-93 0 -180 25t-163.5 76.5t-133.5 124.5t-89.5 175.5t-31.5 223.5v238q0 121 33 223.5t90 175.5t133 124.5t162.5 76t179.5 24.5zM734 -102h72q12 0 12 -13v-69q0 -13 -2 -21l-61 -226
q-3 -8 -10 -8h-31q-14 0 -10 18l59 214h-29q-12 0 -12 13v79q0 13 12 13z" />
    <glyph glyph-name="gcommaaccent" unicode="&#x123;" horiz-adv-x="1110" 
d="M578 1198h-72q-12 0 -12 12v70q0 13 2 21l61 226q3 8 10 8h31q15 0 10 -19l-59 -213h29q12 0 12 -13v-80q0 -12 -12 -12zM934 938q12 -9 12 -23v-901q0 -188 -95.5 -285.5t-279.5 -97.5h-12q-74 0 -162.5 24.5t-152.5 59.5q-13 7 -13 21v26q0 4 4 6.5t7 0.5
q166 -88 319 -88h8q163 0 244.5 84t81.5 247v140q-75 -89 -172.5 -134t-185.5 -45h-9q-188 0 -286.5 118t-98.5 345v152q0 223 106 343t290 120h12q88 0 201 -36t182 -77zM530 23h5q193 0 360 198v676q-178 104 -346 104h-8q-162 0 -254 -106.5t-92 -304.5v-156
q0 -202 84.5 -306.5t250.5 -104.5z" />
    <glyph glyph-name="Hbar" unicode="&#x126;" horiz-adv-x="1398" 
d="M1195 1084h113q10 0 10 -11v-28q0 -11 -10 -11h-113v-1024q0 -10 -10 -10h-31q-10 0 -10 10v707h-887v-707q0 -10 -10 -10h-31q-10 0 -10 10v1024h-114q-10 0 -10 11v28q0 11 10 11h114v339q0 11 10 11h31q10 0 10 -11v-339h887v339q0 11 10 11h31q10 0 10 -11v-339z
M1144 1034h-887v-268h887v268z" />
    <glyph glyph-name="hbar" unicode="&#x127;" horiz-adv-x="1112" 
d="M594 1051h8q182 0 266 -98t84 -287v-656q0 -10 -10 -10h-31q-10 0 -10 10v658q0 164 -70 248.5t-231 84.5h-4q-90 0 -189 -48.5t-188 -130.5v-812q0 -10 -10 -10h-31q-10 0 -10 10v1278h-135q-10 0 -10 11v28q0 10 10 10h135v162q0 10 10 10h31q10 0 10 -10v-162h324
q10 0 10 -10v-28q0 -11 -10 -11h-324v-401q82 72 184.5 118t190.5 46z" />
    <glyph glyph-name="Imacron" unicode="&#x12a;" horiz-adv-x="460" 
d="M-24 1688h510q11 0 11 -11v-28q0 -11 -11 -11h-510q-10 0 -10 11v28q0 11 10 11zM215 1434h31q10 0 10 -11v-1413q0 -10 -10 -10h-31q-10 0 -10 10v1413q0 11 10 11z" />
    <glyph glyph-name="imacron" unicode="&#x12b;" horiz-adv-x="382" 
d="M-73 1278h510q10 0 10 -10v-29q0 -10 -10 -10h-510q-10 0 -10 10v29q0 10 10 10zM178 1024h31q10 0 10 -10v-1004q0 -10 -10 -10h-31q-10 0 -10 10v1004q0 10 10 10z" />
    <glyph glyph-name="Iogonek" unicode="&#x12e;" horiz-adv-x="460" 
d="M215 1434h31q10 0 10 -11v-1413q0 -10 -10 -10q-109 -86 -161 -147.5t-52 -131.5q0 -56 34 -83t93 -27q29 0 71 10q15 4 15 -12v-17q0 -17 -17 -22q-30 -10 -73 -10q-75 0 -123.5 42.5t-48.5 121.5q0 68 47.5 129.5t173.5 160.5v1409q0 11 10 11z" />
    <glyph glyph-name="iogonek" unicode="&#x12f;" horiz-adv-x="382" 
d="M159 1333h68q12 0 12 -12v-80q0 -12 -12 -12h-68q-12 0 -12 12v80q0 12 12 12zM178 1024h31q10 0 10 -10v-1004q0 -10 -10 -10q-109 -86 -161 -147.5t-52 -131.5q0 -56 34 -83t93 -27q30 0 72 10q14 3 14 -12v-17q0 -17 -16 -22q-30 -10 -74 -10q-75 0 -123.5 42.5
t-48.5 121.5q0 68 48 130t173 160v1000q0 10 10 10z" />
    <glyph glyph-name="Idotaccent" unicode="&#x130;" horiz-adv-x="460" 
d="M198 1743h67q13 0 13 -12v-80q0 -13 -13 -13h-67q-13 0 -13 13v80q0 12 13 12zM215 1434h31q10 0 10 -11v-1413q0 -10 -10 -10h-31q-10 0 -10 10v1413q0 11 10 11z" />
    <glyph glyph-name="dotlessi" unicode="&#x131;" horiz-adv-x="382" 
d="M178 1024h31q10 0 10 -10v-1004q0 -10 -10 -10h-31q-10 0 -10 10v1004q0 10 10 10z" />
    <glyph glyph-name="IJ" unicode="&#x132;" horiz-adv-x="1257" 
d="M215 1434h31q10 0 10 -11v-1413q0 -10 -10 -10h-31q-10 0 -10 10v1413q0 11 10 11zM1012 1434h30q11 0 11 -11v-1108q0 -175 -72.5 -258.5t-202.5 -83.5h-10q-53 0 -112.5 18.5t-102.5 47.5q-10 7 -10 18v31q0 5 3.5 7t8.5 -1q107 -71 215 -71h6q109 0 167 72t58 233
v1095q0 11 11 11z" />
    <glyph glyph-name="ij" unicode="&#x133;" horiz-adv-x="811" 
d="M180 1333h56q12 0 12 -12v-80q0 -12 -12 -12h-56q-12 0 -12 12v80q0 12 12 12zM579 1333h55q13 0 13 -12v-80q0 -12 -13 -12h-55q-12 0 -12 12v80q0 12 12 12zM193 1024h30q10 0 10 -10v-1004q0 -10 -10 -10h-30q-11 0 -11 10v1004q0 10 11 10zM591 1024h31q10 0 10 -10
v-1203q0 -94 -49.5 -137t-118.5 -43h-12q-58 0 -119 27q-12 5 -12 18v21q0 6 4 9.5t10 0.5q61 -26 119 -26h8q48 0 83.5 29.5t35.5 98.5v1205q0 10 10 10z" />
    <glyph glyph-name="Kcommaaccent" unicode="&#x136;" horiz-adv-x="1236" 
d="M596 725l557 -709q3 -4 1.5 -10t-7.5 -6h-37q-8 0 -14 6l-548 694h-292v-690q0 -10 -10 -10h-31q-10 0 -10 10v1413q0 11 10 11h31q10 0 10 -11v-673h293l506 677q7 7 14 7h35q6 0 7.5 -6t-1.5 -11zM592 -102h72q12 0 12 -13v-69q0 -13 -2 -21l-61 -226q-3 -8 -10 -8h-31
q-14 0 -10 18l59 214h-29q-12 0 -12 13v79q0 13 12 13z" />
    <glyph glyph-name="kcommaaccent" unicode="&#x137;" horiz-adv-x="944" 
d="M496 528l385 -510q5 -6 2 -12t-11 -6h-32q-12 0 -17 8l-374 496h-230v-494q0 -10 -10 -10h-31q-10 0 -10 10v1489q0 10 10 10h31q10 0 10 -10v-946h231l332 463q8 8 17 8h30q7 0 10 -6t-1 -12zM447 -102h72q12 0 12 -13v-69q0 -13 -2 -21l-62 -226q-3 -8 -10 -8h-30
q-15 0 -11 18l60 214h-29q-12 0 -12 13v79q0 13 12 13z" />
    <glyph glyph-name="Lacute" unicode="&#x139;" horiz-adv-x="1093" 
d="M207 1624l145 324q7 14 23 14h22q8 0 12 -5.5t1 -12.5l-158 -322q-7 -14 -21 -14h-16q-6 0 -8.5 5t0.5 11zM256 49h745q11 0 11 -10v-29q0 -10 -11 -10h-786q-10 0 -10 10v1413q0 11 10 11h31q10 0 10 -11v-1374z" />
    <glyph glyph-name="lacute" unicode="&#x13a;" horiz-adv-x="378" 
d="M179 1700l145 323q8 15 23 15h23q8 0 11.5 -6t0.5 -13l-158 -321q-8 -15 -20 -15h-17q-6 0 -8.5 5.5t0.5 11.5zM178 1509h31q10 0 10 -10v-1489q0 -10 -10 -10h-31q-10 0 -10 10v1489q0 10 10 10z" />
    <glyph glyph-name="Lcommaaccent" unicode="&#x13b;" horiz-adv-x="1093" 
d="M256 49h745q11 0 11 -10v-29q0 -10 -11 -10h-786q-10 0 -10 10v1413q0 11 10 11h31q10 0 10 -11v-1374zM521 -102h71q13 0 13 -13v-69q0 -13 -2 -21l-62 -226q-3 -8 -10 -8h-31q-14 0 -10 18l59 214h-28q-13 0 -13 13v79q0 13 13 13z" />
    <glyph glyph-name="lcommaaccent" unicode="&#x13c;" horiz-adv-x="378" 
d="M178 1509h31q10 0 10 -10v-1489q0 -10 -10 -10h-31q-10 0 -10 10v1489q0 10 10 10zM164 -102h72q12 0 12 -13v-69q0 -13 -2 -21l-61 -226q-3 -8 -10 -8h-31q-14 0 -10 18l59 214h-29q-12 0 -12 13v79q0 13 12 13z" />
    <glyph glyph-name="Lcaron" unicode="&#x13d;" horiz-adv-x="1093" 
d="M256 49h745q11 0 11 -10v-29q0 -10 -11 -10h-786q-10 0 -10 10v1413q0 11 10 11h31q10 0 10 -11v-1374zM799 1434h72q12 0 12 -13v-69q0 -13 -2 -21l-61 -226q-3 -8 -10 -8h-31q-15 0 -10 18l59 214h-29q-12 0 -12 12v80q0 13 12 13z" />
    <glyph glyph-name="lcaron" unicode="&#x13e;" horiz-adv-x="512" 
d="M178 1509h31q10 0 10 -10v-1489q0 -10 -10 -10h-31q-10 0 -10 10v1489q0 10 10 10zM366 1509h71q13 0 13 -12v-70q0 -12 -2 -20l-62 -226q-3 -8 -10 -8h-31q-15 0 -10 18l59 214h-28q-12 0 -12 12v80q0 12 12 12z" />
    <glyph glyph-name="Ldot" unicode="&#x13f;" horiz-adv-x="1093" 
d="M256 49h745q11 0 11 -10v-29q0 -10 -11 -10h-786q-10 0 -10 10v1413q0 11 10 11h31q10 0 10 -11v-1374zM804 643h67q13 0 13 -12v-80q0 -12 -13 -12h-67q-13 0 -13 12v80q0 12 13 12z" />
    <glyph glyph-name="ldot" unicode="&#x140;" horiz-adv-x="505" 
d="M178 1509h31q10 0 10 -10v-1489q0 -10 -10 -10h-31q-10 0 -10 10v1489q0 10 10 10zM365 643h67q13 0 13 -12v-80q0 -12 -13 -12h-67q-13 0 -13 12v80q0 12 13 12z" />
    <glyph glyph-name="Lslash" unicode="&#x141;" horiz-adv-x="1093" 
d="M256 49h745q11 0 11 -10v-29q0 -10 -11 -10h-786q-10 0 -10 10v600l-118 -83q-6 -4 -15 3l-17 26q-8 7 2 15l148 103v749q0 11 10 11h31q10 0 10 -11v-714l287 201q6 4 14 -3l18 -26q8 -6 -3 -15l-316 -221v-596z" />
    <glyph glyph-name="lslash" unicode="&#x142;" horiz-adv-x="532" 
d="M451 978l18 -26q8 -6 -3 -15l-177 -124v-803q0 -10 -10 -10h-31q-10 0 -10 10v768l-142 -99q-7 -4 -15 2l-17 26q-8 6 3 15l171 120v657q0 10 10 10h31q10 0 10 -10v-622l148 104q6 4 14 -3z" />
    <glyph glyph-name="Nacute" unicode="&#x143;" horiz-adv-x="1396" 
d="M677 1624l145 324q7 14 22 14h23q8 0 11.5 -5.5t0.5 -12.5l-157 -322q-7 -14 -21 -14h-16q-6 0 -8.5 5t0.5 11zM1161 1434h31q10 0 10 -11v-1413q0 -10 -10 -10h-43q-11 0 -16 8l-885 1346h-2v-1344q0 -10 -10 -10h-31q-10 0 -10 10v1413q0 11 10 11h43q10 0 16 -9
l885 -1345h2v1343q0 11 10 11z" />
    <glyph glyph-name="nacute" unicode="&#x144;" horiz-adv-x="1103" 
d="M581 1215l145 323q7 14 23 14h22q8 0 12 -5.5t1 -12.5l-158 -322q-7 -14 -21 -14h-16q-6 0 -8.5 5.5t0.5 11.5zM590 1051h8q182 0 264 -97.5t82 -287.5v-656q0 -10 -10 -10h-31q-10 0 -10 10v658q0 165 -68 249t-229 84h-4q-90 0 -189 -48.5t-188 -130.5v-812
q0 -10 -10 -10h-31q-10 0 -10 10v1004q0 10 10 10h31q10 0 10 -10v-127q82 72 184.5 118t190.5 46z" />
    <glyph glyph-name="Ncommaaccent" unicode="&#x145;" horiz-adv-x="1396" 
d="M1161 1434h31q10 0 10 -11v-1413q0 -10 -10 -10h-43q-11 0 -16 8l-885 1346h-2v-1344q0 -10 -10 -10h-31q-10 0 -10 10v1413q0 11 10 11h43q10 0 16 -9l885 -1345h2v1343q0 11 10 11zM672 -102h72q12 0 12 -13v-69q0 -13 -2 -21l-61 -226q-3 -8 -10 -8h-31q-14 0 -10 18
l59 214h-29q-12 0 -12 13v79q0 13 12 13z" />
    <glyph glyph-name="ncommaaccent" unicode="&#x146;" horiz-adv-x="1103" 
d="M590 1051h8q182 0 264 -97.5t82 -287.5v-656q0 -10 -10 -10h-31q-10 0 -10 10v658q0 165 -68 249t-229 84h-4q-90 0 -189 -48.5t-188 -130.5v-812q0 -10 -10 -10h-31q-10 0 -10 10v1004q0 10 10 10h31q10 0 10 -10v-127q82 72 184.5 118t190.5 46zM527 -102h72
q12 0 12 -13v-69q0 -13 -2 -21l-62 -226q-3 -8 -10 -8h-31q-14 0 -10 18l60 214h-29q-12 0 -12 13v79q0 13 12 13z" />
    <glyph glyph-name="Ncaron" unicode="&#x147;" horiz-adv-x="1396" 
d="M870 1962h23q8 0 12 -5.5t0 -12.5l-178 -322q-7 -14 -20 -14h-17q-13 0 -20 14l-178 322q-4 7 0 12.5t12 5.5h22q16 0 23 -14l149 -292l150 292q7 14 22 14zM1161 1434h31q10 0 10 -11v-1413q0 -10 -10 -10h-43q-11 0 -16 8l-885 1346h-2v-1344q0 -10 -10 -10h-31
q-10 0 -10 10v1413q0 11 10 11h43q10 0 16 -9l885 -1345h2v1343q0 11 10 11z" />
    <glyph glyph-name="ncaron" unicode="&#x148;" horiz-adv-x="1103" 
d="M725 1552h23q8 0 12 -5.5t0 -12.5l-178 -322q-7 -14 -21 -14h-16q-14 0 -21 14l-178 322q-4 7 0 12.5t12 5.5h23q15 0 22 -14l150 -292l149 292q7 14 23 14zM590 1051h8q182 0 264 -97.5t82 -287.5v-656q0 -10 -10 -10h-31q-10 0 -10 10v658q0 165 -68 249t-229 84h-4
q-90 0 -189 -48.5t-188 -130.5v-812q0 -10 -10 -10h-31q-10 0 -10 10v1004q0 10 10 10h31q10 0 10 -10v-127q82 72 184.5 118t190.5 46z" />
    <glyph glyph-name="Eng" unicode="&#x14a;" horiz-adv-x="1396" 
d="M1161 1434h31q10 0 10 -11v-1450q0 -175 -72 -258.5t-202 -83.5h-10q-53 0 -113 18.5t-103 47.5q-10 7 -10 18v31q0 5 4 7t9 -1q107 -71 215 -71h6q109 0 166.5 70.5t58.5 228.5l-903 1374h-2v-1344q0 -10 -10 -10h-31q-10 0 -10 10v1413q0 11 10 11h43q10 0 16 -9
l885 -1345h2v1343q0 11 10 11z" />
    <glyph glyph-name="eng" unicode="&#x14b;" horiz-adv-x="1103" 
d="M590 1051h8q182 0 264 -97.5t82 -287.5v-855q0 -94 -49.5 -137t-118.5 -43h-13q-57 0 -118 27q-13 5 -13 18v21q0 6 4.5 9.5t10.5 0.5q61 -26 119 -26h8q48 0 83.5 29.5t35.5 98.5v859q0 165 -68 249t-229 84h-4q-90 0 -189 -48.5t-188 -130.5v-812q0 -10 -10 -10h-31
q-10 0 -10 10v1004q0 10 10 10h31q10 0 10 -10v-127q82 72 184.5 118t190.5 46z" />
    <glyph glyph-name="Omacron" unicode="&#x14c;" horiz-adv-x="1419" 
d="M456 1688h510q10 0 10 -11v-28q0 -11 -10 -11h-510q-11 0 -11 11v28q0 11 11 11zM694 1460h31q114 0 209.5 -37.5t167.5 -110.5t112.5 -191t40.5 -269v-270q0 -151 -40.5 -269t-112.5 -191.5t-167.5 -111t-209.5 -37.5h-31q-114 0 -209.5 37.5t-167.5 111t-112.5 191.5
t-40.5 269v270q0 151 40.5 269t112.5 191t167.5 110.5t209.5 37.5zM723 1411h-27q-104 0 -190 -34.5t-152 -102.5t-102.5 -179t-36.5 -255v-246q0 -144 36.5 -255t102.5 -179t152 -102.5t190 -34.5h27q104 0 190 34.5t152 102.5t102.5 179t36.5 255v246q0 144 -36.5 255
t-102.5 179t-152 102.5t-190 34.5z" />
    <glyph glyph-name="omacron" unicode="&#x14d;" horiz-adv-x="1153" 
d="M323 1278h510q10 0 10 -10v-29q0 -10 -10 -10h-510q-11 0 -11 10v29q0 10 11 10zM565 1051h23q188 0 305 -121t117 -342v-152q0 -221 -117 -342t-305 -121h-23q-188 0 -305 121t-117 342v152q0 221 117 342t305 121zM586 1001h-19q-166 0 -269 -107.5t-103 -303.5v-156
q0 -196 103 -303.5t269 -107.5h19q166 0 269 107.5t103 303.5v156q0 196 -103 303.5t-269 107.5z" />
    <glyph glyph-name="Ohungarumlaut" unicode="&#x150;" horiz-adv-x="1419" 
d="M583 1624l145 324q7 14 22 14h23q8 0 11.5 -5.5t0.5 -12.5l-157 -322q-7 -14 -21 -14h-16q-6 0 -8.5 5t0.5 11zM802 1624l145 324q7 14 23 14h22q8 0 11.5 -5.5t0.5 -12.5l-157 -322q-7 -14 -21 -14h-16q-6 0 -8.5 5t0.5 11zM694 1460h31q114 0 209.5 -37.5t167.5 -110.5
t112.5 -191t40.5 -269v-270q0 -151 -40.5 -269t-112.5 -191.5t-167.5 -111t-209.5 -37.5h-31q-114 0 -209.5 37.5t-167.5 111t-112.5 191.5t-40.5 269v270q0 151 40.5 269t112.5 191t167.5 110.5t209.5 37.5zM723 1411h-27q-104 0 -190 -34.5t-152 -102.5t-102.5 -179
t-36.5 -255v-246q0 -144 36.5 -255t102.5 -179t152 -102.5t190 -34.5h27q104 0 190 34.5t152 102.5t102.5 179t36.5 255v246q0 144 -36.5 255t-102.5 179t-152 102.5t-190 34.5z" />
    <glyph glyph-name="ohungarumlaut" unicode="&#x151;" horiz-adv-x="1153" 
d="M458 1215l145 323q7 14 23 14h22q8 0 12 -5.5t1 -12.5l-158 -322q-7 -14 -21 -14h-16q-6 0 -8.5 5.5t0.5 11.5zM677 1215l145 323q7 14 23 14h22q8 0 12 -5.5t1 -12.5l-158 -322q-7 -14 -20 -14h-17q-6 0 -8.5 5.5t0.5 11.5zM565 1051h23q188 0 305 -121t117 -342v-152
q0 -221 -117 -342t-305 -121h-23q-188 0 -305 121t-117 342v152q0 221 117 342t305 121zM586 1001h-19q-166 0 -269 -107.5t-103 -303.5v-156q0 -196 103 -303.5t269 -107.5h19q166 0 269 107.5t103 303.5v156q0 196 -103 303.5t-269 107.5z" />
    <glyph glyph-name="OE" unicode="&#x152;" horiz-adv-x="2154" 
d="M694 1460h31q166 0 292 -78.5t187 -232.5v274q0 11 10 11h828q10 0 10 -11v-28q0 -11 -10 -11h-787v-618h746q10 0 10 -10v-29q0 -10 -10 -10h-746v-668h787q10 0 10 -10v-29q0 -10 -10 -10h-828q-10 0 -10 10v274q-61 -154 -187 -232.5t-292 -78.5h-31
q-114 0 -209.5 37.5t-167.5 111t-112.5 191.5t-40.5 269v270q0 151 40.5 269t112.5 191t167.5 110.5t209.5 37.5zM723 1411h-27q-104 0 -190 -34.5t-152 -102.5t-102.5 -179t-36.5 -255v-246q0 -144 36.5 -255t102.5 -179t152 -102.5t190 -34.5h27q104 0 190 34.5t152 102.5
t102.5 179t36.5 255v246q0 144 -36.5 255t-102.5 179t-152 102.5t-190 34.5z" />
    <glyph glyph-name="oe" unicode="&#x153;" horiz-adv-x="1908" 
d="M1368 1051h23q186 0 282 -118t96 -345v-56q0 -10 -10 -10h-749v-127q0 -171 110 -271.5t281 -100.5h8q154 0 320 88q3 2 6.5 -0.5t3.5 -6.5v-26q0 -14 -13 -21q-64 -35 -152.5 -59.5t-162.5 -24.5h-12q-151 0 -263 72t-155 202q-44 -133 -148 -203.5t-245 -70.5h-23
q-188 0 -305 121t-117 342v152q0 221 117 342t305 121h23q145 0 251.5 -75t147.5 -215q43 138 144 214t237 76zM586 1001h-19q-166 0 -269 -107.5t-103 -303.5v-156q0 -196 103 -303.5t269 -107.5h19q166 0 269 107.5t103 303.5v156q0 196 -103 303.5t-269 107.5zM1389 1001
h-19q-159 0 -259 -116.5t-101 -313.5h708q0 219 -82.5 324.5t-246.5 105.5z" />
    <glyph glyph-name="Racute" unicode="&#x154;" horiz-adv-x="1257" 
d="M562 1624l145 324q7 14 23 14h22q8 0 12 -5.5t1 -12.5l-158 -322q-7 -14 -21 -14h-16q-6 0 -8.5 5t0.5 11zM215 1434h412q265 0 382 -97t117 -284v-39q0 -73 -22 -137.5t-66.5 -119.5t-120 -93t-174.5 -53l431 -599q4 -4 1.5 -8t-8.5 -4h-34q-12 0 -19 10l-426 592h-432
v-592q0 -10 -10 -10h-31q-10 0 -10 10v1413q0 11 10 11zM256 1384v-733h358q123 0 214.5 30t144 83.5t77.5 118.5t25 143v14q0 85 -23 146.5t-74.5 107t-139 68t-213.5 22.5h-369z" />
    <glyph glyph-name="racute" unicode="&#x155;" horiz-adv-x="712" 
d="M382 1215l146 323q7 14 22 14h23q8 0 11.5 -5.5t0.5 -12.5l-158 -322q-7 -14 -20 -14h-17q-6 0 -8.5 5.5t0.5 11.5zM567 1051h8q38 0 62 -4q14 -2 14 -19v-22q0 -12 -18 -9q-24 4 -60 4h-4q-175 0 -354 -220v-771q0 -10 -10 -10h-31q-10 0 -10 10v1004q0 10 10 10h31
q10 0 10 -10v-160q81 96 172 146.5t180 50.5z" />
    <glyph glyph-name="Rcommaaccent" unicode="&#x156;" horiz-adv-x="1257" 
d="M215 1434h412q265 0 382 -97t117 -284v-39q0 -73 -22 -137.5t-66.5 -119.5t-120 -93t-174.5 -53l431 -599q4 -4 1.5 -8t-8.5 -4h-34q-12 0 -19 10l-426 592h-432v-592q0 -10 -10 -10h-31q-10 0 -10 10v1413q0 11 10 11zM256 1384v-733h358q123 0 214.5 30t144 83.5
t77.5 118.5t25 143v14q0 85 -23 146.5t-74.5 107t-139 68t-213.5 22.5h-369zM611 -102h72q12 0 12 -13v-69q0 -13 -2 -21l-62 -226q-3 -8 -10 -8h-30q-15 0 -11 18l60 214h-29q-12 0 -12 13v79q0 13 12 13z" />
    <glyph glyph-name="rcommaaccent" unicode="&#x157;" horiz-adv-x="712" 
d="M567 1051h8q38 0 62 -4q14 -2 14 -19v-22q0 -12 -18 -9q-24 4 -60 4h-4q-175 0 -354 -220v-771q0 -10 -10 -10h-31q-10 0 -10 10v1004q0 10 10 10h31q10 0 10 -10v-160q81 96 172 146.5t180 50.5zM176 -102h72q12 0 12 -13v-69q0 -13 -2 -21l-61 -226q-3 -8 -11 -8h-30
q-16 0 -11 18l60 214h-29q-12 0 -12 13v79q0 13 12 13z" />
    <glyph glyph-name="Rcaron" unicode="&#x158;" horiz-adv-x="1257" 
d="M801 1962h22q8 0 12.5 -5.5t0.5 -12.5l-179 -322q-7 -14 -20 -14h-16q-14 0 -21 14l-178 322q-4 7 0 12.5t12 5.5h23q15 0 22 -14l150 -292l149 292q7 14 23 14zM215 1434h412q265 0 382 -97t117 -284v-39q0 -73 -22 -137.5t-66.5 -119.5t-120 -93t-174.5 -53l431 -599
q4 -4 1.5 -8t-8.5 -4h-34q-12 0 -19 10l-426 592h-432v-592q0 -10 -10 -10h-31q-10 0 -10 10v1413q0 11 10 11zM256 1384v-733h358q123 0 214.5 30t144 83.5t77.5 118.5t25 143v14q0 85 -23 146.5t-74.5 107t-139 68t-213.5 22.5h-369z" />
    <glyph glyph-name="rcaron" unicode="&#x159;" horiz-adv-x="712" 
d="M528 1552h23q8 0 12 -5.5t0 -12.5l-178 -322q-7 -14 -20 -14h-17q-13 0 -20 14l-178 322q-4 7 0 12.5t12 5.5h22q16 0 23 -14l149 -292l150 292q7 14 22 14zM567 1051h8q38 0 62 -4q14 -2 14 -19v-22q0 -12 -18 -9q-24 4 -60 4h-4q-175 0 -354 -220v-771q0 -10 -10 -10
h-31q-10 0 -10 10v1004q0 10 10 10h31q10 0 10 -10v-160q81 96 172 146.5t180 50.5z" />
    <glyph glyph-name="Sacute" unicode="&#x15a;" horiz-adv-x="1124" 
d="M524 1624l146 324q7 14 22 14h23q8 0 11.5 -5.5t0.5 -12.5l-158 -322q-7 -14 -20 -14h-17q-6 0 -8.5 5t0.5 11zM485 737l105 -35q53 -18 85.5 -30t75.5 -31t68.5 -36.5t53.5 -43t42.5 -54t24.5 -66.5t10 -83v-8q0 -148 -110.5 -237.5t-280.5 -89.5h-16q-186 0 -381 108
q-3 2 -6.5 0t-3.5 -6v-27q0 -14 12 -20q182 -105 377 -105h20q190 0 315 101.5t125 263.5v20q0 52 -11 96t-29 77t-48 62.5t-59 50t-73 41.5t-79.5 34.5t-87.5 30.5l-104 34q-176 59 -256 128t-80 182v10q0 97 55 168.5t136 105t172 33.5h16q179 0 356 -98q3 -2 7 0t4 6v27
q0 14 -13 20q-68 39 -160.5 66.5t-191.5 27.5h-20q-104 0 -196.5 -39t-154 -119t-61.5 -186v-22q0 -133 91 -215t271 -142z" />
    <glyph glyph-name="sacute" unicode="&#x15b;" horiz-adv-x="866" 
d="M407 1215l145 323q7 14 22 14h23q8 0 11.5 -5.5t0.5 -12.5l-157 -322q-7 -14 -21 -14h-16q-6 0 -8.5 5.5t0.5 11.5zM418 1051h22q66 0 149 -24.5t138 -59.5q12 -6 12 -21v-26q0 -4 -3.5 -6.5t-6.5 -0.5q-148 88 -291 88h-18q-115 0 -196 -55.5t-81 -152.5v-15
q0 -37 14.5 -67t37.5 -50t56 -37t66 -29t71 -24q17 -5 26 -8l49 -16q53 -17 86.5 -29.5t73.5 -31.5t64 -39t46 -47t31.5 -62t9.5 -78v-10q0 -131 -96 -204t-234 -73h-22q-71 0 -160.5 25t-144.5 59q-13 7 -13 21v26q0 4 4 6.5t7 0.5q66 -39 149.5 -63.5t159.5 -24.5h18
q117 0 199 59t82 166v14q0 30 -8 56.5t-19.5 45.5t-33.5 37t-39.5 29t-48.5 24t-50 20t-53 18l-49 16q-10 3 -31 10q-143 47 -199 83q-100 66 -100 175v15q0 122 94.5 191t231.5 69z" />
    <glyph glyph-name="Scedilla" unicode="&#x15e;" horiz-adv-x="1124" 
d="M510 784l104 -34q52 -17 87.5 -30.5t79.5 -34.5t73 -41.5t59 -50t48 -62.5t29 -77t11 -96v-20q0 -162 -125 -263.5t-315 -101.5h-20h-3l-19 -110q40 12 82 12q74 0 119 -40.5t45 -110.5q0 -79 -53.5 -121.5t-138.5 -42.5q-69 0 -123 18q-17 5 -17 23v16q0 16 15 12
q75 -18 121 -18q68 0 107.5 27t39.5 83q0 51 -31.5 77t-83.5 26q-15 0 -30.5 -2.5t-33.5 -6.5t-24 -5q-18 -4 -26 4l-7 6q-12 12 -10 20l23 135q-170 12 -329 103q-12 6 -12 20v27q0 4 3.5 6t6.5 0q195 -108 381 -108h16q170 0 280.5 89.5t110.5 237.5v8q0 45 -10 83
t-24.5 66.5t-42.5 54t-53.5 43t-68.5 36.5t-75.5 31t-85.5 30l-105 35q-180 60 -271 142t-91 215v22q0 106 61.5 186t154 119t196.5 39h20q99 0 191.5 -27.5t160.5 -66.5q13 -6 13 -20v-27q0 -4 -4 -6t-7 0q-177 98 -356 98h-16q-91 0 -172 -33.5t-136 -105t-55 -168.5v-10
q0 -113 80 -182t256 -128z" />
    <glyph glyph-name="scedilla" unicode="&#x15f;" horiz-adv-x="866" 
d="M414 563l49 -16q53 -17 86.5 -29.5t73.5 -31.5t64 -39t46 -47t31.5 -62t9.5 -78v-10q0 -131 -96 -204t-234 -73h-22q-24 0 -49 3l-19 -113q40 12 82 12q74 0 119 -40.5t45 -110.5q0 -79 -53.5 -121.5t-138.5 -42.5q-69 0 -123 18q-17 5 -17 23v16q0 16 15 12
q75 -18 120 -18q68 0 108 27t40 83q0 51 -31.5 77t-83.5 26q-15 0 -30.5 -2.5t-33.5 -6.5t-24 -5q-18 -4 -26 4l-7 6q-12 12 -10 20l24 143q-132 24 -212 74q-13 7 -13 21v26q0 4 4 6.5t7 0.5q66 -39 149.5 -63.5t159.5 -24.5h18q117 0 199 59t82 166v14q0 30 -8 56.5
t-19.5 45.5t-33.5 37t-39.5 29t-48.5 24t-50 20t-53 18l-49 16q-10 3 -31 10q-143 47 -199 83q-100 66 -100 175v15q0 122 94.5 191t231.5 69h22q66 0 149 -24.5t138 -59.5q12 -6 12 -21v-26q0 -4 -3.5 -6.5t-6.5 -0.5q-148 88 -291 88h-18q-115 0 -196 -55.5t-81 -152.5
v-15q0 -37 14.5 -67t37.5 -50t56 -37t66 -29t71 -24q17 -5 26 -8z" />
    <glyph glyph-name="Scaron" unicode="&#x160;" horiz-adv-x="1124" 
d="M735 1962h23q8 0 12 -5.5t0 -12.5l-178 -322q-7 -14 -21 -14h-16q-13 0 -20 14l-179 322q-4 7 0.5 12.5t12.5 5.5h22q16 0 23 -14l149 -292l150 292q7 14 22 14zM485 737l105 -35q53 -18 85.5 -30t75.5 -31t68.5 -36.5t53.5 -43t42.5 -54t24.5 -66.5t10 -83v-8
q0 -148 -110.5 -237.5t-280.5 -89.5h-16q-186 0 -381 108q-3 2 -6.5 0t-3.5 -6v-27q0 -14 12 -20q182 -105 377 -105h20q190 0 315 101.5t125 263.5v20q0 52 -11 96t-29 77t-48 62.5t-59 50t-73 41.5t-79.5 34.5t-87.5 30.5l-104 34q-176 59 -256 128t-80 182v10
q0 97 55 168.5t136 105t172 33.5h16q179 0 356 -98q3 -2 7 0t4 6v27q0 14 -13 20q-68 39 -160.5 66.5t-191.5 27.5h-20q-104 0 -196.5 -39t-154 -119t-61.5 -186v-22q0 -133 91 -215t271 -142z" />
    <glyph glyph-name="scaron" unicode="&#x161;" horiz-adv-x="866" 
d="M606 1552h23q8 0 12 -5.5t0 -12.5l-178 -322q-7 -14 -21 -14h-16q-13 0 -20 14l-179 322q-4 7 0.5 12.5t12.5 5.5h22q16 0 23 -14l149 -292l150 292q7 14 22 14zM418 1051h22q66 0 149 -24.5t138 -59.5q12 -6 12 -21v-26q0 -4 -3.5 -6.5t-6.5 -0.5q-148 88 -291 88h-18
q-115 0 -196 -55.5t-81 -152.5v-15q0 -37 14.5 -67t37.5 -50t56 -37t66 -29t71 -24q17 -5 26 -8l49 -16q53 -17 86.5 -29.5t73.5 -31.5t64 -39t46 -47t31.5 -62t9.5 -78v-10q0 -131 -96 -204t-234 -73h-22q-71 0 -160.5 25t-144.5 59q-13 7 -13 21v26q0 4 4 6.5t7 0.5
q66 -39 149.5 -63.5t159.5 -24.5h18q117 0 199 59t82 166v14q0 30 -8 56.5t-19.5 45.5t-33.5 37t-39.5 29t-48.5 24t-50 20t-53 18l-49 16q-10 3 -31 10q-143 47 -199 83q-100 66 -100 175v15q0 122 94.5 191t231.5 69z" />
    <glyph glyph-name="Tcedilla" unicode="&#x162;" horiz-adv-x="1226" 
d="M92 1434h1043q10 0 10 -11v-28q0 -11 -10 -11h-496v-1374q0 -10 -10 -10l-23 -137q40 12 82 12q74 0 119 -40.5t45 -110.5q0 -79 -54 -121.5t-139 -42.5q-68 0 -122 18q-17 5 -17 23v16q0 16 15 12q75 -18 120 -18q68 0 108 27t40 83q0 51 -31.5 77t-83.5 26
q-15 0 -30.5 -2.5t-33.5 -6.5t-24 -5q-19 -4 -27 4l-6 6q-11 11 -10 20l31 178v1366h-496q-10 0 -10 11v28q0 11 10 11z" />
    <glyph glyph-name="tcedilla" unicode="&#x163;" horiz-adv-x="651" 
d="M260 975v-772q0 -93 37 -136.5t123 -43.5h8q67 0 147 34q6 3 10.5 -0.5t4.5 -9.5v-20q0 -14 -12 -19q-80 -35 -148 -35h-12q-37 0 -71 8l-19 -118q40 12 81 12q74 0 119 -40.5t45 -110.5q0 -79 -53.5 -121.5t-138.5 -42.5q-69 0 -123 18q-16 5 -16 23v16q0 15 14 12
q75 -18 121 -18q68 0 107.5 27t39.5 83q0 51 -31.5 77t-83.5 26q-15 0 -30.5 -2.5t-33.5 -6.5t-24 -5q-18 -4 -26 4l-6 6q-13 13 -11 20l26 156q-95 48 -95 209v770h-137q-11 0 -11 10v29q0 10 11 10h137v211q0 14 8 16l27 6q16 4 16 -10v-223h320q10 0 10 -10v-29
q0 -10 -10 -10h-320z" />
    <glyph glyph-name="Tcaron" unicode="&#x164;" horiz-adv-x="1226" 
d="M786 1962h23q8 0 12 -5.5t0 -12.5l-178 -322q-7 -14 -20 -14h-17q-13 0 -20 14l-178 322q-4 7 0 12.5t12 5.5h22q16 0 23 -14l149 -292l150 292q7 14 22 14zM92 1434h1043q10 0 10 -11v-28q0 -11 -10 -11h-496v-1374q0 -10 -10 -10h-31q-10 0 -10 10v1374h-496
q-10 0 -10 11v28q0 11 10 11z" />
    <glyph glyph-name="tcaron" unicode="&#x165;" horiz-adv-x="811" 
d="M665 1509h71q13 0 13 -12v-70q0 -12 -2 -20l-62 -226q-3 -8 -10 -8h-31q-14 0 -10 18l59 214h-28q-13 0 -13 12v80q0 12 13 12zM217 1251l27 6q16 4 16 -10v-223h320q10 0 10 -10v-29q0 -10 -10 -10h-320v-772q0 -93 37 -136.5t123 -43.5h8q67 0 147 34q6 3 10.5 -0.5
t4.5 -9.5v-20q0 -14 -12 -19q-80 -35 -148 -35h-12q-107 0 -158 57t-51 175v770h-137q-11 0 -11 10v29q0 10 11 10h137v211q0 14 8 16z" />
    <glyph glyph-name="Tbar" unicode="&#x166;" horiz-adv-x="1226" 
d="M92 1434h1043q10 0 10 -11v-28q0 -11 -10 -11h-496v-491h237q10 0 10 -10v-29q0 -10 -10 -10h-237v-834q0 -10 -10 -10h-31q-10 0 -10 10v834h-237q-10 0 -10 10v29q0 10 10 10h237v491h-496q-10 0 -10 11v28q0 11 10 11z" />
    <glyph glyph-name="tbar" unicode="&#x167;" horiz-adv-x="651" 
d="M260 975v-275h320q10 0 10 -10v-29q0 -10 -10 -10h-320v-448q0 -93 37 -136.5t123 -43.5h8q67 0 147 34q6 3 10.5 -0.5t4.5 -9.5v-20q0 -14 -12 -19q-80 -35 -148 -35h-12q-107 0 -158 57t-51 175v446h-137q-11 0 -11 10v29q0 10 11 10h137v275h-137q-11 0 -11 10v29
q0 10 11 10h137v211q0 14 8 16l27 6q16 4 16 -10v-223h320q10 0 10 -10v-29q0 -10 -10 -10h-320z" />
    <glyph glyph-name="Umacron" unicode="&#x16a;" horiz-adv-x="1409" 
d="M450 1688h509q11 0 11 -11v-28q0 -11 -11 -11h-509q-11 0 -11 11v28q0 11 11 11zM1176 1434h28q10 0 10 -11v-915q0 -260 -130.5 -397.5t-358.5 -137.5h-31q-228 0 -358.5 137.5t-130.5 397.5v915q0 11 10 11h29q10 0 10 -11v-903q0 -246 116 -371.5t326 -125.5h27
q210 0 326 125.5t116 371.5v903q0 11 11 11z" />
    <glyph glyph-name="umacron" unicode="&#x16b;" 
d="M288 1278h510q10 0 10 -10v-29q0 -10 -10 -10h-510q-10 0 -10 10v29q0 10 10 10zM883 1024h30q11 0 11 -10v-1004q0 -10 -11 -10h-30q-11 0 -11 10v127q-82 -72 -184 -118t-190 -46h-9q-177 0 -253 97t-76 288v656q0 10 10 10h31q10 0 10 -10v-658q0 -167 63 -250
t218 -83h4q90 0 188 48t188 131v812q0 10 11 10z" />
    <glyph glyph-name="Uring" unicode="&#x16e;" horiz-adv-x="1409" 
d="M705 1880q63 0 106 -42.5t43 -102.5q0 -61 -43.5 -104.5t-105.5 -43.5q-64 0 -107 43.5t-43 104.5q0 59 43 102t107 43zM705 1835q-44 0 -71.5 -28.5t-27.5 -69.5q0 -43 27.5 -74t71.5 -31t71 31t27 74q0 41 -27 69.5t-71 28.5zM1176 1434h28q10 0 10 -11v-915
q0 -260 -130.5 -397.5t-358.5 -137.5h-31q-228 0 -358.5 137.5t-130.5 397.5v915q0 11 10 11h29q10 0 10 -11v-903q0 -246 116 -371.5t326 -125.5h27q210 0 326 125.5t116 371.5v903q0 11 11 11z" />
    <glyph glyph-name="uring" unicode="&#x16f;" 
d="M543 1471q63 0 106 -43t43 -103q0 -61 -43.5 -104t-105.5 -43q-64 0 -107 43t-43 104q0 59 43.5 102.5t106.5 43.5zM543 1425q-44 0 -71.5 -28.5t-27.5 -69.5q0 -43 27.5 -73.5t71.5 -30.5t71 30.5t27 73.5q0 41 -27 69.5t-71 28.5zM883 1024h30q11 0 11 -10v-1004
q0 -10 -11 -10h-30q-11 0 -11 10v127q-82 -72 -184 -118t-190 -46h-9q-177 0 -253 97t-76 288v656q0 10 10 10h31q10 0 10 -10v-658q0 -167 63 -250t218 -83h4q90 0 188 48t188 131v812q0 10 11 10z" />
    <glyph glyph-name="Uhungarumlaut" unicode="&#x170;" horiz-adv-x="1409" 
d="M586 1624l145 324q7 14 23 14h23q8 0 11.5 -5.5t0.5 -12.5l-158 -322q-7 -14 -20 -14h-17q-6 0 -8.5 5t0.5 11zM805 1624l146 324q7 14 22 14h23q8 0 11.5 -5.5t0.5 -12.5l-158 -322q-7 -14 -20 -14h-17q-6 0 -8.5 5t0.5 11zM1176 1434h28q10 0 10 -11v-915
q0 -260 -130.5 -397.5t-358.5 -137.5h-31q-228 0 -358.5 137.5t-130.5 397.5v915q0 11 10 11h29q10 0 10 -11v-903q0 -246 116 -371.5t326 -125.5h27q210 0 326 125.5t116 371.5v903q0 11 11 11z" />
    <glyph glyph-name="uhungarumlaut" unicode="&#x171;" 
d="M412 1215l146 323q7 14 22 14h23q8 0 11.5 -5.5t0.5 -12.5l-158 -322q-7 -14 -20 -14h-16q-6 0 -9 5.5t0 11.5zM631 1215l146 323q7 14 22 14h23q8 0 11.5 -5.5t0.5 -12.5l-157 -322q-7 -14 -21 -14h-16q-6 0 -9 5.5t0 11.5zM883 1024h30q11 0 11 -10v-1004
q0 -10 -11 -10h-30q-11 0 -11 10v127q-82 -72 -184 -118t-190 -46h-9q-177 0 -253 97t-76 288v656q0 10 10 10h31q10 0 10 -10v-658q0 -167 63 -250t218 -83h4q90 0 188 48t188 131v812q0 10 11 10z" />
    <glyph glyph-name="Uogonek" unicode="&#x172;" horiz-adv-x="1409" 
d="M1176 1434h28q10 0 10 -11v-915q0 -211 -87 -342t-245 -173q-104 -83 -154 -143.5t-50 -128.5q0 -56 34 -83t93 -27q29 0 71 10q15 4 15 -12v-17q0 -17 -17 -22q-30 -10 -73 -10q-75 0 -123.5 42.5t-48.5 121.5q0 64 40 120.5t135 133.5q-42 -5 -79 -5h-31
q-228 0 -358.5 137.5t-130.5 397.5v915q0 11 10 11h29q10 0 10 -11v-903q0 -246 116 -371.5t326 -125.5h27q210 0 326 125.5t116 371.5v903q0 11 11 11z" />
    <glyph glyph-name="uogonek" unicode="&#x173;" 
d="M883 1024h30q11 0 11 -10v-1004q0 -10 -11 -10q-109 -86 -161 -147.5t-52 -131.5q0 -56 34 -83t93 -27q30 0 72 10q14 3 14 -12v-17q0 -17 -16 -22q-30 -10 -74 -10q-75 0 -123.5 42.5t-48.5 121.5q0 68 47.5 129.5t173.5 160.5v123q-82 -72 -184 -118t-190 -46h-9
q-177 0 -253 97t-76 288v656q0 10 10 10h31q10 0 10 -10v-658q0 -167 63 -250t218 -83h4q90 0 188 48t188 131v812q0 10 11 10z" />
    <glyph glyph-name="Wcircumflex" unicode="&#x174;" horiz-adv-x="1966" 
d="M1012 1948l178 -322q4 -7 0 -12.5t-12 -5.5h-23q-15 0 -22 14l-150 292l-149 -292q-7 -14 -23 -14h-23q-8 0 -12 5.5t0 12.5l178 322q7 14 21 14h16q14 0 21 -14zM1850 1434h27q10 0 6 -11l-418 -1407q-6 -16 -24 -16h-35q-19 0 -25 16l-164 553l-231 789h-6l-232 -789
l-164 -553q-6 -16 -24 -16h-35q-19 0 -25 16l-417 1407q-4 11 6 11h26q16 0 23 -17l401 -1358h6l238 803l164 555q7 17 22 17h27q16 0 23 -17l163 -555l239 -803h5l402 1358q7 17 22 17z" />
    <glyph glyph-name="wcircumflex" unicode="&#x175;" horiz-adv-x="1492" 
d="M774 1538l178 -321q4 -7 0 -13t-12 -6h-22q-16 0 -23 14l-150 292l-149 -292q-7 -14 -23 -14h-22q-8 0 -12 6t0 13l178 321q7 14 20 14h17q13 0 20 -14zM1397 1024h25q11 0 8 -10l-305 -998q-6 -16 -22 -16h-43q-17 0 -23 16l-289 949h-5l-195 -646l-93 -303
q-6 -16 -22 -16h-43q-20 0 -23 16l-305 998q-3 10 8 10h25q16 0 22 -16l294 -955h3l158 514l133 441q3 16 23 16h37q16 0 22 -16l293 -955h4l156 514l135 441q6 16 22 16z" />
    <glyph glyph-name="Ycircumflex" unicode="&#x176;" horiz-adv-x="1255" 
d="M655 1948l179 -322q4 -7 -0.5 -12.5t-12.5 -5.5h-22q-16 0 -23 14l-149 292l-150 -292q-7 -14 -22 -14h-23q-8 0 -12 5.5t0 12.5l178 322q7 14 20 14h17q13 0 20 -14zM1131 1434h35q4 0 6 -4t0 -7l-520 -927v-486q0 -10 -10 -10h-29q-10 0 -10 10v486l-520 927q-2 3 0 7
t6 4h35q14 0 20 -13l481 -858h5l481 858q7 13 20 13z" />
    <glyph glyph-name="ycircumflex" unicode="&#x177;" horiz-adv-x="997" 
d="M526 1538l179 -321q4 -7 -0.5 -13t-12.5 -6h-22q-16 0 -23 14l-149 292l-150 -292q-7 -14 -22 -14h-23q-8 0 -12 6t0 13l178 321q7 14 20 14h17q13 0 20 -14zM900 1024h28q10 0 7 -10l-441 -1125q-56 -140 -111.5 -199t-150.5 -59h-12q-55 0 -121 29q-12 5 -12 18v21
q0 6 4 9.5t10 0.5q66 -28 121 -28h8q69 0 116.5 45t92.5 161l43 113h-6q-17 0 -23 16l-391 998q-3 10 8 10h27q17 0 23 -16l375 -959h6l376 959q6 16 23 16z" />
    <glyph glyph-name="Ydieresis" unicode="&#x178;" horiz-adv-x="1255" 
d="M456 1743h67q13 0 13 -12v-80q0 -13 -13 -13h-67q-13 0 -13 13v80q0 12 13 12zM730 1743h68q12 0 12 -12v-80q0 -13 -12 -13h-68q-12 0 -12 13v80q0 12 12 12zM1131 1434h35q4 0 6 -4t0 -7l-520 -927v-486q0 -10 -10 -10h-29q-10 0 -10 10v486l-520 927q-2 3 0 7t6 4h35
q14 0 20 -13l481 -858h5l481 858q7 13 20 13z" />
    <glyph glyph-name="Zacute" unicode="&#x179;" horiz-adv-x="1159" 
d="M566 1624l145 324q7 14 23 14h22q8 0 12 -5.5t1 -12.5l-158 -322q-7 -14 -21 -14h-16q-6 0 -8.5 5t0.5 11zM174 49h862q11 0 11 -10v-29q0 -10 -11 -10h-913q-10 0 -10 10v33q0 4 4 12l858 1329h-823q-11 0 -11 11v28q0 11 11 11h874q10 0 10 -11v-32q0 -5 -4 -13z" />
    <glyph glyph-name="zacute" unicode="&#x17a;" horiz-adv-x="899" 
d="M438 1215l146 323q7 14 22 14h23q8 0 11.5 -5.5t0.5 -12.5l-158 -322q-7 -14 -20 -14h-17q-6 0 -8.5 5.5t0.5 11.5zM145 49h662q10 0 10 -10v-29q0 -10 -10 -10h-715q-10 0 -10 10v27q0 11 8 22l653 916h-620q-10 0 -10 10v29q0 10 10 10h674q10 0 10 -10v-27
q0 -11 -8 -22z" />
    <glyph glyph-name="Zdotaccent" unicode="&#x17b;" horiz-adv-x="1159" 
d="M546 1743h67q13 0 13 -12v-80q0 -13 -13 -13h-67q-12 0 -12 13v80q0 12 12 12zM174 49h862q11 0 11 -10v-29q0 -10 -11 -10h-913q-10 0 -10 10v33q0 4 4 12l858 1329h-823q-11 0 -11 11v28q0 11 11 11h874q10 0 10 -11v-32q0 -5 -4 -13z" />
    <glyph glyph-name="zdotaccent" unicode="&#x17c;" horiz-adv-x="899" 
d="M417 1333h67q13 0 13 -12v-80q0 -12 -13 -12h-67q-13 0 -13 12v80q0 12 13 12zM145 49h662q10 0 10 -10v-29q0 -10 -10 -10h-715q-10 0 -10 10v27q0 11 8 22l653 916h-620q-10 0 -10 10v29q0 10 10 10h674q10 0 10 -10v-27q0 -11 -8 -22z" />
    <glyph glyph-name="Zcaron" unicode="&#x17d;" horiz-adv-x="1159" 
d="M752 1962h22q8 0 12 -5.5t0 -12.5l-178 -322q-7 -14 -20 -14h-17q-13 0 -20 14l-178 322q-4 7 0 12.5t12 5.5h23q15 0 22 -14l150 -292l149 292q7 14 23 14zM174 49h862q11 0 11 -10v-29q0 -10 -11 -10h-913q-10 0 -10 10v33q0 4 4 12l858 1329h-823q-11 0 -11 11v28
q0 11 11 11h874q10 0 10 -11v-32q0 -5 -4 -13z" />
    <glyph glyph-name="zcaron" unicode="&#x17e;" horiz-adv-x="899" 
d="M623 1552h22q8 0 12 -5.5t0 -12.5l-178 -322q-7 -14 -20 -14h-17q-13 0 -20 14l-178 322q-4 7 0 12.5t12 5.5h23q15 0 22 -14l150 -292l149 292q7 14 23 14zM145 49h662q10 0 10 -10v-29q0 -10 -10 -10h-715q-10 0 -10 10v27q0 11 8 22l653 916h-620q-10 0 -10 10v29
q0 10 10 10h674q10 0 10 -10v-27q0 -11 -8 -22z" />
    <glyph glyph-name="Acaron" unicode="&#x1cd;" horiz-adv-x="1249" 
d="M797 1962h22q8 0 12 -5.5t0 -12.5l-178 -322q-7 -14 -20 -14h-17q-13 0 -20 14l-178 322q-4 7 0 12.5t12 5.5h23q15 0 22 -14l150 -292l149 292q7 14 23 14zM605 1434h39q15 0 22 -17l500 -1407q3 -10 -6 -10h-29q-16 0 -22 16l-169 476h-631l-169 -476q-6 -16 -23 -16
h-28q-9 0 -6 10l499 1407q6 15 23 17zM621 1376l-215 -612l-80 -223h596l-80 223l-216 612h-5z" />
    <glyph glyph-name="acaron" unicode="&#x1ce;" horiz-adv-x="999" 
d="M672 1552h22q8 0 12.5 -5.5t0.5 -12.5l-179 -322q-7 -14 -20 -14h-16q-14 0 -21 14l-178 322q-4 7 0 12.5t12 5.5h23q15 0 22 -14l150 -292l149 292q7 14 23 14zM498 1051h12q179 0 254.5 -94t75.5 -289v-658q0 -10 -11 -10h-30q-11 0 -11 10v142q-75 -89 -172.5 -134
t-185.5 -45h-12q-153 0 -244.5 78.5t-91.5 214.5v8q0 166 118 245t361 87l227 7v57q0 170 -61.5 250.5t-218.5 80.5h-8q-162 0 -328 -88q-3 -2 -6.5 0.5t-3.5 6.5v26q0 15 12 21q63 35 156 59.5t168 24.5zM788 562l-258 -9q-203 -7 -300 -76t-97 -203v-10
q0 -110 77.5 -175.5t209.5 -65.5h8q193 0 360 198v341z" />
    <glyph glyph-name="Icaron" unicode="&#x1cf;" horiz-adv-x="460" 
d="M403 1962h23q8 0 12 -5.5t0 -12.5l-178 -322q-7 -14 -20 -14h-17q-13 0 -20 14l-178 322q-4 7 0 12.5t12 5.5h22q16 0 23 -14l149 -292l150 292q7 14 22 14zM215 1434h31q10 0 10 -11v-1413q0 -10 -10 -10h-31q-10 0 -10 10v1413q0 11 10 11z" />
    <glyph glyph-name="icaron" unicode="&#x1d0;" horiz-adv-x="382" 
d="M365 1552h22q8 0 12 -5.5t0 -12.5l-178 -322q-7 -14 -20 -14h-17q-13 0 -20 14l-178 322q-4 7 0 12.5t12 5.5h22q16 0 23 -14l150 -292l149 292q7 14 23 14zM178 1024h31q10 0 10 -10v-1004q0 -10 -10 -10h-31q-10 0 -10 10v1004q0 10 10 10z" />
    <glyph glyph-name="Ocaron" unicode="&#x1d1;" horiz-adv-x="1419" 
d="M883 1962h22q8 0 12.5 -5.5t0.5 -12.5l-179 -322q-7 -14 -20 -14h-17q-13 0 -20 14l-178 322q-4 7 0 12.5t12 5.5h23q15 0 22 -14l150 -292l149 292q7 14 23 14zM694 1460h31q114 0 209.5 -37.5t167.5 -110.5t112.5 -191t40.5 -269v-270q0 -151 -40.5 -269t-112.5 -191.5
t-167.5 -111t-209.5 -37.5h-31q-114 0 -209.5 37.5t-167.5 111t-112.5 191.5t-40.5 269v270q0 151 40.5 269t112.5 191t167.5 110.5t209.5 37.5zM723 1411h-27q-104 0 -190 -34.5t-152 -102.5t-102.5 -179t-36.5 -255v-246q0 -144 36.5 -255t102.5 -179t152 -102.5
t190 -34.5h27q104 0 190 34.5t152 102.5t102.5 179t36.5 255v246q0 144 -36.5 255t-102.5 179t-152 102.5t-190 34.5z" />
    <glyph glyph-name="ocaron" unicode="&#x1d2;" horiz-adv-x="1153" 
d="M750 1552h22q8 0 12 -5.5t0 -12.5l-178 -322q-7 -14 -20 -14h-17q-13 0 -20 14l-178 322q-4 7 0 12.5t12 5.5h23q15 0 22 -14l150 -292l149 292q7 14 23 14zM565 1051h23q188 0 305 -121t117 -342v-152q0 -221 -117 -342t-305 -121h-23q-188 0 -305 121t-117 342v152
q0 221 117 342t305 121zM586 1001h-19q-166 0 -269 -107.5t-103 -303.5v-156q0 -196 103 -303.5t269 -107.5h19q166 0 269 107.5t103 303.5v156q0 196 -103 303.5t-269 107.5z" />
    <glyph glyph-name="Ucaron" unicode="&#x1d3;" horiz-adv-x="1409" 
d="M877 1962h22q8 0 12 -5.5t0 -12.5l-178 -322q-7 -14 -20 -14h-17q-13 0 -20 14l-178 322q-4 7 0 12.5t12 5.5h22q16 0 23 -14l150 -292l149 292q7 14 23 14zM1176 1434h28q10 0 10 -11v-915q0 -260 -130.5 -397.5t-358.5 -137.5h-31q-228 0 -358.5 137.5t-130.5 397.5
v915q0 11 10 11h29q10 0 10 -11v-903q0 -246 116 -371.5t326 -125.5h27q210 0 326 125.5t116 371.5v903q0 11 11 11z" />
    <glyph glyph-name="ucaron" unicode="&#x1d4;" 
d="M715 1552h22q8 0 12.5 -5.5t0.5 -12.5l-179 -322q-7 -14 -20 -14h-16q-14 0 -21 14l-178 322q-4 7 0 12.5t12 5.5h23q15 0 22 -14l150 -292l149 292q7 14 23 14zM883 1024h30q11 0 11 -10v-1004q0 -10 -11 -10h-30q-11 0 -11 10v127q-82 -72 -184 -118t-190 -46h-9
q-177 0 -253 97t-76 288v656q0 10 10 10h31q10 0 10 -10v-658q0 -167 63 -250t218 -83h4q90 0 188 48t188 131v812q0 10 11 10z" />
    <glyph glyph-name="Udieresismacron" unicode="&#x1d5;" horiz-adv-x="1409" 
d="M450 1946h509q11 0 11 -11v-28q0 -11 -11 -11h-509q-11 0 -11 11v28q0 11 11 11zM534 1743h67q12 0 12 -12v-80q0 -13 -12 -13h-67q-13 0 -13 13v80q0 12 13 12zM808 1743h68q12 0 12 -12v-80q0 -13 -12 -13h-68q-12 0 -12 13v80q0 12 12 12zM1176 1434h28q10 0 10 -11
v-915q0 -260 -130.5 -397.5t-358.5 -137.5h-31q-228 0 -358.5 137.5t-130.5 397.5v915q0 11 10 11h29q10 0 10 -11v-903q0 -246 116 -371.5t326 -125.5h27q210 0 326 125.5t116 371.5v903q0 11 11 11z" />
    <glyph glyph-name="udieresismacron" unicode="&#x1d6;" 
d="M288 1536h510q10 0 10 -10v-29q0 -10 -10 -10h-510q-10 0 -10 10v29q0 10 10 10zM372 1333h67q13 0 13 -12v-80q0 -12 -13 -12h-67q-13 0 -13 12v80q0 12 13 12zM646 1333h68q12 0 12 -12v-80q0 -12 -12 -12h-68q-12 0 -12 12v80q0 12 12 12zM883 1024h30q11 0 11 -10
v-1004q0 -10 -11 -10h-30q-11 0 -11 10v127q-82 -72 -184 -118t-190 -46h-9q-177 0 -253 97t-76 288v656q0 10 10 10h31q10 0 10 -10v-658q0 -167 63 -250t218 -83h4q90 0 188 48t188 131v812q0 10 11 10z" />
    <glyph glyph-name="Udieresisacute" unicode="&#x1d7;" horiz-adv-x="1409" 
d="M682 1882l146 324q7 14 22 14h23q8 0 11.5 -5.5t0.5 -12.5l-157 -322q-7 -14 -21 -14h-16q-6 0 -9 5t0 11zM534 1743h67q12 0 12 -12v-80q0 -13 -12 -13h-67q-13 0 -13 13v80q0 12 13 12zM808 1743h68q12 0 12 -12v-80q0 -13 -12 -13h-68q-12 0 -12 13v80q0 12 12 12z
M1176 1434h28q10 0 10 -11v-915q0 -260 -130.5 -397.5t-358.5 -137.5h-31q-228 0 -358.5 137.5t-130.5 397.5v915q0 11 10 11h29q10 0 10 -11v-903q0 -246 116 -371.5t326 -125.5h27q210 0 326 125.5t116 371.5v903q0 11 11 11z" />
    <glyph glyph-name="udieresisacute" unicode="&#x1d8;" 
d="M530 1473l145 323q7 14 23 14h22q8 0 12 -5.5t1 -12.5l-158 -322q-7 -14 -20 -14h-17q-6 0 -8.5 5.5t0.5 11.5zM372 1333h67q13 0 13 -12v-80q0 -12 -13 -12h-67q-13 0 -13 12v80q0 12 13 12zM646 1333h68q12 0 12 -12v-80q0 -12 -12 -12h-68q-12 0 -12 12v80q0 12 12 12
zM883 1024h30q11 0 11 -10v-1004q0 -10 -11 -10h-30q-11 0 -11 10v127q-82 -72 -184 -118t-190 -46h-9q-177 0 -253 97t-76 288v656q0 10 10 10h31q10 0 10 -10v-658q0 -167 63 -250t218 -83h4q90 0 188 48t188 131v812q0 10 11 10z" />
    <glyph glyph-name="Udieresiscaron" unicode="&#x1d9;" horiz-adv-x="1409" 
d="M877 2220h22q8 0 12 -5.5t0 -12.5l-178 -322q-7 -14 -20 -14h-17q-13 0 -20 14l-178 322q-4 7 0 12.5t12 5.5h22q16 0 23 -14l150 -292l149 292q7 14 23 14zM534 1743h67q12 0 12 -12v-80q0 -13 -12 -13h-67q-13 0 -13 13v80q0 12 13 12zM808 1743h68q12 0 12 -12v-80
q0 -13 -12 -13h-68q-12 0 -12 13v80q0 12 12 12zM1176 1434h28q10 0 10 -11v-915q0 -260 -130.5 -397.5t-358.5 -137.5h-31q-228 0 -358.5 137.5t-130.5 397.5v915q0 11 10 11h29q10 0 10 -11v-903q0 -246 116 -371.5t326 -125.5h27q210 0 326 125.5t116 371.5v903
q0 11 11 11z" />
    <glyph glyph-name="udieresiscaron" unicode="&#x1da;" 
d="M715 1810h22q8 0 12.5 -5.5t0.5 -12.5l-179 -322q-7 -14 -20 -14h-16q-14 0 -21 14l-178 322q-4 7 0 12.5t12 5.5h23q15 0 22 -14l150 -292l149 292q7 14 23 14zM372 1333h67q13 0 13 -12v-80q0 -12 -13 -12h-67q-13 0 -13 12v80q0 12 13 12zM646 1333h68q12 0 12 -12
v-80q0 -12 -12 -12h-68q-12 0 -12 12v80q0 12 12 12zM883 1024h30q11 0 11 -10v-1004q0 -10 -11 -10h-30q-11 0 -11 10v127q-82 -72 -184 -118t-190 -46h-9q-177 0 -253 97t-76 288v656q0 10 10 10h31q10 0 10 -10v-658q0 -167 63 -250t218 -83h4q90 0 188 48t188 131v812
q0 10 11 10z" />
    <glyph glyph-name="Udieresisgrave" unicode="&#x1db;" horiz-adv-x="1409" 
d="M572 2206l146 -324q3 -6 0.5 -11t-8.5 -5h-17q-13 0 -20 14l-158 322q-3 7 0.5 12.5t11.5 5.5h23q15 0 22 -14zM534 1743h67q12 0 12 -12v-80q0 -13 -12 -13h-67q-13 0 -13 13v80q0 12 13 12zM808 1743h68q12 0 12 -12v-80q0 -13 -12 -13h-68q-12 0 -12 13v80q0 12 12 12
zM1176 1434h28q10 0 10 -11v-915q0 -260 -130.5 -397.5t-358.5 -137.5h-31q-228 0 -358.5 137.5t-130.5 397.5v915q0 11 10 11h29q10 0 10 -11v-903q0 -246 116 -371.5t326 -125.5h27q210 0 326 125.5t116 371.5v903q0 11 11 11z" />
    <glyph glyph-name="udieresisgrave" unicode="&#x1dc;" 
d="M415 1796l145 -323q3 -6 0.5 -11.5t-8.5 -5.5h-16q-14 0 -21 14l-157 322q-3 7 0.5 12.5t11.5 5.5h22q16 0 23 -14zM372 1333h67q13 0 13 -12v-80q0 -12 -13 -12h-67q-13 0 -13 12v80q0 12 13 12zM646 1333h68q12 0 12 -12v-80q0 -12 -12 -12h-68q-12 0 -12 12v80
q0 12 12 12zM883 1024h30q11 0 11 -10v-1004q0 -10 -11 -10h-30q-11 0 -11 10v127q-82 -72 -184 -118t-190 -46h-9q-177 0 -253 97t-76 288v656q0 10 10 10h31q10 0 10 -10v-658q0 -167 63 -250t218 -83h4q90 0 188 48t188 131v812q0 10 11 10z" />
    <glyph glyph-name="Scommaaccent" unicode="&#x218;" horiz-adv-x="1124" 
d="M485 737l105 -35q53 -18 85.5 -30t75.5 -31t68.5 -36.5t53.5 -43t42.5 -54t24.5 -66.5t10 -83v-8q0 -148 -110.5 -237.5t-280.5 -89.5h-16q-186 0 -381 108q-3 2 -6.5 0t-3.5 -6v-27q0 -14 12 -20q182 -105 377 -105h20q190 0 315 101.5t125 263.5v20q0 52 -11 96t-29 77
t-48 62.5t-59 50t-73 41.5t-79.5 34.5t-87.5 30.5l-104 34q-176 59 -256 128t-80 182v10q0 97 55 168.5t136 105t172 33.5h16q179 0 356 -98q3 -2 7 0t4 6v27q0 14 -13 20q-68 39 -160.5 66.5t-191.5 27.5h-20q-104 0 -196.5 -39t-154 -119t-61.5 -186v-22q0 -133 91 -215
t271 -142zM534 -102h71q13 0 13 -13v-69q0 -13 -2 -21l-62 -226q-3 -8 -10 -8h-31q-15 0 -10 18l59 214h-28q-13 0 -13 13v79q0 13 13 13z" />
    <glyph glyph-name="scommaaccent" unicode="&#x219;" horiz-adv-x="866" 
d="M418 1051h22q66 0 149 -24.5t138 -59.5q12 -6 12 -21v-26q0 -4 -3.5 -6.5t-6.5 -0.5q-148 88 -291 88h-18q-115 0 -196 -55.5t-81 -152.5v-15q0 -37 14.5 -67t37.5 -50t56 -37t66 -29t71 -24q17 -5 26 -8l49 -16q53 -17 86.5 -29.5t73.5 -31.5t64 -39t46 -47t31.5 -62
t9.5 -78v-10q0 -131 -96 -204t-234 -73h-22q-71 0 -160.5 25t-144.5 59q-13 7 -13 21v26q0 4 4 6.5t7 0.5q66 -39 149.5 -63.5t159.5 -24.5h18q117 0 199 59t82 166v14q0 30 -8 56.5t-19.5 45.5t-33.5 37t-39.5 29t-48.5 24t-50 20t-53 18l-49 16q-10 3 -31 10
q-143 47 -199 83q-100 66 -100 175v15q0 122 94.5 191t231.5 69zM408 -102h72q12 0 12 -13v-69q0 -13 -2 -21l-61 -226q-3 -8 -11 -8h-30q-16 0 -11 18l60 214h-29q-12 0 -12 13v79q0 13 12 13z" />
    <glyph glyph-name="uni021A" unicode="&#x21a;" horiz-adv-x="1226" 
d="M92 1434h1043q10 0 10 -11v-28q0 -11 -10 -11h-496v-1374q0 -10 -10 -10h-31q-10 0 -10 10v1374h-496q-10 0 -10 11v28q0 11 10 11zM578 -102h72q12 0 12 -13v-69q0 -13 -2 -21l-61 -226q-3 -8 -10 -8h-31q-14 0 -10 18l59 214h-29q-12 0 -12 13v79q0 13 12 13z" />
    <glyph glyph-name="uni021B" unicode="&#x21b;" horiz-adv-x="651" 
d="M217 1251l27 6q16 4 16 -10v-223h320q10 0 10 -10v-29q0 -10 -10 -10h-320v-772q0 -93 37 -136.5t123 -43.5h8q67 0 147 34q6 3 10.5 -0.5t4.5 -9.5v-20q0 -14 -12 -19q-80 -35 -148 -35h-12q-107 0 -158 57t-51 175v770h-137q-11 0 -11 10v29q0 10 11 10h137v211
q0 14 8 16zM391 -102h71q13 0 13 -13v-69q0 -13 -2 -21l-62 -226q-3 -8 -10 -8h-31q-14 0 -10 18l59 214h-28q-13 0 -13 13v79q0 13 13 13z" />
    <glyph glyph-name="uni0243" unicode="&#x243;" horiz-adv-x="1234" 
d="M841 753q152 -35 222 -133.5t70 -230.5v-39q0 -165 -101.5 -257.5t-322.5 -92.5h-494q-10 0 -10 10v355h-113q-10 0 -10 10v28q0 11 10 11h113v1009q0 11 10 11h440q420 0 420 -334v-33q0 -103 -59 -188t-175 -126zM256 770h377q102 0 179.5 25.5t122.5 70t67 98
t22 115.5v8q0 147 -87 222t-284 75h-397v-614zM1081 362v15q0 56 -11.5 104.5t-41 93.5t-74.5 76.5t-117 50.5t-165 19h-416v-307h455q10 0 10 -11v-28q0 -10 -10 -10h-455v-316h451q202 0 288 81t86 232z" />
    <glyph glyph-name="circumflex" unicode="&#x2c6;" horiz-adv-x="581" 
d="M320 1948l178 -322q4 -7 -0.5 -12.5t-12.5 -5.5h-22q-16 0 -23 14l-149 292l-150 -292q-7 -14 -22 -14h-23q-8 0 -12 5.5t0 12.5l178 322q7 14 21 14h16q14 0 21 -14z" />
    <glyph glyph-name="caron" unicode="&#x2c7;" horiz-adv-x="581" 
d="M463 1962h22q8 0 12.5 -5.5t0.5 -12.5l-178 -322q-7 -14 -21 -14h-16q-14 0 -21 14l-178 322q-4 7 0 12.5t12 5.5h23q15 0 22 -14l150 -292l149 292q7 14 23 14z" />
    <glyph glyph-name="breve" unicode="&#x2d8;" horiz-adv-x="696" 
d="M598 1755q6 4 11 1t5 -9v-25q0 -13 -10 -20q-39 -31 -107 -57.5t-149 -26.5t-149 26.5t-107 57.5q-10 7 -10 20v25q0 6 5 9t11 -1q36 -25 63.5 -40.5t79.5 -31.5t107 -16t107 16t79.5 31.5t63.5 40.5z" />
    <glyph glyph-name="dotaccent" unicode="&#x2d9;" horiz-adv-x="256" 
d="M94 1743h68q12 0 12 -12v-80q0 -13 -12 -13h-68q-12 0 -12 13v80q0 12 12 12z" />
    <glyph glyph-name="ring" unicode="&#x2da;" horiz-adv-x="462" 
d="M231 1880q63 0 106.5 -42.5t43.5 -102.5q0 -61 -44 -104.5t-106 -43.5q-64 0 -106.5 43.5t-42.5 104.5q0 59 43 102t106 43zM231 1835q-44 0 -71 -28.5t-27 -69.5q0 -43 27 -74t71 -31t71.5 31t27.5 74q0 41 -27.5 69.5t-71.5 28.5z" />
    <glyph glyph-name="ogonek" unicode="&#x2db;" horiz-adv-x="425" 
d="M285 0h59q-109 -86 -161 -147.5t-52 -131.5q0 -56 34 -83t93 -27q30 0 72 10q14 3 14 -12v-17q0 -17 -16 -22q-30 -10 -74 -10q-75 0 -123.5 42.5t-48.5 121.5q0 68 45.5 128t157.5 148z" />
    <glyph glyph-name="tilde" unicode="&#x2dc;" horiz-adv-x="722" 
d="M606 1741h22q16 0 10 -17q-13 -48 -65 -92.5t-111 -44.5h-8q-33 0 -60.5 15t-43 33t-39.5 33t-53 15q-68 0 -123 -90q-6 -12 -19 -12h-22q-16 0 -11 16q13 48 65.5 93t111.5 45h8q33 0 60.5 -15t43 -33.5t39.5 -33.5t53 -15q68 0 123 91q6 12 19 12z" />
    <glyph glyph-name="hungarumlaut" unicode="&#x2dd;" horiz-adv-x="587" 
d="M84 1624l145 324q7 14 22 14h23q8 0 11.5 -5.5t0.5 -12.5l-157 -322q-7 -14 -21 -14h-16q-6 0 -8.5 5t0.5 11zM303 1624l145 324q7 14 23 14h22q8 0 11.5 -5.5t0.5 -12.5l-157 -322q-7 -14 -21 -14h-16q-6 0 -8.5 5t0.5 11z" />
    <glyph glyph-name="uni0326" unicode="&#x326;" horiz-adv-x="0" 
d="M114 -102h71q13 0 13 -13v-69q0 -13 -2 -21l-62 -226q-3 -8 -10 -8h-31q-15 0 -10 18l59 214h-28q-13 0 -13 13v79q0 13 13 13z" />
    <glyph glyph-name="uni0401" unicode="&#x401;" horiz-adv-x="1155" 
d="M455 1743h67q13 0 13 -12v-80q0 -13 -13 -13h-67q-13 0 -13 13v80q0 12 13 12zM729 1743h68q12 0 12 -12v-80q0 -13 -12 -13h-68q-12 0 -12 13v80q0 12 12 12zM215 1434h827q11 0 11 -11v-28q0 -11 -11 -11h-786v-618h745q11 0 11 -10v-29q0 -10 -11 -10h-745v-668h786
q11 0 11 -10v-29q0 -10 -11 -10h-827q-10 0 -10 10v1413q0 11 10 11z" />
    <glyph glyph-name="uni0404" unicode="&#x404;" horiz-adv-x="1218" 
d="M754 1411h-17q-104 0 -196.5 -37t-166 -108t-116.5 -185.5t-43 -257.5v-61h750q10 0 10 -10v-29q0 -10 -10 -10h-750v-103q0 -143 43 -257.5t116.5 -185t166 -107.5t196.5 -37h17q175 0 352 98q3 2 6.5 0t3.5 -6v-27q0 -14 -12 -20q-68 -39 -160 -67t-188 -28h-21
q-114 0 -215.5 40.5t-181.5 116t-127 197t-47 271.5v238q0 150 47 271t127 197t181.5 116t215.5 40h21q96 0 188.5 -27.5t159.5 -66.5q12 -6 12 -20v-27q0 -4 -3.5 -6t-6.5 0q-177 98 -352 98z" />
    <glyph glyph-name="uni0406" unicode="&#x406;" horiz-adv-x="460" 
d="M215 1434h31q10 0 10 -11v-1413q0 -10 -10 -10h-31q-10 0 -10 10v1413q0 11 10 11z" />
    <glyph glyph-name="uni0407" unicode="&#x407;" horiz-adv-x="460" 
d="M59 1743h68q12 0 12 -12v-80q0 -13 -12 -13h-68q-12 0 -12 13v80q0 12 12 12zM334 1743h67q12 0 12 -12v-80q0 -13 -12 -13h-67q-13 0 -13 13v80q0 12 13 12zM215 1434h31q10 0 10 -11v-1413q0 -10 -10 -10h-31q-10 0 -10 10v1413q0 11 10 11z" />
    <glyph glyph-name="uni040E" unicode="&#x40e;" horiz-adv-x="1255" 
d="M877 1755q6 4 11.5 1t5.5 -9v-25q0 -13 -10 -20q-39 -31 -107 -57.5t-149 -26.5t-149 26.5t-107 57.5q-11 7 -11 20v25q0 6 5.5 9t11.5 -1q36 -25 63.5 -40.5t79.5 -31.5t107 -16t107 16t79 31.5t63 40.5zM1131 1434h35q4 0 6 -4t0 -7l-530 -1120q-88 -188 -158 -254.5
t-182 -66.5h-10q-18 0 -52 5t-43 9q-10 3 -10 18v31q0 10 12 6q52 -20 95 -20h6q93 0 152.5 58t138.5 226l8 18l-516 1090q-2 3 0 7t6 4h35q14 0 20 -13l482 -1023h3l482 1023q7 13 20 13z" />
    <glyph glyph-name="uni0410" unicode="&#x410;" horiz-adv-x="1249" 
d="M605 1434h39q15 0 22 -17l500 -1407q3 -10 -6 -10h-29q-16 0 -22 16l-169 476h-631l-169 -476q-6 -16 -23 -16h-28q-9 0 -6 10l499 1407q6 15 23 17zM621 1376l-215 -612l-80 -223h596l-80 223l-216 612h-5z" />
    <glyph glyph-name="uni0411" unicode="&#x411;" horiz-adv-x="1218" 
d="M256 825h356q504 0 504 -379v-49q0 -188 -123 -292.5t-387 -104.5h-391q-10 0 -10 10v1413q0 11 10 11h772q10 0 10 -11v-28q0 -11 -10 -11h-731v-559zM1065 410v24q0 168 -105 255t-350 87h-354v-727h348q244 0 352.5 93.5t108.5 267.5z" />
    <glyph glyph-name="uni0412" unicode="&#x412;" horiz-adv-x="1234" 
d="M841 753q152 -35 222 -133.5t70 -230.5v-39q0 -165 -101.5 -257.5t-322.5 -92.5h-494q-10 0 -10 10v1413q0 11 10 11h440q420 0 420 -334v-33q0 -103 -59 -188t-175 -126zM1024 1079v8q0 147 -87 222t-284 75h-397v-614h377q102 0 179.5 25.5t122.5 70t67 98t22 115.5z
M1081 362v15q0 56 -11.5 104.5t-41 93.5t-74.5 76.5t-117 50.5t-165 19h-416v-672h451q202 0 288 81t86 232z" />
    <glyph glyph-name="uni0413" unicode="&#x413;" horiz-adv-x="1093" 
d="M215 1434h786q11 0 11 -11v-28q0 -11 -11 -11h-745v-1374q0 -10 -10 -10h-31q-10 0 -10 10v1413q0 11 10 11z" />
    <glyph glyph-name="uni0414" unicode="&#x414;" horiz-adv-x="1490" 
d="M1245 49h154q10 0 10 -10v-307q0 -11 -10 -11h-31q-10 0 -10 11v268h-1204v-268q0 -11 -11 -11h-30q-11 0 -11 11v307q0 10 11 10h160q90 58 106 279l82 1095q0 11 10 11h764q10 0 10 -11v-1374zM509 1384l-79 -1069q-15 -185 -80 -266h844v1335h-685z" />
    <glyph glyph-name="uni0415" unicode="&#x415;" horiz-adv-x="1155" 
d="M256 766h745q11 0 11 -10v-29q0 -10 -11 -10h-745v-668h786q11 0 11 -10v-29q0 -10 -11 -10h-827q-10 0 -10 10v1413q0 11 10 11h827q11 0 11 -11v-28q0 -11 -11 -11h-786v-618z" />
    <glyph glyph-name="uni0416" unicode="&#x416;" horiz-adv-x="1853" 
d="M1212 725l557 -709q3 -4 1.5 -10t-7.5 -6h-37q-8 0 -14 6l-548 694h-212v-690q0 -10 -10 -10h-31q-10 0 -10 10v690h-212l-548 -694q-6 -6 -14 -6h-37q-6 0 -7.5 6t1.5 10l557 709l-514 692q-3 5 -1.5 11t7.5 6h35q7 0 14 -7l506 -677h213v673q0 11 10 11h31q10 0 10 -11
v-673h213l506 677q7 7 15 7h34q6 0 7.5 -6t-1.5 -11z" />
    <glyph glyph-name="uni0417" unicode="&#x417;" horiz-adv-x="1099" 
d="M697 753q65 -15 117 -44t85.5 -64.5t56 -78t32 -84t9.5 -83.5v-43q0 -161 -132.5 -272t-338.5 -111h-20q-200 0 -365 95q-12 6 -12 20v27q0 4 3.5 6t6.5 0q177 -98 369 -98h16q186 0 304 99.5t118 246.5v18q0 46 -11.5 90t-41 89t-74.5 79t-117.5 55.5t-164.5 21.5h-201
q-10 0 -10 10v28q0 10 10 10h162q101 0 179.5 29t123 76t66.5 99t22 105v21q0 139 -107.5 225t-273.5 86h-16q-182 0 -359 -98q-3 -2 -6.5 0t-3.5 6v27q0 14 12 20q68 39 161 66.5t193 27.5h21q186 0 308 -97t122 -251v-45q0 -94 -62 -182.5t-181 -131.5z" />
    <glyph glyph-name="uni0418" unicode="&#x418;" horiz-adv-x="1396" 
d="M1149 1434h43q10 0 10 -11v-1413q0 -10 -10 -10h-31q-10 0 -10 10v1344h-2l-885 -1346q-5 -8 -16 -8h-43q-10 0 -10 10v1413q0 11 10 11h31q10 0 10 -11v-1343h2l885 1345q6 9 16 9z" />
    <glyph glyph-name="uni0419" unicode="&#x419;" horiz-adv-x="1396" 
d="M959 1755q6 4 11.5 1t5.5 -9v-25q0 -13 -10 -20q-39 -31 -107 -57.5t-149 -26.5t-149 26.5t-107 57.5q-11 7 -11 20v25q0 6 5.5 9t11.5 -1q36 -25 63.5 -40.5t79.5 -31.5t107 -16t107 16t79 31.5t63 40.5zM1149 1434h43q10 0 10 -11v-1413q0 -10 -10 -10h-31
q-10 0 -10 10v1344h-2l-885 -1346q-5 -8 -16 -8h-43q-10 0 -10 10v1413q0 11 10 11h31q10 0 10 -11v-1343h2l885 1345q6 9 16 9z" />
    <glyph glyph-name="uni041A" unicode="&#x41a;" horiz-adv-x="1236" 
d="M596 725l557 -709q3 -4 1.5 -10t-7.5 -6h-37q-8 0 -14 6l-548 694h-292v-690q0 -10 -10 -10h-31q-10 0 -10 10v1413q0 11 10 11h31q10 0 10 -11v-673h293l506 677q7 7 14 7h35q6 0 7.5 -6t-1.5 -11z" />
    <glyph glyph-name="uni041B" unicode="&#x41b;" horiz-adv-x="1439" 
d="M471 1434h764q10 0 10 -11v-1413q0 -10 -10 -10h-31q-10 0 -10 10v1374h-685l-79 -1069q-13 -180 -73 -261t-175 -81h-12q-37 0 -76 17q-12 5 -12 18v21q0 6 4 9.5t10 0.5q39 -16 76 -16h8q95 0 141 69.5t58 235.5l82 1095q0 11 10 11z" />
    <glyph glyph-name="uni041C" unicode="&#x41c;" horiz-adv-x="1699" 
d="M1450 1434h35q10 0 10 -11v-1413q0 -10 -10 -10h-31q-10 0 -10 10v1329h-4l-293 -475l-277 -438q-6 -12 -20 -12h-10q-15 0 -21 12l-276 438l-293 475h-4v-1329q0 -10 -10 -10h-31q-10 0 -10 10v1413q0 11 10 11h35q14 0 20 -13l583 -936h3l584 936q6 13 20 13z" />
    <glyph glyph-name="uni041D" unicode="&#x41d;" horiz-adv-x="1398" 
d="M1153 1434h31q10 0 10 -11v-1413q0 -10 -10 -10h-31q-10 0 -10 10v707h-887v-707q0 -10 -10 -10h-31q-10 0 -10 10v1413q0 11 10 11h31q10 0 10 -11v-657h887v657q0 11 10 11z" />
    <glyph glyph-name="uni041E" unicode="&#x41e;" horiz-adv-x="1419" 
d="M694 1460h31q114 0 209.5 -37.5t167.5 -110.5t112.5 -191t40.5 -269v-270q0 -151 -40.5 -269t-112.5 -191.5t-167.5 -111t-209.5 -37.5h-31q-114 0 -209.5 37.5t-167.5 111t-112.5 191.5t-40.5 269v270q0 151 40.5 269t112.5 191t167.5 110.5t209.5 37.5zM723 1411h-27
q-104 0 -190 -34.5t-152 -102.5t-102.5 -179t-36.5 -255v-246q0 -144 36.5 -255t102.5 -179t152 -102.5t190 -34.5h27q104 0 190 34.5t152 102.5t102.5 179t36.5 255v246q0 144 -36.5 255t-102.5 179t-152 102.5t-190 34.5z" />
    <glyph glyph-name="uni041F" unicode="&#x41f;" horiz-adv-x="1413" 
d="M215 1434h983q10 0 10 -11v-1413q0 -10 -10 -10h-31q-10 0 -10 10v1374h-901v-1374q0 -10 -10 -10h-31q-10 0 -10 10v1413q0 11 10 11z" />
    <glyph glyph-name="uni0420" unicode="&#x420;" horiz-adv-x="1290" 
d="M215 1434h401q264 0 387 -104t123 -292v-49q0 -92 -28.5 -167.5t-88 -135t-159.5 -92.5t-234 -33h-360v-551q0 -10 -10 -10h-31q-10 0 -10 10v1413q0 11 10 11zM1075 1001v25q0 173 -108 265.5t-353 92.5h-358v-774h358q124 0 215 30t143.5 84t77.5 123t25 154z" />
    <glyph glyph-name="uni0421" unicode="&#x421;" horiz-adv-x="1218" 
d="M735 1460h21q96 0 188.5 -27.5t159.5 -66.5q12 -6 12 -20v-27q0 -4 -3.5 -6t-6.5 0q-177 98 -352 98h-17q-104 0 -196.5 -37t-166 -108t-116.5 -185.5t-43 -257.5v-213q0 -143 43 -257.5t116.5 -185t166 -107.5t196.5 -37h17q175 0 352 98q3 2 6.5 0t3.5 -6v-27
q0 -14 -12 -20q-68 -39 -160 -67t-188 -28h-21q-114 0 -215.5 40.5t-181.5 116t-127 197t-47 271.5v238q0 150 47 271t127 197t181.5 116t215.5 40z" />
    <glyph glyph-name="uni0422" unicode="&#x422;" horiz-adv-x="1226" 
d="M92 1434h1043q10 0 10 -11v-28q0 -11 -10 -11h-496v-1374q0 -10 -10 -10h-31q-10 0 -10 10v1374h-496q-10 0 -10 11v28q0 11 10 11z" />
    <glyph glyph-name="uni0423" unicode="&#x423;" horiz-adv-x="1255" 
d="M1131 1434h35q4 0 6 -4t0 -7l-530 -1120q-88 -188 -158 -254.5t-182 -66.5h-10q-18 0 -52 5t-43 9q-10 3 -10 18v31q0 10 12 6q52 -20 95 -20h6q93 0 152.5 58t138.5 226l8 18l-516 1090q-2 3 0 7t6 4h35q14 0 20 -13l482 -1023h3l482 1023q7 13 20 13z" />
    <glyph glyph-name="uni0424" unicode="&#x424;" horiz-adv-x="1812" 
d="M932 1300h186q151 0 270 -61.5t190 -183.5t71 -287v-39q0 -165 -71 -287t-190 -183.5t-270 -61.5h-186v-187q0 -10 -10 -10h-31q-10 0 -10 10v187h-187q-151 0 -270 61.5t-189.5 183.5t-70.5 287v39q0 165 70.5 287t189.5 183.5t270 61.5h187v123q0 11 10 11h31
q10 0 10 -11v-123zM881 1251h-185q-211 0 -346 -131.5t-135 -363.5v-15q0 -232 135 -363.5t346 -131.5h185v1005zM1597 741v15q0 232 -135 363.5t-346 131.5h-184v-1005h184q211 0 346 131.5t135 363.5z" />
    <glyph glyph-name="uni0425" unicode="&#x425;" horiz-adv-x="1187" 
d="M1048 1434h35q5 0 8 -4.5t0 -8.5l-459 -690l473 -719q3 -4 0 -8t-8 -4h-35q-11 0 -18 10l-446 682h-7l-446 -682q-7 -10 -19 -10h-35q-5 0 -8 4t0 8l473 719l-458 690q-3 4 0 8.5t8 4.5h35q11 0 18 -11l322 -487l110 -166h7l110 166l321 487q7 11 19 11z" />
    <glyph glyph-name="uni0426" unicode="&#x426;" horiz-adv-x="1435" 
d="M1190 49h153q11 0 11 -10v-307q0 -11 -11 -11h-30q-10 0 -10 11v268h-1088q-10 0 -10 10v1413q0 11 10 11h31q10 0 10 -11v-1374h883v1374q0 11 10 11h31q10 0 10 -11v-1374z" />
    <glyph glyph-name="uni0427" unicode="&#x427;" horiz-adv-x="1290" 
d="M1044 1434h31q10 0 10 -11v-1413q0 -10 -10 -10h-31q-10 0 -10 10v582q-68 -41 -179.5 -75t-213.5 -34h-20q-213 0 -335 125.5t-122 352.5v462q0 11 10 11h31q10 0 10 -11v-450q0 -213 107.5 -327t300.5 -114h16q106 0 210.5 32.5t184.5 79.5v779q0 11 10 11z" />
    <glyph glyph-name="uni0428" unicode="&#x428;" horiz-adv-x="2037" 
d="M1792 1434h31q10 0 10 -11v-1413q0 -10 -10 -10h-1608q-10 0 -10 10v1413q0 11 10 11h31q10 0 10 -11v-1374h737v1374q0 11 11 11h30q10 0 10 -11v-1374h738v1374q0 11 10 11z" />
    <glyph glyph-name="uni0429" unicode="&#x429;" horiz-adv-x="2078" 
d="M1833 49h154q10 0 10 -10v-307q0 -11 -10 -11h-31q-10 0 -10 11v268h-1731q-10 0 -10 10v1413q0 11 10 11h31q10 0 10 -11v-1374h737v1374q0 11 11 11h30q10 0 10 -11v-1374h738v1374q0 11 10 11h31q10 0 10 -11v-1374z" />
    <glyph glyph-name="uni042A" unicode="&#x42a;" horiz-adv-x="1423" 
d="M399 825h357q504 0 504 -379v-49q0 -188 -123 -292.5t-387 -104.5h-392q-10 0 -10 10v1374h-256q-10 0 -10 11v28q0 11 10 11h297q10 0 10 -11v-598zM1208 410v24q0 83 -23.5 144t-75.5 106.5t-141 68.5t-214 23h-355v-727h349q244 0 352 93.5t108 267.5z" />
    <glyph glyph-name="uni042B" unicode="&#x42b;" horiz-adv-x="1601" 
d="M256 825h356q504 0 504 -379v-49q0 -188 -123 -292.5t-387 -104.5h-391q-10 0 -10 10v1413q0 11 10 11h31q10 0 10 -11v-598zM1356 1434h30q11 0 11 -11v-1413q0 -10 -11 -10h-30q-10 0 -10 10v1413q0 11 10 11zM1065 410v24q0 168 -105 255t-350 87h-354v-727h348
q244 0 352.5 93.5t108.5 267.5z" />
    <glyph glyph-name="uni042C" unicode="&#x42c;" horiz-adv-x="1280" 
d="M256 825h356q504 0 504 -379v-49q0 -188 -123 -292.5t-387 -104.5h-391q-10 0 -10 10v1413q0 11 10 11h31q10 0 10 -11v-598zM1065 410v24q0 168 -105 255t-350 87h-354v-727h348q244 0 352.5 93.5t108.5 267.5z" />
    <glyph glyph-name="uni042D" unicode="&#x42d;" horiz-adv-x="1218" 
d="M463 1460h20q114 0 216 -40t182 -116t127 -197t47 -271v-238q0 -150 -47 -271.5t-127 -197t-182 -116t-216 -40.5h-20q-96 0 -188 28t-160 67q-13 6 -13 20v27q0 4 4 6t7 0q177 -98 352 -98h16q83 0 159 22.5t142.5 70.5t115.5 116.5t77.5 165.5t28.5 212v103h-750
q-10 0 -10 10v29q0 10 10 10h750v61q0 143 -43 257.5t-116.5 185.5t-166.5 108t-197 37h-16q-175 0 -352 -98q-3 -2 -7 0t-4 6v27q0 14 13 20q67 39 159.5 66.5t188.5 27.5z" />
    <glyph glyph-name="uni042E" unicode="&#x42e;" horiz-adv-x="1812" 
d="M1087 1460h31q114 0 209.5 -37.5t168 -110.5t113 -191t40.5 -269v-270q0 -151 -40.5 -269t-113 -191.5t-168 -111t-209.5 -37.5h-31q-114 0 -209.5 37.5t-167.5 111t-112.5 191.5t-40.5 269v131h-301v-703q0 -10 -10 -10h-31q-10 0 -10 10v1413q0 11 10 11h31
q10 0 10 -11v-661h301v90q0 151 40.5 269t112.5 191t167.5 110.5t209.5 37.5zM1597 594v246q0 144 -36.5 255t-102.5 179t-152 102.5t-190 34.5h-26q-104 0 -190.5 -34.5t-152.5 -102.5t-102.5 -179t-36.5 -255v-246q0 -144 36.5 -255t102.5 -179t152.5 -102.5t190.5 -34.5
h26q104 0 190 34.5t152 102.5t102.5 179t36.5 255z" />
    <glyph glyph-name="uni042F" unicode="&#x42f;" horiz-adv-x="1259" 
d="M633 1434h411q10 0 10 -11v-1413q0 -10 -10 -10h-30q-11 0 -11 10v592h-432l-426 -592q-7 -10 -18 -10h-35q-6 0 -8 4t2 8l430 599q-99 15 -174.5 53t-120 93t-66.5 119.5t-22 137.5v39q0 187 117.5 284t382.5 97zM1003 1384h-368q-126 0 -214 -22.5t-139.5 -68
t-74.5 -107t-23 -146.5v-14q0 -78 25 -143t77.5 -118.5t144 -83.5t214.5 -30h358v733z" />
    <glyph glyph-name="uni0430" unicode="&#x430;" horiz-adv-x="999" 
d="M498 1051h12q179 0 254.5 -94t75.5 -289v-658q0 -10 -11 -10h-30q-11 0 -11 10v142q-75 -89 -172.5 -134t-185.5 -45h-12q-153 0 -244.5 78.5t-91.5 214.5v8q0 166 118 245t361 87l227 7v57q0 170 -61.5 250.5t-218.5 80.5h-8q-162 0 -328 -88q-3 -2 -6.5 0.5t-3.5 6.5
v26q0 15 12 21q63 35 156 59.5t168 24.5zM788 562l-258 -9q-203 -7 -300 -76t-97 -203v-10q0 -110 77.5 -175.5t209.5 -65.5h8q193 0 360 198v341z" />
    <glyph glyph-name="uni0431" unicode="&#x431;" horiz-adv-x="1099" 
d="M553 1024h8q189 0 292 -119t103 -344v-125q0 -221 -108.5 -342t-284.5 -121h-22q-185 0 -291.5 120t-106.5 343v580q0 194 103.5 307t306.5 113h8q113 0 192 23t146 75q3 2 6.5 0t3.5 -6v-27q0 -11 -12 -20q-115 -95 -334 -95h-8q-182 0 -271 -99.5t-89 -268.5v-172
q75 88 172 133t186 45zM905 434v129q0 201 -89 306.5t-257 105.5h-4q-192 0 -360 -199v-342q0 -198 92.5 -304.5t255.5 -106.5h18q155 0 249.5 107.5t94.5 303.5z" />
    <glyph glyph-name="uni0432" unicode="&#x432;" horiz-adv-x="985" 
d="M174 1024h330q340 0 340 -240v-20q0 -75 -39.5 -137t-117.5 -96q206 -49 206 -248v-21q0 -118 -84.5 -190t-255.5 -72h-379q-10 0 -10 10v1004q0 10 10 10zM215 975v-430h281q149 0 223 64t74 153v24q0 189 -291 189h-287zM215 496v-447h336q150 0 220.5 59t70.5 152v25
q0 96 -70 153.5t-221 57.5h-336z" />
    <glyph glyph-name="uni0433" unicode="&#x433;" horiz-adv-x="837" 
d="M174 1024h592q10 0 10 -10v-29q0 -10 -10 -10h-551v-965q0 -10 -10 -10h-31q-10 0 -10 10v1004q0 10 10 10z" />
    <glyph glyph-name="uni0434" unicode="&#x434;" horiz-adv-x="1196" 
d="M965 49h159q11 0 11 -10v-307q0 -11 -11 -11h-30q-11 0 -11 11v268h-970v-268q0 -11 -11 -11h-30q-11 0 -11 11v307q0 10 11 10h151q52 49 60 180l59 785q0 10 10 10h602q11 0 11 -10v-965zM390 975l-56 -744q-9 -118 -48 -182h627v926h-523z" />
    <glyph glyph-name="uni0435" unicode="&#x435;" horiz-adv-x="1093" 
d="M553 1051h22q186 0 282.5 -118t96.5 -345v-56q0 -10 -10 -10h-749v-127q0 -171 110 -271.5t281 -100.5h8q153 0 319 88q3 2 7 -0.5t4 -6.5v-26q0 -14 -13 -21q-64 -35 -152.5 -59.5t-162.5 -24.5h-12q-193 0 -317 114t-124 310v168q0 224 114 355t296 131zM573 1001h-18
q-159 0 -259 -116.5t-101 -313.5h708q0 219 -82.5 324.5t-247.5 105.5z" />
    <glyph glyph-name="uni0436" unicode="&#x436;" horiz-adv-x="1421" 
d="M972 528l385 -510q5 -6 2 -12t-11 -6h-32q-12 0 -17 8l-374 496h-189v-494q0 -10 -10 -10h-31q-10 0 -10 10v494h-189l-374 -496q-5 -8 -17 -8h-32q-7 0 -10 6t1 12l385 510l-342 478q-5 6 -2 12t11 6h30q9 0 17 -8l332 -463h190v461q0 10 10 10h31q10 0 10 -10v-461h190
l332 463q8 8 17 8h30q7 0 10 -6t-1 -12z" />
    <glyph glyph-name="uni0437" unicode="&#x437;" horiz-adv-x="890" 
d="M397 1051h23q164 0 250 -75t86 -192v-20q0 -76 -40.5 -138.5t-119.5 -96.5q103 -26 153 -91.5t50 -158.5v-21q0 -118 -98 -201.5t-269 -83.5h-22q-71 0 -161 25t-145 59q-12 6 -12 21v26q0 4 3.5 6.5t6.5 0.5q66 -39 150 -63.5t160 -24.5h18q150 0 234 70t84 163v25
q0 97 -70 156t-221 59h-174q-11 0 -11 10v29q0 10 11 10h125q149 0 223 64t74 153v24q0 92 -72 153.5t-215 61.5h-19q-142 0 -290 -88q-3 -2 -7 0.5t-4 6.5v26q0 14 13 21q55 35 137.5 59.5t148.5 24.5z" />
    <glyph glyph-name="uni0438" unicode="&#x438;" horiz-adv-x="1101" 
d="M879 1024h49q10 0 10 -10v-1004q0 -10 -10 -10h-31q-10 0 -10 10v952h-3l-282 -421l-356 -529q-9 -12 -23 -12h-49q-10 0 -10 10v1004q0 10 10 10h31q10 0 10 -10v-952h2l639 950q9 12 23 12z" />
    <glyph glyph-name="uni0439" unicode="&#x439;" horiz-adv-x="1101" 
d="M813 1346q6 4 11.5 0.5t5.5 -9.5v-24q0 -14 -10 -21q-39 -31 -107 -57.5t-149 -26.5t-149 26.5t-107 57.5q-11 7 -11 21v24q0 6 5.5 9.5t11.5 -0.5q36 -25 63.5 -40.5t79.5 -31.5t107 -16t107 16t79 31.5t63 40.5zM879 1024h49q10 0 10 -10v-1004q0 -10 -10 -10h-31
q-10 0 -10 10v952h-3l-282 -421l-356 -529q-9 -12 -23 -12h-49q-10 0 -10 10v1004q0 10 10 10h31q10 0 10 -10v-952h2l639 950q9 12 23 12z" />
    <glyph glyph-name="uni043A" unicode="&#x43a;" horiz-adv-x="944" 
d="M496 528l385 -510q5 -6 2 -12t-11 -6h-32q-12 0 -17 8l-374 496h-230v-494q0 -10 -10 -10h-31q-10 0 -10 10v1004q0 10 10 10h31q10 0 10 -10v-461h231l332 463q8 8 17 8h30q7 0 10 -6t-1 -12z" />
    <glyph glyph-name="uni043B" unicode="&#x43b;" horiz-adv-x="1136" 
d="M360 1024h603q10 0 10 -10v-1004q0 -10 -10 -10h-31q-10 0 -10 10v965h-524l-56 -744q-21 -258 -180 -258h-12q-37 0 -76 17q-13 5 -13 18v21q0 6 4.5 9.5t10.5 0.5q39 -16 76 -16h8q117 0 131 206l59 785q0 10 10 10z" />
    <glyph glyph-name="uni043C" unicode="&#x43c;" horiz-adv-x="1277" 
d="M1053 1024h51q10 0 10 -10v-1004q0 -10 -10 -10h-31q-10 0 -10 10v955h-2l-383 -623q-7 -12 -23 -12h-32q-16 0 -23 12l-383 623h-2v-955q0 -10 -10 -10h-31q-10 0 -10 10v1004q0 10 10 10h51q14 0 23 -12l389 -635h4l389 635q9 12 23 12z" />
    <glyph glyph-name="uni043D" unicode="&#x43d;" horiz-adv-x="1095" 
d="M891 1024h31q10 0 10 -10v-1004q0 -10 -10 -10h-31q-10 0 -10 10v490h-666v-490q0 -10 -10 -10h-31q-10 0 -10 10v1004q0 10 10 10h31q10 0 10 -10v-465h666v465q0 10 10 10z" />
    <glyph glyph-name="uni043E" unicode="&#x43e;" horiz-adv-x="1153" 
d="M565 1051h23q188 0 305 -121t117 -342v-152q0 -221 -117 -342t-305 -121h-23q-188 0 -305 121t-117 342v152q0 221 117 342t305 121zM586 1001h-19q-166 0 -269 -107.5t-103 -303.5v-156q0 -196 103 -303.5t269 -107.5h19q166 0 269 107.5t103 303.5v156
q0 196 -103 303.5t-269 107.5z" />
    <glyph glyph-name="uni043F" unicode="&#x43f;" horiz-adv-x="1103" 
d="M174 1024h756q10 0 10 -10v-1004q0 -10 -10 -10h-31q-10 0 -10 10v965h-674v-965q0 -10 -10 -10h-31q-10 0 -10 10v1004q0 10 10 10z" />
    <glyph glyph-name="uni0440" unicode="&#x440;" horiz-adv-x="1124" 
d="M578 1051h8q189 0 292 -119t103 -344v-152q0 -225 -103 -344t-292 -119h-8q-89 0 -186.5 45t-172.5 134v-484q0 -10 -10 -10h-31q-10 0 -10 10v1346q0 10 10 10h31q10 0 10 -10v-142q75 89 172.5 134t186.5 45zM584 1001h-4q-194 0 -361 -198v-582q167 -198 361 -198h4
q168 0 257 105.5t89 305.5v156q0 200 -89 305.5t-257 105.5z" />
    <glyph glyph-name="uni0441" unicode="&#x441;" horiz-adv-x="1038" 
d="M584 1051h22q72 0 147.5 -24t133.5 -60q12 -6 12 -21v-26q0 -4 -3.5 -6.5t-6.5 -0.5q-148 88 -285 88h-18q-168 0 -279.5 -109t-111.5 -302v-156q0 -193 111.5 -302t279.5 -109h18q137 0 285 88q3 2 6.5 -0.5t3.5 -6.5v-26q0 -15 -12 -21q-58 -36 -133.5 -60t-147.5 -24
h-22q-189 0 -315 122.5t-126 340.5v152q0 218 126 340.5t315 122.5z" />
    <glyph glyph-name="uni0442" unicode="&#x442;" horiz-adv-x="948" 
d="M72 1024h805q10 0 10 -10v-29q0 -10 -10 -10h-377v-965q0 -10 -11 -10h-30q-10 0 -10 10v965h-377q-11 0 -11 10v29q0 10 11 10z" />
    <glyph glyph-name="uni0443" unicode="&#x443;" horiz-adv-x="997" 
d="M900 1024h28q10 0 7 -10l-441 -1125q-56 -140 -111.5 -199t-150.5 -59h-12q-55 0 -121 29q-12 5 -12 18v21q0 6 4 9.5t10 0.5q66 -28 121 -28h8q69 0 116.5 45t92.5 161l43 113h-6q-17 0 -23 16l-391 998q-3 10 8 10h27q17 0 23 -16l375 -959h6l376 959q6 16 23 16z" />
    <glyph glyph-name="uni0444" unicode="&#x444;" horiz-adv-x="1501" 
d="M776 1051h139q123 0 222 -51.5t160 -158t61 -253.5v-152q0 -147 -61 -253.5t-160 -158t-222 -51.5h-139v-305q0 -10 -10 -10h-31q-10 0 -10 10v305h-139q-123 0 -222 51.5t-160 158t-61 253.5v152q0 147 61 253.5t160 158t222 51.5h139v448q0 10 10 10h31q10 0 10 -10
v-448zM725 1001h-137q-109 0 -197 -46t-142 -140.5t-54 -224.5v-156q0 -130 54 -224.5t142 -140.5t197 -46h137v978zM1307 434v156q0 193 -112.5 302t-281.5 109h-137v-978h137q169 0 281.5 109t112.5 302z" />
    <glyph glyph-name="uni0445" unicode="&#x445;" horiz-adv-x="890" 
d="M769 1024h31q7 0 10 -6t-2 -12l-328 -478l346 -510q5 -6 2 -12t-10 -6h-31q-11 0 -16 8l-323 473h-6l-322 -473q-5 -8 -17 -8h-30q-7 0 -10 6t1 12l346 510l-329 478q-3 6 -1 12t9 6h31q12 0 16 -8l244 -350l63 -93h4l305 443q8 8 17 8z" />
    <glyph glyph-name="uni0446" unicode="&#x446;" horiz-adv-x="1171" 
d="M940 49h160q10 0 10 -10v-307q0 -11 -10 -11h-31q-10 0 -10 11v268h-885q-10 0 -10 10v1004q0 10 10 10h31q10 0 10 -10v-965h674v965q0 10 10 10h31q10 0 10 -10v-965z" />
    <glyph glyph-name="uni0447" unicode="&#x447;" horiz-adv-x="1069" 
d="M868 1024h31q10 0 10 -10v-1004q0 -10 -10 -10h-31q-10 0 -10 10v398q-77 -55 -171.5 -86t-180.5 -31h-8q-178 0 -258 97.5t-80 287.5v338q0 10 10 10h31q10 0 10 -10v-340q0 -165 66.5 -249.5t222.5 -84.5h4q186 0 354 131v543q0 10 10 10z" />
    <glyph glyph-name="uni0448" unicode="&#x448;" horiz-adv-x="1660" 
d="M1456 1024h31q10 0 10 -10v-1004q0 -10 -10 -10h-1313q-10 0 -10 10v1004q0 10 10 10h31q10 0 10 -10v-965h590v965q0 10 10 10h31q10 0 10 -10v-965h590v965q0 10 10 10z" />
    <glyph glyph-name="uni0449" unicode="&#x449;" horiz-adv-x="1728" 
d="M1497 49h160q10 0 10 -10v-307q0 -11 -10 -11h-31q-10 0 -10 11v268h-1442q-10 0 -10 10v1004q0 10 10 10h31q10 0 10 -10v-965h590v965q0 10 10 10h31q10 0 10 -10v-965h590v965q0 10 10 10h31q10 0 10 -10v-965z" />
    <glyph glyph-name="uni044A" unicode="&#x44a;" horiz-adv-x="1081" 
d="M328 612h321q173 0 256.5 -76t83.5 -208v-21q0 -135 -84.5 -221t-255.5 -86h-362q-11 0 -11 10v965h-204q-11 0 -11 10v29q0 10 11 10h245q11 0 11 -10v-402zM328 49h319q149 0 220 73t71 183v25q0 107 -69.5 170t-221.5 63h-319v-514z" />
    <glyph glyph-name="uni044B" unicode="&#x44b;" horiz-adv-x="1286" 
d="M215 612h322q173 0 256.5 -76t83.5 -208v-21q0 -135 -84.5 -221t-255.5 -86h-363q-10 0 -10 10v1004q0 10 10 10h31q10 0 10 -10v-402zM1081 1024h31q10 0 10 -10v-1004q0 -10 -10 -10h-31q-10 0 -10 10v1004q0 10 10 10zM825 305v25q0 107 -69.5 170t-220.5 63h-320
v-514h320q149 0 219.5 72.5t70.5 183.5z" />
    <glyph glyph-name="uni044C" unicode="&#x44c;" horiz-adv-x="968" 
d="M215 612h322q173 0 256.5 -76t83.5 -208v-21q0 -135 -84.5 -221t-255.5 -86h-363q-10 0 -10 10v1004q0 10 10 10h31q10 0 10 -10v-402zM215 49h320q149 0 219.5 72.5t70.5 183.5v25q0 107 -69.5 170t-220.5 63h-320v-514z" />
    <glyph glyph-name="uni044D" unicode="&#x44d;" horiz-adv-x="1038" 
d="M432 1051h23q122 0 220.5 -51.5t159 -158t60.5 -253.5v-152q0 -147 -60.5 -253.5t-159 -158t-220.5 -51.5h-23q-72 0 -147 24t-133 60q-13 7 -13 21v26q0 4 4 6.5t7 0.5q148 -88 284 -88h19q168 0 279.5 109t111.5 302v66h-549q-10 0 -10 10v29q0 10 10 10h549v41
q0 193 -111.5 302t-279.5 109h-19q-136 0 -284 -88q-3 -2 -7 0.5t-4 6.5v26q0 14 13 21q58 36 133 60t147 24z" />
    <glyph glyph-name="uni044E" unicode="&#x44e;" horiz-adv-x="1486" 
d="M899 1051h23q188 0 304.5 -121t116.5 -342v-152q0 -221 -116.5 -342t-304.5 -121h-23q-188 0 -305 121t-117 342v64h-262v-490q0 -10 -10 -10h-31q-10 0 -10 10v1004q0 10 10 10h31q10 0 10 -10v-465h262v39q0 221 117 342t305 121zM1292 434v156q0 196 -103 303.5
t-269 107.5h-19q-166 0 -269.5 -107.5t-103.5 -303.5v-156q0 -196 103.5 -303.5t269.5 -107.5h19q166 0 269 107.5t103 303.5z" />
    <glyph glyph-name="uni044F" unicode="&#x44f;" horiz-adv-x="1017" 
d="M475 1024h368q11 0 11 -10v-1004q0 -10 -11 -10h-30q-11 0 -11 10v418h-341l-310 -416q-9 -12 -22 -12h-23q-9 0 -12.5 8t2.5 15l305 410q-134 18 -200 96t-66 190v20q0 132 83.5 208.5t256.5 76.5zM802 975h-325q-151 0 -221 -63.5t-70 -170.5v-24q0 -103 71 -171.5
t220 -68.5h325v498z" />
    <glyph glyph-name="uni0451" unicode="&#x451;" horiz-adv-x="1093" 
d="M380 1333h68q12 0 12 -12v-80q0 -12 -12 -12h-68q-12 0 -12 12v80q0 12 12 12zM655 1333h67q13 0 13 -12v-80q0 -12 -13 -12h-67q-13 0 -13 12v80q0 12 13 12zM553 1051h22q186 0 282.5 -118t96.5 -345v-56q0 -10 -10 -10h-749v-127q0 -171 110 -271.5t281 -100.5h8
q153 0 319 88q3 2 7 -0.5t4 -6.5v-26q0 -14 -13 -21q-64 -35 -152.5 -59.5t-162.5 -24.5h-12q-193 0 -317 114t-124 310v168q0 224 114 355t296 131zM573 1001h-18q-159 0 -259 -116.5t-101 -313.5h708q0 219 -82.5 324.5t-247.5 105.5z" />
    <glyph glyph-name="uni0454" unicode="&#x454;" horiz-adv-x="1038" 
d="M604 1001h-18q-168 0 -279.5 -109t-111.5 -302v-41h548q11 0 11 -10v-29q0 -10 -11 -10h-548v-66q0 -193 111.5 -302t279.5 -109h18q137 0 285 88q3 2 6.5 -0.5t3.5 -6.5v-26q0 -15 -12 -21q-58 -36 -133.5 -60t-147.5 -24h-22q-189 0 -315 122.5t-126 340.5v152
q0 218 126 340.5t315 122.5h22q72 0 147.5 -24t133.5 -60q12 -6 12 -21v-26q0 -4 -3.5 -6.5t-6.5 -0.5q-148 88 -285 88z" />
    <glyph glyph-name="uni0456" unicode="&#x456;" horiz-adv-x="411" 
d="M180 1333h56q12 0 12 -12v-80q0 -12 -12 -12h-56q-12 0 -12 12v80q0 12 12 12zM193 1024h30q10 0 10 -10v-1004q0 -10 -10 -10h-30q-11 0 -11 10v1004q0 10 11 10z" />
    <glyph glyph-name="uni0457" unicode="&#x457;" horiz-adv-x="382" 
d="M23 1333h68q12 0 12 -12v-80q0 -12 -12 -12h-68q-12 0 -12 12v80q0 12 12 12zM298 1333h67q13 0 13 -12v-80q0 -12 -13 -12h-67q-12 0 -12 12v80q0 12 12 12zM178 1024h31q10 0 10 -10v-1004q0 -10 -10 -10h-31q-10 0 -10 10v1004q0 10 10 10z" />
    <glyph glyph-name="uni045E" unicode="&#x45e;" horiz-adv-x="997" 
d="M748 1346q6 4 11.5 0.5t5.5 -9.5v-24q0 -14 -10 -21q-39 -31 -107 -57.5t-149 -26.5t-149 26.5t-107 57.5q-11 7 -11 21v24q0 6 5.5 9.5t11.5 -0.5q36 -25 63.5 -40.5t79.5 -31.5t107 -16t107 16t79 31.5t63 40.5zM900 1024h28q10 0 7 -10l-441 -1125
q-56 -140 -111.5 -199t-150.5 -59h-12q-55 0 -121 29q-12 5 -12 18v21q0 6 4 9.5t10 0.5q66 -28 121 -28h8q69 0 116.5 45t92.5 161l43 113h-6q-17 0 -23 16l-391 998q-3 10 8 10h27q17 0 23 -16l375 -959h6l376 959q6 16 23 16z" />
    <glyph glyph-name="uni0490" unicode="&#x490;" horiz-adv-x="1093" 
d="M971 1579h30q11 0 11 -10v-174q0 -11 -11 -11h-745v-1374q0 -10 -10 -10h-31q-10 0 -10 10v1413q0 11 10 11h746v135q0 10 10 10z" />
    <glyph glyph-name="uni0491" unicode="&#x491;" horiz-adv-x="837" 
d="M735 1170h31q10 0 10 -11v-174q0 -10 -10 -10h-551v-965q0 -10 -10 -10h-31q-10 0 -10 10v1004q0 10 10 10h551v135q0 11 10 11z" />
    <glyph glyph-name="Wgrave" unicode="&#x1e80;" horiz-adv-x="1966" 
d="M852 1948l146 -324q3 -6 0 -11t-9 -5h-16q-14 0 -21 14l-157 322q-3 7 0.5 12.5t11.5 5.5h23q15 0 22 -14zM1850 1434h27q10 0 6 -11l-418 -1407q-6 -16 -24 -16h-35q-19 0 -25 16l-164 553l-231 789h-6l-232 -789l-164 -553q-6 -16 -24 -16h-35q-19 0 -25 16l-417 1407
q-4 11 6 11h26q16 0 23 -17l401 -1358h6l238 803l164 555q7 17 22 17h27q16 0 23 -17l163 -555l239 -803h5l402 1358q7 17 22 17z" />
    <glyph glyph-name="wgrave" unicode="&#x1e81;" horiz-adv-x="1492" 
d="M610 1538l146 -323q3 -6 0 -11.5t-9 -5.5h-16q-13 0 -20 14l-158 322q-3 7 0.5 12.5t11.5 5.5h23q15 0 22 -14zM1397 1024h25q11 0 8 -10l-305 -998q-6 -16 -22 -16h-43q-17 0 -23 16l-289 949h-5l-195 -646l-93 -303q-6 -16 -22 -16h-43q-20 0 -23 16l-305 998
q-3 10 8 10h25q16 0 22 -16l294 -955h3l158 514l133 441q3 16 23 16h37q16 0 22 -16l293 -955h4l156 514l135 441q6 16 22 16z" />
    <glyph glyph-name="Wacute" unicode="&#x1e82;" horiz-adv-x="1966" 
d="M967 1624l146 324q7 14 22 14h23q8 0 11.5 -5.5t0.5 -12.5l-158 -322q-7 -14 -20 -14h-16q-6 0 -9 5t0 11zM1850 1434h27q10 0 6 -11l-418 -1407q-6 -16 -24 -16h-35q-19 0 -25 16l-164 553l-231 789h-6l-232 -789l-164 -553q-6 -16 -24 -16h-35q-19 0 -25 16l-417 1407
q-4 11 6 11h26q16 0 23 -17l401 -1358h6l238 803l164 555q7 17 22 17h27q16 0 23 -17l163 -555l239 -803h5l402 1358q7 17 22 17z" />
    <glyph glyph-name="wacute" unicode="&#x1e83;" horiz-adv-x="1492" 
d="M732 1215l145 323q7 14 23 14h22q8 0 12 -5.5t1 -12.5l-158 -322q-7 -14 -21 -14h-16q-6 0 -8.5 5.5t0.5 11.5zM1397 1024h25q11 0 8 -10l-305 -998q-6 -16 -22 -16h-43q-17 0 -23 16l-289 949h-5l-195 -646l-93 -303q-6 -16 -22 -16h-43q-20 0 -23 16l-305 998
q-3 10 8 10h25q16 0 22 -16l294 -955h3l158 514l133 441q3 16 23 16h37q16 0 22 -16l293 -955h4l156 514l135 441q6 16 22 16z" />
    <glyph glyph-name="Wdieresis" unicode="&#x1e84;" horiz-adv-x="1966" 
d="M812 1743h68q12 0 12 -12v-80q0 -13 -12 -13h-68q-12 0 -12 13v80q0 12 12 12zM1086 1743h68q12 0 12 -12v-80q0 -13 -12 -13h-68q-12 0 -12 13v80q0 12 12 12zM1850 1434h27q10 0 6 -11l-418 -1407q-6 -16 -24 -16h-35q-19 0 -25 16l-164 553l-231 789h-6l-232 -789
l-164 -553q-6 -16 -24 -16h-35q-19 0 -25 16l-417 1407q-4 11 6 11h26q16 0 23 -17l401 -1358h6l238 803l164 555q7 17 22 17h27q16 0 23 -17l163 -555l239 -803h5l402 1358q7 17 22 17z" />
    <glyph glyph-name="wdieresis" unicode="&#x1e85;" horiz-adv-x="1492" 
d="M574 1333h68q12 0 12 -12v-80q0 -12 -12 -12h-68q-12 0 -12 12v80q0 12 12 12zM849 1333h67q13 0 13 -12v-80q0 -12 -13 -12h-67q-12 0 -12 12v80q0 12 12 12zM1397 1024h25q11 0 8 -10l-305 -998q-6 -16 -22 -16h-43q-17 0 -23 16l-289 949h-5l-195 -646l-93 -303
q-6 -16 -22 -16h-43q-20 0 -23 16l-305 998q-3 10 8 10h25q16 0 22 -16l294 -955h3l158 514l133 441q3 16 23 16h37q16 0 22 -16l293 -955h4l156 514l135 441q6 16 22 16z" />
    <glyph glyph-name="Ygrave" unicode="&#x1ef2;" horiz-adv-x="1255" 
d="M502 1948l145 -324q3 -6 0.5 -11t-8.5 -5h-17q-13 0 -20 14l-158 322q-3 7 1 12.5t12 5.5h22q16 0 23 -14zM1131 1434h35q4 0 6 -4t0 -7l-520 -927v-486q0 -10 -10 -10h-29q-10 0 -10 10v486l-520 927q-2 3 0 7t6 4h35q14 0 20 -13l481 -858h5l481 858q7 13 20 13z" />
    <glyph glyph-name="ygrave" unicode="&#x1ef3;" horiz-adv-x="997" 
d="M378 1538l146 -323q3 -6 0.5 -11.5t-8.5 -5.5h-17q-13 0 -20 14l-158 322q-3 7 0.5 12.5t11.5 5.5h23q15 0 22 -14zM900 1024h28q10 0 7 -10l-441 -1125q-56 -140 -111.5 -199t-150.5 -59h-12q-55 0 -121 29q-12 5 -12 18v21q0 6 4 9.5t10 0.5q66 -28 121 -28h8
q69 0 116.5 45t92.5 161l43 113h-6q-17 0 -23 16l-391 998q-3 10 8 10h27q17 0 23 -16l375 -959h6l376 959q6 16 23 16z" />
    <glyph glyph-name="uni2009" unicode="&#x2009;" horiz-adv-x="1228" 
 />
    <glyph glyph-name="endash" unicode="&#x2013;" horiz-adv-x="1114" 
d="M92 686h930q10 0 10 -10v-29q0 -10 -10 -10h-930q-10 0 -10 10v29q0 10 10 10z" />
    <glyph glyph-name="emdash" unicode="&#x2014;" horiz-adv-x="1265" 
d="M92 686h1082q10 0 10 -10v-29q0 -10 -10 -10h-1082q-10 0 -10 10v29q0 10 10 10z" />
    <glyph glyph-name="quoteleft" unicode="&#x2018;" horiz-adv-x="278" 
d="M166 987h-72q-12 0 -12 12v70q0 13 2 21l61 335q0 9 11 9h30q11 0 11 -19l-60 -323h29q12 0 12 -13v-80q0 -12 -12 -12z" />
    <glyph glyph-name="quoteright" unicode="&#x2019;" horiz-adv-x="278" 
d="M113 1434h71q13 0 13 -13v-69q0 -13 -2 -21l-62 -336q0 -8 -10 -8h-31q-10 0 -10 19l59 323h-28q-13 0 -13 12v80q0 13 13 13z" />
    <glyph glyph-name="quotesinglbase" unicode="&#x201a;" horiz-adv-x="278" 
d="M113 104h71q13 0 13 -12v-69q0 -13 -2 -21l-62 -336q0 -8 -10 -8h-31q-10 0 -10 15v3l59 324h-28q-13 0 -13 12v80q0 12 13 12z" />
    <glyph glyph-name="quotedblleft" unicode="&#x201c;" horiz-adv-x="548" 
d="M166 987h-72q-12 0 -12 12v70q0 13 2 21l61 335q0 9 11 9h30q11 0 11 -19l-60 -323h29q12 0 12 -13v-80q0 -12 -12 -12zM436 987h-71q-13 0 -13 12v70q0 13 2 21l62 335q0 9 10 9h31q10 0 10 -19l-59 -323h28q13 0 13 -13v-80q0 -12 -13 -12z" />
    <glyph glyph-name="quotedblright" unicode="&#x201d;" horiz-adv-x="548" 
d="M113 1434h71q13 0 13 -13v-69q0 -13 -2 -21l-62 -336q0 -8 -10 -8h-31q-10 0 -10 19l59 323h-28q-13 0 -13 12v80q0 13 13 13zM383 1434h72q12 0 12 -13v-69q0 -13 -2 -21l-61 -336q0 -8 -11 -8h-30q-11 0 -11 19l60 323h-29q-12 0 -12 12v80q0 13 12 13z" />
    <glyph glyph-name="quotedblbase" unicode="&#x201e;" horiz-adv-x="548" 
d="M113 104h71q13 0 13 -12v-69q0 -13 -2 -21l-62 -336q0 -8 -10 -8h-31q-10 0 -10 15v3l59 324h-28q-13 0 -13 12v80q0 12 13 12zM383 104h72q12 0 12 -12v-69q0 -13 -2 -21l-61 -336q0 -8 -11 -8h-30q-11 0 -11 18l60 324h-29q-12 0 -12 12v80q0 12 12 12z" />
    <glyph glyph-name="dagger" unicode="&#x2020;" horiz-adv-x="952" 
d="M502 1024h358q10 0 10 -10v-29q0 -10 -10 -10h-358v-1116q0 -11 -10 -11h-31q-10 0 -10 11v1116h-359q-10 0 -10 10v29q0 10 10 10h359v399q0 11 10 11h31q10 0 10 -11v-399z" />
    <glyph glyph-name="daggerdbl" unicode="&#x2021;" horiz-adv-x="952" 
d="M502 348h358q10 0 10 -10v-29q0 -10 -10 -10h-358v-440q0 -11 -10 -11h-31q-10 0 -10 11v440h-359q-10 0 -10 10v29q0 10 10 10h359v627h-359q-10 0 -10 10v29q0 10 10 10h359v399q0 11 10 11h31q10 0 10 -11v-399h358q10 0 10 -10v-29q0 -10 -10 -10h-358v-627z" />
    <glyph glyph-name="bullet" unicode="&#x2022;" horiz-adv-x="348" 
d="M174 678q38 0 65 -27t27 -65t-27 -65t-65 -27t-65 27t-27 65t27 65t65 27z" />
    <glyph glyph-name="ellipsis" unicode="&#x2026;" horiz-adv-x="1222" 
d="M94 104h68q12 0 12 -12v-80q0 -12 -12 -12h-68q-12 0 -12 12v80q0 12 12 12zM578 104h67q12 0 12 -12v-80q0 -12 -12 -12h-67q-13 0 -13 12v80q0 12 13 12zM1061 104h67q13 0 13 -12v-80q0 -12 -13 -12h-67q-12 0 -12 12v80q0 12 12 12z" />
    <glyph glyph-name="perthousand" unicode="&#x2030;" horiz-adv-x="2779" 
d="M436 635h-22q-156 0 -244 105t-88 278v59q0 173 88 278t244 105h22q156 0 244 -105t88 -278v-59q0 -173 -88 -278t-244 -105zM647 0h-22q-20 0 -13 18l666 1401q8 15 20 15h23q9 0 12 -5.5t0 -13.5l-665 -1401q-7 -14 -21 -14zM416 684h18q135 0 209 91.5t74 240.5v63
q0 149 -74 240.5t-209 91.5h-18q-135 0 -209 -91.5t-74 -240.5v-63q0 -149 74 -240.5t209 -91.5zM1509 799h23q156 0 244 -105t88 -278v-60q0 -173 -88 -278t-244 -105h-23q-156 0 -243.5 105t-87.5 278v60q0 173 87.5 278t243.5 105zM2343 799h22q156 0 244 -105t88 -278
v-60q0 -173 -88 -278t-244 -105h-22q-156 0 -244 105t-88 278v60q0 173 88 278t244 105zM1530 750h-19q-134 0 -208 -91.5t-74 -240.5v-64q0 -149 73.5 -240t208.5 -91h19q135 0 208.5 91t73.5 240v64q0 149 -74 240.5t-208 91.5zM2363 750h-18q-135 0 -209 -91.5
t-74 -240.5v-64q0 -149 74 -240t209 -91h18q135 0 209 91t74 240v64q0 149 -74 240.5t-209 91.5z" />
    <glyph glyph-name="guilsinglleft" unicode="&#x2039;" horiz-adv-x="477" 
d="M135 518l258 -305q4 -6 2 -10t-8 -4h-31q-8 0 -14 6l-254 293q-6 6 -6 16v8q0 11 6 17l254 292q7 7 14 7h31q6 0 8 -4.5t-2 -10.5z" />
    <glyph glyph-name="guilsinglright" unicode="&#x203a;" horiz-adv-x="477" 
d="M343 518l-258 305q-4 6 -2 10.5t8 4.5h31q7 0 14 -7l254 -292q6 -6 6 -17v-8q0 -10 -6 -16l-254 -293q-6 -6 -14 -6h-31q-6 0 -8 4t2 10z" />
    <glyph glyph-name="fraction" unicode="&#x2044;" horiz-adv-x="315" 
d="M483 1434h22q9 0 12.5 -5.5t0.5 -13.5l-666 -1401q-7 -14 -20 -14h-23q-19 0 -12 18l665 1401q8 15 21 15z" />
    <glyph glyph-name="Euro" unicode="&#x20ac;" horiz-adv-x="1372" 
d="M907 1411h-16q-98 0 -186.5 -33t-160.5 -96.5t-118 -165.5t-55 -231h612q10 0 10 -11v-28q0 -10 -10 -10h-614v-13v-213v-12h614q10 0 10 -10v-29q0 -10 -10 -10h-612q9 -129 55 -231t118 -165.5t160.5 -96.5t186.5 -33h16q176 0 353 98q3 2 6.5 0t3.5 -6v-27
q0 -14 -13 -20q-68 -39 -160 -67t-188 -28h-20q-109 0 -207.5 37t-177 107.5t-128 181.5t-57.5 250h-227q-10 0 -10 10v29q0 10 10 10h225v238h-225q-10 0 -10 10v28q0 11 10 11h227q8 139 57.5 250t128 181t177 107t207.5 37h20q96 0 188.5 -27.5t159.5 -66.5q13 -6 13 -20
v-27q0 -4 -3.5 -6t-6.5 0q-177 98 -353 98z" />
    <glyph glyph-name="uni2116" unicode="&#x2116;" horiz-adv-x="2125" 
d="M1690 1460h22q156 0 244 -105t88 -278v-59q0 -173 -88 -278t-244 -105h-22q-156 0 -244 105t-88 278v59q0 173 88 278t244 105zM1161 1434h31q10 0 10 -11v-1413q0 -10 -10 -10h-43q-11 0 -16 8l-885 1346h-2v-1344q0 -10 -10 -10h-31q-10 0 -10 10v1413q0 11 10 11h43
q10 0 16 -9l885 -1345h2v1343q0 11 10 11zM1710 1411h-18q-135 0 -209 -91.5t-74 -240.5v-63q0 -149 74 -240.5t209 -91.5h18q135 0 209 91.5t74 240.5v63q0 149 -74 240.5t-209 91.5zM1389 500h624q10 0 10 -11v-28q0 -10 -10 -10h-624q-11 0 -11 10v28q0 11 11 11z" />
    <glyph glyph-name="trademark" unicode="&#x2122;" horiz-adv-x="1626" 
d="M88 1516h604q4 0 4 -7v-39q0 -4 -4 -4h-276v-743q0 -6 -6 -6h-39q-6 0 -6 6v743h-277q-6 0 -6 4v39q0 7 6 7zM1470 1516h68q6 0 6 -7v-786q0 -6 -6 -6h-39q-6 0 -6 6v739h-2l-285 -458q-7 -11 -16 -11h-14q-10 0 -17 11l-285 458h-2v-739q0 -6 -6 -6h-39q-6 0 -6 6v786
q0 7 6 7h68q9 0 12 -7l273 -448h6l272 448q4 7 12 7z" />
    <glyph glyph-name="estimated" unicode="&#x212e;" horiz-adv-x="1548" 
d="M774 1366q199 0 358.5 -94t246.5 -252.5t87 -349.5h-1185v-424q90 -105 216.5 -164t276.5 -59q128 0 244 35.5t201 99.5q6 5 12 2t6 -10v-25q0 -14 -12 -23q-88 -62 -206 -95.5t-245 -33.5q-199 0 -358.5 94.5t-246.5 253t-87 349.5t87 349.5t246.5 252.5t358.5 94z
M774 1317q-150 0 -276.5 -57.5t-216.5 -161.5v-379h987v379q-90 104 -216.5 161.5t-277.5 57.5z" />
    <glyph glyph-name="oneeighth" unicode="&#x215b;" horiz-adv-x="1630" 
d="M332 711h168q10 0 10 -11v-28q0 -10 -10 -10h-408q-10 0 -10 10v28q0 11 10 11h189v665l-189 -80q-10 -3 -10 9v28q0 14 10 17l187 80q8 4 20 4h23q10 0 10 -11v-712zM1075 1434h22q9 0 12.5 -5.5t0.5 -13.5l-666 -1401q-7 -14 -21 -14h-22q-19 0 -12 18l665 1401
q8 15 21 15zM1408 401q62 -26 100.5 -77t38.5 -117v-23q0 -92 -76.5 -151.5t-189.5 -59.5h-27q-113 0 -189.5 59.5t-76.5 151.5v23q0 65 39 116.5t101 77.5q-55 26 -88 71t-33 103v17q0 93 75.5 150t180.5 57h10q105 0 180.5 -57t75.5 -150v-17q0 -58 -33.5 -103t-87.5 -71z
M1058 580v-5q0 -55 51 -104t145 -49h27q94 0 145.5 49.5t51.5 103.5v5q0 79 -61 124.5t-146 45.5h-6q-85 0 -146 -45.5t-61 -124.5zM1496 197v10q0 58 -51 112t-148 54h-59q-97 0 -148 -54t-51 -112v-10q0 -78 63.5 -126t160.5 -48h10q97 0 160 48t63 126z" />
    <glyph glyph-name="threeeighths" unicode="&#x215c;" horiz-adv-x="1718" 
d="M317 1460h11q104 0 178 -57t74 -150v-16q0 -58 -31.5 -103t-84.5 -71q61 -24 97.5 -73t36.5 -116v-22q0 -93 -78 -155t-194 -62h-17q-110 0 -215 57q-12 6 -12 21v26q0 4 3.5 6t6.5 0q119 -61 219 -61h13q96 0 159.5 50.5t63.5 129.5v10q0 61 -47.5 111t-145.5 50
l-135 -1q-10 0 -10 10v29q0 10 10 10h119q93 0 141.5 49t48.5 105v4q0 80 -59 125t-143 45h-7q-96 0 -215 -61q-3 -2 -6.5 0t-3.5 6v26q0 15 12 21q105 57 211 57zM1163 1434h22q9 0 12.5 -5.5t0.5 -13.5l-666 -1401q-7 -14 -21 -14h-22q-19 0 -12 18l665 1401q8 15 21 15z
M1496 401q62 -26 100.5 -77t38.5 -117v-23q0 -92 -76.5 -151.5t-189.5 -59.5h-27q-113 0 -189.5 59.5t-76.5 151.5v23q0 65 39 116.5t101 77.5q-55 26 -88 71t-33 103v17q0 93 75.5 150t180.5 57h10q105 0 180.5 -57t75.5 -150v-17q0 -58 -33.5 -103t-87.5 -71zM1146 580v-5
q0 -55 51 -104t145 -49h27q94 0 145.5 49.5t51.5 103.5v5q0 79 -61 124.5t-146 45.5h-6q-85 0 -146 -45.5t-61 -124.5zM1584 197v10q0 58 -51 112t-148 54h-59q-97 0 -148 -54t-51 -112v-10q0 -78 63.5 -126t160.5 -48h10q97 0 160 48t63 126z" />
    <glyph glyph-name="fiveeighths" unicode="&#x215d;" horiz-adv-x="1726" 
d="M125 1434h416q10 0 10 -11v-28q0 -11 -10 -11h-375v-303q134 39 196 39q104 0 174 -57.5t70 -171.5v-23q0 -98 -75.5 -165.5t-194.5 -67.5h-17q-56 0 -118 16.5t-107 40.5q-12 6 -12 21v26q0 4 3.5 6t6.5 0q119 -61 230 -61h12q99 0 160 55t61 138v10q0 80 -47 132
t-146 52q-67 0 -196 -39q-16 -3 -27 2l-10 6q-14 8 -14 21v362q0 11 10 11zM1171 1434h22q9 0 12.5 -5.5t0.5 -13.5l-666 -1401q-7 -14 -20 -14h-23q-19 0 -12 18l665 1401q8 15 21 15zM1504 401q62 -26 101 -77.5t39 -116.5v-23q0 -91 -77 -151t-190 -60h-26
q-113 0 -190 60t-77 151v23q0 65 39 116.5t101 77.5q-55 26 -88 71t-33 103v17q0 93 75.5 150t180.5 57h10q105 0 180.5 -57t75.5 -150v-17q0 -58 -33.5 -103t-87.5 -71zM1154 580v-5q0 -54 51.5 -103.5t145.5 -49.5h26q94 0 145.5 49.5t51.5 103.5v5q0 79 -61 124.5
t-146 45.5h-6q-85 0 -146 -45.5t-61 -124.5zM1592 197v10q0 58 -50.5 112t-147.5 54h-60q-97 0 -147.5 -54t-50.5 -112v-10q0 -78 63 -126t160 -48h10q97 0 160 48t63 126z" />
    <glyph glyph-name="seveneighths" unicode="&#x215e;" horiz-adv-x="1562" 
d="M92 1434h504q10 0 10 -11v-14q0 -14 -14 -33l-277 -350q-10 -13 -10 -29v-325q0 -10 -10 -10h-31q-10 0 -10 10v340q0 15 10 28l273 344h-445q-10 0 -10 11v28q0 11 10 11zM1007 1434h23q9 0 12 -5.5t0 -13.5l-666 -1401q-7 -14 -20 -14h-23q-19 0 -12 18l666 1401
q7 15 20 15zM1340 401q62 -26 101 -77.5t39 -116.5v-23q0 -91 -77 -151t-190 -60h-26q-113 0 -189.5 59.5t-76.5 151.5v23q0 65 39 116.5t101 77.5q-55 26 -88.5 71t-33.5 103v17q0 93 75.5 150t180.5 57h10q105 0 180.5 -57t75.5 -150v-17q0 -58 -33.5 -103t-87.5 -71z
M990 580v-5q0 -54 51.5 -103.5t145.5 -49.5h26q94 0 145.5 49.5t51.5 103.5v5q0 79 -61 124.5t-146 45.5h-6q-85 0 -146 -45.5t-61 -124.5zM1428 197v10q0 58 -50.5 112t-147.5 54h-60q-97 0 -147.5 -54t-50.5 -112v-10q0 -78 63 -126t160 -48h10q97 0 160 48t63 126z" />
    <glyph glyph-name="arrowleft" unicode="&#x2190;" horiz-adv-x="1331" 
d="M92 690l287 137q14 8 14 -10v-10q0 -14 -10 -21l-178 -98h1034q10 0 10 -10v-31q0 -10 -10 -10h-1034l178 -98q10 -7 10 -21v-10q0 -18 -14 -10l-287 137q-10 5 -10 16v23q0 11 10 16z" />
    <glyph glyph-name="arrowup" unicode="&#x2191;" horiz-adv-x="499" 
d="M240 1167h20q14 0 17 -10l139 -285q8 -16 -10 -16h-13q-14 0 -20 12l-98 176v-1034q0 -10 -11 -10h-28q-11 0 -11 10v1034l-98 -176q-6 -12 -20 -12h-13q-18 0 -10 16l139 285q3 10 17 10z" />
    <glyph glyph-name="arrowright" unicode="&#x2192;" horiz-adv-x="1331" 
d="M954 827l285 -139q10 -3 10 -16v-21q0 -13 -10 -16l-285 -139q-16 -8 -16 10v12q0 15 12 21l176 98h-1034q-10 0 -10 10v29q0 10 10 10h1034l-176 98q-12 6 -12 21v12q0 18 16 10z" />
    <glyph glyph-name="arrowdown" unicode="&#x2193;" horiz-adv-x="499" 
d="M236 1141h28q11 0 11 -11v-1033l98 175q7 13 20 13h13q18 0 10 -17l-139 -284q-4 -11 -17 -11h-20q-13 0 -17 11l-139 284q-8 17 10 17h13q13 0 20 -13l98 -175v1033q0 11 11 11z" />
    <glyph glyph-name="uni2194" unicode="&#x2194;" horiz-adv-x="1519" 
d="M1140 827l287 -137q10 -5 10 -16v-23q0 -11 -10 -16l-287 -137q-14 -8 -14 10v10q0 14 10 21l178 98h-1109l178 -98q10 -7 10 -21v-10q0 -18 -14 -10l-287 137q-10 5 -10 16v23q0 11 10 16l287 137q14 8 14 -10v-10q0 -14 -10 -21l-178 -98h1109l-178 98q-10 7 -10 21v10
q0 18 14 10z" />
    <glyph glyph-name="arrowupdn" unicode="&#x2195;" horiz-adv-x="497" 
d="M238 1328h22q12 0 17 -10l137 -287q8 -14 -10 -14h-11q-13 0 -20 10l-98 178v-1110l98 179q7 10 20 10h11q7 0 10.5 -4t-0.5 -11l-137 -286q-5 -10 -17 -10h-22q-12 0 -17 10l-137 286q-4 7 -0.5 11t10.5 4h11q13 0 20 -10l98 -179v1110l-98 -178q-7 -10 -20 -10h-11
q-18 0 -10 14l137 287q5 10 17 10z" />
    <glyph glyph-name="uni2196" unicode="&#x2196;" horiz-adv-x="1015" 
d="M122 848l299 -105q16 -5 4 -18l-8 -8q-12 -9 -23 -6l-195 55l732 -731q7 -7 0 -15l-21 -20q-7 -7 -14 0l-731 731l55 -194q3 -11 -6 -23l-8 -8q-13 -13 -19 4l-104 299q-3 10 4 18l16 17q8 8 19 4z" />
    <glyph glyph-name="uni2197" unicode="&#x2197;" horiz-adv-x="1015" 
d="M595 745l300 102q10 5 19 -4l14 -14q9 -9 4 -19l-102 -300q-5 -18 -19 -4l-9 8q-10 10 -6 23l55 194l-731 -731q-8 -8 -15 0l-20 21q-7 7 0 14l731 731l-194 -55q-13 -4 -23 6l-8 9q-14 14 4 19z" />
    <glyph glyph-name="uni2198" unicode="&#x2198;" horiz-adv-x="1015" 
d="M851 90l-55 194q-4 13 6 23l9 9q13 13 19 -5l102 -299q5 -10 -4 -19l-14 -15q-9 -9 -19 -4l-300 103q-17 5 -4 18l8 9q10 10 23 6l194 -54l-731 730q-7 8 0 15l20 20q7 7 15 0z" />
    <glyph glyph-name="uni2199" unicode="&#x2199;" horiz-adv-x="1015" 
d="M910 821l21 -20q7 -7 0 -15l-731 -730l193 54q13 4 23 -6l9 -8q14 -14 -4 -19l-300 -103q-10 -5 -19 4l-14 15q-10 10 -5 19l103 299q6 18 19 5l9 -9q10 -9 5 -23l-54 -194l731 731q7 7 14 0z" />
    <glyph glyph-name="partialdiff" unicode="&#x2202;" horiz-adv-x="1046" 
d="M608 1536h13q183 0 270.5 -97.5t70.5 -285.5l-64 -717q-20 -225 -136 -344t-301 -119h-22q-175 0 -275 122.5t-79 340.5l13 125q22 226 132.5 344.5t302.5 118.5h8q89 0 182 -45t161 -133l27 309q28 332 -297 332h-8q-63 0 -127 -15t-101 -30t-98 -43q-10 -5 -10 6l2 27
q0 14 14 20q67 35 157.5 59.5t164.5 24.5zM847 434l31 342q-151 199 -343 199h-4q-171 0 -267 -106t-115 -306l-13 -129q-18 -193 68.5 -302t240.5 -109h19q167 0 266.5 107.5t116.5 303.5z" />
    <glyph glyph-name="emptyset" unicode="&#x2205;" horiz-adv-x="1243" 
d="M1133 987l-111 -111q139 -152 139 -364q0 -148 -70.5 -271t-194.5 -195t-275 -73q-211 1 -364 138l-112 -111q-7 -7 -14 0l-20 23q-7 7 0 14l109 110q-139 152 -138 365q1 149 71.5 272t194 194.5t273.5 72.5q213 -1 365 -139l112 112q7 7 14 0l21 -23q7 -7 0 -14z
M133 512q-2 -193 123 -330l694 695q-137 123 -329 124q-136 -1 -247.5 -65.5t-175.5 -176.5t-65 -247zM621 23q137 1 249.5 66t176 177t63.5 246q0 192 -124 329l-694 -694q137 -122 329 -124z" />
    <glyph glyph-name="product" unicode="&#x220f;" horiz-adv-x="1226" 
d="M92 1434h1043q10 0 10 -11v-28q0 -11 -10 -11h-174v-1374q0 -10 -11 -10h-30q-11 0 -11 10v1374h-592v-1374q0 -10 -10 -10h-31q-10 0 -10 10v1374h-174q-10 0 -10 11v28q0 11 10 11z" />
    <glyph glyph-name="summation" unicode="&#x2211;" horiz-adv-x="1042" 
d="M961 1423v-28q0 -11 -11 -11h-798l620 -634q6 -6 6 -15v-37q0 -8 -6 -14l-620 -635h798q11 0 11 -10v-29q0 -10 -11 -10h-858q-10 0 -10 10v33q0 8 4 12l645 662l-645 661q-4 4 -4 13v32q0 11 10 11h858q11 0 11 -11z" />
    <glyph glyph-name="minus" unicode="&#x2212;" horiz-adv-x="1114" 
d="M92 686h930q10 0 10 -10v-29q0 -10 -10 -10h-930q-10 0 -10 10v29q0 10 10 10z" />
    <glyph glyph-name="radical" unicode="&#x221a;" horiz-adv-x="1404" 
d="M1288 1434h29q10 0 6 -11l-547 -1407q-6 -16 -22 -16h-43q-20 0 -23 16l-374 959h-222q-10 0 -10 10v29q0 10 10 10h242q16 0 22 -16l374 -959h4l188 486l344 882q7 17 22 17z" />
    <glyph glyph-name="infinity" unicode="&#x221e;" horiz-adv-x="1357" 
d="M1001 1051h15q122 0 191 -94.5t69 -231.5v-35q0 -137 -69 -231t-191 -94h-15q-58 0 -103.5 19t-84.5 62.5t-67 88.5t-67 123q-39 -77 -67.5 -123t-67 -89t-84.5 -62t-104 -19h-14q-122 0 -191 94t-69 231v35q0 137 69 231.5t191 94.5h14q47 0 86.5 -14.5t69.5 -36.5
t60.5 -63t53 -80t53.5 -100q40 78 67.5 123.5t66.5 89t84.5 62.5t103.5 19zM354 999h-14q-97 0 -153 -80.5t-56 -195.5v-31q0 -115 56 -195.5t153 -80.5h14q40 0 74.5 14t60 34t56 62.5t51.5 79t57 102.5q-36 66 -57.5 102.5t-51.5 78.5t-55.5 62t-60 34t-74.5 14zM1018 999
h-14q-40 0 -74.5 -14t-60 -34t-55.5 -62t-51.5 -78.5t-57.5 -102.5q36 -66 57 -102.5t51.5 -79t56 -62.5t60 -34t74.5 -14h14q97 0 153 80.5t56 195.5v31q0 115 -56 195.5t-153 80.5z" />
    <glyph glyph-name="integral" unicode="&#x222b;" horiz-adv-x="874" 
d="M780 1501q13 -5 13 -18v-21q0 -6 -4.5 -9.5t-10.5 -0.5q-82 35 -147 35h-8q-86 0 -123 -43.5t-37 -136.5v-1588q0 -117 -51 -174t-158 -57h-12q-68 0 -148 35q-12 5 -12 18v21q0 6 4 9.5t10 0.5q82 -35 148 -35h8q86 0 123 43.5t37 136.5v1588q0 117 51 174t158 57h12
q67 0 147 -35z" />
    <glyph glyph-name="approxequal" unicode="&#x2248;" horiz-adv-x="946" 
d="M315 815q57 0 111 -25t105 -50t102 -25q37 0 82.5 14.5t65 24.5t65.5 34q9 4 13.5 0.5t4.5 -10.5v-18q0 -10 -10 -15q-4 -2 -12 -7q-38 -22 -61.5 -34t-66 -25t-83.5 -13q-57 0 -111 25t-105 50t-102 25q-13 0 -26 -1.5t-27.5 -5t-24.5 -6t-26 -9t-23.5 -9.5t-24.5 -11.5
l-21 -10.5t-21.5 -11.5t-18.5 -9.5q-9 -4 -13.5 -0.5t-4.5 10.5v19q0 11 6 14t32.5 17.5t36.5 19.5t34 15.5t40 15t39 8.5t45 4zM315 528q57 0 111 -25t105 -50t102 -25q13 0 26 1.5t27.5 5t24.5 6t26 9t23.5 9.5t24.5 11.5l21 10.5t21.5 11.5t18.5 9.5q9 4 13.5 0.5
t4.5 -10.5v-19q0 -9 -10 -14q-2 -1 -19 -11t-22 -12.5t-21 -11.5t-24 -12t-23.5 -10t-27 -10t-26.5 -6.5t-30 -5t-30 -1.5q-57 0 -111 25t-105 50t-102 25q-37 0 -82.5 -14.5t-65 -24.5t-65.5 -34q-9 -4 -13.5 -0.5t-4.5 10.5v18q0 12 6 15t27.5 15t31 16.5t29 14t33 14
t32 10t37 7.5t37.5 2z" />
    <glyph glyph-name="notequal" unicode="&#x2260;" horiz-adv-x="1116" 
d="M657 745l-137 -237h504q10 0 10 -10v-29q0 -10 -10 -10h-533l-143 -248q-6 -7 -14 -4l-27 16q-8 3 -4 15l128 221h-339q-10 0 -10 10v29q0 10 10 10h367l137 237h-504q-10 0 -10 11v28q0 11 10 11h533l143 247q7 7 14 5l27 -17q8 -3 4 -14l-128 -221h339q10 0 10 -11v-28
q0 -11 -10 -11h-367z" />
    <glyph glyph-name="lessequal" unicode="&#x2264;" horiz-adv-x="1114" 
d="M94 727l920 223q18 4 18 -12v-23q0 -15 -14 -18l-842 -197l842 -196q14 -4 14 -19v-22q0 -17 -18 -12l-920 223q-12 3 -12 18v17q0 15 12 18zM92 242h930q10 0 10 -11v-28q0 -10 -10 -10h-930q-10 0 -10 10v28q0 11 10 11z" />
    <glyph glyph-name="greaterequal" unicode="&#x2265;" horiz-adv-x="1114" 
d="M100 950l920 -223q12 -3 12 -18v-17q0 -15 -12 -18l-920 -223q-18 -5 -18 12v22q0 15 14 19l842 196l-842 197q-14 3 -14 18v23q0 16 18 12zM92 242h930q10 0 10 -11v-28q0 -10 -10 -10h-930q-10 0 -10 10v28q0 11 10 11z" />
    <glyph glyph-name="lozenge" unicode="&#x25ca;" horiz-adv-x="782" 
d="M369 1434h45q7 0 14 -7l266 -266q6 -6 6 -14v-45q0 -9 -6 -15l-266 -266q-6 -6 -14 -6h-45q-9 0 -15 6l-266 266q-6 6 -6 15v45q0 8 6 14l266 266q7 7 15 7zM127 1124l264 -268l264 268l-264 269z" />
    <glyph glyph-name="atsmall" unicode="&#xfe6b;" horiz-adv-x="1335" 
d="M569 1050h198q193 0 299 -101.5t106 -302.5v-350q0 -43 -16 -74t-40 -45t-43.5 -19.5t-36.5 -5.5h-32q-15 0 -34 4.5t-41.5 15.5t-37.5 34t-15 55q-50 -52 -110.5 -80.5t-113.5 -28.5h-6q-127 0 -193 78t-66 229v101q0 148 71 227.5t195 79.5h8q59 0 136 -24t122 -51
q9 -7 9 -15v-480q0 -56 21.5 -75.5t58.5 -19.5h23q37 0 63 22.5t26 78.5v335q0 185 -93 273t-261 88h-196q-168 0 -261 -88t-93 -273v-234q0 -379 354 -379h321q7 0 7 -7v-37q0 -7 -7 -7h-322q-193 0 -299 101t-106 302v270q0 201 106 302t299 101zM660 817h-5
q-101 0 -159 -66.5t-58 -190.5v-97q0 -258 210 -258h3q120 0 225 125v422q-110 65 -216 65z" />
    <glyph glyph-name="i.loclTRK" horiz-adv-x="382" 
d="M160 1333h67q13 0 13 -12v-80q0 -12 -13 -12h-67q-13 0 -13 12v80q0 12 13 12zM178 1024h31q10 0 10 -10v-1004q0 -10 -10 -10h-31q-10 0 -10 10v1004q0 10 10 10z" />
    <glyph glyph-name="a.ss01" horiz-adv-x="1110" 
d="M934 938q12 -9 12 -23v-905q0 -10 -10 -10h-31q-10 0 -10 10v142q-75 -89 -172.5 -134t-185.5 -45h-9q-188 0 -286.5 118t-98.5 345v152q0 223 106 343t290 120h12q88 0 201 -36t182 -77zM895 221v676q-178 104 -346 104h-8q-162 0 -254 -106.5t-92 -304.5v-156
q0 -202 84.5 -306.5t250.5 -104.5h5q193 0 360 198z" />
    <glyph glyph-name="aacute.ss01" horiz-adv-x="1110" 
d="M524 1215l146 323q7 14 22 14h23q8 0 11.5 -5.5t0.5 -12.5l-158 -322q-7 -14 -20 -14h-17q-6 0 -8.5 5.5t0.5 11.5zM934 938q12 -9 12 -23v-905q0 -10 -10 -10h-31q-10 0 -10 10v142q-75 -89 -172.5 -134t-185.5 -45h-9q-188 0 -286.5 118t-98.5 345v152q0 223 106 343
t290 120h12q88 0 201 -36t182 -77zM895 221v676q-178 104 -346 104h-8q-162 0 -254 -106.5t-92 -304.5v-156q0 -202 84.5 -306.5t250.5 -104.5h5q193 0 360 198z" />
    <glyph glyph-name="abreve.ss01" horiz-adv-x="1110" 
d="M805 1346q6 4 11 0.5t5 -9.5v-24q0 -14 -10 -21q-39 -31 -107 -57.5t-149 -26.5t-149 26.5t-107 57.5q-10 7 -10 21v24q0 6 5 9.5t11 -0.5q36 -25 63.5 -40.5t79.5 -31.5t107 -16t107 16t79.5 31.5t63.5 40.5zM934 938q12 -9 12 -23v-905q0 -10 -10 -10h-31q-10 0 -10 10
v142q-75 -89 -172.5 -134t-185.5 -45h-9q-188 0 -286.5 118t-98.5 345v152q0 223 106 343t290 120h12q88 0 201 -36t182 -77zM895 221v676q-178 104 -346 104h-8q-162 0 -254 -106.5t-92 -304.5v-156q0 -202 84.5 -306.5t250.5 -104.5h5q193 0 360 198z" />
    <glyph glyph-name="acaron.ss01" horiz-adv-x="1110" 
d="M727 1552h23q8 0 12 -5.5t0 -12.5l-178 -322q-7 -14 -21 -14h-16q-14 0 -21 14l-178 322q-4 7 0 12.5t12 5.5h23q16 0 23 -14l149 -292l150 292q7 14 22 14zM934 938q12 -9 12 -23v-905q0 -10 -10 -10h-31q-10 0 -10 10v142q-75 -89 -172.5 -134t-185.5 -45h-9
q-188 0 -286.5 118t-98.5 345v152q0 223 106 343t290 120h12q88 0 201 -36t182 -77zM895 221v676q-178 104 -346 104h-8q-162 0 -254 -106.5t-92 -304.5v-156q0 -202 84.5 -306.5t250.5 -104.5h5q193 0 360 198z" />
    <glyph glyph-name="acircumflex.ss01" horiz-adv-x="1110" 
d="M584 1538l178 -321q4 -7 0 -13t-12 -6h-23q-15 0 -22 14l-150 292l-149 -292q-7 -14 -23 -14h-23q-8 0 -12 6t0 13l178 321q7 14 21 14h16q14 0 21 -14zM934 938q12 -9 12 -23v-905q0 -10 -10 -10h-31q-10 0 -10 10v142q-75 -89 -172.5 -134t-185.5 -45h-9
q-188 0 -286.5 118t-98.5 345v152q0 223 106 343t290 120h12q88 0 201 -36t182 -77zM895 221v676q-178 104 -346 104h-8q-162 0 -254 -106.5t-92 -304.5v-156q0 -202 84.5 -306.5t250.5 -104.5h5q193 0 360 198z" />
    <glyph glyph-name="adieresis.ss01" horiz-adv-x="1110" 
d="M399 1333h68q12 0 12 -12v-80q0 -12 -12 -12h-68q-12 0 -12 12v80q0 12 12 12zM674 1333h67q12 0 12 -12v-80q0 -12 -12 -12h-67q-13 0 -13 12v80q0 12 13 12zM934 938q12 -9 12 -23v-905q0 -10 -10 -10h-31q-10 0 -10 10v142q-75 -89 -172.5 -134t-185.5 -45h-9
q-188 0 -286.5 118t-98.5 345v152q0 223 106 343t290 120h12q88 0 201 -36t182 -77zM895 221v676q-178 104 -346 104h-8q-162 0 -254 -106.5t-92 -304.5v-156q0 -202 84.5 -306.5t250.5 -104.5h5q193 0 360 198z" />
    <glyph glyph-name="agrave.ss01" horiz-adv-x="1110" 
d="M417 1538l145 -323q3 -6 0.5 -11.5t-8.5 -5.5h-17q-13 0 -20 14l-158 322q-3 7 1 12.5t12 5.5h22q16 0 23 -14zM934 938q12 -9 12 -23v-905q0 -10 -10 -10h-31q-10 0 -10 10v142q-75 -89 -172.5 -134t-185.5 -45h-9q-188 0 -286.5 118t-98.5 345v152q0 223 106 343
t290 120h12q88 0 201 -36t182 -77zM895 221v676q-178 104 -346 104h-8q-162 0 -254 -106.5t-92 -304.5v-156q0 -202 84.5 -306.5t250.5 -104.5h5q193 0 360 198z" />
    <glyph glyph-name="amacron.ss01" horiz-adv-x="1110" 
d="M327 1278h510q10 0 10 -10v-29q0 -10 -10 -10h-510q-10 0 -10 10v29q0 10 10 10zM934 938q12 -9 12 -23v-905q0 -10 -10 -10h-31q-10 0 -10 10v142q-75 -89 -172.5 -134t-185.5 -45h-9q-188 0 -286.5 118t-98.5 345v152q0 223 106 343t290 120h12q88 0 201 -36t182 -77z
M895 221v676q-178 104 -346 104h-8q-162 0 -254 -106.5t-92 -304.5v-156q0 -202 84.5 -306.5t250.5 -104.5h5q193 0 360 198z" />
    <glyph glyph-name="aogonek.ss01" horiz-adv-x="1110" 
d="M934 938q12 -9 12 -23v-905q0 -10 -10 -10q-109 -86 -161 -147.5t-52 -131.5q0 -56 34 -83t93 -27q30 0 72 10q14 3 14 -12v-17q0 -17 -16 -22q-30 -10 -74 -10q-75 0 -123.5 42.5t-48.5 121.5q0 70 45.5 128.5t175.5 161.5v138q-75 -89 -172.5 -134t-185.5 -45h-9
q-188 0 -286.5 118t-98.5 345v152q0 223 106 343t290 120h12q88 0 201 -36t182 -77zM530 23h5q193 0 360 198v676q-178 104 -346 104h-8q-162 0 -254 -106.5t-92 -304.5v-156q0 -202 84.5 -306.5t250.5 -104.5z" />
    <glyph glyph-name="aring.ss01" horiz-adv-x="1110" 
d="M577 1471q63 0 106.5 -43t43.5 -103q0 -61 -44 -104t-106 -43q-64 0 -106.5 43t-42.5 104q0 60 43 103t106 43zM577 1425q-44 0 -71 -28.5t-27 -69.5q0 -43 27 -73.5t71 -30.5t71.5 30.5t27.5 73.5q0 41 -27.5 69.5t-71.5 28.5zM934 938q12 -9 12 -23v-905q0 -10 -10 -10
h-31q-10 0 -10 10v142q-75 -89 -172.5 -134t-185.5 -45h-9q-188 0 -286.5 118t-98.5 345v152q0 223 106 343t290 120h12q88 0 201 -36t182 -77zM895 221v676q-178 104 -346 104h-8q-162 0 -254 -106.5t-92 -304.5v-156q0 -202 84.5 -306.5t250.5 -104.5h5q193 0 360 198z
" />
    <glyph glyph-name="atilde.ss01" horiz-adv-x="1110" 
d="M817 1331h22q16 0 11 -16q-13 -48 -65 -92.5t-111 -44.5h-9q-33 0 -60.5 15t-43 33t-39.5 33t-53 15q-68 0 -123 -90q-6 -13 -19 -13h-22q-16 0 -10 17q13 48 65 92.5t111 44.5h8q33 0 60.5 -15t43 -33t40 -33t53.5 -15q68 0 123 90q6 12 18 12zM934 938q12 -9 12 -23
v-905q0 -10 -10 -10h-31q-10 0 -10 10v142q-75 -89 -172.5 -134t-185.5 -45h-9q-188 0 -286.5 118t-98.5 345v152q0 223 106 343t290 120h12q88 0 201 -36t182 -77zM895 221v676q-178 104 -346 104h-8q-162 0 -254 -106.5t-92 -304.5v-156q0 -202 84.5 -306.5t250.5 -104.5
h5q193 0 360 198z" />
    <glyph glyph-name="ae.ss01" horiz-adv-x="1845" 
d="M1305 1051h22q186 0 282.5 -118t96.5 -345v-56q0 -10 -10 -10h-750v-127q0 -171 110 -271.5t281 -100.5h9q153 0 319 88q3 2 6.5 -0.5t3.5 -6.5v-26q0 -15 -12 -21q-64 -35 -152.5 -59.5t-162.5 -24.5h-13q-130 0 -232.5 54t-156.5 154v-171q0 -10 -10 -10h-31
q-10 0 -10 10v142q-75 -89 -172.5 -134t-185.5 -45h-9q-188 0 -286.5 118t-98.5 345v152q0 223 106 343t290 120h12q88 0 201 -36t182 -77q12 -9 12 -23v-94q51 110 145 170t214 60zM549 1001h-8q-162 0 -254 -106.5t-92 -304.5v-156q0 -202 84.5 -306.5t250.5 -104.5h5
q193 0 360 198v676q-178 104 -346 104zM1325 1001h-18q-160 0 -260 -116.5t-101 -313.5h709q0 219 -82.5 324.5t-247.5 105.5z" />
    <glyph glyph-name="y.ss01" 
d="M883 1024h30q11 0 11 -10v-1004q-2 -186 -97 -282.5t-278 -96.5h-12q-74 0 -163 24.5t-153 59.5q-12 6 -12 21v26q0 4 3.5 6.5t6.5 0.5q166 -88 320 -88h8q325 0 325 331v125q-82 -72 -184 -118t-190 -46h-9q-177 0 -253 97t-76 288v656q0 10 10 10h31q10 0 10 -10v-658
q0 -167 63 -250t218 -83h4q90 0 188 48t188 131v812q0 10 11 10z" />
    <glyph glyph-name="yacute.ss01" 
d="M533 1215l145 323q7 14 22 14h23q8 0 11.5 -5.5t0.5 -12.5l-157 -322q-7 -14 -21 -14h-16q-6 0 -8.5 5.5t0.5 11.5zM883 1024h30q11 0 11 -10v-1004q-2 -186 -97 -282.5t-278 -96.5h-12q-74 0 -163 24.5t-153 59.5q-12 6 -12 21v26q0 4 3.5 6.5t6.5 0.5q166 -88 320 -88
h8q325 0 325 331v125q-82 -72 -184 -118t-190 -46h-9q-177 0 -253 97t-76 288v656q0 10 10 10h31q10 0 10 -10v-658q0 -167 63 -250t218 -83h4q90 0 188 48t188 131v812q0 10 11 10z" />
    <glyph glyph-name="ycircumflex.ss01" 
d="M571 1538l179 -321q4 -7 -0.5 -13t-12.5 -6h-22q-16 0 -23 14l-149 292l-150 -292q-7 -14 -22 -14h-23q-8 0 -12 6t0 13l178 321q7 14 21 14h16q13 0 20 -14zM883 1024h30q11 0 11 -10v-1004q-2 -186 -97 -282.5t-278 -96.5h-12q-74 0 -163 24.5t-153 59.5q-12 6 -12 21
v26q0 4 3.5 6.5t6.5 0.5q166 -88 320 -88h8q325 0 325 331v125q-82 -72 -184 -118t-190 -46h-9q-177 0 -253 97t-76 288v656q0 10 10 10h31q10 0 10 -10v-658q0 -167 63 -250t218 -83h4q90 0 188 48t188 131v812q0 10 11 10z" />
    <glyph glyph-name="ydieresis.ss01" 
d="M372 1333h67q13 0 13 -12v-80q0 -12 -13 -12h-67q-13 0 -13 12v80q0 12 13 12zM646 1333h68q12 0 12 -12v-80q0 -12 -12 -12h-68q-12 0 -12 12v80q0 12 12 12zM883 1024h30q11 0 11 -10v-1004q-2 -186 -97 -282.5t-278 -96.5h-12q-74 0 -163 24.5t-153 59.5q-12 6 -12 21
v26q0 4 3.5 6.5t6.5 0.5q166 -88 320 -88h8q325 0 325 331v125q-82 -72 -184 -118t-190 -46h-9q-177 0 -253 97t-76 288v656q0 10 10 10h31q10 0 10 -10v-658q0 -167 63 -250t218 -83h4q90 0 188 48t188 131v812q0 10 11 10z" />
    <glyph glyph-name="ygrave.ss01" 
d="M422 1538l145 -323q3 -6 0.5 -11.5t-8.5 -5.5h-17q-13 0 -20 14l-158 322q-3 7 1 12.5t12 5.5h22q16 0 23 -14zM883 1024h30q11 0 11 -10v-1004q-2 -186 -97 -282.5t-278 -96.5h-12q-74 0 -163 24.5t-153 59.5q-12 6 -12 21v26q0 4 3.5 6.5t6.5 0.5q166 -88 320 -88h8
q325 0 325 331v125q-82 -72 -184 -118t-190 -46h-9q-177 0 -253 97t-76 288v656q0 10 10 10h31q10 0 10 -10v-658q0 -167 63 -250t218 -83h4q90 0 188 48t188 131v812q0 10 11 10z" />
    <glyph glyph-name="a.ss02" horiz-adv-x="999" 
d="M166 1024h663q11 0 11 -10v-1004q0 -10 -11 -10h-30q-11 0 -11 10v142q-75 -89 -172.5 -134t-185.5 -45h-12q-153 0 -244.5 78.5t-91.5 214.5v8q0 166 118 245t361 87l227 7v362h-622q-10 0 -10 10v29q0 10 10 10zM788 562l-258 -9q-203 -7 -300 -76t-97 -203v-10
q0 -110 77.5 -175.5t209.5 -65.5h8q193 0 360 198v341z" />
    <glyph glyph-name="aacute.ss02" horiz-adv-x="999" 
d="M488 1215l145 323q7 14 23 14h22q8 0 12 -5.5t1 -12.5l-158 -322q-7 -14 -21 -14h-16q-6 0 -8.5 5.5t0.5 11.5zM166 1024h663q11 0 11 -10v-1004q0 -10 -11 -10h-30q-11 0 -11 10v142q-75 -89 -172.5 -134t-185.5 -45h-12q-153 0 -244.5 78.5t-91.5 214.5v8
q0 166 118 245t361 87l227 7v362h-622q-10 0 -10 10v29q0 10 10 10zM788 562l-258 -9q-203 -7 -300 -76t-97 -203v-10q0 -110 77.5 -175.5t209.5 -65.5h8q193 0 360 198v341z" />
    <glyph glyph-name="abreve.ss02" horiz-adv-x="999" 
d="M750 1346q6 4 11 0.5t5 -9.5v-24q0 -14 -10 -21q-39 -31 -107 -57.5t-149 -26.5t-149 26.5t-107 57.5q-11 7 -11 21v24q0 6 5.5 9.5t11.5 -0.5q36 -25 63.5 -40.5t79.5 -31.5t107 -16t107 16t79.5 31.5t63.5 40.5zM166 1024h663q11 0 11 -10v-1004q0 -10 -11 -10h-30
q-11 0 -11 10v142q-75 -89 -172.5 -134t-185.5 -45h-12q-153 0 -244.5 78.5t-91.5 214.5v8q0 166 118 245t361 87l227 7v362h-622q-10 0 -10 10v29q0 10 10 10zM788 562l-258 -9q-203 -7 -300 -76t-97 -203v-10q0 -110 77.5 -175.5t209.5 -65.5h8q193 0 360 198v341z" />
    <glyph glyph-name="acaron.ss02" horiz-adv-x="999" 
d="M672 1552h22q8 0 12.5 -5.5t0.5 -12.5l-179 -322q-7 -14 -20 -14h-16q-14 0 -21 14l-178 322q-4 7 0 12.5t12 5.5h23q15 0 22 -14l150 -292l149 292q7 14 23 14zM166 1024h663q11 0 11 -10v-1004q0 -10 -11 -10h-30q-11 0 -11 10v142q-75 -89 -172.5 -134t-185.5 -45h-12
q-153 0 -244.5 78.5t-91.5 214.5v8q0 166 118 245t361 87l227 7v362h-622q-10 0 -10 10v29q0 10 10 10zM788 562l-258 -9q-203 -7 -300 -76t-97 -203v-10q0 -110 77.5 -175.5t209.5 -65.5h8q193 0 360 198v341z" />
    <glyph glyph-name="acircumflex.ss02" horiz-adv-x="999" 
d="M528 1538l179 -321q4 -7 -0.5 -13t-12.5 -6h-22q-16 0 -23 14l-149 292l-150 -292q-7 -14 -22 -14h-23q-8 0 -12 6t0 13l178 321q7 14 21 14h16q13 0 20 -14zM166 1024h663q11 0 11 -10v-1004q0 -10 -11 -10h-30q-11 0 -11 10v142q-75 -89 -172.5 -134t-185.5 -45h-12
q-153 0 -244.5 78.5t-91.5 214.5v8q0 166 118 245t361 87l227 7v362h-622q-10 0 -10 10v29q0 10 10 10zM788 562l-258 -9q-203 -7 -300 -76t-97 -203v-10q0 -110 77.5 -175.5t209.5 -65.5h8q193 0 360 198v341z" />
    <glyph glyph-name="adieresis.ss02" horiz-adv-x="999" 
d="M329 1333h67q13 0 13 -12v-80q0 -12 -13 -12h-67q-13 0 -13 12v80q0 12 13 12zM603 1333h68q12 0 12 -12v-80q0 -12 -12 -12h-68q-12 0 -12 12v80q0 12 12 12zM166 1024h663q11 0 11 -10v-1004q0 -10 -11 -10h-30q-11 0 -11 10v142q-75 -89 -172.5 -134t-185.5 -45h-12
q-153 0 -244.5 78.5t-91.5 214.5v8q0 166 118 245t361 87l227 7v362h-622q-10 0 -10 10v29q0 10 10 10zM788 562l-258 -9q-203 -7 -300 -76t-97 -203v-10q0 -110 77.5 -175.5t209.5 -65.5h8q193 0 360 198v341z" />
    <glyph glyph-name="agrave.ss02" horiz-adv-x="999" 
d="M373 1538l145 -323q3 -6 0.5 -11.5t-8.5 -5.5h-16q-14 0 -21 14l-157 322q-3 7 0.5 12.5t11.5 5.5h22q16 0 23 -14zM166 1024h663q11 0 11 -10v-1004q0 -10 -11 -10h-30q-11 0 -11 10v142q-75 -89 -172.5 -134t-185.5 -45h-12q-153 0 -244.5 78.5t-91.5 214.5v8
q0 166 118 245t361 87l227 7v362h-622q-10 0 -10 10v29q0 10 10 10zM788 562l-258 -9q-203 -7 -300 -76t-97 -203v-10q0 -110 77.5 -175.5t209.5 -65.5h8q193 0 360 198v341z" />
    <glyph glyph-name="amacron.ss02" horiz-adv-x="999" 
d="M245 1278h510q10 0 10 -10v-29q0 -10 -10 -10h-510q-11 0 -11 10v29q0 10 11 10zM166 1024h663q11 0 11 -10v-1004q0 -10 -11 -10h-30q-11 0 -11 10v142q-75 -89 -172.5 -134t-185.5 -45h-12q-153 0 -244.5 78.5t-91.5 214.5v8q0 166 118 245t361 87l227 7v362h-622
q-10 0 -10 10v29q0 10 10 10zM788 562l-258 -9q-203 -7 -300 -76t-97 -203v-10q0 -110 77.5 -175.5t209.5 -65.5h8q193 0 360 198v341z" />
    <glyph glyph-name="aogonek.ss02" horiz-adv-x="999" 
d="M166 1024h663q11 0 11 -10v-1004q0 -10 -11 -10q-109 -86 -161 -147.5t-52 -131.5q0 -56 34 -83t93 -27q30 0 72 10q14 3 14 -12v-17q0 -17 -16 -22q-30 -10 -74 -10q-75 0 -123.5 42.5t-48.5 121.5q0 70 46 129t175 161v138q-75 -89 -172.5 -134t-185.5 -45h-12
q-153 0 -244.5 78.5t-91.5 214.5v8q0 166 118 245t361 87l227 7v362h-622q-10 0 -10 10v29q0 10 10 10zM420 23h8q193 0 360 198v341l-258 -9q-203 -7 -300 -76t-97 -203v-10q0 -110 77.5 -175.5t209.5 -65.5z" />
    <glyph glyph-name="aring.ss02" horiz-adv-x="999" 
d="M500 1471q63 0 106 -43t43 -103q0 -61 -43.5 -104t-105.5 -43q-64 0 -107 43t-43 104q0 59 43 102.5t107 43.5zM500 1425q-44 0 -71.5 -28.5t-27.5 -69.5q0 -43 27.5 -73.5t71.5 -30.5t71 30.5t27 73.5q0 41 -27 69.5t-71 28.5zM166 1024h663q11 0 11 -10v-1004
q0 -10 -11 -10h-30q-11 0 -11 10v142q-75 -89 -172.5 -134t-185.5 -45h-12q-153 0 -244.5 78.5t-91.5 214.5v8q0 166 118 245t361 87l227 7v362h-622q-10 0 -10 10v29q0 10 10 10zM788 562l-258 -9q-203 -7 -300 -76t-97 -203v-10q0 -110 77.5 -175.5t209.5 -65.5h8
q193 0 360 198v341z" />
    <glyph glyph-name="atilde.ss02" horiz-adv-x="999" 
d="M744 1331h23q15 0 10 -16q-13 -48 -65 -92.5t-111 -44.5h-8q-33 0 -60.5 15t-43 33t-40 33t-53.5 15q-68 0 -123 -90q-7 -13 -18 -13h-23q-16 0 -10 17q13 48 65 92.5t111 44.5h9q33 0 60.5 -15t43 -33t39.5 -33t53 -15q68 0 123 90q6 12 18 12zM166 1024h663
q11 0 11 -10v-1004q0 -10 -11 -10h-30q-11 0 -11 10v142q-75 -89 -172.5 -134t-185.5 -45h-12q-153 0 -244.5 78.5t-91.5 214.5v8q0 166 118 245t361 87l227 7v362h-622q-10 0 -10 10v29q0 10 10 10zM788 562l-258 -9q-203 -7 -300 -76t-97 -203v-10q0 -110 77.5 -175.5
t209.5 -65.5h8q193 0 360 198v341z" />
    <glyph glyph-name="ae.ss02" horiz-adv-x="1738" 
d="M1198 1051h23q186 0 282 -118t96 -345v-56q0 -10 -10 -10h-749v-127q0 -171 110 -271.5t281 -100.5h8q154 0 320 88q3 2 6.5 -0.5t3.5 -6.5v-26q0 -14 -13 -21q-64 -35 -152.5 -59.5t-162.5 -24.5h-12q-130 0 -232.5 54t-156.5 154v-171q0 -10 -11 -10h-30q-11 0 -11 10
v142q-75 -89 -172.5 -134t-185.5 -45h-12q-153 0 -244.5 78.5t-91.5 214.5v8q0 166 118 245t361 87l227 7v362h-622q-10 0 -10 10v29q0 10 10 10h663q11 0 11 -10v-193q51 110 144.5 170t213.5 60zM840 571h708q0 219 -82.5 324.5t-246.5 105.5h-19q-159 0 -259 -116.5
t-101 -313.5zM788 562l-258 -9q-203 -7 -300 -76t-97 -203v-10q0 -110 77.5 -175.5t209.5 -65.5h8q193 0 360 198v341z" />
    <glyph glyph-name="f.ss02" horiz-adv-x="704" 
d="M219 1509h414q10 0 10 -10v-29q0 -10 -10 -10h-373v-436h320q10 0 10 -10v-29q0 -10 -10 -10h-320v-965q0 -10 -10 -10h-31q-10 0 -10 10v965h-137q-11 0 -11 10v29q0 10 11 10h137v475q0 10 10 10z" />
    <glyph glyph-name="g.ss02" horiz-adv-x="1110" 
d="M934 938q12 -9 12 -23v-1247q0 -10 -10 -10h-709q-10 0 -10 10v29q0 10 10 10h668v445q-75 -89 -172.5 -134t-185.5 -45h-9q-188 0 -286.5 118t-98.5 345v152q0 223 106 343t290 120h12q88 0 201 -36t182 -77zM530 23h5q193 0 360 198v676q-178 104 -346 104h-8
q-162 0 -254 -106.5t-92 -304.5v-156q0 -202 84.5 -306.5t250.5 -104.5z" />
    <glyph glyph-name="gbreve.ss02" horiz-adv-x="1110" 
d="M805 1346q6 4 11 0.5t5 -9.5v-24q0 -14 -10 -21q-39 -31 -107 -57.5t-149 -26.5t-149 26.5t-107 57.5q-10 7 -10 21v24q0 6 5 9.5t11 -0.5q36 -25 63.5 -40.5t79.5 -31.5t107 -16t107 16t79.5 31.5t63.5 40.5zM934 938q12 -9 12 -23v-1247q0 -10 -10 -10h-709
q-10 0 -10 10v29q0 10 10 10h668v445q-75 -89 -172.5 -134t-185.5 -45h-9q-188 0 -286.5 118t-98.5 345v152q0 223 106 343t290 120h12q88 0 201 -36t182 -77zM530 23h5q193 0 360 198v676q-178 104 -346 104h-8q-162 0 -254 -106.5t-92 -304.5v-156q0 -202 84.5 -306.5
t250.5 -104.5z" />
    <glyph glyph-name="gcommaaccent.ss02" horiz-adv-x="1110" 
d="M578 1198h-72q-12 0 -12 12v70q0 13 2 21l61 226q3 8 10 8h31q15 0 10 -19l-59 -213h29q12 0 12 -13v-80q0 -12 -12 -12zM934 938q12 -9 12 -23v-1247q0 -10 -10 -10h-709q-10 0 -10 10v29q0 10 10 10h668v445q-75 -89 -172.5 -134t-185.5 -45h-9q-188 0 -286.5 118
t-98.5 345v152q0 223 106 343t290 120h12q88 0 201 -36t182 -77zM530 23h5q193 0 360 198v676q-178 104 -346 104h-8q-162 0 -254 -106.5t-92 -304.5v-156q0 -202 84.5 -306.5t250.5 -104.5z" />
    <glyph glyph-name="gdotaccent.ss02" horiz-adv-x="1110" 
d="M553 1333h68q12 0 12 -12v-80q0 -12 -12 -12h-68q-12 0 -12 12v80q0 12 12 12zM934 938q12 -9 12 -23v-1247q0 -10 -10 -10h-709q-10 0 -10 10v29q0 10 10 10h668v445q-75 -89 -172.5 -134t-185.5 -45h-9q-188 0 -286.5 118t-98.5 345v152q0 223 106 343t290 120h12
q88 0 201 -36t182 -77zM530 23h5q193 0 360 198v676q-178 104 -346 104h-8q-162 0 -254 -106.5t-92 -304.5v-156q0 -202 84.5 -306.5t250.5 -104.5z" />
    <glyph glyph-name="r.ss02" horiz-adv-x="696" 
d="M174 1024h451q10 0 10 -10v-29q0 -10 -10 -10h-410v-965q0 -10 -10 -10h-31q-10 0 -10 10v1004q0 10 10 10z" />
    <glyph glyph-name="racute.ss02" horiz-adv-x="696" 
d="M375 1215l146 323q7 14 22 14h23q8 0 11.5 -5.5t0.5 -12.5l-158 -322q-7 -14 -20 -14h-16q-6 0 -9 5.5t0 11.5zM174 1024h451q10 0 10 -10v-29q0 -10 -10 -10h-410v-965q0 -10 -10 -10h-31q-10 0 -10 10v1004q0 10 10 10z" />
    <glyph glyph-name="rcaron.ss02" horiz-adv-x="696" 
d="M520 1552h23q8 0 12 -5.5t0 -12.5l-178 -322q-7 -14 -21 -14h-16q-14 0 -21 14l-178 322q-4 7 0.5 12.5t12.5 5.5h22q16 0 23 -14l149 -292l150 292q7 14 22 14zM174 1024h451q10 0 10 -10v-29q0 -10 -10 -10h-410v-965q0 -10 -10 -10h-31q-10 0 -10 10v1004q0 10 10 10z
" />
    <glyph glyph-name="rcommaaccent.ss02" horiz-adv-x="696" 
d="M174 1024h451q10 0 10 -10v-29q0 -10 -10 -10h-410v-965q0 -10 -10 -10h-31q-10 0 -10 10v1004q0 10 10 10zM176 -102h72q12 0 12 -13v-69q0 -13 -2 -21l-61 -226q-3 -8 -11 -8h-30q-16 0 -11 18l60 214h-29q-12 0 -12 13v79q0 13 12 13z" />
    <glyph glyph-name="t.ss02" horiz-adv-x="651" 
d="M217 1251l27 6q16 4 16 -10v-223h320q10 0 10 -10v-29q0 -10 -10 -10h-320v-926h320q10 0 10 -10v-29q0 -10 -10 -10h-361q-10 0 -10 10v965h-137q-11 0 -11 10v29q0 10 11 10h137v211q0 14 8 16z" />
    <glyph glyph-name="tbar.ss02" horiz-adv-x="651" 
d="M260 975v-275h320q10 0 10 -10v-29q0 -10 -10 -10h-320v-602h320q10 0 10 -10v-29q0 -10 -10 -10h-361q-10 0 -10 10v641h-137q-11 0 -11 10v29q0 10 11 10h137v275h-137q-11 0 -11 10v29q0 10 11 10h137v211q0 14 8 16l27 6q16 4 16 -10v-223h320q10 0 10 -10v-29
q0 -10 -10 -10h-320z" />
    <glyph glyph-name="tcaron.ss02" horiz-adv-x="811" 
d="M665 1509h71q13 0 13 -12v-70q0 -12 -2 -20l-62 -226q-3 -8 -10 -8h-31q-14 0 -10 18l59 214h-28q-13 0 -13 12v80q0 12 13 12zM217 1251l27 6q16 4 16 -10v-223h320q10 0 10 -10v-29q0 -10 -10 -10h-320v-926h320q10 0 10 -10v-29q0 -10 -10 -10h-361q-10 0 -10 10v965
h-137q-11 0 -11 10v29q0 10 11 10h137v211q0 14 8 16z" />
    <glyph glyph-name="tcedilla.ss02" horiz-adv-x="651" 
d="M260 975v-926h320q10 0 10 -10v-29q0 -10 -10 -10h-232l-23 -137q40 12 82 12q74 0 119 -40.5t45 -110.5q0 -79 -53.5 -121.5t-138.5 -42.5q-69 0 -123 18q-17 5 -17 23v16q0 16 15 12q75 -18 120 -18q68 0 108 27t40 83q0 51 -31.5 77t-83.5 26q-15 0 -30.5 -2.5
t-33.5 -6.5t-24 -5q-18 -4 -26 4l-7 6q-12 12 -10 20l27 160h-84q-10 0 -10 10v965h-137q-11 0 -11 10v29q0 10 11 10h137v211q0 14 8 16l27 6q16 4 16 -10v-223h320q10 0 10 -10v-29q0 -10 -10 -10h-320z" />
    <glyph glyph-name="uni021B.ss02" horiz-adv-x="651" 
d="M217 1251l27 6q16 4 16 -10v-223h320q10 0 10 -10v-29q0 -10 -10 -10h-320v-926h320q10 0 10 -10v-29q0 -10 -10 -10h-361q-10 0 -10 10v965h-137q-11 0 -11 10v29q0 10 11 10h137v211q0 14 8 16zM366 -102h72q12 0 12 -13v-69q0 -13 -2 -21l-61 -226q-3 -8 -11 -8h-30
q-16 0 -11 18l60 214h-29q-12 0 -12 13v79q0 13 12 13z" />
    <glyph glyph-name="y.ss02" 
d="M883 1024h30q11 0 11 -10v-1346q0 -10 -11 -10h-708q-10 0 -10 10v29q0 10 10 10h667v430q-82 -72 -184 -118t-190 -46h-9q-177 0 -253 97t-76 288v656q0 10 10 10h31q10 0 10 -10v-658q0 -167 63 -250t218 -83h4q90 0 188 48t188 131v812q0 10 11 10z" />
    <glyph glyph-name="yacute.ss02" 
d="M535 1215l146 323q7 14 22 14h23q8 0 11.5 -5.5t0.5 -12.5l-157 -322q-7 -14 -21 -14h-16q-6 0 -9 5.5t0 11.5zM883 1024h30q11 0 11 -10v-1346q0 -10 -11 -10h-708q-10 0 -10 10v29q0 10 10 10h667v430q-82 -72 -184 -118t-190 -46h-9q-177 0 -253 97t-76 288v656
q0 10 10 10h31q10 0 10 -10v-658q0 -167 63 -250t218 -83h4q90 0 188 48t188 131v812q0 10 11 10z" />
    </font>
</defs>
</svg>
