<svg xmlns="http://www.w3.org/2000/svg" xmlns:xlink="http://www.w3.org/1999/xlink" width="115" height="56" viewBox="0 0 115 56">
    <defs>
        <path id="w41aufnvda" d="M0.126 0.229L39.551 0.229 39.551 39.655 0.126 39.655z"/>
        <path id="8g66lswdrc" d="M0 0.043L4.552 0.043 4.552 5.629 0 5.629z"/>
        <path id="ib475bdn8e" d="M0.301 0.387L3.99 0.387 3.99 5.73 0.301 5.73z"/>
    </defs>
    <g fill="none" fill-rule="evenodd">
        <path fill="#58595B" d="M84.674 41.75l-1.2-2.402c-.053-.09-.188-.15-.305-.076-.978.68-2.287 1.079-3.738 1.079-3.122 0-5.313-2.531-5.313-5.656 0-3.125 2.19-5.658 5.313-5.658 1.453 0 2.762.401 3.738 1.08.11.062.245.034.304-.074l1.203-2.406c.064-.122.033-.243-.073-.309-1.461-1.03-3.244-1.634-5.172-1.634-4.97 0-9 4.03-9 9s4.03 9.002 9 9.002c1.928 0 3.708-.607 5.172-1.635.106-.072.137-.186.071-.31m-31.715 0l-1.2-2.403c-.051-.09-.187-.15-.305-.076-.978.68-2.285 1.079-3.736 1.079-3.125 0-5.315-2.531-5.315-5.656 0-3.125 2.19-5.658 5.315-5.658 1.454 0 2.76.401 3.737 1.08.108.062.244.034.303-.074l1.203-2.406c.065-.122.035-.243-.07-.309-1.464-1.03-3.248-1.634-5.173-1.634-4.971 0-9.001 4.03-9.001 9s4.03 9.002 9 9.002c1.926 0 3.708-.607 5.172-1.635.107-.072.137-.186.07-.31M67.5 29.978h-2.639c-.146.002-.273.074-.352.187l-5.795 8.386h-.256l.256-5.144v-3.214c0-.117-.095-.215-.214-.215h-2.571c-.117 0-.212.096-.215.212v12.861c0 .118.096.213.213.213h2.64c.146 0 .275-.074.351-.184l5.796-8.386h.256l-.256 5.142v3.215c0 .118.095.213.214.213H67.5c.116 0 .21-.093.214-.21v-12.86c0-.118-.096-.214-.214-.216m-31.714-3.857h-3.068c-.146.002-.275.074-.351.187l-7.51 10.832H24.6l.258-5.875v-4.929c0-.12-.097-.215-.213-.215h-3.002c-.117 0-.213.098-.213.215v16.715c0 .118.094.213.213.213h2.473c.144 0 .274-.072.351-.184l8.106-11.69h.258l-.258 5.874v5.787c0 .118.094.213.213.213h3c.116 0 .214-.093.215-.21V26.338c0-.117-.097-.213-.214-.215m-18.644.215l-.002 16.719c-.002.116-.096.21-.213.21h-2.999c-.12 0-.215-.096-.215-.214v-5.787l.257-5.749h-.257l-4.866 6.95h-.553l-4.867-6.95H3.17l.257 5.749v5.787c0 .118-.096.213-.213.213h-3c-.119 0-.211-.093-.214-.21V26.338c0-.117.095-.215.213-.215h2.99c.145 0 .275.072.352.182L8.57 33.48l5.015-7.176c.077-.11.206-.182.35-.182h2.99c.12 0 .216.098.216.215"/>
        <g transform="translate(75.302 .18)">
            <mask id="5yf9kjkpgb" fill="#fff">
                <use xlink:href="#w41aufnvda"/>
            </mask>
            <path fill="#00ADEE" d="M21.553 10.513c-3 0-5.721 1.186-7.725 3.113-.084.077-.087.217-.003.302l2.12 2.122c.084.086.22.086.304.004 1.383-1.31 3.249-2.112 5.304-2.112 4.258 0 7.714 3.454 7.714 7.714s-3.456 7.714-7.714 7.714c-2.053 0-3.919-.8-5.3-2.108-.093-.087-.224-.084-.306 0l-2.122 2.122c-.084.084-.082.218.002.3 2.004 1.93 4.725 3.115 7.726 3.115 6.153 0 11.143-4.99 11.143-11.143 0-6.154-4.99-11.143-11.143-11.143zm0-6.857v3.215c0 .118.09.217.225.217 7.942.12 14.345 6.595 14.345 14.568s-6.403 14.451-14.347 14.57c-.13 0-.223.098-.223.215v3c0 .114.09.207.204.214 9.848-.111 17.794-8.126 17.794-17.999 0-9.942-8.058-18-17.998-18zm0-3.214c0-.118-.095-.211-.21-.213C9.673.342.235 9.78.125 21.446c0 .116.095.208.21.21h3.006c.116-.002.212-.096.212-.22.12-9.839 8.13-17.78 17.999-17.78V.442zm4.285 21.214c0 2.367-1.92 4.286-4.285 4.286-2.367 0-4.287-1.919-4.287-4.286 0-2.367 1.92-4.285 4.287-4.285 2.365 0 4.285 1.918 4.285 4.285z" mask="url(#5yf9kjkpgb)"/>
        </g>
        <g transform="translate(0 48.882)">
            <mask id="rhz08k5sgd" fill="#fff">
                <use xlink:href="#8g66lswdrc"/>
            </mask>
            <path fill="#58595B" d="M4.466.043c.066 0 .105.059.078.117L2.663 4.218c-.467.98-.85 1.411-1.559 1.411h-.04c-.14 0-.364-.031-.484-.078-.035-.012-.055-.047-.055-.086v-.566c0-.054.035-.073.09-.054.125.047.212.067.311.067h.031c.366 0 .576-.153.862-.756l.02-.044L.01.16C-.018.102.02.044.086.044h.666C.807.044.85.07.873.118l.994 2.142.399 1.126h.02l.4-1.126.993-2.142c.023-.047.066-.074.12-.074h.667z" mask="url(#rhz08k5sgd)"/>
        </g>
        <path fill="#58595B" d="M7.907 50.496c.047 0 .078.031.078.078v3.773c0 .046-.031.078-.078.078h-.623c-.047 0-.078-.032-.078-.078v-1.612h-1.79v1.612c0 .046-.031.078-.077.078h-.624c-.046 0-.077-.032-.077-.078v-3.773c0-.047.03-.078.077-.078h.624c.046 0 .078.031.078.078v1.544h1.79v-1.544c0-.047.03-.078.077-.078h.623zM12.154 50.496c.046 0 .077.031.077.078v3.773c0 .046-.03.078-.077.078h-.623c-.047 0-.078-.032-.078-.078v-1.615l.023-1.158h-.066l-.645 1.12-.965 1.649c-.028.05-.047.082-.102.082h-.764c-.046 0-.077-.032-.077-.078v-3.773c0-.047.03-.078.077-.078h.624c.046 0 .077.031.077.078v1.502l-.023 1.271h.066l.72-1.232.89-1.537c.028-.05.048-.082.102-.082h.764zM13.878 53.85h.868c.524 0 .723-.246.723-.55v-.075c0-.325-.199-.56-.723-.56h-.868v1.185zm0-1.643h.733c.524 0 .734-.27.734-.555v-.075c0-.305-.198-.507-.722-.507h-.745v1.137zm.83-1.71c.95 0 1.416.376 1.416 1.019v.063c0 .342-.181.654-.532.824.447.14.67.465.67.876v.063c0 .642-.465 1.082-1.416 1.082h-1.669c-.047 0-.078-.03-.078-.077v-3.773c0-.047.031-.078.078-.078h1.531zM18.631 50.98c-.542 0-.906.419-.921 1.13h1.834c.01-.768-.277-1.13-.865-1.13h-.048zm.075-.586c.935 0 1.57.59 1.57 1.74v.337c0 .066-.051.116-.117.116H17.71l.002.27c-.002.682.476 1.046 1.11 1.046h.035c.374 0 .775-.13 1.18-.304.038-.016.077.008.077.054v.473c0 .063-.023.097-.07.117-.272.138-.852.284-1.287.284h-.067c-.997 0-1.778-.601-1.778-1.75v-.513c0-1.182.757-1.87 1.707-1.87h.086zM22.811 51.03c-.3 0-.627.136-.943.453v1.947c.32.322.654.46.943.46h.028c.57 0 .892-.38.892-1.104v-.651c0-.725-.321-1.105-.892-1.105h-.028zm.252-.636c.95 0 1.462.698 1.462 1.726v.631c0 1.152-.631 1.776-1.536 1.776h-.058c-.356 0-.756-.139-1.063-.458v1.59c0 .046-.03.078-.077.078h-.624c-.046 0-.077-.032-.077-.078v-5.085c0-.047.03-.078.077-.078h.554c.04 0 .066.024.074.063l.029.387c.31-.35.75-.552 1.18-.552h.059zM27.141 50.394c.382 0 .817.146 1.069.283.047.02.07.055.07.118v.472c0 .047-.039.07-.077.055-.358-.178-.641-.292-.961-.292h-.056c-.616 0-1.11.407-1.11 1.201v.458c0 .795.494 1.202 1.11 1.202h.056c.32 0 .603-.114.96-.292.04-.015.078.008.078.055v.472c0 .062-.023.098-.07.117-.252.138-.687.284-1.069.284h-.086c-.95 0-1.774-.61-1.774-1.826v-.481c0-1.217.824-1.826 1.774-1.826h.086zM32.377 50.496c.047 0 .078.031.078.078v3.773c0 .046-.031.078-.078.078h-.623c-.047 0-.078-.032-.078-.078v-1.615l.023-1.158h-.066l-.644 1.12-.966 1.649c-.027.05-.047.082-.102.082h-.763c-.047 0-.078-.032-.078-.078v-3.773c0-.047.031-.078.078-.078h.623c.047 0 .078.031.078.078v1.502l-.023 1.271h.066l.72-1.232.89-1.537c.027-.05.047-.082.102-.082h.763zM36.315 50.496c.047 0 .078.031.078.078v.461c0 .047-.031.078-.078.078H35.11v3.234c0 .046-.031.078-.078.078h-.623c-.047 0-.078-.032-.078-.078v-3.234h-1.206c-.048 0-.079-.031-.079-.078v-.461c0-.047.031-.078.079-.078h3.191zM38.564 50.98c-.543 0-.906.419-.922 1.13h1.835c.009-.768-.277-1.13-.866-1.13h-.047zm.075-.586c.935 0 1.569.59 1.569 1.74v.337c0 .066-.05.116-.117.116h-2.447l.001.27c-.001.682.476 1.046 1.11 1.046h.035c.374 0 .776-.13 1.18-.304.039-.016.078.008.078.054v.473c0 .063-.024.097-.07.117-.272.138-.853.284-1.288.284h-.066c-.997 0-1.778-.601-1.778-1.75v-.513c0-1.182.756-1.87 1.707-1.87h.086zM43.881 50.496c.047 0 .078.031.078.078v.461c0 .047-.031.078-.078.078h-1.206v3.234c0 .046-.031.078-.078.078h-.623c-.047 0-.078-.032-.078-.078v-3.234H40.69c-.048 0-.078-.031-.078-.078v-.461c0-.047.03-.078.078-.078h3.191zM49.43 50.496c.047 0 .078.031.078.078v3.773c0 .046-.031.078-.078.078h-.623c-.047 0-.078-.032-.078-.078v-1.612h-1.79v1.612c0 .046-.03.078-.077.078h-.624c-.046 0-.078-.032-.078-.078v-3.773c0-.047.032-.078.078-.078h.624c.046 0 .077.031.077.078v1.544h1.79v-1.544c0-.047.031-.078.078-.078h.623zM51.963 52.542c-.69.02-1 .266-1 .714v.032c0 .38.279.63.711.63h.035c.297 0 .586-.136.89-.46v-.934l-.636.018zm-.013-2.148c.874 0 1.42.392 1.427 1.485v2.468c0 .046-.031.078-.078.078h-.553c-.04 0-.066-.024-.075-.063l-.037-.421c-.303.329-.77.586-1.225.586h-.043c-.76 0-1.185-.49-1.185-1.12v-.062c0-.81.547-1.206 1.734-1.273l.683-.034-.001-.135c.002-.622-.212-.885-.812-.885h-.025c-.374 0-.79.13-1.195.28-.038.012-.078-.007-.078-.054v-.46c0-.063.024-.102.07-.118.338-.134.869-.272 1.354-.272h.04z"/>
        <g transform="translate(53.612 50.11)">
            <mask id="m2q9uo7pnf" fill="#fff">
                <use xlink:href="#ib475bdn8e"/>
            </mask>
            <path fill="#58595B" d="M3.911.387c.059 0 .094.047.074.105L2.527 4.585c-.24.68-.553 1.145-1.256 1.145h-.055c-.226 0-.534-.074-.641-.122-.043-.016-.063-.055-.063-.098v-.456c0-.047.04-.079.086-.063.208.075.37.114.533.114h.024c.276 0 .435-.139.578-.52l.1-.27h-.101c-.044 0-.079-.027-.095-.07L.307.492C.286.434.321.387.383.387h.623c.043 0 .078.027.094.07l.649 1.805.386 1.394h.02l.385-1.394.65-1.804c.015-.044.05-.071.093-.071h.627z" mask="url(#m2q9uo7pnf)"/>
        </g>
        <path fill="#58595B" d="M61.525 54.311c.031.055.004.113-.058.113h-.697c-.042 0-.082-.019-.101-.054l-1.108-1.654h-.57v1.63c0 .047-.03.078-.078.078h-.622c-.047 0-.079-.03-.079-.077v-3.773c0-.047.032-.078.079-.078h.622c.047 0 .079.031.079.078v1.525h.57l.973-1.545c.02-.034.062-.058.105-.058h.658c.063 0 .09.059.059.11l-1.108 1.776 1.276 1.93zM65.43 50.496c.047 0 .078.031.078.078v3.773c0 .046-.031.078-.078.078h-.623c-.047 0-.078-.032-.078-.078v-1.615l.023-1.158h-.066l-.644 1.12-.966 1.649c-.027.05-.047.082-.102.082h-.763c-.046 0-.078-.032-.078-.078v-3.773c0-.047.032-.078.078-.078h.623c.047 0 .078.031.078.078v1.502l-.023 1.271h.066l.72-1.232.89-1.537c.027-.05.047-.082.102-.082h.763zM71.283 50.496c.047 0 .078.031.078.078v3.773c0 .046-.03.078-.078.078h-.622c-.047 0-.079-.032-.079-.078v-1.615l.024-1.158h-.067l-.644 1.12-.966 1.649c-.027.05-.047.082-.101.082h-.764c-.046 0-.077-.032-.077-.078v-3.773c0-.047.03-.078.077-.078h.623c.047 0 .078.031.078.078v1.502l-.023 1.271h.066l.72-1.232.89-1.537c.028-.05.047-.082.102-.082h.763zM76.832 50.496c.047 0 .078.031.078.078v.461c0 .047-.031.078-.078.078h-1.206v3.234c0 .046-.031.078-.078.078h-.623c-.047 0-.078-.032-.078-.078v-3.234H73.64c-.046 0-.078-.031-.078-.078v-.461c0-.047.032-.078.078-.078h3.192zM79.08 50.98c-.542 0-.906.419-.92 1.13h1.833c.01-.768-.276-1.13-.864-1.13h-.048zm.076-.586c.935 0 1.57.59 1.57 1.74v.337c0 .066-.052.116-.118.116h-2.447l.001.27c0 .682.476 1.046 1.11 1.046h.036c.374 0 .775-.13 1.179-.304.038-.016.078.008.078.054v.473c0 .063-.024.097-.07.117-.272.138-.853.284-1.288.284h-.066c-.997 0-1.778-.601-1.778-1.75v-.513c0-1.182.756-1.87 1.706-1.87h.087zM84.53 50.496c.062 0 .09.06.059.11l-1.142 1.81 1.197 1.895c.031.051.004.114-.059.114h-.665c-.043 0-.079-.02-.101-.055l-.697-1.09-.192-.432h-.035l-.192.431-.697 1.091c-.023.035-.059.055-.101.055h-.666c-.062 0-.09-.063-.058-.114l1.197-1.894-1.146-1.811c-.027-.05-.004-.11.059-.11h.65c.042 0 .086.024.105.059l.657 1.023.193.43h.032l.194-.43.652-1.023c.024-.035.063-.059.106-.059h.65zM88.517 50.496c.047 0 .078.031.078.078v3.773c0 .046-.031.078-.078.078h-.623c-.047 0-.078-.032-.078-.078v-1.612h-1.79v1.612c0 .046-.03.078-.077.078h-.624c-.046 0-.077-.032-.077-.078v-3.773c0-.047.03-.078.077-.078h.624c.046 0 .078.031.078.078v1.544h1.79v-1.544c0-.047.03-.078.077-.078h.623zM91.169 51.03c-.567 0-.967.38-.967 1.105v.65c0 .726.4 1.106.967 1.106h.055c.567 0 .967-.38.967-1.105v-.651c0-.725-.4-1.105-.967-1.105h-.055zm.07-.636c.958 0 1.746.625 1.746 1.775v.582c0 1.152-.788 1.776-1.745 1.776h-.087c-.958 0-1.746-.624-1.746-1.776v-.582c0-1.15.788-1.775 1.746-1.775h.087zM97.14 50.496c.046 0 .077.031.077.078v3.773c0 .046-.031.078-.078.078h-.623c-.046 0-.078-.032-.078-.078v-3.234h-1.35l-.175 2.293c-.05.626-.304 1.12-.957 1.12h-.048c-.175 0-.362-.058-.444-.1-.048-.024-.063-.055-.063-.098v-.426c0-.039.027-.082.086-.063.09.036.161.052.244.052h.035c.253 0 .36-.226.388-.57l.216-2.747c.003-.047.031-.078.078-.078h2.691zM99.788 51.03c-.567 0-.967.38-.967 1.105v.65c0 .726.4 1.106.967 1.106h.055c.567 0 .967-.38.967-1.105v-.651c0-.725-.4-1.105-.967-1.105h-.055zm.07-.636c.959 0 1.746.625 1.746 1.775v.582c0 1.152-.787 1.776-1.746 1.776h-.086c-.958 0-1.746-.624-1.746-1.776v-.582c0-1.15.788-1.775 1.746-1.775h.086zM104.925 50.496c.047 0 .078.031.078.078v.46c0 .048-.031.079-.078.079h-1.731v3.234c0 .046-.032.078-.078.078h-.623c-.047 0-.078-.032-.078-.078v-3.773c0-.047.03-.078.078-.078h2.432zM108.894 50.496c.046 0 .077.031.077.078v3.773c0 .046-.03.078-.077.078h-.623c-.047 0-.079-.032-.079-.078v-1.615l.024-1.158h-.066l-.645 1.12-.965 1.649c-.028.05-.048.082-.102.082h-.764c-.046 0-.077-.032-.077-.078v-3.773c0-.047.031-.078.077-.078h.624c.046 0 .077.031.077.078v1.502l-.023 1.271h.066l.72-1.232.89-1.537c.028-.05.047-.082.102-.082h.764zM112.528 49.097c.054-.027.1-.004.1.054v.384c0 .055-.023.082-.054.105-.15.118-.542.303-1.017.303-.474 0-.867-.185-1.016-.303-.032-.023-.055-.05-.055-.105v-.384c0-.058.047-.081.101-.054.262.133.542.28.97.28.43 0 .708-.147.97-.28zm.608 1.4c.047 0 .078.03.078.077v3.773c0 .046-.031.078-.078.078h-.623c-.046 0-.078-.032-.078-.078v-1.615l.023-1.158h-.066l-.644 1.12-.966 1.649c-.027.05-.047.082-.102.082h-.763c-.047 0-.078-.032-.078-.078v-3.773c0-.047.031-.078.078-.078h.623c.047 0 .078.031.078.078v1.502l-.023 1.271h.066l.72-1.232.89-1.537c.027-.05.047-.082.102-.082h.763z"/>
    </g>
</svg>
